%TF.GenerationSoftware,KiCad,Pcbnew,(6.0.4)*%
%TF.CreationDate,2022-07-03T17:00:07-07:00*%
%TF.ProjectId,Athena54,41746865-6e61-4353-942e-6b696361645f,v1.0.0*%
%TF.SameCoordinates,Original*%
%TF.FileFunction,Copper,L1,Top*%
%TF.FilePolarity,Positive*%
%FSLAX46Y46*%
G04 Gerber Fmt 4.6, Leading zero omitted, Abs format (unit mm)*
G04 Created by KiCad (PCBNEW (6.0.4)) date 2022-07-03 17:00:07*
%MOMM*%
%LPD*%
G01*
G04 APERTURE LIST*
G04 Aperture macros list*
%AMRoundRect*
0 Rectangle with rounded corners*
0 $1 Rounding radius*
0 $2 $3 $4 $5 $6 $7 $8 $9 X,Y pos of 4 corners*
0 Add a 4 corners polygon primitive as box body*
4,1,4,$2,$3,$4,$5,$6,$7,$8,$9,$2,$3,0*
0 Add four circle primitives for the rounded corners*
1,1,$1+$1,$2,$3*
1,1,$1+$1,$4,$5*
1,1,$1+$1,$6,$7*
1,1,$1+$1,$8,$9*
0 Add four rect primitives between the rounded corners*
20,1,$1+$1,$2,$3,$4,$5,0*
20,1,$1+$1,$4,$5,$6,$7,0*
20,1,$1+$1,$6,$7,$8,$9,0*
20,1,$1+$1,$8,$9,$2,$3,0*%
%AMRotRect*
0 Rectangle, with rotation*
0 The origin of the aperture is its center*
0 $1 length*
0 $2 width*
0 $3 Rotation angle, in degrees counterclockwise*
0 Add horizontal line*
21,1,$1,$2,0,0,$3*%
G04 Aperture macros list end*
%TA.AperFunction,SMDPad,CuDef*%
%ADD10RoundRect,0.225000X0.225000X0.250000X-0.225000X0.250000X-0.225000X-0.250000X0.225000X-0.250000X0*%
%TD*%
%TA.AperFunction,ComponentPad*%
%ADD11C,0.800000*%
%TD*%
%TA.AperFunction,SMDPad,CuDef*%
%ADD12R,0.700000X0.600000*%
%TD*%
%TA.AperFunction,SMDPad,CuDef*%
%ADD13RoundRect,0.200000X0.200000X0.275000X-0.200000X0.275000X-0.200000X-0.275000X0.200000X-0.275000X0*%
%TD*%
%TA.AperFunction,SMDPad,CuDef*%
%ADD14RoundRect,0.218750X0.218750X0.256250X-0.218750X0.256250X-0.218750X-0.256250X0.218750X-0.256250X0*%
%TD*%
%TA.AperFunction,ComponentPad*%
%ADD15C,4.000000*%
%TD*%
%TA.AperFunction,SMDPad,CuDef*%
%ADD16R,4.434400X2.500000*%
%TD*%
%TA.AperFunction,SMDPad,CuDef*%
%ADD17R,4.461400X2.520000*%
%TD*%
%TA.AperFunction,ComponentPad*%
%ADD18RoundRect,0.337500X-0.337500X0.337500X-0.337500X-0.337500X0.337500X-0.337500X0.337500X0.337500X0*%
%TD*%
%TA.AperFunction,SMDPad,CuDef*%
%ADD19RoundRect,0.150000X0.475000X0.150000X-0.475000X0.150000X-0.475000X-0.150000X0.475000X-0.150000X0*%
%TD*%
%TA.AperFunction,SMDPad,CuDef*%
%ADD20RoundRect,0.250000X0.375000X0.625000X-0.375000X0.625000X-0.375000X-0.625000X0.375000X-0.625000X0*%
%TD*%
%TA.AperFunction,ConnectorPad*%
%ADD21C,0.787400*%
%TD*%
%TA.AperFunction,SMDPad,CuDef*%
%ADD22RoundRect,0.200000X0.275000X-0.200000X0.275000X0.200000X-0.275000X0.200000X-0.275000X-0.200000X0*%
%TD*%
%TA.AperFunction,SMDPad,CuDef*%
%ADD23RoundRect,0.225000X-0.225000X-0.250000X0.225000X-0.250000X0.225000X0.250000X-0.225000X0.250000X0*%
%TD*%
%TA.AperFunction,SMDPad,CuDef*%
%ADD24RoundRect,0.200000X-0.275000X0.200000X-0.275000X-0.200000X0.275000X-0.200000X0.275000X0.200000X0*%
%TD*%
%TA.AperFunction,SMDPad,CuDef*%
%ADD25R,0.800000X1.000000*%
%TD*%
%TA.AperFunction,SMDPad,CuDef*%
%ADD26R,1.500000X0.700000*%
%TD*%
%TA.AperFunction,SMDPad,CuDef*%
%ADD27RoundRect,0.150000X0.150000X-0.587500X0.150000X0.587500X-0.150000X0.587500X-0.150000X-0.587500X0*%
%TD*%
%TA.AperFunction,SMDPad,CuDef*%
%ADD28RoundRect,0.225000X-0.250000X0.225000X-0.250000X-0.225000X0.250000X-0.225000X0.250000X0.225000X0*%
%TD*%
%TA.AperFunction,SMDPad,CuDef*%
%ADD29RoundRect,0.150000X0.587500X0.150000X-0.587500X0.150000X-0.587500X-0.150000X0.587500X-0.150000X0*%
%TD*%
%TA.AperFunction,SMDPad,CuDef*%
%ADD30R,1.000000X1.550000*%
%TD*%
%TA.AperFunction,SMDPad,CuDef*%
%ADD31RoundRect,0.200000X-0.200000X-0.275000X0.200000X-0.275000X0.200000X0.275000X-0.200000X0.275000X0*%
%TD*%
%TA.AperFunction,SMDPad,CuDef*%
%ADD32R,1.450000X0.600000*%
%TD*%
%TA.AperFunction,SMDPad,CuDef*%
%ADD33R,1.450000X0.300000*%
%TD*%
%TA.AperFunction,ComponentPad*%
%ADD34O,2.100000X1.000000*%
%TD*%
%TA.AperFunction,ComponentPad*%
%ADD35O,1.600000X1.000000*%
%TD*%
%TA.AperFunction,SMDPad,CuDef*%
%ADD36RoundRect,0.062500X-0.062500X0.375000X-0.062500X-0.375000X0.062500X-0.375000X0.062500X0.375000X0*%
%TD*%
%TA.AperFunction,SMDPad,CuDef*%
%ADD37RoundRect,0.062500X-0.375000X0.062500X-0.375000X-0.062500X0.375000X-0.062500X0.375000X0.062500X0*%
%TD*%
%TA.AperFunction,SMDPad,CuDef*%
%ADD38R,1.600000X1.600000*%
%TD*%
%TA.AperFunction,ComponentPad*%
%ADD39R,1.524000X1.524000*%
%TD*%
%TA.AperFunction,SMDPad,CuDef*%
%ADD40R,4.461400X2.500000*%
%TD*%
%TA.AperFunction,SMDPad,CuDef*%
%ADD41RotRect,4.500000X2.500000X80.000000*%
%TD*%
%TA.AperFunction,ComponentPad*%
%ADD42RoundRect,0.200000X-0.300000X-0.200000X0.300000X-0.200000X0.300000X0.200000X-0.300000X0.200000X0*%
%TD*%
%TA.AperFunction,ViaPad*%
%ADD43C,0.800000*%
%TD*%
%TA.AperFunction,ViaPad*%
%ADD44C,0.600000*%
%TD*%
%TA.AperFunction,Conductor*%
%ADD45C,0.400000*%
%TD*%
%TA.AperFunction,Conductor*%
%ADD46C,0.250000*%
%TD*%
%TA.AperFunction,Conductor*%
%ADD47C,0.500000*%
%TD*%
%TA.AperFunction,Conductor*%
%ADD48C,0.300000*%
%TD*%
%TA.AperFunction,Conductor*%
%ADD49C,0.900000*%
%TD*%
%TA.AperFunction,Conductor*%
%ADD50C,0.800000*%
%TD*%
%TA.AperFunction,Conductor*%
%ADD51C,0.600000*%
%TD*%
%TA.AperFunction,Conductor*%
%ADD52C,0.700000*%
%TD*%
%TA.AperFunction,Conductor*%
%ADD53C,1.000000*%
%TD*%
%TA.AperFunction,Conductor*%
%ADD54C,0.200000*%
%TD*%
%TA.AperFunction,Conductor*%
%ADD55C,0.205740*%
%TD*%
%TA.AperFunction,Conductor*%
%ADD56C,0.293370*%
%TD*%
G04 APERTURE END LIST*
D10*
%TO.P,C6,1*%
%TO.N,VBAT*%
X113425000Y-34875000D03*
%TO.P,C6,2*%
%TO.N,GND*%
X111875000Y-34875000D03*
%TD*%
D11*
%TO.P,D21,1,K*%
%TO.N,ROW2*%
X84725000Y-12774000D03*
D12*
X84725000Y-13725000D03*
D11*
%TO.P,D21,2,A*%
%TO.N,Net-(D21-Pad2)*%
X84725000Y-16076000D03*
D12*
X84725000Y-15125000D03*
%TD*%
D13*
%TO.P,R3,1*%
%TO.N,GND*%
X117950000Y-40375000D03*
%TO.P,R3,2*%
%TO.N,/Power Management/TMR*%
X116300000Y-40375000D03*
%TD*%
D14*
%TO.P,FB1,1*%
%TO.N,Net-(F2-Pad2)*%
X112112500Y-61025000D03*
%TO.P,FB1,2*%
%TO.N,+5V*%
X110537500Y-61025000D03*
%TD*%
D11*
%TO.P,SW9,1,1*%
%TO.N,COL2*%
X26619200Y-62468000D03*
D15*
X21590000Y-63230000D03*
X22860000Y-60690000D03*
D16*
X24859200Y-63230000D03*
D11*
X27889200Y-61452000D03*
X26619200Y-63992000D03*
X27889200Y-59928000D03*
%TO.P,SW9,2,2*%
%TO.N,Net-(D10-Pad2)*%
X11480800Y-62468000D03*
X10210800Y-61452000D03*
D17*
X11984300Y-60700000D03*
D11*
X11480800Y-63992000D03*
X10210800Y-59928000D03*
D15*
X16510000Y-63230000D03*
X15240000Y-60690000D03*
%TD*%
D18*
%TO.P,J1,1,Pin_1*%
%TO.N,+BATT*%
X117683500Y-19325000D03*
%TO.P,J1,2,Pin_2*%
%TO.N,GND*%
X115683500Y-19325000D03*
%TD*%
D15*
%TO.P,SW14,1,1*%
%TO.N,COL4*%
X59690000Y-80000D03*
D11*
X64719200Y682000D03*
X65989200Y1698000D03*
D16*
X62959200Y-80000D03*
D11*
X64719200Y-842000D03*
X65989200Y3222000D03*
D15*
X60960000Y2460000D03*
D11*
%TO.P,SW14,2,2*%
%TO.N,Net-(D15-Pad2)*%
X48310800Y3222000D03*
D15*
X54610000Y-80000D03*
D11*
X49580800Y-842000D03*
D17*
X50084300Y2450000D03*
D11*
X49580800Y682000D03*
X48310800Y1698000D03*
D15*
X53340000Y2460000D03*
%TD*%
D12*
%TO.P,D8,1,K*%
%TO.N,ROW2*%
X10525000Y-15725000D03*
D11*
X10525000Y-14774000D03*
D12*
%TO.P,D8,2,A*%
%TO.N,Net-(D8-Pad2)*%
X10525000Y-17125000D03*
D11*
X10525000Y-18076000D03*
%TD*%
D13*
%TO.P,R14,1*%
%TO.N,EXT_PWR_EN*%
X115849999Y-15475000D03*
%TO.P,R14,2*%
%TO.N,Net-(Q2-Pad1)*%
X114199999Y-15475000D03*
%TD*%
D14*
%TO.P,F2,1*%
%TO.N,VBUS*%
X115112500Y-61025000D03*
%TO.P,F2,2*%
%TO.N,Net-(F2-Pad2)*%
X113537500Y-61025000D03*
%TD*%
D19*
%TO.P,U3,1,I/O1*%
%TO.N,DI-*%
X116125000Y-55975000D03*
%TO.P,U3,2,GND*%
%TO.N,GND*%
X116125000Y-55025000D03*
%TO.P,U3,3,I/O2*%
%TO.N,DI+*%
X116125000Y-54075000D03*
%TO.P,U3,4,I/O2*%
%TO.N,DO+*%
X113775000Y-54075000D03*
%TO.P,U3,5,VBUS*%
%TO.N,+5V*%
X113775000Y-55025000D03*
%TO.P,U3,6,I/O1*%
%TO.N,DO-*%
X113775000Y-55975000D03*
%TD*%
D11*
%TO.P,D4,1,K*%
%TO.N,ROW2*%
X8525000Y-14774000D03*
D12*
X8525000Y-15725000D03*
%TO.P,D4,2,A*%
%TO.N,Net-(D4-Pad2)*%
X8525000Y-17125000D03*
D11*
X8525000Y-18076000D03*
%TD*%
%TO.P,SW25,1,1*%
%TO.N,COL6*%
X102819200Y-23892000D03*
D15*
X97790000Y-23130000D03*
D11*
X102819200Y-22368000D03*
X104089200Y-19828000D03*
D16*
X101059200Y-23130000D03*
D11*
X104089200Y-21352000D03*
D15*
X99060000Y-20590000D03*
D11*
%TO.P,SW25,2,2*%
%TO.N,Net-(D26-Pad2)*%
X86410800Y-21352000D03*
D15*
X91440000Y-20590000D03*
D11*
X87680800Y-23892000D03*
X87680800Y-22368000D03*
D15*
X92710000Y-23130000D03*
D17*
X88184300Y-20600000D03*
D11*
X86410800Y-19828000D03*
%TD*%
D20*
%TO.P,D1,1,K*%
%TO.N,/Power Management/CHG*%
X126774999Y-48575000D03*
%TO.P,D1,2,A*%
%TO.N,Net-(D1-Pad2)*%
X123974999Y-48575000D03*
%TD*%
D21*
%TO.P,J3,1,VCC*%
%TO.N,VDD*%
X124540000Y-16355000D03*
%TO.P,J3,2,SWDIO*%
%TO.N,SWDIO*%
X125810000Y-16355000D03*
%TO.P,J3,3,~{RST}*%
%TO.N,RESET*%
X124540000Y-17625000D03*
%TO.P,J3,4,SWCLK*%
%TO.N,SWDCLK*%
X125810000Y-17625000D03*
%TO.P,J3,5,GND*%
%TO.N,GND*%
X124540000Y-18895000D03*
%TO.P,J3,6,SWO*%
%TO.N,unconnected-(J3-Pad6)*%
X125810000Y-18895000D03*
%TD*%
D12*
%TO.P,D17,1,K*%
%TO.N,ROW3*%
X48625000Y-29725000D03*
D11*
X48625000Y-28774000D03*
D12*
%TO.P,D17,2,A*%
%TO.N,Net-(D17-Pad2)*%
X48625000Y-31125000D03*
D11*
X48625000Y-32076000D03*
%TD*%
%TO.P,D28,1,K*%
%TO.N,ROW4*%
X86725001Y-50824000D03*
D12*
X86725001Y-51775000D03*
D11*
%TO.P,D28,2,A*%
%TO.N,Net-(D28-Pad2)*%
X86725001Y-54126000D03*
D12*
X86725001Y-53175000D03*
%TD*%
D14*
%TO.P,F1,1*%
%TO.N,VBAT*%
X121462500Y-19325000D03*
%TO.P,F1,2*%
%TO.N,+BATT*%
X119887500Y-19325000D03*
%TD*%
D22*
%TO.P,R1,1*%
%TO.N,+5V*%
X121325000Y-46450000D03*
%TO.P,R1,2*%
%TO.N,Net-(Q1-Pad1)*%
X121325000Y-44800000D03*
%TD*%
D23*
%TO.P,C8,1*%
%TO.N,GND*%
X107550000Y-59525000D03*
%TO.P,C8,2*%
%TO.N,+5V*%
X109100000Y-59525000D03*
%TD*%
D12*
%TO.P,D6,1,K*%
%TO.N,ROW4*%
X8525000Y-53775000D03*
D11*
X8525000Y-52824000D03*
%TO.P,D6,2,A*%
%TO.N,Net-(D6-Pad2)*%
X8525000Y-56126000D03*
D12*
X8525000Y-55175000D03*
%TD*%
%TO.P,D5,1,K*%
%TO.N,ROW3*%
X8525000Y-34725000D03*
D11*
X8525000Y-33774000D03*
D12*
%TO.P,D5,2,A*%
%TO.N,Net-(D5-Pad2)*%
X8525000Y-36125000D03*
D11*
X8525000Y-37076000D03*
%TD*%
D24*
%TO.P,R7,1*%
%TO.N,GND*%
X114925000Y-34825000D03*
%TO.P,R7,2*%
%TO.N,/Power Management/TS*%
X114925000Y-36475000D03*
%TD*%
D12*
%TO.P,D9,1,K*%
%TO.N,ROW3*%
X10525000Y-34725000D03*
D11*
X10525000Y-33774000D03*
D12*
%TO.P,D9,2,A*%
%TO.N,Net-(D9-Pad2)*%
X10525000Y-36125000D03*
D11*
X10525000Y-37076000D03*
%TD*%
%TO.P,D16,1,K*%
%TO.N,ROW2*%
X48625000Y-8624000D03*
D12*
X48625000Y-9575000D03*
%TO.P,D16,2,A*%
%TO.N,Net-(D16-Pad2)*%
X48625000Y-10975000D03*
D11*
X48625000Y-11926000D03*
%TD*%
D10*
%TO.P,C5,1*%
%TO.N,VDDH*%
X110700000Y-42125000D03*
%TO.P,C5,2*%
%TO.N,GND*%
X109150000Y-42125000D03*
%TD*%
D12*
%TO.P,D18,1,K*%
%TO.N,ROW4*%
X48625000Y-48775000D03*
D11*
X48625000Y-47824000D03*
D12*
%TO.P,D18,2,A*%
%TO.N,Net-(D18-Pad2)*%
X48625000Y-50175000D03*
D11*
X48625000Y-51126000D03*
%TD*%
D12*
%TO.P,D19,1,K*%
%TO.N,ROW5*%
X84725000Y-70825000D03*
D11*
X84725000Y-69874000D03*
D12*
%TO.P,D19,2,A*%
%TO.N,Net-(D19-Pad2)*%
X84725000Y-72225000D03*
D11*
X84725000Y-73176000D03*
%TD*%
D10*
%TO.P,C2,1*%
%TO.N,GND*%
X117950000Y-43675000D03*
%TO.P,C2,2*%
%TO.N,+5V*%
X116400000Y-43675000D03*
%TD*%
%TO.P,C7,1*%
%TO.N,VBAT*%
X113450000Y-36375000D03*
%TO.P,C7,2*%
%TO.N,GND*%
X111900000Y-36375000D03*
%TD*%
D25*
%TO.P,SW1,*%
%TO.N,*%
X125045000Y-45725000D03*
X127255000Y-38425000D03*
X125045000Y-38425000D03*
X127255000Y-45725000D03*
D26*
%TO.P,SW1,1,A*%
%TO.N,GND*%
X124395000Y-44325000D03*
%TO.P,SW1,2,B*%
%TO.N,/Power Management/SYSOFF*%
X124395000Y-41325000D03*
%TO.P,SW1,3,C*%
%TO.N,Net-(R6-Pad1)*%
X124395000Y-39825000D03*
%TD*%
D22*
%TO.P,R4,1*%
%TO.N,GND*%
X113525000Y-45300000D03*
%TO.P,R4,2*%
%TO.N,/Power Management/ILIM*%
X113525000Y-43650000D03*
%TD*%
D11*
%TO.P,D20,1,K*%
%TO.N,ROW1*%
X84725000Y6226001D03*
D12*
X84725000Y5275001D03*
%TO.P,D20,2,A*%
%TO.N,Net-(D20-Pad2)*%
X84725000Y3875001D03*
D11*
X84725000Y2924001D03*
%TD*%
D15*
%TO.P,SW6,1,1*%
%TO.N,COL2*%
X22860000Y-3540000D03*
D16*
X24859200Y-6080000D03*
D11*
X27889200Y-2778000D03*
X26619200Y-6842000D03*
X26619200Y-5318000D03*
D15*
X21590000Y-6080000D03*
D11*
X27889200Y-4302000D03*
D15*
%TO.P,SW6,2,2*%
%TO.N,Net-(D7-Pad2)*%
X16510000Y-6080000D03*
D11*
X10210800Y-2778000D03*
D17*
X11984300Y-3550000D03*
D11*
X10210800Y-4302000D03*
X11480800Y-5318000D03*
D15*
X15240000Y-3540000D03*
D11*
X11480800Y-6842000D03*
%TD*%
%TO.P,D15,1,K*%
%TO.N,ROW1*%
X48625000Y8226000D03*
D12*
X48625000Y7275000D03*
%TO.P,D15,2,A*%
%TO.N,Net-(D15-Pad2)*%
X48625000Y5875000D03*
D11*
X48625000Y4924000D03*
%TD*%
D12*
%TO.P,D12,1,K*%
%TO.N,ROW2*%
X46625000Y-9575000D03*
D11*
X46625000Y-8624000D03*
D12*
%TO.P,D12,2,A*%
%TO.N,Net-(D12-Pad2)*%
X46625000Y-10975000D03*
D11*
X46625000Y-11926000D03*
%TD*%
D15*
%TO.P,SW24,1,1*%
%TO.N,COL6*%
X97790000Y-4080000D03*
D11*
X102819200Y-4842000D03*
D16*
X101059200Y-4080000D03*
D11*
X104089200Y-778000D03*
X104089200Y-2302000D03*
D15*
X99060000Y-1540000D03*
D11*
X102819200Y-3318000D03*
D15*
%TO.P,SW24,2,2*%
%TO.N,Net-(D25-Pad2)*%
X91440000Y-1540000D03*
D11*
X86410800Y-2302000D03*
X86410800Y-778000D03*
X87680800Y-4842000D03*
D17*
X88184300Y-1550000D03*
D11*
X87680800Y-3318000D03*
D15*
X92710000Y-4080000D03*
%TD*%
D11*
%TO.P,SW27,1,1*%
%TO.N,COL6*%
X102819200Y-61992000D03*
D16*
X101059200Y-61230000D03*
D15*
X97790000Y-61230000D03*
D11*
X102819200Y-60468000D03*
D15*
X99060000Y-58690000D03*
D11*
X104089200Y-59452000D03*
X104089200Y-57928000D03*
%TO.P,SW27,2,2*%
%TO.N,Net-(D28-Pad2)*%
X87680800Y-60468000D03*
X86410800Y-59452000D03*
D17*
X88184300Y-58700000D03*
D11*
X87680800Y-61992000D03*
D15*
X91440000Y-58690000D03*
D11*
X86410800Y-57928000D03*
D15*
X92710000Y-61230000D03*
%TD*%
D11*
%TO.P,SW8,1,1*%
%TO.N,COL2*%
X26619200Y-43418000D03*
D15*
X22860000Y-41640000D03*
D11*
X27889200Y-42402000D03*
X26619200Y-44942000D03*
X27889200Y-40878000D03*
D15*
X21590000Y-44180000D03*
D16*
X24859200Y-44180000D03*
D11*
%TO.P,SW8,2,2*%
%TO.N,Net-(D9-Pad2)*%
X10210800Y-42402000D03*
D15*
X15240000Y-41640000D03*
X16510000Y-44180000D03*
D17*
X11984300Y-41650000D03*
D11*
X11480800Y-44942000D03*
X11480800Y-43418000D03*
X10210800Y-40878000D03*
%TD*%
D13*
%TO.P,R15,1*%
%TO.N,GND*%
X115849999Y-13575000D03*
%TO.P,R15,2*%
%TO.N,Net-(Q2-Pad1)*%
X114199999Y-13575000D03*
%TD*%
D12*
%TO.P,D22,1,K*%
%TO.N,ROW3*%
X84725000Y-32725000D03*
D11*
X84725000Y-31774000D03*
%TO.P,D22,2,A*%
%TO.N,Net-(D22-Pad2)*%
X84725000Y-35076000D03*
D12*
X84725000Y-34125000D03*
%TD*%
D15*
%TO.P,SW16,1,1*%
%TO.N,COL4*%
X59690000Y-38180000D03*
D11*
X64719200Y-38942000D03*
D15*
X60960000Y-35640000D03*
D16*
X62959200Y-38180000D03*
D11*
X65989200Y-36402000D03*
X65989200Y-34878000D03*
X64719200Y-37418000D03*
D15*
%TO.P,SW16,2,2*%
%TO.N,Net-(D17-Pad2)*%
X53340000Y-35640000D03*
D17*
X50084300Y-35650000D03*
D11*
X49580800Y-37418000D03*
D15*
X54610000Y-38180000D03*
D11*
X49580800Y-38942000D03*
X48310800Y-36402000D03*
X48310800Y-34878000D03*
%TD*%
D15*
%TO.P,SW7,1,1*%
%TO.N,COL2*%
X21590000Y-25130000D03*
D11*
X27889200Y-21828000D03*
X27889200Y-23352000D03*
D15*
X22860000Y-22590000D03*
D11*
X26619200Y-24368000D03*
D16*
X24859200Y-25130000D03*
D11*
X26619200Y-25892000D03*
%TO.P,SW7,2,2*%
%TO.N,Net-(D8-Pad2)*%
X11480800Y-24368000D03*
D15*
X16510000Y-25130000D03*
D11*
X10210800Y-23352000D03*
D15*
X15240000Y-22590000D03*
D17*
X11984300Y-22600000D03*
D11*
X11480800Y-25892000D03*
X10210800Y-21828000D03*
%TD*%
D12*
%TO.P,D3,1,K*%
%TO.N,ROW1*%
X8525000Y3275000D03*
D11*
X8525000Y4226000D03*
%TO.P,D3,2,A*%
%TO.N,Net-(D3-Pad2)*%
X8525000Y924000D03*
D12*
X8525000Y1875000D03*
%TD*%
D27*
%TO.P,Q1,1,G*%
%TO.N,Net-(Q1-Pad1)*%
X119425000Y-43112500D03*
%TO.P,Q1,2,S*%
%TO.N,GND*%
X121325000Y-43112500D03*
%TO.P,Q1,3,D*%
%TO.N,/Power Management/SYSOFF*%
X120375000Y-41237500D03*
%TD*%
D22*
%TO.P,R16,1*%
%TO.N,Net-(Q2-Pad3)*%
X115043750Y-11850000D03*
%TO.P,R16,2*%
%TO.N,VDDH*%
X115043750Y-10200000D03*
%TD*%
D11*
%TO.P,D23,1,K*%
%TO.N,ROW4*%
X84725000Y-50824000D03*
D12*
X84725000Y-51775000D03*
D11*
%TO.P,D23,2,A*%
%TO.N,Net-(D23-Pad2)*%
X84725000Y-54126000D03*
D12*
X84725000Y-53175000D03*
%TD*%
D15*
%TO.P,SW15,1,1*%
%TO.N,COL4*%
X59690000Y-19130000D03*
X60960000Y-16590000D03*
D16*
X62959200Y-19130000D03*
D11*
X65989200Y-17352000D03*
X64719200Y-18368000D03*
X64719200Y-19892000D03*
X65989200Y-15828000D03*
D17*
%TO.P,SW15,2,2*%
%TO.N,Net-(D16-Pad2)*%
X50084300Y-16600000D03*
D11*
X49580800Y-19892000D03*
X49580800Y-18368000D03*
X48310800Y-15828000D03*
X48310800Y-17352000D03*
D15*
X53340000Y-16590000D03*
X54610000Y-19130000D03*
%TD*%
D23*
%TO.P,C1,1*%
%TO.N,+5V*%
X116400000Y-42175000D03*
%TO.P,C1,2*%
%TO.N,GND*%
X117950000Y-42175000D03*
%TD*%
D12*
%TO.P,D13,1,K*%
%TO.N,ROW3*%
X46625000Y-29725000D03*
D11*
X46625000Y-28774000D03*
D12*
%TO.P,D13,2,A*%
%TO.N,Net-(D13-Pad2)*%
X46625000Y-31125000D03*
D11*
X46625000Y-32076000D03*
%TD*%
D12*
%TO.P,D7,1,K*%
%TO.N,ROW1*%
X10525000Y3275000D03*
D11*
X10525000Y4226000D03*
D12*
%TO.P,D7,2,A*%
%TO.N,Net-(D7-Pad2)*%
X10525000Y1875000D03*
D11*
X10525000Y924000D03*
%TD*%
D28*
%TO.P,C11,1*%
%TO.N,VDDH*%
X120125000Y-2700000D03*
%TO.P,C11,2*%
%TO.N,GND*%
X120125000Y-4250000D03*
%TD*%
D11*
%TO.P,D26,1,K*%
%TO.N,ROW2*%
X86725000Y-12774000D03*
D12*
X86725000Y-13725000D03*
%TO.P,D26,2,A*%
%TO.N,Net-(D26-Pad2)*%
X86725000Y-15125000D03*
D11*
X86725000Y-16076000D03*
%TD*%
D12*
%TO.P,D14,1,K*%
%TO.N,ROW4*%
X46625000Y-48775000D03*
D11*
X46625000Y-47824000D03*
D12*
%TO.P,D14,2,A*%
%TO.N,Net-(D14-Pad2)*%
X46625000Y-50175000D03*
D11*
X46625000Y-51126000D03*
%TD*%
D12*
%TO.P,D25,1,K*%
%TO.N,ROW1*%
X86725000Y5275000D03*
D11*
X86725000Y6226000D03*
D12*
%TO.P,D25,2,A*%
%TO.N,Net-(D25-Pad2)*%
X86725000Y3875000D03*
D11*
X86725000Y2924000D03*
%TD*%
D16*
%TO.P,SW17,1,1*%
%TO.N,COL4*%
X62959200Y-57230000D03*
D15*
X60960000Y-54690000D03*
D11*
X65989200Y-53928000D03*
D15*
X59690000Y-57230000D03*
D11*
X65989200Y-55452000D03*
X64719200Y-56468000D03*
X64719200Y-57992000D03*
D15*
%TO.P,SW17,2,2*%
%TO.N,Net-(D18-Pad2)*%
X54610000Y-57230000D03*
D11*
X49580800Y-56468000D03*
X49580800Y-57992000D03*
X48310800Y-53928000D03*
D17*
X50084300Y-54700000D03*
D11*
X48310800Y-55452000D03*
D15*
X53340000Y-54690000D03*
%TD*%
%TO.P,SW26,1,1*%
%TO.N,COL6*%
X99060000Y-39640001D03*
X97790000Y-42180001D03*
D11*
X102819200Y-42942001D03*
D16*
X101059200Y-42180001D03*
D11*
X102819200Y-41418001D03*
X104089200Y-38878001D03*
X104089200Y-40402001D03*
D15*
%TO.P,SW26,2,2*%
%TO.N,Net-(D27-Pad2)*%
X92710000Y-42180001D03*
D11*
X86410800Y-38878001D03*
D17*
X88184300Y-39650001D03*
D11*
X86410800Y-40402001D03*
D15*
X91440000Y-39640001D03*
D11*
X87680800Y-42942001D03*
X87680800Y-41418001D03*
%TD*%
D13*
%TO.P,R5,1*%
%TO.N,GND*%
X117950000Y-37875000D03*
%TO.P,R5,2*%
%TO.N,/Power Management/ISET*%
X116300000Y-37875000D03*
%TD*%
D29*
%TO.P,Q3,1,G*%
%TO.N,Net-(Q2-Pad3)*%
X112531250Y-11975000D03*
%TO.P,Q3,2,S*%
%TO.N,VDDH*%
X112531250Y-10075000D03*
%TO.P,Q3,3,D*%
%TO.N,EXT_PWR*%
X110656250Y-11025000D03*
%TD*%
D30*
%TO.P,SW29,1,1*%
%TO.N,GND*%
X126575000Y-30700000D03*
X126575000Y-35950000D03*
%TO.P,SW29,2,2*%
%TO.N,RESET*%
X124875000Y-30700000D03*
X124875000Y-35950000D03*
%TD*%
D31*
%TO.P,R8,1*%
%TO.N,Net-(D1-Pad2)*%
X109075000Y-39275000D03*
%TO.P,R8,2*%
%TO.N,VDDH*%
X110725000Y-39275000D03*
%TD*%
D32*
%TO.P,J2,A1,GND*%
%TO.N,GND*%
X119680000Y-58275000D03*
%TO.P,J2,A4,VBUS*%
%TO.N,VBUS*%
X119680000Y-57475000D03*
D33*
%TO.P,J2,A5,CC1*%
%TO.N,/USB-C/CC1*%
X119680000Y-56275000D03*
%TO.P,J2,A6,D+*%
%TO.N,DI+*%
X119680000Y-55275000D03*
%TO.P,J2,A7,D-*%
%TO.N,DI-*%
X119680000Y-54775000D03*
%TO.P,J2,A8,SBU1*%
%TO.N,unconnected-(J2-PadA8)*%
X119680000Y-53775000D03*
D32*
%TO.P,J2,A9,VBUS*%
%TO.N,VBUS*%
X119680000Y-52575000D03*
%TO.P,J2,A12,GND*%
%TO.N,GND*%
X119680000Y-51775000D03*
%TO.P,J2,B1,GND*%
X119680000Y-51775000D03*
%TO.P,J2,B4,VBUS*%
%TO.N,VBUS*%
X119680000Y-52575000D03*
D33*
%TO.P,J2,B5,CC2*%
%TO.N,/USB-C/CC2*%
X119680000Y-53275000D03*
%TO.P,J2,B6,D+*%
%TO.N,DI+*%
X119680000Y-54275000D03*
%TO.P,J2,B7,D-*%
%TO.N,DI-*%
X119680000Y-55775000D03*
%TO.P,J2,B8,SBU2*%
%TO.N,unconnected-(J2-PadB8)*%
X119680000Y-56775000D03*
D32*
%TO.P,J2,B9,VBUS*%
%TO.N,VBUS*%
X119680000Y-57475000D03*
%TO.P,J2,B12,GND*%
%TO.N,GND*%
X119680000Y-58275000D03*
D34*
%TO.P,J2,S1,SHIELD*%
X120595000Y-50705000D03*
D35*
X124775000Y-59345000D03*
X124775000Y-50705000D03*
D34*
X120595000Y-59345000D03*
%TD*%
D23*
%TO.P,C9,1*%
%TO.N,GND*%
X107525000Y-58025000D03*
%TO.P,C9,2*%
%TO.N,+5V*%
X109075000Y-58025000D03*
%TD*%
D29*
%TO.P,Q2,1,G*%
%TO.N,Net-(Q2-Pad1)*%
X112531250Y-15475000D03*
%TO.P,Q2,2,S*%
%TO.N,GND*%
X112531250Y-13575000D03*
%TO.P,Q2,3,D*%
%TO.N,Net-(Q2-Pad3)*%
X110656250Y-14525000D03*
%TD*%
D12*
%TO.P,D29,1,K*%
%TO.N,ROW5*%
X105775000Y-70825000D03*
D11*
X105775000Y-69874000D03*
%TO.P,D29,2,A*%
%TO.N,Net-(D29-Pad2)*%
X105775000Y-73176000D03*
D12*
X105775000Y-72225000D03*
%TD*%
%TO.P,D10,1,K*%
%TO.N,ROW4*%
X10525000Y-53775000D03*
D11*
X10525000Y-52824000D03*
D12*
%TO.P,D10,2,A*%
%TO.N,Net-(D10-Pad2)*%
X10525000Y-55175000D03*
D11*
X10525000Y-56126000D03*
%TD*%
D24*
%TO.P,R9,1*%
%TO.N,GND*%
X116275000Y-50400000D03*
%TO.P,R9,2*%
%TO.N,/USB-C/CC2*%
X116275000Y-52050000D03*
%TD*%
D36*
%TO.P,U1,1,TS*%
%TO.N,/Power Management/TS*%
X114275000Y-37837500D03*
%TO.P,U1,2,BAT*%
%TO.N,VBAT*%
X113775000Y-37837500D03*
%TO.P,U1,3,BAT*%
X113275000Y-37837500D03*
%TO.P,U1,4,~{CE}*%
%TO.N,GND*%
X112775000Y-37837500D03*
D37*
%TO.P,U1,5,EN2*%
X112087500Y-38525000D03*
%TO.P,U1,6,EN1*%
%TO.N,VDDH*%
X112087500Y-39025000D03*
%TO.P,U1,7,~{PGOOD}*%
%TO.N,unconnected-(U1-Pad7)*%
X112087500Y-39525000D03*
%TO.P,U1,8,VSS*%
%TO.N,GND*%
X112087500Y-40025000D03*
D36*
%TO.P,U1,9,~{CHG}*%
%TO.N,/Power Management/CHG*%
X112775000Y-40712500D03*
%TO.P,U1,10,OUT*%
%TO.N,VDDH*%
X113275000Y-40712500D03*
%TO.P,U1,11,OUT*%
X113775000Y-40712500D03*
%TO.P,U1,12,ILIM*%
%TO.N,/Power Management/ILIM*%
X114275000Y-40712500D03*
D37*
%TO.P,U1,13,IN*%
%TO.N,+5V*%
X114962500Y-40025000D03*
%TO.P,U1,14,TMR*%
%TO.N,/Power Management/TMR*%
X114962500Y-39525000D03*
%TO.P,U1,15,SYSOFF*%
%TO.N,/Power Management/SYSOFF*%
X114962500Y-39025000D03*
%TO.P,U1,16,ISET*%
%TO.N,/Power Management/ISET*%
X114962500Y-38525000D03*
D38*
%TO.P,U1,17,VSS*%
%TO.N,GND*%
X113525000Y-39275000D03*
%TD*%
D13*
%TO.P,R6,1*%
%TO.N,Net-(R6-Pad1)*%
X122700000Y-38425000D03*
%TO.P,R6,2*%
%TO.N,VBAT*%
X121050000Y-38425000D03*
%TD*%
D22*
%TO.P,R2,1*%
%TO.N,GND*%
X119425000Y-46425000D03*
%TO.P,R2,2*%
%TO.N,Net-(Q1-Pad1)*%
X119425000Y-44775000D03*
%TD*%
D12*
%TO.P,D27,1,K*%
%TO.N,ROW3*%
X86725000Y-32725000D03*
D11*
X86725000Y-31774000D03*
D12*
%TO.P,D27,2,A*%
%TO.N,Net-(D27-Pad2)*%
X86725000Y-34125000D03*
D11*
X86725000Y-35076000D03*
%TD*%
D39*
%TO.P,J4,1,Pin_1*%
%TO.N,EXT_PWR*%
X108693750Y-11025000D03*
%TO.P,J4,2,Pin_2*%
%TO.N,LED*%
X108693750Y-13025000D03*
%TO.P,J4,3,Pin_3*%
%TO.N,GND*%
X108693750Y-15125000D03*
%TD*%
D10*
%TO.P,C4,1*%
%TO.N,VDDH*%
X110700000Y-43575000D03*
%TO.P,C4,2*%
%TO.N,GND*%
X109150000Y-43575000D03*
%TD*%
D12*
%TO.P,D11,1,K*%
%TO.N,ROW1*%
X46625000Y7275000D03*
D11*
X46625000Y8226000D03*
D12*
%TO.P,D11,2,A*%
%TO.N,Net-(D11-Pad2)*%
X46625000Y5875000D03*
D11*
X46625000Y4924000D03*
%TD*%
D24*
%TO.P,R10,1*%
%TO.N,/USB-C/CC1*%
X116275000Y-58000000D03*
%TO.P,R10,2*%
%TO.N,GND*%
X116275000Y-59650000D03*
%TD*%
D12*
%TO.P,D24,1,K*%
%TO.N,ROW5*%
X86725000Y-70825000D03*
D11*
X86725000Y-69874000D03*
%TO.P,D24,2,A*%
%TO.N,Net-(D24-Pad2)*%
X86725000Y-73176000D03*
D12*
X86725000Y-72225000D03*
%TD*%
D15*
%TO.P,SW4,1,1*%
%TO.N,COL1*%
X-3810000Y-41640000D03*
D11*
X-8839200Y-40878000D03*
D15*
X-2540000Y-44180000D03*
D11*
X-8839200Y-42402000D03*
D40*
X-7065700Y-41640000D03*
D11*
X-7569200Y-44942000D03*
X-7569200Y-43418000D03*
%TO.P,SW4,2,2*%
%TO.N,Net-(D5-Pad2)*%
X7569200Y-44942000D03*
D15*
X2540000Y-44180000D03*
X3810000Y-41640000D03*
D11*
X8839200Y-42402000D03*
X8839200Y-40878000D03*
X7569200Y-43418000D03*
D16*
X5809200Y-44180000D03*
%TD*%
D15*
%TO.P,SW21,1,1*%
%TO.N,COL5*%
X73660000Y-40180000D03*
D11*
X67360800Y-36878000D03*
X68630800Y-39418000D03*
D15*
X72390000Y-37640000D03*
D11*
X67360800Y-38402000D03*
D40*
X69134300Y-37640000D03*
D11*
X68630800Y-40942000D03*
%TO.P,SW21,2,2*%
%TO.N,Net-(D22-Pad2)*%
X85039200Y-38402000D03*
D16*
X82009200Y-40180000D03*
D11*
X85039200Y-36878000D03*
X83769200Y-39418000D03*
D15*
X80010000Y-37640000D03*
D11*
X83769200Y-40942000D03*
D15*
X78740000Y-40180000D03*
%TD*%
D11*
%TO.P,SW18,1,1*%
%TO.N,COL4*%
X67360800Y-74978000D03*
X68630800Y-77518000D03*
D15*
X73660000Y-78280000D03*
D40*
X69134300Y-75740000D03*
D11*
X68630800Y-79042000D03*
X67360800Y-76502000D03*
D15*
X72390000Y-75740000D03*
D11*
%TO.P,SW18,2,2*%
%TO.N,Net-(D19-Pad2)*%
X83769200Y-77518000D03*
D15*
X78740000Y-78280000D03*
D11*
X83769200Y-79042000D03*
X85039200Y-76502000D03*
D15*
X80010000Y-75740000D03*
D16*
X82009200Y-78280000D03*
D11*
X85039200Y-74978000D03*
%TD*%
%TO.P,SW10,1,1*%
%TO.N,COL3*%
X30530800Y-1842000D03*
D40*
X31034300Y1460000D03*
D11*
X29260800Y2222000D03*
D15*
X35560000Y-1080000D03*
D11*
X30530800Y-318000D03*
X29260800Y698000D03*
D15*
X34290000Y1460000D03*
D11*
%TO.P,SW10,2,2*%
%TO.N,Net-(D11-Pad2)*%
X45669200Y-1842000D03*
D16*
X43909200Y-1080000D03*
D11*
X46939200Y2222000D03*
D15*
X40640000Y-1080000D03*
X41910000Y1460000D03*
D11*
X46939200Y698000D03*
X45669200Y-318000D03*
%TD*%
D40*
%TO.P,SW11,1,1*%
%TO.N,COL3*%
X31034300Y-17590000D03*
D11*
X29260800Y-18352000D03*
D15*
X34290000Y-17590000D03*
X35560000Y-20130000D03*
D11*
X29260800Y-16828000D03*
X30530800Y-20892000D03*
X30530800Y-19368000D03*
%TO.P,SW11,2,2*%
%TO.N,Net-(D12-Pad2)*%
X45669200Y-20892000D03*
X45669200Y-19368000D03*
D16*
X43909200Y-20130000D03*
D11*
X46939200Y-18352000D03*
D15*
X41910000Y-17590000D03*
X40640000Y-20130000D03*
D11*
X46939200Y-16828000D03*
%TD*%
%TO.P,SW5,1,1*%
%TO.N,COL1*%
X-7569200Y-62468000D03*
D15*
X-3810000Y-60690000D03*
D11*
X-8839200Y-59928000D03*
D40*
X-7065700Y-60690000D03*
D11*
X-7569200Y-63992000D03*
X-8839200Y-61452000D03*
D15*
X-2540000Y-63230000D03*
D11*
%TO.P,SW5,2,2*%
%TO.N,Net-(D6-Pad2)*%
X7569200Y-62468000D03*
X7569200Y-63992000D03*
D15*
X2540000Y-63230000D03*
X3810000Y-60690000D03*
D11*
X8839200Y-61452000D03*
D16*
X5809200Y-63230000D03*
D11*
X8839200Y-59928000D03*
%TD*%
D15*
%TO.P,SW19,1,1*%
%TO.N,COL5*%
X73660000Y-2080000D03*
D11*
X67360800Y1222000D03*
X68630800Y-2842000D03*
D15*
X72390000Y460000D03*
D40*
X69134300Y460000D03*
D11*
X68630800Y-1318000D03*
X67360800Y-302000D03*
%TO.P,SW19,2,2*%
%TO.N,Net-(D20-Pad2)*%
X83769200Y-1318000D03*
X85039200Y-302000D03*
D16*
X82009200Y-2080000D03*
D15*
X78740000Y-2080000D03*
D11*
X85039200Y1222000D03*
X83769200Y-2842000D03*
D15*
X80010000Y460000D03*
%TD*%
%TO.P,SW23,1,1*%
%TO.N,COL5*%
X92710000Y-80280000D03*
X91440000Y-77740000D03*
D11*
X86410800Y-76978000D03*
X86410800Y-78502000D03*
D40*
X88184300Y-77740000D03*
D11*
X87680800Y-81042000D03*
X87680800Y-79518000D03*
%TO.P,SW23,2,2*%
%TO.N,Net-(D24-Pad2)*%
X102819200Y-81042000D03*
D15*
X97790000Y-80280000D03*
X99060000Y-77740000D03*
D11*
X104089200Y-78502000D03*
X102819200Y-79518000D03*
D16*
X101059200Y-80280000D03*
D11*
X104089200Y-76978000D03*
%TD*%
%TO.P,SW20,1,1*%
%TO.N,COL5*%
X67360800Y-19352000D03*
X67360800Y-17828000D03*
D15*
X73660000Y-21130000D03*
D11*
X68630800Y-21892000D03*
X68630800Y-20368000D03*
D40*
X69134300Y-18590000D03*
D15*
X72390000Y-18590000D03*
D11*
%TO.P,SW20,2,2*%
%TO.N,Net-(D21-Pad2)*%
X83769200Y-20368000D03*
D16*
X82009200Y-21130000D03*
D11*
X85039200Y-19352000D03*
X83769200Y-21892000D03*
X85039200Y-17828000D03*
D15*
X80010000Y-18590000D03*
X78740000Y-21130000D03*
%TD*%
D11*
%TO.P,SW28,1,1*%
%TO.N,COL6*%
X116221917Y-86094002D03*
D15*
X117854473Y-81223499D03*
D41*
X117285775Y-84448744D03*
D15*
X120576418Y-80413859D03*
D11*
X118943862Y-85284363D03*
X117722764Y-86358642D03*
X120444709Y-85549003D03*
%TO.P,SW28,2,2*%
%TO.N,Net-(D29-Pad2)*%
X120810228Y-68848760D03*
X121590260Y-70275893D03*
D15*
X119177672Y-73719264D03*
X121458551Y-75411036D03*
D41*
X122031937Y-72159201D03*
D11*
X123091107Y-70540533D03*
X119309381Y-68584121D03*
%TD*%
%TO.P,SW22,1,1*%
%TO.N,COL5*%
X67360800Y-57452000D03*
D15*
X72390000Y-56690000D03*
D11*
X67360800Y-55928000D03*
D15*
X73660000Y-59230000D03*
D11*
X68630800Y-58468000D03*
D40*
X69134300Y-56690000D03*
D11*
X68630800Y-59992000D03*
D16*
%TO.P,SW22,2,2*%
%TO.N,Net-(D23-Pad2)*%
X82009200Y-59230000D03*
D11*
X85039200Y-57452000D03*
X83769200Y-58468000D03*
X85039200Y-55928000D03*
D15*
X78740000Y-59230000D03*
D11*
X83769200Y-59992000D03*
D15*
X80010000Y-56690000D03*
%TD*%
D42*
%TO.P,U4,35,LF-P1.10*%
%TO.N,unconnected-(U4-Pad35)*%
X121575000Y5575000D03*
%TO.P,U4,36,LF-P1.11*%
%TO.N,unconnected-(U4-Pad36)*%
X121575000Y4375000D03*
%TO.P,U4,37,LF-P1.12*%
%TO.N,unconnected-(U4-Pad37)*%
X121575000Y3175000D03*
%TO.P,U4,38,LF-P1.13*%
%TO.N,unconnected-(U4-Pad38)*%
X121575000Y1975000D03*
%TO.P,U4,39,GND*%
%TO.N,GND*%
X121575000Y775000D03*
%TO.P,U4,40,LF-P1.14*%
%TO.N,unconnected-(U4-Pad40)*%
X121575000Y-425000D03*
%TO.P,U4,41,LF-P1.15*%
%TO.N,unconnected-(U4-Pad41)*%
X121575000Y-1625000D03*
%TO.P,U4,42,VDDH*%
%TO.N,VDDH*%
X121575000Y-2825000D03*
%TO.P,U4,43,GND*%
%TO.N,GND*%
X121575000Y-4025000D03*
%TO.P,U4,44,P1.08*%
%TO.N,unconnected-(U4-Pad44)*%
X121575000Y-5225000D03*
%TO.P,U4,45,P1.09*%
%TO.N,unconnected-(U4-Pad45)*%
X121575000Y-6425000D03*
%TO.P,U4,46,VBUS*%
%TO.N,+5V*%
X111775000Y-6425000D03*
%TO.P,U4,47,USB-D-*%
%TO.N,DO-*%
X111775000Y-5225000D03*
%TO.P,U4,48,USB-D+*%
%TO.N,DO+*%
X111775000Y-4025000D03*
%TO.P,U4,49,P1.00*%
%TO.N,unconnected-(U4-Pad49)*%
X111775000Y-2825000D03*
%TO.P,U4,50,LF-P1.01*%
%TO.N,unconnected-(U4-Pad50)*%
X111775000Y-1625000D03*
%TO.P,U4,51,LF-P1.02*%
%TO.N,COL6*%
X111775000Y-425000D03*
%TO.P,U4,52,LF-P1.03*%
%TO.N,COL5*%
X111775000Y775000D03*
%TO.P,U4,53,LF-P1.04*%
%TO.N,COL4*%
X111775000Y1975000D03*
%TO.P,U4,54,LF-P1.05*%
%TO.N,COL3*%
X111775000Y3175000D03*
%TO.P,U4,55,LF-P1.06*%
%TO.N,COL2*%
X111775000Y4375000D03*
%TO.P,U4,56,LF-P1.07*%
%TO.N,COL1*%
X111775000Y5575000D03*
%TD*%
D11*
%TO.P,SW2,1,1*%
%TO.N,COL1*%
X-8839200Y-2778000D03*
X-7569200Y-5318000D03*
D40*
X-7065700Y-3540000D03*
D15*
X-3810000Y-3540000D03*
D11*
X-8839200Y-4302000D03*
X-7569200Y-6842000D03*
D15*
X-2540000Y-6080000D03*
D16*
%TO.P,SW2,2,2*%
%TO.N,Net-(D3-Pad2)*%
X5809200Y-6080000D03*
D15*
X3810000Y-3540000D03*
D11*
X7569200Y-5318000D03*
X8839200Y-4302000D03*
D15*
X2540000Y-6080000D03*
D11*
X7569200Y-6842000D03*
X8839200Y-2778000D03*
%TD*%
%TO.P,SW3,1,1*%
%TO.N,COL1*%
X-8839200Y-21828000D03*
D15*
X-2540000Y-25130000D03*
D11*
X-7569200Y-24368000D03*
X-7569200Y-25892000D03*
D15*
X-3810000Y-22590000D03*
D40*
X-7065700Y-22590000D03*
D11*
X-8839200Y-23352000D03*
D16*
%TO.P,SW3,2,2*%
%TO.N,Net-(D4-Pad2)*%
X5809200Y-25130000D03*
D15*
X2540000Y-25130000D03*
D11*
X8839200Y-21828000D03*
X7569200Y-24368000D03*
D15*
X3810000Y-22590000D03*
D11*
X7569200Y-25892000D03*
X8839200Y-23352000D03*
%TD*%
D15*
%TO.P,SW12,1,1*%
%TO.N,COL3*%
X35560000Y-39180000D03*
D11*
X30530800Y-39942000D03*
X30530800Y-38418000D03*
X29260800Y-35878000D03*
X29260800Y-37402000D03*
D15*
X34290000Y-36640000D03*
D40*
X31034300Y-36640000D03*
D16*
%TO.P,SW12,2,2*%
%TO.N,Net-(D13-Pad2)*%
X43909200Y-39180000D03*
D11*
X45669200Y-39942000D03*
X46939200Y-35878000D03*
D15*
X41910000Y-36640000D03*
X40640000Y-39180000D03*
D11*
X46939200Y-37402000D03*
X45669200Y-38418000D03*
%TD*%
%TO.P,SW13,1,1*%
%TO.N,COL3*%
X30530800Y-57468000D03*
X30530800Y-58992000D03*
D15*
X34290000Y-55690000D03*
D11*
X29260800Y-54928000D03*
D40*
X31034300Y-55690000D03*
D11*
X29260800Y-56452000D03*
D15*
X35560000Y-58230000D03*
D16*
%TO.P,SW13,2,2*%
%TO.N,Net-(D14-Pad2)*%
X43909200Y-58230000D03*
D15*
X41910000Y-55690000D03*
D11*
X45669200Y-57468000D03*
X45669200Y-58992000D03*
X46939200Y-54928000D03*
X46939200Y-56452000D03*
D15*
X40640000Y-58230000D03*
%TD*%
D43*
%TO.N,+5V*%
X114825489Y-46499511D03*
X109075000Y-56925000D03*
%TO.N,GND*%
X115375497Y-53025000D03*
X123975000Y-29425000D03*
X120475000Y-43125000D03*
X118025000Y-1075000D03*
X121975497Y-14625000D03*
X116843750Y-13575000D03*
X116843739Y-11125000D03*
X111275001Y-38125000D03*
X121764093Y-39571212D03*
X117925000Y-45975000D03*
X110975000Y-35625000D03*
X112543750Y-14475000D03*
X112475000Y-44475000D03*
X123975000Y-38675000D03*
X111121636Y-40468274D03*
X115275000Y-51225000D03*
X114934902Y-54529401D03*
X118925000Y-37875000D03*
X115925000Y-35625000D03*
X126575000Y-34575000D03*
X122462948Y-46887548D03*
X117525000Y-4375497D03*
X118775000Y-10325000D03*
X116822673Y-14575744D03*
X126575000Y-32075000D03*
X118160592Y-5289002D03*
X126574500Y-42075000D03*
X122448514Y-48065032D03*
X125847168Y-4077832D03*
X115275000Y-58825000D03*
X106725000Y-58775000D03*
X118475000Y-59375000D03*
X120525000Y-14675000D03*
X125175000Y-21725000D03*
X119125000Y-4275000D03*
X114824896Y-45500008D03*
X117824982Y-53275500D03*
X109925000Y-44625000D03*
X118375000Y-51775000D03*
%TO.N,VBUS*%
X122875000Y-54025000D03*
D44*
%TO.N,Net-(R6-Pad1)*%
X122713593Y-39593593D03*
%TO.N,Net-(D1-Pad2)*%
X122024999Y-48858594D03*
%TO.N,SWDIO*%
X116625498Y-4374971D03*
%TO.N,SWDCLK*%
X117525000Y-5925497D03*
%TO.N,/Power Management/CHG*%
X123424999Y-46825000D03*
X111737968Y-41123437D03*
%TO.N,/USB-C/CC2*%
X116275000Y-53025000D03*
%TO.N,/USB-C/CC1*%
X116275000Y-57025000D03*
%TO.N,/Power Management/SYSOFF*%
X125625000Y-42075000D03*
D43*
%TO.N,VDD*%
X122975000Y-14625000D03*
D44*
%TO.N,DI-*%
X120875000Y-55775000D03*
%TO.N,DI+*%
X117825000Y-54175000D03*
%TO.N,EXT_PWR_EN*%
X116843749Y-15475000D03*
%TO.N,RESET*%
X124875000Y-29425000D03*
%TD*%
D45*
%TO.N,+5V*%
X114227138Y-55025000D02*
X113775000Y-55025000D01*
D46*
X114962500Y-40912500D02*
X114962500Y-40025000D01*
D47*
X110537500Y-61025000D02*
X109974999Y-61025000D01*
X115500489Y-46499511D02*
X116400000Y-45599999D01*
D45*
X109075000Y-58025000D02*
X113825000Y-58025000D01*
D47*
X114825489Y-46499511D02*
X115500489Y-46499511D01*
D45*
X114975000Y-55772861D02*
X114227138Y-55025000D01*
X115374999Y-41325000D02*
X115624999Y-41575000D01*
D47*
X115624999Y-41575000D02*
X116225000Y-42175000D01*
D45*
X109075000Y-58025000D02*
X109075000Y-56925000D01*
D47*
X117575000Y-47825000D02*
X116400000Y-46650000D01*
X109100000Y-60150001D02*
X109100000Y-59525000D01*
X121325000Y-47225000D02*
X120725000Y-47825000D01*
D45*
X105275000Y-53125000D02*
X109075000Y-56925000D01*
D47*
X116400000Y-43675001D02*
X116400000Y-42175000D01*
D45*
X105275000Y-8325000D02*
X105275000Y-53125000D01*
X113825000Y-58025000D02*
X114975000Y-56875001D01*
D48*
X115124999Y-41075000D02*
X115374999Y-41325000D01*
D45*
X114975000Y-56875001D02*
X114975000Y-55772861D01*
D47*
X109075000Y-59500000D02*
X109075000Y-58025000D01*
X120725000Y-47825000D02*
X117575000Y-47825000D01*
X116400000Y-46650000D02*
X116400000Y-43675001D01*
X121325000Y-46450000D02*
X121325000Y-47225000D01*
D46*
X115124999Y-41075000D02*
X114962500Y-40912500D01*
D45*
X107175000Y-6425000D02*
X105275000Y-8325000D01*
D47*
X109974999Y-61025000D02*
X109100000Y-60150001D01*
X116400000Y-45599999D02*
X116400000Y-43675001D01*
D45*
X111775000Y-6425000D02*
X107175000Y-6425000D01*
%TO.N,GND*%
X125175000Y-19530000D02*
X125175000Y-21725000D01*
D49*
X117950000Y-43675000D02*
X117925000Y-43700000D01*
D50*
X122162500Y-43112500D02*
X121325000Y-43112500D01*
X118375000Y-46425000D02*
X119425000Y-46425000D01*
D46*
X111275001Y-38125000D02*
X111675000Y-38525000D01*
D51*
X118475000Y-58675000D02*
X118875000Y-58274999D01*
X109150000Y-43625000D02*
X109150000Y-43850000D01*
D50*
X120475000Y-43125000D02*
X120487500Y-43112500D01*
D47*
X119150001Y-4250000D02*
X120125000Y-4250000D01*
D50*
X117950001Y-42075000D02*
X117950000Y-40375000D01*
D45*
X116125000Y-55025000D02*
X115430501Y-55025000D01*
X115430501Y-55025000D02*
X114934902Y-54529401D01*
D47*
X106725000Y-58775000D02*
X106800000Y-58775000D01*
D51*
X118875000Y-58274999D02*
X119680000Y-58275000D01*
D45*
X115275000Y-58825000D02*
X116100000Y-59650000D01*
D50*
X117925000Y-45975000D02*
X118375000Y-46425000D01*
D51*
X119680000Y-51775000D02*
X118375000Y-51775000D01*
X121575000Y-4025000D02*
X120350000Y-4025000D01*
D52*
X124395000Y-44325000D02*
X123375000Y-44325000D01*
D50*
X111725000Y-34875000D02*
X111875000Y-34875000D01*
D46*
X111564910Y-40025000D02*
X112087500Y-40025000D01*
D50*
X113300000Y-45300000D02*
X113525000Y-45300000D01*
D45*
X124540000Y-18895000D02*
X125175000Y-19530000D01*
D53*
X126575000Y-34575000D02*
X126575000Y-35950000D01*
D51*
X120350000Y-4025000D02*
X120125000Y-4250000D01*
X112531249Y-13575000D02*
X112531250Y-14462500D01*
D47*
X106725000Y-58775000D02*
X107475000Y-58025000D01*
X119125000Y-4275000D02*
X119150001Y-4250000D01*
D50*
X115925000Y-35625000D02*
X115125000Y-34825000D01*
X112475000Y-44475000D02*
X113300000Y-45300000D01*
D46*
X111900000Y-36375000D02*
X112775000Y-37250000D01*
D50*
X117950000Y-37875000D02*
X118925000Y-37875000D01*
X109150000Y-43850000D02*
X109925000Y-44625000D01*
D46*
X111675000Y-38525000D02*
X112087500Y-38525000D01*
D51*
X118475000Y-59375000D02*
X118475000Y-58675000D01*
D49*
X117950000Y-42175000D02*
X117950000Y-43675000D01*
D46*
X111121636Y-40468274D02*
X111564910Y-40025000D01*
X112775000Y-37250000D02*
X112775000Y-37837500D01*
D53*
X126575000Y-30700000D02*
X126575000Y-32075000D01*
D49*
X117925000Y-43700000D02*
X117925000Y-45975000D01*
D50*
X115125000Y-34825000D02*
X114925000Y-34825000D01*
X109150000Y-42125000D02*
X109150000Y-43625000D01*
D45*
X112531250Y-14462500D02*
X112543750Y-14475000D01*
D50*
X118000000Y-42125000D02*
X117950001Y-42075000D01*
D46*
X112775000Y-37837500D02*
X112775000Y-38525000D01*
D50*
X111725000Y-36375000D02*
X111900000Y-36375000D01*
X110975000Y-35625000D02*
X111725000Y-34875000D01*
D52*
X123375000Y-44325000D02*
X122162500Y-43112500D01*
D46*
X112775000Y-38525000D02*
X113525000Y-39275000D01*
D45*
X115275000Y-51225000D02*
X116100000Y-50400000D01*
D50*
X120487500Y-43112500D02*
X121325000Y-43112500D01*
X115849999Y-13575000D02*
X116843750Y-13575000D01*
D46*
X112087500Y-38525000D02*
X112775000Y-38525000D01*
D47*
X106800000Y-58775000D02*
X107550000Y-59525000D01*
D50*
X110975000Y-35625000D02*
X111725000Y-36375000D01*
%TO.N,+BATT*%
X117683500Y-19325000D02*
X119887500Y-19325000D01*
D47*
%TO.N,VBUS*%
X118375000Y-57475000D02*
X119680000Y-57475000D01*
D45*
X121859521Y-57140479D02*
X122875000Y-56125000D01*
X120469661Y-57475000D02*
X120804182Y-57140479D01*
D47*
X117075000Y-61025001D02*
X117525001Y-60575000D01*
X115112500Y-61025000D02*
X117075000Y-61025001D01*
D45*
X119680000Y-52575001D02*
X120469661Y-52575000D01*
X120469661Y-52575000D02*
X120804182Y-52909521D01*
X119680000Y-57475000D02*
X120469661Y-57475000D01*
D47*
X117525001Y-60575000D02*
X117525000Y-58325000D01*
X117525000Y-58325000D02*
X118375000Y-57475000D01*
D45*
X120804182Y-52909521D02*
X121809521Y-52909521D01*
X121809521Y-52909521D02*
X122875000Y-53975000D01*
X122875000Y-56125000D02*
X122875000Y-54025000D01*
X122875000Y-53975000D02*
X122875000Y-54025000D01*
X120804182Y-57140479D02*
X121859521Y-57140479D01*
D54*
%TO.N,ROW1*%
X46625000Y7275000D02*
X46625000Y8226000D01*
X84725000Y5275000D02*
X84725000Y6226000D01*
X8525000Y3275000D02*
X8525000Y4226000D01*
X86725000Y5275000D02*
X86725000Y6225999D01*
X48625000Y7275000D02*
X48625000Y8226000D01*
X10525000Y3275000D02*
X10525000Y4226000D01*
%TO.N,ROW2*%
X8525000Y-15725000D02*
X8525000Y-14774000D01*
X10525000Y-15725000D02*
X10525000Y-14774000D01*
X48625000Y-9575000D02*
X48625000Y-8624000D01*
X46625000Y-9575000D02*
X46625000Y-8624000D01*
X84725000Y-13725000D02*
X84725000Y-12774000D01*
X86725000Y-13725000D02*
X86725000Y-12774000D01*
%TO.N,Net-(D3-Pad2)*%
X8525000Y1875000D02*
X8525000Y924000D01*
%TO.N,ROW3*%
X48625000Y-29725000D02*
X48625000Y-28774000D01*
X10525000Y-34725000D02*
X10525000Y-33774000D01*
X46625000Y-29725000D02*
X46625000Y-28774000D01*
X84725000Y-32725000D02*
X84725000Y-31774000D01*
X8525000Y-34725000D02*
X8525000Y-33774000D01*
X86725000Y-32725000D02*
X86725000Y-31774000D01*
%TO.N,Net-(D4-Pad2)*%
X8525000Y-17125000D02*
X8525000Y-18076000D01*
%TO.N,ROW4*%
X8525000Y-53775000D02*
X8525000Y-52824000D01*
X84725000Y-51775000D02*
X84725000Y-50824000D01*
X46625000Y-48775000D02*
X46625000Y-47824000D01*
X48625000Y-48775000D02*
X48625000Y-47824000D01*
X86725000Y-51775000D02*
X86725000Y-50824000D01*
X10525000Y-53775000D02*
X10525000Y-52824000D01*
%TO.N,Net-(D5-Pad2)*%
X8525000Y-36125000D02*
X8525000Y-37076000D01*
%TO.N,Net-(D6-Pad2)*%
X8525000Y-55175000D02*
X8525000Y-56126000D01*
%TO.N,Net-(D7-Pad2)*%
X10525000Y1875000D02*
X10525000Y924000D01*
%TO.N,Net-(D8-Pad2)*%
X10525000Y-17125000D02*
X10525000Y-18076000D01*
%TO.N,Net-(D9-Pad2)*%
X10525000Y-36125000D02*
X10525000Y-37076000D01*
%TO.N,Net-(D10-Pad2)*%
X10525000Y-55175000D02*
X10525000Y-56126000D01*
%TO.N,Net-(D11-Pad2)*%
X46625000Y5875000D02*
X46625000Y4924000D01*
%TO.N,Net-(D12-Pad2)*%
X46625000Y-10975000D02*
X46625000Y-11926000D01*
%TO.N,Net-(D13-Pad2)*%
X46625000Y-31125000D02*
X46625000Y-32076000D01*
%TO.N,Net-(D14-Pad2)*%
X46625000Y-50175001D02*
X46625000Y-51126000D01*
%TO.N,Net-(D15-Pad2)*%
X48625000Y5875000D02*
X48625000Y4924000D01*
%TO.N,Net-(D16-Pad2)*%
X48625000Y-10975000D02*
X48625000Y-11926000D01*
%TO.N,Net-(D17-Pad2)*%
X48625001Y-31125000D02*
X48625000Y-32076000D01*
%TO.N,ROW5*%
X105775000Y-70825000D02*
X105775000Y-69874000D01*
X84725000Y-70825000D02*
X84725000Y-69874000D01*
X86725000Y-70825000D02*
X86725000Y-69874000D01*
%TO.N,Net-(D18-Pad2)*%
X48625000Y-50175000D02*
X48625000Y-51126000D01*
%TO.N,Net-(D20-Pad2)*%
X84725000Y3875000D02*
X84725000Y2924000D01*
%TO.N,Net-(D21-Pad2)*%
X84725000Y-15125000D02*
X84725000Y-16076000D01*
%TO.N,Net-(D22-Pad2)*%
X84725000Y-34125000D02*
X84725000Y-35076000D01*
%TO.N,Net-(D23-Pad2)*%
X84725000Y-53175000D02*
X84725000Y-54126000D01*
%TO.N,Net-(D19-Pad2)*%
X84725000Y-72225000D02*
X84725000Y-73176000D01*
%TO.N,Net-(D25-Pad2)*%
X86725000Y3874999D02*
X86725000Y2924000D01*
%TO.N,Net-(D26-Pad2)*%
X86725000Y-15125000D02*
X86725000Y-16076000D01*
%TO.N,Net-(D27-Pad2)*%
X86725000Y-34125000D02*
X86725000Y-35076000D01*
%TO.N,Net-(D28-Pad2)*%
X86725000Y-53175000D02*
X86725000Y-54126000D01*
D52*
%TO.N,Net-(R6-Pad1)*%
X122945000Y-39825000D02*
X124395000Y-39824999D01*
X122713593Y-39593593D02*
X122945000Y-39825000D01*
X122713593Y-38438593D02*
X122713593Y-39593593D01*
D48*
%TO.N,Net-(D1-Pad2)*%
X122024999Y-48858594D02*
X122008593Y-48875000D01*
X110925000Y-48875000D02*
X108225000Y-46175000D01*
X108225000Y-40125000D02*
X109075000Y-39275000D01*
X122008593Y-48875000D02*
X110925000Y-48875000D01*
X108225000Y-46175000D02*
X108225000Y-40125000D01*
X122024999Y-48858594D02*
X123691405Y-48858594D01*
X123691405Y-48858594D02*
X123974999Y-48575000D01*
D54*
%TO.N,COL1*%
X98935023Y9075000D02*
X85775000Y9075000D01*
X28950000Y6000000D02*
X-2600000Y6000000D01*
X-2600000Y6000000D02*
X-7000000Y1600000D01*
X41369028Y7649040D02*
X30599040Y7649040D01*
X85775000Y9075000D02*
X83800000Y11050000D01*
X30599040Y7649040D02*
X28950000Y6000000D01*
X44769988Y11050000D02*
X41369028Y7649040D01*
X102435024Y5575000D02*
X98935023Y9075000D01*
X-7065700Y-3540000D02*
X-7065700Y-22590000D01*
X83800000Y11050000D02*
X44769988Y11050000D01*
X-7000000Y1600000D02*
X-7000000Y-3474300D01*
X-7065700Y-60690000D02*
X-7065700Y-41640000D01*
X-7065700Y-41640000D02*
X-7065700Y-22590000D01*
X111775000Y5575000D02*
X102435024Y5575000D01*
%TO.N,COL2*%
X30764526Y7249520D02*
X26050000Y2534994D01*
X85609514Y8675480D02*
X83634514Y10650480D01*
X83634514Y10650480D02*
X44935474Y10650480D01*
X25354521Y-62734679D02*
X25354521Y-44675321D01*
X111775000Y4375000D02*
X103070018Y4375000D01*
X25354521Y-6575321D02*
X25354521Y-24634679D01*
X44935474Y10650480D02*
X41534513Y7249520D01*
X98769538Y8675479D02*
X85609514Y8675480D01*
X103070018Y4375000D02*
X98769538Y8675479D01*
X41534513Y7249520D02*
X30764526Y7249520D01*
X26050000Y2534994D02*
X26050000Y-4889200D01*
X26050000Y-4889200D02*
X24859200Y-6080000D01*
X25354521Y-25625321D02*
X25354521Y-43684679D01*
%TO.N,COL3*%
X31034300Y4334300D02*
X31034300Y1460000D01*
X111775000Y3175000D02*
X103705012Y3175000D01*
X98604053Y8275960D02*
X85444028Y8275960D01*
X103705012Y3175000D02*
X98604053Y8275960D01*
X45100960Y10250960D02*
X41700001Y6850001D01*
X31034300Y-36640000D02*
X31034300Y-55690000D01*
X83469028Y10250960D02*
X45100960Y10250960D01*
X41700001Y6850001D02*
X33550001Y6850001D01*
X31034300Y1460000D02*
X31034300Y-17590001D01*
X85444028Y8275960D02*
X83469028Y10250960D01*
X31034300Y-36640000D02*
X31034300Y-17590001D01*
X33550001Y6850001D02*
X31034300Y4334300D01*
%TO.N,COL4*%
X69134300Y-63405100D02*
X62959201Y-57230000D01*
X62959200Y1409200D02*
X62959200Y-80000D01*
X83303542Y9851440D02*
X71401440Y9851440D01*
X71401440Y9851440D02*
X62959200Y1409200D01*
X104340006Y1975000D02*
X98438566Y7876440D01*
X85278542Y7876440D02*
X83303542Y9851440D01*
X111775000Y1975000D02*
X104340006Y1975000D01*
X63454521Y-56734679D02*
X63454521Y-38675321D01*
X63454521Y-575321D02*
X63454521Y-18634679D01*
X63454521Y-37684679D02*
X63454521Y-19625321D01*
X98438566Y7876440D02*
X85278542Y7876440D01*
X69134300Y-75740000D02*
X69134300Y-63405100D01*
%TO.N,COL5*%
X69134300Y-37640000D02*
X69134300Y-56690000D01*
X83138056Y9451920D02*
X71566926Y9451920D01*
X104975000Y775000D02*
X111775000Y775000D01*
X73660000Y-59230000D02*
X80630001Y-66200000D01*
X85113056Y7476920D02*
X83138056Y9451920D01*
X86200000Y-66200000D02*
X88184300Y-68184300D01*
X69134300Y7019294D02*
X69134300Y460000D01*
X98273080Y7476920D02*
X85113056Y7476920D01*
X104975000Y775000D02*
X98273080Y7476920D01*
X69134300Y-18590000D02*
X69134300Y-37640000D01*
X88184300Y-68184300D02*
X88184300Y-77740001D01*
X80630001Y-66200000D02*
X86200000Y-66200000D01*
X71566926Y9451920D02*
X69134300Y7019294D01*
X69134300Y460000D02*
X69134300Y-18590000D01*
%TO.N,COL6*%
X101554521Y-4575321D02*
X101554521Y-22634679D01*
X101554521Y-42675321D02*
X101554521Y-60734679D01*
X103819999Y-4080000D02*
X107475000Y-425000D01*
X101059200Y-4080000D02*
X103819999Y-4080000D01*
X101059200Y-61230000D02*
X101059200Y-71159200D01*
X113780673Y-83880673D02*
X117055267Y-83880673D01*
X101059200Y-71159200D02*
X113780673Y-83880673D01*
X107475000Y-425000D02*
X111775000Y-425000D01*
X101554521Y-23625321D02*
X101554521Y-41684679D01*
%TO.N,SWDIO*%
X116625497Y-6525498D02*
X119475000Y-9375000D01*
X126175000Y-10725000D02*
X126175000Y-15990000D01*
X116625498Y-4374971D02*
X116625497Y-6525498D01*
X124825000Y-9375000D02*
X126175000Y-10725000D01*
X126175000Y-15990000D02*
X125810000Y-16355000D01*
X119475000Y-9375000D02*
X124825000Y-9375000D01*
%TO.N,SWDCLK*%
X126875000Y-10325000D02*
X126875000Y-17175000D01*
X120074503Y-8475000D02*
X125025000Y-8475000D01*
X126425000Y-17625000D02*
X125810000Y-17625000D01*
X125025000Y-8475000D02*
X126875000Y-10325000D01*
X126875000Y-17175000D02*
X126425000Y-17625000D01*
X117525000Y-5925497D02*
X120074503Y-8475000D01*
%TO.N,Net-(D24-Pad2)*%
X86725000Y-72225000D02*
X86725000Y-73176000D01*
D47*
%TO.N,VDDH*%
X110700000Y-42125000D02*
X110272125Y-41697125D01*
X115125000Y-10118750D02*
X115124999Y-4025000D01*
D45*
X112125000Y-42875000D02*
X111725000Y-43275000D01*
D47*
X111425000Y-43575000D02*
X110700000Y-43575000D01*
X110700000Y-43575000D02*
X110700000Y-42125000D01*
D46*
X112575000Y-42425000D02*
X113225000Y-42425000D01*
X112087500Y-39025000D02*
X110975000Y-39025000D01*
D47*
X116500000Y-2650000D02*
X120075000Y-2650000D01*
X110675000Y-39275000D02*
X109875000Y-38475001D01*
X118575000Y-11654870D02*
X117120129Y-10200000D01*
D51*
X121575000Y-2825000D02*
X121450000Y-2700000D01*
D47*
X110272125Y-39727875D02*
X110725000Y-39275000D01*
X114918750Y-10075000D02*
X112531250Y-10075000D01*
X111725000Y-43275000D02*
X111425000Y-43575000D01*
X109875000Y-38475001D02*
X109875000Y-20825000D01*
D48*
X112575000Y-42425000D02*
X112125000Y-42875000D01*
D46*
X113225000Y-42425000D02*
X113775000Y-41875000D01*
D47*
X110272125Y-41697125D02*
X110272125Y-39727875D01*
X115043750Y-10200000D02*
X114918750Y-10075000D01*
D46*
X113275000Y-41725000D02*
X113275000Y-40712500D01*
X113775000Y-41875000D02*
X113775000Y-40712500D01*
D47*
X118575000Y-16075000D02*
X118575000Y-11654870D01*
X113425000Y-17275000D02*
X117375000Y-17275000D01*
X117120129Y-10200000D02*
X115043750Y-10200000D01*
D46*
X112575000Y-42425000D02*
X113275000Y-41725000D01*
D51*
X121450000Y-2700000D02*
X120125000Y-2700000D01*
D47*
X117375000Y-17275000D02*
X118575000Y-16075000D01*
X115124999Y-4025000D02*
X116500000Y-2650000D01*
X109875000Y-20825000D02*
X113425000Y-17275000D01*
D50*
%TO.N,VBAT*%
X121462500Y-24037500D02*
X113425000Y-32075000D01*
D46*
X113275000Y-37837500D02*
X113275000Y-36550000D01*
D50*
X121462500Y-19325000D02*
X121462500Y-24037500D01*
X113425000Y-32075000D02*
X113425000Y-34875000D01*
X121475000Y-24025000D02*
X121050000Y-24449999D01*
X121050000Y-24449999D02*
X121050000Y-38425000D01*
D46*
X113775000Y-36700000D02*
X113450000Y-36375000D01*
X113775000Y-37837500D02*
X113775000Y-36700000D01*
D50*
X113425000Y-34875000D02*
X113425000Y-36350000D01*
D48*
%TO.N,/Power Management/CHG*%
X125024999Y-46825000D02*
X126774999Y-48575000D01*
D46*
X112364063Y-41123437D02*
X112775000Y-40712500D01*
D48*
X123424999Y-46825000D02*
X125024999Y-46825000D01*
D46*
X111737968Y-41123437D02*
X112364063Y-41123437D01*
D54*
%TO.N,Net-(D29-Pad2)*%
X105775000Y-72225000D02*
X105775000Y-73176000D01*
D47*
%TO.N,Net-(F2-Pad2)*%
X113537500Y-61025000D02*
X112112500Y-61025000D01*
D54*
%TO.N,/USB-C/CC2*%
X118114748Y-52575986D02*
X118813762Y-53275000D01*
X118813762Y-53275000D02*
X119680000Y-53275000D01*
X116275000Y-53025000D02*
X116275000Y-52050000D01*
X117535252Y-52575986D02*
X118114748Y-52575986D01*
X117086238Y-53025000D02*
X117535252Y-52575986D01*
X116275000Y-53025000D02*
X117086238Y-53025000D01*
%TO.N,/USB-C/CC1*%
X116275000Y-57025000D02*
X117275000Y-57025000D01*
X118025000Y-56275000D02*
X119680000Y-56275000D01*
X116275000Y-57025000D02*
X116274999Y-57765000D01*
X117275000Y-57025000D02*
X118025000Y-56275000D01*
D51*
%TO.N,/Power Management/SYSOFF*%
X119775000Y-39025000D02*
X120375000Y-39625000D01*
X118925000Y-39025000D02*
X119775000Y-39025000D01*
D52*
X120462500Y-41325000D02*
X124395000Y-41325000D01*
D45*
X118125000Y-39025000D02*
X117425000Y-39025000D01*
D46*
X117425000Y-39025000D02*
X114962500Y-39025000D01*
D47*
X118125000Y-39025000D02*
X118925000Y-39025000D01*
D52*
X124875000Y-41325000D02*
X125625000Y-42075000D01*
D51*
X120375000Y-39625000D02*
X120375000Y-41237500D01*
D54*
%TO.N,/Power Management/TMR*%
X114962500Y-39525000D02*
X115600000Y-39525000D01*
X115600000Y-39525000D02*
X116349999Y-40275000D01*
D46*
%TO.N,/Power Management/ILIM*%
X114275000Y-40712500D02*
X114275000Y-42900000D01*
X114275000Y-42900000D02*
X113525000Y-43650000D01*
%TO.N,/Power Management/ISET*%
X115612500Y-37874999D02*
X116300000Y-37875000D01*
X114962500Y-38525000D02*
X115612500Y-37874999D01*
%TO.N,/Power Management/TS*%
X114275000Y-37837500D02*
X114275000Y-37125000D01*
X114275000Y-37125000D02*
X114925000Y-36475000D01*
D45*
%TO.N,VDD*%
X124540000Y-16190000D02*
X122975000Y-14625000D01*
D55*
%TO.N,DI-*%
X118775000Y-54775000D02*
X118625000Y-54925000D01*
X118625000Y-55525000D02*
X118875000Y-55775000D01*
X119680000Y-54775000D02*
X118775000Y-54775000D01*
X117175000Y-54775000D02*
X117052390Y-54897610D01*
X117052390Y-54897610D02*
X117052390Y-55362387D01*
X119680000Y-54775000D02*
X117175000Y-54775000D01*
X120875000Y-55775000D02*
X119680000Y-55775000D01*
X118625000Y-54925000D02*
X118625000Y-55525000D01*
X117052390Y-55362387D02*
X116439776Y-55975000D01*
X118875000Y-55775000D02*
X119680000Y-55775000D01*
%TO.N,DI+*%
X120725000Y-55075000D02*
X120725000Y-54527381D01*
X117142740Y-54442740D02*
X116775000Y-54075000D01*
X119680000Y-55275000D02*
X120524999Y-55275000D01*
X120472619Y-54275000D02*
X119680000Y-54275000D01*
X117825000Y-54175000D02*
X117975000Y-54175000D01*
X117975000Y-54175000D02*
X118242740Y-54442740D01*
X118725619Y-54442740D02*
X118893359Y-54275000D01*
X116775000Y-54075000D02*
X116439776Y-54075000D01*
X118893359Y-54275000D02*
X119680000Y-54275000D01*
X120524999Y-55275000D02*
X120725000Y-55075000D01*
X117557260Y-54442740D02*
X117142740Y-54442740D01*
X117825000Y-54175000D02*
X117557260Y-54442740D01*
X118242740Y-54442740D02*
X118725619Y-54442740D01*
X120725000Y-54527381D02*
X120472619Y-54275000D01*
%TO.N,DO+*%
X111776470Y-52076470D02*
X111776471Y-52076471D01*
X108212626Y-8457260D02*
X112912626Y-8457260D01*
X112404228Y-51872977D02*
X112200734Y-52076470D01*
X113775000Y-54075000D02*
X112625000Y-52925000D01*
X112912626Y-8457260D02*
X113907259Y-7462627D01*
X112404228Y-51872976D02*
X112404228Y-51872977D01*
X112625000Y-52500735D02*
X112828493Y-52297241D01*
X106675000Y-46975000D02*
X106675000Y-9994886D01*
X111776471Y-52076471D02*
X106675000Y-46975000D01*
X112624999Y-52500735D02*
X112625000Y-52500735D01*
X113907259Y-5307259D02*
X112625000Y-4025000D01*
X113907259Y-7462627D02*
X113907259Y-5307259D01*
X112625000Y-4025000D02*
X111775000Y-4025000D01*
X106675000Y-9994886D02*
X108212626Y-8457260D01*
X111776471Y-52076469D02*
G75*
G03*
X112200733Y-52076469I212131J212131D01*
G01*
X112625032Y-52500769D02*
G75*
G03*
X112625000Y-52925000I212068J-212131D01*
G01*
X112828502Y-51872969D02*
G75*
G02*
X112828492Y-52297240I-212102J-212131D01*
G01*
X112404269Y-51873017D02*
G75*
G02*
X112828493Y-51872978I212131J-212083D01*
G01*
%TO.N,DO-*%
X113575000Y-7325000D02*
X113575000Y-5444886D01*
X112625000Y-55139776D02*
X112625000Y-53394886D01*
X112625000Y-53394886D02*
X106342741Y-47112627D01*
X108075000Y-8125000D02*
X112775000Y-8125000D01*
X106342741Y-9857259D02*
X108075000Y-8125000D01*
X113460224Y-55975000D02*
X112625000Y-55139776D01*
X113575000Y-5444886D02*
X113355114Y-5225000D01*
X112775000Y-8125000D02*
X113575000Y-7325000D01*
X113355114Y-5225000D02*
X111775000Y-5225000D01*
X106342741Y-47112627D02*
X106342741Y-9857259D01*
D45*
%TO.N,EXT_PWR*%
X110656250Y-11025000D02*
X108693750Y-11025000D01*
D48*
%TO.N,EXT_PWR_EN*%
X115868750Y-15475000D02*
X116843749Y-15475000D01*
D54*
%TO.N,Net-(Q1-Pad1)*%
X119425000Y-43112500D02*
X119425000Y-44775000D01*
X121325000Y-44800000D02*
X119450000Y-44800000D01*
D45*
%TO.N,RESET*%
X123925000Y-17625000D02*
X122975000Y-18575000D01*
X124875000Y-26685821D02*
X124875000Y-29425000D01*
D54*
X124875000Y-29425000D02*
X124875000Y-30700000D01*
D45*
X124540000Y-17625000D02*
X123925000Y-17625000D01*
X122975000Y-18575000D02*
X122975000Y-24785821D01*
X122975000Y-24785821D02*
X124875000Y-26685821D01*
D54*
X125275000Y-31100000D02*
X125275000Y-35550000D01*
D48*
%TO.N,Net-(Q2-Pad1)*%
X114199999Y-13593751D02*
X114199999Y-15456249D01*
X112531250Y-15475000D02*
X114218751Y-15475000D01*
D56*
%TO.N,Net-(Q2-Pad3)*%
X111693750Y-11975000D02*
X110656250Y-13012501D01*
D48*
X112531250Y-11975000D02*
X114918750Y-11975000D01*
D56*
X110656250Y-13012501D02*
X110656250Y-14525000D01*
D48*
X112531250Y-11975000D02*
X111693750Y-11975000D01*
%TD*%
M02*
