%TF.GenerationSoftware,KiCad,Pcbnew,(6.0.4)*%
%TF.CreationDate,2022-07-03T20:13:25-07:00*%
%TF.ProjectId,Athena54,41746865-6e61-4353-942e-6b696361645f,v1.0.0*%
%TF.SameCoordinates,Original*%
%TF.FileFunction,Legend,Top*%
%TF.FilePolarity,Positive*%
%FSLAX46Y46*%
G04 Gerber Fmt 4.6, Leading zero omitted, Abs format (unit mm)*
G04 Created by KiCad (PCBNEW (6.0.4)) date 2022-07-03 20:13:25*
%MOMM*%
%LPD*%
G01*
G04 APERTURE LIST*
%ADD10C,0.200000*%
%ADD11C,0.150000*%
%ADD12C,0.120000*%
G04 APERTURE END LIST*
D10*
X-7621190Y6972619D02*
X-7621190Y6258333D01*
X-7668809Y6115476D01*
X-7764047Y6020238D01*
X-7906904Y5972619D01*
X-8002142Y5972619D01*
X-6668809Y5972619D02*
X-7145000Y5972619D01*
X-7145000Y6972619D01*
X-5764047Y6067857D02*
X-5811666Y6020238D01*
X-5954523Y5972619D01*
X-6049761Y5972619D01*
X-6192619Y6020238D01*
X-6287857Y6115476D01*
X-6335476Y6210714D01*
X-6383095Y6401190D01*
X-6383095Y6544047D01*
X-6335476Y6734523D01*
X-6287857Y6829761D01*
X-6192619Y6925000D01*
X-6049761Y6972619D01*
X-5954523Y6972619D01*
X-5811666Y6925000D01*
X-5764047Y6877380D01*
X-5049761Y6972619D02*
X-5049761Y6258333D01*
X-5097380Y6115476D01*
X-5192619Y6020238D01*
X-5335476Y5972619D01*
X-5430714Y5972619D01*
X-4097380Y5972619D02*
X-4573571Y5972619D01*
X-4573571Y6972619D01*
X-3192619Y6067857D02*
X-3240238Y6020238D01*
X-3383095Y5972619D01*
X-3478333Y5972619D01*
X-3621190Y6020238D01*
X-3716428Y6115476D01*
X-3764047Y6210714D01*
X-3811666Y6401190D01*
X-3811666Y6544047D01*
X-3764047Y6734523D01*
X-3716428Y6829761D01*
X-3621190Y6925000D01*
X-3478333Y6972619D01*
X-3383095Y6972619D01*
X-3240238Y6925000D01*
X-3192619Y6877380D01*
X-2478333Y6972619D02*
X-2478333Y6258333D01*
X-2525952Y6115476D01*
X-2621190Y6020238D01*
X-2764047Y5972619D01*
X-2859285Y5972619D01*
X-1525952Y5972619D02*
X-2002142Y5972619D01*
X-2002142Y6972619D01*
X-621190Y6067857D02*
X-668809Y6020238D01*
X-811666Y5972619D01*
X-906904Y5972619D01*
X-1049761Y6020238D01*
X-1145000Y6115476D01*
X-1192619Y6210714D01*
X-1240238Y6401190D01*
X-1240238Y6544047D01*
X-1192619Y6734523D01*
X-1145000Y6829761D01*
X-1049761Y6925000D01*
X-906904Y6972619D01*
X-811666Y6972619D01*
X-668809Y6925000D01*
X-621190Y6877380D01*
X93095Y6972619D02*
X93095Y6258333D01*
X45476Y6115476D01*
X-49761Y6020238D01*
X-192619Y5972619D01*
X-287857Y5972619D01*
X1045476Y5972619D02*
X569285Y5972619D01*
X569285Y6972619D01*
X1950238Y6067857D02*
X1902619Y6020238D01*
X1759761Y5972619D01*
X1664523Y5972619D01*
X1521666Y6020238D01*
X1426428Y6115476D01*
X1378809Y6210714D01*
X1331190Y6401190D01*
X1331190Y6544047D01*
X1378809Y6734523D01*
X1426428Y6829761D01*
X1521666Y6925000D01*
X1664523Y6972619D01*
X1759761Y6972619D01*
X1902619Y6925000D01*
X1950238Y6877380D01*
D11*
%TO.C,C6*%
X110191666Y-35160714D02*
X110153571Y-35198809D01*
X110039285Y-35236904D01*
X109963095Y-35236904D01*
X109848809Y-35198809D01*
X109772619Y-35122619D01*
X109734523Y-35046428D01*
X109696428Y-34894047D01*
X109696428Y-34779761D01*
X109734523Y-34627380D01*
X109772619Y-34551190D01*
X109848809Y-34475000D01*
X109963095Y-34436904D01*
X110039285Y-34436904D01*
X110153571Y-34475000D01*
X110191666Y-34513095D01*
X110877380Y-34436904D02*
X110725000Y-34436904D01*
X110648809Y-34475000D01*
X110610714Y-34513095D01*
X110534523Y-34627380D01*
X110496428Y-34779761D01*
X110496428Y-35084523D01*
X110534523Y-35160714D01*
X110572619Y-35198809D01*
X110648809Y-35236904D01*
X110801190Y-35236904D01*
X110877380Y-35198809D01*
X110915476Y-35160714D01*
X110953571Y-35084523D01*
X110953571Y-34894047D01*
X110915476Y-34817857D01*
X110877380Y-34779761D01*
X110801190Y-34741666D01*
X110648809Y-34741666D01*
X110572619Y-34779761D01*
X110534523Y-34817857D01*
X110496428Y-34894047D01*
%TO.C,R3*%
X119116666Y-40736904D02*
X118850000Y-40355952D01*
X118659523Y-40736904D02*
X118659523Y-39936904D01*
X118964285Y-39936904D01*
X119040476Y-39975000D01*
X119078571Y-40013095D01*
X119116666Y-40089285D01*
X119116666Y-40203571D01*
X119078571Y-40279761D01*
X119040476Y-40317857D01*
X118964285Y-40355952D01*
X118659523Y-40355952D01*
X119383333Y-39936904D02*
X119878571Y-39936904D01*
X119611904Y-40241666D01*
X119726190Y-40241666D01*
X119802380Y-40279761D01*
X119840476Y-40317857D01*
X119878571Y-40394047D01*
X119878571Y-40584523D01*
X119840476Y-40660714D01*
X119802380Y-40698809D01*
X119726190Y-40736904D01*
X119497619Y-40736904D01*
X119421428Y-40698809D01*
X119383333Y-40660714D01*
%TO.C,FB1*%
X112158333Y-62217857D02*
X111891666Y-62217857D01*
X111891666Y-62636904D02*
X111891666Y-61836904D01*
X112272619Y-61836904D01*
X112844047Y-62217857D02*
X112958333Y-62255952D01*
X112996428Y-62294047D01*
X113034523Y-62370238D01*
X113034523Y-62484523D01*
X112996428Y-62560714D01*
X112958333Y-62598809D01*
X112882142Y-62636904D01*
X112577380Y-62636904D01*
X112577380Y-61836904D01*
X112844047Y-61836904D01*
X112920238Y-61875000D01*
X112958333Y-61913095D01*
X112996428Y-61989285D01*
X112996428Y-62065476D01*
X112958333Y-62141666D01*
X112920238Y-62179761D01*
X112844047Y-62217857D01*
X112577380Y-62217857D01*
X113796428Y-62636904D02*
X113339285Y-62636904D01*
X113567857Y-62636904D02*
X113567857Y-61836904D01*
X113491666Y-61951190D01*
X113415476Y-62027380D01*
X113339285Y-62065476D01*
D10*
%TO.C,J1*%
X117754928Y-20634857D02*
X117707309Y-20777714D01*
X117659690Y-20825333D01*
X117564452Y-20872952D01*
X117421595Y-20872952D01*
X117326357Y-20825333D01*
X117278738Y-20777714D01*
X117231119Y-20682476D01*
X117231119Y-20301523D01*
X118231119Y-20301523D01*
X118231119Y-20634857D01*
X118183500Y-20730095D01*
X118135880Y-20777714D01*
X118040642Y-20825333D01*
X117945404Y-20825333D01*
X117850166Y-20777714D01*
X117802547Y-20730095D01*
X117754928Y-20634857D01*
X117754928Y-20301523D01*
X117516833Y-21253904D02*
X117516833Y-21730095D01*
X117231119Y-21158666D02*
X118231119Y-21492000D01*
X117231119Y-21825333D01*
X118231119Y-22015809D02*
X118231119Y-22587238D01*
X117231119Y-22301523D02*
X118231119Y-22301523D01*
X117612071Y-22920571D02*
X117612071Y-23682476D01*
X117231119Y-23301523D02*
X117993023Y-23301523D01*
X115849928Y-20634857D02*
X115802309Y-20777714D01*
X115754690Y-20825333D01*
X115659452Y-20872952D01*
X115516595Y-20872952D01*
X115421357Y-20825333D01*
X115373738Y-20777714D01*
X115326119Y-20682476D01*
X115326119Y-20301523D01*
X116326119Y-20301523D01*
X116326119Y-20634857D01*
X116278500Y-20730095D01*
X116230880Y-20777714D01*
X116135642Y-20825333D01*
X116040404Y-20825333D01*
X115945166Y-20777714D01*
X115897547Y-20730095D01*
X115849928Y-20634857D01*
X115849928Y-20301523D01*
X115611833Y-21253904D02*
X115611833Y-21730095D01*
X115326119Y-21158666D02*
X116326119Y-21492000D01*
X115326119Y-21825333D01*
X116326119Y-22015809D02*
X116326119Y-22587238D01*
X115326119Y-22301523D02*
X116326119Y-22301523D01*
X115707071Y-22920571D02*
X115707071Y-23682476D01*
D11*
%TO.C,R14*%
X117760713Y-15836904D02*
X117494046Y-15455952D01*
X117303570Y-15836904D02*
X117303570Y-15036904D01*
X117608332Y-15036904D01*
X117684522Y-15075000D01*
X117722618Y-15113095D01*
X117760713Y-15189285D01*
X117760713Y-15303571D01*
X117722618Y-15379761D01*
X117684522Y-15417857D01*
X117608332Y-15455952D01*
X117303570Y-15455952D01*
X118522618Y-15836904D02*
X118065475Y-15836904D01*
X118294046Y-15836904D02*
X118294046Y-15036904D01*
X118217856Y-15151190D01*
X118141665Y-15227380D01*
X118065475Y-15265476D01*
X119208332Y-15303571D02*
X119208332Y-15836904D01*
X119017856Y-14998809D02*
X118827379Y-15570238D01*
X119322618Y-15570238D01*
%TO.C,F2*%
X115558333Y-62217857D02*
X115291666Y-62217857D01*
X115291666Y-62636904D02*
X115291666Y-61836904D01*
X115672619Y-61836904D01*
X115939285Y-61913095D02*
X115977380Y-61875000D01*
X116053571Y-61836904D01*
X116244047Y-61836904D01*
X116320238Y-61875000D01*
X116358333Y-61913095D01*
X116396428Y-61989285D01*
X116396428Y-62065476D01*
X116358333Y-62179761D01*
X115901190Y-62636904D01*
X116396428Y-62636904D01*
%TO.C,U3*%
X113436904Y-55634523D02*
X114084523Y-55634523D01*
X114160714Y-55596428D01*
X114198809Y-55558333D01*
X114236904Y-55482142D01*
X114236904Y-55329761D01*
X114198809Y-55253571D01*
X114160714Y-55215476D01*
X114084523Y-55177380D01*
X113436904Y-55177380D01*
X113436904Y-54872619D02*
X113436904Y-54377380D01*
X113741666Y-54644047D01*
X113741666Y-54529761D01*
X113779761Y-54453571D01*
X113817857Y-54415476D01*
X113894047Y-54377380D01*
X114084523Y-54377380D01*
X114160714Y-54415476D01*
X114198809Y-54453571D01*
X114236904Y-54529761D01*
X114236904Y-54758333D01*
X114198809Y-54834523D01*
X114160714Y-54872619D01*
%TO.C,J3*%
X122036904Y-17891666D02*
X122608333Y-17891666D01*
X122722619Y-17929761D01*
X122798809Y-18005952D01*
X122836904Y-18120238D01*
X122836904Y-18196428D01*
X122036904Y-17586904D02*
X122036904Y-17091666D01*
X122341666Y-17358333D01*
X122341666Y-17244047D01*
X122379761Y-17167857D01*
X122417857Y-17129761D01*
X122494047Y-17091666D01*
X122684523Y-17091666D01*
X122760714Y-17129761D01*
X122798809Y-17167857D01*
X122836904Y-17244047D01*
X122836904Y-17472619D01*
X122798809Y-17548809D01*
X122760714Y-17586904D01*
%TO.C,F1*%
X120408333Y-20697857D02*
X120141666Y-20697857D01*
X120141666Y-21116904D02*
X120141666Y-20316904D01*
X120522619Y-20316904D01*
X121246428Y-21116904D02*
X120789285Y-21116904D01*
X121017857Y-21116904D02*
X121017857Y-20316904D01*
X120941666Y-20431190D01*
X120865476Y-20507380D01*
X120789285Y-20545476D01*
%TO.C,R1*%
X121686904Y-47958333D02*
X121305952Y-48225000D01*
X121686904Y-48415476D02*
X120886904Y-48415476D01*
X120886904Y-48110714D01*
X120925000Y-48034523D01*
X120963095Y-47996428D01*
X121039285Y-47958333D01*
X121153571Y-47958333D01*
X121229761Y-47996428D01*
X121267857Y-48034523D01*
X121305952Y-48110714D01*
X121305952Y-48415476D01*
X121686904Y-47196428D02*
X121686904Y-47653571D01*
X121686904Y-47425000D02*
X120886904Y-47425000D01*
X121001190Y-47501190D01*
X121077380Y-47577380D01*
X121115476Y-47653571D01*
%TO.C,C8*%
X111866666Y-59810714D02*
X111828571Y-59848809D01*
X111714285Y-59886904D01*
X111638095Y-59886904D01*
X111523809Y-59848809D01*
X111447619Y-59772619D01*
X111409523Y-59696428D01*
X111371428Y-59544047D01*
X111371428Y-59429761D01*
X111409523Y-59277380D01*
X111447619Y-59201190D01*
X111523809Y-59125000D01*
X111638095Y-59086904D01*
X111714285Y-59086904D01*
X111828571Y-59125000D01*
X111866666Y-59163095D01*
X112323809Y-59429761D02*
X112247619Y-59391666D01*
X112209523Y-59353571D01*
X112171428Y-59277380D01*
X112171428Y-59239285D01*
X112209523Y-59163095D01*
X112247619Y-59125000D01*
X112323809Y-59086904D01*
X112476190Y-59086904D01*
X112552380Y-59125000D01*
X112590476Y-59163095D01*
X112628571Y-59239285D01*
X112628571Y-59277380D01*
X112590476Y-59353571D01*
X112552380Y-59391666D01*
X112476190Y-59429761D01*
X112323809Y-59429761D01*
X112247619Y-59467857D01*
X112209523Y-59505952D01*
X112171428Y-59582142D01*
X112171428Y-59734523D01*
X112209523Y-59810714D01*
X112247619Y-59848809D01*
X112323809Y-59886904D01*
X112476190Y-59886904D01*
X112552380Y-59848809D01*
X112590476Y-59810714D01*
X112628571Y-59734523D01*
X112628571Y-59582142D01*
X112590476Y-59505952D01*
X112552380Y-59467857D01*
X112476190Y-59429761D01*
%TO.C,R7*%
X115286904Y-33608333D02*
X114905952Y-33875000D01*
X115286904Y-34065476D02*
X114486904Y-34065476D01*
X114486904Y-33760714D01*
X114525000Y-33684523D01*
X114563095Y-33646428D01*
X114639285Y-33608333D01*
X114753571Y-33608333D01*
X114829761Y-33646428D01*
X114867857Y-33684523D01*
X114905952Y-33760714D01*
X114905952Y-34065476D01*
X114486904Y-33341666D02*
X114486904Y-32808333D01*
X115286904Y-33151190D01*
%TO.C,C5*%
X111991666Y-42410714D02*
X111953571Y-42448809D01*
X111839285Y-42486904D01*
X111763095Y-42486904D01*
X111648809Y-42448809D01*
X111572619Y-42372619D01*
X111534523Y-42296428D01*
X111496428Y-42144047D01*
X111496428Y-42029761D01*
X111534523Y-41877380D01*
X111572619Y-41801190D01*
X111648809Y-41725000D01*
X111763095Y-41686904D01*
X111839285Y-41686904D01*
X111953571Y-41725000D01*
X111991666Y-41763095D01*
X112715476Y-41686904D02*
X112334523Y-41686904D01*
X112296428Y-42067857D01*
X112334523Y-42029761D01*
X112410714Y-41991666D01*
X112601190Y-41991666D01*
X112677380Y-42029761D01*
X112715476Y-42067857D01*
X112753571Y-42144047D01*
X112753571Y-42334523D01*
X112715476Y-42410714D01*
X112677380Y-42448809D01*
X112601190Y-42486904D01*
X112410714Y-42486904D01*
X112334523Y-42448809D01*
X112296428Y-42410714D01*
%TO.C,C2*%
X114841666Y-43960714D02*
X114803571Y-43998809D01*
X114689285Y-44036904D01*
X114613095Y-44036904D01*
X114498809Y-43998809D01*
X114422619Y-43922619D01*
X114384523Y-43846428D01*
X114346428Y-43694047D01*
X114346428Y-43579761D01*
X114384523Y-43427380D01*
X114422619Y-43351190D01*
X114498809Y-43275000D01*
X114613095Y-43236904D01*
X114689285Y-43236904D01*
X114803571Y-43275000D01*
X114841666Y-43313095D01*
X115146428Y-43313095D02*
X115184523Y-43275000D01*
X115260714Y-43236904D01*
X115451190Y-43236904D01*
X115527380Y-43275000D01*
X115565476Y-43313095D01*
X115603571Y-43389285D01*
X115603571Y-43465476D01*
X115565476Y-43579761D01*
X115108333Y-44036904D01*
X115603571Y-44036904D01*
%TO.C,C7*%
X110191666Y-36660714D02*
X110153571Y-36698809D01*
X110039285Y-36736904D01*
X109963095Y-36736904D01*
X109848809Y-36698809D01*
X109772619Y-36622619D01*
X109734523Y-36546428D01*
X109696428Y-36394047D01*
X109696428Y-36279761D01*
X109734523Y-36127380D01*
X109772619Y-36051190D01*
X109848809Y-35975000D01*
X109963095Y-35936904D01*
X110039285Y-35936904D01*
X110153571Y-35975000D01*
X110191666Y-36013095D01*
X110458333Y-35936904D02*
X110991666Y-35936904D01*
X110648809Y-36736904D01*
%TO.C,SW1*%
X123277379Y-44384523D02*
X122277379Y-44384523D01*
X122277379Y-44003571D01*
X122324999Y-43908333D01*
X122372618Y-43860714D01*
X122467856Y-43813095D01*
X122610713Y-43813095D01*
X122705951Y-43860714D01*
X122753570Y-43908333D01*
X122801189Y-44003571D01*
X122801189Y-44384523D01*
X122277379Y-43194047D02*
X122277379Y-43003571D01*
X122324999Y-42908333D01*
X122420237Y-42813095D01*
X122610713Y-42765476D01*
X122944046Y-42765476D01*
X123134522Y-42813095D01*
X123229760Y-42908333D01*
X123277379Y-43003571D01*
X123277379Y-43194047D01*
X123229760Y-43289285D01*
X123134522Y-43384523D01*
X122944046Y-43432142D01*
X122610713Y-43432142D01*
X122420237Y-43384523D01*
X122324999Y-43289285D01*
X122277379Y-43194047D01*
X122277379Y-42432142D02*
X123277379Y-42194047D01*
X122563094Y-42003571D01*
X123277379Y-41813095D01*
X122277379Y-41575000D01*
X122753570Y-41194047D02*
X122753570Y-40860714D01*
X123277379Y-40717857D02*
X123277379Y-41194047D01*
X122277379Y-41194047D01*
X122277379Y-40717857D01*
X123277379Y-39717857D02*
X122801189Y-40051190D01*
X123277379Y-40289285D02*
X122277379Y-40289285D01*
X122277379Y-39908333D01*
X122324999Y-39813095D01*
X122372618Y-39765476D01*
X122467856Y-39717857D01*
X122610713Y-39717857D01*
X122705951Y-39765476D01*
X122753570Y-39813095D01*
X122801189Y-39908333D01*
X122801189Y-40289285D01*
%TO.C,R4*%
X113886904Y-46808333D02*
X113505952Y-47075000D01*
X113886904Y-47265476D02*
X113086904Y-47265476D01*
X113086904Y-46960714D01*
X113125000Y-46884523D01*
X113163095Y-46846428D01*
X113239285Y-46808333D01*
X113353571Y-46808333D01*
X113429761Y-46846428D01*
X113467857Y-46884523D01*
X113505952Y-46960714D01*
X113505952Y-47265476D01*
X113353571Y-46122619D02*
X113886904Y-46122619D01*
X113048809Y-46313095D02*
X113620238Y-46503571D01*
X113620238Y-46008333D01*
%TO.C,R15*%
X117760713Y-13936904D02*
X117494046Y-13555952D01*
X117303570Y-13936904D02*
X117303570Y-13136904D01*
X117608332Y-13136904D01*
X117684522Y-13175000D01*
X117722618Y-13213095D01*
X117760713Y-13289285D01*
X117760713Y-13403571D01*
X117722618Y-13479761D01*
X117684522Y-13517857D01*
X117608332Y-13555952D01*
X117303570Y-13555952D01*
X118522618Y-13936904D02*
X118065475Y-13936904D01*
X118294046Y-13936904D02*
X118294046Y-13136904D01*
X118217856Y-13251190D01*
X118141665Y-13327380D01*
X118065475Y-13365476D01*
X119246427Y-13136904D02*
X118865475Y-13136904D01*
X118827379Y-13517857D01*
X118865475Y-13479761D01*
X118941665Y-13441666D01*
X119132141Y-13441666D01*
X119208332Y-13479761D01*
X119246427Y-13517857D01*
X119284522Y-13594047D01*
X119284522Y-13784523D01*
X119246427Y-13860714D01*
X119208332Y-13898809D01*
X119132141Y-13936904D01*
X118941665Y-13936904D01*
X118865475Y-13898809D01*
X118827379Y-13860714D01*
%TO.C,Q1*%
X121813094Y-40751190D02*
X121774999Y-40827380D01*
X121698808Y-40903571D01*
X121584522Y-41017857D01*
X121546427Y-41094047D01*
X121546427Y-41170238D01*
X121736903Y-41132142D02*
X121698808Y-41208333D01*
X121622618Y-41284523D01*
X121470237Y-41322619D01*
X121203570Y-41322619D01*
X121051189Y-41284523D01*
X120974999Y-41208333D01*
X120936903Y-41132142D01*
X120936903Y-40979761D01*
X120974999Y-40903571D01*
X121051189Y-40827380D01*
X121203570Y-40789285D01*
X121470237Y-40789285D01*
X121622618Y-40827380D01*
X121698808Y-40903571D01*
X121736903Y-40979761D01*
X121736903Y-41132142D01*
X121736903Y-40027380D02*
X121736903Y-40484523D01*
X121736903Y-40255952D02*
X120936903Y-40255952D01*
X121051189Y-40332142D01*
X121127379Y-40408333D01*
X121165475Y-40484523D01*
%TO.C,R16*%
X114560713Y-8986904D02*
X114294046Y-8605952D01*
X114103570Y-8986904D02*
X114103570Y-8186904D01*
X114408332Y-8186904D01*
X114484522Y-8225000D01*
X114522618Y-8263095D01*
X114560713Y-8339285D01*
X114560713Y-8453571D01*
X114522618Y-8529761D01*
X114484522Y-8567857D01*
X114408332Y-8605952D01*
X114103570Y-8605952D01*
X115322618Y-8986904D02*
X114865475Y-8986904D01*
X115094046Y-8986904D02*
X115094046Y-8186904D01*
X115017856Y-8301190D01*
X114941665Y-8377380D01*
X114865475Y-8415476D01*
X116008332Y-8186904D02*
X115855951Y-8186904D01*
X115779760Y-8225000D01*
X115741665Y-8263095D01*
X115665475Y-8377380D01*
X115627379Y-8529761D01*
X115627379Y-8834523D01*
X115665475Y-8910714D01*
X115703570Y-8948809D01*
X115779760Y-8986904D01*
X115932141Y-8986904D01*
X116008332Y-8948809D01*
X116046427Y-8910714D01*
X116084522Y-8834523D01*
X116084522Y-8644047D01*
X116046427Y-8567857D01*
X116008332Y-8529761D01*
X115932141Y-8491666D01*
X115779760Y-8491666D01*
X115703570Y-8529761D01*
X115665475Y-8567857D01*
X115627379Y-8644047D01*
%TO.C,C1*%
X114841666Y-42460714D02*
X114803571Y-42498809D01*
X114689285Y-42536904D01*
X114613095Y-42536904D01*
X114498809Y-42498809D01*
X114422619Y-42422619D01*
X114384523Y-42346428D01*
X114346428Y-42194047D01*
X114346428Y-42079761D01*
X114384523Y-41927380D01*
X114422619Y-41851190D01*
X114498809Y-41775000D01*
X114613095Y-41736904D01*
X114689285Y-41736904D01*
X114803571Y-41775000D01*
X114841666Y-41813095D01*
X115603571Y-42536904D02*
X115146428Y-42536904D01*
X115375000Y-42536904D02*
X115375000Y-41736904D01*
X115298809Y-41851190D01*
X115222619Y-41927380D01*
X115146428Y-41965476D01*
%TO.C,C11*%
X120410714Y-1439285D02*
X120448809Y-1477380D01*
X120486904Y-1591666D01*
X120486904Y-1667857D01*
X120448809Y-1782142D01*
X120372619Y-1858333D01*
X120296428Y-1896428D01*
X120144047Y-1934523D01*
X120029761Y-1934523D01*
X119877380Y-1896428D01*
X119801190Y-1858333D01*
X119725000Y-1782142D01*
X119686904Y-1667857D01*
X119686904Y-1591666D01*
X119725000Y-1477380D01*
X119763095Y-1439285D01*
X120486904Y-677380D02*
X120486904Y-1134523D01*
X120486904Y-905952D02*
X119686904Y-905952D01*
X119801190Y-982142D01*
X119877380Y-1058333D01*
X119915476Y-1134523D01*
X120486904Y84523D02*
X120486904Y-372619D01*
X120486904Y-144047D02*
X119686904Y-144047D01*
X119801190Y-220238D01*
X119877380Y-296428D01*
X119915476Y-372619D01*
%TO.C,R5*%
X116991666Y-37086904D02*
X116725000Y-36705952D01*
X116534523Y-37086904D02*
X116534523Y-36286904D01*
X116839285Y-36286904D01*
X116915476Y-36325000D01*
X116953571Y-36363095D01*
X116991666Y-36439285D01*
X116991666Y-36553571D01*
X116953571Y-36629761D01*
X116915476Y-36667857D01*
X116839285Y-36705952D01*
X116534523Y-36705952D01*
X117715476Y-36286904D02*
X117334523Y-36286904D01*
X117296428Y-36667857D01*
X117334523Y-36629761D01*
X117410714Y-36591666D01*
X117601190Y-36591666D01*
X117677380Y-36629761D01*
X117715476Y-36667857D01*
X117753571Y-36744047D01*
X117753571Y-36934523D01*
X117715476Y-37010714D01*
X117677380Y-37048809D01*
X117601190Y-37086904D01*
X117410714Y-37086904D01*
X117334523Y-37048809D01*
X117296428Y-37010714D01*
%TO.C,Q3*%
X111617559Y-9063095D02*
X111541369Y-9025000D01*
X111465178Y-8948809D01*
X111350892Y-8834523D01*
X111274702Y-8796428D01*
X111198511Y-8796428D01*
X111236607Y-8986904D02*
X111160416Y-8948809D01*
X111084226Y-8872619D01*
X111046130Y-8720238D01*
X111046130Y-8453571D01*
X111084226Y-8301190D01*
X111160416Y-8225000D01*
X111236607Y-8186904D01*
X111388988Y-8186904D01*
X111465178Y-8225000D01*
X111541369Y-8301190D01*
X111579464Y-8453571D01*
X111579464Y-8720238D01*
X111541369Y-8872619D01*
X111465178Y-8948809D01*
X111388988Y-8986904D01*
X111236607Y-8986904D01*
X111846130Y-8186904D02*
X112341369Y-8186904D01*
X112074702Y-8491666D01*
X112188988Y-8491666D01*
X112265178Y-8529761D01*
X112303273Y-8567857D01*
X112341369Y-8644047D01*
X112341369Y-8834523D01*
X112303273Y-8910714D01*
X112265178Y-8948809D01*
X112188988Y-8986904D01*
X111960416Y-8986904D01*
X111884226Y-8948809D01*
X111846130Y-8910714D01*
%TO.C,SW29*%
X123327379Y-34777380D02*
X122851189Y-35110714D01*
X123327379Y-35348809D02*
X122327379Y-35348809D01*
X122327379Y-34967857D01*
X122374999Y-34872619D01*
X122422618Y-34825000D01*
X122517856Y-34777380D01*
X122660713Y-34777380D01*
X122755951Y-34825000D01*
X122803570Y-34872619D01*
X122851189Y-34967857D01*
X122851189Y-35348809D01*
X122803570Y-34348809D02*
X122803570Y-34015476D01*
X123327379Y-33872619D02*
X123327379Y-34348809D01*
X122327379Y-34348809D01*
X122327379Y-33872619D01*
X123279760Y-33491666D02*
X123327379Y-33348809D01*
X123327379Y-33110714D01*
X123279760Y-33015476D01*
X123232141Y-32967857D01*
X123136903Y-32920238D01*
X123041665Y-32920238D01*
X122946427Y-32967857D01*
X122898808Y-33015476D01*
X122851189Y-33110714D01*
X122803570Y-33301190D01*
X122755951Y-33396428D01*
X122708332Y-33444047D01*
X122613094Y-33491666D01*
X122517856Y-33491666D01*
X122422618Y-33444047D01*
X122374999Y-33396428D01*
X122327379Y-33301190D01*
X122327379Y-33063095D01*
X122374999Y-32920238D01*
X122803570Y-32491666D02*
X122803570Y-32158333D01*
X123327379Y-32015476D02*
X123327379Y-32491666D01*
X122327379Y-32491666D01*
X122327379Y-32015476D01*
X122327379Y-31729761D02*
X122327379Y-31158333D01*
X123327379Y-31444047D02*
X122327379Y-31444047D01*
%TO.C,R8*%
X109766666Y-40786904D02*
X109500000Y-40405952D01*
X109309523Y-40786904D02*
X109309523Y-39986904D01*
X109614285Y-39986904D01*
X109690476Y-40025000D01*
X109728571Y-40063095D01*
X109766666Y-40139285D01*
X109766666Y-40253571D01*
X109728571Y-40329761D01*
X109690476Y-40367857D01*
X109614285Y-40405952D01*
X109309523Y-40405952D01*
X110223809Y-40329761D02*
X110147619Y-40291666D01*
X110109523Y-40253571D01*
X110071428Y-40177380D01*
X110071428Y-40139285D01*
X110109523Y-40063095D01*
X110147619Y-40025000D01*
X110223809Y-39986904D01*
X110376190Y-39986904D01*
X110452380Y-40025000D01*
X110490476Y-40063095D01*
X110528571Y-40139285D01*
X110528571Y-40177380D01*
X110490476Y-40253571D01*
X110452380Y-40291666D01*
X110376190Y-40329761D01*
X110223809Y-40329761D01*
X110147619Y-40367857D01*
X110109523Y-40405952D01*
X110071428Y-40482142D01*
X110071428Y-40634523D01*
X110109523Y-40710714D01*
X110147619Y-40748809D01*
X110223809Y-40786904D01*
X110376190Y-40786904D01*
X110452380Y-40748809D01*
X110490476Y-40710714D01*
X110528571Y-40634523D01*
X110528571Y-40482142D01*
X110490476Y-40405952D01*
X110452380Y-40367857D01*
X110376190Y-40329761D01*
%TO.C,C9*%
X111841666Y-58310714D02*
X111803571Y-58348809D01*
X111689285Y-58386904D01*
X111613095Y-58386904D01*
X111498809Y-58348809D01*
X111422619Y-58272619D01*
X111384523Y-58196428D01*
X111346428Y-58044047D01*
X111346428Y-57929761D01*
X111384523Y-57777380D01*
X111422619Y-57701190D01*
X111498809Y-57625000D01*
X111613095Y-57586904D01*
X111689285Y-57586904D01*
X111803571Y-57625000D01*
X111841666Y-57663095D01*
X112222619Y-58386904D02*
X112375000Y-58386904D01*
X112451190Y-58348809D01*
X112489285Y-58310714D01*
X112565476Y-58196428D01*
X112603571Y-58044047D01*
X112603571Y-57739285D01*
X112565476Y-57663095D01*
X112527380Y-57625000D01*
X112451190Y-57586904D01*
X112298809Y-57586904D01*
X112222619Y-57625000D01*
X112184523Y-57663095D01*
X112146428Y-57739285D01*
X112146428Y-57929761D01*
X112184523Y-58005952D01*
X112222619Y-58044047D01*
X112298809Y-58082142D01*
X112451190Y-58082142D01*
X112527380Y-58044047D01*
X112565476Y-58005952D01*
X112603571Y-57929761D01*
%TO.C,Q2*%
X111517559Y-17363095D02*
X111441369Y-17325000D01*
X111365178Y-17248809D01*
X111250892Y-17134523D01*
X111174702Y-17096428D01*
X111098511Y-17096428D01*
X111136607Y-17286904D02*
X111060416Y-17248809D01*
X110984226Y-17172619D01*
X110946130Y-17020238D01*
X110946130Y-16753571D01*
X110984226Y-16601190D01*
X111060416Y-16525000D01*
X111136607Y-16486904D01*
X111288988Y-16486904D01*
X111365178Y-16525000D01*
X111441369Y-16601190D01*
X111479464Y-16753571D01*
X111479464Y-17020238D01*
X111441369Y-17172619D01*
X111365178Y-17248809D01*
X111288988Y-17286904D01*
X111136607Y-17286904D01*
X111784226Y-16563095D02*
X111822321Y-16525000D01*
X111898511Y-16486904D01*
X112088988Y-16486904D01*
X112165178Y-16525000D01*
X112203273Y-16563095D01*
X112241369Y-16639285D01*
X112241369Y-16715476D01*
X112203273Y-16829761D01*
X111746130Y-17286904D01*
X112241369Y-17286904D01*
%TO.C,R9*%
X119386904Y-51358333D02*
X119005952Y-51625000D01*
X119386904Y-51815476D02*
X118586904Y-51815476D01*
X118586904Y-51510714D01*
X118625000Y-51434523D01*
X118663095Y-51396428D01*
X118739285Y-51358333D01*
X118853571Y-51358333D01*
X118929761Y-51396428D01*
X118967857Y-51434523D01*
X119005952Y-51510714D01*
X119005952Y-51815476D01*
X119386904Y-50977380D02*
X119386904Y-50825000D01*
X119348809Y-50748809D01*
X119310714Y-50710714D01*
X119196428Y-50634523D01*
X119044047Y-50596428D01*
X118739285Y-50596428D01*
X118663095Y-50634523D01*
X118625000Y-50672619D01*
X118586904Y-50748809D01*
X118586904Y-50901190D01*
X118625000Y-50977380D01*
X118663095Y-51015476D01*
X118739285Y-51053571D01*
X118929761Y-51053571D01*
X119005952Y-51015476D01*
X119044047Y-50977380D01*
X119082142Y-50901190D01*
X119082142Y-50748809D01*
X119044047Y-50672619D01*
X119005952Y-50634523D01*
X118929761Y-50596428D01*
%TO.C,R6*%
X121741666Y-37586904D02*
X121475000Y-37205952D01*
X121284523Y-37586904D02*
X121284523Y-36786904D01*
X121589285Y-36786904D01*
X121665476Y-36825000D01*
X121703571Y-36863095D01*
X121741666Y-36939285D01*
X121741666Y-37053571D01*
X121703571Y-37129761D01*
X121665476Y-37167857D01*
X121589285Y-37205952D01*
X121284523Y-37205952D01*
X122427380Y-36786904D02*
X122275000Y-36786904D01*
X122198809Y-36825000D01*
X122160714Y-36863095D01*
X122084523Y-36977380D01*
X122046428Y-37129761D01*
X122046428Y-37434523D01*
X122084523Y-37510714D01*
X122122619Y-37548809D01*
X122198809Y-37586904D01*
X122351190Y-37586904D01*
X122427380Y-37548809D01*
X122465476Y-37510714D01*
X122503571Y-37434523D01*
X122503571Y-37244047D01*
X122465476Y-37167857D01*
X122427380Y-37129761D01*
X122351190Y-37091666D01*
X122198809Y-37091666D01*
X122122619Y-37129761D01*
X122084523Y-37167857D01*
X122046428Y-37244047D01*
%TO.C,R2*%
X119786904Y-47908333D02*
X119405952Y-48175000D01*
X119786904Y-48365476D02*
X118986904Y-48365476D01*
X118986904Y-48060714D01*
X119025000Y-47984523D01*
X119063095Y-47946428D01*
X119139285Y-47908333D01*
X119253571Y-47908333D01*
X119329761Y-47946428D01*
X119367857Y-47984523D01*
X119405952Y-48060714D01*
X119405952Y-48365476D01*
X119063095Y-47603571D02*
X119025000Y-47565476D01*
X118986904Y-47489285D01*
X118986904Y-47298809D01*
X119025000Y-47222619D01*
X119063095Y-47184523D01*
X119139285Y-47146428D01*
X119215476Y-47146428D01*
X119329761Y-47184523D01*
X119786904Y-47641666D01*
X119786904Y-47146428D01*
%TO.C,J4*%
X105427083Y-10486904D02*
X105693750Y-11286904D01*
X105960416Y-10486904D01*
X106684226Y-11210714D02*
X106646130Y-11248809D01*
X106531845Y-11286904D01*
X106455654Y-11286904D01*
X106341369Y-11248809D01*
X106265178Y-11172619D01*
X106227083Y-11096428D01*
X106188988Y-10944047D01*
X106188988Y-10829761D01*
X106227083Y-10677380D01*
X106265178Y-10601190D01*
X106341369Y-10525000D01*
X106455654Y-10486904D01*
X106531845Y-10486904D01*
X106646130Y-10525000D01*
X106684226Y-10563095D01*
X107484226Y-11210714D02*
X107446130Y-11248809D01*
X107331845Y-11286904D01*
X107255654Y-11286904D01*
X107141369Y-11248809D01*
X107065178Y-11172619D01*
X107027083Y-11096428D01*
X106988988Y-10944047D01*
X106988988Y-10829761D01*
X107027083Y-10677380D01*
X107065178Y-10601190D01*
X107141369Y-10525000D01*
X107255654Y-10486904D01*
X107331845Y-10486904D01*
X107446130Y-10525000D01*
X107484226Y-10563095D01*
X105979464Y-13386904D02*
X105598511Y-13386904D01*
X105598511Y-12586904D01*
X106246130Y-12967857D02*
X106512797Y-12967857D01*
X106627083Y-13386904D02*
X106246130Y-13386904D01*
X106246130Y-12586904D01*
X106627083Y-12586904D01*
X106969940Y-13386904D02*
X106969940Y-12586904D01*
X107160416Y-12586904D01*
X107274702Y-12625000D01*
X107350892Y-12701190D01*
X107388988Y-12777380D01*
X107427083Y-12929761D01*
X107427083Y-13044047D01*
X107388988Y-13196428D01*
X107350892Y-13272619D01*
X107274702Y-13348809D01*
X107160416Y-13386904D01*
X106969940Y-13386904D01*
X105884226Y-14625000D02*
X105808035Y-14586904D01*
X105693750Y-14586904D01*
X105579464Y-14625000D01*
X105503273Y-14701190D01*
X105465178Y-14777380D01*
X105427083Y-14929761D01*
X105427083Y-15044047D01*
X105465178Y-15196428D01*
X105503273Y-15272619D01*
X105579464Y-15348809D01*
X105693750Y-15386904D01*
X105769940Y-15386904D01*
X105884226Y-15348809D01*
X105922321Y-15310714D01*
X105922321Y-15044047D01*
X105769940Y-15044047D01*
X106265178Y-15386904D02*
X106265178Y-14586904D01*
X106722321Y-15386904D01*
X106722321Y-14586904D01*
X107103273Y-15386904D02*
X107103273Y-14586904D01*
X107293750Y-14586904D01*
X107408035Y-14625000D01*
X107484226Y-14701190D01*
X107522321Y-14777380D01*
X107560416Y-14929761D01*
X107560416Y-15044047D01*
X107522321Y-15196428D01*
X107484226Y-15272619D01*
X107408035Y-15348809D01*
X107293750Y-15386904D01*
X107103273Y-15386904D01*
%TO.C,C4*%
X111991666Y-43860714D02*
X111953571Y-43898809D01*
X111839285Y-43936904D01*
X111763095Y-43936904D01*
X111648809Y-43898809D01*
X111572619Y-43822619D01*
X111534523Y-43746428D01*
X111496428Y-43594047D01*
X111496428Y-43479761D01*
X111534523Y-43327380D01*
X111572619Y-43251190D01*
X111648809Y-43175000D01*
X111763095Y-43136904D01*
X111839285Y-43136904D01*
X111953571Y-43175000D01*
X111991666Y-43213095D01*
X112677380Y-43403571D02*
X112677380Y-43936904D01*
X112486904Y-43098809D02*
X112296428Y-43670238D01*
X112791666Y-43670238D01*
%TO.C,R10*%
X119386904Y-59339285D02*
X119005952Y-59605952D01*
X119386904Y-59796428D02*
X118586904Y-59796428D01*
X118586904Y-59491666D01*
X118625000Y-59415476D01*
X118663095Y-59377380D01*
X118739285Y-59339285D01*
X118853571Y-59339285D01*
X118929761Y-59377380D01*
X118967857Y-59415476D01*
X119005952Y-59491666D01*
X119005952Y-59796428D01*
X119386904Y-58577380D02*
X119386904Y-59034523D01*
X119386904Y-58805952D02*
X118586904Y-58805952D01*
X118701190Y-58882142D01*
X118777380Y-58958333D01*
X118815476Y-59034523D01*
X118586904Y-58082142D02*
X118586904Y-58005952D01*
X118625000Y-57929761D01*
X118663095Y-57891666D01*
X118739285Y-57853571D01*
X118891666Y-57815476D01*
X119082142Y-57815476D01*
X119234523Y-57853571D01*
X119310714Y-57891666D01*
X119348809Y-57929761D01*
X119386904Y-58005952D01*
X119386904Y-58082142D01*
X119348809Y-58158333D01*
X119310714Y-58196428D01*
X119234523Y-58234523D01*
X119082142Y-58272619D01*
X118891666Y-58272619D01*
X118739285Y-58234523D01*
X118663095Y-58196428D01*
X118625000Y-58158333D01*
X118586904Y-58082142D01*
D12*
%TO.C,C6*%
X112790580Y-35385000D02*
X112509420Y-35385000D01*
X112790580Y-34365000D02*
X112509420Y-34365000D01*
%TO.C,D21*%
X84125000Y-15125000D02*
X84125000Y-13275000D01*
X85325000Y-13275000D02*
X84125000Y-13275000D01*
X85325000Y-15125000D02*
X85325000Y-13275000D01*
%TO.C,R3*%
X117362258Y-40897500D02*
X116887742Y-40897500D01*
X117362258Y-39852500D02*
X116887742Y-39852500D01*
%TO.C,FB1*%
X112987779Y-61535000D02*
X112662221Y-61535000D01*
X112987779Y-60515000D02*
X112662221Y-60515000D01*
%TO.C,D8*%
X9925000Y-17125000D02*
X9925000Y-15275000D01*
X11125000Y-17125000D02*
X11125000Y-15275000D01*
X11125000Y-15275000D02*
X9925000Y-15275000D01*
%TO.C,R14*%
X115262257Y-14952500D02*
X114787741Y-14952500D01*
X115262257Y-15997500D02*
X114787741Y-15997500D01*
%TO.C,F2*%
X115987779Y-61535000D02*
X115662221Y-61535000D01*
X115987779Y-60515000D02*
X115662221Y-60515000D01*
%TO.C,U3*%
X118550000Y-56585000D02*
X115650000Y-56585000D01*
X116450000Y-53465000D02*
X117250000Y-53465000D01*
X118550000Y-55975000D02*
X118550000Y-56585000D01*
X116450000Y-53465000D02*
X115650000Y-53465000D01*
%TO.C,D4*%
X9125000Y-15275000D02*
X7925000Y-15275000D01*
X7925000Y-17125000D02*
X7925000Y-15275000D01*
X9125000Y-17125000D02*
X9125000Y-15275000D01*
%TO.C,D1*%
X127659999Y-49710000D02*
X127659999Y-47440000D01*
X127659999Y-47440000D02*
X123774999Y-47440000D01*
X123774999Y-49710000D02*
X127659999Y-49710000D01*
D10*
%TO.C,J3*%
X123484822Y-15648268D02*
X124117797Y-14598123D01*
X125166951Y-14005500D02*
X125183049Y-14005500D01*
X126232203Y-14598123D02*
X126865178Y-15648268D01*
X127080500Y-16422608D02*
X127080500Y-19944500D01*
X123269500Y-19944500D02*
X123269500Y-16422608D01*
X125780499Y-21244500D02*
X124569501Y-21244500D01*
X123484822Y-15648268D02*
G75*
G03*
X123269500Y-16422608I1284686J-774342D01*
G01*
X125166951Y-14005500D02*
G75*
G03*
X124117797Y-14598123I0J-1225000D01*
G01*
X127080500Y-16422608D02*
G75*
G03*
X126865178Y-15648268I-1500008J-2D01*
G01*
X125780499Y-21244500D02*
G75*
G03*
X127080500Y-19944501I1J1300000D01*
G01*
X126232203Y-14598123D02*
G75*
G03*
X125183049Y-14005500I-1049152J-632373D01*
G01*
X123269500Y-19944500D02*
G75*
G03*
X124569502Y-21244500I1300000J0D01*
G01*
D12*
%TO.C,D17*%
X49225000Y-29275000D02*
X48025000Y-29275000D01*
X48025000Y-31125000D02*
X48025000Y-29275000D01*
X49225000Y-31125000D02*
X49225000Y-29275000D01*
%TO.C,D28*%
X87325001Y-53175000D02*
X87325001Y-51325000D01*
X86125001Y-53175000D02*
X86125001Y-51325000D01*
X87325001Y-51325000D02*
X86125001Y-51325000D01*
%TO.C,F1*%
X120837779Y-18815000D02*
X120512221Y-18815000D01*
X120837779Y-19835000D02*
X120512221Y-19835000D01*
%TO.C,R1*%
X120802500Y-45862258D02*
X120802500Y-45387742D01*
X121847500Y-45862258D02*
X121847500Y-45387742D01*
%TO.C,C8*%
X109684420Y-60035000D02*
X109965580Y-60035000D01*
X109684420Y-59015000D02*
X109965580Y-59015000D01*
%TO.C,D6*%
X9125000Y-55175000D02*
X9125000Y-53325000D01*
X9125000Y-53325000D02*
X7925000Y-53325000D01*
X7925000Y-55175000D02*
X7925000Y-53325000D01*
%TO.C,D5*%
X9125000Y-34275000D02*
X7925000Y-34275000D01*
X9125000Y-36125000D02*
X9125000Y-34275000D01*
X7925000Y-36125000D02*
X7925000Y-34275000D01*
%TO.C,R7*%
X114402500Y-35412742D02*
X114402500Y-35887258D01*
X115447500Y-35412742D02*
X115447500Y-35887258D01*
%TO.C,D9*%
X11125000Y-34275000D02*
X9925000Y-34275000D01*
X9925000Y-36125000D02*
X9925000Y-34275000D01*
X11125000Y-36125000D02*
X11125000Y-34275000D01*
%TO.C,D16*%
X49225000Y-10975000D02*
X49225000Y-9125000D01*
X49225000Y-9125000D02*
X48025000Y-9125000D01*
X48025000Y-10975000D02*
X48025000Y-9125000D01*
%TO.C,C5*%
X110065580Y-41615000D02*
X109784420Y-41615000D01*
X110065580Y-42635000D02*
X109784420Y-42635000D01*
%TO.C,D18*%
X49225000Y-50175000D02*
X49225000Y-48325000D01*
X48025000Y-50175000D02*
X48025000Y-48325000D01*
X49225000Y-48325000D02*
X48025000Y-48325000D01*
%TO.C,D19*%
X85325000Y-70375000D02*
X84125000Y-70375000D01*
X85325000Y-72225000D02*
X85325000Y-70375000D01*
X84125000Y-72225000D02*
X84125000Y-70375000D01*
%TO.C,C2*%
X117315580Y-43165000D02*
X117034420Y-43165000D01*
X117315580Y-44185000D02*
X117034420Y-44185000D01*
%TO.C,C7*%
X112815580Y-36885000D02*
X112534420Y-36885000D01*
X112815580Y-35865000D02*
X112534420Y-35865000D01*
%TO.C,SW1*%
X125755000Y-45525000D02*
X126545000Y-45525000D01*
X128845000Y-42175000D02*
X129055000Y-42375000D01*
X124705000Y-43675000D02*
X124705000Y-41975000D01*
X128845000Y-43475000D02*
X129055000Y-43275000D01*
X127555000Y-44925000D02*
X127555000Y-39225000D01*
X129055000Y-43275000D02*
X129055000Y-42375000D01*
X128845000Y-42175000D02*
X127555000Y-42175000D01*
X124705000Y-40675000D02*
X124705000Y-40475000D01*
X126545000Y-38625000D02*
X125755000Y-38625000D01*
X127555000Y-43475000D02*
X128845000Y-43475000D01*
%TO.C,R4*%
X113002500Y-44712258D02*
X113002500Y-44237742D01*
X114047500Y-44712258D02*
X114047500Y-44237742D01*
%TO.C,D20*%
X85325000Y5725001D02*
X84125000Y5725001D01*
X85325000Y3875001D02*
X85325000Y5725001D01*
X84125000Y3875001D02*
X84125000Y5725001D01*
%TO.C,D15*%
X49225000Y5875000D02*
X49225000Y7725000D01*
X49225000Y7725000D02*
X48025000Y7725000D01*
X48025000Y5875000D02*
X48025000Y7725000D01*
%TO.C,D12*%
X46025000Y-10975000D02*
X46025000Y-9125000D01*
X47225000Y-10975000D02*
X47225000Y-9125000D01*
X47225000Y-9125000D02*
X46025000Y-9125000D01*
%TO.C,R15*%
X115262257Y-13052500D02*
X114787741Y-13052500D01*
X115262257Y-14097500D02*
X114787741Y-14097500D01*
%TO.C,D22*%
X84125000Y-34125000D02*
X84125000Y-32275000D01*
X85325000Y-34125000D02*
X85325000Y-32275000D01*
X85325000Y-32275000D02*
X84125000Y-32275000D01*
%TO.C,D3*%
X7925000Y1875000D02*
X7925000Y3725000D01*
X9125000Y3725000D02*
X7925000Y3725000D01*
X9125000Y1875000D02*
X9125000Y3725000D01*
%TO.C,Q1*%
X121935000Y-42175000D02*
X121935000Y-41525000D01*
X118815000Y-42175000D02*
X118815000Y-41525000D01*
X118815000Y-42175000D02*
X118815000Y-43850000D01*
X121935000Y-42175000D02*
X121935000Y-42825000D01*
%TO.C,R16*%
X114521250Y-11262258D02*
X114521250Y-10787742D01*
X115566250Y-11262258D02*
X115566250Y-10787742D01*
%TO.C,D23*%
X85325000Y-51325000D02*
X84125000Y-51325000D01*
X85325000Y-53175000D02*
X85325000Y-51325000D01*
X84125000Y-53175000D02*
X84125000Y-51325000D01*
%TO.C,G1*%
G36*
X48123551Y-61966298D02*
G01*
X48189238Y-62009647D01*
X48232172Y-62071249D01*
X48245460Y-62142768D01*
X48222214Y-62215868D01*
X48189421Y-62255569D01*
X48118762Y-62293839D01*
X48026860Y-62308652D01*
X47936305Y-62298006D01*
X47896846Y-62281511D01*
X47841686Y-62225706D01*
X47823186Y-62153152D01*
X47839127Y-62076593D01*
X47887289Y-62008775D01*
X47951473Y-61967700D01*
X48041999Y-61949537D01*
X48123551Y-61966298D01*
G37*
G36*
X62882524Y-64751791D02*
G01*
X62902376Y-64769525D01*
X62909291Y-64814384D01*
X62910062Y-64872185D01*
X62902169Y-64980822D01*
X62874524Y-65055104D01*
X62821179Y-65107479D01*
X62788552Y-65126525D01*
X62696315Y-65159393D01*
X62620052Y-65150115D01*
X62555159Y-65103487D01*
X62506398Y-65028496D01*
X62500712Y-64951634D01*
X62533052Y-64879124D01*
X62598369Y-64817189D01*
X62691616Y-64772052D01*
X62807743Y-64749938D01*
X62842963Y-64748719D01*
X62882524Y-64751791D01*
G37*
G36*
X41685845Y-62936743D02*
G01*
X41685133Y-62608398D01*
X41684926Y-62320259D01*
X41685411Y-62069461D01*
X41686774Y-61853140D01*
X41689201Y-61668432D01*
X41692880Y-61512473D01*
X41697996Y-61382397D01*
X41704736Y-61275341D01*
X41713286Y-61188439D01*
X41723832Y-61118829D01*
X41736561Y-61063644D01*
X41751659Y-61020022D01*
X41769313Y-60985096D01*
X41789708Y-60956004D01*
X41813032Y-60929880D01*
X41839470Y-60903860D01*
X41869209Y-60875080D01*
X41873789Y-60870525D01*
X41988986Y-60775597D01*
X42106247Y-60715300D01*
X42108495Y-60714526D01*
X42119898Y-60711411D01*
X42136190Y-60708459D01*
X42158647Y-60705664D01*
X42188543Y-60703023D01*
X42227155Y-60700531D01*
X42275758Y-60698184D01*
X42335628Y-60695978D01*
X42408041Y-60693908D01*
X42494273Y-60691971D01*
X42595598Y-60690161D01*
X42713294Y-60688474D01*
X42848634Y-60686907D01*
X43002896Y-60685455D01*
X43177355Y-60684113D01*
X43373286Y-60682878D01*
X43591965Y-60681744D01*
X43834668Y-60680708D01*
X44102671Y-60679766D01*
X44397249Y-60678912D01*
X44719678Y-60678144D01*
X45071233Y-60677455D01*
X45453191Y-60676843D01*
X45866827Y-60676302D01*
X46313416Y-60675829D01*
X46794235Y-60675420D01*
X47310558Y-60675069D01*
X47863663Y-60674772D01*
X48454824Y-60674526D01*
X49085316Y-60674326D01*
X49756417Y-60674167D01*
X50469401Y-60674046D01*
X51225544Y-60673958D01*
X52026122Y-60673899D01*
X52872411Y-60673864D01*
X53765686Y-60673849D01*
X54156342Y-60673848D01*
X55173295Y-60673889D01*
X56141925Y-60674013D01*
X57062706Y-60674221D01*
X57936113Y-60674514D01*
X58762621Y-60674893D01*
X59542706Y-60675359D01*
X60276843Y-60675913D01*
X60965507Y-60676557D01*
X61609173Y-60677290D01*
X62208317Y-60678115D01*
X62763412Y-60679031D01*
X63274936Y-60680041D01*
X63743362Y-60681145D01*
X64169166Y-60682344D01*
X64552823Y-60683640D01*
X64894809Y-60685032D01*
X65195597Y-60686523D01*
X65455665Y-60688113D01*
X65675486Y-60689804D01*
X65855536Y-60691596D01*
X65996290Y-60693490D01*
X66098223Y-60695487D01*
X66161811Y-60697589D01*
X66187106Y-60699677D01*
X66324829Y-60757166D01*
X66452466Y-60852652D01*
X66556712Y-60975437D01*
X66582204Y-61017380D01*
X66655403Y-61149640D01*
X66655403Y-66200360D01*
X66601446Y-66301240D01*
X66494127Y-66452209D01*
X66352988Y-66573799D01*
X66292690Y-66609996D01*
X66191811Y-66663953D01*
X54223799Y-66667618D01*
X53461409Y-66667815D01*
X52711066Y-66667938D01*
X51974257Y-66667988D01*
X51252470Y-66667966D01*
X50547191Y-66667876D01*
X49859906Y-66667718D01*
X49192105Y-66667494D01*
X48545272Y-66667206D01*
X47920896Y-66666856D01*
X47320463Y-66666445D01*
X46745461Y-66665975D01*
X46197376Y-66665449D01*
X45677695Y-66664867D01*
X45187905Y-66664232D01*
X44729494Y-66663544D01*
X44303949Y-66662807D01*
X43912756Y-66662022D01*
X43557402Y-66661190D01*
X43239375Y-66660313D01*
X42960161Y-66659394D01*
X42721248Y-66658433D01*
X42524122Y-66657433D01*
X42370271Y-66656395D01*
X42261181Y-66655321D01*
X42198341Y-66654213D01*
X42182589Y-66653400D01*
X42027300Y-66591159D01*
X41889261Y-66487635D01*
X41776698Y-66349500D01*
X41748553Y-66301240D01*
X41694596Y-66200360D01*
X41688041Y-63725509D01*
X41687664Y-63590383D01*
X42375219Y-63590383D01*
X42386112Y-63908203D01*
X42438970Y-64221110D01*
X42533259Y-64524461D01*
X42668445Y-64813615D01*
X42843995Y-65083932D01*
X43059372Y-65330770D01*
X43109236Y-65378838D01*
X43331974Y-65557724D01*
X43587511Y-65711971D01*
X43863502Y-65835464D01*
X44147601Y-65922092D01*
X44248424Y-65942887D01*
X44377102Y-65956637D01*
X44537086Y-65959904D01*
X44712220Y-65953552D01*
X44886350Y-65938442D01*
X45043318Y-65915436D01*
X45131865Y-65895760D01*
X45435798Y-65789722D01*
X45718191Y-65641871D01*
X45975749Y-65455656D01*
X46121035Y-65315624D01*
X47367507Y-65315624D01*
X47370897Y-65384819D01*
X47379427Y-65431618D01*
X47383773Y-65439906D01*
X47411334Y-65443937D01*
X47481639Y-65447604D01*
X47588636Y-65450779D01*
X47726272Y-65453335D01*
X47888491Y-65455142D01*
X48069241Y-65456073D01*
X48152361Y-65456172D01*
X48904683Y-65456172D01*
X48904683Y-65431773D01*
X49144390Y-65431773D01*
X49563472Y-65431773D01*
X49564002Y-65328074D01*
X49565528Y-65275353D01*
X49569538Y-65181883D01*
X49575636Y-65055631D01*
X49583427Y-64904562D01*
X49592515Y-64736642D01*
X49600072Y-64602186D01*
X49609850Y-64430568D01*
X49618769Y-64273226D01*
X49626427Y-64137303D01*
X49632423Y-64029946D01*
X49636356Y-63958298D01*
X49637760Y-63931196D01*
X49643556Y-63936162D01*
X49658130Y-63981936D01*
X49679601Y-64061703D01*
X49706086Y-64168650D01*
X49722015Y-64236191D01*
X49759111Y-64391764D01*
X49804254Y-64574563D01*
X49852468Y-64764788D01*
X49898778Y-64942636D01*
X49912082Y-64992579D01*
X50020041Y-65395173D01*
X50377192Y-65395173D01*
X50519999Y-64931580D01*
X50571202Y-64763860D01*
X50623972Y-64588386D01*
X50674073Y-64419425D01*
X50717269Y-64271242D01*
X50744238Y-64176421D01*
X50825669Y-63884854D01*
X50840608Y-64091022D01*
X50845713Y-64176990D01*
X50851574Y-64301267D01*
X50857774Y-64453378D01*
X50863895Y-64622846D01*
X50869520Y-64799196D01*
X50871404Y-64864482D01*
X50887260Y-65431773D01*
X51332583Y-65431773D01*
X51279332Y-64461888D01*
X51276768Y-64415122D01*
X51661839Y-64415122D01*
X51662221Y-64632376D01*
X51663309Y-64834347D01*
X51665023Y-65015842D01*
X51667280Y-65171672D01*
X51669997Y-65296645D01*
X51673092Y-65385571D01*
X51676482Y-65433259D01*
X51678106Y-65439906D01*
X51708319Y-65447186D01*
X51775203Y-65452782D01*
X51866636Y-65455846D01*
X51909902Y-65456172D01*
X52125432Y-65456172D01*
X52125432Y-64793160D01*
X52203078Y-64685040D01*
X52248562Y-64628905D01*
X52284397Y-64597578D01*
X52298718Y-64595653D01*
X52315636Y-64622215D01*
X52351641Y-64684563D01*
X52402696Y-64775508D01*
X52464765Y-64887865D01*
X52528565Y-65004779D01*
X52597826Y-65131596D01*
X52660399Y-65244640D01*
X52712082Y-65336440D01*
X52748673Y-65399525D01*
X52765307Y-65425673D01*
X52797390Y-65438116D01*
X52862861Y-65447604D01*
X52949448Y-65453918D01*
X53044881Y-65456838D01*
X53133180Y-65456172D01*
X55565778Y-65456172D01*
X56004971Y-65456172D01*
X56004971Y-64010495D01*
X56360508Y-64010495D01*
X56361115Y-64048619D01*
X56361954Y-64128689D01*
X56362968Y-64243854D01*
X56364102Y-64387261D01*
X56365297Y-64552058D01*
X56366498Y-64731394D01*
X56366608Y-64748583D01*
X56370965Y-65431773D01*
X56810158Y-65431773D01*
X57493348Y-65431773D01*
X57932541Y-65431773D01*
X57932541Y-64966968D01*
X57933716Y-64781788D01*
X57938057Y-64638968D01*
X57946784Y-64532107D01*
X57961118Y-64454807D01*
X57982281Y-64400665D01*
X58011492Y-64363282D01*
X58049973Y-64336258D01*
X58053187Y-64334513D01*
X58137903Y-64310579D01*
X58223389Y-64320391D01*
X58288653Y-64360692D01*
X58304371Y-64381927D01*
X58316323Y-64410818D01*
X58325161Y-64454134D01*
X58331535Y-64518648D01*
X58336096Y-64611130D01*
X58339496Y-64738350D01*
X58342385Y-64907081D01*
X58342604Y-64921883D01*
X58350073Y-65431773D01*
X58783736Y-65431773D01*
X58791232Y-64933488D01*
X58793937Y-64765467D01*
X58796855Y-64639199D01*
X58800825Y-64547640D01*
X58806681Y-64483749D01*
X58815260Y-64440481D01*
X58827399Y-64410794D01*
X58843934Y-64387645D01*
X58857879Y-64372297D01*
X58923767Y-64323843D01*
X59007937Y-64309399D01*
X59010736Y-64309390D01*
X59079166Y-64316528D01*
X59123472Y-64346750D01*
X59152789Y-64388689D01*
X59169589Y-64420162D01*
X59182009Y-64456575D01*
X59190700Y-64505427D01*
X59196316Y-64574218D01*
X59199508Y-64670446D01*
X59200929Y-64801612D01*
X59201229Y-64945814D01*
X59202052Y-65093817D01*
X59204291Y-65224848D01*
X59207690Y-65331186D01*
X59211995Y-65405111D01*
X59216949Y-65438902D01*
X59217587Y-65439906D01*
X59247964Y-65447383D01*
X59314581Y-65453047D01*
X59404886Y-65455968D01*
X59437184Y-65456172D01*
X59640514Y-65456172D01*
X59640514Y-64923809D01*
X59639273Y-64712648D01*
X59634764Y-64543685D01*
X59625802Y-64410366D01*
X59611203Y-64306133D01*
X59589784Y-64224433D01*
X59560363Y-64158708D01*
X59521754Y-64102403D01*
X59484772Y-64061087D01*
X59401231Y-63998295D01*
X59823094Y-63998295D01*
X59832032Y-64029147D01*
X59852016Y-64100614D01*
X59881262Y-64206230D01*
X59917983Y-64339528D01*
X59960394Y-64494043D01*
X60006676Y-64663185D01*
X60053920Y-64835659D01*
X60098147Y-64996297D01*
X60137378Y-65137975D01*
X60169634Y-65253564D01*
X60192933Y-65335940D01*
X60204948Y-65376873D01*
X60229889Y-65456172D01*
X60639535Y-65456172D01*
X60675042Y-65328074D01*
X60702620Y-65228835D01*
X60734272Y-65115284D01*
X60751516Y-65053579D01*
X60775845Y-64958844D01*
X60803704Y-64838622D01*
X60829924Y-64715443D01*
X60835470Y-64687584D01*
X60855744Y-64586066D01*
X60869388Y-64527558D01*
X60878845Y-64507120D01*
X60886560Y-64519816D01*
X60894976Y-64560706D01*
X60895848Y-64565586D01*
X60908522Y-64628353D01*
X60930066Y-64726615D01*
X60957711Y-64848480D01*
X60988685Y-64982051D01*
X61020221Y-65115436D01*
X61049547Y-65236738D01*
X61073894Y-65334065D01*
X61082149Y-65365606D01*
X61106874Y-65458037D01*
X61315377Y-65451005D01*
X61523881Y-65443972D01*
X61641569Y-65052566D01*
X62064349Y-65052566D01*
X62088863Y-65188432D01*
X62150147Y-65308619D01*
X62245974Y-65404377D01*
X62305504Y-65440046D01*
X62398714Y-65468163D01*
X62514903Y-65478941D01*
X62632699Y-65472328D01*
X62730733Y-65448273D01*
X62746576Y-65441118D01*
X62817868Y-65398548D01*
X62878926Y-65352065D01*
X62911628Y-65323063D01*
X62930978Y-65318477D01*
X62946439Y-65345298D01*
X62967474Y-65410518D01*
X62970295Y-65419573D01*
X62987845Y-65439022D01*
X63031411Y-65450472D01*
X63109854Y-65455532D01*
X63171592Y-65456176D01*
X63361455Y-65456180D01*
X63361119Y-65431773D01*
X63715250Y-65431773D01*
X64154443Y-65431773D01*
X64154481Y-65023079D01*
X64155291Y-64864707D01*
X64158167Y-64746841D01*
X64162081Y-64687584D01*
X64728931Y-64687584D01*
X64732831Y-64799400D01*
X64744125Y-64909409D01*
X64760427Y-64994866D01*
X64761573Y-64998925D01*
X64813710Y-65113671D01*
X64897475Y-65228857D01*
X64998833Y-65327707D01*
X65083794Y-65384078D01*
X65231562Y-65436878D01*
X65408590Y-65463160D01*
X65602811Y-65462355D01*
X65802159Y-65433895D01*
X65858440Y-65420585D01*
X65926748Y-65400742D01*
X65959917Y-65378639D01*
X65970239Y-65340550D01*
X65970428Y-65295557D01*
X65961903Y-65178313D01*
X65941897Y-65104830D01*
X65910993Y-65076712D01*
X65891894Y-65080049D01*
X65849452Y-65089677D01*
X65772273Y-65099189D01*
X65674400Y-65106993D01*
X65635540Y-65109139D01*
X65494175Y-65111075D01*
X65389308Y-65098950D01*
X65309859Y-65069559D01*
X65244748Y-65019695D01*
X65215332Y-64987543D01*
X65177845Y-64941163D01*
X65157080Y-64906226D01*
X65157693Y-64881112D01*
X65184344Y-64864200D01*
X65241692Y-64853871D01*
X65334393Y-64848505D01*
X65467108Y-64846483D01*
X65621859Y-64846182D01*
X66088891Y-64846182D01*
X66075157Y-64644885D01*
X66052889Y-64459673D01*
X66011923Y-64311216D01*
X65948685Y-64189875D01*
X65872671Y-64098765D01*
X65740254Y-63999117D01*
X65587863Y-63941441D01*
X65421637Y-63926479D01*
X65247714Y-63954978D01*
X65113248Y-64006602D01*
X64967502Y-64102889D01*
X64854385Y-64233402D01*
X64776125Y-64394196D01*
X64734948Y-64581325D01*
X64728931Y-64687584D01*
X64162081Y-64687584D01*
X64163823Y-64661205D01*
X64172974Y-64599525D01*
X64186336Y-64553526D01*
X64197180Y-64528987D01*
X64265478Y-64443562D01*
X64365572Y-64384345D01*
X64484236Y-64358718D01*
X64503087Y-64358227D01*
X64595536Y-64358189D01*
X64588486Y-64144693D01*
X64581436Y-63931196D01*
X64474605Y-63936127D01*
X64354602Y-63962729D01*
X64245817Y-64024879D01*
X64163850Y-64112758D01*
X64147037Y-64142234D01*
X64106755Y-64223992D01*
X64105866Y-64138593D01*
X64102191Y-64044178D01*
X64087109Y-63986447D01*
X64050923Y-63956406D01*
X63983932Y-63945060D01*
X63895401Y-63943396D01*
X63715250Y-63943396D01*
X63715250Y-65431773D01*
X63361119Y-65431773D01*
X63354649Y-64962084D01*
X63350677Y-64757899D01*
X63344348Y-64595454D01*
X63334640Y-64467711D01*
X63320534Y-64367628D01*
X63301008Y-64288165D01*
X63275043Y-64222283D01*
X63241617Y-64162942D01*
X63238007Y-64157375D01*
X63169741Y-64073505D01*
X63086926Y-64014803D01*
X62980849Y-63977909D01*
X62842794Y-63959464D01*
X62714865Y-63955717D01*
X62520028Y-63962993D01*
X62368739Y-63985398D01*
X62257973Y-64023493D01*
X62218281Y-64047539D01*
X62194377Y-64069901D01*
X62186475Y-64099498D01*
X62193765Y-64150676D01*
X62208942Y-64212735D01*
X62231114Y-64289019D01*
X62255979Y-64328413D01*
X62295659Y-64336170D01*
X62362276Y-64317545D01*
X62409870Y-64299831D01*
X62498019Y-64276154D01*
X62597819Y-64262715D01*
X62624578Y-64261662D01*
X62708693Y-64269120D01*
X62789287Y-64289596D01*
X62852444Y-64318018D01*
X62884243Y-64349313D01*
X62885663Y-64356820D01*
X62893684Y-64397549D01*
X62899324Y-64414199D01*
X62896348Y-64436140D01*
X62861970Y-64451742D01*
X62788171Y-64464268D01*
X62771226Y-64466314D01*
X62549432Y-64505811D01*
X62370294Y-64567577D01*
X62234137Y-64651459D01*
X62141286Y-64757302D01*
X62134551Y-64768812D01*
X62078835Y-64909775D01*
X62064349Y-65052566D01*
X61641569Y-65052566D01*
X61740307Y-64724184D01*
X61794091Y-64544440D01*
X61843058Y-64379128D01*
X61885485Y-64234200D01*
X61919647Y-64115609D01*
X61943819Y-64029308D01*
X61956279Y-63981249D01*
X61957605Y-63973896D01*
X61942489Y-63958049D01*
X61892369Y-63948302D01*
X61801731Y-63943868D01*
X61743612Y-63943396D01*
X61528746Y-63943396D01*
X61484403Y-64169092D01*
X61462017Y-64286068D01*
X61435060Y-64431502D01*
X61407137Y-64585746D01*
X61384832Y-64711984D01*
X61363769Y-64825365D01*
X61344483Y-64915319D01*
X61328804Y-64974276D01*
X61318563Y-64994667D01*
X61316969Y-64992579D01*
X61307749Y-64958093D01*
X61289690Y-64884137D01*
X61264718Y-64778840D01*
X61234762Y-64650329D01*
X61201747Y-64506732D01*
X61201257Y-64504587D01*
X61160875Y-64326424D01*
X61129448Y-64190093D01*
X61103929Y-64090125D01*
X61081269Y-64021053D01*
X61058418Y-63977408D01*
X61032330Y-63953722D01*
X60999955Y-63944527D01*
X60958245Y-63944355D01*
X60904152Y-63947737D01*
X60891173Y-63948377D01*
X60726297Y-63955596D01*
X60591866Y-64496051D01*
X60457436Y-65036506D01*
X60361525Y-64502151D01*
X60265615Y-63967796D01*
X60039229Y-63967796D01*
X59927860Y-63969514D01*
X59859084Y-63975245D01*
X59826797Y-63985849D01*
X59823094Y-63998295D01*
X59401231Y-63998295D01*
X59369719Y-63974610D01*
X59239303Y-63930828D01*
X59101141Y-63929389D01*
X58962850Y-63969936D01*
X58832045Y-64052117D01*
X58786501Y-64093574D01*
X58737624Y-64139937D01*
X58709978Y-64154484D01*
X58691432Y-64141009D01*
X58682440Y-64126131D01*
X58601769Y-64028069D01*
X58494080Y-63962590D01*
X58369193Y-63930276D01*
X58236931Y-63931707D01*
X58107114Y-63967465D01*
X57989564Y-64038129D01*
X57942457Y-64082363D01*
X57885880Y-64143411D01*
X57870573Y-64073903D01*
X57856175Y-64012518D01*
X57845870Y-63973896D01*
X57816556Y-63955228D01*
X57741807Y-63945296D01*
X57664911Y-63943396D01*
X57493348Y-63943396D01*
X57493348Y-65431773D01*
X56810158Y-65431773D01*
X56810196Y-65023079D01*
X56811007Y-64864707D01*
X56813883Y-64746841D01*
X56819539Y-64661205D01*
X56828690Y-64599525D01*
X56842051Y-64553526D01*
X56852896Y-64528987D01*
X56921193Y-64443562D01*
X57021287Y-64384345D01*
X57139951Y-64358718D01*
X57158803Y-64358227D01*
X57251251Y-64358189D01*
X57244201Y-64144693D01*
X57237152Y-63931196D01*
X57163953Y-63924288D01*
X57072583Y-63935803D01*
X56971916Y-63979500D01*
X56878405Y-64046104D01*
X56810158Y-64123727D01*
X56749159Y-64218658D01*
X56741812Y-64080023D01*
X56734464Y-63941388D01*
X56546615Y-63948492D01*
X56451910Y-63953029D01*
X56396010Y-63959976D01*
X56368925Y-63972660D01*
X56360671Y-63994408D01*
X56360508Y-64010495D01*
X56004971Y-64010495D01*
X56004971Y-63967796D01*
X55565778Y-63967796D01*
X55565778Y-65456172D01*
X53133180Y-65456172D01*
X53136892Y-65456144D01*
X53213210Y-65451616D01*
X53261565Y-65443035D01*
X53272214Y-65434748D01*
X53270854Y-65431773D01*
X54077401Y-65431773D01*
X54516594Y-65431773D01*
X54516594Y-64626585D01*
X55224183Y-64626585D01*
X55224183Y-64236191D01*
X54516594Y-64236191D01*
X54516594Y-63772599D01*
X55272982Y-63772599D01*
X55272982Y-63556967D01*
X55554687Y-63556967D01*
X55564013Y-63635328D01*
X55599148Y-63692138D01*
X55622592Y-63714189D01*
X55710212Y-63760511D01*
X55812785Y-63772411D01*
X55908671Y-63747483D01*
X55911042Y-63746235D01*
X55953489Y-63706430D01*
X55991753Y-63644214D01*
X55995164Y-63636437D01*
X56016362Y-63571233D01*
X56012348Y-63516649D01*
X55995164Y-63469567D01*
X55946376Y-63390591D01*
X55875734Y-63347267D01*
X55772907Y-63333434D01*
X55766832Y-63333406D01*
X55667763Y-63353976D01*
X55596958Y-63412173D01*
X55559420Y-63502724D01*
X55554687Y-63556967D01*
X55272982Y-63556967D01*
X55272982Y-63406604D01*
X54077401Y-63406604D01*
X54077401Y-65431773D01*
X53270854Y-65431773D01*
X53260286Y-65408649D01*
X53226747Y-65346567D01*
X53174964Y-65254440D01*
X53108306Y-65138208D01*
X53030141Y-65003807D01*
X52964337Y-64891856D01*
X52878080Y-64745318D01*
X52799176Y-64610439D01*
X52731337Y-64493631D01*
X52678274Y-64401304D01*
X52643700Y-64339871D01*
X52632287Y-64318257D01*
X52627338Y-64295972D01*
X52633550Y-64266105D01*
X52654250Y-64223198D01*
X52692763Y-64161790D01*
X52752415Y-64076420D01*
X52836533Y-63961628D01*
X52907242Y-63866864D01*
X52999076Y-63744343D01*
X53081856Y-63634005D01*
X53150783Y-63542236D01*
X53201059Y-63475424D01*
X53227886Y-63439957D01*
X53230080Y-63437104D01*
X53230742Y-63423584D01*
X53203798Y-63414573D01*
X53143203Y-63409354D01*
X53042907Y-63407213D01*
X52976306Y-63407072D01*
X52698823Y-63407539D01*
X52503626Y-63701828D01*
X52424045Y-63822604D01*
X52345293Y-63943506D01*
X52275673Y-64051703D01*
X52223485Y-64134366D01*
X52216931Y-64144977D01*
X52125432Y-64293837D01*
X52125432Y-63406604D01*
X51661839Y-63406604D01*
X51661839Y-64415122D01*
X51276768Y-64415122D01*
X51267594Y-64247816D01*
X51256666Y-64047990D01*
X51246846Y-63867887D01*
X51238432Y-63712985D01*
X51231720Y-63588760D01*
X51227008Y-63500689D01*
X51224594Y-63454251D01*
X51224364Y-63449304D01*
X51219035Y-63431130D01*
X51199448Y-63418944D01*
X51157598Y-63411581D01*
X51085481Y-63407874D01*
X50975095Y-63406658D01*
X50931207Y-63406604D01*
X50639767Y-63406604D01*
X50551600Y-63693300D01*
X50513699Y-63816458D01*
X50477558Y-63933737D01*
X50447518Y-64031062D01*
X50429338Y-64089794D01*
X50407124Y-64166372D01*
X50378911Y-64270581D01*
X50350039Y-64382589D01*
X50343960Y-64406989D01*
X50311612Y-64540502D01*
X50286798Y-64640829D01*
X50266929Y-64706281D01*
X50249419Y-64735167D01*
X50231681Y-64725796D01*
X50211126Y-64676479D01*
X50185167Y-64585526D01*
X50151218Y-64451246D01*
X50106690Y-64271948D01*
X50100701Y-64248078D01*
X50058318Y-64080458D01*
X50017352Y-63920309D01*
X49980108Y-63776504D01*
X49948893Y-63657914D01*
X49926012Y-63573412D01*
X49918472Y-63546902D01*
X49877205Y-63406604D01*
X49281348Y-63406604D01*
X49226183Y-64327690D01*
X49213340Y-64538725D01*
X49200847Y-64737609D01*
X49189113Y-64918315D01*
X49178545Y-65074812D01*
X49169550Y-65201073D01*
X49162537Y-65291069D01*
X49157913Y-65338770D01*
X49157704Y-65340274D01*
X49144390Y-65431773D01*
X48904683Y-65431773D01*
X48904683Y-65066832D01*
X48441104Y-65060205D01*
X47977526Y-65053579D01*
X48441088Y-64358189D01*
X48565359Y-64171572D01*
X48665173Y-64020753D01*
X48743207Y-63900974D01*
X48802141Y-63807476D01*
X48844654Y-63735501D01*
X48873424Y-63680289D01*
X48891132Y-63637081D01*
X48900455Y-63601119D01*
X48904074Y-63567644D01*
X48904667Y-63534702D01*
X48904683Y-63406604D01*
X47465105Y-63406604D01*
X47465105Y-63796998D01*
X48319673Y-63796998D01*
X47843590Y-64502303D01*
X47716187Y-64691423D01*
X47613661Y-64844841D01*
X47533338Y-64967131D01*
X47472539Y-65062865D01*
X47428587Y-65136617D01*
X47398806Y-65192959D01*
X47380519Y-65236465D01*
X47371049Y-65271708D01*
X47367719Y-65303261D01*
X47367507Y-65315624D01*
X46121035Y-65315624D01*
X46205179Y-65234523D01*
X46403187Y-64981920D01*
X46566478Y-64701293D01*
X46691761Y-64396091D01*
X46746531Y-64205825D01*
X46777207Y-64034876D01*
X46795360Y-63835195D01*
X46800466Y-63625353D01*
X46792000Y-63423920D01*
X46772977Y-63268755D01*
X46693505Y-62944360D01*
X46615236Y-62746296D01*
X47540906Y-62746296D01*
X47554032Y-62788923D01*
X47566403Y-62799417D01*
X47615034Y-62813901D01*
X47693139Y-62821120D01*
X47785623Y-62821593D01*
X47877389Y-62815841D01*
X47953342Y-62804383D01*
X47998385Y-62787739D01*
X48001897Y-62784414D01*
X48016538Y-62739212D01*
X47991092Y-62700383D01*
X47934178Y-62677334D01*
X47901311Y-62674616D01*
X47860056Y-62671794D01*
X47839279Y-62655028D01*
X47831967Y-62611873D01*
X47831100Y-62550007D01*
X47833093Y-62477448D01*
X47841718Y-62443712D01*
X47860942Y-62438896D01*
X47873799Y-62443394D01*
X47922672Y-62456028D01*
X47998052Y-62467595D01*
X48038496Y-62471763D01*
X48168159Y-62462047D01*
X48275966Y-62408740D01*
X48362549Y-62311517D01*
X48368023Y-62302745D01*
X48408572Y-62193141D01*
X48406346Y-62122184D01*
X48549721Y-62122184D01*
X48560018Y-62248172D01*
X48561874Y-62255312D01*
X48613476Y-62360435D01*
X48698918Y-62440807D01*
X48808148Y-62493005D01*
X48931114Y-62513604D01*
X49057763Y-62499183D01*
X49158119Y-62458367D01*
X49242657Y-62384747D01*
X49295184Y-62285501D01*
X49315162Y-62172298D01*
X49302055Y-62056804D01*
X49255325Y-61950688D01*
X49191029Y-61880166D01*
X49418956Y-61880166D01*
X49430392Y-61935598D01*
X49461387Y-61964626D01*
X49492055Y-62001276D01*
X49521775Y-62079809D01*
X49548740Y-62188632D01*
X49577307Y-62317027D01*
X49600551Y-62405012D01*
X49622208Y-62460131D01*
X49646013Y-62489926D01*
X49675700Y-62501940D01*
X49704810Y-62503819D01*
X49745394Y-62499231D01*
X49772908Y-62478051D01*
X49796490Y-62429156D01*
X49817330Y-62366858D01*
X49842952Y-62297895D01*
X49866081Y-62256543D01*
X49879577Y-62250960D01*
X49898648Y-62284724D01*
X49925976Y-62347272D01*
X49941773Y-62387921D01*
X49971570Y-62457998D01*
X50000186Y-62492600D01*
X50038845Y-62503443D01*
X50052758Y-62503819D01*
X50093160Y-62499421D01*
X50117822Y-62478289D01*
X50135536Y-62428517D01*
X50147376Y-62375721D01*
X50178927Y-62227162D01*
X50203553Y-62119060D01*
X50206863Y-62106615D01*
X50400009Y-62106615D01*
X50402345Y-62209526D01*
X50445038Y-62308190D01*
X50506461Y-62393322D01*
X50573518Y-62446597D01*
X50649255Y-62478444D01*
X50727788Y-62491424D01*
X50833180Y-62492966D01*
X50945240Y-62484376D01*
X51043780Y-62466962D01*
X51095321Y-62449552D01*
X51148336Y-62410094D01*
X51151290Y-62403761D01*
X51374271Y-62403761D01*
X51382297Y-62451419D01*
X51393701Y-62467530D01*
X51419193Y-62484379D01*
X51467644Y-62495340D01*
X51547093Y-62501370D01*
X51665579Y-62503427D01*
X51695326Y-62503445D01*
X51808052Y-62501499D01*
X51904276Y-62496515D01*
X51972560Y-62489290D01*
X51999735Y-62482222D01*
X52023371Y-62443593D01*
X52023897Y-62415496D01*
X52009824Y-62388244D01*
X51973046Y-62372410D01*
X51902113Y-62363903D01*
X51875099Y-62362303D01*
X51735038Y-62354986D01*
X51735038Y-62224305D01*
X51737057Y-62148532D01*
X51742165Y-62129567D01*
X52274430Y-62129567D01*
X52283264Y-62236419D01*
X52327413Y-62335465D01*
X52408098Y-62418137D01*
X52473631Y-62455902D01*
X52588404Y-62492949D01*
X52713941Y-62501000D01*
X52864348Y-62480797D01*
X52880872Y-62477343D01*
X52976539Y-62445385D01*
X53029558Y-62400885D01*
X53037303Y-62346195D01*
X53035087Y-62339121D01*
X53013594Y-62317104D01*
X52965655Y-62310205D01*
X52884244Y-62318366D01*
X52783788Y-62337036D01*
X52699035Y-62351675D01*
X52639741Y-62351235D01*
X52584438Y-62334023D01*
X52551852Y-62318736D01*
X52482033Y-62280686D01*
X52449247Y-62252380D01*
X52455796Y-62232541D01*
X52503978Y-62219888D01*
X52596095Y-62213145D01*
X52734444Y-62211031D01*
X52745589Y-62211023D01*
X53052617Y-62211023D01*
X53052617Y-62163436D01*
X53216127Y-62163436D01*
X53229543Y-62278615D01*
X53279601Y-62383098D01*
X53366321Y-62467356D01*
X53394212Y-62484409D01*
X53468791Y-62514761D01*
X53553099Y-62522742D01*
X53609394Y-62519257D01*
X53689694Y-62507054D01*
X53752739Y-62489292D01*
X53774091Y-62478020D01*
X53803050Y-62462356D01*
X53809006Y-62476431D01*
X53829980Y-62495379D01*
X53881898Y-62503584D01*
X53948253Y-62501693D01*
X54012535Y-62490351D01*
X54058238Y-62470205D01*
X54062422Y-62466513D01*
X54081829Y-62429101D01*
X55031588Y-62429101D01*
X55044715Y-62471728D01*
X55057085Y-62482222D01*
X55100183Y-62495912D01*
X55163114Y-62502344D01*
X55228511Y-62501634D01*
X55279010Y-62493899D01*
X55297382Y-62480597D01*
X55316653Y-62473841D01*
X55364246Y-62486724D01*
X55376681Y-62491842D01*
X55493985Y-62522516D01*
X55615905Y-62520844D01*
X55714466Y-62490434D01*
X55801629Y-62419434D01*
X55860186Y-62317506D01*
X55882824Y-62197632D01*
X55882882Y-62191512D01*
X55862708Y-62060049D01*
X55799801Y-61948556D01*
X55737304Y-61886077D01*
X56009590Y-61886077D01*
X56022771Y-61942138D01*
X56047909Y-61963891D01*
X56076458Y-61995106D01*
X56118554Y-62060822D01*
X56168127Y-62150856D01*
X56210814Y-62237205D01*
X56261397Y-62346167D01*
X56293410Y-62421809D01*
X56309511Y-62474754D01*
X56312360Y-62515622D01*
X56304614Y-62555035D01*
X56296688Y-62580286D01*
X56275362Y-62636766D01*
X56249574Y-62664509D01*
X56203089Y-62673723D01*
X56146697Y-62674616D01*
X56059208Y-62684188D01*
X56013061Y-62711440D01*
X56010559Y-62754175D01*
X56030325Y-62785564D01*
X56055646Y-62803396D01*
X56101370Y-62813684D01*
X56176807Y-62817490D01*
X56291265Y-62815873D01*
X56295350Y-62815753D01*
X56403684Y-62811901D01*
X56472621Y-62806473D01*
X56511559Y-62797001D01*
X56529892Y-62781018D01*
X56537016Y-62756055D01*
X56537593Y-62752135D01*
X56530275Y-62702818D01*
X56493896Y-62681930D01*
X56455963Y-62663809D01*
X56449266Y-62648873D01*
X56479278Y-62576026D01*
X56523225Y-62481514D01*
X56576322Y-62374326D01*
X56633785Y-62263445D01*
X56690830Y-62157860D01*
X56742671Y-62066556D01*
X56784525Y-61998520D01*
X56811606Y-61962737D01*
X56816258Y-61959597D01*
X56850632Y-61929382D01*
X56856603Y-61882529D01*
X56833391Y-61842628D01*
X56820362Y-61835440D01*
X56771162Y-61825629D01*
X56700374Y-61820749D01*
X56688160Y-61820629D01*
X56616406Y-61824369D01*
X56561623Y-61833557D01*
X56555958Y-61835440D01*
X56523271Y-61868987D01*
X56521775Y-61917637D01*
X56551419Y-61959003D01*
X56556242Y-61961960D01*
X56573496Y-61978105D01*
X56574633Y-62005677D01*
X56557272Y-62054547D01*
X56519031Y-62134586D01*
X56510485Y-62151602D01*
X56425848Y-62319485D01*
X56254866Y-61979227D01*
X56306347Y-61939713D01*
X56340693Y-61906257D01*
X56336924Y-61876735D01*
X56323896Y-61859313D01*
X56288875Y-61834510D01*
X56230002Y-61824517D01*
X56153567Y-61825628D01*
X56074428Y-61832197D01*
X56031835Y-61844616D01*
X56013541Y-61868026D01*
X56009590Y-61886077D01*
X55737304Y-61886077D01*
X55736733Y-61885506D01*
X55628070Y-61821878D01*
X55508879Y-61805676D01*
X55400309Y-61828260D01*
X55297382Y-61863721D01*
X55297382Y-61525284D01*
X55169284Y-61532659D01*
X55093027Y-61539768D01*
X55052909Y-61553565D01*
X55036280Y-61579769D01*
X55033502Y-61594071D01*
X55040470Y-61639002D01*
X55085072Y-61662955D01*
X55088401Y-61663815D01*
X55150984Y-61679522D01*
X55150984Y-62016774D01*
X55150700Y-62150854D01*
X55149027Y-62243888D01*
X55144738Y-62303632D01*
X55136605Y-62337839D01*
X55123400Y-62354263D01*
X55103894Y-62360659D01*
X55096335Y-62361824D01*
X55050926Y-62385929D01*
X55031588Y-62429101D01*
X54081829Y-62429101D01*
X54088005Y-62417196D01*
X54071420Y-62376167D01*
X54018952Y-62357524D01*
X54013792Y-62357421D01*
X53955403Y-62357421D01*
X53955403Y-61525284D01*
X53827305Y-61532659D01*
X53751048Y-61539768D01*
X53710930Y-61553565D01*
X53694301Y-61579769D01*
X53691523Y-61594071D01*
X53698491Y-61639002D01*
X53743094Y-61662955D01*
X53746422Y-61663815D01*
X53789756Y-61683287D01*
X53806887Y-61723031D01*
X53809006Y-61764886D01*
X53805259Y-61820683D01*
X53789707Y-61838176D01*
X53766306Y-61832255D01*
X53717447Y-61819466D01*
X53642089Y-61807499D01*
X53601609Y-61803071D01*
X53514406Y-61800967D01*
X53449062Y-61817909D01*
X53395531Y-61849039D01*
X53299141Y-61939118D01*
X53239332Y-62047094D01*
X53216127Y-62163436D01*
X53052617Y-62163436D01*
X53052617Y-62136613D01*
X53030169Y-62022104D01*
X52968998Y-61922990D01*
X52878370Y-61845793D01*
X52767548Y-61797032D01*
X52645796Y-61783228D01*
X52567810Y-61795372D01*
X52447600Y-61847809D01*
X52357819Y-61926697D01*
X52299688Y-62023471D01*
X52274430Y-62129567D01*
X51742165Y-62129567D01*
X51749814Y-62101167D01*
X51783356Y-62064040D01*
X51847733Y-62018978D01*
X51849069Y-62018093D01*
X51915703Y-61975928D01*
X51957658Y-61958597D01*
X51990155Y-61962837D01*
X52021838Y-61981048D01*
X52085253Y-62006760D01*
X52131003Y-61995050D01*
X52149767Y-61948561D01*
X52149832Y-61944777D01*
X52128627Y-61886348D01*
X52072813Y-61845766D01*
X51994090Y-61825491D01*
X51904156Y-61827980D01*
X51814713Y-61855692D01*
X51789937Y-61869161D01*
X51738329Y-61899337D01*
X51716039Y-61904041D01*
X51710752Y-61883260D01*
X51710639Y-61869070D01*
X51700728Y-61835405D01*
X51662426Y-61822031D01*
X51626828Y-61820629D01*
X51526815Y-61830887D01*
X51454957Y-61859041D01*
X51419895Y-61901162D01*
X51417843Y-61915685D01*
X51437275Y-61957165D01*
X51491042Y-61979227D01*
X51564241Y-61995304D01*
X51564241Y-62357421D01*
X51478076Y-62357421D01*
X51407946Y-62370147D01*
X51374271Y-62403761D01*
X51151290Y-62403761D01*
X51169286Y-62365184D01*
X51154265Y-62327603D01*
X51135848Y-62316908D01*
X51091067Y-62313111D01*
X51016196Y-62319218D01*
X50940277Y-62331546D01*
X50804269Y-62346325D01*
X50694009Y-62333202D01*
X50615848Y-62293501D01*
X50587210Y-62257868D01*
X50579176Y-62238495D01*
X50584413Y-62225361D01*
X50610169Y-62217256D01*
X50663696Y-62212971D01*
X50752240Y-62211297D01*
X50867993Y-62211023D01*
X51173847Y-62211023D01*
X51173847Y-62122405D01*
X51160358Y-62040772D01*
X51127409Y-61959024D01*
X51122692Y-61951016D01*
X51041121Y-61861024D01*
X50936266Y-61805732D01*
X50818496Y-61784504D01*
X50698181Y-61796702D01*
X50585691Y-61841688D01*
X50491396Y-61918825D01*
X50441100Y-61992914D01*
X50400009Y-62106615D01*
X50206863Y-62106615D01*
X50223531Y-62043948D01*
X50241141Y-61994360D01*
X50258660Y-61962829D01*
X50278369Y-61941889D01*
X50280255Y-61940328D01*
X50319606Y-61893345D01*
X50313014Y-61856457D01*
X50262656Y-61831651D01*
X50170710Y-61820915D01*
X50149063Y-61820629D01*
X50048565Y-61828439D01*
X49990868Y-61850826D01*
X49977539Y-61886224D01*
X50010145Y-61933070D01*
X50024252Y-61945256D01*
X50056789Y-61976749D01*
X50066544Y-62010803D01*
X50056609Y-62066001D01*
X50048997Y-62093953D01*
X50019617Y-62198823D01*
X49982085Y-62081727D01*
X49957334Y-62012406D01*
X49933791Y-61978960D01*
X49900011Y-61970131D01*
X49870457Y-61971928D01*
X49821669Y-61983566D01*
X49788869Y-62015185D01*
X49759231Y-62079887D01*
X49755820Y-62089025D01*
X49715281Y-62198823D01*
X49685739Y-62089569D01*
X49669580Y-62021276D01*
X49670787Y-61982742D01*
X49691892Y-61957236D01*
X49707433Y-61946295D01*
X49748464Y-61900792D01*
X49755852Y-61851426D01*
X49728056Y-61814703D01*
X49720074Y-61811040D01*
X49658364Y-61798665D01*
X49580105Y-61796760D01*
X49505190Y-61804274D01*
X49453514Y-61820155D01*
X49446354Y-61825509D01*
X49418956Y-61880166D01*
X49191029Y-61880166D01*
X49185050Y-61873608D01*
X49070649Y-61809316D01*
X48951710Y-61785898D01*
X48835684Y-61798789D01*
X48730022Y-61843427D01*
X48642173Y-61915248D01*
X48579590Y-62009688D01*
X48549721Y-62122184D01*
X48406346Y-62122184D01*
X48404985Y-62078796D01*
X48359840Y-61969094D01*
X48275712Y-61873414D01*
X48243414Y-61848956D01*
X48186116Y-61815423D01*
X48130385Y-61801898D01*
X48054700Y-61804249D01*
X48026297Y-61807270D01*
X47927518Y-61816320D01*
X47809342Y-61823973D01*
X47721301Y-61827743D01*
X47631061Y-61831888D01*
X47578661Y-61839940D01*
X47553141Y-61855405D01*
X47543545Y-61881789D01*
X47543097Y-61884755D01*
X47551330Y-61928715D01*
X47597996Y-61952319D01*
X47660302Y-61967957D01*
X47660302Y-62319589D01*
X47660043Y-62456944D01*
X47658494Y-62553087D01*
X47654504Y-62615605D01*
X47646918Y-62652086D01*
X47634583Y-62670115D01*
X47616344Y-62677281D01*
X47605652Y-62679019D01*
X47560244Y-62703124D01*
X47540906Y-62746296D01*
X46615236Y-62746296D01*
X46574226Y-62642519D01*
X46418360Y-62366024D01*
X46229130Y-62117663D01*
X46009755Y-61900226D01*
X45763457Y-61716504D01*
X45493458Y-61569286D01*
X45202977Y-61461361D01*
X44895236Y-61395521D01*
X44585951Y-61374497D01*
X44261151Y-61398684D01*
X43949181Y-61468648D01*
X43653974Y-61582259D01*
X43379465Y-61737383D01*
X43129586Y-61931891D01*
X42908272Y-62163651D01*
X42761994Y-62362783D01*
X42599680Y-62653848D01*
X42481469Y-62958564D01*
X42406827Y-63272289D01*
X42375219Y-63590383D01*
X41687664Y-63590383D01*
X41686877Y-63308159D01*
X41685845Y-62936743D01*
G37*
G36*
X44288772Y-62948084D02*
G01*
X44447521Y-62955212D01*
X44534163Y-63266133D01*
X44566942Y-63377834D01*
X44596364Y-63467151D01*
X44619663Y-63526479D01*
X44634079Y-63548207D01*
X44636047Y-63546729D01*
X44648369Y-63512476D01*
X44670691Y-63441551D01*
X44699853Y-63344273D01*
X44732697Y-63230962D01*
X44733055Y-63229707D01*
X44814821Y-62943012D01*
X45119231Y-62943012D01*
X45132325Y-63071110D01*
X45138096Y-63143094D01*
X45144738Y-63250611D01*
X45151517Y-63380420D01*
X45157698Y-63519279D01*
X45159032Y-63553002D01*
X45165442Y-63709433D01*
X45172950Y-63876824D01*
X45180639Y-64035543D01*
X45187594Y-64165959D01*
X45187859Y-64170575D01*
X45203074Y-64434353D01*
X45083610Y-64426771D01*
X44964145Y-64419189D01*
X44949208Y-63918996D01*
X44944398Y-63762891D01*
X44939695Y-63619297D01*
X44935407Y-63496901D01*
X44931840Y-63404388D01*
X44929299Y-63350444D01*
X44928982Y-63345605D01*
X44924469Y-63296469D01*
X44917595Y-63293316D01*
X44902543Y-63333406D01*
X44887186Y-63380094D01*
X44861117Y-63461803D01*
X44828014Y-63566924D01*
X44792407Y-63681100D01*
X44703422Y-63967796D01*
X44614187Y-63967683D01*
X44524952Y-63967571D01*
X44320996Y-63272407D01*
X44319276Y-63482024D01*
X44317509Y-63585449D01*
X44313877Y-63721559D01*
X44308872Y-63874296D01*
X44302984Y-64027601D01*
X44301546Y-64061515D01*
X44285536Y-64431388D01*
X44065930Y-64431388D01*
X44082449Y-64010495D01*
X44089348Y-63839410D01*
X44097111Y-63654500D01*
X44104946Y-63474200D01*
X44112060Y-63316951D01*
X44114495Y-63265279D01*
X44130022Y-62940957D01*
X44288772Y-62948084D01*
G37*
G36*
X53668226Y-61961712D02*
G01*
X53740128Y-62011787D01*
X53788693Y-62082081D01*
X53808990Y-62161826D01*
X53796087Y-62240250D01*
X53745052Y-62306586D01*
X53744716Y-62306851D01*
X53660377Y-62348269D01*
X53564667Y-62358405D01*
X53475511Y-62337588D01*
X53422865Y-62300949D01*
X53376688Y-62221157D01*
X53370036Y-62133859D01*
X53397709Y-62051071D01*
X53454506Y-61984808D01*
X53535228Y-61947088D01*
X53577921Y-61942628D01*
X53668226Y-61961712D01*
G37*
G36*
X45696133Y-63582310D02*
G01*
X46102379Y-62943012D01*
X46260590Y-62943012D01*
X46347938Y-62945361D01*
X46393312Y-62953369D01*
X46403357Y-62968478D01*
X46401139Y-62973511D01*
X46381894Y-63003377D01*
X46340301Y-63065911D01*
X46281494Y-63153457D01*
X46210609Y-63258357D01*
X46165736Y-63324500D01*
X45947997Y-63644989D01*
X46185056Y-64007689D01*
X46262547Y-64126959D01*
X46330822Y-64233385D01*
X46385305Y-64319728D01*
X46421422Y-64378748D01*
X46434283Y-64402073D01*
X46429823Y-64418897D01*
X46394954Y-64427158D01*
X46322214Y-64428026D01*
X46278689Y-64426473D01*
X46110927Y-64419189D01*
X45903530Y-64073026D01*
X45696133Y-63726864D01*
X45683933Y-64073026D01*
X45671734Y-64419189D01*
X45548798Y-64426384D01*
X45474858Y-64427341D01*
X45422291Y-64421814D01*
X45408501Y-64416218D01*
X45404128Y-64388321D01*
X45400160Y-64317798D01*
X45396739Y-64210821D01*
X45394010Y-64073562D01*
X45392116Y-63912193D01*
X45391201Y-63732887D01*
X45391138Y-63670934D01*
X45391138Y-62943012D01*
X45682517Y-62943012D01*
X45696133Y-63582310D01*
G37*
G36*
X49060468Y-61979369D02*
G01*
X49101757Y-62013949D01*
X49160975Y-62097419D01*
X49171903Y-62179443D01*
X49134572Y-62257573D01*
X49098008Y-62294253D01*
X49001221Y-62347197D01*
X48897320Y-62355157D01*
X48797284Y-62317933D01*
X48772518Y-62300235D01*
X48712903Y-62227616D01*
X48699621Y-62146680D01*
X48732525Y-62063971D01*
X48779003Y-62012008D01*
X48873298Y-61953573D01*
X48968788Y-61942704D01*
X49060468Y-61979369D01*
G37*
G36*
X55623919Y-61959737D02*
G01*
X55640328Y-61967750D01*
X55691771Y-62015613D01*
X55735654Y-62089508D01*
X55759555Y-62166909D01*
X55760975Y-62186521D01*
X55738608Y-62258396D01*
X55678786Y-62315790D01*
X55592430Y-62350651D01*
X55529178Y-62357421D01*
X55443401Y-62349336D01*
X55382609Y-62320000D01*
X55357272Y-62297531D01*
X55309263Y-62222188D01*
X55301499Y-62142423D01*
X55327054Y-62066307D01*
X55379001Y-62001909D01*
X55450412Y-61957301D01*
X55534360Y-61940554D01*
X55623919Y-61959737D01*
G37*
G36*
X65553013Y-64279984D02*
G01*
X65624156Y-64345520D01*
X65663002Y-64434975D01*
X65667219Y-64478976D01*
X65664257Y-64501272D01*
X65649610Y-64515730D01*
X65614631Y-64524038D01*
X65550675Y-64527884D01*
X65449098Y-64528954D01*
X65411023Y-64528987D01*
X65296388Y-64528263D01*
X65221997Y-64525085D01*
X65179307Y-64517947D01*
X65159772Y-64505341D01*
X65154846Y-64485761D01*
X65154827Y-64483796D01*
X65175482Y-64409289D01*
X65228249Y-64334313D01*
X65299331Y-64274945D01*
X65354905Y-64250686D01*
X65459840Y-64245870D01*
X65553013Y-64279984D01*
G37*
G36*
X52768052Y-61964366D02*
G01*
X52825560Y-62002856D01*
X52894020Y-62063083D01*
X52680523Y-62063855D01*
X52584748Y-62061766D01*
X52511393Y-62055510D01*
X52471320Y-62046217D01*
X52467027Y-62041610D01*
X52488729Y-62004342D01*
X52543432Y-61970473D01*
X52615535Y-61947754D01*
X52666292Y-61942628D01*
X52768052Y-61964366D01*
G37*
G36*
X50889282Y-61964366D02*
G01*
X50946790Y-62002856D01*
X51015250Y-62063083D01*
X50801753Y-62063855D01*
X50705978Y-62061766D01*
X50632622Y-62055510D01*
X50592549Y-62046217D01*
X50588256Y-62041610D01*
X50609958Y-62004342D01*
X50664662Y-61970473D01*
X50736765Y-61947754D01*
X50787522Y-61942628D01*
X50889282Y-61964366D01*
G37*
G36*
X43878362Y-63053080D02*
G01*
X43876414Y-63090711D01*
X43868436Y-63129253D01*
X43851231Y-63174568D01*
X43821600Y-63232519D01*
X43776344Y-63308968D01*
X43712265Y-63409776D01*
X43626164Y-63540806D01*
X43548861Y-63656971D01*
X43219360Y-64150793D01*
X43548861Y-64157581D01*
X43878362Y-64164370D01*
X43878362Y-64431388D01*
X42877978Y-64431388D01*
X42877978Y-64322128D01*
X42880192Y-64284006D01*
X42888892Y-64243773D01*
X42907161Y-64195506D01*
X42938081Y-64133276D01*
X42984736Y-64051160D01*
X43050210Y-63943231D01*
X43137586Y-63803562D01*
X43195173Y-63712524D01*
X43283261Y-63573077D01*
X43361949Y-63447558D01*
X43427666Y-63341742D01*
X43476841Y-63261405D01*
X43505902Y-63212320D01*
X43512368Y-63199594D01*
X43489509Y-63194826D01*
X43427092Y-63190887D01*
X43334355Y-63188158D01*
X43220538Y-63187020D01*
X43207372Y-63187008D01*
X42902377Y-63187008D01*
X42902377Y-62943012D01*
X43878362Y-62943012D01*
X43878362Y-63053080D01*
G37*
%TO.C,C1*%
X117034420Y-42685000D02*
X117315580Y-42685000D01*
X117034420Y-41665000D02*
X117315580Y-41665000D01*
%TO.C,D13*%
X46025000Y-31125000D02*
X46025000Y-29275000D01*
X47225000Y-29275000D02*
X46025000Y-29275000D01*
X47225000Y-31125000D02*
X47225000Y-29275000D01*
%TO.C,D7*%
X11125000Y3725000D02*
X9925000Y3725000D01*
X11125000Y1875000D02*
X11125000Y3725000D01*
X9925000Y1875000D02*
X9925000Y3725000D01*
%TO.C,C11*%
X120635000Y-3334420D02*
X120635000Y-3615580D01*
X119615000Y-3334420D02*
X119615000Y-3615580D01*
%TO.C,D26*%
X87325000Y-13275000D02*
X86125000Y-13275000D01*
X87325000Y-15125000D02*
X87325000Y-13275000D01*
X86125000Y-15125000D02*
X86125000Y-13275000D01*
%TO.C,D14*%
X47225000Y-48325000D02*
X46025000Y-48325000D01*
X46025000Y-50175000D02*
X46025000Y-48325000D01*
X47225000Y-50175000D02*
X47225000Y-48325000D01*
%TO.C,D25*%
X86125000Y3875000D02*
X86125000Y5725000D01*
X87325000Y3875000D02*
X87325000Y5725000D01*
X87325000Y5725000D02*
X86125000Y5725000D01*
%TO.C,R5*%
X117362258Y-37352500D02*
X116887742Y-37352500D01*
X117362258Y-38397500D02*
X116887742Y-38397500D01*
%TO.C,Q3*%
X111593750Y-12585000D02*
X113268750Y-12585000D01*
X111593750Y-9465000D02*
X112243750Y-9465000D01*
X111593750Y-9465000D02*
X110943750Y-9465000D01*
X111593750Y-12585000D02*
X110943750Y-12585000D01*
%TO.C,SW29*%
X127575000Y-31900000D02*
X127575000Y-30975000D01*
X123875000Y-35675000D02*
X123875000Y-30975000D01*
X125450000Y-35775000D02*
X126000000Y-35775000D01*
X127575000Y-35675000D02*
X127575000Y-34750000D01*
X125450000Y-30875000D02*
X126000000Y-30875000D01*
%TO.C,R8*%
X109662742Y-38752500D02*
X110137258Y-38752500D01*
X109662742Y-39797500D02*
X110137258Y-39797500D01*
%TO.C,J2*%
X127225000Y-59725000D02*
X129125000Y-59725000D01*
X123325000Y-59725000D02*
X125325000Y-59725000D01*
X129125000Y-59725000D02*
X129125000Y-50325000D01*
X123325000Y-50325000D02*
X125325000Y-50325000D01*
X127225000Y-50325000D02*
X129125000Y-50325000D01*
%TO.C,C9*%
X109659420Y-58535000D02*
X109940580Y-58535000D01*
X109659420Y-57515000D02*
X109940580Y-57515000D01*
%TO.C,Q2*%
X111593750Y-12965000D02*
X110943750Y-12965000D01*
X111593750Y-16085000D02*
X110943750Y-16085000D01*
X111593750Y-12965000D02*
X112243750Y-12965000D01*
X111593750Y-16085000D02*
X113268750Y-16085000D01*
%TO.C,D29*%
X106375000Y-70375000D02*
X105175000Y-70375000D01*
X105175000Y-72225000D02*
X105175000Y-70375000D01*
X106375000Y-72225000D02*
X106375000Y-70375000D01*
%TO.C,D10*%
X11125000Y-55175000D02*
X11125000Y-53325000D01*
X9925000Y-55175000D02*
X9925000Y-53325000D01*
X11125000Y-53325000D02*
X9925000Y-53325000D01*
%TO.C,R9*%
X118297500Y-50987742D02*
X118297500Y-51462258D01*
X117252500Y-50987742D02*
X117252500Y-51462258D01*
%TO.C,G\u002A\u002A\u002A*%
G36*
X33464797Y9771620D02*
G01*
X33474488Y9832487D01*
X33489223Y9890958D01*
X33508908Y9946060D01*
X33533448Y9996822D01*
X33549833Y10023837D01*
X33563882Y10042914D01*
X33581981Y10064237D01*
X33602277Y10085866D01*
X33622915Y10105863D01*
X33642040Y10122288D01*
X33648951Y10127495D01*
X33692501Y10154111D01*
X33739963Y10174934D01*
X33790199Y10189749D01*
X33842068Y10198341D01*
X33894430Y10200495D01*
X33946148Y10195995D01*
X33978136Y10189586D01*
X34018752Y10176286D01*
X34059424Y10156960D01*
X34098345Y10132751D01*
X34133706Y10104803D01*
X34163698Y10074258D01*
X34167109Y10070156D01*
X34180895Y10052144D01*
X34195050Y10031821D01*
X34208202Y10011306D01*
X34218982Y9992718D01*
X34225021Y9980563D01*
X34226472Y9978115D01*
X34227619Y9978600D01*
X34228497Y9982689D01*
X34229142Y9991051D01*
X34229591Y10004356D01*
X34229878Y10023274D01*
X34230041Y10048474D01*
X34230107Y10075578D01*
X34230254Y10181882D01*
X34358195Y10181882D01*
X34358195Y9678043D01*
X34358187Y9602626D01*
X34358155Y9534329D01*
X34358090Y9472749D01*
X34357982Y9417481D01*
X34357820Y9368120D01*
X34357595Y9324262D01*
X34357296Y9285502D01*
X34356914Y9251435D01*
X34356438Y9221657D01*
X34355858Y9195763D01*
X34355165Y9173348D01*
X34354348Y9154008D01*
X34353397Y9137338D01*
X34352303Y9122933D01*
X34351054Y9110389D01*
X34349641Y9099301D01*
X34348055Y9089264D01*
X34346284Y9079874D01*
X34344320Y9070727D01*
X34342973Y9064884D01*
X34327296Y9013291D01*
X34305681Y8966235D01*
X34278314Y8923884D01*
X34245385Y8886404D01*
X34207082Y8853963D01*
X34163592Y8826728D01*
X34115105Y8804868D01*
X34061808Y8788548D01*
X34023291Y8780762D01*
X33991570Y8776689D01*
X33956012Y8773980D01*
X33919604Y8772751D01*
X33885333Y8773122D01*
X33863366Y8774470D01*
X33802880Y8782854D01*
X33747142Y8796608D01*
X33696319Y8815617D01*
X33650583Y8839767D01*
X33610101Y8868947D01*
X33575044Y8903041D01*
X33545581Y8941936D01*
X33521881Y8985518D01*
X33511789Y9010274D01*
X33504185Y9033888D01*
X33497601Y9059567D01*
X33492552Y9084848D01*
X33489554Y9107268D01*
X33488951Y9119260D01*
X33488951Y9135778D01*
X33615145Y9135778D01*
X33623189Y9093860D01*
X33634945Y9049564D01*
X33652214Y9010386D01*
X33674970Y8976345D01*
X33703190Y8947462D01*
X33736846Y8923761D01*
X33775915Y8905260D01*
X33820370Y8891982D01*
X33870186Y8883947D01*
X33874877Y8883487D01*
X33926818Y8881530D01*
X33977170Y8885297D01*
X34024727Y8894610D01*
X34068284Y8909290D01*
X34077854Y8913520D01*
X34114236Y8934360D01*
X34145452Y8960656D01*
X34171426Y8992319D01*
X34192079Y9029261D01*
X34203188Y9057783D01*
X34208241Y9073998D01*
X34212361Y9089665D01*
X34215638Y9105780D01*
X34218161Y9123337D01*
X34220021Y9143331D01*
X34221308Y9166757D01*
X34222112Y9194610D01*
X34222524Y9227885D01*
X34222632Y9267576D01*
X34222630Y9272458D01*
X34222531Y9393541D01*
X34207937Y9366047D01*
X34180104Y9321182D01*
X34147388Y9281850D01*
X34110225Y9248258D01*
X34069051Y9220615D01*
X34024303Y9199130D01*
X33976415Y9184010D01*
X33925823Y9175463D01*
X33872964Y9173698D01*
X33818274Y9178923D01*
X33816643Y9179184D01*
X33763431Y9191449D01*
X33713669Y9210307D01*
X33667595Y9235547D01*
X33625448Y9266956D01*
X33587467Y9304322D01*
X33553890Y9347431D01*
X33524955Y9396072D01*
X33500901Y9450033D01*
X33495329Y9465332D01*
X33478375Y9523612D01*
X33466939Y9584352D01*
X33460928Y9646581D01*
X33460358Y9698978D01*
X33597490Y9698978D01*
X33597705Y9665077D01*
X33598985Y9632537D01*
X33601329Y9603561D01*
X33603184Y9589215D01*
X33614684Y9532983D01*
X33630988Y9482319D01*
X33652027Y9437305D01*
X33677731Y9398025D01*
X33708029Y9364561D01*
X33742851Y9336995D01*
X33782129Y9315410D01*
X33825791Y9299889D01*
X33853322Y9293656D01*
X33871295Y9291711D01*
X33894292Y9291165D01*
X33919967Y9291892D01*
X33945975Y9293761D01*
X33969972Y9296643D01*
X33989611Y9300410D01*
X33993085Y9301337D01*
X34036025Y9317376D01*
X34075189Y9339708D01*
X34110334Y9367978D01*
X34141212Y9401832D01*
X34167580Y9440916D01*
X34189192Y9484875D01*
X34205803Y9533355D01*
X34217167Y9586002D01*
X34222446Y9632711D01*
X34224095Y9694239D01*
X34220417Y9752722D01*
X34211584Y9807756D01*
X34197770Y9858940D01*
X34179150Y9905870D01*
X34155897Y9948145D01*
X34128186Y9985362D01*
X34096189Y10017119D01*
X34060082Y10043013D01*
X34040536Y10053638D01*
X34017129Y10064424D01*
X33996272Y10072174D01*
X33975825Y10077338D01*
X33953643Y10080370D01*
X33927586Y10081722D01*
X33906640Y10081912D01*
X33876539Y10081318D01*
X33851765Y10079368D01*
X33830176Y10075615D01*
X33809626Y10069610D01*
X33787972Y10060903D01*
X33773054Y10053953D01*
X33735787Y10031812D01*
X33702531Y10003445D01*
X33673435Y9969085D01*
X33648647Y9928964D01*
X33628314Y9883315D01*
X33612585Y9832370D01*
X33603227Y9786815D01*
X33600251Y9762050D01*
X33598339Y9732036D01*
X33597490Y9698978D01*
X33460358Y9698978D01*
X33460245Y9709328D01*
X33464797Y9771620D01*
G37*
G36*
X46442951Y10548771D02*
G01*
X46443902Y9921297D01*
X46444854Y9293822D01*
X47088299Y9293822D01*
X47088299Y9165882D01*
X46298077Y9165882D01*
X46298077Y10550815D01*
X46442951Y10548771D01*
G37*
G36*
X45278302Y10199215D02*
G01*
X45303174Y10197095D01*
X45361033Y10186798D01*
X45413827Y10171108D01*
X45461444Y10150129D01*
X45503771Y10123965D01*
X45540695Y10092719D01*
X45572103Y10056496D01*
X45597882Y10015400D01*
X45617920Y9969534D01*
X45632104Y9919003D01*
X45637374Y9889222D01*
X45639676Y9873141D01*
X45574924Y9874170D01*
X45510172Y9875200D01*
X45505608Y9899660D01*
X45494484Y9941079D01*
X45477452Y9977842D01*
X45454539Y10009921D01*
X45425771Y10037288D01*
X45391175Y10059915D01*
X45350777Y10077774D01*
X45329114Y10084708D01*
X45307471Y10089200D01*
X45280574Y10092228D01*
X45250555Y10093767D01*
X45219546Y10093797D01*
X45189678Y10092294D01*
X45163084Y10089237D01*
X45149293Y10086579D01*
X45120654Y10077824D01*
X45092130Y10065446D01*
X45066033Y10050630D01*
X45044677Y10034557D01*
X45041116Y10031236D01*
X45020156Y10006101D01*
X45005908Y9977886D01*
X44998168Y9946114D01*
X44996677Y9928846D01*
X44998019Y9893869D01*
X45005250Y9863435D01*
X45018630Y9837091D01*
X45038421Y9814381D01*
X45064884Y9794851D01*
X45077925Y9787553D01*
X45092678Y9780330D01*
X45107976Y9773822D01*
X45124751Y9767775D01*
X45143936Y9761933D01*
X45166462Y9756043D01*
X45193262Y9749849D01*
X45225268Y9743097D01*
X45263412Y9735533D01*
X45280195Y9732299D01*
X45322357Y9724101D01*
X45358030Y9716853D01*
X45388154Y9710314D01*
X45413673Y9704246D01*
X45435527Y9698407D01*
X45454658Y9692558D01*
X45472008Y9686459D01*
X45488519Y9679870D01*
X45492440Y9678198D01*
X45534501Y9656817D01*
X45570294Y9631701D01*
X45599685Y9602982D01*
X45622540Y9570794D01*
X45638727Y9535268D01*
X45640096Y9531161D01*
X45645628Y9507633D01*
X45649100Y9479342D01*
X45650416Y9448786D01*
X45649481Y9418466D01*
X45646199Y9390883D01*
X45645565Y9387472D01*
X45633648Y9345307D01*
X45615210Y9306641D01*
X45590488Y9271661D01*
X45559719Y9240555D01*
X45523140Y9213510D01*
X45480988Y9190712D01*
X45433500Y9172351D01*
X45380914Y9158611D01*
X45348616Y9152900D01*
X45325856Y9150403D01*
X45297838Y9148683D01*
X45266792Y9147757D01*
X45234946Y9147644D01*
X45204530Y9148362D01*
X45177774Y9149929D01*
X45163602Y9151386D01*
X45106770Y9161822D01*
X45054407Y9177892D01*
X45006746Y9199401D01*
X44964020Y9226157D01*
X44926463Y9257969D01*
X44894307Y9294644D01*
X44867786Y9335989D01*
X44847134Y9381813D01*
X44834760Y9422518D01*
X44831014Y9439108D01*
X44827971Y9454895D01*
X44826182Y9466959D01*
X44826013Y9468800D01*
X44824897Y9483852D01*
X44952817Y9485872D01*
X44959559Y9450995D01*
X44969019Y9414523D01*
X44982798Y9382868D01*
X45001920Y9354081D01*
X45022661Y9330891D01*
X45039148Y9315199D01*
X45054070Y9303378D01*
X45070403Y9293296D01*
X45086736Y9284924D01*
X45132240Y9266928D01*
X45181483Y9255137D01*
X45233803Y9249650D01*
X45288539Y9250567D01*
X45305117Y9252082D01*
X45353232Y9259694D01*
X45395112Y9271461D01*
X45430820Y9287419D01*
X45460421Y9307603D01*
X45483975Y9332046D01*
X45501483Y9360650D01*
X45506722Y9372176D01*
X45510166Y9381743D01*
X45512187Y9391486D01*
X45513158Y9403542D01*
X45513451Y9420044D01*
X45513462Y9429289D01*
X45513285Y9448739D01*
X45512568Y9462774D01*
X45510972Y9473502D01*
X45508158Y9483032D01*
X45503788Y9493473D01*
X45502809Y9495616D01*
X45487922Y9520195D01*
X45467211Y9541563D01*
X45440292Y9560005D01*
X45406782Y9575804D01*
X45383707Y9584020D01*
X45370989Y9587654D01*
X45352131Y9592426D01*
X45328383Y9598050D01*
X45300995Y9604240D01*
X45271216Y9610710D01*
X45240297Y9617173D01*
X45228044Y9619661D01*
X45185715Y9628345D01*
X45149849Y9636108D01*
X45119482Y9643231D01*
X45093646Y9649993D01*
X45071377Y9656672D01*
X45051708Y9663549D01*
X45033673Y9670901D01*
X45016307Y9679009D01*
X45007740Y9683347D01*
X44968535Y9707236D01*
X44935038Y9735204D01*
X44907590Y9766840D01*
X44886533Y9801736D01*
X44872208Y9839485D01*
X44870053Y9847880D01*
X44866606Y9869254D01*
X44864847Y9895080D01*
X44864766Y9922544D01*
X44866356Y9948831D01*
X44869610Y9971126D01*
X44870415Y9974678D01*
X44884135Y10015417D01*
X44904441Y10052932D01*
X44930995Y10086939D01*
X44963453Y10117152D01*
X45001475Y10143287D01*
X45044721Y10165058D01*
X45092848Y10182180D01*
X45129677Y10191334D01*
X45154019Y10195196D01*
X45183438Y10197994D01*
X45215548Y10199650D01*
X45247964Y10200083D01*
X45278302Y10199215D01*
G37*
G36*
X37241061Y12763161D02*
G01*
X37302596Y12751068D01*
X37359535Y12733149D01*
X37412034Y12709343D01*
X37460251Y12679589D01*
X37504341Y12643826D01*
X37509342Y12639147D01*
X37548309Y12596974D01*
X37582094Y12549477D01*
X37610592Y12496891D01*
X37633700Y12439447D01*
X37651312Y12377378D01*
X37663323Y12310917D01*
X37665608Y12292112D01*
X37666259Y12282142D01*
X37666854Y12264711D01*
X37667393Y12239883D01*
X37667873Y12207724D01*
X37668296Y12168296D01*
X37668661Y12121666D01*
X37668967Y12067898D01*
X37669213Y12007055D01*
X37669400Y11939204D01*
X37669526Y11864407D01*
X37669592Y11782730D01*
X37669603Y11732371D01*
X37669603Y11209171D01*
X37376329Y11209171D01*
X37375111Y11704941D01*
X37374935Y11776068D01*
X37374770Y11840075D01*
X37374608Y11897369D01*
X37374443Y11948354D01*
X37374267Y11993438D01*
X37374073Y12033025D01*
X37373854Y12067523D01*
X37373602Y12097337D01*
X37373311Y12122874D01*
X37372973Y12144538D01*
X37372581Y12162737D01*
X37372128Y12177876D01*
X37371607Y12190361D01*
X37371010Y12200598D01*
X37370330Y12208994D01*
X37369561Y12215954D01*
X37368694Y12221884D01*
X37367723Y12227190D01*
X37366640Y12232279D01*
X37365691Y12236460D01*
X37351177Y12289582D01*
X37333450Y12336152D01*
X37312328Y12376506D01*
X37287630Y12410979D01*
X37259175Y12439907D01*
X37253530Y12444641D01*
X37232935Y12459166D01*
X37207558Y12473681D01*
X37180029Y12486883D01*
X37152979Y12497469D01*
X37137143Y12502268D01*
X37116177Y12506155D01*
X37090109Y12508634D01*
X37061038Y12509725D01*
X37031063Y12509443D01*
X37002282Y12507809D01*
X36976794Y12504839D01*
X36957317Y12500732D01*
X36908728Y12482957D01*
X36864086Y12458936D01*
X36823637Y12428978D01*
X36787628Y12393389D01*
X36756304Y12352477D01*
X36729913Y12306551D01*
X36708700Y12255919D01*
X36692913Y12200887D01*
X36685417Y12161200D01*
X36684582Y12154648D01*
X36683833Y12146308D01*
X36683167Y12135782D01*
X36682578Y12122670D01*
X36682063Y12106572D01*
X36681616Y12087089D01*
X36681234Y12063820D01*
X36680912Y12036366D01*
X36680646Y12004327D01*
X36680430Y11967305D01*
X36680262Y11924897D01*
X36680136Y11876707D01*
X36680048Y11822332D01*
X36679994Y11761375D01*
X36679968Y11693434D01*
X36679965Y11667311D01*
X36679943Y11209171D01*
X36386432Y11209171D01*
X36386432Y12740697D01*
X36657264Y12740697D01*
X36658256Y12615741D01*
X36659247Y12490786D01*
X36685588Y12528059D01*
X36726128Y12579183D01*
X36771392Y12624817D01*
X36820868Y12664708D01*
X36874045Y12698605D01*
X36930412Y12726255D01*
X36989457Y12747406D01*
X37050670Y12761806D01*
X37113539Y12769202D01*
X37174773Y12769490D01*
X37241061Y12763161D01*
G37*
G36*
X30976764Y9768017D02*
G01*
X30979917Y9792140D01*
X30984519Y9815408D01*
X30990803Y9839483D01*
X30999001Y9866028D01*
X31001553Y9873775D01*
X31015876Y9912970D01*
X31031580Y9947639D01*
X31050139Y9980780D01*
X31066848Y10006476D01*
X31102262Y10051842D01*
X31142394Y10091585D01*
X31186739Y10125495D01*
X31234786Y10153364D01*
X31286030Y10174985D01*
X31339962Y10190147D01*
X31396074Y10198642D01*
X31453859Y10200263D01*
X31512809Y10194799D01*
X31521665Y10193365D01*
X31577716Y10180180D01*
X31630061Y10160558D01*
X31678466Y10134736D01*
X31722695Y10102955D01*
X31762515Y10065453D01*
X31797691Y10022471D01*
X31827989Y9974246D01*
X31853175Y9921019D01*
X31873013Y9863028D01*
X31882447Y9825149D01*
X31885824Y9806970D01*
X31888406Y9786782D01*
X31890331Y9763049D01*
X31891735Y9734236D01*
X31892373Y9714334D01*
X31894415Y9640015D01*
X31106231Y9640015D01*
X31108796Y9612734D01*
X31117126Y9553861D01*
X31130540Y9499353D01*
X31148859Y9449519D01*
X31171904Y9404667D01*
X31199498Y9365108D01*
X31231464Y9331149D01*
X31267622Y9303101D01*
X31296714Y9286460D01*
X31338768Y9269462D01*
X31383192Y9258511D01*
X31428959Y9253479D01*
X31475041Y9254238D01*
X31520410Y9260660D01*
X31564040Y9272618D01*
X31604903Y9289982D01*
X31641973Y9312625D01*
X31666101Y9332465D01*
X31696602Y9364690D01*
X31721000Y9399137D01*
X31740225Y9437339D01*
X31754425Y9478102D01*
X31763154Y9508311D01*
X31896550Y9508311D01*
X31891500Y9486674D01*
X31887567Y9471910D01*
X31882109Y9454000D01*
X31876309Y9436820D01*
X31876307Y9436815D01*
X31853220Y9382886D01*
X31824615Y9334040D01*
X31790625Y9290397D01*
X31751388Y9252072D01*
X31707037Y9219184D01*
X31657710Y9191851D01*
X31603542Y9170190D01*
X31552906Y9156123D01*
X31535950Y9153341D01*
X31513342Y9151147D01*
X31486937Y9149578D01*
X31458587Y9148671D01*
X31430149Y9148462D01*
X31403474Y9148988D01*
X31380419Y9150285D01*
X31362877Y9152382D01*
X31303633Y9166270D01*
X31248867Y9186180D01*
X31198646Y9212065D01*
X31153035Y9243874D01*
X31112101Y9281560D01*
X31075909Y9325074D01*
X31044525Y9374368D01*
X31034113Y9394128D01*
X31013507Y9440439D01*
X30996938Y9489355D01*
X30983917Y9541796D01*
X30980574Y9558260D01*
X30978059Y9572692D01*
X30976251Y9586644D01*
X30975032Y9601663D01*
X30974281Y9619301D01*
X30973878Y9641107D01*
X30973703Y9668630D01*
X30973687Y9673882D01*
X30973881Y9710550D01*
X30974807Y9740674D01*
X31107010Y9740674D01*
X31107320Y9739515D01*
X31108565Y9738500D01*
X31111214Y9737619D01*
X31115733Y9736864D01*
X31122588Y9736224D01*
X31132247Y9735691D01*
X31145177Y9735254D01*
X31161845Y9734904D01*
X31182717Y9734632D01*
X31208261Y9734427D01*
X31238943Y9734281D01*
X31275231Y9734184D01*
X31317592Y9734126D01*
X31366491Y9734097D01*
X31422397Y9734089D01*
X31751346Y9734089D01*
X31748721Y9763252D01*
X31740986Y9818280D01*
X31728175Y9869438D01*
X31710534Y9916297D01*
X31688311Y9958426D01*
X31661751Y9995392D01*
X31631103Y10026767D01*
X31596613Y10052117D01*
X31577084Y10062854D01*
X31553013Y10074097D01*
X31532055Y10082268D01*
X31512102Y10087821D01*
X31491047Y10091214D01*
X31466781Y10092903D01*
X31437198Y10093344D01*
X31436254Y10093343D01*
X31412041Y10093110D01*
X31393418Y10092373D01*
X31378458Y10090941D01*
X31365233Y10088624D01*
X31351815Y10085230D01*
X31350491Y10084854D01*
X31305782Y10068281D01*
X31265021Y10045433D01*
X31228400Y10016554D01*
X31196114Y9981892D01*
X31168353Y9941692D01*
X31145312Y9896201D01*
X31127183Y9845665D01*
X31114159Y9790329D01*
X31112575Y9781126D01*
X31110096Y9765312D01*
X31108185Y9751811D01*
X31107129Y9742719D01*
X31107010Y9740674D01*
X30974807Y9740674D01*
X30974829Y9741374D01*
X30976764Y9768017D01*
G37*
G36*
X35145322Y10199276D02*
G01*
X35196367Y10192579D01*
X35243746Y10179679D01*
X35287172Y10160757D01*
X35326355Y10135988D01*
X35361009Y10105551D01*
X35390846Y10069625D01*
X35415579Y10028387D01*
X35432822Y9988040D01*
X35436875Y9976738D01*
X35440470Y9966508D01*
X35443637Y9956851D01*
X35446405Y9947267D01*
X35448803Y9937255D01*
X35450861Y9926314D01*
X35452608Y9913946D01*
X35454072Y9899650D01*
X35455283Y9882925D01*
X35456271Y9863271D01*
X35457064Y9840189D01*
X35457692Y9813178D01*
X35458183Y9781737D01*
X35458568Y9745368D01*
X35458875Y9703569D01*
X35459133Y9655840D01*
X35459371Y9601682D01*
X35459620Y9540594D01*
X35459671Y9528067D01*
X35461156Y9165882D01*
X35321773Y9165882D01*
X35320637Y9514897D01*
X35320442Y9573989D01*
X35320260Y9626046D01*
X35320077Y9671557D01*
X35319881Y9711013D01*
X35319660Y9744903D01*
X35319401Y9773719D01*
X35319092Y9797950D01*
X35318720Y9818086D01*
X35318274Y9834618D01*
X35317740Y9848036D01*
X35317107Y9858830D01*
X35316362Y9867489D01*
X35315493Y9874506D01*
X35314486Y9880368D01*
X35313331Y9885567D01*
X35312014Y9890594D01*
X35311062Y9894015D01*
X35301489Y9922701D01*
X35289128Y9951580D01*
X35275140Y9978247D01*
X35260689Y10000295D01*
X35258050Y10003684D01*
X35239393Y10022809D01*
X35215682Y10040979D01*
X35189357Y10056536D01*
X35164732Y10067179D01*
X35127855Y10076642D01*
X35087825Y10081020D01*
X35046983Y10080313D01*
X35007673Y10074519D01*
X34981881Y10067283D01*
X34943044Y10049871D01*
X34907062Y10025943D01*
X34874575Y9996175D01*
X34846225Y9961244D01*
X34822653Y9921828D01*
X34805300Y9880929D01*
X34801996Y9871430D01*
X34799092Y9862810D01*
X34796560Y9854538D01*
X34794372Y9846083D01*
X34792500Y9836915D01*
X34790916Y9826502D01*
X34789592Y9814313D01*
X34788499Y9799818D01*
X34787609Y9782485D01*
X34786895Y9761784D01*
X34786327Y9737183D01*
X34785878Y9708152D01*
X34785519Y9674159D01*
X34785223Y9634674D01*
X34784961Y9589166D01*
X34784705Y9537103D01*
X34784477Y9488556D01*
X34782954Y9165882D01*
X34647943Y9165882D01*
X34647943Y10181882D01*
X34775884Y10181882D01*
X34775884Y9996531D01*
X34794432Y10024944D01*
X34826198Y10067009D01*
X34863434Y10104715D01*
X34905099Y10137143D01*
X34950148Y10163372D01*
X34952932Y10164727D01*
X34992023Y10181118D01*
X35030732Y10192043D01*
X35071914Y10198224D01*
X35090899Y10199593D01*
X35145322Y10199276D01*
G37*
G36*
X44600980Y9165882D02*
G01*
X44465514Y9165882D01*
X44465514Y10181882D01*
X44600980Y10181882D01*
X44600980Y9165882D01*
G37*
G36*
X38478640Y10550652D02*
G01*
X38478693Y10261845D01*
X38478745Y9973037D01*
X38494045Y10001260D01*
X38523115Y10047478D01*
X38557045Y10088085D01*
X38595520Y10122861D01*
X38638227Y10151584D01*
X38684851Y10174033D01*
X38735080Y10189986D01*
X38771904Y10197125D01*
X38796411Y10199394D01*
X38825535Y10200041D01*
X38856569Y10199165D01*
X38886804Y10196864D01*
X38913531Y10193237D01*
X38921636Y10191656D01*
X38975891Y10176302D01*
X39026255Y10154627D01*
X39072542Y10126862D01*
X39114565Y10093239D01*
X39152134Y10053988D01*
X39185065Y10009342D01*
X39213168Y9959530D01*
X39236257Y9904784D01*
X39254144Y9845335D01*
X39266642Y9781414D01*
X39269125Y9762953D01*
X39271508Y9734379D01*
X39272530Y9700797D01*
X39272273Y9664268D01*
X39270818Y9626854D01*
X39268249Y9590616D01*
X39264645Y9557617D01*
X39260090Y9529918D01*
X39259813Y9528585D01*
X39243476Y9466040D01*
X39221989Y9408483D01*
X39195525Y9356097D01*
X39164259Y9309067D01*
X39128366Y9267578D01*
X39088018Y9231815D01*
X39043392Y9201962D01*
X38994660Y9178203D01*
X38941999Y9160725D01*
X38904945Y9152679D01*
X38881932Y9149783D01*
X38854615Y9148090D01*
X38825387Y9147596D01*
X38796643Y9148297D01*
X38770780Y9150191D01*
X38751927Y9152914D01*
X38710148Y9163663D01*
X38668921Y9178849D01*
X38630744Y9197450D01*
X38606698Y9212281D01*
X38580438Y9232884D01*
X38553336Y9258755D01*
X38527032Y9288055D01*
X38503166Y9318946D01*
X38483378Y9349590D01*
X38481923Y9352148D01*
X38469232Y9374726D01*
X38467232Y9165882D01*
X38343173Y9165882D01*
X38343173Y9677645D01*
X38477718Y9677645D01*
X38479556Y9622266D01*
X38485253Y9572172D01*
X38495070Y9526037D01*
X38509266Y9482538D01*
X38521789Y9453287D01*
X38538325Y9421009D01*
X38555604Y9393787D01*
X38575323Y9369214D01*
X38595810Y9348088D01*
X38632492Y9317874D01*
X38672787Y9294146D01*
X38716188Y9277155D01*
X38757247Y9267867D01*
X38779585Y9265861D01*
X38806394Y9265628D01*
X38834859Y9267041D01*
X38862170Y9269970D01*
X38882612Y9273608D01*
X38924914Y9286258D01*
X38963189Y9304560D01*
X38998500Y9329130D01*
X39030630Y9359219D01*
X39045193Y9375822D01*
X39059680Y9394326D01*
X39071952Y9411922D01*
X39076742Y9419769D01*
X39090267Y9446916D01*
X39103181Y9479038D01*
X39114615Y9513588D01*
X39123699Y9548017D01*
X39128148Y9570400D01*
X39130979Y9593001D01*
X39133003Y9620763D01*
X39134199Y9651613D01*
X39134548Y9683477D01*
X39134029Y9714280D01*
X39132622Y9741947D01*
X39130307Y9764404D01*
X39130057Y9766074D01*
X39118500Y9823021D01*
X39102252Y9874245D01*
X39081197Y9919998D01*
X39055218Y9960535D01*
X39024197Y9996110D01*
X39023556Y9996741D01*
X39007902Y10011688D01*
X38994790Y10022845D01*
X38981727Y10032017D01*
X38966222Y10041010D01*
X38952611Y10048151D01*
X38912691Y10064735D01*
X38869501Y10075697D01*
X38824472Y10081024D01*
X38779034Y10080700D01*
X38734617Y10074709D01*
X38692652Y10063037D01*
X38664906Y10051181D01*
X38625703Y10027382D01*
X38590261Y9997378D01*
X38559041Y9961731D01*
X38532504Y9921000D01*
X38511112Y9875745D01*
X38503743Y9855437D01*
X38493256Y9820329D01*
X38485736Y9786253D01*
X38480859Y9751009D01*
X38478305Y9712400D01*
X38477718Y9677645D01*
X38343173Y9677645D01*
X38343173Y10550652D01*
X38478640Y10550652D01*
G37*
G36*
X42103659Y13162148D02*
G01*
X42331914Y13162148D01*
X42331914Y11894030D01*
X42595321Y11894030D01*
X42595321Y11638148D01*
X42331914Y11638148D01*
X42331914Y11209171D01*
X42038403Y11209171D01*
X42038403Y11638148D01*
X41097662Y11638148D01*
X41097662Y11843955D01*
X41135877Y11894030D01*
X41427937Y11894030D01*
X42038403Y11894030D01*
X42038403Y12306702D01*
X42038390Y12361709D01*
X42038355Y12414539D01*
X42038298Y12464711D01*
X42038221Y12511748D01*
X42038125Y12555171D01*
X42038012Y12594501D01*
X42037884Y12629260D01*
X42037743Y12658969D01*
X42037589Y12683149D01*
X42037424Y12701321D01*
X42037251Y12713008D01*
X42037070Y12717730D01*
X42037038Y12717805D01*
X42034420Y12714353D01*
X42027645Y12705279D01*
X42017030Y12691012D01*
X42002894Y12671983D01*
X41985555Y12648620D01*
X41965330Y12621352D01*
X41942538Y12590610D01*
X41917495Y12556822D01*
X41890520Y12520418D01*
X41861931Y12481828D01*
X41832046Y12441479D01*
X41801182Y12399803D01*
X41769657Y12357228D01*
X41737789Y12314184D01*
X41705897Y12271099D01*
X41674297Y12228404D01*
X41643308Y12186528D01*
X41613247Y12145899D01*
X41584433Y12106949D01*
X41557183Y12070104D01*
X41531815Y12035796D01*
X41508646Y12004454D01*
X41487996Y11976506D01*
X41470181Y11952382D01*
X41455520Y11932512D01*
X41444330Y11917325D01*
X41436929Y11907251D01*
X41433635Y11902717D01*
X41433518Y11902547D01*
X41427937Y11894030D01*
X41135877Y11894030D01*
X41600660Y12503052D01*
X42103659Y13162148D01*
G37*
G36*
X47191371Y9768017D02*
G01*
X47194524Y9792140D01*
X47199126Y9815408D01*
X47205411Y9839483D01*
X47213608Y9866028D01*
X47216160Y9873775D01*
X47230484Y9912970D01*
X47246188Y9947639D01*
X47264747Y9980780D01*
X47281455Y10006476D01*
X47316869Y10051842D01*
X47357002Y10091585D01*
X47401346Y10125495D01*
X47449394Y10153364D01*
X47500638Y10174985D01*
X47554569Y10190147D01*
X47610682Y10198642D01*
X47668467Y10200263D01*
X47727417Y10194799D01*
X47736273Y10193365D01*
X47792324Y10180180D01*
X47844669Y10160558D01*
X47893073Y10134736D01*
X47937302Y10102955D01*
X47977122Y10065453D01*
X48012299Y10022471D01*
X48042597Y9974246D01*
X48067782Y9921019D01*
X48087621Y9863028D01*
X48097055Y9825149D01*
X48100432Y9806970D01*
X48103014Y9786782D01*
X48104938Y9763049D01*
X48106343Y9734236D01*
X48106980Y9714334D01*
X48109022Y9640015D01*
X47320839Y9640015D01*
X47323403Y9612734D01*
X47331734Y9553861D01*
X47345147Y9499353D01*
X47363466Y9449519D01*
X47386511Y9404667D01*
X47414106Y9365108D01*
X47446071Y9331149D01*
X47482229Y9303101D01*
X47511321Y9286460D01*
X47553376Y9269462D01*
X47597800Y9258511D01*
X47643566Y9253479D01*
X47689648Y9254238D01*
X47735018Y9260660D01*
X47778648Y9272618D01*
X47819511Y9289982D01*
X47856580Y9312625D01*
X47880708Y9332465D01*
X47911210Y9364690D01*
X47935608Y9399137D01*
X47954832Y9437339D01*
X47969033Y9478102D01*
X47977762Y9508311D01*
X48111157Y9508311D01*
X48106107Y9486674D01*
X48102174Y9471910D01*
X48096717Y9454000D01*
X48090916Y9436820D01*
X48090914Y9436815D01*
X48067828Y9382886D01*
X48039222Y9334040D01*
X48005233Y9290397D01*
X47965995Y9252072D01*
X47921645Y9219184D01*
X47872318Y9191851D01*
X47818150Y9170190D01*
X47767514Y9156123D01*
X47750557Y9153341D01*
X47727949Y9151147D01*
X47701544Y9149578D01*
X47673195Y9148671D01*
X47644756Y9148462D01*
X47618082Y9148988D01*
X47595026Y9150285D01*
X47577484Y9152382D01*
X47518240Y9166270D01*
X47463475Y9186180D01*
X47413253Y9212065D01*
X47367642Y9243874D01*
X47326708Y9281560D01*
X47290516Y9325074D01*
X47259133Y9374368D01*
X47248720Y9394128D01*
X47228115Y9440439D01*
X47211546Y9489355D01*
X47198525Y9541796D01*
X47195181Y9558260D01*
X47192666Y9572692D01*
X47190859Y9586644D01*
X47189640Y9601663D01*
X47188888Y9619301D01*
X47188485Y9641107D01*
X47188310Y9668630D01*
X47188295Y9673882D01*
X47188489Y9710550D01*
X47189415Y9740674D01*
X47321618Y9740674D01*
X47321927Y9739515D01*
X47323173Y9738500D01*
X47325821Y9737619D01*
X47330340Y9736864D01*
X47337195Y9736224D01*
X47346855Y9735691D01*
X47359785Y9735254D01*
X47376452Y9734904D01*
X47397325Y9734632D01*
X47422869Y9734427D01*
X47453551Y9734281D01*
X47489839Y9734184D01*
X47532199Y9734126D01*
X47581098Y9734097D01*
X47637004Y9734089D01*
X47965953Y9734089D01*
X47963328Y9763252D01*
X47955594Y9818280D01*
X47942782Y9869438D01*
X47925141Y9916297D01*
X47902918Y9958426D01*
X47876359Y9995392D01*
X47845711Y10026767D01*
X47811221Y10052117D01*
X47791691Y10062854D01*
X47767621Y10074097D01*
X47746663Y10082268D01*
X47726710Y10087821D01*
X47705654Y10091214D01*
X47681389Y10092903D01*
X47651805Y10093344D01*
X47650862Y10093343D01*
X47626648Y10093110D01*
X47608025Y10092373D01*
X47593066Y10090941D01*
X47579841Y10088624D01*
X47566422Y10085230D01*
X47565098Y10084854D01*
X47520389Y10068281D01*
X47479628Y10045433D01*
X47443008Y10016554D01*
X47410721Y9981892D01*
X47382961Y9941692D01*
X47359920Y9896201D01*
X47341791Y9845665D01*
X47328766Y9790329D01*
X47327182Y9781126D01*
X47324703Y9765312D01*
X47322792Y9751811D01*
X47321737Y9742719D01*
X47321618Y9740674D01*
X47189415Y9740674D01*
X47189437Y9741374D01*
X47191371Y9768017D01*
G37*
G36*
X32189788Y13195119D02*
G01*
X32335603Y13194134D01*
X32336573Y12967415D01*
X32337543Y12740697D01*
X32796566Y12740697D01*
X32796566Y12492341D01*
X32337295Y12492341D01*
X32338358Y12073711D01*
X32339421Y11655082D01*
X32347857Y11624978D01*
X32361619Y11584935D01*
X32378902Y11551160D01*
X32400171Y11523041D01*
X32425893Y11499967D01*
X32456533Y11481329D01*
X32457899Y11480651D01*
X32484762Y11469180D01*
X32512464Y11461154D01*
X32542854Y11456207D01*
X32577784Y11453977D01*
X32594915Y11453763D01*
X32646477Y11456242D01*
X32694523Y11463548D01*
X32737829Y11475490D01*
X32742003Y11476987D01*
X32756651Y11482331D01*
X32769157Y11486831D01*
X32777392Y11489721D01*
X32778741Y11490170D01*
X32780517Y11490380D01*
X32781934Y11489267D01*
X32783025Y11486108D01*
X32783823Y11480177D01*
X32784360Y11470751D01*
X32784667Y11457104D01*
X32784778Y11438513D01*
X32784724Y11414253D01*
X32784537Y11383600D01*
X32784386Y11363258D01*
X32783395Y11234220D01*
X32757054Y11223398D01*
X32723251Y11211040D01*
X32685491Y11199819D01*
X32647342Y11190758D01*
X32634649Y11188302D01*
X32619331Y11186215D01*
X32598559Y11184327D01*
X32574226Y11182716D01*
X32548229Y11181461D01*
X32522461Y11180640D01*
X32498818Y11180332D01*
X32479195Y11180615D01*
X32467306Y11181358D01*
X32402612Y11190846D01*
X32343555Y11205274D01*
X32290027Y11224720D01*
X32241918Y11249265D01*
X32199121Y11278988D01*
X32161526Y11313968D01*
X32129024Y11354286D01*
X32101507Y11400020D01*
X32078865Y11451251D01*
X32072205Y11470094D01*
X32068437Y11481311D01*
X32065050Y11491427D01*
X32062023Y11500880D01*
X32059333Y11510107D01*
X32056961Y11519547D01*
X32054885Y11529637D01*
X32053084Y11540815D01*
X32051537Y11553520D01*
X32050221Y11568190D01*
X32049118Y11585262D01*
X32048204Y11605174D01*
X32047459Y11628364D01*
X32046862Y11655271D01*
X32046391Y11686333D01*
X32046025Y11721987D01*
X32045744Y11762671D01*
X32045526Y11808823D01*
X32045349Y11860882D01*
X32045193Y11919285D01*
X32045036Y11984470D01*
X32044915Y12034200D01*
X32043771Y12492341D01*
X31705306Y12492341D01*
X31705306Y12740697D01*
X32043973Y12740697D01*
X32043973Y13196103D01*
X32189788Y13195119D01*
G37*
G36*
X36719613Y9711278D02*
G01*
X36721281Y9746310D01*
X36723942Y9777878D01*
X36727586Y9804162D01*
X36728046Y9806648D01*
X36741961Y9866774D01*
X36759824Y9921023D01*
X36782003Y9970137D01*
X36808865Y10014860D01*
X36840781Y10055935D01*
X36863859Y10080484D01*
X36900432Y10113538D01*
X36937498Y10140179D01*
X36976701Y10161430D01*
X37019685Y10178315D01*
X37022658Y10179288D01*
X37047443Y10186728D01*
X37070230Y10192083D01*
X37093116Y10195636D01*
X37118195Y10197667D01*
X37147564Y10198459D01*
X37165366Y10198473D01*
X37190944Y10198157D01*
X37210763Y10197419D01*
X37226589Y10196096D01*
X37240183Y10194026D01*
X37253309Y10191047D01*
X37257214Y10190008D01*
X37308698Y10172317D01*
X37355879Y10148498D01*
X37398833Y10118492D01*
X37437637Y10082240D01*
X37472366Y10039682D01*
X37496754Y10001935D01*
X37511425Y9976800D01*
X37511492Y10263726D01*
X37511558Y10550652D01*
X37647025Y10550652D01*
X37647025Y9165882D01*
X37522847Y9165882D01*
X37522784Y9270304D01*
X37522720Y9374726D01*
X37514784Y9361556D01*
X37486685Y9318059D01*
X37458511Y9281139D01*
X37429330Y9249893D01*
X37398212Y9223421D01*
X37364226Y9200821D01*
X37330377Y9183029D01*
X37303377Y9171081D01*
X37278856Y9162241D01*
X37254694Y9156045D01*
X37228777Y9152027D01*
X37198985Y9149724D01*
X37174773Y9148884D01*
X37152158Y9148628D01*
X37130260Y9148837D01*
X37111051Y9149462D01*
X37096501Y9150452D01*
X37091988Y9151005D01*
X37037404Y9163044D01*
X36986297Y9181631D01*
X36938881Y9206534D01*
X36895373Y9237518D01*
X36855986Y9274350D01*
X36820938Y9316796D01*
X36790441Y9364622D01*
X36764713Y9417594D01*
X36743969Y9475478D01*
X36728422Y9538042D01*
X36726551Y9547822D01*
X36723092Y9572888D01*
X36720679Y9603586D01*
X36719302Y9638096D01*
X36719147Y9654156D01*
X36856002Y9654156D01*
X36857791Y9613433D01*
X36861841Y9577266D01*
X36862043Y9576000D01*
X36874128Y9519036D01*
X36891093Y9467426D01*
X36912839Y9421299D01*
X36939268Y9380780D01*
X36970283Y9345999D01*
X37005786Y9317081D01*
X37045681Y9294155D01*
X37089868Y9277348D01*
X37091392Y9276900D01*
X37126918Y9269347D01*
X37166145Y9265761D01*
X37206357Y9266179D01*
X37244840Y9270633D01*
X37263959Y9274732D01*
X37308518Y9289904D01*
X37349392Y9311528D01*
X37386354Y9339372D01*
X37419181Y9373205D01*
X37447648Y9412795D01*
X37471530Y9457913D01*
X37490411Y9507714D01*
X37502344Y9555211D01*
X37510008Y9607049D01*
X37513393Y9661366D01*
X37512488Y9716298D01*
X37507283Y9769983D01*
X37497769Y9820557D01*
X37492218Y9841334D01*
X37474486Y9889749D01*
X37451338Y9933695D01*
X37423154Y9972772D01*
X37390317Y10006576D01*
X37353209Y10034706D01*
X37312211Y10056760D01*
X37274427Y10070477D01*
X37240804Y10077544D01*
X37202974Y10080972D01*
X37163319Y10080761D01*
X37124219Y10076909D01*
X37092464Y10070583D01*
X37050996Y10056161D01*
X37012509Y10035114D01*
X36977383Y10007878D01*
X36946000Y9974892D01*
X36918741Y9936592D01*
X36895988Y9893416D01*
X36878120Y9845800D01*
X36869893Y9815235D01*
X36863418Y9779976D01*
X36858893Y9739797D01*
X36856395Y9697067D01*
X36856002Y9654156D01*
X36719147Y9654156D01*
X36718950Y9674600D01*
X36719613Y9711278D01*
G37*
G36*
X33367613Y12891492D02*
G01*
X33368571Y12498539D01*
X33388309Y12527141D01*
X33429346Y12580689D01*
X33474016Y12627741D01*
X33522192Y12668224D01*
X33573745Y12702063D01*
X33628547Y12729186D01*
X33686472Y12749518D01*
X33747391Y12762987D01*
X33809789Y12769453D01*
X33874114Y12769388D01*
X33936320Y12762928D01*
X33995886Y12750255D01*
X34052291Y12731551D01*
X34105013Y12706997D01*
X34153531Y12676776D01*
X34197323Y12641068D01*
X34208222Y12630557D01*
X34244999Y12588529D01*
X34277093Y12540697D01*
X34304434Y12487203D01*
X34326951Y12428191D01*
X34344574Y12363804D01*
X34347899Y12348388D01*
X34348981Y12343005D01*
X34349961Y12337650D01*
X34350845Y12331938D01*
X34351639Y12325483D01*
X34352348Y12317901D01*
X34352980Y12308808D01*
X34353540Y12297817D01*
X34354034Y12284544D01*
X34354467Y12268604D01*
X34354847Y12249612D01*
X34355179Y12227184D01*
X34355469Y12200933D01*
X34355723Y12170476D01*
X34355947Y12135428D01*
X34356148Y12095402D01*
X34356330Y12050015D01*
X34356501Y11998882D01*
X34356666Y11941617D01*
X34356831Y11877835D01*
X34357003Y11807152D01*
X34357116Y11759504D01*
X34358411Y11209171D01*
X34064684Y11209171D01*
X34064684Y11689406D01*
X34064683Y11762155D01*
X34064668Y11827799D01*
X34064626Y11886762D01*
X34064541Y11939465D01*
X34064398Y11986331D01*
X34064181Y12027782D01*
X34063877Y12064239D01*
X34063470Y12096126D01*
X34062945Y12123864D01*
X34062287Y12147875D01*
X34061481Y12168581D01*
X34060512Y12186405D01*
X34059365Y12201768D01*
X34058024Y12215094D01*
X34056476Y12226803D01*
X34054705Y12237318D01*
X34052695Y12247062D01*
X34050433Y12256456D01*
X34047902Y12265922D01*
X34045088Y12275883D01*
X34043650Y12280904D01*
X34026270Y12330015D01*
X34003976Y12373450D01*
X33976909Y12411107D01*
X33945212Y12442884D01*
X33909027Y12468680D01*
X33868495Y12488392D01*
X33823759Y12501919D01*
X33774960Y12509158D01*
X33724136Y12510087D01*
X33673580Y12505197D01*
X33627415Y12494492D01*
X33584877Y12477644D01*
X33545202Y12454321D01*
X33507626Y12424196D01*
X33493139Y12410294D01*
X33462430Y12375763D01*
X33436419Y12338299D01*
X33414600Y12296916D01*
X33396468Y12250626D01*
X33381517Y12198444D01*
X33378939Y12187541D01*
X33377735Y12182200D01*
X33376653Y12176965D01*
X33375688Y12171419D01*
X33374829Y12165143D01*
X33374070Y12157720D01*
X33373404Y12148732D01*
X33372821Y12137761D01*
X33372315Y12124388D01*
X33371877Y12108197D01*
X33371500Y12088768D01*
X33371176Y12065684D01*
X33370898Y12038526D01*
X33370657Y12006878D01*
X33370446Y11970321D01*
X33370257Y11928437D01*
X33370082Y11880808D01*
X33369914Y11827016D01*
X33369744Y11766643D01*
X33369566Y11699271D01*
X33369517Y11680482D01*
X33368287Y11209171D01*
X33075011Y11209171D01*
X33075959Y12246808D01*
X33076906Y13284445D01*
X33366654Y13284445D01*
X33367613Y12891492D01*
G37*
G36*
X34650042Y12145801D02*
G01*
X34656250Y12175972D01*
X34664233Y12209144D01*
X34664959Y12212000D01*
X34687359Y12285599D01*
X34715702Y12354853D01*
X34749655Y12419551D01*
X34788883Y12479479D01*
X34833052Y12534425D01*
X34881827Y12584178D01*
X34934873Y12628523D01*
X34991857Y12667248D01*
X35052443Y12700141D01*
X35116298Y12726989D01*
X35183086Y12747580D01*
X35252474Y12761701D01*
X35324127Y12769139D01*
X35397709Y12769682D01*
X35472888Y12763117D01*
X35519911Y12755431D01*
X35582866Y12740094D01*
X35644700Y12718390D01*
X35695929Y12695336D01*
X35756703Y12661233D01*
X35812930Y12621288D01*
X35864411Y12575800D01*
X35910947Y12525067D01*
X35952342Y12469391D01*
X35988395Y12409070D01*
X36018910Y12344403D01*
X36043687Y12275690D01*
X36062529Y12203231D01*
X36075237Y12127324D01*
X36075941Y12121466D01*
X36078303Y12095717D01*
X36080051Y12065320D01*
X36081151Y12032439D01*
X36081566Y11999240D01*
X36081260Y11967889D01*
X36080198Y11940552D01*
X36079180Y11926956D01*
X36076781Y11901556D01*
X34935393Y11901556D01*
X34938497Y11870511D01*
X34948002Y11803074D01*
X34962497Y11740122D01*
X34981835Y11681912D01*
X35005869Y11628699D01*
X35034451Y11580738D01*
X35067433Y11538285D01*
X35104669Y11501594D01*
X35146011Y11470922D01*
X35180403Y11451638D01*
X35230863Y11431084D01*
X35284331Y11417253D01*
X35340248Y11410239D01*
X35398057Y11410138D01*
X35416237Y11411522D01*
X35475511Y11420308D01*
X35530193Y11435024D01*
X35580217Y11455615D01*
X35625513Y11482030D01*
X35666015Y11514215D01*
X35701653Y11552115D01*
X35732361Y11595679D01*
X35758070Y11644852D01*
X35777116Y11694593D01*
X35787514Y11726578D01*
X36075142Y11728550D01*
X36072910Y11712266D01*
X36068337Y11690055D01*
X36060320Y11662952D01*
X36049479Y11632396D01*
X36036435Y11599828D01*
X36021810Y11566687D01*
X36006224Y11534414D01*
X35990299Y11504449D01*
X35974655Y11478233D01*
X35967156Y11467014D01*
X35923628Y11411192D01*
X35875292Y11361112D01*
X35822337Y11316885D01*
X35764951Y11278626D01*
X35703325Y11246446D01*
X35637646Y11220460D01*
X35568103Y11200779D01*
X35501882Y11188483D01*
X35475534Y11185493D01*
X35444411Y11183180D01*
X35410621Y11181597D01*
X35376277Y11180798D01*
X35343489Y11180837D01*
X35314366Y11181768D01*
X35295173Y11183187D01*
X35219514Y11194380D01*
X35147463Y11212098D01*
X35079232Y11236171D01*
X35015035Y11266432D01*
X34955084Y11302711D01*
X34899593Y11344839D01*
X34848774Y11392646D01*
X34802842Y11445965D01*
X34762008Y11504625D01*
X34726485Y11568459D01*
X34696488Y11637296D01*
X34686024Y11666371D01*
X34670855Y11714808D01*
X34658949Y11761705D01*
X34650047Y11808765D01*
X34643891Y11857691D01*
X34640225Y11910188D01*
X34638788Y11967959D01*
X34638747Y11978697D01*
X34639030Y12020119D01*
X34640103Y12055791D01*
X34642166Y12087461D01*
X34643244Y12097230D01*
X34937350Y12097230D01*
X35766515Y12097230D01*
X35763928Y12128274D01*
X35758495Y12171969D01*
X35749638Y12216888D01*
X35737914Y12261023D01*
X35723877Y12302366D01*
X35708085Y12338910D01*
X35702705Y12349348D01*
X35673557Y12396137D01*
X35640029Y12436819D01*
X35602251Y12471313D01*
X35560353Y12499540D01*
X35514463Y12521418D01*
X35464712Y12536866D01*
X35411229Y12545804D01*
X35384579Y12547745D01*
X35326450Y12547034D01*
X35271781Y12539655D01*
X35220663Y12525667D01*
X35173187Y12505132D01*
X35129446Y12478112D01*
X35089531Y12444668D01*
X35053534Y12404860D01*
X35021545Y12358751D01*
X34993658Y12306400D01*
X34981582Y12278646D01*
X34970637Y12248768D01*
X34960834Y12215510D01*
X34951876Y12177688D01*
X34943469Y12134123D01*
X34939322Y12109460D01*
X34937350Y12097230D01*
X34643244Y12097230D01*
X34645413Y12116881D01*
X34650042Y12145801D01*
G37*
G36*
X35672942Y9768017D02*
G01*
X35676094Y9792140D01*
X35680697Y9815408D01*
X35686981Y9839483D01*
X35695179Y9866028D01*
X35697731Y9873775D01*
X35712054Y9912970D01*
X35727758Y9947639D01*
X35746317Y9980780D01*
X35763025Y10006476D01*
X35798439Y10051842D01*
X35838572Y10091585D01*
X35882916Y10125495D01*
X35930964Y10153364D01*
X35982208Y10174985D01*
X36036140Y10190147D01*
X36092252Y10198642D01*
X36150037Y10200263D01*
X36208987Y10194799D01*
X36217843Y10193365D01*
X36273894Y10180180D01*
X36326239Y10160558D01*
X36374643Y10134736D01*
X36418873Y10102955D01*
X36458693Y10065453D01*
X36493869Y10022471D01*
X36524167Y9974246D01*
X36549353Y9921019D01*
X36569191Y9863028D01*
X36578625Y9825149D01*
X36582002Y9806970D01*
X36584584Y9786782D01*
X36586509Y9763049D01*
X36587913Y9734236D01*
X36588551Y9714334D01*
X36590593Y9640015D01*
X35802409Y9640015D01*
X35804974Y9612734D01*
X35813304Y9553861D01*
X35826718Y9499353D01*
X35845036Y9449519D01*
X35868082Y9404667D01*
X35895676Y9365108D01*
X35927641Y9331149D01*
X35963800Y9303101D01*
X35992892Y9286460D01*
X36034946Y9269462D01*
X36079370Y9258511D01*
X36125137Y9253479D01*
X36171218Y9254238D01*
X36216588Y9260660D01*
X36260218Y9272618D01*
X36301081Y9289982D01*
X36338150Y9312625D01*
X36362278Y9332465D01*
X36392780Y9364690D01*
X36417178Y9399137D01*
X36436402Y9437339D01*
X36450603Y9478102D01*
X36459332Y9508311D01*
X36592728Y9508311D01*
X36587678Y9486674D01*
X36583745Y9471910D01*
X36578287Y9454000D01*
X36572487Y9436820D01*
X36572485Y9436815D01*
X36549398Y9382886D01*
X36520792Y9334040D01*
X36486803Y9290397D01*
X36447565Y9252072D01*
X36403215Y9219184D01*
X36353888Y9191851D01*
X36299720Y9170190D01*
X36249084Y9156123D01*
X36232128Y9153341D01*
X36209520Y9151147D01*
X36183114Y9149578D01*
X36154765Y9148671D01*
X36126326Y9148462D01*
X36099652Y9148988D01*
X36076596Y9150285D01*
X36059054Y9152382D01*
X35999811Y9166270D01*
X35945045Y9186180D01*
X35894824Y9212065D01*
X35849213Y9243874D01*
X35808278Y9281560D01*
X35772087Y9325074D01*
X35740703Y9374368D01*
X35730290Y9394128D01*
X35709685Y9440439D01*
X35693116Y9489355D01*
X35680095Y9541796D01*
X35676752Y9558260D01*
X35674236Y9572692D01*
X35672429Y9586644D01*
X35671210Y9601663D01*
X35670459Y9619301D01*
X35670056Y9641107D01*
X35669880Y9668630D01*
X35669865Y9673882D01*
X35670059Y9710550D01*
X35670985Y9740674D01*
X35803188Y9740674D01*
X35803498Y9739515D01*
X35804743Y9738500D01*
X35807392Y9737619D01*
X35811910Y9736864D01*
X35818766Y9736224D01*
X35828425Y9735691D01*
X35841355Y9735254D01*
X35858023Y9734904D01*
X35878895Y9734632D01*
X35904439Y9734427D01*
X35935121Y9734281D01*
X35971409Y9734184D01*
X36013769Y9734126D01*
X36062669Y9734097D01*
X36118575Y9734089D01*
X36447524Y9734089D01*
X36444899Y9763252D01*
X36437164Y9818280D01*
X36424353Y9869438D01*
X36406712Y9916297D01*
X36384488Y9958426D01*
X36357929Y9995392D01*
X36327281Y10026767D01*
X36292791Y10052117D01*
X36273262Y10062854D01*
X36249191Y10074097D01*
X36228233Y10082268D01*
X36208280Y10087821D01*
X36187225Y10091214D01*
X36162959Y10092903D01*
X36133376Y10093344D01*
X36132432Y10093343D01*
X36108218Y10093110D01*
X36089596Y10092373D01*
X36074636Y10090941D01*
X36061411Y10088624D01*
X36047993Y10085230D01*
X36046669Y10084854D01*
X36001960Y10068281D01*
X35961198Y10045433D01*
X35924578Y10016554D01*
X35892291Y9981892D01*
X35864531Y9941692D01*
X35841490Y9896201D01*
X35823361Y9845665D01*
X35810337Y9790329D01*
X35808753Y9781126D01*
X35806274Y9765312D01*
X35804362Y9751811D01*
X35803307Y9742719D01*
X35803188Y9740674D01*
X35670985Y9740674D01*
X35671007Y9741374D01*
X35672942Y9768017D01*
G37*
G36*
X30145518Y12086626D02*
G01*
X30177317Y12169657D01*
X30205780Y12243985D01*
X30238201Y12328646D01*
X30269940Y12411510D01*
X30300891Y12492300D01*
X30330947Y12570739D01*
X30360003Y12646550D01*
X30387950Y12719455D01*
X30414685Y12789178D01*
X30440098Y12855440D01*
X30464085Y12917964D01*
X30486539Y12976474D01*
X30507354Y13030692D01*
X30526422Y13080340D01*
X30543638Y13125142D01*
X30558895Y13164819D01*
X30572086Y13199096D01*
X30583106Y13227693D01*
X30591848Y13250335D01*
X30598205Y13266744D01*
X30602071Y13276642D01*
X30603325Y13279741D01*
X30604550Y13281290D01*
X30606885Y13282576D01*
X30610978Y13283623D01*
X30617478Y13284457D01*
X30627035Y13285100D01*
X30640296Y13285578D01*
X30657913Y13285914D01*
X30680533Y13286132D01*
X30708805Y13286258D01*
X30743379Y13286314D01*
X30779811Y13286326D01*
X30952835Y13286326D01*
X30958426Y13274097D01*
X30960155Y13269732D01*
X30964413Y13258704D01*
X30971073Y13241351D01*
X30980008Y13218006D01*
X30991089Y13189008D01*
X31004188Y13154690D01*
X31019179Y13115389D01*
X31035933Y13071442D01*
X31054323Y13023184D01*
X31074220Y12970950D01*
X31095498Y12915078D01*
X31118028Y12855902D01*
X31141684Y12793759D01*
X31166336Y12728985D01*
X31191857Y12661915D01*
X31218120Y12592886D01*
X31244997Y12522233D01*
X31272360Y12450293D01*
X31300082Y12377401D01*
X31328034Y12303892D01*
X31356089Y12230104D01*
X31384120Y12156372D01*
X31411998Y12083032D01*
X31439596Y12010420D01*
X31466786Y11938871D01*
X31493441Y11868723D01*
X31519433Y11800309D01*
X31544633Y11733968D01*
X31568915Y11670033D01*
X31592150Y11608843D01*
X31614211Y11550731D01*
X31634971Y11496035D01*
X31654301Y11445089D01*
X31672073Y11398231D01*
X31688161Y11355796D01*
X31702436Y11318120D01*
X31714770Y11285538D01*
X31725036Y11258387D01*
X31733107Y11237003D01*
X31738854Y11221721D01*
X31742149Y11212878D01*
X31742936Y11210668D01*
X31739298Y11210359D01*
X31728887Y11210072D01*
X31712453Y11209812D01*
X31690749Y11209588D01*
X31664526Y11209405D01*
X31634537Y11209271D01*
X31601534Y11209191D01*
X31573998Y11209171D01*
X31405060Y11209171D01*
X31383936Y11266556D01*
X31378573Y11281156D01*
X31370958Y11301929D01*
X31361419Y11327981D01*
X31350284Y11358416D01*
X31337880Y11392336D01*
X31324535Y11428847D01*
X31310576Y11467053D01*
X31296332Y11506057D01*
X31290008Y11523378D01*
X31217205Y11722815D01*
X30770566Y11723771D01*
X30323928Y11724727D01*
X30318714Y11712249D01*
X30316778Y11707234D01*
X30312489Y11695875D01*
X30306111Y11678882D01*
X30297910Y11656969D01*
X30288149Y11630845D01*
X30277094Y11601223D01*
X30265010Y11568814D01*
X30252161Y11534330D01*
X30238812Y11498481D01*
X30225228Y11461980D01*
X30211673Y11425539D01*
X30198413Y11389868D01*
X30185711Y11355679D01*
X30173834Y11323683D01*
X30163045Y11294593D01*
X30153610Y11269119D01*
X30145793Y11247973D01*
X30139859Y11231866D01*
X30136072Y11221511D01*
X30135354Y11219519D01*
X30131652Y11209171D01*
X29969990Y11209171D01*
X29936005Y11209234D01*
X29904524Y11209415D01*
X29876307Y11209700D01*
X29852109Y11210077D01*
X29832691Y11210531D01*
X29818809Y11211049D01*
X29811222Y11211618D01*
X29810013Y11211993D01*
X29811480Y11215695D01*
X29815532Y11226151D01*
X29822063Y11243083D01*
X29830967Y11266215D01*
X29842137Y11295273D01*
X29855470Y11329979D01*
X29870857Y11370059D01*
X29888195Y11415235D01*
X29907376Y11465232D01*
X29928295Y11519775D01*
X29950846Y11578587D01*
X29974924Y11641391D01*
X30000422Y11707914D01*
X30027235Y11777877D01*
X30055257Y11851006D01*
X30084382Y11927024D01*
X30106699Y11985282D01*
X30419353Y11985282D01*
X30420404Y11984460D01*
X30424470Y11983734D01*
X30431930Y11983098D01*
X30443164Y11982547D01*
X30458552Y11982076D01*
X30478471Y11981681D01*
X30503302Y11981354D01*
X30533424Y11981093D01*
X30569216Y11980891D01*
X30611058Y11980744D01*
X30659328Y11980646D01*
X30714406Y11980592D01*
X30769640Y11980578D01*
X31121712Y11980578D01*
X31109650Y12013692D01*
X31077287Y12102493D01*
X31046078Y12188034D01*
X31016105Y12270090D01*
X30987454Y12348436D01*
X30960205Y12422846D01*
X30934443Y12493095D01*
X30910251Y12558958D01*
X30887712Y12620209D01*
X30866909Y12676623D01*
X30847925Y12727976D01*
X30830843Y12774041D01*
X30815747Y12814593D01*
X30802720Y12849408D01*
X30791844Y12878259D01*
X30783204Y12900922D01*
X30776882Y12917171D01*
X30772961Y12926781D01*
X30771539Y12929560D01*
X30769957Y12925780D01*
X30765914Y12915357D01*
X30759564Y12898703D01*
X30751063Y12876231D01*
X30740564Y12848354D01*
X30728223Y12815485D01*
X30714194Y12778037D01*
X30698632Y12736424D01*
X30681692Y12691058D01*
X30663528Y12642352D01*
X30644294Y12590719D01*
X30624146Y12536572D01*
X30603238Y12480324D01*
X30595122Y12458474D01*
X30573963Y12401499D01*
X30553514Y12346439D01*
X30533931Y12293710D01*
X30515367Y12243727D01*
X30497977Y12196906D01*
X30481914Y12153662D01*
X30467334Y12114410D01*
X30454390Y12079565D01*
X30443237Y12049543D01*
X30434029Y12024760D01*
X30426921Y12005630D01*
X30422066Y11992569D01*
X30419619Y11985992D01*
X30419353Y11985282D01*
X30106699Y11985282D01*
X30114504Y12005656D01*
X30145518Y12086626D01*
G37*
G36*
X33244358Y9165882D02*
G01*
X33108891Y9165882D01*
X33108891Y10181882D01*
X33244358Y10181882D01*
X33244358Y9165882D01*
G37*
G36*
X48441283Y9773600D02*
G01*
X48456618Y9719888D01*
X48471397Y9668240D01*
X48485489Y9619114D01*
X48498761Y9572966D01*
X48511081Y9530251D01*
X48522316Y9491427D01*
X48532335Y9456950D01*
X48541004Y9427276D01*
X48548191Y9402860D01*
X48553764Y9384161D01*
X48557590Y9371633D01*
X48559538Y9365734D01*
X48559748Y9365319D01*
X48561163Y9368821D01*
X48564700Y9378998D01*
X48570196Y9395350D01*
X48577489Y9417382D01*
X48586417Y9444595D01*
X48596819Y9476492D01*
X48608531Y9512576D01*
X48621393Y9552349D01*
X48635241Y9595314D01*
X48649914Y9640974D01*
X48665249Y9688831D01*
X48668593Y9699282D01*
X48684676Y9749568D01*
X48700555Y9799200D01*
X48716018Y9847523D01*
X48730855Y9893882D01*
X48744857Y9937619D01*
X48757814Y9978080D01*
X48769515Y10014608D01*
X48779751Y10046548D01*
X48788312Y10073244D01*
X48794987Y10094041D01*
X48799335Y10107563D01*
X48823274Y10181882D01*
X48956846Y10181882D01*
X49086330Y9773377D01*
X49103311Y9719851D01*
X49119679Y9668349D01*
X49135288Y9619325D01*
X49149993Y9573229D01*
X49163650Y9530514D01*
X49176113Y9491633D01*
X49187236Y9457037D01*
X49196874Y9427178D01*
X49204883Y9402509D01*
X49211116Y9383483D01*
X49215429Y9370550D01*
X49217677Y9364163D01*
X49217963Y9363544D01*
X49219252Y9366912D01*
X49222456Y9377069D01*
X49227445Y9393560D01*
X49234085Y9415932D01*
X49242247Y9443731D01*
X49251797Y9476504D01*
X49262604Y9513796D01*
X49274537Y9555155D01*
X49287464Y9600126D01*
X49301253Y9648255D01*
X49315772Y9699090D01*
X49330890Y9752175D01*
X49336539Y9772049D01*
X49452964Y10181882D01*
X49587847Y10181882D01*
X49585584Y10171534D01*
X49584266Y10166739D01*
X49580943Y10155150D01*
X49575740Y10137188D01*
X49568781Y10113279D01*
X49560189Y10083844D01*
X49550089Y10049308D01*
X49538605Y10010094D01*
X49525861Y9966625D01*
X49511980Y9919325D01*
X49497087Y9868617D01*
X49481307Y9814925D01*
X49464762Y9758672D01*
X49447578Y9700281D01*
X49437034Y9664474D01*
X49290747Y9167763D01*
X49154501Y9165713D01*
X49130077Y9241998D01*
X49125310Y9256915D01*
X49118471Y9278351D01*
X49109769Y9305651D01*
X49099412Y9338161D01*
X49087609Y9375228D01*
X49074568Y9416197D01*
X49060496Y9460415D01*
X49045603Y9507226D01*
X49030096Y9555978D01*
X49014183Y9606015D01*
X48998073Y9656685D01*
X48998034Y9656807D01*
X48982566Y9705439D01*
X48967740Y9752003D01*
X48953716Y9796003D01*
X48940652Y9836941D01*
X48928707Y9874322D01*
X48918041Y9907650D01*
X48908811Y9936427D01*
X48901178Y9960158D01*
X48895300Y9978345D01*
X48891336Y9990493D01*
X48889445Y9996105D01*
X48889307Y9996439D01*
X48888055Y9993070D01*
X48884683Y9982967D01*
X48879334Y9966576D01*
X48872150Y9944342D01*
X48863274Y9916708D01*
X48852846Y9884120D01*
X48841010Y9847023D01*
X48827907Y9805862D01*
X48813679Y9761081D01*
X48798469Y9713125D01*
X48782417Y9662439D01*
X48765667Y9609469D01*
X48756900Y9581714D01*
X48625600Y9165882D01*
X48556742Y9165882D01*
X48530650Y9166019D01*
X48511328Y9166466D01*
X48498024Y9167271D01*
X48489987Y9168485D01*
X48486466Y9170158D01*
X48486225Y9170585D01*
X48484990Y9174699D01*
X48481769Y9185619D01*
X48476684Y9202927D01*
X48469857Y9226207D01*
X48461412Y9255041D01*
X48451469Y9289009D01*
X48440151Y9327695D01*
X48427580Y9370681D01*
X48413879Y9417549D01*
X48399170Y9467881D01*
X48383575Y9521259D01*
X48367216Y9577266D01*
X48350215Y9635483D01*
X48339683Y9671558D01*
X48322341Y9730955D01*
X48305560Y9788424D01*
X48289462Y9843544D01*
X48274170Y9895895D01*
X48259807Y9945056D01*
X48246497Y9990608D01*
X48234361Y10032129D01*
X48223524Y10069199D01*
X48214107Y10101398D01*
X48206233Y10128305D01*
X48200026Y10149500D01*
X48195609Y10164562D01*
X48193104Y10173071D01*
X48192570Y10174854D01*
X48192150Y10177360D01*
X48193374Y10179187D01*
X48197230Y10180443D01*
X48204704Y10181234D01*
X48216783Y10181666D01*
X48234454Y10181846D01*
X48257599Y10181882D01*
X48324859Y10181882D01*
X48441283Y9773600D01*
G37*
G36*
X40956551Y10548771D02*
G01*
X40958432Y10218169D01*
X40960314Y9887567D01*
X41285810Y10219106D01*
X41611306Y10550644D01*
X41779634Y10550652D01*
X41719060Y10487622D01*
X41707892Y10476054D01*
X41691907Y10459575D01*
X41671557Y10438649D01*
X41647297Y10413739D01*
X41619577Y10385309D01*
X41588850Y10353823D01*
X41555569Y10319743D01*
X41520187Y10283534D01*
X41483154Y10245659D01*
X41444924Y10206581D01*
X41405950Y10166763D01*
X41382063Y10142371D01*
X41105639Y9860148D01*
X41799439Y9165882D01*
X41610436Y9165882D01*
X41285375Y9487763D01*
X40960314Y9809645D01*
X40959352Y9487763D01*
X40958390Y9165882D01*
X40811677Y9165882D01*
X40811677Y10550815D01*
X40956551Y10548771D01*
G37*
G36*
X37972461Y11714040D02*
G01*
X37984051Y11768754D01*
X37987728Y11781157D01*
X38006777Y11829674D01*
X38032260Y11874348D01*
X38064113Y11915130D01*
X38102272Y11951972D01*
X38146673Y11984826D01*
X38197250Y12013644D01*
X38253939Y12038377D01*
X38316677Y12058977D01*
X38378921Y12074081D01*
X38439874Y12084670D01*
X38506443Y12092557D01*
X38577190Y12097653D01*
X38650671Y12099867D01*
X38725446Y12099109D01*
X38758185Y12097821D01*
X38806221Y12095278D01*
X38847631Y12092609D01*
X38883312Y12089743D01*
X38914164Y12086610D01*
X38935316Y12083955D01*
X38949844Y12081956D01*
X38947892Y12177082D01*
X38947074Y12210913D01*
X38946032Y12238533D01*
X38944586Y12261258D01*
X38942557Y12280403D01*
X38939766Y12297283D01*
X38936032Y12313214D01*
X38931175Y12329510D01*
X38925016Y12347487D01*
X38924342Y12349371D01*
X38905400Y12391995D01*
X38881054Y12429477D01*
X38851443Y12461662D01*
X38816707Y12488396D01*
X38784186Y12506284D01*
X38756023Y12518026D01*
X38728202Y12526475D01*
X38698520Y12532112D01*
X38664773Y12535415D01*
X38646091Y12536327D01*
X38590388Y12535581D01*
X38539178Y12529040D01*
X38492000Y12516576D01*
X38448396Y12498061D01*
X38407906Y12473367D01*
X38400608Y12468027D01*
X38369400Y12440008D01*
X38342084Y12406145D01*
X38319050Y12367254D01*
X38300689Y12324153D01*
X38287391Y12277660D01*
X38279548Y12228592D01*
X38278225Y12212000D01*
X38277321Y12196948D01*
X38144106Y12195959D01*
X38010891Y12194969D01*
X38013228Y12230552D01*
X38020804Y12292818D01*
X38035061Y12354118D01*
X38055598Y12413504D01*
X38082014Y12470027D01*
X38113907Y12522737D01*
X38150875Y12570686D01*
X38162725Y12583818D01*
X38209270Y12628106D01*
X38260439Y12666603D01*
X38315929Y12699206D01*
X38375436Y12725816D01*
X38438657Y12746329D01*
X38505290Y12760645D01*
X38575031Y12768661D01*
X38647578Y12770276D01*
X38708180Y12766823D01*
X38779324Y12757245D01*
X38845649Y12742001D01*
X38907051Y12721188D01*
X38963428Y12694904D01*
X39014677Y12663246D01*
X39060694Y12626311D01*
X39101378Y12584196D01*
X39136625Y12536999D01*
X39166331Y12484816D01*
X39190396Y12427746D01*
X39208714Y12365885D01*
X39221184Y12299331D01*
X39223628Y12279734D01*
X39224184Y12270863D01*
X39224703Y12254714D01*
X39225182Y12231534D01*
X39225620Y12201570D01*
X39226015Y12165069D01*
X39226365Y12122278D01*
X39226669Y12073445D01*
X39226925Y12018816D01*
X39227132Y11958640D01*
X39227287Y11893163D01*
X39227388Y11822633D01*
X39227435Y11747297D01*
X39227438Y11727519D01*
X39227469Y11209171D01*
X38982877Y11209171D01*
X38982877Y11439878D01*
X38968463Y11417658D01*
X38931761Y11367799D01*
X38890009Y11323442D01*
X38843466Y11284752D01*
X38792390Y11251898D01*
X38737041Y11225045D01*
X38677678Y11204360D01*
X38615605Y11190192D01*
X38587591Y11186317D01*
X38554829Y11183361D01*
X38519659Y11181408D01*
X38484424Y11180547D01*
X38451462Y11180863D01*
X38423115Y11182443D01*
X38418432Y11182895D01*
X38353198Y11192763D01*
X38292150Y11208169D01*
X38235545Y11228931D01*
X38183641Y11254866D01*
X38136696Y11285789D01*
X38094966Y11321517D01*
X38058710Y11361867D01*
X38028184Y11406656D01*
X38003645Y11455700D01*
X37991999Y11486804D01*
X37977265Y11542432D01*
X37969086Y11599660D01*
X37967666Y11650554D01*
X38247006Y11650554D01*
X38247988Y11622111D01*
X38250954Y11596216D01*
X38254015Y11581704D01*
X38268392Y11541559D01*
X38288936Y11505479D01*
X38315317Y11473736D01*
X38347201Y11446600D01*
X38384257Y11424343D01*
X38426153Y11407235D01*
X38472557Y11395548D01*
X38484284Y11393587D01*
X38500504Y11391940D01*
X38521973Y11390898D01*
X38546439Y11390458D01*
X38571650Y11390618D01*
X38595354Y11391378D01*
X38615299Y11392735D01*
X38623514Y11393687D01*
X38678972Y11404838D01*
X38729758Y11421870D01*
X38775930Y11444809D01*
X38817544Y11473681D01*
X38839188Y11492747D01*
X38872325Y11529667D01*
X38899950Y11571660D01*
X38921988Y11618595D01*
X38936657Y11663715D01*
X38939630Y11675360D01*
X38941959Y11686051D01*
X38943744Y11696982D01*
X38945087Y11709351D01*
X38946086Y11724353D01*
X38946842Y11743185D01*
X38947455Y11767044D01*
X38948025Y11797124D01*
X38948077Y11800162D01*
X38949791Y11900087D01*
X38907067Y11904520D01*
X38854828Y11909220D01*
X38801525Y11912670D01*
X38748387Y11914861D01*
X38696642Y11915784D01*
X38647519Y11915432D01*
X38602246Y11913796D01*
X38562054Y11910866D01*
X38531321Y11907130D01*
X38475154Y11896519D01*
X38425666Y11882791D01*
X38382617Y11865789D01*
X38345767Y11845355D01*
X38314874Y11821332D01*
X38289700Y11793562D01*
X38270002Y11761887D01*
X38255677Y11726578D01*
X38250878Y11705247D01*
X38247979Y11679086D01*
X38247006Y11650554D01*
X37967666Y11650554D01*
X37967479Y11657269D01*
X37972461Y11714040D01*
G37*
G36*
X32501602Y10199074D02*
G01*
X32554496Y10192417D01*
X32605458Y10180829D01*
X32653318Y10164366D01*
X32696909Y10143083D01*
X32710704Y10134659D01*
X32749380Y10105254D01*
X32783143Y10070581D01*
X32811491Y10031450D01*
X32833919Y9988674D01*
X32849926Y9943063D01*
X32858990Y9895574D01*
X32861508Y9873319D01*
X32734311Y9873319D01*
X32727922Y9904363D01*
X32715982Y9944753D01*
X32697801Y9981167D01*
X32673751Y10013223D01*
X32644206Y10040535D01*
X32609538Y10062720D01*
X32570120Y10079396D01*
X32553052Y10084451D01*
X32529948Y10089062D01*
X32502000Y10092404D01*
X32471801Y10094346D01*
X32441944Y10094762D01*
X32415025Y10093522D01*
X32401454Y10091944D01*
X32359037Y10082705D01*
X32321590Y10068953D01*
X32289420Y10051023D01*
X32262829Y10029250D01*
X32242124Y10003970D01*
X32227608Y9975518D01*
X32219586Y9944228D01*
X32218363Y9910436D01*
X32220400Y9892682D01*
X32228494Y9862247D01*
X32242363Y9835929D01*
X32262378Y9813269D01*
X32288909Y9793810D01*
X32308600Y9783242D01*
X32322595Y9776905D01*
X32337366Y9771079D01*
X32353779Y9765542D01*
X32372698Y9760072D01*
X32394990Y9754445D01*
X32421519Y9748439D01*
X32453152Y9741830D01*
X32490753Y9734397D01*
X32520543Y9728687D01*
X32553553Y9722210D01*
X32585329Y9715583D01*
X32614558Y9709102D01*
X32639926Y9703067D01*
X32660122Y9697776D01*
X32670619Y9694627D01*
X32719105Y9675997D01*
X32760901Y9654026D01*
X32796101Y9628626D01*
X32824801Y9599708D01*
X32847098Y9567185D01*
X32863087Y9530968D01*
X32868592Y9512074D01*
X32871770Y9492530D01*
X32873298Y9468064D01*
X32873237Y9441084D01*
X32871649Y9413997D01*
X32868594Y9389211D01*
X32865041Y9372305D01*
X32849859Y9329693D01*
X32828460Y9291275D01*
X32800914Y9257108D01*
X32767293Y9227252D01*
X32727668Y9201765D01*
X32682110Y9180706D01*
X32630689Y9164133D01*
X32605572Y9158137D01*
X32583795Y9154549D01*
X32556377Y9151708D01*
X32525168Y9149658D01*
X32492020Y9148441D01*
X32458783Y9148100D01*
X32427310Y9148680D01*
X32399452Y9150223D01*
X32377059Y9152773D01*
X32376995Y9152784D01*
X32319505Y9165129D01*
X32267032Y9182730D01*
X32219725Y9205479D01*
X32177733Y9233269D01*
X32141205Y9265991D01*
X32110290Y9303540D01*
X32085137Y9345808D01*
X32073604Y9371545D01*
X32067716Y9388116D01*
X32061770Y9408010D01*
X32056285Y9429098D01*
X32051781Y9449254D01*
X32048777Y9466348D01*
X32047785Y9477356D01*
X32047736Y9485911D01*
X32112647Y9484882D01*
X32177558Y9483852D01*
X32180006Y9463792D01*
X32188544Y9423777D01*
X32203785Y9386666D01*
X32225286Y9353002D01*
X32252604Y9323329D01*
X32285296Y9298190D01*
X32322919Y9278127D01*
X32335660Y9272968D01*
X32359721Y9264632D01*
X32382255Y9258611D01*
X32405310Y9254583D01*
X32430932Y9252228D01*
X32461170Y9251223D01*
X32474832Y9251128D01*
X32507107Y9251514D01*
X32533958Y9252966D01*
X32557446Y9255762D01*
X32579631Y9260180D01*
X32602575Y9266498D01*
X32612904Y9269776D01*
X32648409Y9284701D01*
X32678512Y9304231D01*
X32702894Y9327886D01*
X32721236Y9355187D01*
X32733219Y9385653D01*
X32738525Y9418804D01*
X32736834Y9454161D01*
X32736573Y9455893D01*
X32729364Y9485695D01*
X32717317Y9510959D01*
X32699733Y9532605D01*
X32675913Y9551552D01*
X32654281Y9564158D01*
X32641225Y9570609D01*
X32627725Y9576461D01*
X32612919Y9581951D01*
X32595943Y9587313D01*
X32575933Y9592782D01*
X32552026Y9598594D01*
X32523359Y9604982D01*
X32489068Y9612182D01*
X32448289Y9620429D01*
X32445079Y9621069D01*
X32395434Y9631343D01*
X32352476Y9641140D01*
X32315407Y9650780D01*
X32283429Y9660583D01*
X32255746Y9670869D01*
X32231560Y9681956D01*
X32210074Y9694166D01*
X32190491Y9707818D01*
X32172013Y9723231D01*
X32158570Y9735971D01*
X32132169Y9765802D01*
X32112154Y9797090D01*
X32097396Y9831685D01*
X32094316Y9841334D01*
X32090310Y9860675D01*
X32087946Y9884916D01*
X32087229Y9911608D01*
X32088163Y9938304D01*
X32090754Y9962558D01*
X32094056Y9978682D01*
X32109091Y10019832D01*
X32130765Y10057575D01*
X32158915Y10091723D01*
X32193376Y10122089D01*
X32233986Y10148485D01*
X32249054Y10156467D01*
X32294078Y10175291D01*
X32343014Y10188909D01*
X32394692Y10197375D01*
X32447944Y10200745D01*
X32501602Y10199074D01*
G37*
G36*
X43942462Y10181882D02*
G01*
X44262510Y10181882D01*
X44261471Y10124497D01*
X44260432Y10067111D01*
X44101233Y10066130D01*
X43942034Y10065148D01*
X43943464Y9748159D01*
X43943730Y9689753D01*
X43943989Y9638357D01*
X43944271Y9593454D01*
X43944608Y9554529D01*
X43945031Y9521066D01*
X43945570Y9492548D01*
X43946256Y9468460D01*
X43947121Y9448285D01*
X43948195Y9431507D01*
X43949509Y9417611D01*
X43951094Y9406080D01*
X43952981Y9396398D01*
X43955202Y9388050D01*
X43957786Y9380518D01*
X43960765Y9373287D01*
X43964170Y9365842D01*
X43966705Y9360476D01*
X43983801Y9332919D01*
X44006602Y9309697D01*
X44034269Y9291427D01*
X44065964Y9278725D01*
X44083573Y9274559D01*
X44114307Y9271427D01*
X44148910Y9272178D01*
X44184977Y9276545D01*
X44220099Y9284259D01*
X44245822Y9292631D01*
X44247807Y9292231D01*
X44249232Y9288646D01*
X44250182Y9280937D01*
X44250739Y9268163D01*
X44250988Y9249387D01*
X44251025Y9234324D01*
X44251025Y9174021D01*
X44227458Y9166179D01*
X44195780Y9156886D01*
X44165794Y9151035D01*
X44134369Y9148157D01*
X44104269Y9147696D01*
X44085100Y9148007D01*
X44067709Y9148486D01*
X44054012Y9149068D01*
X44045943Y9149684D01*
X44020612Y9154604D01*
X43992469Y9162626D01*
X43964952Y9172655D01*
X43944455Y9182025D01*
X43909681Y9204174D01*
X43879800Y9231960D01*
X43854915Y9265217D01*
X43835128Y9303776D01*
X43820544Y9347470D01*
X43811265Y9396131D01*
X43810894Y9399087D01*
X43810167Y9408985D01*
X43809505Y9426051D01*
X43808911Y9449924D01*
X43808390Y9480246D01*
X43807945Y9516658D01*
X43807580Y9558802D01*
X43807300Y9606318D01*
X43807108Y9658847D01*
X43807009Y9716031D01*
X43806995Y9748102D01*
X43806995Y10065230D01*
X43569929Y10065230D01*
X43569929Y10181882D01*
X43806995Y10181882D01*
X43806995Y10482919D01*
X43942462Y10482919D01*
X43942462Y10181882D01*
G37*
G36*
X40807914Y12902504D02*
G01*
X40390225Y12902504D01*
X40322823Y12902488D01*
X40262597Y12902439D01*
X40209198Y12902353D01*
X40162277Y12902224D01*
X40121484Y12902051D01*
X40086470Y12901827D01*
X40056885Y12901551D01*
X40032381Y12901217D01*
X40012607Y12900822D01*
X39997214Y12900363D01*
X39985854Y12899833D01*
X39978175Y12899231D01*
X39973830Y12898552D01*
X39972468Y12897800D01*
X39971897Y12893403D01*
X39970265Y12882159D01*
X39967662Y12864661D01*
X39964178Y12841501D01*
X39959902Y12813268D01*
X39954925Y12780556D01*
X39949337Y12743956D01*
X39943226Y12704059D01*
X39936684Y12661456D01*
X39929910Y12617460D01*
X39923056Y12572917D01*
X39916569Y12530606D01*
X39910537Y12491104D01*
X39905046Y12454990D01*
X39900184Y12422841D01*
X39896038Y12395236D01*
X39892695Y12372754D01*
X39890242Y12355972D01*
X39888767Y12345469D01*
X39888356Y12341823D01*
X39888356Y12341822D01*
X39891611Y12343865D01*
X39899565Y12349342D01*
X39910815Y12357283D01*
X39917559Y12362102D01*
X39943692Y12379173D01*
X39974546Y12396635D01*
X40007516Y12413162D01*
X40039997Y12427428D01*
X40062160Y12435739D01*
X40098419Y12446862D01*
X40134011Y12455003D01*
X40171263Y12460557D01*
X40212508Y12463923D01*
X40232608Y12464816D01*
X40307393Y12464199D01*
X40379246Y12457119D01*
X40447890Y12443755D01*
X40513049Y12424290D01*
X40574445Y12398901D01*
X40631802Y12367770D01*
X40684843Y12331077D01*
X40733291Y12289002D01*
X40776871Y12241724D01*
X40815304Y12189424D01*
X40848315Y12132282D01*
X40875627Y12070479D01*
X40886679Y12039063D01*
X40903271Y11976487D01*
X40913750Y11910911D01*
X40918073Y11843785D01*
X40916195Y11776560D01*
X40908071Y11710686D01*
X40898088Y11663955D01*
X40877416Y11597640D01*
X40850354Y11535157D01*
X40817145Y11476778D01*
X40778031Y11422774D01*
X40733253Y11373417D01*
X40683054Y11328980D01*
X40627676Y11289734D01*
X40567359Y11255952D01*
X40514403Y11232525D01*
X40459768Y11214001D01*
X40400164Y11199195D01*
X40337294Y11188345D01*
X40272860Y11181689D01*
X40208564Y11179464D01*
X40149395Y11181654D01*
X40081569Y11189880D01*
X40014482Y11204107D01*
X39949217Y11223942D01*
X39886859Y11248990D01*
X39828492Y11278858D01*
X39775201Y11313152D01*
X39763691Y11321689D01*
X39711918Y11365711D01*
X39665935Y11414277D01*
X39625974Y11466975D01*
X39592264Y11523391D01*
X39565035Y11583111D01*
X39544516Y11645723D01*
X39530938Y11710814D01*
X39526450Y11748215D01*
X39523859Y11777378D01*
X39816508Y11777378D01*
X39824337Y11736926D01*
X39836456Y11688731D01*
X39853393Y11645638D01*
X39875693Y11606553D01*
X39903905Y11570383D01*
X39911877Y11561740D01*
X39949703Y11527367D01*
X39992154Y11498736D01*
X40038842Y11475976D01*
X40089378Y11459216D01*
X40143375Y11448584D01*
X40200446Y11444209D01*
X40260201Y11446220D01*
X40260239Y11446223D01*
X40317695Y11454084D01*
X40370035Y11467369D01*
X40417438Y11486153D01*
X40460082Y11510512D01*
X40498145Y11540519D01*
X40508501Y11550437D01*
X40541233Y11588432D01*
X40567914Y11630896D01*
X40588538Y11677815D01*
X40603098Y11729177D01*
X40611590Y11784968D01*
X40612179Y11791687D01*
X40613392Y11846072D01*
X40608231Y11898807D01*
X40596896Y11949093D01*
X40579586Y11996131D01*
X40556501Y12039122D01*
X40546878Y12053367D01*
X40533041Y12070705D01*
X40515324Y12090069D01*
X40495735Y12109479D01*
X40476282Y12126954D01*
X40458976Y12140515D01*
X40457240Y12141717D01*
X40412691Y12167505D01*
X40363759Y12187269D01*
X40310648Y12200953D01*
X40253561Y12208500D01*
X40210050Y12210104D01*
X40151168Y12207366D01*
X40096802Y12199048D01*
X40046194Y12184936D01*
X39998586Y12164816D01*
X39953219Y12138477D01*
X39951840Y12137558D01*
X39934356Y12124243D01*
X39914403Y12106438D01*
X39893688Y12085914D01*
X39873922Y12064440D01*
X39856814Y12043786D01*
X39844595Y12026560D01*
X39836479Y12014258D01*
X39829537Y12004873D01*
X39824911Y11999906D01*
X39824038Y11999489D01*
X39819896Y12000551D01*
X39809641Y12003558D01*
X39794316Y12008184D01*
X39774965Y12014104D01*
X39752633Y12020991D01*
X39728362Y12028520D01*
X39703198Y12036365D01*
X39678183Y12044198D01*
X39654362Y12051696D01*
X39632778Y12058531D01*
X39614475Y12064379D01*
X39600497Y12068912D01*
X39591888Y12071804D01*
X39589583Y12072701D01*
X39590067Y12076412D01*
X39591654Y12087050D01*
X39594266Y12104113D01*
X39597821Y12127096D01*
X39602240Y12155496D01*
X39607444Y12188807D01*
X39613353Y12226526D01*
X39619887Y12268149D01*
X39626966Y12313171D01*
X39634511Y12361089D01*
X39642442Y12411399D01*
X39650678Y12463597D01*
X39659141Y12517178D01*
X39667750Y12571638D01*
X39676426Y12626474D01*
X39685089Y12681181D01*
X39693659Y12735255D01*
X39702056Y12788192D01*
X39710201Y12839488D01*
X39718015Y12888640D01*
X39725416Y12935142D01*
X39732326Y12978491D01*
X39738664Y13018183D01*
X39744351Y13053714D01*
X39749308Y13084579D01*
X39753454Y13110275D01*
X39756709Y13130297D01*
X39758995Y13144142D01*
X39760230Y13151305D01*
X39760326Y13151800D01*
X39762408Y13162148D01*
X40807914Y13162148D01*
X40807914Y12902504D01*
G37*
G36*
X33198782Y10514706D02*
G01*
X33224146Y10507186D01*
X33246607Y10494091D01*
X33255358Y10486392D01*
X33270762Y10465884D01*
X33280372Y10441823D01*
X33283871Y10415818D01*
X33280941Y10389478D01*
X33276980Y10376720D01*
X33264959Y10355434D01*
X33247392Y10338058D01*
X33225432Y10325072D01*
X33200232Y10316959D01*
X33172946Y10314200D01*
X33144727Y10317276D01*
X33138320Y10318835D01*
X33114124Y10329008D01*
X33094243Y10344866D01*
X33079302Y10365532D01*
X33069927Y10390131D01*
X33066743Y10417786D01*
X33066754Y10419019D01*
X33069804Y10444153D01*
X33078682Y10465447D01*
X33094153Y10484584D01*
X33098451Y10488612D01*
X33120349Y10503604D01*
X33145376Y10512937D01*
X33172023Y10516630D01*
X33198782Y10514706D01*
G37*
G36*
X43505102Y10126939D02*
G01*
X43504077Y10055822D01*
X43458921Y10053498D01*
X43404977Y10047427D01*
X43354902Y10035100D01*
X43308965Y10016737D01*
X43267436Y9992558D01*
X43230586Y9962781D01*
X43198684Y9927626D01*
X43172000Y9887312D01*
X43150803Y9842057D01*
X43135365Y9792081D01*
X43134999Y9790534D01*
X43133775Y9784765D01*
X43132702Y9778224D01*
X43131767Y9770378D01*
X43130957Y9760695D01*
X43130258Y9748643D01*
X43129658Y9733691D01*
X43129144Y9715305D01*
X43128701Y9692955D01*
X43128318Y9666109D01*
X43127980Y9634234D01*
X43127675Y9596798D01*
X43127390Y9553270D01*
X43127110Y9503118D01*
X43126913Y9464097D01*
X43125448Y9165882D01*
X42990432Y9165882D01*
X42990432Y10181882D01*
X43118373Y10181882D01*
X43118436Y10069934D01*
X43118500Y9957985D01*
X43126488Y9971156D01*
X43156255Y10016529D01*
X43186387Y10054949D01*
X43217365Y10086987D01*
X43239892Y10105985D01*
X43286543Y10137396D01*
X43336380Y10162502D01*
X43388512Y10180959D01*
X43442047Y10192421D01*
X43471236Y10195582D01*
X43506128Y10198056D01*
X43505102Y10126939D01*
G37*
G36*
X42042169Y9862971D02*
G01*
X42042215Y9808954D01*
X42042350Y9757528D01*
X42042567Y9709236D01*
X42042861Y9664622D01*
X42043226Y9624230D01*
X42043656Y9588603D01*
X42044145Y9558286D01*
X42044689Y9533823D01*
X42045280Y9515756D01*
X42045913Y9504631D01*
X42045962Y9504091D01*
X42051676Y9460815D01*
X42060249Y9423603D01*
X42072100Y9391401D01*
X42087647Y9363153D01*
X42107310Y9337804D01*
X42115405Y9329259D01*
X42141959Y9306036D01*
X42170269Y9288524D01*
X42201441Y9276310D01*
X42236581Y9268980D01*
X42276796Y9266124D01*
X42284877Y9266053D01*
X42330088Y9268906D01*
X42371061Y9277682D01*
X42408535Y9292655D01*
X42443247Y9314103D01*
X42467752Y9334454D01*
X42495965Y9364193D01*
X42519228Y9396977D01*
X42538340Y9434137D01*
X42554106Y9477006D01*
X42554679Y9478861D01*
X42563141Y9506430D01*
X42564312Y9844156D01*
X42565484Y10181882D01*
X42700684Y10181882D01*
X42700684Y9165882D01*
X42572743Y9165882D01*
X42572743Y9340342D01*
X42558632Y9317022D01*
X42530335Y9276391D01*
X42497911Y9241610D01*
X42460549Y9211936D01*
X42417439Y9186633D01*
X42413600Y9184717D01*
X42386079Y9171994D01*
X42361122Y9162595D01*
X42336585Y9156029D01*
X42310324Y9151801D01*
X42280195Y9149417D01*
X42256654Y9148604D01*
X42222638Y9148421D01*
X42195206Y9149565D01*
X42173528Y9152075D01*
X42170106Y9152687D01*
X42124954Y9163756D01*
X42085280Y9178956D01*
X42049927Y9198870D01*
X42017737Y9224081D01*
X42006098Y9235166D01*
X41977064Y9268556D01*
X41953419Y9305486D01*
X41934889Y9346591D01*
X41921200Y9392506D01*
X41912078Y9443865D01*
X41910607Y9456422D01*
X41909908Y9466924D01*
X41909268Y9484597D01*
X41908690Y9509088D01*
X41908179Y9540041D01*
X41907737Y9577103D01*
X41907368Y9619921D01*
X41907076Y9668138D01*
X41906865Y9721402D01*
X41906738Y9779358D01*
X41906699Y9837422D01*
X41906699Y10181882D01*
X42042166Y10181882D01*
X42042169Y9862971D01*
G37*
G36*
X29825865Y9711278D02*
G01*
X29827533Y9746310D01*
X29830194Y9777878D01*
X29833838Y9804162D01*
X29834297Y9806648D01*
X29848213Y9866774D01*
X29866076Y9921023D01*
X29888254Y9970137D01*
X29915117Y10014860D01*
X29947032Y10055935D01*
X29970111Y10080484D01*
X30006684Y10113538D01*
X30043750Y10140179D01*
X30082952Y10161430D01*
X30125937Y10178315D01*
X30128910Y10179288D01*
X30153695Y10186728D01*
X30176482Y10192083D01*
X30199368Y10195636D01*
X30224447Y10197667D01*
X30253816Y10198459D01*
X30271617Y10198473D01*
X30297195Y10198157D01*
X30317015Y10197419D01*
X30332841Y10196096D01*
X30346434Y10194026D01*
X30359560Y10191047D01*
X30363465Y10190008D01*
X30414950Y10172317D01*
X30462131Y10148498D01*
X30505085Y10118492D01*
X30543889Y10082240D01*
X30578618Y10039682D01*
X30603006Y10001935D01*
X30617677Y9976800D01*
X30617743Y10263726D01*
X30617810Y10550652D01*
X30753277Y10550652D01*
X30753277Y9165882D01*
X30629099Y9165882D01*
X30629035Y9270304D01*
X30628972Y9374726D01*
X30621036Y9361556D01*
X30592937Y9318059D01*
X30564763Y9281139D01*
X30535582Y9249893D01*
X30504464Y9223421D01*
X30470477Y9200821D01*
X30436629Y9183029D01*
X30409629Y9171081D01*
X30385107Y9162241D01*
X30360946Y9156045D01*
X30335028Y9152027D01*
X30305237Y9149724D01*
X30281025Y9148884D01*
X30258409Y9148628D01*
X30236512Y9148837D01*
X30217303Y9149462D01*
X30202753Y9150452D01*
X30198240Y9151005D01*
X30143656Y9163044D01*
X30092549Y9181631D01*
X30045133Y9206534D01*
X30001625Y9237518D01*
X29962238Y9274350D01*
X29927189Y9316796D01*
X29896693Y9364622D01*
X29870965Y9417594D01*
X29850220Y9475478D01*
X29834674Y9538042D01*
X29832803Y9547822D01*
X29829344Y9572888D01*
X29826931Y9603586D01*
X29825554Y9638096D01*
X29825399Y9654156D01*
X29962253Y9654156D01*
X29964043Y9613433D01*
X29968093Y9577266D01*
X29968294Y9576000D01*
X29980380Y9519036D01*
X29997345Y9467426D01*
X30019090Y9421299D01*
X30045520Y9380780D01*
X30076535Y9345999D01*
X30112038Y9317081D01*
X30151932Y9294155D01*
X30196119Y9277348D01*
X30197644Y9276900D01*
X30233170Y9269347D01*
X30272397Y9265761D01*
X30312609Y9266179D01*
X30351091Y9270633D01*
X30370211Y9274732D01*
X30414855Y9289919D01*
X30455764Y9311540D01*
X30492730Y9339377D01*
X30525539Y9373214D01*
X30553982Y9412833D01*
X30577848Y9458017D01*
X30596663Y9507714D01*
X30608596Y9555211D01*
X30616260Y9607049D01*
X30619644Y9661366D01*
X30618739Y9716298D01*
X30613535Y9769983D01*
X30604021Y9820557D01*
X30598470Y9841334D01*
X30580738Y9889749D01*
X30557590Y9933695D01*
X30529406Y9972772D01*
X30496569Y10006576D01*
X30459461Y10034706D01*
X30418462Y10056760D01*
X30380679Y10070477D01*
X30347056Y10077544D01*
X30309226Y10080972D01*
X30269570Y10080761D01*
X30230470Y10076909D01*
X30198716Y10070583D01*
X30157248Y10056161D01*
X30118761Y10035114D01*
X30083635Y10007878D01*
X30052252Y9974892D01*
X30024993Y9936592D01*
X30002239Y9893416D01*
X29984372Y9845800D01*
X29976145Y9815235D01*
X29969670Y9779976D01*
X29965145Y9739797D01*
X29962647Y9697067D01*
X29962253Y9654156D01*
X29825399Y9654156D01*
X29825202Y9674600D01*
X29825865Y9711278D01*
G37*
G36*
X44555404Y10514706D02*
G01*
X44580768Y10507186D01*
X44603229Y10494091D01*
X44611980Y10486392D01*
X44627384Y10465884D01*
X44636994Y10441823D01*
X44640493Y10415818D01*
X44637564Y10389478D01*
X44633602Y10376720D01*
X44621582Y10355434D01*
X44604014Y10338058D01*
X44582054Y10325072D01*
X44556854Y10316959D01*
X44529568Y10314200D01*
X44501350Y10317276D01*
X44494942Y10318835D01*
X44470747Y10329008D01*
X44450866Y10344866D01*
X44435925Y10365532D01*
X44426549Y10390131D01*
X44423365Y10417786D01*
X44423377Y10419019D01*
X44426427Y10444153D01*
X44435304Y10465447D01*
X44450775Y10484584D01*
X44455074Y10488612D01*
X44476971Y10503604D01*
X44501998Y10512937D01*
X44528645Y10516630D01*
X44555404Y10514706D01*
G37*
G36*
X40234584Y10158363D02*
G01*
X40232374Y10152469D01*
X40227656Y10139887D01*
X40220564Y10120973D01*
X40211233Y10096087D01*
X40199797Y10065586D01*
X40186390Y10029829D01*
X40171146Y9989173D01*
X40154200Y9943976D01*
X40135686Y9894597D01*
X40115738Y9841394D01*
X40094490Y9784724D01*
X40072077Y9724946D01*
X40048632Y9662418D01*
X40024291Y9597498D01*
X39999187Y9530544D01*
X39974274Y9464097D01*
X39722785Y8793348D01*
X39649702Y8793348D01*
X39623545Y8793451D01*
X39604146Y8793794D01*
X39590740Y8794427D01*
X39582559Y8795401D01*
X39578840Y8796767D01*
X39578506Y8798052D01*
X39588295Y8822681D01*
X39599271Y8850684D01*
X39611154Y8881320D01*
X39623666Y8913845D01*
X39636530Y8947518D01*
X39649466Y8981595D01*
X39662197Y9015334D01*
X39674443Y9047992D01*
X39685926Y9078828D01*
X39696369Y9107099D01*
X39705492Y9132061D01*
X39713017Y9152973D01*
X39718666Y9169092D01*
X39722160Y9179676D01*
X39723221Y9183981D01*
X39721636Y9188169D01*
X39717401Y9198937D01*
X39710677Y9215882D01*
X39701626Y9238605D01*
X39690408Y9266702D01*
X39677183Y9299772D01*
X39662113Y9337414D01*
X39645358Y9379225D01*
X39627080Y9424805D01*
X39607439Y9473752D01*
X39586596Y9525663D01*
X39564712Y9580138D01*
X39541948Y9636774D01*
X39524757Y9679526D01*
X39501447Y9737501D01*
X39478897Y9793612D01*
X39457269Y9847460D01*
X39436724Y9898640D01*
X39417423Y9946752D01*
X39399527Y9991393D01*
X39383196Y10032162D01*
X39368592Y10068656D01*
X39355875Y10100474D01*
X39345207Y10127213D01*
X39336749Y10148471D01*
X39330661Y10163847D01*
X39327105Y10172939D01*
X39326199Y10175379D01*
X39326013Y10177679D01*
X39327523Y10179355D01*
X39331687Y10180484D01*
X39339458Y10181144D01*
X39351793Y10181409D01*
X39369645Y10181357D01*
X39393971Y10181064D01*
X39396805Y10181024D01*
X39469225Y10180000D01*
X39631510Y9763292D01*
X39652338Y9709852D01*
X39672421Y9658402D01*
X39691588Y9609373D01*
X39709671Y9563197D01*
X39726500Y9520303D01*
X39741904Y9481123D01*
X39755715Y9446087D01*
X39767762Y9415627D01*
X39777876Y9390172D01*
X39785887Y9370154D01*
X39791625Y9356004D01*
X39794921Y9348152D01*
X39795677Y9346629D01*
X39797194Y9350095D01*
X39801145Y9360189D01*
X39807369Y9376477D01*
X39815703Y9398524D01*
X39825984Y9425895D01*
X39838051Y9458155D01*
X39851741Y9494870D01*
X39866892Y9535604D01*
X39883342Y9579922D01*
X39900928Y9627390D01*
X39919488Y9677572D01*
X39938861Y9730034D01*
X39951490Y9764278D01*
X40105421Y10181882D01*
X40243405Y10181882D01*
X40234584Y10158363D01*
G37*
%TO.C,U1*%
X111915000Y-37665000D02*
X112390000Y-37665000D01*
X111915000Y-40885000D02*
X112390000Y-40885000D01*
X111915000Y-38140000D02*
X111915000Y-37665000D01*
X111915000Y-40410000D02*
X111915000Y-40885000D01*
X115135000Y-38140000D02*
X115135000Y-37665000D01*
X115135000Y-40410000D02*
X115135000Y-40885000D01*
X115135000Y-40885000D02*
X114660000Y-40885000D01*
%TO.C,R6*%
X122112258Y-37902500D02*
X121637742Y-37902500D01*
X122112258Y-38947500D02*
X121637742Y-38947500D01*
%TO.C,R2*%
X119947500Y-45837258D02*
X119947500Y-45362742D01*
X118902500Y-45837258D02*
X118902500Y-45362742D01*
%TO.C,D27*%
X87325000Y-34125000D02*
X87325000Y-32275000D01*
X87325000Y-32275000D02*
X86125000Y-32275000D01*
X86125000Y-34125000D02*
X86125000Y-32275000D01*
D11*
%TO.C,J4*%
X107793750Y-14225000D02*
X107793750Y-16025000D01*
X107793750Y-12125000D02*
X107793750Y-13925000D01*
X109593750Y-14225000D02*
X109593750Y-16025000D01*
X109593750Y-12125000D02*
X109593750Y-13925000D01*
X109593750Y-13925000D02*
X107793750Y-13925000D01*
X107793750Y-12125000D02*
X109593750Y-12125000D01*
X109593750Y-10125000D02*
X109593750Y-11925000D01*
X107793750Y-14225000D02*
X109593750Y-14225000D01*
X107793750Y-10125000D02*
X109593750Y-10125000D01*
X109593750Y-16025000D02*
X107793750Y-16025000D01*
X109593750Y-11925000D02*
X107793750Y-11925000D01*
X107793750Y-11925000D02*
X107793750Y-10125000D01*
D12*
%TO.C,C4*%
X110065580Y-44085000D02*
X109784420Y-44085000D01*
X110065580Y-43065000D02*
X109784420Y-43065000D01*
%TO.C,D11*%
X47225000Y5875000D02*
X47225000Y7725000D01*
X46025000Y5875000D02*
X46025000Y7725000D01*
X47225000Y7725000D02*
X46025000Y7725000D01*
%TO.C,R10*%
X117252500Y-58587742D02*
X117252500Y-59062258D01*
X118297500Y-58587742D02*
X118297500Y-59062258D01*
%TO.C,D24*%
X86125000Y-72225000D02*
X86125000Y-70375000D01*
X87325000Y-70375000D02*
X86125000Y-70375000D01*
X87325000Y-72225000D02*
X87325000Y-70375000D01*
%TD*%
M02*
