%TF.GenerationSoftware,KiCad,Pcbnew,(6.0.4)*%
%TF.CreationDate,2022-07-03T20:13:25-07:00*%
%TF.ProjectId,Athena54,41746865-6e61-4353-942e-6b696361645f,v1.0.0*%
%TF.SameCoordinates,Original*%
%TF.FileFunction,Copper,L4,Bot*%
%TF.FilePolarity,Positive*%
%FSLAX46Y46*%
G04 Gerber Fmt 4.6, Leading zero omitted, Abs format (unit mm)*
G04 Created by KiCad (PCBNEW (6.0.4)) date 2022-07-03 20:13:25*
%MOMM*%
%LPD*%
G01*
G04 APERTURE LIST*
G04 Aperture macros list*
%AMRoundRect*
0 Rectangle with rounded corners*
0 $1 Rounding radius*
0 $2 $3 $4 $5 $6 $7 $8 $9 X,Y pos of 4 corners*
0 Add a 4 corners polygon primitive as box body*
4,1,4,$2,$3,$4,$5,$6,$7,$8,$9,$2,$3,0*
0 Add four circle primitives for the rounded corners*
1,1,$1+$1,$2,$3*
1,1,$1+$1,$4,$5*
1,1,$1+$1,$6,$7*
1,1,$1+$1,$8,$9*
0 Add four rect primitives between the rounded corners*
20,1,$1+$1,$2,$3,$4,$5,0*
20,1,$1+$1,$4,$5,$6,$7,0*
20,1,$1+$1,$6,$7,$8,$9,0*
20,1,$1+$1,$8,$9,$2,$3,0*%
%AMRotRect*
0 Rectangle, with rotation*
0 The origin of the aperture is its center*
0 $1 length*
0 $2 width*
0 $3 Rotation angle, in degrees counterclockwise*
0 Add horizontal line*
21,1,$1,$2,0,0,$3*%
G04 Aperture macros list end*
%TA.AperFunction,ComponentPad*%
%ADD10C,0.800000*%
%TD*%
%TA.AperFunction,SMDPad,CuDef*%
%ADD11R,0.700000X0.600000*%
%TD*%
%TA.AperFunction,ComponentPad*%
%ADD12C,4.000000*%
%TD*%
%TA.AperFunction,SMDPad,CuDef*%
%ADD13R,4.461400X2.500000*%
%TD*%
%TA.AperFunction,SMDPad,CuDef*%
%ADD14R,4.434400X2.500000*%
%TD*%
%TA.AperFunction,ComponentPad*%
%ADD15RoundRect,0.337500X-0.337500X0.337500X-0.337500X-0.337500X0.337500X-0.337500X0.337500X0.337500X0*%
%TD*%
%TA.AperFunction,SMDPad,CuDef*%
%ADD16RoundRect,0.250000X-0.375000X-0.625000X0.375000X-0.625000X0.375000X0.625000X-0.375000X0.625000X0*%
%TD*%
%TA.AperFunction,SMDPad,CuDef*%
%ADD17R,0.800000X1.000000*%
%TD*%
%TA.AperFunction,SMDPad,CuDef*%
%ADD18R,1.500000X0.700000*%
%TD*%
%TA.AperFunction,SMDPad,CuDef*%
%ADD19R,1.000000X1.550000*%
%TD*%
%TA.AperFunction,SMDPad,CuDef*%
%ADD20R,1.450000X0.600000*%
%TD*%
%TA.AperFunction,SMDPad,CuDef*%
%ADD21R,1.450000X0.300000*%
%TD*%
%TA.AperFunction,ComponentPad*%
%ADD22O,2.100000X1.000000*%
%TD*%
%TA.AperFunction,ComponentPad*%
%ADD23O,1.600000X1.000000*%
%TD*%
%TA.AperFunction,ComponentPad*%
%ADD24R,1.524000X1.524000*%
%TD*%
%TA.AperFunction,SMDPad,CuDef*%
%ADD25R,4.461400X2.520000*%
%TD*%
%TA.AperFunction,SMDPad,CuDef*%
%ADD26RoundRect,0.200000X-0.275000X0.200000X-0.275000X-0.200000X0.275000X-0.200000X0.275000X0.200000X0*%
%TD*%
%TA.AperFunction,SMDPad,CuDef*%
%ADD27RoundRect,0.225000X-0.250000X0.225000X-0.250000X-0.225000X0.250000X-0.225000X0.250000X0.225000X0*%
%TD*%
%TA.AperFunction,SMDPad,CuDef*%
%ADD28RoundRect,0.062500X-0.325000X-0.062500X0.325000X-0.062500X0.325000X0.062500X-0.325000X0.062500X0*%
%TD*%
%TA.AperFunction,SMDPad,CuDef*%
%ADD29R,0.800000X1.200000*%
%TD*%
%TA.AperFunction,SMDPad,CuDef*%
%ADD30RotRect,4.500000X2.500000X80.000000*%
%TD*%
%TA.AperFunction,SMDPad,CuDef*%
%ADD31RoundRect,0.225000X-0.225000X-0.250000X0.225000X-0.250000X0.225000X0.250000X-0.225000X0.250000X0*%
%TD*%
%TA.AperFunction,SMDPad,CuDef*%
%ADD32RoundRect,0.200000X0.400000X0.200000X-0.400000X0.200000X-0.400000X-0.200000X0.400000X-0.200000X0*%
%TD*%
%TA.AperFunction,SMDPad,CuDef*%
%ADD33C,1.000000*%
%TD*%
%TA.AperFunction,SMDPad,CuDef*%
%ADD34RoundRect,0.200000X0.200000X-0.400000X0.200000X0.400000X-0.200000X0.400000X-0.200000X-0.400000X0*%
%TD*%
%TA.AperFunction,SMDPad,CuDef*%
%ADD35RoundRect,0.200000X-0.400000X-0.200000X0.400000X-0.200000X0.400000X0.200000X-0.400000X0.200000X0*%
%TD*%
%TA.AperFunction,ComponentPad*%
%ADD36RoundRect,0.200000X-0.300000X-0.200000X0.300000X-0.200000X0.300000X0.200000X-0.300000X0.200000X0*%
%TD*%
%TA.AperFunction,ViaPad*%
%ADD37C,0.800000*%
%TD*%
%TA.AperFunction,ViaPad*%
%ADD38C,0.600000*%
%TD*%
%TA.AperFunction,Conductor*%
%ADD39C,0.400000*%
%TD*%
%TA.AperFunction,Conductor*%
%ADD40C,0.600000*%
%TD*%
%TA.AperFunction,Conductor*%
%ADD41C,0.250000*%
%TD*%
%TA.AperFunction,Conductor*%
%ADD42C,1.000000*%
%TD*%
%TA.AperFunction,Conductor*%
%ADD43C,0.700000*%
%TD*%
%TA.AperFunction,Conductor*%
%ADD44C,0.500000*%
%TD*%
%TA.AperFunction,Conductor*%
%ADD45C,0.200000*%
%TD*%
%TA.AperFunction,Conductor*%
%ADD46C,0.300000*%
%TD*%
%TA.AperFunction,Conductor*%
%ADD47C,0.293370*%
%TD*%
%TA.AperFunction,Conductor*%
%ADD48C,0.205740*%
%TD*%
G04 APERTURE END LIST*
D10*
%TO.P,D21,1,K*%
%TO.N,ROW2*%
X84725000Y-12774000D03*
D11*
X84725000Y-13725000D03*
%TO.P,D21,2,A*%
%TO.N,Net-(D21-Pad2)*%
X84725000Y-15125000D03*
D10*
X84725000Y-16076000D03*
%TD*%
%TO.P,SW9,1,1*%
%TO.N,COL2*%
X26619200Y-62468000D03*
D12*
X21590000Y-63230000D03*
X22860000Y-60690000D03*
D10*
X27889200Y-61452000D03*
D13*
X26115700Y-60690000D03*
D10*
X26619200Y-63992000D03*
X27889200Y-59928000D03*
%TO.P,SW9,2,2*%
%TO.N,Net-(D10-Pad2)*%
X11480800Y-62468000D03*
X10210800Y-61452000D03*
D14*
X13240800Y-63230000D03*
D10*
X11480800Y-63992000D03*
X10210800Y-59928000D03*
D12*
X16510000Y-63230000D03*
X15240000Y-60690000D03*
%TD*%
D15*
%TO.P,J1,1,Pin_1*%
%TO.N,+BATT*%
X117683500Y-19325000D03*
%TO.P,J1,2,Pin_2*%
%TO.N,GND*%
X115683500Y-19325000D03*
%TD*%
D12*
%TO.P,SW14,1,1*%
%TO.N,COL4*%
X59690000Y-80000D03*
D10*
X64719200Y682000D03*
X65989200Y1698000D03*
X64719200Y-842000D03*
X65989200Y3222000D03*
D12*
X60960000Y2460000D03*
D13*
X64215700Y2460000D03*
D10*
%TO.P,SW14,2,2*%
%TO.N,Net-(D15-Pad2)*%
X48310800Y3222000D03*
D12*
X54610000Y-80000D03*
D10*
X49580800Y-842000D03*
X49580800Y682000D03*
X48310800Y1698000D03*
D12*
X53340000Y2460000D03*
D14*
X51340800Y-80000D03*
%TD*%
D11*
%TO.P,D8,1,K*%
%TO.N,ROW2*%
X10525000Y-15725000D03*
D10*
X10525000Y-14774000D03*
D11*
%TO.P,D8,2,A*%
%TO.N,Net-(D8-Pad2)*%
X10525000Y-17125000D03*
D10*
X10525000Y-18076000D03*
%TD*%
D11*
%TO.P,D4,1,K*%
%TO.N,ROW2*%
X8525000Y-15725000D03*
D10*
X8525000Y-14774000D03*
D11*
%TO.P,D4,2,A*%
%TO.N,Net-(D4-Pad2)*%
X8525000Y-17125000D03*
D10*
X8525000Y-18076000D03*
%TD*%
D13*
%TO.P,SW25,1,1*%
%TO.N,COL6*%
X102315700Y-20590000D03*
D10*
X102819200Y-23892000D03*
D12*
X97790000Y-23130000D03*
D10*
X102819200Y-22368000D03*
X104089200Y-19828000D03*
X104089200Y-21352000D03*
D12*
X99060000Y-20590000D03*
D10*
%TO.P,SW25,2,2*%
%TO.N,Net-(D26-Pad2)*%
X86410800Y-21352000D03*
D12*
X91440000Y-20590000D03*
D10*
X87680800Y-23892000D03*
D14*
X89440800Y-23130000D03*
D10*
X87680800Y-22368000D03*
D12*
X92710000Y-23130000D03*
D10*
X86410800Y-19828000D03*
%TD*%
D16*
%TO.P,D1,1,K*%
%TO.N,/Power Management/CHG*%
X126774999Y-48575000D03*
%TO.P,D1,2,A*%
%TO.N,Net-(D1-Pad2)*%
X123974999Y-48575000D03*
%TD*%
D11*
%TO.P,D17,1,K*%
%TO.N,ROW3*%
X48625000Y-29725000D03*
D10*
X48625000Y-28774000D03*
%TO.P,D17,2,A*%
%TO.N,Net-(D17-Pad2)*%
X48625000Y-32076000D03*
D11*
X48625000Y-31125000D03*
%TD*%
D10*
%TO.P,D28,1,K*%
%TO.N,ROW4*%
X86725001Y-50824000D03*
D11*
X86725001Y-51775000D03*
D10*
%TO.P,D28,2,A*%
%TO.N,Net-(D28-Pad2)*%
X86725001Y-54126000D03*
D11*
X86725001Y-53175000D03*
%TD*%
%TO.P,D6,1,K*%
%TO.N,ROW4*%
X8525000Y-53775000D03*
D10*
X8525000Y-52824000D03*
%TO.P,D6,2,A*%
%TO.N,Net-(D6-Pad2)*%
X8525000Y-56126000D03*
D11*
X8525000Y-55175000D03*
%TD*%
D10*
%TO.P,D5,1,K*%
%TO.N,ROW3*%
X8525000Y-33774000D03*
D11*
X8525000Y-34725000D03*
%TO.P,D5,2,A*%
%TO.N,Net-(D5-Pad2)*%
X8525000Y-36125000D03*
D10*
X8525000Y-37076000D03*
%TD*%
D11*
%TO.P,D9,1,K*%
%TO.N,ROW3*%
X10525000Y-34725000D03*
D10*
X10525000Y-33774000D03*
D11*
%TO.P,D9,2,A*%
%TO.N,Net-(D9-Pad2)*%
X10525000Y-36125000D03*
D10*
X10525000Y-37076000D03*
%TD*%
%TO.P,D16,1,K*%
%TO.N,ROW2*%
X48625000Y-8624000D03*
D11*
X48625000Y-9575000D03*
D10*
%TO.P,D16,2,A*%
%TO.N,Net-(D16-Pad2)*%
X48625000Y-11926000D03*
D11*
X48625000Y-10975000D03*
%TD*%
%TO.P,D18,1,K*%
%TO.N,ROW4*%
X48625000Y-48775000D03*
D10*
X48625000Y-47824000D03*
D11*
%TO.P,D18,2,A*%
%TO.N,Net-(D18-Pad2)*%
X48625000Y-50175000D03*
D10*
X48625000Y-51126000D03*
%TD*%
%TO.P,D19,1,K*%
%TO.N,ROW5*%
X84725000Y-69874000D03*
D11*
X84725000Y-70825000D03*
%TO.P,D19,2,A*%
%TO.N,Net-(D19-Pad2)*%
X84725000Y-72225000D03*
D10*
X84725000Y-73176000D03*
%TD*%
D17*
%TO.P,SW1,*%
%TO.N,*%
X125045000Y-45725000D03*
X127255000Y-45725000D03*
X125045000Y-38425000D03*
X127255000Y-38425000D03*
D18*
%TO.P,SW1,1,A*%
%TO.N,GND*%
X124395000Y-39825000D03*
%TO.P,SW1,2,B*%
%TO.N,/Power Management/SYSOFF*%
X124395000Y-42825000D03*
%TO.P,SW1,3,C*%
%TO.N,Net-(R6-Pad1)*%
X124395000Y-44325000D03*
%TD*%
D10*
%TO.P,D20,1,K*%
%TO.N,ROW1*%
X84725000Y6226001D03*
D11*
X84725000Y5275001D03*
%TO.P,D20,2,A*%
%TO.N,Net-(D20-Pad2)*%
X84725000Y3875001D03*
D10*
X84725000Y2924001D03*
%TD*%
D12*
%TO.P,SW6,1,1*%
%TO.N,COL2*%
X22860000Y-3540000D03*
D13*
X26115700Y-3540000D03*
D10*
X27889200Y-2778000D03*
X26619200Y-6842000D03*
X26619200Y-5318000D03*
D12*
X21590000Y-6080000D03*
D10*
X27889200Y-4302000D03*
D12*
%TO.P,SW6,2,2*%
%TO.N,Net-(D7-Pad2)*%
X16510000Y-6080000D03*
D10*
X10210800Y-2778000D03*
D14*
X13240800Y-6080000D03*
D10*
X10210800Y-4302000D03*
X11480800Y-5318000D03*
D12*
X15240000Y-3540000D03*
D10*
X11480800Y-6842000D03*
%TD*%
D11*
%TO.P,D15,1,K*%
%TO.N,ROW1*%
X48625000Y7275000D03*
D10*
X48625000Y8226000D03*
D11*
%TO.P,D15,2,A*%
%TO.N,Net-(D15-Pad2)*%
X48625000Y5875000D03*
D10*
X48625000Y4924000D03*
%TD*%
%TO.P,D12,1,K*%
%TO.N,ROW2*%
X46625000Y-8624000D03*
D11*
X46625000Y-9575000D03*
D10*
%TO.P,D12,2,A*%
%TO.N,Net-(D12-Pad2)*%
X46625000Y-11926000D03*
D11*
X46625000Y-10975000D03*
%TD*%
D12*
%TO.P,SW24,1,1*%
%TO.N,COL6*%
X97790000Y-4080000D03*
D10*
X102819200Y-4842000D03*
X104089200Y-778000D03*
X104089200Y-2302000D03*
D13*
X102315700Y-1540000D03*
D12*
X99060000Y-1540000D03*
D10*
X102819200Y-3318000D03*
D12*
%TO.P,SW24,2,2*%
%TO.N,Net-(D25-Pad2)*%
X91440000Y-1540000D03*
D10*
X86410800Y-2302000D03*
D14*
X89440800Y-4080000D03*
D10*
X86410800Y-778000D03*
X87680800Y-4842000D03*
X87680800Y-3318000D03*
D12*
X92710000Y-4080000D03*
%TD*%
D10*
%TO.P,SW27,1,1*%
%TO.N,COL6*%
X102819200Y-61992000D03*
D12*
X97790000Y-61230000D03*
D10*
X102819200Y-60468000D03*
D13*
X102315700Y-58690000D03*
D12*
X99060000Y-58690000D03*
D10*
X104089200Y-59452000D03*
X104089200Y-57928000D03*
D14*
%TO.P,SW27,2,2*%
%TO.N,Net-(D28-Pad2)*%
X89440800Y-61230000D03*
D10*
X87680800Y-60468000D03*
X86410800Y-59452000D03*
X87680800Y-61992000D03*
D12*
X91440000Y-58690000D03*
D10*
X86410800Y-57928000D03*
D12*
X92710000Y-61230000D03*
%TD*%
D10*
%TO.P,SW8,1,1*%
%TO.N,COL2*%
X26619200Y-43418000D03*
D12*
X22860000Y-41640000D03*
D13*
X26115700Y-41640000D03*
D10*
X27889200Y-42402000D03*
X26619200Y-44942000D03*
X27889200Y-40878000D03*
D12*
X21590000Y-44180000D03*
D10*
%TO.P,SW8,2,2*%
%TO.N,Net-(D9-Pad2)*%
X10210800Y-42402000D03*
D12*
X15240000Y-41640000D03*
X16510000Y-44180000D03*
D10*
X11480800Y-44942000D03*
X11480800Y-43418000D03*
D14*
X13240800Y-44180000D03*
D10*
X10210800Y-40878000D03*
%TD*%
D11*
%TO.P,D22,1,K*%
%TO.N,ROW3*%
X84725000Y-32725000D03*
D10*
X84725000Y-31774000D03*
%TO.P,D22,2,A*%
%TO.N,Net-(D22-Pad2)*%
X84725000Y-35076000D03*
D11*
X84725000Y-34125000D03*
%TD*%
D13*
%TO.P,SW16,1,1*%
%TO.N,COL4*%
X64215700Y-35640000D03*
D12*
X59690000Y-38180000D03*
D10*
X64719200Y-38942000D03*
D12*
X60960000Y-35640000D03*
D10*
X65989200Y-36402000D03*
X65989200Y-34878000D03*
X64719200Y-37418000D03*
D12*
%TO.P,SW16,2,2*%
%TO.N,Net-(D17-Pad2)*%
X53340000Y-35640000D03*
D10*
X49580800Y-37418000D03*
D12*
X54610000Y-38180000D03*
D14*
X51340800Y-38180000D03*
D10*
X49580800Y-38942000D03*
X48310800Y-36402000D03*
X48310800Y-34878000D03*
%TD*%
D13*
%TO.P,SW7,1,1*%
%TO.N,COL2*%
X26115700Y-22590000D03*
D12*
X21590000Y-25130000D03*
D10*
X27889200Y-21828000D03*
X27889200Y-23352000D03*
D12*
X22860000Y-22590000D03*
D10*
X26619200Y-24368000D03*
X26619200Y-25892000D03*
%TO.P,SW7,2,2*%
%TO.N,Net-(D8-Pad2)*%
X11480800Y-24368000D03*
D14*
X13240800Y-25130000D03*
D12*
X16510000Y-25130000D03*
D10*
X10210800Y-23352000D03*
D12*
X15240000Y-22590000D03*
D10*
X11480800Y-25892000D03*
X10210800Y-21828000D03*
%TD*%
D11*
%TO.P,D3,1,K*%
%TO.N,ROW1*%
X8525000Y3275000D03*
D10*
X8525000Y4226000D03*
D11*
%TO.P,D3,2,A*%
%TO.N,Net-(D3-Pad2)*%
X8525000Y1875000D03*
D10*
X8525000Y924000D03*
%TD*%
%TO.P,D23,1,K*%
%TO.N,ROW4*%
X84725000Y-50824000D03*
D11*
X84725000Y-51775000D03*
D10*
%TO.P,D23,2,A*%
%TO.N,Net-(D23-Pad2)*%
X84725000Y-54126000D03*
D11*
X84725000Y-53175000D03*
%TD*%
D13*
%TO.P,SW15,1,1*%
%TO.N,COL4*%
X64215700Y-16590000D03*
D12*
X59690000Y-19130000D03*
X60960000Y-16590000D03*
D10*
X65989200Y-17352000D03*
X64719200Y-18368000D03*
X64719200Y-19892000D03*
X65989200Y-15828000D03*
%TO.P,SW15,2,2*%
%TO.N,Net-(D16-Pad2)*%
X49580800Y-19892000D03*
X49580800Y-18368000D03*
D14*
X51340800Y-19130000D03*
D10*
X48310800Y-15828000D03*
X48310800Y-17352000D03*
D12*
X53340000Y-16590000D03*
X54610000Y-19130000D03*
%TD*%
D11*
%TO.P,D13,1,K*%
%TO.N,ROW3*%
X46625000Y-29725000D03*
D10*
X46625000Y-28774000D03*
D11*
%TO.P,D13,2,A*%
%TO.N,Net-(D13-Pad2)*%
X46625000Y-31125000D03*
D10*
X46625000Y-32076000D03*
%TD*%
D11*
%TO.P,D7,1,K*%
%TO.N,ROW1*%
X10525000Y3275000D03*
D10*
X10525000Y4226000D03*
%TO.P,D7,2,A*%
%TO.N,Net-(D7-Pad2)*%
X10525000Y924000D03*
D11*
X10525000Y1875000D03*
%TD*%
D10*
%TO.P,D26,1,K*%
%TO.N,ROW2*%
X86725000Y-12774000D03*
D11*
X86725000Y-13725000D03*
D10*
%TO.P,D26,2,A*%
%TO.N,Net-(D26-Pad2)*%
X86725000Y-16076000D03*
D11*
X86725000Y-15125000D03*
%TD*%
D10*
%TO.P,D14,1,K*%
%TO.N,ROW4*%
X46625000Y-47824000D03*
D11*
X46625000Y-48775000D03*
%TO.P,D14,2,A*%
%TO.N,Net-(D14-Pad2)*%
X46625000Y-50175000D03*
D10*
X46625000Y-51126000D03*
%TD*%
D11*
%TO.P,D25,1,K*%
%TO.N,ROW1*%
X86725000Y5275000D03*
D10*
X86725000Y6226000D03*
%TO.P,D25,2,A*%
%TO.N,Net-(D25-Pad2)*%
X86725000Y2924000D03*
D11*
X86725000Y3875000D03*
%TD*%
D13*
%TO.P,SW17,1,1*%
%TO.N,COL4*%
X64215700Y-54690000D03*
D12*
X60960000Y-54690000D03*
D10*
X65989200Y-53928000D03*
D12*
X59690000Y-57230000D03*
D10*
X65989200Y-55452000D03*
X64719200Y-56468000D03*
X64719200Y-57992000D03*
D12*
%TO.P,SW17,2,2*%
%TO.N,Net-(D18-Pad2)*%
X54610000Y-57230000D03*
D10*
X49580800Y-56468000D03*
X49580800Y-57992000D03*
D14*
X51340800Y-57230000D03*
D10*
X48310800Y-53928000D03*
X48310800Y-55452000D03*
D12*
X53340000Y-54690000D03*
%TD*%
%TO.P,SW26,1,1*%
%TO.N,COL6*%
X99060000Y-39640001D03*
X97790000Y-42180001D03*
D10*
X102819200Y-42942001D03*
D13*
X102315700Y-39640001D03*
D10*
X102819200Y-41418001D03*
X104089200Y-38878001D03*
X104089200Y-40402001D03*
D12*
%TO.P,SW26,2,2*%
%TO.N,Net-(D27-Pad2)*%
X92710000Y-42180001D03*
D10*
X86410800Y-38878001D03*
X86410800Y-40402001D03*
D12*
X91440000Y-39640001D03*
D10*
X87680800Y-42942001D03*
D14*
X89440800Y-42180001D03*
D10*
X87680800Y-41418001D03*
%TD*%
D19*
%TO.P,SW29,1,1*%
%TO.N,GND*%
X126575000Y-30700000D03*
X126575000Y-35950000D03*
%TO.P,SW29,2,2*%
%TO.N,RESET*%
X124875000Y-35950000D03*
X124875000Y-30700000D03*
%TD*%
D20*
%TO.P,J2,A1,GND*%
%TO.N,GND*%
X121180000Y-51775000D03*
%TO.P,J2,A4,VBUS*%
%TO.N,VBUS*%
X121180000Y-52575000D03*
D21*
%TO.P,J2,A5,CC1*%
%TO.N,/USB-C/CC1*%
X121180000Y-56775000D03*
%TO.P,J2,A6,D+*%
%TO.N,DI+*%
X121180000Y-54775000D03*
%TO.P,J2,A7,D-*%
%TO.N,DI-*%
X121180000Y-55275000D03*
%TO.P,J2,A8,SBU1*%
%TO.N,unconnected-(J2-PadA8)*%
X121180000Y-56275000D03*
D20*
%TO.P,J2,A9,VBUS*%
%TO.N,VBUS*%
X121180000Y-57475000D03*
%TO.P,J2,A12,GND*%
%TO.N,GND*%
X121180000Y-58275000D03*
%TO.P,J2,B1,GND*%
X121180000Y-58275000D03*
%TO.P,J2,B4,VBUS*%
%TO.N,VBUS*%
X121180000Y-57475000D03*
D21*
%TO.P,J2,B5,CC2*%
%TO.N,/USB-C/CC2*%
X121180000Y-53775000D03*
%TO.P,J2,B6,D+*%
%TO.N,DI+*%
X121180000Y-55775000D03*
%TO.P,J2,B7,D-*%
%TO.N,DI-*%
X121180000Y-54275000D03*
%TO.P,J2,B8,SBU2*%
%TO.N,unconnected-(J2-PadB8)*%
X121180000Y-53275000D03*
D20*
%TO.P,J2,B9,VBUS*%
%TO.N,VBUS*%
X121180000Y-52575000D03*
%TO.P,J2,B12,GND*%
%TO.N,GND*%
X121180000Y-51775000D03*
D22*
%TO.P,J2,S1,SHIELD*%
X122095000Y-50705000D03*
D23*
X126275000Y-59345000D03*
X126275000Y-50705000D03*
D22*
X122095000Y-59345000D03*
%TD*%
D11*
%TO.P,D29,1,K*%
%TO.N,ROW5*%
X105775000Y-70825000D03*
D10*
X105775000Y-69874000D03*
%TO.P,D29,2,A*%
%TO.N,Net-(D29-Pad2)*%
X105775000Y-73176000D03*
D11*
X105775000Y-72225000D03*
%TD*%
%TO.P,D10,1,K*%
%TO.N,ROW4*%
X10525000Y-53775000D03*
D10*
X10525000Y-52824000D03*
D11*
%TO.P,D10,2,A*%
%TO.N,Net-(D10-Pad2)*%
X10525000Y-55175000D03*
D10*
X10525000Y-56126000D03*
%TD*%
%TO.P,D27,1,K*%
%TO.N,ROW3*%
X86725000Y-31774000D03*
D11*
X86725000Y-32725000D03*
%TO.P,D27,2,A*%
%TO.N,Net-(D27-Pad2)*%
X86725000Y-34125000D03*
D10*
X86725000Y-35076000D03*
%TD*%
D24*
%TO.P,J4,1,Pin_1*%
%TO.N,EXT_PWR*%
X108693750Y-11025000D03*
%TO.P,J4,2,Pin_2*%
%TO.N,LED*%
X108693750Y-13025000D03*
%TO.P,J4,3,Pin_3*%
%TO.N,GND*%
X108693750Y-15125000D03*
%TD*%
D11*
%TO.P,D11,1,K*%
%TO.N,ROW1*%
X46625000Y7275000D03*
D10*
X46625000Y8226000D03*
%TO.P,D11,2,A*%
%TO.N,Net-(D11-Pad2)*%
X46625000Y4924000D03*
D11*
X46625000Y5875000D03*
%TD*%
%TO.P,D24,1,K*%
%TO.N,ROW5*%
X86725000Y-70825000D03*
D10*
X86725000Y-69874000D03*
D11*
%TO.P,D24,2,A*%
%TO.N,Net-(D24-Pad2)*%
X86725000Y-72225000D03*
D10*
X86725000Y-73176000D03*
%TD*%
D12*
%TO.P,SW4,1,1*%
%TO.N,COL1*%
X-3810000Y-41640000D03*
D10*
X-8839200Y-40878000D03*
D14*
X-5809200Y-44180000D03*
D12*
X-2540000Y-44180000D03*
D10*
X-8839200Y-42402000D03*
X-7569200Y-44942000D03*
X-7569200Y-43418000D03*
%TO.P,SW4,2,2*%
%TO.N,Net-(D5-Pad2)*%
X7569200Y-44942000D03*
D12*
X2540000Y-44180000D03*
X3810000Y-41640000D03*
D10*
X8839200Y-42402000D03*
X8839200Y-40878000D03*
X7569200Y-43418000D03*
D25*
X7065700Y-41650000D03*
%TD*%
D14*
%TO.P,SW21,1,1*%
%TO.N,COL5*%
X70390800Y-40180000D03*
D12*
X73660000Y-40180000D03*
D10*
X67360800Y-36878000D03*
X68630800Y-39418000D03*
D12*
X72390000Y-37640000D03*
D10*
X67360800Y-38402000D03*
X68630800Y-40942000D03*
%TO.P,SW21,2,2*%
%TO.N,Net-(D22-Pad2)*%
X85039200Y-38402000D03*
X85039200Y-36878000D03*
X83769200Y-39418000D03*
D12*
X80010000Y-37640000D03*
D25*
X83265700Y-37650000D03*
D10*
X83769200Y-40942000D03*
D12*
X78740000Y-40180000D03*
%TD*%
D26*
%TO.P,R12,1*%
%TO.N,SDA*%
X122975000Y-11800000D03*
%TO.P,R12,2*%
%TO.N,VDD*%
X122975000Y-13450000D03*
%TD*%
D10*
%TO.P,SW18,1,1*%
%TO.N,COL4*%
X67360800Y-74978000D03*
X68630800Y-77518000D03*
D12*
X73660000Y-78280000D03*
D10*
X68630800Y-79042000D03*
D14*
X70390800Y-78280000D03*
D10*
X67360800Y-76502000D03*
D12*
X72390000Y-75740000D03*
D10*
%TO.P,SW18,2,2*%
%TO.N,Net-(D19-Pad2)*%
X83769200Y-77518000D03*
D25*
X83265700Y-75750000D03*
D12*
X78740000Y-78280000D03*
D10*
X83769200Y-79042000D03*
X85039200Y-76502000D03*
D12*
X80010000Y-75740000D03*
D10*
X85039200Y-74978000D03*
%TD*%
D14*
%TO.P,SW10,1,1*%
%TO.N,COL3*%
X32290800Y-1080000D03*
D10*
X30530800Y-1842000D03*
X29260800Y2222000D03*
D12*
X35560000Y-1080000D03*
D10*
X30530800Y-318000D03*
X29260800Y698000D03*
D12*
X34290000Y1460000D03*
D10*
%TO.P,SW10,2,2*%
%TO.N,Net-(D11-Pad2)*%
X45669200Y-1842000D03*
X46939200Y2222000D03*
D12*
X40640000Y-1080000D03*
X41910000Y1460000D03*
D10*
X46939200Y698000D03*
D25*
X45165700Y1450000D03*
D10*
X45669200Y-318000D03*
%TD*%
D27*
%TO.P,C12,1*%
%TO.N,VDD*%
X124925000Y-3250000D03*
%TO.P,C12,2*%
%TO.N,GND*%
X124925000Y-4800000D03*
%TD*%
D28*
%TO.P,U2,1,CTG*%
%TO.N,GND*%
X117987500Y-12625000D03*
%TO.P,U2,2,CELL*%
%TO.N,+BATT*%
X117987500Y-12125000D03*
%TO.P,U2,3,VDD*%
X117987500Y-11625000D03*
%TO.P,U2,4,GND*%
%TO.N,GND*%
X117987500Y-11125000D03*
%TO.P,U2,5,ALERT*%
%TO.N,ALERT*%
X119962500Y-11125000D03*
%TO.P,U2,6,QSTRT*%
%TO.N,GND*%
X119962500Y-11625000D03*
%TO.P,U2,7,SCL*%
%TO.N,SCL*%
X119962500Y-12125000D03*
%TO.P,U2,8,SDA*%
%TO.N,SDA*%
X119962500Y-12625000D03*
D29*
%TO.P,U2,9,GND*%
%TO.N,GND*%
X118975000Y-11875000D03*
%TD*%
D26*
%TO.P,R13,1*%
%TO.N,SCL*%
X121475000Y-11800000D03*
%TO.P,R13,2*%
%TO.N,VDD*%
X121475000Y-13450000D03*
%TD*%
D10*
%TO.P,SW11,1,1*%
%TO.N,COL3*%
X29260800Y-18352000D03*
D14*
X32290800Y-20130000D03*
D12*
X34290000Y-17590000D03*
X35560000Y-20130000D03*
D10*
X29260800Y-16828000D03*
X30530800Y-20892000D03*
X30530800Y-19368000D03*
%TO.P,SW11,2,2*%
%TO.N,Net-(D12-Pad2)*%
X45669200Y-20892000D03*
X45669200Y-19368000D03*
D25*
X45165700Y-17600000D03*
D10*
X46939200Y-18352000D03*
D12*
X41910000Y-17590000D03*
X40640000Y-20130000D03*
D10*
X46939200Y-16828000D03*
%TD*%
D14*
%TO.P,SW5,1,1*%
%TO.N,COL1*%
X-5809200Y-63230000D03*
D10*
X-7569200Y-62468000D03*
D12*
X-3810000Y-60690000D03*
D10*
X-8839200Y-59928000D03*
X-7569200Y-63992000D03*
X-8839200Y-61452000D03*
D12*
X-2540000Y-63230000D03*
D25*
%TO.P,SW5,2,2*%
%TO.N,Net-(D6-Pad2)*%
X7065700Y-60700000D03*
D10*
X7569200Y-62468000D03*
X7569200Y-63992000D03*
D12*
X2540000Y-63230000D03*
X3810000Y-60690000D03*
D10*
X8839200Y-61452000D03*
X8839200Y-59928000D03*
%TD*%
D12*
%TO.P,SW19,1,1*%
%TO.N,COL5*%
X73660000Y-2080000D03*
D14*
X70390800Y-2080000D03*
D10*
X67360800Y1222000D03*
X68630800Y-2842000D03*
D12*
X72390000Y460000D03*
D10*
X68630800Y-1318000D03*
X67360800Y-302000D03*
%TO.P,SW19,2,2*%
%TO.N,Net-(D20-Pad2)*%
X83769200Y-1318000D03*
D25*
X83265700Y450000D03*
D10*
X85039200Y-302000D03*
D12*
X78740000Y-2080000D03*
D10*
X85039200Y1222000D03*
X83769200Y-2842000D03*
D12*
X80010000Y460000D03*
%TD*%
%TO.P,SW23,1,1*%
%TO.N,COL5*%
X92710000Y-80280000D03*
X91440000Y-77740000D03*
D10*
X86410800Y-76978000D03*
X86410800Y-78502000D03*
X87680800Y-81042000D03*
X87680800Y-79518000D03*
D14*
X89440800Y-80280000D03*
D10*
%TO.P,SW23,2,2*%
%TO.N,Net-(D24-Pad2)*%
X102819200Y-81042000D03*
D12*
X97790000Y-80280000D03*
X99060000Y-77740000D03*
D25*
X102315700Y-77750000D03*
D10*
X104089200Y-78502000D03*
X102819200Y-79518000D03*
X104089200Y-76978000D03*
%TD*%
%TO.P,SW20,1,1*%
%TO.N,COL5*%
X67360800Y-19352000D03*
X67360800Y-17828000D03*
D12*
X73660000Y-21130000D03*
D10*
X68630800Y-21892000D03*
X68630800Y-20368000D03*
D14*
X70390800Y-21130000D03*
D12*
X72390000Y-18590000D03*
D10*
%TO.P,SW20,2,2*%
%TO.N,Net-(D21-Pad2)*%
X83769200Y-20368000D03*
X85039200Y-19352000D03*
X83769200Y-21892000D03*
D25*
X83265700Y-18600000D03*
D10*
X85039200Y-17828000D03*
D12*
X80010000Y-18590000D03*
X78740000Y-21130000D03*
%TD*%
D10*
%TO.P,SW28,1,1*%
%TO.N,COL6*%
X116221917Y-86094002D03*
D12*
X117854473Y-81223499D03*
D30*
X120003032Y-83665695D03*
D12*
X120576418Y-80413859D03*
D10*
X118943862Y-85284363D03*
X117722764Y-86358642D03*
X120444709Y-85549003D03*
%TO.P,SW28,2,2*%
%TO.N,Net-(D29-Pad2)*%
X120810228Y-68848760D03*
X121590260Y-70275893D03*
D12*
X119177672Y-73719264D03*
X121458551Y-75411036D03*
D10*
X123091107Y-70540533D03*
D30*
X119746370Y-70494018D03*
D10*
X119309381Y-68584121D03*
%TD*%
D31*
%TO.P,C3,1*%
%TO.N,+BATT*%
X118200000Y-13975000D03*
%TO.P,C3,2*%
%TO.N,GND*%
X119750000Y-13975000D03*
%TD*%
D10*
%TO.P,SW22,1,1*%
%TO.N,COL5*%
X67360800Y-57452000D03*
D12*
X72390000Y-56690000D03*
D14*
X70390800Y-59230000D03*
D10*
X67360800Y-55928000D03*
D12*
X73660000Y-59230000D03*
D10*
X68630800Y-58468000D03*
X68630800Y-59992000D03*
%TO.P,SW22,2,2*%
%TO.N,Net-(D23-Pad2)*%
X85039200Y-57452000D03*
X83769200Y-58468000D03*
X85039200Y-55928000D03*
D12*
X78740000Y-59230000D03*
D25*
X83265700Y-56700000D03*
D10*
X83769200Y-59992000D03*
D12*
X80010000Y-56690000D03*
%TD*%
D32*
%TO.P,U4,1,LF-P0.03*%
%TO.N,unconnected-(U4-Pad1)*%
X123375000Y6175000D03*
%TO.P,U4,2,LF-P0.02*%
%TO.N,unconnected-(U4-Pad2)*%
X123375000Y4975000D03*
%TO.P,U4,3,LF-P0.28*%
%TO.N,unconnected-(U4-Pad3)*%
X123375000Y3775000D03*
%TO.P,U4,4,LF-P0.29*%
%TO.N,unconnected-(U4-Pad4)*%
X123375000Y2575000D03*
%TO.P,U4,5,LF-P0.30*%
%TO.N,unconnected-(U4-Pad5)*%
X123375000Y1375000D03*
%TO.P,U4,6,LF-P0.31*%
%TO.N,unconnected-(U4-Pad6)*%
X123375000Y175000D03*
%TO.P,U4,7,P0.07*%
%TO.N,unconnected-(U4-Pad7)*%
X123375000Y-1025000D03*
%TO.P,U4,8,P0.05*%
%TO.N,unconnected-(U4-Pad8)*%
X123375000Y-2225000D03*
D33*
%TO.P,U4,9,VDD*%
%TO.N,VDD*%
X119385000Y-3135000D03*
D32*
X123375000Y-3425000D03*
%TO.P,U4,10,GND*%
%TO.N,GND*%
X123375000Y-4625000D03*
%TO.P,U4,11,P0.27*%
%TO.N,unconnected-(U4-Pad11)*%
X123375000Y-5825000D03*
%TO.P,U4,12,P0.26*%
%TO.N,unconnected-(U4-Pad12)*%
X123375000Y-7025000D03*
D34*
%TO.P,U4,13,P0.04*%
%TO.N,SDA*%
X122075000Y-8525000D03*
%TO.P,U4,14,P0.06*%
%TO.N,SCL*%
X120875000Y-8525000D03*
%TO.P,U4,15,P0.11*%
%TO.N,ALERT*%
X119675000Y-8525000D03*
%TO.P,U4,16,P0.08*%
%TO.N,EXT_PWR_EN*%
X118475000Y-8525000D03*
%TO.P,U4,17,LF-P0.09/NFC1*%
%TO.N,unconnected-(U4-Pad17)*%
X117275000Y-8525000D03*
%TO.P,U4,18,LF-P0.10/NFC2*%
%TO.N,unconnected-(U4-Pad18)*%
X116075000Y-8525000D03*
%TO.P,U4,19,SWDCLK*%
%TO.N,SWDCLK*%
X114875000Y-8525000D03*
D33*
X114675000Y-6695000D03*
D34*
%TO.P,U4,20,SWDIO*%
%TO.N,SWDIO*%
X113675000Y-8525000D03*
D33*
X113445000Y-6695000D03*
D34*
%TO.P,U4,21,P0.12*%
%TO.N,unconnected-(U4-Pad21)*%
X112475000Y-8525000D03*
%TO.P,U4,22,P0.13*%
%TO.N,unconnected-(U4-Pad22)*%
X111275000Y-8525000D03*
D35*
%TO.P,U4,23,P0.14*%
%TO.N,unconnected-(U4-Pad23)*%
X109975000Y-7025000D03*
%TO.P,U4,24,P0.15*%
%TO.N,unconnected-(U4-Pad24)*%
X109975000Y-5825000D03*
%TO.P,U4,25,P0.16*%
%TO.N,unconnected-(U4-Pad25)*%
X109975000Y-4625000D03*
%TO.P,U4,26,P0.17*%
%TO.N,unconnected-(U4-Pad26)*%
X109975000Y-3425000D03*
%TO.P,U4,27,P0.18/RESET*%
%TO.N,RESET*%
X109975000Y-2225000D03*
%TO.P,U4,28,P0.19*%
%TO.N,unconnected-(U4-Pad28)*%
X109975000Y-1025000D03*
%TO.P,U4,29,P0.20*%
%TO.N,unconnected-(U4-Pad29)*%
X109975000Y175000D03*
%TO.P,U4,30,P0.21*%
%TO.N,ROW5*%
X109975000Y1375000D03*
%TO.P,U4,31,P0.22*%
%TO.N,ROW4*%
X109975000Y2575000D03*
%TO.P,U4,32,P0.23*%
%TO.N,ROW3*%
X109975000Y3775000D03*
%TO.P,U4,33,P0.24*%
%TO.N,ROW2*%
X109975000Y4975000D03*
%TO.P,U4,34,P0.25*%
%TO.N,ROW1*%
X109975000Y6175000D03*
D36*
%TO.P,U4,35,LF-P1.10*%
%TO.N,unconnected-(U4-Pad35)*%
X121575000Y5575000D03*
%TO.P,U4,36,LF-P1.11*%
%TO.N,unconnected-(U4-Pad36)*%
X121575000Y4375000D03*
%TO.P,U4,37,LF-P1.12*%
%TO.N,unconnected-(U4-Pad37)*%
X121575000Y3175000D03*
%TO.P,U4,38,LF-P1.13*%
%TO.N,unconnected-(U4-Pad38)*%
X121575000Y1975000D03*
%TO.P,U4,39,GND*%
%TO.N,GND*%
X121575000Y775000D03*
%TO.P,U4,40,LF-P1.14*%
%TO.N,unconnected-(U4-Pad40)*%
X121575000Y-425000D03*
%TO.P,U4,41,LF-P1.15*%
%TO.N,unconnected-(U4-Pad41)*%
X121575000Y-1625000D03*
%TO.P,U4,42,VDDH*%
%TO.N,VDDH*%
X121575000Y-2825000D03*
%TO.P,U4,43,GND*%
%TO.N,GND*%
X121575000Y-4025000D03*
%TO.P,U4,44,P1.08*%
%TO.N,unconnected-(U4-Pad44)*%
X121575000Y-5225000D03*
%TO.P,U4,45,P1.09*%
%TO.N,unconnected-(U4-Pad45)*%
X121575000Y-6425000D03*
%TO.P,U4,46,VBUS*%
%TO.N,+5V*%
X111775000Y-6425000D03*
%TO.P,U4,47,USB-D-*%
%TO.N,DO-*%
X111775000Y-5225000D03*
%TO.P,U4,48,USB-D+*%
%TO.N,DO+*%
X111775000Y-4025000D03*
%TO.P,U4,49,P1.00*%
%TO.N,unconnected-(U4-Pad49)*%
X111775000Y-2825000D03*
%TO.P,U4,50,LF-P1.01*%
%TO.N,unconnected-(U4-Pad50)*%
X111775000Y-1625000D03*
%TO.P,U4,51,LF-P1.02*%
%TO.N,COL6*%
X111775000Y-425000D03*
%TO.P,U4,52,LF-P1.03*%
%TO.N,COL5*%
X111775000Y775000D03*
%TO.P,U4,53,LF-P1.04*%
%TO.N,COL4*%
X111775000Y1975000D03*
%TO.P,U4,54,LF-P1.05*%
%TO.N,COL3*%
X111775000Y3175000D03*
%TO.P,U4,55,LF-P1.06*%
%TO.N,COL2*%
X111775000Y4375000D03*
%TO.P,U4,56,LF-P1.07*%
%TO.N,COL1*%
X111775000Y5575000D03*
D33*
%TO.P,U4,57,GND*%
%TO.N,GND*%
X119005000Y-1055000D03*
%TD*%
D10*
%TO.P,SW2,1,1*%
%TO.N,COL1*%
X-8839200Y-2778000D03*
X-7569200Y-5318000D03*
D12*
X-3810000Y-3540000D03*
D14*
X-5809200Y-6080000D03*
D10*
X-8839200Y-4302000D03*
X-7569200Y-6842000D03*
D12*
X-2540000Y-6080000D03*
%TO.P,SW2,2,2*%
%TO.N,Net-(D3-Pad2)*%
X3810000Y-3540000D03*
D10*
X7569200Y-5318000D03*
X8839200Y-4302000D03*
D12*
X2540000Y-6080000D03*
D10*
X7569200Y-6842000D03*
D25*
X7065700Y-3550000D03*
D10*
X8839200Y-2778000D03*
%TD*%
%TO.P,SW3,1,1*%
%TO.N,COL1*%
X-8839200Y-21828000D03*
D14*
X-5809200Y-25130000D03*
D12*
X-2540000Y-25130000D03*
D10*
X-7569200Y-24368000D03*
X-7569200Y-25892000D03*
D12*
X-3810000Y-22590000D03*
D10*
X-8839200Y-23352000D03*
D12*
%TO.P,SW3,2,2*%
%TO.N,Net-(D4-Pad2)*%
X2540000Y-25130000D03*
D10*
X8839200Y-21828000D03*
X7569200Y-24368000D03*
D25*
X7065700Y-22600000D03*
D12*
X3810000Y-22590000D03*
D10*
X7569200Y-25892000D03*
X8839200Y-23352000D03*
%TD*%
D12*
%TO.P,SW12,1,1*%
%TO.N,COL3*%
X35560000Y-39180000D03*
D10*
X30530800Y-39942000D03*
X30530800Y-38418000D03*
D14*
X32290800Y-39180000D03*
D10*
X29260800Y-35878000D03*
X29260800Y-37402000D03*
D12*
X34290000Y-36640000D03*
D10*
%TO.P,SW12,2,2*%
%TO.N,Net-(D13-Pad2)*%
X45669200Y-39942000D03*
X46939200Y-35878000D03*
D12*
X41910000Y-36640000D03*
X40640000Y-39180000D03*
D10*
X46939200Y-37402000D03*
X45669200Y-38418000D03*
D25*
X45165700Y-36650000D03*
%TD*%
D10*
%TO.P,SW13,1,1*%
%TO.N,COL3*%
X30530800Y-57468000D03*
X30530800Y-58992000D03*
D12*
X34290000Y-55690000D03*
D10*
X29260800Y-54928000D03*
D14*
X32290800Y-58230000D03*
D10*
X29260800Y-56452000D03*
D12*
X35560000Y-58230000D03*
D25*
%TO.P,SW13,2,2*%
%TO.N,Net-(D14-Pad2)*%
X45165700Y-55700000D03*
D12*
X41910000Y-55690000D03*
D10*
X45669200Y-57468000D03*
X45669200Y-58992000D03*
X46939200Y-54928000D03*
X46939200Y-56452000D03*
D12*
X40640000Y-58230000D03*
%TD*%
D37*
%TO.N,+5V*%
X114825489Y-46499511D03*
X110575000Y-56925000D03*
%TO.N,GND*%
X116875497Y-53025000D03*
X123975000Y-29425000D03*
X120475000Y-43125000D03*
X118025000Y-1075000D03*
X121975497Y-14625000D03*
X116843750Y-13575000D03*
X116843739Y-11125000D03*
X111275001Y-38125000D03*
X121764093Y-39571212D03*
X117925000Y-45975000D03*
X110975000Y-35625000D03*
X112543750Y-14475000D03*
X112475000Y-44475000D03*
X123975000Y-38675000D03*
X111121636Y-40468274D03*
X116775000Y-51225000D03*
X116434902Y-54529401D03*
X118925000Y-37875000D03*
X115925000Y-35625000D03*
X126575000Y-34575000D03*
X122462948Y-46887548D03*
X117525000Y-4375497D03*
X118775000Y-10325000D03*
X116822673Y-14575744D03*
X126575000Y-32075000D03*
X118160592Y-5289002D03*
X126574500Y-42075000D03*
X122448514Y-48065032D03*
X125847168Y-4077832D03*
X116775000Y-58825000D03*
X108225000Y-58775000D03*
X119975000Y-59375000D03*
X120525000Y-14675000D03*
X125175000Y-21725000D03*
X119125000Y-4275000D03*
X114824896Y-45500008D03*
X119324982Y-53275500D03*
X109925000Y-44625000D03*
X119875000Y-51775000D03*
%TO.N,VBUS*%
X124375000Y-54025000D03*
D38*
%TO.N,Net-(R6-Pad1)*%
X122713593Y-39593593D03*
%TO.N,Net-(D1-Pad2)*%
X122024999Y-48858594D03*
%TO.N,SWDIO*%
X116625498Y-4374971D03*
%TO.N,SWDCLK*%
X117525000Y-5925497D03*
%TO.N,/Power Management/CHG*%
X123424999Y-46825000D03*
X111737968Y-41123437D03*
%TO.N,/USB-C/CC2*%
X117775000Y-53025000D03*
%TO.N,/USB-C/CC1*%
X117775000Y-57025000D03*
%TO.N,/Power Management/SYSOFF*%
X125625000Y-42075000D03*
D37*
%TO.N,VDD*%
X122975000Y-14625000D03*
D38*
%TO.N,DI-*%
X122375000Y-55775000D03*
%TO.N,DI+*%
X119325000Y-54175000D03*
%TO.N,EXT_PWR_EN*%
X116843749Y-15475000D03*
%TO.N,RESET*%
X124875000Y-29425000D03*
%TD*%
D39*
%TO.N,+5V*%
X110575000Y-50750000D02*
X114825489Y-46499511D01*
X110575000Y-56925000D02*
X110575000Y-50750000D01*
D40*
%TO.N,GND*%
X119975000Y-59375000D02*
X119975000Y-58675000D01*
D41*
X118422328Y-11125000D02*
X118975000Y-11677672D01*
D39*
X118775000Y-10325000D02*
X118975001Y-10525000D01*
D40*
X119875000Y-51775000D02*
X121180000Y-51775000D01*
D39*
X119004999Y-1055000D02*
X118045000Y-1055000D01*
D41*
X118422328Y-12625000D02*
X118975000Y-12072328D01*
D39*
X125847168Y-4077832D02*
X125125000Y-4800000D01*
D41*
X119962500Y-11625000D02*
X119225000Y-11625000D01*
X117987500Y-11125000D02*
X118422328Y-11125000D01*
D39*
X123375000Y-4625000D02*
X124400000Y-4625000D01*
D42*
X126575000Y-35950000D02*
X126575000Y-34575000D01*
D39*
X118975001Y-10525000D02*
X118975000Y-11875000D01*
D43*
X123975000Y-39405000D02*
X124395000Y-39824999D01*
D39*
X119750000Y-13900000D02*
X120525000Y-14675000D01*
X118045000Y-1055000D02*
X118025000Y-1075000D01*
D43*
X123975000Y-38675000D02*
X123975000Y-39405000D01*
D41*
X117987500Y-12625000D02*
X118422328Y-12625000D01*
X116843739Y-11125000D02*
X117987500Y-11125000D01*
D40*
X120375000Y-58274999D02*
X121180000Y-58275000D01*
X119975000Y-58675000D02*
X120375000Y-58274999D01*
D42*
X126575000Y-32075000D02*
X126575000Y-30700000D01*
D41*
%TO.N,+BATT*%
X117225000Y-12825000D02*
X117225000Y-12225000D01*
D44*
X118025000Y-13625000D02*
X118200000Y-13800000D01*
D41*
X117225000Y-12252672D02*
X117225000Y-11775000D01*
X117225000Y-11775000D02*
X117375000Y-11625000D01*
D44*
X118200000Y-13800000D02*
X118200000Y-18808500D01*
D41*
X117675000Y-13275000D02*
X117225000Y-12825000D01*
X117225000Y-12225000D02*
X117325000Y-12125000D01*
X117325000Y-12125000D02*
X117987500Y-12125000D01*
D39*
X117675000Y-13275000D02*
X118025000Y-13625000D01*
D44*
X118200000Y-18808500D02*
X117683500Y-19325000D01*
D41*
X117375000Y-11625000D02*
X117987500Y-11625000D01*
D39*
%TO.N,VBUS*%
X121180000Y-52575001D02*
X121969661Y-52575000D01*
X123309521Y-52909521D02*
X124375000Y-53975000D01*
X124375000Y-54025000D02*
X124375000Y-56125000D01*
X121969661Y-57475000D02*
X121180000Y-57475000D01*
X123359521Y-57140479D02*
X122304182Y-57140479D01*
X122304182Y-52909521D02*
X123309521Y-52909521D01*
X121969661Y-52575000D02*
X122304182Y-52909521D01*
X122304182Y-57140479D02*
X121969661Y-57475000D01*
X124375000Y-53975000D02*
X124375000Y-54025000D01*
X124375000Y-56125000D02*
X123359521Y-57140479D01*
D45*
%TO.N,ROW1*%
X30225000Y7275000D02*
X46625000Y7275000D01*
X56110901Y7275000D02*
X56179322Y7343421D01*
X82656579Y7343421D02*
X84725000Y5275000D01*
X10525000Y3275000D02*
X10525000Y4226000D01*
X48625000Y7275000D02*
X56110901Y7275000D01*
X46625000Y7275000D02*
X46625000Y8226000D01*
X8525000Y3275000D02*
X10525000Y3275000D01*
X86725000Y5275000D02*
X86725000Y6225999D01*
X56179322Y7343421D02*
X82656579Y7343421D01*
X84725000Y5275000D02*
X84725000Y6226000D01*
X26225000Y3275000D02*
X30225000Y7275000D01*
X10525000Y3275000D02*
X26225000Y3275000D01*
X84725000Y5275000D02*
X86725000Y5275000D01*
X86799000Y6300000D02*
X110475000Y6300000D01*
X46625000Y7275000D02*
X48625000Y7275000D01*
X8525000Y3275000D02*
X8525000Y4226000D01*
X48625000Y8226000D02*
X48625000Y7275000D01*
%TO.N,ROW2*%
X105475000Y2674999D02*
X107775000Y4975000D01*
X84725000Y-13725000D02*
X84725000Y-12774000D01*
X80575000Y-9575000D02*
X84725000Y-13725000D01*
X8525000Y-15725000D02*
X10525000Y-15725000D01*
X46625000Y-9575000D02*
X46625000Y-8624000D01*
X84725000Y-13725000D02*
X86725000Y-13725000D01*
X86725000Y-13725000D02*
X86725000Y-12774000D01*
X10525000Y-15725000D02*
X16675000Y-9575000D01*
X99575000Y-13725000D02*
X105475000Y-7825000D01*
X105475000Y-7825000D02*
X105475000Y2674999D01*
X8525000Y-15725000D02*
X8525000Y-14774000D01*
X86725000Y-13725000D02*
X99575000Y-13725000D01*
X16675000Y-9575000D02*
X46625000Y-9575000D01*
X107775000Y4975000D02*
X109975000Y4975000D01*
X48625000Y-9575000D02*
X80575000Y-9575000D01*
X46625000Y-9575000D02*
X48625000Y-9575000D01*
X48625000Y-9575000D02*
X48625000Y-8624000D01*
X10525000Y-15725000D02*
X10525000Y-14774000D01*
%TO.N,Net-(D3-Pad2)*%
X8525000Y-2090700D02*
X7065700Y-3550000D01*
X8525000Y1875000D02*
X8525000Y924000D01*
X8525000Y924000D02*
X8525000Y-2090700D01*
%TO.N,ROW3*%
X10525000Y-34725000D02*
X15525000Y-29725000D01*
X86725000Y-32725000D02*
X86725000Y-31774000D01*
X48625000Y-29725000D02*
X81725000Y-29725000D01*
X8525000Y-34725000D02*
X10525000Y-34725000D01*
X105874520Y-24375480D02*
X105874520Y1824520D01*
X48625000Y-29725000D02*
X48625000Y-28774000D01*
X46625000Y-29725000D02*
X48625000Y-29725000D01*
X84725000Y-32725000D02*
X86725000Y-32725000D01*
X10525000Y-34725000D02*
X10525000Y-33774000D01*
X8525000Y-34725000D02*
X8525000Y-33774000D01*
X86725000Y-32725000D02*
X97525000Y-32725000D01*
X81725000Y-29725000D02*
X84725000Y-32725000D01*
X46625000Y-29725000D02*
X46625000Y-28774000D01*
X15525000Y-29725000D02*
X46625000Y-29725000D01*
X105874520Y1824520D02*
X107825000Y3775000D01*
X84725000Y-32725000D02*
X84725000Y-31774000D01*
X97525000Y-32725000D02*
X105874520Y-24375480D01*
X107825000Y3775000D02*
X109975000Y3775000D01*
%TO.N,Net-(D4-Pad2)*%
X8525000Y-17125000D02*
X8525000Y-21140700D01*
X8525000Y-17125000D02*
X8525000Y-18076000D01*
X8525000Y-21140700D02*
X7065700Y-22600000D01*
%TO.N,ROW4*%
X84725000Y-51775000D02*
X86725000Y-51775000D01*
X46625000Y-48775000D02*
X46625000Y-47824000D01*
X99575000Y-51775000D02*
X104725481Y-46624519D01*
X84725000Y-51775000D02*
X84725000Y-50824000D01*
X86725000Y-51775000D02*
X86725000Y-50824000D01*
X48625000Y-48775000D02*
X48625000Y-47824000D01*
X106274040Y439046D02*
X108409994Y2575000D01*
X81724999Y-48775000D02*
X84725000Y-51775000D01*
X108409994Y2575000D02*
X109975000Y2575000D01*
X106274040Y-40476418D02*
X106274040Y439046D01*
X15525000Y-48775000D02*
X46625000Y-48775000D01*
X104725481Y-46624519D02*
X104725481Y-42024977D01*
X86725000Y-51775000D02*
X99575000Y-51775000D01*
X104725481Y-42024977D02*
X106274040Y-40476418D01*
X8525000Y-53775000D02*
X10525000Y-53775000D01*
X48625000Y-48775000D02*
X81724999Y-48775000D01*
X10525000Y-53775000D02*
X10525000Y-52824000D01*
X46625000Y-48775000D02*
X48625000Y-48775000D01*
X8525000Y-53775000D02*
X8525000Y-52824000D01*
X10525000Y-53775000D02*
X15525000Y-48775000D01*
%TO.N,Net-(D5-Pad2)*%
X8525000Y-40190700D02*
X7065700Y-41650000D01*
X8525000Y-37076000D02*
X8525000Y-40190700D01*
X8525000Y-36125000D02*
X8525000Y-37076000D01*
%TO.N,Net-(D6-Pad2)*%
X8525000Y-55175000D02*
X8525000Y-59240700D01*
X8525000Y-55175000D02*
X8525000Y-56126000D01*
X8525000Y-59240700D02*
X7065701Y-60700000D01*
%TO.N,Net-(D7-Pad2)*%
X10525000Y1875000D02*
X10525000Y924000D01*
X10525000Y-3364200D02*
X13240800Y-6080000D01*
X10525000Y924000D02*
X10525000Y-3364200D01*
%TO.N,Net-(D8-Pad2)*%
X10525000Y-17125000D02*
X10525000Y-18076000D01*
X10525000Y-22414200D02*
X13240800Y-25130000D01*
X10525000Y-17125000D02*
X10525000Y-22414200D01*
%TO.N,Net-(D9-Pad2)*%
X10525000Y-41464200D02*
X13240800Y-44180000D01*
X10525000Y-36125000D02*
X10525000Y-37076000D01*
X10525000Y-36125000D02*
X10525000Y-41464200D01*
%TO.N,Net-(D10-Pad2)*%
X10525000Y-55175000D02*
X10525000Y-60514200D01*
X10525000Y-60514200D02*
X13240800Y-63230000D01*
X10525000Y-55175000D02*
X10525000Y-56126000D01*
%TO.N,Net-(D11-Pad2)*%
X46625000Y5875000D02*
X46625000Y4924000D01*
X46625000Y3009300D02*
X45165700Y1550000D01*
X46625000Y5875000D02*
X46625000Y3009300D01*
%TO.N,Net-(D12-Pad2)*%
X46625000Y-10975000D02*
X46625000Y-11926000D01*
X46625000Y-10975000D02*
X46625000Y-16140700D01*
X46625000Y-16140700D02*
X45165699Y-17600000D01*
%TO.N,Net-(D13-Pad2)*%
X46625000Y-31125000D02*
X46625000Y-35190700D01*
X46625000Y-35190700D02*
X45165700Y-36650000D01*
X46625000Y-31125000D02*
X46625000Y-32076000D01*
%TO.N,Net-(D14-Pad2)*%
X46625000Y-50175001D02*
X46625000Y-54240700D01*
X46625000Y-50175001D02*
X46625000Y-51126000D01*
X46625000Y-54240700D02*
X45165700Y-55700000D01*
%TO.N,Net-(D15-Pad2)*%
X48625000Y2635800D02*
X51340800Y-80000D01*
X48625000Y5875000D02*
X48625000Y2635800D01*
X48625000Y5875000D02*
X48625000Y4924000D01*
%TO.N,Net-(D16-Pad2)*%
X48625000Y-16414200D02*
X51340800Y-19130000D01*
X48625000Y-10975000D02*
X48625000Y-11926000D01*
X48625000Y-10975000D02*
X48625000Y-16414200D01*
%TO.N,Net-(D17-Pad2)*%
X48625001Y-31125000D02*
X48625000Y-35464200D01*
X48625000Y-35464200D02*
X51340800Y-38180000D01*
X48625001Y-31125000D02*
X48625000Y-32076000D01*
%TO.N,ROW5*%
X105775000Y-69874000D02*
X104074999Y-68173999D01*
X106673559Y273559D02*
X107775000Y1375000D01*
X84725000Y-70825000D02*
X84725000Y-69874000D01*
X105125000Y-60375000D02*
X105125000Y-42190464D01*
X104074999Y-61425001D02*
X105125000Y-60375000D01*
X105775000Y-70825000D02*
X105775000Y-69874000D01*
X103225000Y-70825000D02*
X86725000Y-70825000D01*
X107775000Y1375000D02*
X109975000Y1375000D01*
X86725000Y-70825000D02*
X86725000Y-69874000D01*
X105125000Y-42190464D02*
X106673559Y-40641905D01*
X106673559Y-40641905D02*
X106673559Y273559D01*
X105775000Y-70825000D02*
X103225000Y-70825000D01*
X84725000Y-70825000D02*
X86725000Y-70825000D01*
X104074999Y-68173999D02*
X104074999Y-61425001D01*
%TO.N,Net-(D18-Pad2)*%
X48625000Y-50175000D02*
X48625000Y-54514200D01*
X48625000Y-54514200D02*
X51340800Y-57230000D01*
X48625000Y-50175000D02*
X48625000Y-51126000D01*
%TO.N,Net-(D20-Pad2)*%
X84725000Y1909301D02*
X83265700Y450000D01*
X84725000Y3875000D02*
X84725000Y1909301D01*
X84725000Y3875000D02*
X84725000Y2924000D01*
%TO.N,Net-(D21-Pad2)*%
X84725000Y-15125000D02*
X84725000Y-16076000D01*
X84725000Y-15125000D02*
X84725000Y-17140700D01*
X84725000Y-17140700D02*
X83265700Y-18600000D01*
%TO.N,Net-(D22-Pad2)*%
X84725000Y-36190700D02*
X83265700Y-37650000D01*
X84725000Y-34125000D02*
X84725000Y-35076000D01*
X84725000Y-34125000D02*
X84725000Y-36190700D01*
%TO.N,Net-(D23-Pad2)*%
X84725000Y-53175000D02*
X84725000Y-54126000D01*
X84725000Y-53175000D02*
X84725000Y-55240700D01*
X84725000Y-55240700D02*
X83265700Y-56700000D01*
%TO.N,Net-(D19-Pad2)*%
X84725000Y-74290700D02*
X83265700Y-75750000D01*
X84725000Y-72225000D02*
X84725000Y-74290700D01*
X84725000Y-72225000D02*
X84725000Y-73176000D01*
%TO.N,Net-(D25-Pad2)*%
X86725000Y3874999D02*
X86725000Y2924000D01*
X86725000Y-1364200D02*
X89440800Y-4080000D01*
X86725000Y3874999D02*
X86725000Y-1364200D01*
%TO.N,Net-(D26-Pad2)*%
X86725000Y-20414200D02*
X89440800Y-23130000D01*
X86725000Y-15125000D02*
X86725000Y-16076000D01*
X86725000Y-15125000D02*
X86725000Y-20414200D01*
%TO.N,Net-(D27-Pad2)*%
X86725000Y-34125000D02*
X86725000Y-39464200D01*
X86725000Y-34125000D02*
X86725000Y-35076000D01*
X86725000Y-39464200D02*
X89440800Y-42180000D01*
%TO.N,Net-(D28-Pad2)*%
X86725000Y-53175000D02*
X86725000Y-58514200D01*
X86725000Y-53175000D02*
X86725000Y-54126000D01*
X86725000Y-58514200D02*
X89440800Y-61230000D01*
D43*
%TO.N,Net-(R6-Pad1)*%
X123375000Y-44325000D02*
X123995000Y-44325000D01*
X122713593Y-39593593D02*
X122713593Y-43663593D01*
X122713593Y-43663593D02*
X123375000Y-44325000D01*
D46*
%TO.N,Net-(D1-Pad2)*%
X123691405Y-48858594D02*
X122024999Y-48858594D01*
X123974999Y-48575000D02*
X123691405Y-48858594D01*
D41*
%TO.N,ALERT*%
X119962500Y-11125000D02*
X119962500Y-10212500D01*
X119675000Y-9925000D02*
X119675000Y-8525000D01*
X119962500Y-10212500D02*
X119675000Y-9925000D01*
%TO.N,SDA*%
X122975000Y-11800000D02*
X122975001Y-9425000D01*
X119962500Y-12625000D02*
X122150000Y-12625000D01*
X122150000Y-12625000D02*
X122975000Y-11800000D01*
X122975001Y-9425000D02*
X122075000Y-8525000D01*
D45*
%TO.N,SWDIO*%
X113675000Y-8525000D02*
X113675000Y-6925000D01*
X116625498Y-4374971D02*
X115765029Y-4374971D01*
X115765029Y-4374971D02*
X113445000Y-6695000D01*
%TO.N,SWDCLK*%
X114875000Y-8524999D02*
X114875000Y-6895000D01*
X117525000Y-5925497D02*
X115444503Y-5925497D01*
X115444503Y-5925497D02*
X114675000Y-6695000D01*
%TO.N,Net-(D24-Pad2)*%
X86800000Y-72250000D02*
X100250000Y-72250000D01*
X100250000Y-72250000D02*
X102315701Y-74315700D01*
X86725000Y-72225000D02*
X86725000Y-73176000D01*
X102315701Y-74315700D02*
X102315700Y-77750000D01*
D47*
%TO.N,/Power Management/CHG*%
X125024999Y-46825000D02*
X126774999Y-48575000D01*
D41*
X120674999Y-44075000D02*
X114925000Y-44075000D01*
X114925000Y-44075000D02*
X111973437Y-41123437D01*
X123424999Y-46825000D02*
X120674999Y-44075000D01*
D46*
X123424999Y-46825000D02*
X125024999Y-46825000D01*
D41*
X111973437Y-41123437D02*
X111737968Y-41123437D01*
D45*
%TO.N,Net-(D29-Pad2)*%
X105775000Y-72225000D02*
X105775000Y-73176000D01*
X105775000Y-72225000D02*
X107775000Y-72225000D01*
X109505982Y-70494018D02*
X119746370Y-70494018D01*
X107775000Y-72225000D02*
X109505982Y-70494018D01*
%TO.N,/USB-C/CC2*%
X119035234Y-52575989D02*
X119614751Y-52575989D01*
X119614751Y-52575989D02*
X120024511Y-52985749D01*
X118586223Y-53025000D02*
X119035234Y-52575989D01*
X120205978Y-53775000D02*
X121180000Y-53775000D01*
X120024511Y-52985749D02*
X120024511Y-53593533D01*
X117775000Y-53025000D02*
X118586223Y-53025000D01*
X120024511Y-53593533D02*
X120205978Y-53775000D01*
%TO.N,/USB-C/CC1*%
X119025000Y-56775000D02*
X121180000Y-56775000D01*
X118775000Y-57025000D02*
X119025000Y-56775000D01*
X117775000Y-57025000D02*
X118775000Y-57025000D01*
D43*
%TO.N,/Power Management/SYSOFF*%
X124875000Y-42825000D02*
X125625000Y-42075000D01*
X124395000Y-42825000D02*
X124875000Y-42825000D01*
D39*
%TO.N,VDD*%
X126675000Y-9750000D02*
X126675000Y-3775000D01*
X121475000Y-13450000D02*
X122975000Y-13450000D01*
X122975000Y-14625000D02*
X122975000Y-13450000D01*
X126675000Y-3775000D02*
X126150000Y-3250000D01*
X122975000Y-13450000D02*
X126675000Y-9750000D01*
X126150000Y-3250000D02*
X124925000Y-3250000D01*
X123375001Y-3425000D02*
X124400000Y-3425000D01*
D48*
%TO.N,DI-*%
X122225000Y-54525000D02*
X122225000Y-55075000D01*
X122013762Y-55275000D02*
X121180000Y-55275000D01*
X122024999Y-55275000D02*
X122013762Y-55275000D01*
X121180000Y-54275000D02*
X121975000Y-54275000D01*
X121975000Y-54275000D02*
X122225000Y-54525000D01*
X122375000Y-55775000D02*
X122375000Y-55636238D01*
X122375000Y-55636238D02*
X122013762Y-55275000D01*
X122225000Y-55075000D02*
X122024999Y-55275000D01*
%TO.N,DI+*%
X120075000Y-54775000D02*
X121180000Y-54775000D01*
X121180000Y-55775000D02*
X120425000Y-55775000D01*
X120125000Y-54996238D02*
X120346238Y-54775000D01*
X119475000Y-54175000D02*
X120075000Y-54775000D01*
X120125000Y-55475000D02*
X120125000Y-54996238D01*
X120425000Y-55775000D02*
X120125000Y-55475000D01*
X119325000Y-54175000D02*
X119475000Y-54175000D01*
X120346238Y-54775000D02*
X121180000Y-54775000D01*
D46*
%TO.N,EXT_PWR_EN*%
X116774999Y-9675000D02*
X115975000Y-10475000D01*
X118475000Y-8525000D02*
X118475000Y-9275000D01*
X116425000Y-15475000D02*
X116843749Y-15475000D01*
X115975000Y-15025000D02*
X116425000Y-15475000D01*
X118475000Y-9275000D02*
X118075000Y-9675000D01*
X115975000Y-10475000D02*
X115975000Y-15025000D01*
X118075000Y-9675000D02*
X116774999Y-9675000D01*
D39*
%TO.N,RESET*%
X117200000Y-30700000D02*
X124875000Y-30700000D01*
X113575000Y-13625000D02*
X113575000Y-27075000D01*
D45*
X125275000Y-31100000D02*
X125275000Y-35550000D01*
D39*
X109725000Y-2225000D02*
X107975000Y-3975000D01*
X113575000Y-27075000D02*
X117200000Y-30700000D01*
X107975000Y-3975000D02*
X107975000Y-8025000D01*
D45*
X124875000Y-30700000D02*
X124875000Y-29425000D01*
D39*
X107975000Y-8025000D02*
X113575000Y-13625000D01*
D41*
%TO.N,SCL*%
X120875000Y-9625000D02*
X120875000Y-8525000D01*
X121475000Y-10225000D02*
X120875000Y-9625000D01*
X119962500Y-12125000D02*
X121150000Y-12125000D01*
X121475000Y-11800000D02*
X121475000Y-10225000D01*
X121150000Y-12125000D02*
X121475000Y-11800000D01*
%TD*%
M02*
