%TF.GenerationSoftware,KiCad,Pcbnew,(6.0.4)*%
%TF.CreationDate,2022-07-03T17:00:08-07:00*%
%TF.ProjectId,Athena54,41746865-6e61-4353-942e-6b696361645f,v1.0.0*%
%TF.SameCoordinates,Original*%
%TF.FileFunction,Soldermask,Bot*%
%TF.FilePolarity,Negative*%
%FSLAX46Y46*%
G04 Gerber Fmt 4.6, Leading zero omitted, Abs format (unit mm)*
G04 Created by KiCad (PCBNEW (6.0.4)) date 2022-07-03 17:00:08*
%MOMM*%
%LPD*%
G01*
G04 APERTURE LIST*
G04 Aperture macros list*
%AMRoundRect*
0 Rectangle with rounded corners*
0 $1 Rounding radius*
0 $2 $3 $4 $5 $6 $7 $8 $9 X,Y pos of 4 corners*
0 Add a 4 corners polygon primitive as box body*
4,1,4,$2,$3,$4,$5,$6,$7,$8,$9,$2,$3,0*
0 Add four circle primitives for the rounded corners*
1,1,$1+$1,$2,$3*
1,1,$1+$1,$4,$5*
1,1,$1+$1,$6,$7*
1,1,$1+$1,$8,$9*
0 Add four rect primitives between the rounded corners*
20,1,$1+$1,$2,$3,$4,$5,0*
20,1,$1+$1,$4,$5,$6,$7,0*
20,1,$1+$1,$6,$7,$8,$9,0*
20,1,$1+$1,$8,$9,$2,$3,0*%
%AMRotRect*
0 Rectangle, with rotation*
0 The origin of the aperture is its center*
0 $1 length*
0 $2 width*
0 $3 Rotation angle, in degrees counterclockwise*
0 Add horizontal line*
21,1,$1,$2,0,0,$3*%
G04 Aperture macros list end*
%ADD10C,5.500000*%
%ADD11RoundRect,0.050000X-0.350000X0.300000X-0.350000X-0.300000X0.350000X-0.300000X0.350000X0.300000X0*%
%ADD12C,1.850000*%
%ADD13C,4.087800*%
%ADD14R,2.550000X2.500000*%
%ADD15C,4.100000*%
%ADD16RoundRect,0.387500X-0.337500X0.337500X-0.337500X-0.337500X0.337500X-0.337500X0.337500X0.337500X0*%
%ADD17RoundRect,0.300000X-0.375000X-0.625000X0.375000X-0.625000X0.375000X0.625000X-0.375000X0.625000X0*%
%ADD18C,1.090600*%
%ADD19RoundRect,0.050000X0.400000X-0.500000X0.400000X0.500000X-0.400000X0.500000X-0.400000X-0.500000X0*%
%ADD20C,1.000000*%
%ADD21RoundRect,0.050000X0.750000X-0.350000X0.750000X0.350000X-0.750000X0.350000X-0.750000X-0.350000X0*%
%ADD22C,0.850000*%
%ADD23RoundRect,0.050000X0.500000X-0.775000X0.500000X0.775000X-0.500000X0.775000X-0.500000X-0.775000X0*%
%ADD24C,0.750000*%
%ADD25RoundRect,0.050000X0.725000X-0.300000X0.725000X0.300000X-0.725000X0.300000X-0.725000X-0.300000X0*%
%ADD26RoundRect,0.050000X0.725000X-0.150000X0.725000X0.150000X-0.725000X0.150000X-0.725000X-0.150000X0*%
%ADD27O,2.200000X1.100000*%
%ADD28O,1.700000X1.100000*%
%ADD29RoundRect,0.050000X-0.762000X-0.762000X0.762000X-0.762000X0.762000X0.762000X-0.762000X0.762000X0*%
%ADD30RoundRect,0.250000X-0.275000X0.200000X-0.275000X-0.200000X0.275000X-0.200000X0.275000X0.200000X0*%
%ADD31RoundRect,0.275000X-0.250000X0.225000X-0.250000X-0.225000X0.250000X-0.225000X0.250000X0.225000X0*%
%ADD32RoundRect,0.112500X-0.325000X-0.062500X0.325000X-0.062500X0.325000X0.062500X-0.325000X0.062500X0*%
%ADD33RoundRect,0.050000X-0.400000X-0.600000X0.400000X-0.600000X0.400000X0.600000X-0.400000X0.600000X0*%
%ADD34RotRect,2.550000X2.500000X80.000000*%
%ADD35RoundRect,0.275000X-0.225000X-0.250000X0.225000X-0.250000X0.225000X0.250000X-0.225000X0.250000X0*%
%ADD36RoundRect,0.250000X0.400000X0.200000X-0.400000X0.200000X-0.400000X-0.200000X0.400000X-0.200000X0*%
%ADD37C,1.100000*%
%ADD38RoundRect,0.250000X0.200000X-0.400000X0.200000X0.400000X-0.200000X0.400000X-0.200000X-0.400000X0*%
%ADD39RoundRect,0.250000X-0.400000X-0.200000X0.400000X-0.200000X0.400000X0.200000X-0.400000X0.200000X0*%
%ADD40RoundRect,0.250000X-0.300000X-0.200000X0.300000X-0.200000X0.300000X0.200000X-0.300000X0.200000X0*%
G04 APERTURE END LIST*
D10*
%TO.C,H4*%
X85725000Y-46625000D03*
%TD*%
D11*
%TO.C,D21*%
X84725000Y-13725000D03*
X84725000Y-15125000D03*
%TD*%
D12*
%TO.C,SW9*%
X24130000Y-58150000D03*
D13*
X19050000Y-58150000D03*
D14*
X13235000Y-63230000D03*
D12*
X13970000Y-58150000D03*
D14*
X26135000Y-60690000D03*
D15*
X21590000Y-63230000D03*
X22860000Y-60690000D03*
X16510000Y-63230000D03*
X15240000Y-60690000D03*
%TD*%
D10*
%TO.C,H5*%
X107775000Y-65675000D03*
%TD*%
D16*
%TO.C,J1*%
X117683500Y-19325000D03*
X115683500Y-19325000D03*
%TD*%
D13*
%TO.C,SW14*%
X57150000Y5000000D03*
D14*
X51335000Y-80000D03*
X64235000Y2460000D03*
D12*
X62230000Y5000000D03*
X52070000Y5000000D03*
D15*
X59690000Y-80000D03*
X60960000Y2460000D03*
X54610000Y-80000D03*
X53340000Y2460000D03*
%TD*%
D11*
%TO.C,D8*%
X10525000Y-15725000D03*
X10525000Y-17125000D03*
%TD*%
%TO.C,D4*%
X8525000Y-15725000D03*
X8525000Y-17125000D03*
%TD*%
D12*
%TO.C,SW25*%
X90170000Y-18050000D03*
D13*
X95250000Y-18050000D03*
D14*
X89435000Y-23130000D03*
X102335000Y-20590000D03*
D12*
X100330000Y-18050000D03*
D15*
X97790000Y-23130000D03*
X99060000Y-20590000D03*
X91440000Y-20590000D03*
X92710000Y-23130000D03*
%TD*%
D17*
%TO.C,D1*%
X126774999Y-48575000D03*
X123974999Y-48575000D03*
%TD*%
D10*
%TO.C,H3*%
X9525000Y-48625000D03*
%TD*%
D18*
%TO.C,J3*%
X125175000Y-15085000D03*
X126191000Y-20165000D03*
X124159000Y-20165000D03*
%TD*%
D11*
%TO.C,D17*%
X48625000Y-29725000D03*
X48625000Y-31125000D03*
%TD*%
%TO.C,D28*%
X86725001Y-51775000D03*
X86725001Y-53175000D03*
%TD*%
%TO.C,D6*%
X8525000Y-53775000D03*
X8525000Y-55175000D03*
%TD*%
%TO.C,D5*%
X8525000Y-34725000D03*
X8525000Y-36125000D03*
%TD*%
%TO.C,D9*%
X10525000Y-34725000D03*
X10525000Y-36125000D03*
%TD*%
%TO.C,D16*%
X48625000Y-9575000D03*
X48625000Y-10975000D03*
%TD*%
%TO.C,D18*%
X48625000Y-48775000D03*
X48625000Y-50175000D03*
%TD*%
%TO.C,D19*%
X84725000Y-70825000D03*
X84725000Y-72225000D03*
%TD*%
D19*
%TO.C,SW1*%
X125045000Y-45725000D03*
X127255000Y-45725000D03*
X125045000Y-38425000D03*
X127255000Y-38425000D03*
D20*
X126155000Y-40575000D03*
X126155000Y-43575000D03*
D21*
X124395000Y-39825000D03*
X124395000Y-42825000D03*
X124395000Y-44325000D03*
%TD*%
D11*
%TO.C,D20*%
X84725000Y5275001D03*
X84725000Y3875001D03*
%TD*%
D14*
%TO.C,SW6*%
X26135000Y-3540000D03*
D12*
X24130000Y-1000000D03*
D14*
X13235000Y-6080000D03*
D13*
X19050000Y-1000000D03*
D12*
X13970000Y-1000000D03*
D15*
X22860000Y-3540000D03*
X21590000Y-6080000D03*
X16510000Y-6080000D03*
X15240000Y-3540000D03*
%TD*%
D11*
%TO.C,D15*%
X48625000Y7275000D03*
X48625000Y5875000D03*
%TD*%
%TO.C,D12*%
X46625000Y-9575000D03*
X46625000Y-10975000D03*
%TD*%
D12*
%TO.C,SW24*%
X100330000Y1000000D03*
X90170000Y1000000D03*
D14*
X102335000Y-1540000D03*
X89435000Y-4080000D03*
D13*
X95250000Y1000000D03*
D15*
X97790000Y-4080000D03*
X99060000Y-1540000D03*
X91440000Y-1540000D03*
X92710000Y-4080000D03*
%TD*%
D12*
%TO.C,SW27*%
X90170000Y-56150000D03*
D13*
X95250000Y-56150000D03*
D14*
X89435000Y-61230000D03*
X102335000Y-58690000D03*
D12*
X100330000Y-56150000D03*
D15*
X97790000Y-61230000D03*
X99060000Y-58690000D03*
X91440000Y-58690000D03*
X92710000Y-61230000D03*
%TD*%
D14*
%TO.C,SW8*%
X13235000Y-44180000D03*
D13*
X19050000Y-39100000D03*
D12*
X13970000Y-39100000D03*
D14*
X26135000Y-41640000D03*
D12*
X24130000Y-39100000D03*
D15*
X22860000Y-41640000D03*
X21590000Y-44180000D03*
X15240000Y-41640000D03*
X16510000Y-44180000D03*
%TD*%
D11*
%TO.C,D22*%
X84725000Y-32725000D03*
X84725000Y-34125000D03*
%TD*%
D12*
%TO.C,SW16*%
X52070000Y-33100000D03*
D13*
X57150000Y-33100000D03*
D12*
X62230000Y-33100000D03*
D14*
X51335000Y-38180000D03*
X64235000Y-35640000D03*
D15*
X59690000Y-38180000D03*
X60960000Y-35640000D03*
X53340000Y-35640000D03*
X54610000Y-38180000D03*
%TD*%
D13*
%TO.C,SW7*%
X19050000Y-20050000D03*
D14*
X13235000Y-25130000D03*
D12*
X24130000Y-20050000D03*
X13970000Y-20050000D03*
D14*
X26135000Y-22590000D03*
D15*
X21590000Y-25130000D03*
X22860000Y-22590000D03*
X16510000Y-25130000D03*
X15240000Y-22590000D03*
%TD*%
D11*
%TO.C,D3*%
X8525000Y3275000D03*
X8525000Y1875000D03*
%TD*%
%TO.C,D23*%
X84725000Y-51775000D03*
X84725000Y-53175000D03*
%TD*%
D12*
%TO.C,SW15*%
X52070000Y-14050000D03*
D13*
X57150000Y-14050000D03*
D14*
X64235000Y-16590000D03*
D12*
X62230000Y-14050000D03*
D14*
X51335000Y-19130000D03*
D15*
X59690000Y-19130000D03*
X60960000Y-16590000D03*
X53340000Y-16590000D03*
X54610000Y-19130000D03*
%TD*%
D11*
%TO.C,D13*%
X46625000Y-29725000D03*
X46625000Y-31125000D03*
%TD*%
%TO.C,D7*%
X10525000Y3275000D03*
X10525000Y1875000D03*
%TD*%
%TO.C,D26*%
X86725000Y-13725000D03*
X86725000Y-15125000D03*
%TD*%
%TO.C,D14*%
X46625000Y-48775000D03*
X46625000Y-50175000D03*
%TD*%
%TO.C,D25*%
X86725000Y5275000D03*
X86725000Y3875000D03*
%TD*%
D14*
%TO.C,SW17*%
X64235000Y-54690000D03*
X51335000Y-57230000D03*
D13*
X57150000Y-52150000D03*
D12*
X52070000Y-52150000D03*
X62230000Y-52150000D03*
D15*
X60960000Y-54690000D03*
X59690000Y-57230000D03*
X54610000Y-57230000D03*
X53340000Y-54690000D03*
%TD*%
D10*
%TO.C,H1*%
X9525000Y-10525000D03*
%TD*%
D13*
%TO.C,SW26*%
X95250000Y-37100001D03*
D14*
X89435000Y-42180001D03*
D12*
X100330000Y-37100001D03*
D14*
X102335000Y-39640001D03*
D12*
X90170000Y-37100001D03*
D15*
X99060000Y-39640001D03*
X97790000Y-42180001D03*
X92710000Y-42180001D03*
X91440000Y-39640001D03*
%TD*%
D22*
%TO.C,SW29*%
X124350000Y-33325000D03*
X127100000Y-33325000D03*
D23*
X126575000Y-30700000D03*
X126575000Y-35950000D03*
X124875000Y-35950000D03*
X124875000Y-30700000D03*
%TD*%
D24*
%TO.C,J2*%
X121125000Y-52135000D03*
X121125000Y-57915000D03*
D25*
X119680000Y-51775000D03*
X119680000Y-52575000D03*
D26*
X119680000Y-56775000D03*
X119680000Y-54775000D03*
X119680000Y-55275000D03*
X119680000Y-56275000D03*
D25*
X119680000Y-57475000D03*
X119680000Y-58275000D03*
X119680000Y-58275000D03*
X119680000Y-57475000D03*
D26*
X119680000Y-53775000D03*
X119680000Y-55775000D03*
X119680000Y-54275000D03*
X119680000Y-53275000D03*
D25*
X119680000Y-52575000D03*
X119680000Y-51775000D03*
D27*
X120595000Y-50705000D03*
D28*
X124775000Y-59345000D03*
X124775000Y-50705000D03*
D27*
X120595000Y-59345000D03*
%TD*%
D11*
%TO.C,D29*%
X105775000Y-70825000D03*
X105775000Y-72225000D03*
%TD*%
%TO.C,D10*%
X10525000Y-53775000D03*
X10525000Y-55175000D03*
%TD*%
%TO.C,D27*%
X86725000Y-32725000D03*
X86725000Y-34125000D03*
%TD*%
D29*
%TO.C,J4*%
X108693750Y-11025000D03*
X108693750Y-13025000D03*
X108693750Y-15125000D03*
%TD*%
D10*
%TO.C,H2*%
X85725000Y-8525000D03*
%TD*%
D11*
%TO.C,D11*%
X46625000Y7275000D03*
X46625000Y5875000D03*
%TD*%
%TO.C,D24*%
X86725000Y-70825000D03*
X86725000Y-72225000D03*
%TD*%
D14*
%TO.C,SW4*%
X7085000Y-41640000D03*
D12*
X-5080000Y-39100000D03*
D14*
X-5815000Y-44180000D03*
D13*
X0Y-39100000D03*
D12*
X5080000Y-39100000D03*
D15*
X-3810000Y-41640000D03*
X-2540000Y-44180000D03*
X2540000Y-44180000D03*
X3810000Y-41640000D03*
%TD*%
D12*
%TO.C,SW21*%
X71120000Y-35100000D03*
D13*
X76200000Y-35100000D03*
D14*
X83285000Y-37640000D03*
D12*
X81280000Y-35100000D03*
D14*
X70385000Y-40180000D03*
D15*
X73660000Y-40180000D03*
X72390000Y-37640000D03*
X80010000Y-37640000D03*
X78740000Y-40180000D03*
%TD*%
D30*
%TO.C,R12*%
X122975000Y-11800000D03*
X122975000Y-13450000D03*
%TD*%
D12*
%TO.C,SW18*%
X81280000Y-73200000D03*
D14*
X70385000Y-78280000D03*
X83285000Y-75740000D03*
D13*
X76200000Y-73200000D03*
D12*
X71120000Y-73200000D03*
D15*
X73660000Y-78280000D03*
X72390000Y-75740000D03*
X78740000Y-78280000D03*
X80010000Y-75740000D03*
%TD*%
D12*
%TO.C,SW10*%
X33020000Y4000000D03*
D13*
X38100000Y4000000D03*
D14*
X32285000Y-1080000D03*
X45185000Y1460000D03*
D12*
X43180000Y4000000D03*
D15*
X35560000Y-1080000D03*
X34290000Y1460000D03*
X40640000Y-1080000D03*
X41910000Y1460000D03*
%TD*%
D31*
%TO.C,C12*%
X124925000Y-3250000D03*
X124925000Y-4800000D03*
%TD*%
D32*
%TO.C,U2*%
X117987500Y-12625000D03*
X117987500Y-12125000D03*
X117987500Y-11625000D03*
X117987500Y-11125000D03*
X119962500Y-11125000D03*
X119962500Y-11625000D03*
X119962500Y-12125000D03*
X119962500Y-12625000D03*
D33*
X118975000Y-11875000D03*
%TD*%
D30*
%TO.C,R13*%
X121475000Y-11800000D03*
X121475000Y-13450000D03*
%TD*%
D14*
%TO.C,SW11*%
X32285000Y-20130000D03*
X45185000Y-17590000D03*
D13*
X38100000Y-15050000D03*
D12*
X43180000Y-15050000D03*
X33020000Y-15050000D03*
D15*
X34290000Y-17590000D03*
X35560000Y-20130000D03*
X41910000Y-17590000D03*
X40640000Y-20130000D03*
%TD*%
D12*
%TO.C,SW5*%
X5080000Y-58150000D03*
D13*
X0Y-58150000D03*
D14*
X-5815000Y-63230000D03*
D12*
X-5080000Y-58150000D03*
D14*
X7085000Y-60690000D03*
D15*
X-3810000Y-60690000D03*
X-2540000Y-63230000D03*
X2540000Y-63230000D03*
X3810000Y-60690000D03*
%TD*%
D14*
%TO.C,SW19*%
X83285000Y460000D03*
D12*
X71120000Y3000000D03*
X81280000Y3000000D03*
D13*
X76200000Y3000000D03*
D14*
X70385000Y-2080000D03*
D15*
X73660000Y-2080000D03*
X72390000Y460000D03*
X78740000Y-2080000D03*
X80010000Y460000D03*
%TD*%
D12*
%TO.C,SW23*%
X100330000Y-75200000D03*
D14*
X89435000Y-80280000D03*
D13*
X95250000Y-75200000D03*
D14*
X102335000Y-77740000D03*
D12*
X90170000Y-75200000D03*
D15*
X92710000Y-80280000D03*
X91440000Y-77740000D03*
X97790000Y-80280000D03*
X99060000Y-77740000D03*
%TD*%
D14*
%TO.C,SW20*%
X70385000Y-21130000D03*
X83285000Y-18590000D03*
D12*
X71120000Y-16050000D03*
D13*
X76200000Y-16050000D03*
D12*
X81280000Y-16050000D03*
D15*
X73660000Y-21130000D03*
X72390000Y-18590000D03*
X80010000Y-18590000D03*
X78740000Y-21130000D03*
%TD*%
D12*
%TO.C,SW28*%
X115132528Y-82033138D03*
D34*
X120007720Y-83639105D03*
X119746370Y-70494018D03*
D12*
X116896794Y-72027492D03*
D13*
X116014661Y-77030315D03*
D15*
X117854473Y-81223499D03*
X120576418Y-80413859D03*
X119177672Y-73719264D03*
X121458551Y-75411036D03*
%TD*%
D35*
%TO.C,C3*%
X118200000Y-13975000D03*
X119750000Y-13975000D03*
%TD*%
D12*
%TO.C,SW22*%
X81280000Y-54150000D03*
D14*
X70385000Y-59230000D03*
D12*
X71120000Y-54150000D03*
D14*
X83285000Y-56690000D03*
D13*
X76200000Y-54150000D03*
D15*
X72390000Y-56690000D03*
X73660000Y-59230000D03*
X78740000Y-59230000D03*
X80010000Y-56690000D03*
%TD*%
D36*
%TO.C,U4*%
X123375000Y6175000D03*
X123375000Y4975000D03*
X123375000Y3775000D03*
X123375000Y2575000D03*
X123375000Y1375000D03*
X123375000Y175000D03*
X123375000Y-1025000D03*
X123375000Y-2225000D03*
D37*
X119385000Y-3135000D03*
D36*
X123375000Y-3425000D03*
X123375000Y-4625000D03*
X123375000Y-5825000D03*
X123375000Y-7025000D03*
D38*
X122075000Y-8525000D03*
X120875000Y-8525000D03*
X119675000Y-8525000D03*
X118475000Y-8525000D03*
X117275000Y-8525000D03*
X116075000Y-8525000D03*
X114875000Y-8525000D03*
D37*
X114675000Y-6695000D03*
D38*
X113675000Y-8525000D03*
D37*
X113445000Y-6695000D03*
D38*
X112475000Y-8525000D03*
X111275000Y-8525000D03*
D39*
X109975000Y-7025000D03*
X109975000Y-5825000D03*
X109975000Y-4625000D03*
X109975000Y-3425000D03*
X109975000Y-2225000D03*
X109975000Y-1025000D03*
X109975000Y175000D03*
X109975000Y1375000D03*
X109975000Y2575000D03*
X109975000Y3775000D03*
X109975000Y4975000D03*
X109975000Y6175000D03*
D40*
X121575000Y5575000D03*
X121575000Y4375000D03*
X121575000Y3175000D03*
X121575000Y1975000D03*
X121575000Y775000D03*
X121575000Y-425000D03*
X121575000Y-1625000D03*
X121575000Y-2825000D03*
X121575000Y-4025000D03*
X121575000Y-5225000D03*
X121575000Y-6425000D03*
X111775000Y-6425000D03*
X111775000Y-5225000D03*
X111775000Y-4025000D03*
X111775000Y-2825000D03*
X111775000Y-1625000D03*
X111775000Y-425000D03*
X111775000Y775000D03*
X111775000Y1975000D03*
X111775000Y3175000D03*
X111775000Y4375000D03*
X111775000Y5575000D03*
D37*
X119005000Y-1055000D03*
%TD*%
D12*
%TO.C,SW2*%
X-5080000Y-1000000D03*
D13*
X0Y-1000000D03*
D12*
X5080000Y-1000000D03*
D14*
X7085000Y-3540000D03*
X-5815000Y-6080000D03*
D15*
X-3810000Y-3540000D03*
X-2540000Y-6080000D03*
X3810000Y-3540000D03*
X2540000Y-6080000D03*
%TD*%
D12*
%TO.C,SW3*%
X-5080000Y-20050000D03*
D14*
X-5815000Y-25130000D03*
D13*
X0Y-20050000D03*
D12*
X5080000Y-20050000D03*
D14*
X7085000Y-22590000D03*
D15*
X-2540000Y-25130000D03*
X-3810000Y-22590000D03*
X2540000Y-25130000D03*
X3810000Y-22590000D03*
%TD*%
D12*
%TO.C,SW12*%
X43180000Y-34100000D03*
X33020000Y-34100000D03*
D14*
X32285000Y-39180000D03*
D13*
X38100000Y-34100000D03*
D14*
X45185000Y-36640000D03*
D15*
X35560000Y-39180000D03*
X34290000Y-36640000D03*
X41910000Y-36640000D03*
X40640000Y-39180000D03*
%TD*%
D14*
%TO.C,SW13*%
X45185000Y-55690000D03*
X32285000Y-58230000D03*
D13*
X38100000Y-53150000D03*
D12*
X33020000Y-53150000D03*
X43180000Y-53150000D03*
D15*
X34290000Y-55690000D03*
X35560000Y-58230000D03*
X41910000Y-55690000D03*
X40640000Y-58230000D03*
%TD*%
M02*
