%TF.GenerationSoftware,KiCad,Pcbnew,(6.0.4)*%
%TF.CreationDate,2022-07-09T21:53:42-07:00*%
%TF.ProjectId,Athena54,41746865-6e61-4353-942e-6b696361645f,v1.0.0*%
%TF.SameCoordinates,Original*%
%TF.FileFunction,Soldermask,Top*%
%TF.FilePolarity,Negative*%
%FSLAX46Y46*%
G04 Gerber Fmt 4.6, Leading zero omitted, Abs format (unit mm)*
G04 Created by KiCad (PCBNEW (6.0.4)) date 2022-07-09 21:53:42*
%MOMM*%
%LPD*%
G01*
G04 APERTURE LIST*
G04 Aperture macros list*
%AMRoundRect*
0 Rectangle with rounded corners*
0 $1 Rounding radius*
0 $2 $3 $4 $5 $6 $7 $8 $9 X,Y pos of 4 corners*
0 Add a 4 corners polygon primitive as box body*
4,1,4,$2,$3,$4,$5,$6,$7,$8,$9,$2,$3,0*
0 Add four circle primitives for the rounded corners*
1,1,$1+$1,$2,$3*
1,1,$1+$1,$4,$5*
1,1,$1+$1,$6,$7*
1,1,$1+$1,$8,$9*
0 Add four rect primitives between the rounded corners*
20,1,$1+$1,$2,$3,$4,$5,0*
20,1,$1+$1,$4,$5,$6,$7,0*
20,1,$1+$1,$6,$7,$8,$9,0*
20,1,$1+$1,$8,$9,$2,$3,0*%
%AMRotRect*
0 Rectangle, with rotation*
0 The origin of the aperture is its center*
0 $1 length*
0 $2 width*
0 $3 Rotation angle, in degrees counterclockwise*
0 Add horizontal line*
21,1,$1,$2,0,0,$3*%
G04 Aperture macros list end*
%ADD10C,4.400000*%
%ADD11RoundRect,0.050000X-0.300000X-0.350000X0.300000X-0.350000X0.300000X0.350000X-0.300000X0.350000X0*%
%ADD12C,4.100000*%
%ADD13R,2.550000X2.500000*%
%ADD14C,1.850000*%
%ADD15C,4.087800*%
%ADD16RoundRect,0.155000X0.245000X0.445000X-0.245000X0.445000X-0.245000X-0.445000X0.245000X-0.445000X0*%
%ADD17RoundRect,0.140000X0.535000X-0.210000X0.535000X0.210000X-0.535000X0.210000X-0.535000X-0.210000X0*%
%ADD18C,0.950000*%
%ADD19RoundRect,0.185000X0.185000X-0.135000X0.185000X0.135000X-0.185000X0.135000X-0.185000X-0.135000X0*%
%ADD20RoundRect,0.050000X0.500000X-0.775000X0.500000X0.775000X-0.500000X0.775000X-0.500000X-0.775000X0*%
%ADD21C,0.850000*%
%ADD22RoundRect,0.190000X0.140000X0.170000X-0.140000X0.170000X-0.140000X-0.170000X0.140000X-0.170000X0*%
%ADD23O,2.200000X1.100000*%
%ADD24O,1.700000X1.100000*%
%ADD25RoundRect,0.050000X0.725000X-0.300000X0.725000X0.300000X-0.725000X0.300000X-0.725000X-0.300000X0*%
%ADD26RoundRect,0.050000X0.725000X-0.150000X0.725000X0.150000X-0.725000X0.150000X-0.725000X-0.150000X0*%
%ADD27C,0.750000*%
%ADD28RoundRect,0.050000X0.260428X-0.380364X0.415720X0.199191X-0.260428X0.380364X-0.415720X-0.199191X0*%
%ADD29RoundRect,0.300000X0.375000X0.625000X-0.375000X0.625000X-0.375000X-0.625000X0.375000X-0.625000X0*%
%ADD30C,0.887400*%
%ADD31C,1.090600*%
%ADD32RoundRect,0.050000X0.762000X0.762000X-0.762000X0.762000X-0.762000X-0.762000X0.762000X-0.762000X0*%
%ADD33RotRect,2.550000X2.500000X255.000000*%
%ADD34RotRect,2.550000X2.500000X75.000000*%
%ADD35RoundRect,0.387500X-0.337500X0.337500X-0.337500X-0.337500X0.337500X-0.337500X0.337500X0.337500X0*%
G04 APERTURE END LIST*
D10*
%TO.C,H4*%
X85725000Y-46624999D03*
%TD*%
D11*
%TO.C,D21*%
X75500000Y-12050000D03*
X76900000Y-12050000D03*
%TD*%
D12*
%TO.C,SW9*%
X16510000Y-64230000D03*
X15240000Y-61690000D03*
X21590000Y-64230000D03*
X22860000Y-61690000D03*
D13*
X11965000Y-61690000D03*
D14*
X24130000Y-59150000D03*
X13970000Y-59150000D03*
D13*
X24865000Y-64230000D03*
X11965000Y-61690000D03*
D15*
X19050000Y-59150000D03*
%TD*%
D12*
%TO.C,SW14*%
X53340000Y2460000D03*
X54610000Y-80000D03*
X59690000Y-80000D03*
X60960000Y2460000D03*
D15*
X57150000Y5000000D03*
D14*
X62230000Y5000000D03*
D13*
X50065000Y2460000D03*
D14*
X52070000Y5000000D03*
D13*
X62965000Y-80000D03*
X50065000Y2460000D03*
%TD*%
D11*
%TO.C,D8*%
X18350000Y-17050001D03*
X19750000Y-17050001D03*
%TD*%
%TO.C,D4*%
X-700000Y-17050000D03*
X700000Y-17050000D03*
%TD*%
D12*
%TO.C,SW4*%
X-3810000Y-42640000D03*
X-2540000Y-45180000D03*
X3810000Y-42640000D03*
X2540000Y-45180000D03*
D15*
X0Y-40100000D03*
D14*
X5080000Y-40100000D03*
D13*
X-7085000Y-42640000D03*
X5815000Y-45180000D03*
X-7085000Y-42640000D03*
D14*
X-5080000Y-40100000D03*
%TD*%
D12*
%TO.C,SW25*%
X92710000Y-23130000D03*
X91440000Y-20590000D03*
X99060000Y-20590000D03*
X97790000Y-23130000D03*
D15*
X95250000Y-18050000D03*
D13*
X101065000Y-23130000D03*
X88165000Y-20590000D03*
D14*
X90170000Y-18050000D03*
D13*
X88165000Y-20590000D03*
D14*
X100330000Y-18050000D03*
%TD*%
D12*
%TO.C,SW21*%
X72390000Y-37640000D03*
X73660000Y-40180000D03*
X78740000Y-40180000D03*
X80010000Y-37640000D03*
D14*
X71120000Y-35100000D03*
D13*
X69115000Y-37640000D03*
D15*
X76200000Y-35100000D03*
D13*
X82015000Y-40180000D03*
D14*
X81280000Y-35100000D03*
D13*
X69115000Y-37640000D03*
%TD*%
D16*
%TO.C,SW1*%
X117800000Y-23775000D03*
X120100000Y-31175000D03*
X117800000Y-31175000D03*
X120100000Y-23775000D03*
D17*
X116950000Y-25225000D03*
X116950000Y-26725000D03*
X116950000Y-29725000D03*
D18*
X118950000Y-25975000D03*
X118950000Y-28975000D03*
%TD*%
D19*
%TO.C,R12*%
X112950000Y-390000D03*
X112950000Y-1410000D03*
%TD*%
D10*
%TO.C,H3*%
X9525000Y-49625000D03*
%TD*%
D11*
%TO.C,D17*%
X56450000Y-29100000D03*
X57850000Y-29100000D03*
%TD*%
%TO.C,D28*%
X94550000Y-52150000D03*
X95950000Y-52150000D03*
%TD*%
%TO.C,D6*%
X-700000Y-55150000D03*
X700000Y-55150000D03*
%TD*%
%TO.C,D5*%
X-699999Y-36100000D03*
X700001Y-36100000D03*
%TD*%
D12*
%TO.C,SW18*%
X64135000Y-78280000D03*
X62865000Y-75740000D03*
X69215000Y-78280000D03*
X70485000Y-75740000D03*
D15*
X66675000Y-73200000D03*
D13*
X59590000Y-75740000D03*
X59590000Y-75740000D03*
D14*
X61595000Y-73200000D03*
X71755000Y-73200000D03*
D13*
X72490000Y-78280000D03*
%TD*%
D11*
%TO.C,D9*%
X18350000Y-36100001D03*
X19750000Y-36100001D03*
%TD*%
%TO.C,D16*%
X56450000Y-10050000D03*
X57850000Y-10050000D03*
%TD*%
D12*
%TO.C,SW10*%
X35560000Y-2080000D03*
X34290000Y460000D03*
X40640000Y-2080000D03*
X41910000Y460000D03*
D13*
X31015000Y460000D03*
X31015000Y460000D03*
D14*
X43180000Y3000000D03*
D13*
X43915000Y-2080000D03*
D14*
X33020000Y3000000D03*
D15*
X38100000Y3000000D03*
%TD*%
D11*
%TO.C,D18*%
X56450000Y-48150000D03*
X57850000Y-48150000D03*
%TD*%
%TO.C,D19*%
X65975000Y-69200000D03*
X67375000Y-69200000D03*
%TD*%
%TO.C,D20*%
X75500000Y7000000D03*
X76900000Y7000000D03*
%TD*%
D12*
%TO.C,SW6*%
X16510000Y-7080000D03*
X15240000Y-4540000D03*
X22860000Y-4540000D03*
X21590000Y-7080000D03*
D13*
X11965000Y-4540000D03*
D14*
X13970000Y-2000000D03*
X24130000Y-2000000D03*
D13*
X11965000Y-4540000D03*
X24865000Y-7080000D03*
D15*
X19050000Y-2000000D03*
%TD*%
D12*
%TO.C,SW11*%
X34290000Y-18590000D03*
X35560000Y-21130000D03*
X40640000Y-21130000D03*
X41910000Y-18590000D03*
D14*
X33020000Y-16050000D03*
X43180000Y-16050000D03*
D15*
X38100000Y-16050000D03*
D13*
X43915000Y-21130000D03*
X31015000Y-18590000D03*
X31015000Y-18590000D03*
%TD*%
D20*
%TO.C,SW29*%
X117825000Y-40100000D03*
X117825000Y-34850000D03*
X119525000Y-34850000D03*
X119525000Y-40100000D03*
D21*
X117300000Y-37475000D03*
X120050000Y-37475000D03*
%TD*%
D11*
%TO.C,D15*%
X56450000Y9000000D03*
X57850000Y9000000D03*
%TD*%
%TO.C,D12*%
X37399999Y-12050000D03*
X38799999Y-12050000D03*
%TD*%
D12*
%TO.C,SW24*%
X91440000Y-1540000D03*
X92710000Y-4080000D03*
X99060000Y-1540000D03*
X97790000Y-4080000D03*
D14*
X90170000Y1000000D03*
D13*
X88165000Y-1540000D03*
D15*
X95250000Y1000000D03*
D13*
X101065000Y-4080000D03*
X88165000Y-1540000D03*
D14*
X100330000Y1000000D03*
%TD*%
D12*
%TO.C,SW27*%
X92710000Y-61230000D03*
X91440000Y-58690000D03*
X97790000Y-61230000D03*
X99060000Y-58690000D03*
D13*
X88165000Y-58690000D03*
D15*
X95250000Y-56150000D03*
D13*
X101065000Y-61230000D03*
X88165000Y-58690000D03*
D14*
X90170000Y-56150000D03*
X100330000Y-56150000D03*
%TD*%
D12*
%TO.C,SW8*%
X16510000Y-45180000D03*
X15240000Y-42640000D03*
X21590000Y-45180000D03*
X22860000Y-42640000D03*
D15*
X19050000Y-40100000D03*
D13*
X24865000Y-45180000D03*
D14*
X13970000Y-40100000D03*
D13*
X11965000Y-42640000D03*
X11965000Y-42640000D03*
D14*
X24130000Y-40100000D03*
%TD*%
D11*
%TO.C,D22*%
X75500000Y-31100000D03*
X76900000Y-31100000D03*
%TD*%
D12*
%TO.C,SW5*%
X-2540000Y-64230000D03*
X-3810000Y-61690000D03*
X2540000Y-64230000D03*
X3810000Y-61690000D03*
D13*
X-7085000Y-61690000D03*
D15*
X0Y-59150000D03*
D13*
X-7085000Y-61690000D03*
D14*
X-5080000Y-59150000D03*
D13*
X5815000Y-64230000D03*
D14*
X5080000Y-59150000D03*
%TD*%
D12*
%TO.C,SW19*%
X72390000Y460000D03*
X73660000Y-2080000D03*
X80010000Y460000D03*
X78740000Y-2080000D03*
D15*
X76200000Y3000000D03*
D14*
X71120000Y3000000D03*
X81280000Y3000000D03*
D13*
X69115000Y460000D03*
X69115000Y460000D03*
X82015000Y-2080000D03*
%TD*%
D12*
%TO.C,SW23*%
X83185000Y-80280000D03*
X81915000Y-77740000D03*
X89535000Y-77740000D03*
X88265000Y-80280000D03*
D14*
X90805000Y-75200000D03*
D13*
X91540000Y-80280000D03*
X78640000Y-77740000D03*
D14*
X80645000Y-75200000D03*
D13*
X78640000Y-77740000D03*
D15*
X85725000Y-75200000D03*
%TD*%
D12*
%TO.C,SW16*%
X53340000Y-35639999D03*
X54610000Y-38179999D03*
X60960000Y-35639999D03*
X59690000Y-38179999D03*
D15*
X57150000Y-33099999D03*
D13*
X50065000Y-35639999D03*
D14*
X52070000Y-33099999D03*
D13*
X50065000Y-35639999D03*
X62965000Y-38179999D03*
D14*
X62230000Y-33099999D03*
%TD*%
D12*
%TO.C,SW7*%
X15240000Y-23589999D03*
X16510000Y-26129999D03*
X21590000Y-26129999D03*
X22860000Y-23589999D03*
D14*
X13970000Y-21049999D03*
D13*
X24865000Y-26129999D03*
D15*
X19050000Y-21049999D03*
D13*
X11965000Y-23589999D03*
X11965000Y-23589999D03*
D14*
X24130000Y-21049999D03*
%TD*%
D11*
%TO.C,D3*%
X-700000Y2000000D03*
X700000Y2000000D03*
%TD*%
D12*
%TO.C,SW20*%
X73660000Y-21130000D03*
X72390000Y-18590000D03*
X78740000Y-21130000D03*
X80010000Y-18590000D03*
D13*
X69115000Y-18590000D03*
D14*
X81280000Y-16050000D03*
D15*
X76200000Y-16050000D03*
D13*
X69115000Y-18590000D03*
D14*
X71120000Y-16050000D03*
D13*
X82015000Y-21130000D03*
%TD*%
D11*
%TO.C,D23*%
X75500000Y-50150000D03*
X76900000Y-50150000D03*
%TD*%
D12*
%TO.C,SW15*%
X53340002Y-16590000D03*
X54610002Y-19130000D03*
X59690002Y-19130000D03*
X60960002Y-16590000D03*
D14*
X52070002Y-14050000D03*
X62230002Y-14050000D03*
D13*
X50065002Y-16590000D03*
X62965002Y-19130000D03*
D15*
X57150002Y-14050000D03*
D13*
X50065002Y-16590000D03*
%TD*%
D12*
%TO.C,SW26*%
X91440000Y-39640000D03*
X92710000Y-42180000D03*
X99060000Y-39640000D03*
X97790000Y-42180000D03*
D15*
X95250000Y-37100000D03*
D13*
X101065000Y-42180000D03*
X88165000Y-39640000D03*
D14*
X100330000Y-37100000D03*
X90170000Y-37100000D03*
D13*
X88165000Y-39640000D03*
%TD*%
D11*
%TO.C,D13*%
X37400000Y-31100000D03*
X38800000Y-31100000D03*
%TD*%
D22*
%TO.C,C11*%
X108070000Y-1350000D03*
X109030000Y-1350000D03*
%TD*%
D10*
%TO.C,H5*%
X100475000Y-68575000D03*
%TD*%
D11*
%TO.C,D7*%
X18350000Y2000000D03*
X19750000Y2000000D03*
%TD*%
%TO.C,D26*%
X94550000Y-14050000D03*
X95950000Y-14050000D03*
%TD*%
%TO.C,D14*%
X37400000Y-50150000D03*
X38800000Y-50150000D03*
%TD*%
%TO.C,D25*%
X94550000Y5000000D03*
X95950000Y5000000D03*
%TD*%
D12*
%TO.C,SW17*%
X53340000Y-54690000D03*
X54610000Y-57230000D03*
X60960000Y-54690000D03*
X59690000Y-57230000D03*
D15*
X57150000Y-52150000D03*
D13*
X50065000Y-54690000D03*
X50065000Y-54690000D03*
D14*
X52070000Y-52150000D03*
X62230000Y-52150000D03*
D13*
X62965000Y-57230000D03*
%TD*%
D10*
%TO.C,H1*%
X9525000Y-11525000D03*
%TD*%
D19*
%TO.C,R11*%
X113950000Y-390000D03*
X113950000Y-1410000D03*
%TD*%
D23*
%TO.C,J2*%
X115095000Y-8155000D03*
D24*
X119275000Y-8155000D03*
D23*
X115095000Y-16795000D03*
D24*
X119275000Y-16795000D03*
D25*
X114180000Y-15725000D03*
X114180000Y-14925000D03*
D26*
X114180000Y-14225000D03*
X114180000Y-13225000D03*
X114180000Y-11725000D03*
X114180000Y-10725000D03*
D25*
X114180000Y-10025000D03*
X114180000Y-9225000D03*
X114180000Y-9225000D03*
X114180000Y-10025000D03*
D26*
X114180000Y-11225000D03*
X114180000Y-12225000D03*
X114180000Y-12725000D03*
X114180000Y-13725000D03*
D25*
X114180000Y-14925000D03*
X114180000Y-15725000D03*
D27*
X115625000Y-15365000D03*
X115625000Y-9585000D03*
%TD*%
D12*
%TO.C,SW22*%
X73660000Y-59230000D03*
X72390000Y-56690000D03*
X80010000Y-56690000D03*
X78740000Y-59230000D03*
D13*
X69115000Y-56690000D03*
D15*
X76200000Y-54150000D03*
D14*
X71120000Y-54150000D03*
X81280000Y-54150000D03*
D13*
X82015000Y-59230000D03*
X69115000Y-56690000D03*
%TD*%
D28*
%TO.C,D29*%
X98160771Y-76333073D03*
X98523117Y-74980777D03*
%TD*%
D11*
%TO.C,D10*%
X18350000Y-55150000D03*
X19750000Y-55150000D03*
%TD*%
D12*
%TO.C,SW2*%
X-2540000Y-7080000D03*
X-3810000Y-4540000D03*
X2540000Y-7080000D03*
X3810000Y-4540000D03*
D13*
X5815000Y-7080000D03*
X-7085000Y-4540000D03*
D14*
X-5080000Y-2000000D03*
D15*
X0Y-2000000D03*
D14*
X5080000Y-2000000D03*
D13*
X-7085000Y-4540000D03*
%TD*%
D12*
%TO.C,SW3*%
X-2540000Y-26130000D03*
X-3810000Y-23590000D03*
X2540000Y-26130000D03*
X3810000Y-23590000D03*
D14*
X5080000Y-21050000D03*
X-5080000Y-21050000D03*
D13*
X-7085000Y-23590000D03*
D15*
X0Y-21050000D03*
D13*
X5815000Y-26130000D03*
X-7085000Y-23590000D03*
%TD*%
D29*
%TO.C,D1*%
X116825000Y-18705000D03*
X119625000Y-18705000D03*
%TD*%
D11*
%TO.C,D27*%
X94550000Y-33100000D03*
X95950000Y-33100000D03*
%TD*%
D12*
%TO.C,SW12*%
X34290000Y-37640000D03*
X35560000Y-40180000D03*
X40640000Y-40180000D03*
X41910000Y-37640000D03*
D14*
X33020000Y-35100000D03*
D13*
X31015000Y-37640000D03*
X31015000Y-37640000D03*
X43915000Y-40180000D03*
D14*
X43180000Y-35100000D03*
D15*
X38100000Y-35100000D03*
%TD*%
D10*
%TO.C,H2*%
X85725000Y-8525000D03*
%TD*%
D11*
%TO.C,D11*%
X37400000Y7000000D03*
X38800000Y7000000D03*
%TD*%
D12*
%TO.C,SW13*%
X34290000Y-56690000D03*
X35560000Y-59230000D03*
X41910000Y-56690000D03*
X40640000Y-59230000D03*
D13*
X31015000Y-56690000D03*
X43915000Y-59230000D03*
D15*
X38100000Y-54150000D03*
D14*
X33020000Y-54150000D03*
D13*
X31015000Y-56690000D03*
D14*
X43180000Y-54150000D03*
%TD*%
D30*
%TO.C,J3*%
X115595000Y9060000D03*
X115595000Y7790000D03*
X114325000Y9060000D03*
X114325000Y7790000D03*
X113055000Y9060000D03*
X113055000Y7790000D03*
D31*
X111785000Y8425000D03*
X116865000Y9441000D03*
X116865000Y7409000D03*
%TD*%
D11*
%TO.C,D24*%
X85025000Y-71200000D03*
X86425000Y-71200000D03*
%TD*%
D32*
%TO.C,J4*%
X112775000Y-49250000D03*
X112775000Y-47150000D03*
X112775000Y-45150000D03*
%TD*%
D12*
%TO.C,SW28*%
X102560448Y-84947777D03*
X100435696Y-83063651D03*
X104532649Y-77587422D03*
X101750497Y-78156748D03*
D14*
X104685199Y-86831903D03*
D33*
X105380281Y-74424015D03*
X99588064Y-86227058D03*
X99588064Y-86227058D03*
D34*
X105380281Y-74424015D03*
D15*
X106000000Y-81925000D03*
D14*
X107314801Y-77018097D03*
%TD*%
D35*
%TO.C,J1*%
X113775000Y-34600000D03*
X111775000Y-34600000D03*
%TD*%
M02*
