%TF.GenerationSoftware,KiCad,Pcbnew,(6.0.4)*%
%TF.CreationDate,2022-07-03T17:00:07-07:00*%
%TF.ProjectId,Athena54,41746865-6e61-4353-942e-6b696361645f,v1.0.0*%
%TF.SameCoordinates,Original*%
%TF.FileFunction,Paste,Bot*%
%TF.FilePolarity,Positive*%
%FSLAX46Y46*%
G04 Gerber Fmt 4.6, Leading zero omitted, Abs format (unit mm)*
G04 Created by KiCad (PCBNEW (6.0.4)) date 2022-07-03 17:00:07*
%MOMM*%
%LPD*%
G01*
G04 APERTURE LIST*
G04 Aperture macros list*
%AMRoundRect*
0 Rectangle with rounded corners*
0 $1 Rounding radius*
0 $2 $3 $4 $5 $6 $7 $8 $9 X,Y pos of 4 corners*
0 Add a 4 corners polygon primitive as box body*
4,1,4,$2,$3,$4,$5,$6,$7,$8,$9,$2,$3,0*
0 Add four circle primitives for the rounded corners*
1,1,$1+$1,$2,$3*
1,1,$1+$1,$4,$5*
1,1,$1+$1,$6,$7*
1,1,$1+$1,$8,$9*
0 Add four rect primitives between the rounded corners*
20,1,$1+$1,$2,$3,$4,$5,0*
20,1,$1+$1,$4,$5,$6,$7,0*
20,1,$1+$1,$6,$7,$8,$9,0*
20,1,$1+$1,$8,$9,$2,$3,0*%
%AMRotRect*
0 Rectangle, with rotation*
0 The origin of the aperture is its center*
0 $1 length*
0 $2 width*
0 $3 Rotation angle, in degrees counterclockwise*
0 Add horizontal line*
21,1,$1,$2,0,0,$3*%
G04 Aperture macros list end*
%ADD10R,0.700000X0.600000*%
%ADD11R,2.550000X2.500000*%
%ADD12RoundRect,0.250000X-0.375000X-0.625000X0.375000X-0.625000X0.375000X0.625000X-0.375000X0.625000X0*%
%ADD13R,0.800000X1.000000*%
%ADD14R,1.500000X0.700000*%
%ADD15R,1.000000X1.550000*%
%ADD16R,1.450000X0.600000*%
%ADD17R,1.450000X0.300000*%
%ADD18RoundRect,0.200000X-0.275000X0.200000X-0.275000X-0.200000X0.275000X-0.200000X0.275000X0.200000X0*%
%ADD19RoundRect,0.225000X-0.250000X0.225000X-0.250000X-0.225000X0.250000X-0.225000X0.250000X0.225000X0*%
%ADD20RoundRect,0.080000X-0.080000X-0.160000X0.080000X-0.160000X0.080000X0.160000X-0.080000X0.160000X0*%
%ADD21RoundRect,0.062500X-0.325000X-0.062500X0.325000X-0.062500X0.325000X0.062500X-0.325000X0.062500X0*%
%ADD22RotRect,2.550000X2.500000X80.000000*%
%ADD23RoundRect,0.225000X-0.225000X-0.250000X0.225000X-0.250000X0.225000X0.250000X-0.225000X0.250000X0*%
%ADD24RoundRect,0.200000X0.400000X0.200000X-0.400000X0.200000X-0.400000X-0.200000X0.400000X-0.200000X0*%
%ADD25C,1.000000*%
%ADD26RoundRect,0.200000X0.200000X-0.400000X0.200000X0.400000X-0.200000X0.400000X-0.200000X-0.400000X0*%
%ADD27RoundRect,0.200000X-0.400000X-0.200000X0.400000X-0.200000X0.400000X0.200000X-0.400000X0.200000X0*%
%ADD28RoundRect,0.200000X-0.300000X-0.200000X0.300000X-0.200000X0.300000X0.200000X-0.300000X0.200000X0*%
G04 APERTURE END LIST*
D10*
%TO.C,D21*%
X84725000Y-13725000D03*
X84725000Y-15125000D03*
%TD*%
D11*
%TO.C,SW9*%
X13235000Y-63230000D03*
X26135000Y-60690000D03*
%TD*%
%TO.C,SW14*%
X51335000Y-80000D03*
X64235000Y2460000D03*
%TD*%
D10*
%TO.C,D8*%
X10525000Y-15725000D03*
X10525000Y-17125000D03*
%TD*%
%TO.C,D4*%
X8525000Y-15725000D03*
X8525000Y-17125000D03*
%TD*%
D11*
%TO.C,SW25*%
X89435000Y-23130000D03*
X102335000Y-20590000D03*
%TD*%
D12*
%TO.C,D1*%
X126774999Y-48575000D03*
X123974999Y-48575000D03*
%TD*%
D10*
%TO.C,D17*%
X48625000Y-29725000D03*
X48625000Y-31125000D03*
%TD*%
%TO.C,D28*%
X86725001Y-51775000D03*
X86725001Y-53175000D03*
%TD*%
%TO.C,D6*%
X8525000Y-53775000D03*
X8525000Y-55175000D03*
%TD*%
%TO.C,D5*%
X8525000Y-34725000D03*
X8525000Y-36125000D03*
%TD*%
%TO.C,D9*%
X10525000Y-34725000D03*
X10525000Y-36125000D03*
%TD*%
%TO.C,D16*%
X48625000Y-9575000D03*
X48625000Y-10975000D03*
%TD*%
%TO.C,D18*%
X48625000Y-48775000D03*
X48625000Y-50175000D03*
%TD*%
%TO.C,D19*%
X84725000Y-70825000D03*
X84725000Y-72225000D03*
%TD*%
D13*
%TO.C,SW1*%
X125045000Y-45725000D03*
X127255000Y-45725000D03*
X125045000Y-38425000D03*
X127255000Y-38425000D03*
D14*
X124395000Y-39825000D03*
X124395000Y-42825000D03*
X124395000Y-44325000D03*
%TD*%
D10*
%TO.C,D20*%
X84725000Y5275001D03*
X84725000Y3875001D03*
%TD*%
D11*
%TO.C,SW6*%
X26135000Y-3540000D03*
X13235000Y-6080000D03*
%TD*%
D10*
%TO.C,D15*%
X48625000Y7275000D03*
X48625000Y5875000D03*
%TD*%
%TO.C,D12*%
X46625000Y-9575000D03*
X46625000Y-10975000D03*
%TD*%
D11*
%TO.C,SW24*%
X102335000Y-1540000D03*
X89435000Y-4080000D03*
%TD*%
%TO.C,SW27*%
X89435000Y-61230000D03*
X102335000Y-58690000D03*
%TD*%
%TO.C,SW8*%
X13235000Y-44180000D03*
X26135000Y-41640000D03*
%TD*%
D10*
%TO.C,D22*%
X84725000Y-32725000D03*
X84725000Y-34125000D03*
%TD*%
D11*
%TO.C,SW16*%
X51335000Y-38180000D03*
X64235000Y-35640000D03*
%TD*%
%TO.C,SW7*%
X13235000Y-25130000D03*
X26135000Y-22590000D03*
%TD*%
D10*
%TO.C,D3*%
X8525000Y3275000D03*
X8525000Y1875000D03*
%TD*%
%TO.C,D23*%
X84725000Y-51775000D03*
X84725000Y-53175000D03*
%TD*%
D11*
%TO.C,SW15*%
X64235000Y-16590000D03*
X51335000Y-19130000D03*
%TD*%
D10*
%TO.C,D13*%
X46625000Y-29725000D03*
X46625000Y-31125000D03*
%TD*%
%TO.C,D7*%
X10525000Y3275000D03*
X10525000Y1875000D03*
%TD*%
%TO.C,D26*%
X86725000Y-13725000D03*
X86725000Y-15125000D03*
%TD*%
%TO.C,D14*%
X46625000Y-48775000D03*
X46625000Y-50175000D03*
%TD*%
%TO.C,D25*%
X86725000Y5275000D03*
X86725000Y3875000D03*
%TD*%
D11*
%TO.C,SW17*%
X64235000Y-54690000D03*
X51335000Y-57230000D03*
%TD*%
%TO.C,SW26*%
X89435000Y-42180001D03*
X102335000Y-39640001D03*
%TD*%
D15*
%TO.C,SW29*%
X126575000Y-30700000D03*
X126575000Y-35950000D03*
X124875000Y-35950000D03*
X124875000Y-30700000D03*
%TD*%
D16*
%TO.C,J2*%
X119680000Y-51775000D03*
X119680000Y-52575000D03*
D17*
X119680000Y-56775000D03*
X119680000Y-54775000D03*
X119680000Y-55275000D03*
X119680000Y-56275000D03*
D16*
X119680000Y-57475000D03*
X119680000Y-58275000D03*
X119680000Y-58275000D03*
X119680000Y-57475000D03*
D17*
X119680000Y-53775000D03*
X119680000Y-55775000D03*
X119680000Y-54275000D03*
X119680000Y-53275000D03*
D16*
X119680000Y-52575000D03*
X119680000Y-51775000D03*
%TD*%
D10*
%TO.C,D29*%
X105775000Y-70825000D03*
X105775000Y-72225000D03*
%TD*%
%TO.C,D10*%
X10525000Y-53775000D03*
X10525000Y-55175000D03*
%TD*%
%TO.C,D27*%
X86725000Y-32725000D03*
X86725000Y-34125000D03*
%TD*%
%TO.C,D11*%
X46625000Y7275000D03*
X46625000Y5875000D03*
%TD*%
%TO.C,D24*%
X86725000Y-70825000D03*
X86725000Y-72225000D03*
%TD*%
D11*
%TO.C,SW4*%
X7085000Y-41640000D03*
X-5815000Y-44180000D03*
%TD*%
%TO.C,SW21*%
X83285000Y-37640000D03*
X70385000Y-40180000D03*
%TD*%
D18*
%TO.C,R12*%
X122975000Y-11800000D03*
X122975000Y-13450000D03*
%TD*%
D11*
%TO.C,SW18*%
X70385000Y-78280000D03*
X83285000Y-75740000D03*
%TD*%
%TO.C,SW10*%
X32285000Y-1080000D03*
X45185000Y1460000D03*
%TD*%
D19*
%TO.C,C12*%
X124925000Y-3250000D03*
X124925000Y-4800000D03*
%TD*%
D20*
%TO.C,U2*%
X118775000Y-11575000D03*
X119175000Y-11575000D03*
X119175000Y-12175000D03*
X118775000Y-12175000D03*
D21*
X117987500Y-12625000D03*
X117987500Y-12125000D03*
X117987500Y-11625000D03*
X117987500Y-11125000D03*
X119962500Y-11125000D03*
X119962500Y-11625000D03*
X119962500Y-12125000D03*
X119962500Y-12625000D03*
%TD*%
D18*
%TO.C,R13*%
X121475000Y-11800000D03*
X121475000Y-13450000D03*
%TD*%
D11*
%TO.C,SW11*%
X32285000Y-20130000D03*
X45185000Y-17590000D03*
%TD*%
%TO.C,SW5*%
X-5815000Y-63230000D03*
X7085000Y-60690000D03*
%TD*%
%TO.C,SW19*%
X83285000Y460000D03*
X70385000Y-2080000D03*
%TD*%
%TO.C,SW23*%
X89435000Y-80280000D03*
X102335000Y-77740000D03*
%TD*%
%TO.C,SW20*%
X70385000Y-21130000D03*
X83285000Y-18590000D03*
%TD*%
D22*
%TO.C,SW28*%
X120007720Y-83639105D03*
X119746370Y-70494018D03*
%TD*%
D23*
%TO.C,C3*%
X118200000Y-13975000D03*
X119750000Y-13975000D03*
%TD*%
D11*
%TO.C,SW22*%
X70385000Y-59230000D03*
X83285000Y-56690000D03*
%TD*%
D24*
%TO.C,U4*%
X123375000Y6175000D03*
X123375000Y4975000D03*
X123375000Y3775000D03*
X123375000Y2575000D03*
X123375000Y1375000D03*
X123375000Y175000D03*
X123375000Y-1025000D03*
X123375000Y-2225000D03*
D25*
X119385000Y-3135000D03*
D24*
X123375000Y-3425000D03*
X123375000Y-4625000D03*
X123375000Y-5825000D03*
X123375000Y-7025000D03*
D26*
X122075000Y-8525000D03*
X120875000Y-8525000D03*
X119675000Y-8525000D03*
X118475000Y-8525000D03*
X117275000Y-8525000D03*
X116075000Y-8525000D03*
X114875000Y-8525000D03*
D25*
X114675000Y-6695000D03*
D26*
X113675000Y-8525000D03*
D25*
X113445000Y-6695000D03*
D26*
X112475000Y-8525000D03*
X111275000Y-8525000D03*
D27*
X109975000Y-7025000D03*
X109975000Y-5825000D03*
X109975000Y-4625000D03*
X109975000Y-3425000D03*
X109975000Y-2225000D03*
X109975000Y-1025000D03*
X109975000Y175000D03*
X109975000Y1375000D03*
X109975000Y2575000D03*
X109975000Y3775000D03*
X109975000Y4975000D03*
X109975000Y6175000D03*
D28*
X121575000Y5575000D03*
X121575000Y4375000D03*
X121575000Y3175000D03*
X121575000Y1975000D03*
X121575000Y775000D03*
X121575000Y-425000D03*
X121575000Y-1625000D03*
X121575000Y-2825000D03*
X121575000Y-4025000D03*
X121575000Y-5225000D03*
X121575000Y-6425000D03*
X111775000Y-6425000D03*
X111775000Y-5225000D03*
X111775000Y-4025000D03*
X111775000Y-2825000D03*
X111775000Y-1625000D03*
X111775000Y-425000D03*
X111775000Y775000D03*
X111775000Y1975000D03*
X111775000Y3175000D03*
X111775000Y4375000D03*
X111775000Y5575000D03*
D25*
X119005000Y-1055000D03*
%TD*%
D11*
%TO.C,SW2*%
X7085000Y-3540000D03*
X-5815000Y-6080000D03*
%TD*%
%TO.C,SW3*%
X-5815000Y-25130000D03*
X7085000Y-22590000D03*
%TD*%
%TO.C,SW12*%
X32285000Y-39180000D03*
X45185000Y-36640000D03*
%TD*%
%TO.C,SW13*%
X45185000Y-55690000D03*
X32285000Y-58230000D03*
%TD*%
M02*
