M48
; DRILL file {KiCad (6.0.4)} date Sun Jul  3 20:13:27 2022
; FORMAT={-:-/ absolute / inch / decimal}
; #@! TF.CreationDate,2022-07-03T20:13:27-07:00
; #@! TF.GenerationSoftware,Kicad,Pcbnew,(6.0.4)
; #@! TF.FileFunction,MixedPlating,1,4
FMAT,2
INCH
; #@! TA.AperFunction,Plated,PTH,ViaDrill
T1C0.0118
; #@! TA.AperFunction,Plated,PTH,ViaDrill
T2C0.0157
; #@! TA.AperFunction,Plated,PTH,ComponentDrill
T3C0.0157
; #@! TA.AperFunction,Plated,PTH,ComponentDrill
T4C0.0236
; #@! TA.AperFunction,Plated,PTH,ComponentDrill
T5C0.0315
; #@! TA.AperFunction,Plated,PTH,ComponentDrill
T6C0.0394
; #@! TA.AperFunction,Plated,PTH,ComponentDrill
T7C0.1181
; #@! TA.AperFunction,NonPlated,NPTH,ComponentDrill
T8C0.0256
; #@! TA.AperFunction,NonPlated,NPTH,ComponentDrill
T9C0.0295
; #@! TA.AperFunction,NonPlated,NPTH,ComponentDrill
T10C0.0354
; #@! TA.AperFunction,NonPlated,NPTH,ComponentDrill
T11C0.0390
; #@! TA.AperFunction,NonPlated,NPTH,ComponentDrill
T12C0.0689
; #@! TA.AperFunction,NonPlated,NPTH,ComponentDrill
T13C0.1570
; #@! TA.AperFunction,NonPlated,NPTH,ComponentDrill
T14C0.2126
%
G90
G05
T1
X4.3991Y-1.619
X4.5916Y-0.1722
X4.6001Y-0.6093
X4.627Y-0.2333
X4.6368Y-2.0876
X4.6368Y-2.2451
X4.6978Y-2.1329
X4.8041Y-1.9236
X4.8179Y-2.1959
X4.8312Y-1.5588
X4.8593Y-1.8435
X4.9163Y-1.1585
X4.9459Y-1.6565
T2
X4.2608Y-2.314
X4.3278Y-1.7569
X4.3533Y-2.2411
X4.3691Y-1.4026
X4.3749Y-1.5932
X4.3809Y-1.501
X4.4281Y-1.751
X4.4309Y-0.5699
X4.5207Y-1.7913
X4.5207Y-1.8307
X4.564Y-1.4026
X4.5841Y-2.1468
X4.5974Y-2.0167
X4.5974Y-2.3159
X4.5993Y-0.5738
X4.6001Y-0.438
X4.6001Y-0.5344
X4.6014Y-2.0876
X4.627Y-0.1723
X4.6427Y-1.81
X4.6467Y-0.0423
X4.652Y-0.2082
X4.6762Y-0.4065
X4.6821Y-1.4911
X4.69Y-0.1683
X4.6978Y-2.0975
X4.7195Y-2.0384
X4.7234Y-2.3376
X4.7431Y-1.6978
X4.7451Y-0.5778
X4.7939Y-1.5579
X4.8022Y-0.5758
X4.8208Y-1.8923
X4.8214Y-1.846
X4.8415Y-0.5758
X4.8809Y-1.1585
X4.8809Y-1.5226
X4.8967Y-2.127
X4.9281Y-0.8553
X4.9546Y-0.1605
X4.9832Y-1.6565
X4.9833Y-1.2628
X4.9833Y-1.3612
T3
X-0.348Y-0.1094
X-0.348Y-0.1694
X-0.348Y-0.8594
X-0.348Y-0.9194
X-0.348Y-1.6094
X-0.348Y-1.6694
X-0.348Y-2.3594
X-0.348Y-2.4194
X-0.298Y-0.2094
X-0.298Y-0.2694
X-0.298Y-0.9594
X-0.298Y-1.0194
X-0.298Y-1.7094
X-0.298Y-1.7694
X-0.298Y-2.4594
X-0.298Y-2.5194
X0.298Y-0.2094
X0.298Y-0.2694
X0.298Y-0.9594
X0.298Y-1.0194
X0.298Y-1.7094
X0.298Y-1.7694
X0.298Y-2.4594
X0.298Y-2.5194
X0.3356Y0.1664
X0.3356Y0.0364
X0.3356Y-0.5817
X0.3356Y-0.7117
X0.3356Y-1.3297
X0.3356Y-1.4597
X0.3356Y-2.0797
X0.3356Y-2.2097
X0.348Y-0.1094
X0.348Y-0.1694
X0.348Y-0.8594
X0.348Y-0.9194
X0.348Y-1.6094
X0.348Y-1.6694
X0.348Y-2.3594
X0.348Y-2.4194
X0.402Y-0.1094
X0.402Y-0.1694
X0.402Y-0.8594
X0.402Y-0.9194
X0.402Y-1.6094
X0.402Y-1.6694
X0.402Y-2.3594
X0.402Y-2.4194
X0.4144Y0.1664
X0.4144Y0.0364
X0.4144Y-0.5817
X0.4144Y-0.7117
X0.4144Y-1.3297
X0.4144Y-1.4597
X0.4144Y-2.0797
X0.4144Y-2.2097
X0.452Y-0.2094
X0.452Y-0.2694
X0.452Y-0.9594
X0.452Y-1.0194
X0.452Y-1.7094
X0.452Y-1.7694
X0.452Y-2.4594
X0.452Y-2.5194
X1.048Y-0.2094
X1.048Y-0.2694
X1.048Y-0.9594
X1.048Y-1.0194
X1.048Y-1.7094
X1.048Y-1.7694
X1.048Y-2.4594
X1.048Y-2.5194
X1.098Y-0.1094
X1.098Y-0.1694
X1.098Y-0.8594
X1.098Y-0.9194
X1.098Y-1.6094
X1.098Y-1.6694
X1.098Y-2.3594
X1.098Y-2.4194
X1.152Y0.0875
X1.152Y0.0275
X1.152Y-0.6625
X1.152Y-0.7225
X1.152Y-1.4125
X1.152Y-1.4725
X1.152Y-2.1625
X1.152Y-2.2225
X1.202Y-0.0125
X1.202Y-0.0725
X1.202Y-0.7625
X1.202Y-0.8225
X1.202Y-1.5125
X1.202Y-1.5725
X1.202Y-2.2625
X1.202Y-2.3225
X1.798Y-0.0125
X1.798Y-0.0725
X1.798Y-0.7625
X1.798Y-0.8225
X1.798Y-1.5125
X1.798Y-1.5725
X1.798Y-2.2625
X1.798Y-2.3225
X1.8356Y0.3239
X1.8356Y0.1939
X1.8356Y-0.3395
X1.8356Y-0.4695
X1.8356Y-1.1328
X1.8356Y-1.2628
X1.8356Y-1.8828
X1.8356Y-2.0128
X1.848Y0.0875
X1.848Y0.0275
X1.848Y-0.6625
X1.848Y-0.7225
X1.848Y-1.4125
X1.848Y-1.4725
X1.848Y-2.1625
X1.848Y-2.2225
X1.902Y0.1269
X1.902Y0.0669
X1.902Y-0.6231
X1.902Y-0.6831
X1.902Y-1.3731
X1.902Y-1.4331
X1.902Y-2.1231
X1.902Y-2.1831
X1.9144Y0.3239
X1.9144Y0.1939
X1.9144Y-0.3395
X1.9144Y-0.4695
X1.9144Y-1.1328
X1.9144Y-1.2628
X1.9144Y-1.8828
X1.9144Y-2.0128
X1.952Y0.0269
X1.952Y-0.0331
X1.952Y-0.7231
X1.952Y-0.7831
X1.952Y-1.4731
X1.952Y-1.5331
X1.952Y-2.2231
X1.952Y-2.2831
X2.548Y0.0269
X2.548Y-0.0331
X2.548Y-0.7231
X2.548Y-0.7831
X2.548Y-1.4731
X2.548Y-1.5331
X2.548Y-2.2231
X2.548Y-2.2831
X2.598Y0.1269
X2.598Y0.0669
X2.598Y-0.6231
X2.598Y-0.6831
X2.598Y-1.3731
X2.598Y-1.4331
X2.598Y-2.1231
X2.598Y-2.1831
X2.652Y0.0481
X2.652Y-0.0119
X2.652Y-0.7019
X2.652Y-0.7619
X2.652Y-1.4519
X2.652Y-1.5119
X2.652Y-2.2019
X2.652Y-2.2619
X2.652Y-2.9519
X2.652Y-3.0119
X2.702Y-0.0519
X2.702Y-0.1119
X2.702Y-0.8019
X2.702Y-0.8619
X2.702Y-1.5519
X2.702Y-1.6119
X2.702Y-2.3019
X2.702Y-2.3619
X2.702Y-3.0519
X2.702Y-3.1119
X3.298Y-0.0519
X3.298Y-0.1119
X3.298Y-0.8019
X3.298Y-0.8619
X3.298Y-1.5519
X3.298Y-1.6119
X3.298Y-2.3019
X3.298Y-2.3619
X3.298Y-3.0519
X3.298Y-3.1119
X3.3356Y0.2451
X3.3356Y0.1151
X3.3356Y-0.5029
X3.3356Y-0.6329
X3.3356Y-1.2509
X3.3356Y-1.3809
X3.3356Y-2.0009
X3.3356Y-2.1309
X3.3356Y-2.7509
X3.3356Y-2.8809
X3.348Y0.0481
X3.348Y-0.0119
X3.348Y-0.7019
X3.348Y-0.7619
X3.348Y-1.4519
X3.348Y-1.5119
X3.348Y-2.2019
X3.348Y-2.2619
X3.348Y-2.9519
X3.348Y-3.0119
X3.402Y-0.0306
X3.402Y-0.0906
X3.402Y-0.7806
X3.402Y-0.8406
X3.402Y-1.5306
X3.402Y-1.5906
X3.402Y-2.2806
X3.402Y-2.3406
X3.402Y-3.0306
X3.402Y-3.0906
X3.4144Y0.2451
X3.4144Y0.1151
X3.4144Y-0.5029
X3.4144Y-0.6329
X3.4144Y-1.2509
X3.4144Y-1.3809
X3.4144Y-2.7509
X3.4144Y-2.8809
X3.4144Y-2.0009
X3.4144Y-2.1309
X3.452Y-0.1306
X3.452Y-0.1906
X3.452Y-0.8806
X3.452Y-0.9406
X3.452Y-1.6306
X3.452Y-1.6906
X3.452Y-2.3806
X3.452Y-2.4406
X3.452Y-3.1306
X3.452Y-3.1906
X4.048Y-0.1306
X4.048Y-0.1906
X4.048Y-0.8806
X4.048Y-0.9406
X4.048Y-1.6306
X4.048Y-1.6906
X4.048Y-2.3806
X4.048Y-2.4406
X4.048Y-3.1306
X4.048Y-3.1906
X4.098Y-0.0306
X4.098Y-0.0906
X4.098Y-0.7806
X4.098Y-0.8406
X4.098Y-1.5306
X4.098Y-1.5906
X4.098Y-2.2806
X4.098Y-2.3406
X4.098Y-3.0306
X4.098Y-3.0906
X4.1644Y-2.7509
X4.1644Y-2.8809
X4.4006Y0.2195
X4.4006Y0.1722
X4.4006Y0.125
X4.4006Y0.0778
X4.4006Y0.0305
X4.4006Y-0.0167
X4.4006Y-0.064
X4.4006Y-0.1112
X4.4006Y-0.1585
X4.4006Y-0.2057
X4.4006Y-0.253
X4.5757Y-3.3895
X4.6348Y-3.3999
X4.6828Y-3.3577
X4.6972Y-2.7002
X4.7419Y-3.3681
X4.7563Y-2.7106
X4.7864Y0.2195
X4.7864Y0.1722
X4.7864Y0.125
X4.7864Y0.0778
X4.7864Y0.0305
X4.7864Y-0.0167
X4.7864Y-0.064
X4.7864Y-0.1112
X4.7864Y-0.1585
X4.7864Y-0.2057
X4.7864Y-0.253
X4.787Y-2.7668
X4.8461Y-2.7772
T5
X4.5545Y-0.7608
X4.6332Y-0.7608
T6
X4.2793Y-0.4341
X4.2793Y-0.5128
X4.2793Y-0.5955
T7
X-0.15Y-0.1394
X-0.15Y-0.8894
X-0.15Y-1.6394
X-0.15Y-2.3894
X-0.1Y-0.2394
X-0.1Y-0.9894
X-0.1Y-1.7394
X-0.1Y-2.4894
X0.1Y-0.2394
X0.1Y-0.9894
X0.1Y-1.7394
X0.1Y-2.4894
X0.15Y-0.1394
X0.15Y-0.8894
X0.15Y-1.6394
X0.15Y-2.3894
X0.6Y-0.1394
X0.6Y-0.8894
X0.6Y-1.6394
X0.6Y-2.3894
X0.65Y-0.2394
X0.65Y-0.9894
X0.65Y-1.7394
X0.65Y-2.4894
X0.85Y-0.2394
X0.85Y-0.9894
X0.85Y-1.7394
X0.85Y-2.4894
X0.9Y-0.1394
X0.9Y-0.8894
X0.9Y-1.6394
X0.9Y-2.3894
X1.35Y0.0575
X1.35Y-0.6925
X1.35Y-1.4425
X1.35Y-2.1925
X1.4Y-0.0425
X1.4Y-0.7925
X1.4Y-1.5425
X1.4Y-2.2925
X1.6Y-0.0425
X1.6Y-0.7925
X1.6Y-1.5425
X1.6Y-2.2925
X1.65Y0.0575
X1.65Y-0.6925
X1.65Y-1.4425
X1.65Y-2.1925
X2.1Y0.0969
X2.1Y-0.6531
X2.1Y-1.4031
X2.1Y-2.1531
X2.15Y-0.0031
X2.15Y-0.7531
X2.15Y-1.5031
X2.15Y-2.2531
X2.35Y-0.0031
X2.35Y-0.7531
X2.35Y-1.5031
X2.35Y-2.2531
X2.4Y0.0969
X2.4Y-0.6531
X2.4Y-1.4031
X2.4Y-2.1531
X2.85Y0.0181
X2.85Y-0.7319
X2.85Y-1.4819
X2.85Y-2.2319
X2.85Y-2.9819
X2.9Y-0.0819
X2.9Y-0.8319
X2.9Y-1.5819
X2.9Y-2.3319
X2.9Y-3.0819
X3.1Y-0.0819
X3.1Y-0.8319
X3.1Y-1.5819
X3.1Y-2.3319
X3.1Y-3.0819
X3.15Y0.0181
X3.15Y-0.7319
X3.15Y-1.4819
X3.15Y-2.2319
X3.15Y-2.9819
X3.6Y-0.0606
X3.6Y-0.8106
X3.6Y-1.5606
X3.6Y-2.3106
X3.6Y-3.0606
X3.65Y-0.1606
X3.65Y-0.9106
X3.65Y-1.6606
X3.65Y-2.4106
X3.65Y-3.1606
X3.85Y-0.1606
X3.85Y-0.9106
X3.85Y-1.6606
X3.85Y-2.4106
X3.85Y-3.1606
X3.9Y-0.0606
X3.9Y-0.8106
X3.9Y-1.5606
X3.9Y-2.3106
X3.9Y-3.0606
X4.6399Y-3.1978
X4.692Y-2.9023
X4.7471Y-3.1659
X4.7818Y-2.9689
T8
X4.8278Y-2.0526
X4.8278Y-2.2801
T9
X4.8957Y-1.312
X5.0039Y-1.312
T10
X4.9667Y-1.5974
X4.9667Y-1.7156
T11
X4.8881Y-0.7939
X4.9281Y-0.5939
X4.9681Y-0.7939
T12
X-0.2Y-0.0394
X-0.2Y-0.7894
X-0.2Y-1.5394
X-0.2Y-2.2894
X0.2Y-0.0394
X0.2Y-0.7894
X0.2Y-1.5394
X0.2Y-2.2894
X0.55Y-0.0394
X0.55Y-0.7894
X0.55Y-1.5394
X0.55Y-2.2894
X0.95Y-0.0394
X0.95Y-0.7894
X0.95Y-1.5394
X0.95Y-2.2894
X1.3Y0.1575
X1.3Y-0.5925
X1.3Y-1.3425
X1.3Y-2.0925
X1.7Y0.1575
X1.7Y-0.5925
X1.7Y-1.3425
X1.7Y-2.0925
X2.05Y0.1969
X2.05Y-0.5531
X2.05Y-1.3031
X2.05Y-2.0531
X2.45Y0.1969
X2.45Y-0.5531
X2.45Y-1.3031
X2.45Y-2.0531
X2.8Y0.1181
X2.8Y-0.6319
X2.8Y-1.3819
X2.8Y-2.1319
X2.8Y-2.8819
X3.2Y0.1181
X3.2Y-0.6319
X3.2Y-1.3819
X3.2Y-2.1319
X3.2Y-2.8819
X3.55Y0.0394
X3.55Y-0.7106
X3.55Y-1.4606
X3.55Y-2.2106
X3.55Y-2.9606
X3.95Y0.0394
X3.95Y-0.7106
X3.95Y-1.4606
X3.95Y-2.2106
X3.95Y-2.9606
X4.5328Y-3.2297
X4.6022Y-2.8357
T13
X0.0Y-0.0394
X0.0Y-0.7894
X0.0Y-1.5394
X0.0Y-2.2894
X0.75Y-0.0394
X0.75Y-0.7894
X0.75Y-1.5394
X0.75Y-2.2894
X1.5Y0.1575
X1.5Y-0.5925
X1.5Y-1.3425
X1.5Y-2.0925
X2.25Y0.1969
X2.25Y-0.5531
X2.25Y-1.3031
X2.25Y-2.0531
X3.0Y0.1181
X3.0Y-0.6319
X3.0Y-1.3819
X3.0Y-2.1319
X3.0Y-2.8819
X3.75Y0.0394
X3.75Y-0.7106
X3.75Y-1.4606
X3.75Y-2.2106
X3.75Y-2.9606
X4.5675Y-3.0327
T14
X0.375Y-0.4144
X0.375Y-1.9144
X3.375Y-0.3356
X3.375Y-1.8356
X4.2431Y-2.5856
T4
G00X4.7852Y-1.9963
M15
G01X4.8285Y-1.9963
M16
G05
G00X4.7852Y-2.3364
M15
G01X4.8285Y-2.3364
M16
G05
G00X4.9596Y-1.9963
M15
G01X4.9833Y-1.9963
M16
G05
G00X4.9596Y-2.3364
M15
G01X4.9833Y-2.3364
M16
G05
T0
M30
