M48
; DRILL file {KiCad (6.0.4)} date Mon Jul 11 16:17:54 2022
; FORMAT={-:-/ absolute / inch / decimal}
; #@! TF.CreationDate,2022-07-11T16:17:54-07:00
; #@! TF.GenerationSoftware,Kicad,Pcbnew,(6.0.4)
; #@! TF.FileFunction,Plated,1,4,PTH
FMAT,2
INCH
; #@! TA.AperFunction,Plated,PTH,ViaDrill
T1C0.0118
; #@! TA.AperFunction,Plated,PTH,ComponentDrill
T2C0.0157
; #@! TA.AperFunction,Plated,PTH,ComponentDrill
T3C0.0236
; #@! TA.AperFunction,Plated,PTH,ComponentDrill
T4C0.0315
; #@! TA.AperFunction,Plated,PTH,ComponentDrill
T5C0.0394
; #@! TA.AperFunction,Plated,PTH,ComponentDrill
T6C0.1181
%
G90
G05
T1
X1.4386Y0.2443
X1.5638Y0.2441
X2.1888Y0.3231
X2.3138Y0.3229
X2.9409Y0.2447
X3.0592Y0.2446
X3.6861Y0.2283
X3.8162Y0.2283
X3.9527Y0.2697
X3.9823Y0.2815
X4.0298Y0.1946
X4.061Y0.1909
X4.0866Y0.1654
X4.1089Y0.1431
X4.1466Y0.3209
X4.1468Y0.3684
X4.1703Y0.3474
X4.1703Y0.3002
X4.2333Y-0.1407
X4.2352Y-0.2234
X4.2392Y-1.0327
X4.2606Y-0.021
X4.2638Y-0.9547
X4.2655Y-0.2148
X4.266Y-0.7722
X4.2716Y0.127
X4.2756Y0.2028
X4.2756Y0.1713
X4.2766Y-1.1837
X4.286Y-0.9311
X4.2864Y-0.7482
X4.2884Y-1.9006
X4.2913Y-0.0276
X4.3031Y0.1266
X4.3049Y0.1912
X4.3297Y-0.8652
X4.3307Y0.2092
X4.3307Y0.1777
X4.3317Y0.2746
X4.3327Y-0.2264
X4.3439Y0.2456
X4.3494Y-0.4274
X4.3514Y-0.7028
X4.3617Y0.3037
X4.3631Y0.2723
X4.3652Y-0.8652
X4.3681Y-0.3681
X4.3701Y-0.6181
X4.3802Y-0.1723
X4.3878Y-0.1417
X4.3885Y0.2872
X4.3907Y-0.8829
X4.3907Y-0.9065
X4.3907Y-0.9301
X4.3957Y-0.0551
X4.4124Y-0.4085
X4.4272Y-0.0551
X4.4325Y-0.4965
X4.4325Y-0.5251
X4.4423Y0.2592
X4.4478Y-0.3632
X4.4646Y0.2815
X4.4695Y-0.6447
X4.4754Y-0.9862
X4.4833Y-1.1309
X4.5059Y-0.0551
X4.5167Y0.001
X4.5253Y-0.0293
X4.5325Y-1.0817
X4.5374Y-0.0551
X4.56Y-1.2018
X4.5601Y-1.1703
X4.5712Y0.3279
X4.5746Y-0.4903
X4.5829Y-0.5349
X4.5856Y-1.6024
X4.5886Y-0.9528
X4.5984Y-0.7795
X4.5993Y-0.2425
X4.6063Y-1.5787
X4.6132Y-0.5435
X4.6258Y-0.7951
X4.6367Y-0.5644
X4.6447Y-0.1407
X4.6447Y-0.1781
X4.6486Y-0.9931
X4.6604Y-1.0817
X4.6668Y-1.1875
X4.6811Y-0.2421
X4.688Y-0.8514
X4.6919Y-1.0817
X4.6959Y0.3514
X4.7057Y-1.3278
X4.7057Y-1.623
X4.7102Y-0.8736
T2
X-0.065Y0.0787
X-0.065Y-0.6713
X-0.065Y-2.1713
X-0.065Y-1.4213
X0.065Y0.0787
X0.065Y-0.6713
X0.065Y-2.1713
X0.065Y-1.4213
X0.685Y0.0787
X0.685Y-0.6713
X0.685Y-1.4213
X0.685Y-2.1713
X0.815Y0.0787
X0.815Y-0.6713
X0.815Y-1.4213
X0.815Y-2.1713
X1.435Y-0.4744
X1.435Y0.2756
X1.435Y-1.2244
X1.435Y-1.9744
X1.565Y-0.4744
X1.565Y0.2756
X1.565Y-1.2244
X1.565Y-1.9744
X2.185Y0.3543
X2.185Y-0.3957
X2.185Y-1.1457
X2.185Y-1.8957
X2.315Y0.3543
X2.315Y-0.3957
X2.315Y-1.1457
X2.315Y-1.8957
X2.56Y-2.7244
X2.69Y-2.7244
X2.935Y0.2756
X2.935Y-0.4744
X2.935Y-1.2244
X2.935Y-1.9744
X3.065Y0.2756
X3.065Y-0.4744
X3.065Y-1.2244
X3.065Y-1.9744
X3.31Y-2.8031
X3.44Y-2.8031
X3.685Y0.1969
X3.685Y-0.5531
X3.685Y-1.3031
X3.685Y-2.0531
X3.815Y0.1969
X3.815Y-0.5531
X3.815Y-1.3031
X3.815Y-2.0531
X3.8549Y-3.0414
X3.8886Y-2.9158
T4
X4.3612Y-1.3622
X4.44Y-1.3622
T5
X4.44Y-1.7776
X4.44Y-1.8563
X4.44Y-1.939
T6
X-0.15Y-0.1787
X-0.15Y-0.9287
X-0.15Y-1.6787
X-0.15Y-2.4287
X-0.1Y-0.2787
X-0.1Y-1.0287
X-0.1Y-1.7787
X-0.1Y-2.5287
X0.1Y-0.2787
X0.1Y-1.0287
X0.1Y-1.7787
X0.1Y-2.5287
X0.15Y-0.1787
X0.15Y-0.9287
X0.15Y-1.6787
X0.15Y-2.4287
X0.6Y-0.1787
X0.6Y-0.9287
X0.6Y-1.6787
X0.6Y-2.4287
X0.65Y-0.2787
X0.65Y-1.0287
X0.65Y-1.7787
X0.65Y-2.5287
X0.85Y-0.2787
X0.85Y-1.0287
X0.85Y-1.7787
X0.85Y-2.5287
X0.9Y-0.1787
X0.9Y-0.9287
X0.9Y-1.6787
X0.9Y-2.4287
X1.35Y0.0181
X1.35Y-0.7319
X1.35Y-1.4819
X1.35Y-2.2319
X1.4Y-0.0819
X1.4Y-0.8319
X1.4Y-1.5819
X1.4Y-2.3319
X1.6Y-0.0819
X1.6Y-0.8319
X1.6Y-1.5819
X1.6Y-2.3319
X1.65Y0.0181
X1.65Y-0.7319
X1.65Y-1.4819
X1.65Y-2.2319
X2.1Y0.0969
X2.1Y-1.4031
X2.1Y-2.1531
X2.1Y-0.6531
X2.15Y-0.0031
X2.15Y-1.5031
X2.15Y-2.2531
X2.15Y-0.7531
X2.35Y-0.0031
X2.35Y-1.5031
X2.35Y-2.2531
X2.35Y-0.7531
X2.4Y0.0969
X2.4Y-1.4031
X2.4Y-2.1531
X2.4Y-0.6531
X2.475Y-2.9819
X2.525Y-3.0819
X2.725Y-3.0819
X2.775Y-2.9819
X2.85Y0.0181
X2.85Y-0.7319
X2.85Y-1.4819
X2.85Y-2.2319
X2.9Y-0.0819
X2.9Y-0.8319
X2.9Y-1.5819
X2.9Y-2.3319
X3.1Y-0.0819
X3.1Y-0.8319
X3.1Y-1.5819
X3.1Y-2.3319
X3.15Y0.0181
X3.15Y-0.7319
X3.15Y-1.4819
X3.15Y-2.2319
X3.225Y-3.0606
X3.275Y-3.1606
X3.475Y-3.1606
X3.525Y-3.0606
X3.6Y-0.0606
X3.6Y-0.8106
X3.6Y-1.5606
X3.6Y-2.3106
X3.65Y-0.1606
X3.65Y-0.9106
X3.65Y-1.6606
X3.65Y-2.4106
X3.85Y-0.1606
X3.85Y-0.9106
X3.85Y-1.6606
X3.85Y-2.4106
X3.9Y-0.0606
X3.9Y-0.8106
X3.9Y-1.5606
X3.9Y-2.3106
X3.9542Y-3.2702
X4.0059Y-3.077
X4.0378Y-3.3444
X4.1155Y-3.0546
T3
G00X4.5096Y-0.3211
M15
G01X4.553Y-0.3211
M16
G05
G00X4.5096Y-0.6612
M15
G01X4.553Y-0.6612
M16
G05
G00X4.6841Y-0.3211
M15
G01X4.7077Y-0.3211
M16
G05
G00X4.6841Y-0.6612
M15
G01X4.7077Y-0.6612
M16
G05
T0
M30
