%TF.GenerationSoftware,KiCad,Pcbnew,(6.0.4)*%
%TF.CreationDate,2022-07-16T20:51:00-07:00*%
%TF.ProjectId,Conejo,436f6e65-6a6f-42e6-9b69-6361645f7063,v1.0.0*%
%TF.SameCoordinates,Original*%
%TF.FileFunction,Paste,Bot*%
%TF.FilePolarity,Positive*%
%FSLAX46Y46*%
G04 Gerber Fmt 4.6, Leading zero omitted, Abs format (unit mm)*
G04 Created by KiCad (PCBNEW (6.0.4)) date 2022-07-16 20:51:00*
%MOMM*%
%LPD*%
G01*
G04 APERTURE LIST*
G04 Aperture macros list*
%AMRoundRect*
0 Rectangle with rounded corners*
0 $1 Rounding radius*
0 $2 $3 $4 $5 $6 $7 $8 $9 X,Y pos of 4 corners*
0 Add a 4 corners polygon primitive as box body*
4,1,4,$2,$3,$4,$5,$6,$7,$8,$9,$2,$3,0*
0 Add four circle primitives for the rounded corners*
1,1,$1+$1,$2,$3*
1,1,$1+$1,$4,$5*
1,1,$1+$1,$6,$7*
1,1,$1+$1,$8,$9*
0 Add four rect primitives between the rounded corners*
20,1,$1+$1,$2,$3,$4,$5,0*
20,1,$1+$1,$4,$5,$6,$7,0*
20,1,$1+$1,$6,$7,$8,$9,0*
20,1,$1+$1,$8,$9,$2,$3,0*%
%AMRotRect*
0 Rectangle, with rotation*
0 The origin of the aperture is its center*
0 $1 length*
0 $2 width*
0 $3 Rotation angle, in degrees counterclockwise*
0 Add horizontal line*
21,1,$1,$2,0,0,$3*%
G04 Aperture macros list end*
%TA.AperFunction,Profile*%
%ADD10C,0.150000*%
%TD*%
%ADD11R,0.700000X0.600000*%
%ADD12R,2.550000X2.500000*%
%ADD13RoundRect,0.090000X0.535000X-0.210000X0.535000X0.210000X-0.535000X0.210000X-0.535000X-0.210000X0*%
%ADD14RoundRect,0.105000X-0.245000X-0.445000X0.245000X-0.445000X0.245000X0.445000X-0.245000X0.445000X0*%
%ADD15R,1.000000X1.550000*%
%ADD16R,1.450000X0.600000*%
%ADD17R,1.450000X0.300000*%
%ADD18RotRect,0.600000X0.700000X255.000000*%
%ADD19RoundRect,0.140000X-0.170000X0.140000X-0.170000X-0.140000X0.170000X-0.140000X0.170000X0.140000X0*%
%ADD20RoundRect,0.218750X-0.256250X0.218750X-0.256250X-0.218750X0.256250X-0.218750X0.256250X0.218750X0*%
%ADD21RoundRect,0.147500X-0.172500X0.147500X-0.172500X-0.147500X0.172500X-0.147500X0.172500X0.147500X0*%
%ADD22RoundRect,0.140000X0.140000X0.170000X-0.140000X0.170000X-0.140000X-0.170000X0.140000X-0.170000X0*%
%ADD23RoundRect,0.135000X-0.185000X0.135000X-0.185000X-0.135000X0.185000X-0.135000X0.185000X0.135000X0*%
%ADD24RoundRect,0.150000X-0.150000X0.475000X-0.150000X-0.475000X0.150000X-0.475000X0.150000X0.475000X0*%
%ADD25RoundRect,0.135000X0.135000X0.185000X-0.135000X0.185000X-0.135000X-0.185000X0.135000X-0.185000X0*%
%ADD26RoundRect,0.200000X-0.275000X0.200000X-0.275000X-0.200000X0.275000X-0.200000X0.275000X0.200000X0*%
%ADD27RoundRect,0.160000X0.160000X-0.160000X0.160000X0.160000X-0.160000X0.160000X-0.160000X-0.160000X0*%
%ADD28RoundRect,0.062500X0.062500X-0.375000X0.062500X0.375000X-0.062500X0.375000X-0.062500X-0.375000X0*%
%ADD29RoundRect,0.062500X0.375000X-0.062500X0.375000X0.062500X-0.375000X0.062500X-0.375000X-0.062500X0*%
%ADD30RoundRect,0.250000X0.375000X0.625000X-0.375000X0.625000X-0.375000X-0.625000X0.375000X-0.625000X0*%
%ADD31RoundRect,0.135000X-0.135000X-0.185000X0.135000X-0.185000X0.135000X0.185000X-0.135000X0.185000X0*%
%ADD32RoundRect,0.135000X0.185000X-0.135000X0.185000X0.135000X-0.185000X0.135000X-0.185000X-0.135000X0*%
%ADD33RoundRect,0.140000X-0.140000X-0.170000X0.140000X-0.170000X0.140000X0.170000X-0.140000X0.170000X0*%
%ADD34RoundRect,0.150000X-0.150000X0.587500X-0.150000X-0.587500X0.150000X-0.587500X0.150000X0.587500X0*%
%ADD35R,0.800000X0.350000*%
%ADD36R,0.350000X0.800000*%
%ADD37R,1.000000X1.500000*%
%ADD38RotRect,2.550000X2.500000X75.000000*%
%ADD39RotRect,2.550000X2.500000X255.000000*%
%ADD40RoundRect,0.150000X-0.587500X-0.150000X0.587500X-0.150000X0.587500X0.150000X-0.587500X0.150000X0*%
%ADD41RoundRect,0.080000X0.080000X0.160000X-0.080000X0.160000X-0.080000X-0.160000X0.080000X-0.160000X0*%
%ADD42RoundRect,0.062500X0.325000X0.062500X-0.325000X0.062500X-0.325000X-0.062500X0.325000X-0.062500X0*%
G04 APERTURE END LIST*
D10*
X93101679Y-93260414D02*
X76199999Y-84725000D01*
X57150000Y-69675000D02*
G75*
G03*
X56150001Y-68675000I-1000000J0D01*
G01*
X67675000Y12525000D02*
X84725000Y12525000D01*
X56150001Y-68675000D02*
X-8525000Y-68674999D01*
X27567894Y7525000D02*
X-8525000Y7525000D01*
X66675000Y13525000D02*
G75*
G03*
X65675000Y14525000I-1000000J0D01*
G01*
X85725000Y11525000D02*
G75*
G03*
X86725000Y10525000I1000000J0D01*
G01*
X57150000Y-81725000D02*
G75*
G03*
X58150000Y-82725000I1000000J0D01*
G01*
X29575000Y12525000D02*
G75*
G03*
X28575000Y11525000I0J-1000000D01*
G01*
X-9525000Y-67675000D02*
X-9525000Y6525000D01*
X46625000Y12525000D02*
X29575000Y12525000D01*
X48625000Y14525000D02*
G75*
G03*
X47625000Y13525000I0J-1000000D01*
G01*
X-9525000Y-67675000D02*
G75*
G03*
X-8525000Y-68674999I1000001J2D01*
G01*
X27567894Y7525007D02*
G75*
G03*
X28567893Y8525000I6J999993D01*
G01*
X120775000Y9525000D02*
G75*
G03*
X119775000Y10525000I-1000000J0D01*
G01*
X57150000Y-81725000D02*
X57150001Y-69675000D01*
X93101679Y-93260414D02*
X110536640Y-97932098D01*
X46625000Y12525000D02*
G75*
G03*
X47625000Y13525000I0J1000000D01*
G01*
X86725000Y10525000D02*
X119775000Y10525000D01*
X110536648Y-97932067D02*
G75*
G03*
X111761384Y-97224991I258852J965867D01*
G01*
X65675000Y14525000D02*
X48625000Y14525000D01*
X28575000Y11525000D02*
X28567893Y8525000D01*
X76199999Y-84725000D02*
X58150000Y-82725000D01*
X85725000Y11525000D02*
G75*
G03*
X84725000Y12525000I-1000000J0D01*
G01*
X120775000Y9525000D02*
X120775000Y-63575000D01*
X66675000Y13525000D02*
G75*
G03*
X67675000Y12525000I1000000J0D01*
G01*
X120775000Y-63575000D02*
X111761384Y-97224991D01*
X-8525000Y7525000D02*
G75*
G03*
X-9525000Y6525000I-1J-999999D01*
G01*
D11*
%TO.C,D21*%
X67875000Y-14550000D03*
X67875000Y-15950000D03*
%TD*%
D12*
%TO.C,SW9*%
X13235000Y-64230000D03*
X13235000Y-64230000D03*
X26135000Y-61690000D03*
X26135000Y-61690000D03*
%TD*%
%TO.C,SW14*%
X64235000Y2460000D03*
X64235000Y2460000D03*
X51335000Y-80000D03*
X51335000Y-80000D03*
%TD*%
D11*
%TO.C,D8*%
X10725000Y-19550000D03*
X10725000Y-20950000D03*
%TD*%
%TO.C,D4*%
X-8325000Y-19550000D03*
X-8325000Y-20950000D03*
%TD*%
D12*
%TO.C,SW4*%
X7085000Y-42640000D03*
X7085000Y-42640000D03*
X-5815000Y-45180000D03*
X-5815000Y-45180000D03*
%TD*%
%TO.C,SW25*%
X102335000Y-20590000D03*
X89435000Y-23130000D03*
X102335000Y-20590000D03*
X89435000Y-23130000D03*
%TD*%
%TO.C,SW21*%
X70385000Y-40180000D03*
X70385000Y-40180000D03*
X83285000Y-37640000D03*
X83285000Y-37640000D03*
%TD*%
D13*
%TO.C,SW1*%
X117075000Y-25225000D03*
X117075000Y-28225000D03*
X117075000Y-29725000D03*
D14*
X117925000Y-23775000D03*
X117925000Y-31175000D03*
X120225000Y-31175000D03*
X120225000Y-23775000D03*
%TD*%
D11*
%TO.C,D17*%
X48825000Y-31600000D03*
X48825000Y-33000000D03*
%TD*%
%TO.C,D28*%
X86925000Y-54650000D03*
X86925000Y-56050000D03*
%TD*%
%TO.C,D6*%
X-8325000Y-57650000D03*
X-8325000Y-59050000D03*
%TD*%
%TO.C,D5*%
X-8325000Y-38600000D03*
X-8325000Y-40000000D03*
%TD*%
D12*
%TO.C,SW18*%
X60860000Y-78280000D03*
X60860000Y-78280000D03*
X73760000Y-75740000D03*
X73760000Y-75740000D03*
%TD*%
D11*
%TO.C,D9*%
X10725000Y-38600000D03*
X10725000Y-40000000D03*
%TD*%
%TO.C,D16*%
X48825000Y-12550000D03*
X48825000Y-13950000D03*
%TD*%
D12*
%TO.C,SW10*%
X32285000Y-2080000D03*
X45185000Y460000D03*
X32285000Y-2080000D03*
X45185000Y460000D03*
%TD*%
D11*
%TO.C,D18*%
X48825000Y-50650000D03*
X48825000Y-52050000D03*
%TD*%
%TO.C,D19*%
X58350000Y-71700000D03*
X58350000Y-73100000D03*
%TD*%
%TO.C,D20*%
X67875000Y4500000D03*
X67875000Y3100000D03*
%TD*%
D12*
%TO.C,SW6*%
X26135000Y-4540000D03*
X26135000Y-4540000D03*
X13235000Y-7080000D03*
X13235000Y-7080000D03*
%TD*%
%TO.C,SW11*%
X32285000Y-21130000D03*
X32285000Y-21130000D03*
X45185000Y-18590000D03*
X45185000Y-18590000D03*
%TD*%
D15*
%TO.C,SW29*%
X119525000Y-34850000D03*
X119525000Y-40100000D03*
X117825000Y-34850000D03*
X117825000Y-40100000D03*
%TD*%
D11*
%TO.C,D15*%
X48825000Y6500000D03*
X48825000Y5100000D03*
%TD*%
%TO.C,D12*%
X29775000Y-14550000D03*
X29775000Y-15950000D03*
%TD*%
D12*
%TO.C,SW24*%
X89435000Y-4080000D03*
X89435000Y-4080000D03*
X102335000Y-1540000D03*
X102335000Y-1540000D03*
%TD*%
%TO.C,SW27*%
X102335000Y-58690000D03*
X102335000Y-58690000D03*
X89435000Y-61230000D03*
X89435000Y-61230000D03*
%TD*%
%TO.C,SW8*%
X13235000Y-45180000D03*
X26135000Y-42640000D03*
X26135000Y-42640000D03*
X13235000Y-45180000D03*
%TD*%
D11*
%TO.C,D22*%
X67875000Y-33600000D03*
X67875000Y-35000000D03*
%TD*%
D12*
%TO.C,SW5*%
X7085000Y-61690000D03*
X-5815000Y-64230000D03*
X7085000Y-61690000D03*
X-5815000Y-64230000D03*
%TD*%
%TO.C,SW19*%
X83285000Y460000D03*
X70385000Y-2080000D03*
X70385000Y-2080000D03*
X83285000Y460000D03*
%TD*%
%TO.C,SW23*%
X92810000Y-77740000D03*
X79910000Y-80280000D03*
X92810000Y-77740000D03*
X79910000Y-80280000D03*
%TD*%
%TO.C,SW16*%
X64235000Y-35639999D03*
X51335000Y-38179999D03*
X51335000Y-38179999D03*
X64235000Y-35639999D03*
%TD*%
%TO.C,SW7*%
X13235000Y-26129999D03*
X26135000Y-23589999D03*
X26135000Y-23589999D03*
X13235000Y-26129999D03*
%TD*%
D11*
%TO.C,D3*%
X-8325000Y-500000D03*
X-8325000Y-1900000D03*
%TD*%
D12*
%TO.C,SW20*%
X70385000Y-21130000D03*
X83285000Y-18590000D03*
X83285000Y-18590000D03*
X70385000Y-21130000D03*
%TD*%
D11*
%TO.C,D23*%
X67875000Y-52650000D03*
X67875000Y-54050000D03*
%TD*%
D12*
%TO.C,SW15*%
X64235002Y-16590000D03*
X64235002Y-16590000D03*
X51335002Y-19130000D03*
X51335002Y-19130000D03*
%TD*%
%TO.C,SW26*%
X89435000Y-42180000D03*
X102335000Y-39640000D03*
X89435000Y-42180000D03*
X102335000Y-39640000D03*
%TD*%
D11*
%TO.C,D13*%
X29775000Y-33600000D03*
X29775000Y-35000000D03*
%TD*%
%TO.C,D7*%
X10725000Y-500000D03*
X10725000Y-1900000D03*
%TD*%
%TO.C,D26*%
X86925000Y-16550000D03*
X86925000Y-17950000D03*
%TD*%
%TO.C,D14*%
X29775000Y-52650000D03*
X29775000Y-54050000D03*
%TD*%
%TO.C,D25*%
X86925000Y2500000D03*
X86925000Y1100000D03*
%TD*%
D12*
%TO.C,SW17*%
X51335000Y-57230000D03*
X51335000Y-57230000D03*
X64235000Y-54690000D03*
X64235000Y-54690000D03*
%TD*%
D16*
%TO.C,J2*%
X114180000Y-9225000D03*
X114180000Y-10025000D03*
D17*
X114180000Y-14225000D03*
X114180000Y-12225000D03*
X114180000Y-12725000D03*
X114180000Y-13725000D03*
D16*
X114180000Y-14925000D03*
X114180000Y-15725000D03*
X114180000Y-15725000D03*
X114180000Y-14925000D03*
D17*
X114180000Y-11225000D03*
X114180000Y-13225000D03*
X114180000Y-11725000D03*
X114180000Y-10725000D03*
D16*
X114180000Y-10025000D03*
X114180000Y-9225000D03*
%TD*%
D12*
%TO.C,SW22*%
X70385000Y-59230000D03*
X83285000Y-56690000D03*
X83285000Y-56690000D03*
X70385000Y-59230000D03*
%TD*%
D18*
%TO.C,D29*%
X98523117Y-74980777D03*
X98160771Y-76333073D03*
%TD*%
D11*
%TO.C,D10*%
X10725000Y-57650000D03*
X10725000Y-59050000D03*
%TD*%
D12*
%TO.C,SW2*%
X7085000Y-4540000D03*
X-5815000Y-7080000D03*
X-5815000Y-7080000D03*
X7085000Y-4540000D03*
%TD*%
%TO.C,SW3*%
X7085000Y-23590000D03*
X-5815000Y-26130000D03*
X7085000Y-23590000D03*
X-5815000Y-26130000D03*
%TD*%
D11*
%TO.C,D27*%
X86925000Y-35600000D03*
X86925000Y-37000000D03*
%TD*%
D12*
%TO.C,SW12*%
X45185000Y-37640000D03*
X32285000Y-40180000D03*
X32285000Y-40180000D03*
X45185000Y-37640000D03*
%TD*%
D11*
%TO.C,D11*%
X29775000Y4500000D03*
X29775000Y3100000D03*
%TD*%
D12*
%TO.C,SW13*%
X45185000Y-56690000D03*
X45185000Y-56690000D03*
X32285000Y-59230000D03*
X32285000Y-59230000D03*
%TD*%
D11*
%TO.C,D24*%
X77400000Y-73700000D03*
X77400000Y-75100000D03*
%TD*%
D19*
%TO.C,C8*%
X110875000Y-4945000D03*
X110875000Y-5905000D03*
%TD*%
D20*
%TO.C,L1*%
X108225000Y-5437500D03*
X108225000Y-7012500D03*
%TD*%
D21*
%TO.C,FB1*%
X112375000Y-18240000D03*
X112375000Y-19210000D03*
%TD*%
D22*
%TO.C,C4*%
X109705000Y-24325000D03*
X108745000Y-24325000D03*
%TD*%
D23*
%TO.C,R13*%
X107475000Y-47165000D03*
X107475000Y-48185000D03*
%TD*%
D24*
%TO.C,U3*%
X109425000Y-11800000D03*
X110375000Y-11800000D03*
X111325000Y-11800000D03*
X111325000Y-14150000D03*
X110375000Y-14150000D03*
X109425000Y-14150000D03*
%TD*%
D19*
%TO.C,C9*%
X109875000Y-4945000D03*
X109875000Y-5905000D03*
%TD*%
D25*
%TO.C,R6*%
X113347500Y-30725000D03*
X112327500Y-30725000D03*
%TD*%
D26*
%TO.C,R12*%
X112425000Y-5200000D03*
X112425000Y-6850000D03*
%TD*%
D25*
%TO.C,R1*%
X113347500Y-26825000D03*
X112327500Y-26825000D03*
%TD*%
%TO.C,R3*%
X113347500Y-29425000D03*
X112327500Y-29425000D03*
%TD*%
D27*
%TO.C,U1*%
X109287500Y-27375000D03*
X109287500Y-26575000D03*
X110087500Y-27375000D03*
X110087500Y-26575000D03*
D28*
X110437500Y-28412500D03*
X109937500Y-28412500D03*
X109437500Y-28412500D03*
X108937500Y-28412500D03*
D29*
X108250000Y-27725000D03*
X108250000Y-27225000D03*
X108250000Y-26725000D03*
X108250000Y-26225000D03*
D28*
X108937500Y-25537500D03*
X109437500Y-25537500D03*
X109937500Y-25537500D03*
X110437500Y-25537500D03*
D29*
X111125000Y-26225000D03*
X111125000Y-26725000D03*
X111125000Y-27225000D03*
X111125000Y-27725000D03*
%TD*%
D30*
%TO.C,D1*%
X119625000Y-18725000D03*
X116825000Y-18725000D03*
%TD*%
D22*
%TO.C,C6*%
X109705000Y-30725000D03*
X108745000Y-30725000D03*
%TD*%
D31*
%TO.C,R4*%
X114215000Y-20775000D03*
X115235000Y-20775000D03*
%TD*%
D20*
%TO.C,F1*%
X109225000Y-31937500D03*
X109225000Y-33512500D03*
%TD*%
D22*
%TO.C,C3*%
X109705000Y-23225000D03*
X108745000Y-23225000D03*
%TD*%
D32*
%TO.C,R7*%
X119625000Y-22485000D03*
X119625000Y-21465000D03*
%TD*%
D33*
%TO.C,C10*%
X106595000Y-4075000D03*
X107555000Y-4075000D03*
%TD*%
D32*
%TO.C,R10*%
X107475000Y-49985000D03*
X107475000Y-48965000D03*
%TD*%
D34*
%TO.C,Q1*%
X114725000Y-22287500D03*
X116625000Y-22287500D03*
X115675000Y-24162500D03*
%TD*%
D35*
%TO.C,U4*%
X118375000Y8925000D03*
X118375000Y8275000D03*
X118375000Y7625000D03*
X118375000Y6975000D03*
X118375000Y6325000D03*
X118375000Y5675000D03*
X118375000Y5025000D03*
X118375000Y4375000D03*
X118375000Y3725000D03*
X118375000Y3075000D03*
X118375000Y2425000D03*
X118375000Y1775000D03*
X118375000Y1125000D03*
X118375000Y475000D03*
X118375000Y-175000D03*
X118375000Y-825000D03*
X118375000Y-1475000D03*
D36*
X117975000Y-2675000D03*
X117325000Y-2675000D03*
X116675000Y-2675000D03*
X116025000Y-2675000D03*
X115375000Y-2675000D03*
X114725000Y-2675000D03*
X114075000Y-2675000D03*
X113425000Y-2675000D03*
X112775000Y-2675000D03*
X112125000Y-2675000D03*
X111475000Y-2675000D03*
X110825000Y-2675000D03*
X110175000Y-2675000D03*
X109525000Y-2675000D03*
X108875000Y-2675000D03*
X108225000Y-2675000D03*
X107575000Y-2675000D03*
D35*
X107175000Y-1475000D03*
X107175000Y-825000D03*
X107175000Y-175000D03*
X107175000Y475000D03*
X107175000Y1125000D03*
X107175000Y1775000D03*
X107175000Y2425000D03*
X107175000Y3075000D03*
X107175000Y3725000D03*
X107175000Y4375000D03*
X107175000Y5025000D03*
X107175000Y5675000D03*
X107175000Y6325000D03*
X107175000Y6975000D03*
X107175000Y7625000D03*
X107175000Y8275000D03*
X107175000Y8925000D03*
D36*
X108225000Y8825000D03*
X108875000Y8825000D03*
X109525000Y8825000D03*
X110175000Y8825000D03*
X110825000Y8825000D03*
D35*
X108875000Y7625000D03*
X108875000Y6975000D03*
X108875000Y6325000D03*
X108875000Y5675000D03*
D37*
X114325000Y5425000D03*
X114325000Y2575000D03*
X111525000Y2575000D03*
X111525000Y5425000D03*
%TD*%
D25*
%TO.C,R2*%
X113347500Y-28125000D03*
X112327500Y-28125000D03*
%TD*%
D38*
%TO.C,SW28*%
X101712815Y-88111184D03*
D39*
X102598130Y-74993341D03*
X101712815Y-88111184D03*
%TD*%
D22*
%TO.C,C7*%
X109705000Y-29625000D03*
X108745000Y-29625000D03*
%TD*%
%TO.C,C2*%
X113317500Y-25725000D03*
X112357500Y-25725000D03*
%TD*%
D40*
%TO.C,Q3*%
X108937500Y-46100000D03*
X108937500Y-44200000D03*
X110812500Y-45150000D03*
%TD*%
D26*
%TO.C,R11*%
X113975000Y-5200000D03*
X113975000Y-6850000D03*
%TD*%
D33*
%TO.C,C1*%
X112357500Y-24625000D03*
X113317500Y-24625000D03*
%TD*%
D20*
%TO.C,F2*%
X112375000Y-15587500D03*
X112375000Y-17162500D03*
%TD*%
D23*
%TO.C,R8*%
X109425000Y-9065000D03*
X109425000Y-10085000D03*
%TD*%
D32*
%TO.C,R14*%
X107475000Y-45635000D03*
X107475000Y-44615000D03*
%TD*%
D25*
%TO.C,R5*%
X117110000Y-20775000D03*
X116090000Y-20775000D03*
%TD*%
D23*
%TO.C,R9*%
X109425000Y-15865000D03*
X109425000Y-16885000D03*
%TD*%
D40*
%TO.C,Q2*%
X108937500Y-49525000D03*
X108937500Y-47625000D03*
X110812500Y-48575000D03*
%TD*%
D19*
%TO.C,C5*%
X118525000Y-4945000D03*
X118525000Y-5905000D03*
%TD*%
D41*
%TO.C,U2*%
X116175000Y-6075000D03*
X116575000Y-6075000D03*
X116175000Y-5475000D03*
X116575000Y-5475000D03*
D42*
X117362500Y-5025000D03*
X117362500Y-5525000D03*
X117362500Y-6025000D03*
X117362500Y-6525000D03*
X115387500Y-6525000D03*
X115387500Y-6025000D03*
X115387500Y-5525000D03*
X115387500Y-5025000D03*
%TD*%
M02*
