%TF.GenerationSoftware,KiCad,Pcbnew,(6.0.4)*%
%TF.CreationDate,2022-07-16T19:47:12-07:00*%
%TF.ProjectId,Conejo,436f6e65-6a6f-42e6-9b69-6361645f7063,v1.0.0*%
%TF.SameCoordinates,Original*%
%TF.FileFunction,Copper,L4,Bot*%
%TF.FilePolarity,Positive*%
%FSLAX46Y46*%
G04 Gerber Fmt 4.6, Leading zero omitted, Abs format (unit mm)*
G04 Created by KiCad (PCBNEW (6.0.4)) date 2022-07-16 19:47:12*
%MOMM*%
%LPD*%
G01*
G04 APERTURE LIST*
G04 Aperture macros list*
%AMRoundRect*
0 Rectangle with rounded corners*
0 $1 Rounding radius*
0 $2 $3 $4 $5 $6 $7 $8 $9 X,Y pos of 4 corners*
0 Add a 4 corners polygon primitive as box body*
4,1,4,$2,$3,$4,$5,$6,$7,$8,$9,$2,$3,0*
0 Add four circle primitives for the rounded corners*
1,1,$1+$1,$2,$3*
1,1,$1+$1,$4,$5*
1,1,$1+$1,$6,$7*
1,1,$1+$1,$8,$9*
0 Add four rect primitives between the rounded corners*
20,1,$1+$1,$2,$3,$4,$5,0*
20,1,$1+$1,$4,$5,$6,$7,0*
20,1,$1+$1,$6,$7,$8,$9,0*
20,1,$1+$1,$8,$9,$2,$3,0*%
%AMRotRect*
0 Rectangle, with rotation*
0 The origin of the aperture is its center*
0 $1 length*
0 $2 width*
0 $3 Rotation angle, in degrees counterclockwise*
0 Add horizontal line*
21,1,$1,$2,0,0,$3*%
G04 Aperture macros list end*
%TA.AperFunction,Profile*%
%ADD10C,0.150000*%
%TD*%
%TA.AperFunction,SMDPad,CuDef*%
%ADD11R,0.700000X0.600000*%
%TD*%
%TA.AperFunction,SMDPad,CuDef*%
%ADD12RoundRect,0.125000X0.000000X0.700000X0.000000X-0.700000X0.000000X-0.700000X0.000000X0.700000X0*%
%TD*%
%TA.AperFunction,ComponentPad*%
%ADD13C,0.800000*%
%TD*%
%TA.AperFunction,SMDPad,CuDef*%
%ADD14R,3.498000X2.500000*%
%TD*%
%TA.AperFunction,ComponentPad*%
%ADD15C,4.000000*%
%TD*%
%TA.AperFunction,SMDPad,CuDef*%
%ADD16RoundRect,0.090000X0.535000X-0.210000X0.535000X0.210000X-0.535000X0.210000X-0.535000X-0.210000X0*%
%TD*%
%TA.AperFunction,SMDPad,CuDef*%
%ADD17RoundRect,0.105000X-0.245000X-0.445000X0.245000X-0.445000X0.245000X0.445000X-0.245000X0.445000X0*%
%TD*%
%TA.AperFunction,SMDPad,CuDef*%
%ADD18R,1.000000X1.550000*%
%TD*%
%TA.AperFunction,SMDPad,CuDef*%
%ADD19R,1.450000X0.600000*%
%TD*%
%TA.AperFunction,SMDPad,CuDef*%
%ADD20R,1.450000X0.300000*%
%TD*%
%TA.AperFunction,ComponentPad*%
%ADD21O,2.100000X1.000000*%
%TD*%
%TA.AperFunction,ComponentPad*%
%ADD22O,1.600000X1.000000*%
%TD*%
%TA.AperFunction,SMDPad,CuDef*%
%ADD23RotRect,0.600000X0.700000X255.000000*%
%TD*%
%TA.AperFunction,SMDPad,CuDef*%
%ADD24RoundRect,0.125000X0.181173X0.676148X-0.181173X-0.676148X-0.181173X-0.676148X0.181173X0.676148X0*%
%TD*%
%TA.AperFunction,SMDPad,CuDef*%
%ADD25RoundRect,0.140000X-0.170000X0.140000X-0.170000X-0.140000X0.170000X-0.140000X0.170000X0.140000X0*%
%TD*%
%TA.AperFunction,SMDPad,CuDef*%
%ADD26RoundRect,0.218750X-0.256250X0.218750X-0.256250X-0.218750X0.256250X-0.218750X0.256250X0.218750X0*%
%TD*%
%TA.AperFunction,SMDPad,CuDef*%
%ADD27RoundRect,0.147500X-0.172500X0.147500X-0.172500X-0.147500X0.172500X-0.147500X0.172500X0.147500X0*%
%TD*%
%TA.AperFunction,SMDPad,CuDef*%
%ADD28RoundRect,0.140000X0.140000X0.170000X-0.140000X0.170000X-0.140000X-0.170000X0.140000X-0.170000X0*%
%TD*%
%TA.AperFunction,SMDPad,CuDef*%
%ADD29RoundRect,0.135000X-0.185000X0.135000X-0.185000X-0.135000X0.185000X-0.135000X0.185000X0.135000X0*%
%TD*%
%TA.AperFunction,SMDPad,CuDef*%
%ADD30RoundRect,0.150000X-0.150000X0.475000X-0.150000X-0.475000X0.150000X-0.475000X0.150000X0.475000X0*%
%TD*%
%TA.AperFunction,ComponentPad*%
%ADD31R,1.524000X1.524000*%
%TD*%
%TA.AperFunction,SMDPad,CuDef*%
%ADD32RoundRect,0.135000X0.135000X0.185000X-0.135000X0.185000X-0.135000X-0.185000X0.135000X-0.185000X0*%
%TD*%
%TA.AperFunction,SMDPad,CuDef*%
%ADD33RoundRect,0.200000X-0.275000X0.200000X-0.275000X-0.200000X0.275000X-0.200000X0.275000X0.200000X0*%
%TD*%
%TA.AperFunction,SMDPad,CuDef*%
%ADD34RoundRect,0.062500X0.062500X-0.375000X0.062500X0.375000X-0.062500X0.375000X-0.062500X-0.375000X0*%
%TD*%
%TA.AperFunction,SMDPad,CuDef*%
%ADD35RoundRect,0.062500X0.375000X-0.062500X0.375000X0.062500X-0.375000X0.062500X-0.375000X-0.062500X0*%
%TD*%
%TA.AperFunction,SMDPad,CuDef*%
%ADD36R,1.600000X1.600000*%
%TD*%
%TA.AperFunction,SMDPad,CuDef*%
%ADD37RoundRect,0.250000X0.375000X0.625000X-0.375000X0.625000X-0.375000X-0.625000X0.375000X-0.625000X0*%
%TD*%
%TA.AperFunction,SMDPad,CuDef*%
%ADD38RoundRect,0.135000X-0.135000X-0.185000X0.135000X-0.185000X0.135000X0.185000X-0.135000X0.185000X0*%
%TD*%
%TA.AperFunction,SMDPad,CuDef*%
%ADD39RoundRect,0.135000X0.185000X-0.135000X0.185000X0.135000X-0.185000X0.135000X-0.185000X-0.135000X0*%
%TD*%
%TA.AperFunction,SMDPad,CuDef*%
%ADD40RoundRect,0.140000X-0.140000X-0.170000X0.140000X-0.170000X0.140000X0.170000X-0.140000X0.170000X0*%
%TD*%
%TA.AperFunction,SMDPad,CuDef*%
%ADD41RoundRect,0.150000X-0.150000X0.587500X-0.150000X-0.587500X0.150000X-0.587500X0.150000X0.587500X0*%
%TD*%
%TA.AperFunction,SMDPad,CuDef*%
%ADD42R,0.800000X0.350000*%
%TD*%
%TA.AperFunction,SMDPad,CuDef*%
%ADD43R,0.350000X0.800000*%
%TD*%
%TA.AperFunction,SMDPad,CuDef*%
%ADD44R,1.000000X1.500000*%
%TD*%
%TA.AperFunction,SMDPad,CuDef*%
%ADD45RotRect,3.498000X2.500000X255.000000*%
%TD*%
%TA.AperFunction,SMDPad,CuDef*%
%ADD46RotRect,3.498000X2.500000X75.000000*%
%TD*%
%TA.AperFunction,ComponentPad*%
%ADD47RoundRect,0.337500X-0.337500X0.337500X-0.337500X-0.337500X0.337500X-0.337500X0.337500X0.337500X0*%
%TD*%
%TA.AperFunction,SMDPad,CuDef*%
%ADD48RoundRect,0.150000X-0.587500X-0.150000X0.587500X-0.150000X0.587500X0.150000X-0.587500X0.150000X0*%
%TD*%
%TA.AperFunction,SMDPad,CuDef*%
%ADD49RoundRect,0.062500X0.325000X0.062500X-0.325000X0.062500X-0.325000X-0.062500X0.325000X-0.062500X0*%
%TD*%
%TA.AperFunction,SMDPad,CuDef*%
%ADD50R,0.800000X1.200000*%
%TD*%
%TA.AperFunction,ViaPad*%
%ADD51C,0.600000*%
%TD*%
%TA.AperFunction,Conductor*%
%ADD52C,0.200000*%
%TD*%
%TA.AperFunction,Conductor*%
%ADD53C,0.800000*%
%TD*%
%TA.AperFunction,Conductor*%
%ADD54C,0.540000*%
%TD*%
%TA.AperFunction,Conductor*%
%ADD55C,0.350000*%
%TD*%
%TA.AperFunction,Conductor*%
%ADD56C,0.400000*%
%TD*%
%TA.AperFunction,Conductor*%
%ADD57C,0.560000*%
%TD*%
%TA.AperFunction,Conductor*%
%ADD58C,0.250000*%
%TD*%
%TA.AperFunction,Conductor*%
%ADD59C,0.600000*%
%TD*%
%TA.AperFunction,Conductor*%
%ADD60C,0.520000*%
%TD*%
%TA.AperFunction,Conductor*%
%ADD61C,1.000000*%
%TD*%
%TA.AperFunction,Conductor*%
%ADD62C,0.500000*%
%TD*%
%TA.AperFunction,Conductor*%
%ADD63C,0.590000*%
%TD*%
%TA.AperFunction,Conductor*%
%ADD64C,0.205740*%
%TD*%
G04 APERTURE END LIST*
D10*
X93101679Y-93260414D02*
X76199999Y-84725000D01*
X57150000Y-69675000D02*
G75*
G03*
X56150001Y-68675000I-1000000J0D01*
G01*
X67675000Y12525000D02*
X84725000Y12525000D01*
X56150001Y-68675000D02*
X-8525000Y-68674999D01*
X27567894Y7525000D02*
X-8525000Y7525000D01*
X66675000Y13525000D02*
G75*
G03*
X65675000Y14525000I-1000000J0D01*
G01*
X85725000Y11525000D02*
G75*
G03*
X86725000Y10525000I1000000J0D01*
G01*
X57150000Y-81725000D02*
G75*
G03*
X58150000Y-82725000I1000000J0D01*
G01*
X29575000Y12525000D02*
G75*
G03*
X28575000Y11525000I0J-1000000D01*
G01*
X-9525000Y-67675000D02*
X-9525000Y6525000D01*
X46625000Y12525000D02*
X29575000Y12525000D01*
X48625000Y14525000D02*
G75*
G03*
X47625000Y13525000I0J-1000000D01*
G01*
X-9525000Y-67675000D02*
G75*
G03*
X-8525000Y-68674999I1000001J2D01*
G01*
X27567894Y7525007D02*
G75*
G03*
X28567893Y8525000I6J999993D01*
G01*
X120775000Y9525000D02*
G75*
G03*
X119775000Y10525000I-1000000J0D01*
G01*
X57150000Y-81725000D02*
X57150001Y-69675000D01*
X93101679Y-93260414D02*
X110536640Y-97932098D01*
X46625000Y12525000D02*
G75*
G03*
X47625000Y13525000I0J1000000D01*
G01*
X86725000Y10525000D02*
X119775000Y10525000D01*
X110536648Y-97932067D02*
G75*
G03*
X111761384Y-97224991I258852J965867D01*
G01*
X65675000Y14525000D02*
X48625000Y14525000D01*
X28575000Y11525000D02*
X28567893Y8525000D01*
X76199999Y-84725000D02*
X58150000Y-82725000D01*
X85725000Y11525000D02*
G75*
G03*
X84725000Y12525000I-1000000J0D01*
G01*
X120775000Y9525000D02*
X120775000Y-63575000D01*
X66675000Y13525000D02*
G75*
G03*
X67675000Y12525000I1000000J0D01*
G01*
X120775000Y-63575000D02*
X111761384Y-97224991D01*
X-8525000Y7525000D02*
G75*
G03*
X-9525000Y6525000I-1J-999999D01*
G01*
D11*
%TO.P,D21,1,K*%
%TO.N,ROW2*%
X67875000Y-14550000D03*
D12*
X67875000Y-14025000D03*
D13*
X67875000Y-13599000D03*
D11*
%TO.P,D21,2,A*%
%TO.N,Net-(D21-Pad2)*%
X67875000Y-15950000D03*
D12*
X67875000Y-16475000D03*
D13*
X67875000Y-16901000D03*
%TD*%
D14*
%TO.P,SW9,1,1*%
%TO.N,COL2*%
X25661000Y-61690000D03*
D15*
X21590000Y-64230000D03*
X22860000Y-61690000D03*
%TO.P,SW9,2,2*%
%TO.N,Net-(D10-Pad2)*%
X16510000Y-64230000D03*
X15240000Y-61690000D03*
D14*
X13709000Y-64230000D03*
%TD*%
D15*
%TO.P,SW14,1,1*%
%TO.N,COL4*%
X59690000Y-80000D03*
D14*
X63761000Y2460000D03*
D15*
X60960000Y2460000D03*
%TO.P,SW14,2,2*%
%TO.N,Net-(D15-Pad2)*%
X54610000Y-80000D03*
X53340000Y2460000D03*
D14*
X51809000Y-80000D03*
%TD*%
D12*
%TO.P,D8,1,K*%
%TO.N,ROW2*%
X10725000Y-19025000D03*
D11*
X10725000Y-19550000D03*
D13*
X10725000Y-18599000D03*
D12*
%TO.P,D8,2,A*%
%TO.N,Net-(D8-Pad2)*%
X10725000Y-21475000D03*
D13*
X10725000Y-21901000D03*
D11*
X10725000Y-20950000D03*
%TD*%
D13*
%TO.P,D4,1,K*%
%TO.N,ROW2*%
X-8325000Y-18599000D03*
D12*
X-8325000Y-19025000D03*
D11*
X-8325000Y-19550000D03*
%TO.P,D4,2,A*%
%TO.N,Net-(D4-Pad2)*%
X-8325000Y-20950000D03*
D13*
X-8325000Y-21901000D03*
D12*
X-8325000Y-21475000D03*
%TD*%
D15*
%TO.P,SW4,1,1*%
%TO.N,COL1*%
X2540000Y-45180000D03*
D14*
X6611000Y-42640000D03*
D15*
X3810000Y-42640000D03*
%TO.P,SW4,2,2*%
%TO.N,Net-(D5-Pad2)*%
X-3810000Y-42640000D03*
D14*
X-5341000Y-45180000D03*
D15*
X-2540000Y-45180000D03*
%TD*%
%TO.P,SW25,1,1*%
%TO.N,COL6*%
X99060000Y-20590000D03*
X97790000Y-23130000D03*
D14*
X101861000Y-20590000D03*
%TO.P,SW25,2,2*%
%TO.N,Net-(D26-Pad2)*%
X89909000Y-23130000D03*
D15*
X92710000Y-23130000D03*
X91440000Y-20590000D03*
%TD*%
%TO.P,SW21,1,1*%
%TO.N,COL5*%
X78740000Y-40180000D03*
X80010000Y-37640000D03*
D14*
X82811000Y-37640000D03*
D15*
%TO.P,SW21,2,2*%
%TO.N,Net-(D22-Pad2)*%
X73660000Y-40180000D03*
X72390000Y-37640000D03*
D14*
X70859000Y-40180000D03*
%TD*%
D16*
%TO.P,SW1,1,A*%
%TO.N,GND*%
X117075000Y-25225000D03*
%TO.P,SW1,2,B*%
%TO.N,/Power Management/SYSOFF*%
X117075000Y-28225000D03*
%TO.P,SW1,3,C*%
%TO.N,Net-(R6-Pad1)*%
X117075000Y-29725000D03*
D17*
%TO.P,SW1,MP*%
%TO.N,N/C*%
X117925000Y-23775000D03*
X117925000Y-31175000D03*
X120225000Y-31175000D03*
X120225000Y-23775000D03*
%TD*%
D13*
%TO.P,D17,1,K*%
%TO.N,ROW3*%
X48825000Y-30649000D03*
D11*
X48825000Y-31600000D03*
D12*
X48825000Y-31075000D03*
%TO.P,D17,2,A*%
%TO.N,Net-(D17-Pad2)*%
X48825000Y-33525000D03*
D11*
X48825000Y-33000000D03*
D13*
X48825000Y-33951000D03*
%TD*%
%TO.P,D28,1,K*%
%TO.N,ROW4*%
X86925000Y-53699000D03*
D12*
X86925000Y-54125000D03*
D11*
X86925000Y-54650000D03*
D12*
%TO.P,D28,2,A*%
%TO.N,Net-(D28-Pad2)*%
X86925000Y-56575000D03*
D11*
X86925000Y-56050000D03*
D13*
X86925000Y-57001000D03*
%TD*%
D11*
%TO.P,D6,1,K*%
%TO.N,ROW4*%
X-8325000Y-57650000D03*
D12*
X-8325000Y-57125000D03*
D13*
X-8325000Y-56699000D03*
D11*
%TO.P,D6,2,A*%
%TO.N,Net-(D6-Pad2)*%
X-8325000Y-59050000D03*
D13*
X-8325000Y-60001000D03*
D12*
X-8325000Y-59575000D03*
%TD*%
D11*
%TO.P,D5,1,K*%
%TO.N,ROW3*%
X-8325000Y-38600000D03*
D13*
X-8325000Y-37649000D03*
D12*
X-8325000Y-38075000D03*
D11*
%TO.P,D5,2,A*%
%TO.N,Net-(D5-Pad2)*%
X-8325000Y-40000000D03*
D13*
X-8325000Y-40951000D03*
D12*
X-8325000Y-40525000D03*
%TD*%
D15*
%TO.P,SW18,1,1*%
%TO.N,COL4*%
X69215000Y-78280000D03*
D14*
X73286000Y-75740000D03*
D15*
X70485000Y-75740000D03*
D14*
%TO.P,SW18,2,2*%
%TO.N,Net-(D19-Pad2)*%
X61334000Y-78280000D03*
D15*
X64135000Y-78280000D03*
X62865000Y-75740000D03*
%TD*%
D13*
%TO.P,D9,1,K*%
%TO.N,ROW3*%
X10725000Y-37649000D03*
D11*
X10725000Y-38600000D03*
D12*
X10725000Y-38075000D03*
%TO.P,D9,2,A*%
%TO.N,Net-(D9-Pad2)*%
X10725000Y-40525000D03*
D13*
X10725000Y-40951000D03*
D11*
X10725000Y-40000000D03*
%TD*%
D12*
%TO.P,D16,1,K*%
%TO.N,ROW2*%
X48825000Y-12025000D03*
D11*
X48825000Y-12550000D03*
D13*
X48825000Y-11599000D03*
%TO.P,D16,2,A*%
%TO.N,Net-(D16-Pad2)*%
X48825000Y-14901000D03*
D12*
X48825000Y-14475000D03*
D11*
X48825000Y-13950000D03*
%TD*%
D15*
%TO.P,SW10,1,1*%
%TO.N,COL3*%
X40640000Y-2080000D03*
D14*
X44711000Y460000D03*
D15*
X41910000Y460000D03*
%TO.P,SW10,2,2*%
%TO.N,Net-(D11-Pad2)*%
X34290000Y460000D03*
X35560000Y-2080000D03*
D14*
X32759000Y-2080000D03*
%TD*%
D11*
%TO.P,D18,1,K*%
%TO.N,ROW4*%
X48825000Y-50650000D03*
D13*
X48825000Y-49699000D03*
D12*
X48825000Y-50125000D03*
D11*
%TO.P,D18,2,A*%
%TO.N,Net-(D18-Pad2)*%
X48825000Y-52050000D03*
D13*
X48825000Y-53001000D03*
D12*
X48825000Y-52575000D03*
%TD*%
D11*
%TO.P,D19,1,K*%
%TO.N,ROW5*%
X58350000Y-71700000D03*
D13*
X58350000Y-70749000D03*
D12*
X58350000Y-71175000D03*
D13*
%TO.P,D19,2,A*%
%TO.N,Net-(D19-Pad2)*%
X58350000Y-74051000D03*
D12*
X58350000Y-73625000D03*
D11*
X58350000Y-73100000D03*
%TD*%
D12*
%TO.P,D20,1,K*%
%TO.N,ROW1*%
X67875000Y5025000D03*
D11*
X67875000Y4500000D03*
D13*
X67875000Y5451000D03*
D11*
%TO.P,D20,2,A*%
%TO.N,Net-(D20-Pad2)*%
X67875000Y3100000D03*
D12*
X67875000Y2575000D03*
D13*
X67875000Y2149000D03*
%TD*%
D15*
%TO.P,SW6,1,1*%
%TO.N,COL2*%
X22860000Y-4540000D03*
X21590000Y-7080000D03*
D14*
X25661000Y-4540000D03*
D15*
%TO.P,SW6,2,2*%
%TO.N,Net-(D7-Pad2)*%
X15240000Y-4540000D03*
X16510000Y-7080000D03*
D14*
X13709000Y-7080000D03*
%TD*%
D15*
%TO.P,SW11,1,1*%
%TO.N,COL3*%
X40640000Y-21130000D03*
X41910000Y-18590000D03*
D14*
X44711000Y-18590000D03*
D15*
%TO.P,SW11,2,2*%
%TO.N,Net-(D12-Pad2)*%
X34290000Y-18590000D03*
X35560000Y-21130000D03*
D14*
X32759000Y-21130000D03*
%TD*%
D18*
%TO.P,SW29,1,1*%
%TO.N,GND*%
X119525000Y-34850000D03*
X119525000Y-40100000D03*
%TO.P,SW29,2,2*%
%TO.N,RESET*%
X117825000Y-34850000D03*
X117825000Y-40100000D03*
%TD*%
D13*
%TO.P,D15,1,K*%
%TO.N,ROW1*%
X48825000Y7451000D03*
D11*
X48825000Y6500000D03*
D12*
X48825000Y7025000D03*
%TO.P,D15,2,A*%
%TO.N,Net-(D15-Pad2)*%
X48825000Y4575000D03*
D11*
X48825000Y5100000D03*
D13*
X48825000Y4149000D03*
%TD*%
D11*
%TO.P,D12,1,K*%
%TO.N,ROW2*%
X29775000Y-14550000D03*
D13*
X29775000Y-13599000D03*
D12*
X29775000Y-14025000D03*
%TO.P,D12,2,A*%
%TO.N,Net-(D12-Pad2)*%
X29775000Y-16475000D03*
D11*
X29775000Y-15950000D03*
D13*
X29775000Y-16901000D03*
%TD*%
D14*
%TO.P,SW24,1,1*%
%TO.N,COL6*%
X101861000Y-1540000D03*
D15*
X99060000Y-1540000D03*
X97790000Y-4080000D03*
D14*
%TO.P,SW24,2,2*%
%TO.N,Net-(D25-Pad2)*%
X89909000Y-4080000D03*
D15*
X92710000Y-4080000D03*
X91440000Y-1540000D03*
%TD*%
D14*
%TO.P,SW27,1,1*%
%TO.N,COL6*%
X101861000Y-58690000D03*
D15*
X97790000Y-61230000D03*
X99060000Y-58690000D03*
%TO.P,SW27,2,2*%
%TO.N,Net-(D28-Pad2)*%
X92710000Y-61230000D03*
X91440000Y-58690000D03*
D14*
X89909000Y-61230000D03*
%TD*%
D15*
%TO.P,SW8,1,1*%
%TO.N,COL2*%
X22860000Y-42640000D03*
X21590000Y-45180000D03*
D14*
X25661000Y-42640000D03*
D15*
%TO.P,SW8,2,2*%
%TO.N,Net-(D9-Pad2)*%
X16510000Y-45180000D03*
X15240000Y-42640000D03*
D14*
X13709000Y-45180000D03*
%TD*%
D12*
%TO.P,D22,1,K*%
%TO.N,ROW3*%
X67875000Y-33075000D03*
D13*
X67875000Y-32649000D03*
D11*
X67875000Y-33600000D03*
%TO.P,D22,2,A*%
%TO.N,Net-(D22-Pad2)*%
X67875000Y-35000000D03*
D13*
X67875000Y-35951000D03*
D12*
X67875000Y-35525000D03*
%TD*%
D15*
%TO.P,SW5,1,1*%
%TO.N,COL1*%
X2540000Y-64230000D03*
D14*
X6611000Y-61690000D03*
D15*
X3810000Y-61690000D03*
D14*
%TO.P,SW5,2,2*%
%TO.N,Net-(D6-Pad2)*%
X-5341000Y-64230000D03*
D15*
X-2540000Y-64230000D03*
X-3810000Y-61690000D03*
%TD*%
%TO.P,SW19,1,1*%
%TO.N,COL5*%
X80010000Y460000D03*
D14*
X82811000Y460000D03*
D15*
X78740000Y-2080000D03*
%TO.P,SW19,2,2*%
%TO.N,Net-(D20-Pad2)*%
X73660000Y-2080000D03*
X72390000Y460000D03*
D14*
X70859000Y-2080000D03*
%TD*%
%TO.P,SW23,1,1*%
%TO.N,COL5*%
X92336000Y-77740000D03*
D15*
X88265000Y-80280000D03*
X89535000Y-77740000D03*
%TO.P,SW23,2,2*%
%TO.N,Net-(D24-Pad2)*%
X81915000Y-77740000D03*
X83185000Y-80280000D03*
D14*
X80384000Y-80280000D03*
%TD*%
D15*
%TO.P,SW16,1,1*%
%TO.N,COL4*%
X59690000Y-38179999D03*
X60960000Y-35639999D03*
D14*
X63761000Y-35639999D03*
D15*
%TO.P,SW16,2,2*%
%TO.N,Net-(D17-Pad2)*%
X54610000Y-38179999D03*
D14*
X51809000Y-38179999D03*
D15*
X53340000Y-35639999D03*
%TD*%
%TO.P,SW7,1,1*%
%TO.N,COL2*%
X22860000Y-23589999D03*
D14*
X25661000Y-23589999D03*
D15*
X21590000Y-26129999D03*
D14*
%TO.P,SW7,2,2*%
%TO.N,Net-(D8-Pad2)*%
X13709000Y-26129999D03*
D15*
X15240000Y-23589999D03*
X16510000Y-26129999D03*
%TD*%
D13*
%TO.P,D3,1,K*%
%TO.N,ROW1*%
X-8325000Y451000D03*
D11*
X-8325000Y-500000D03*
D12*
X-8325000Y25000D03*
D13*
%TO.P,D3,2,A*%
%TO.N,Net-(D3-Pad2)*%
X-8325000Y-2851000D03*
D11*
X-8325000Y-1900000D03*
D12*
X-8325000Y-2425000D03*
%TD*%
D15*
%TO.P,SW20,1,1*%
%TO.N,COL5*%
X78740000Y-21130000D03*
X80010000Y-18590000D03*
D14*
X82811000Y-18590000D03*
D15*
%TO.P,SW20,2,2*%
%TO.N,Net-(D21-Pad2)*%
X72390000Y-18590000D03*
D14*
X70859000Y-21130000D03*
D15*
X73660000Y-21130000D03*
%TD*%
D12*
%TO.P,D23,1,K*%
%TO.N,ROW4*%
X67875000Y-52125000D03*
D11*
X67875000Y-52650000D03*
D13*
X67875000Y-51699000D03*
D12*
%TO.P,D23,2,A*%
%TO.N,Net-(D23-Pad2)*%
X67875000Y-54575000D03*
D13*
X67875000Y-55001000D03*
D11*
X67875000Y-54050000D03*
%TD*%
D15*
%TO.P,SW15,1,1*%
%TO.N,COL4*%
X59690002Y-19130000D03*
X60960002Y-16590000D03*
D14*
X63761002Y-16590000D03*
D15*
%TO.P,SW15,2,2*%
%TO.N,Net-(D16-Pad2)*%
X54610002Y-19130000D03*
X53340002Y-16590000D03*
D14*
X51809002Y-19130000D03*
%TD*%
D15*
%TO.P,SW26,1,1*%
%TO.N,COL6*%
X99060000Y-39640000D03*
X97790000Y-42180000D03*
D14*
X101861000Y-39640000D03*
D15*
%TO.P,SW26,2,2*%
%TO.N,Net-(D27-Pad2)*%
X91440000Y-39640000D03*
D14*
X89909000Y-42180000D03*
D15*
X92710000Y-42180000D03*
%TD*%
D12*
%TO.P,D13,1,K*%
%TO.N,ROW3*%
X29775000Y-33075000D03*
D13*
X29775000Y-32649000D03*
D11*
X29775000Y-33600000D03*
D12*
%TO.P,D13,2,A*%
%TO.N,Net-(D13-Pad2)*%
X29775000Y-35525000D03*
D13*
X29775000Y-35951000D03*
D11*
X29775000Y-35000000D03*
%TD*%
D12*
%TO.P,D7,1,K*%
%TO.N,ROW1*%
X10725000Y25000D03*
D13*
X10725000Y451000D03*
D11*
X10725000Y-500000D03*
%TO.P,D7,2,A*%
%TO.N,Net-(D7-Pad2)*%
X10725000Y-1900000D03*
D13*
X10725000Y-2851000D03*
D12*
X10725000Y-2425000D03*
%TD*%
D11*
%TO.P,D26,1,K*%
%TO.N,ROW2*%
X86925000Y-16550000D03*
D12*
X86925000Y-16025000D03*
D13*
X86925000Y-15599000D03*
D11*
%TO.P,D26,2,A*%
%TO.N,Net-(D26-Pad2)*%
X86925000Y-17950000D03*
D13*
X86925000Y-18901000D03*
D12*
X86925000Y-18475000D03*
%TD*%
D13*
%TO.P,D14,1,K*%
%TO.N,ROW4*%
X29775000Y-51699000D03*
D12*
X29775000Y-52125000D03*
D11*
X29775000Y-52650000D03*
D12*
%TO.P,D14,2,A*%
%TO.N,Net-(D14-Pad2)*%
X29775000Y-54575000D03*
D13*
X29775000Y-55001000D03*
D11*
X29775000Y-54050000D03*
%TD*%
%TO.P,D25,1,K*%
%TO.N,ROW1*%
X86925000Y2500000D03*
D12*
X86925000Y3025000D03*
D13*
X86925000Y3451000D03*
%TO.P,D25,2,A*%
%TO.N,Net-(D25-Pad2)*%
X86925000Y149000D03*
D11*
X86925000Y1100000D03*
D12*
X86925000Y575000D03*
%TD*%
D15*
%TO.P,SW17,1,1*%
%TO.N,COL4*%
X60960000Y-54690000D03*
X59690000Y-57230000D03*
D14*
X63761000Y-54690000D03*
D15*
%TO.P,SW17,2,2*%
%TO.N,Net-(D18-Pad2)*%
X54610000Y-57230000D03*
X53340000Y-54690000D03*
D14*
X51809000Y-57230000D03*
%TD*%
D19*
%TO.P,J2,A1,GND*%
%TO.N,GND*%
X114180000Y-9225000D03*
%TO.P,J2,A4,VBUS*%
%TO.N,VBUS*%
X114180000Y-10025000D03*
D20*
%TO.P,J2,A5,CC1*%
%TO.N,/USB-C/CC1*%
X114180000Y-14225000D03*
%TO.P,J2,A6,D+*%
%TO.N,D+*%
X114180000Y-12225000D03*
%TO.P,J2,A7,D-*%
%TO.N,D-*%
X114180000Y-12725000D03*
%TO.P,J2,A8,SBU1*%
%TO.N,unconnected-(J2-PadA8)*%
X114180000Y-13725000D03*
D19*
%TO.P,J2,A9,VBUS*%
%TO.N,VBUS*%
X114180000Y-14925000D03*
%TO.P,J2,A12,GND*%
%TO.N,GND*%
X114180000Y-15725000D03*
%TO.P,J2,B1,GND*%
X114180000Y-15725000D03*
%TO.P,J2,B4,VBUS*%
%TO.N,VBUS*%
X114180000Y-14925000D03*
D20*
%TO.P,J2,B5,CC2*%
%TO.N,/USB-C/CC2*%
X114180000Y-11225000D03*
%TO.P,J2,B6,D+*%
%TO.N,D+*%
X114180000Y-13225000D03*
%TO.P,J2,B7,D-*%
%TO.N,D-*%
X114180000Y-11725000D03*
%TO.P,J2,B8,SBU2*%
%TO.N,unconnected-(J2-PadB8)*%
X114180000Y-10725000D03*
D19*
%TO.P,J2,B9,VBUS*%
%TO.N,VBUS*%
X114180000Y-10025000D03*
%TO.P,J2,B12,GND*%
%TO.N,GND*%
X114180000Y-9225000D03*
D21*
%TO.P,J2,S1,SHIELD*%
X115095000Y-16795000D03*
D22*
X119275000Y-16795000D03*
D21*
X115095000Y-8155000D03*
D22*
X119275000Y-8155000D03*
%TD*%
D15*
%TO.P,SW22,1,1*%
%TO.N,COL5*%
X78740000Y-59230000D03*
D14*
X82811000Y-56690000D03*
D15*
X80010000Y-56690000D03*
D14*
%TO.P,SW22,2,2*%
%TO.N,Net-(D23-Pad2)*%
X70859000Y-59230000D03*
D15*
X73660000Y-59230000D03*
X72390000Y-56690000D03*
%TD*%
D23*
%TO.P,D29,1,K*%
%TO.N,ROW5*%
X98523117Y-74980777D03*
D24*
X98658997Y-74473666D03*
D13*
X98769254Y-74062181D03*
%TO.P,D29,2,A*%
%TO.N,Net-(D29-Pad2)*%
X97914634Y-77251669D03*
D23*
X98160771Y-76333073D03*
D24*
X98024891Y-76840184D03*
%TD*%
D11*
%TO.P,D10,1,K*%
%TO.N,ROW4*%
X10725000Y-57650000D03*
D12*
X10725000Y-57125000D03*
D13*
X10725000Y-56699000D03*
D11*
%TO.P,D10,2,A*%
%TO.N,Net-(D10-Pad2)*%
X10725000Y-59050000D03*
D13*
X10725000Y-60001000D03*
D12*
X10725000Y-59575000D03*
%TD*%
D14*
%TO.P,SW2,1,1*%
%TO.N,COL1*%
X6611000Y-4540000D03*
D15*
X2540000Y-7080000D03*
X3810000Y-4540000D03*
%TO.P,SW2,2,2*%
%TO.N,Net-(D3-Pad2)*%
X-3810000Y-4540000D03*
X-2540000Y-7080000D03*
D14*
X-5341000Y-7080000D03*
%TD*%
D15*
%TO.P,SW3,1,1*%
%TO.N,COL1*%
X2540000Y-26130000D03*
D14*
X6611000Y-23590000D03*
D15*
X3810000Y-23590000D03*
%TO.P,SW3,2,2*%
%TO.N,Net-(D4-Pad2)*%
X-3810000Y-23590000D03*
X-2540000Y-26130000D03*
D14*
X-5341000Y-26130000D03*
%TD*%
D12*
%TO.P,D27,1,K*%
%TO.N,ROW3*%
X86925000Y-35075000D03*
D13*
X86925000Y-34649000D03*
D11*
X86925000Y-35600000D03*
D13*
%TO.P,D27,2,A*%
%TO.N,Net-(D27-Pad2)*%
X86925000Y-37951000D03*
D11*
X86925000Y-37000000D03*
D12*
X86925000Y-37525000D03*
%TD*%
D14*
%TO.P,SW12,1,1*%
%TO.N,COL3*%
X44711000Y-37640000D03*
D15*
X40640000Y-40180000D03*
X41910000Y-37640000D03*
%TO.P,SW12,2,2*%
%TO.N,Net-(D13-Pad2)*%
X35560000Y-40180000D03*
X34290000Y-37640000D03*
D14*
X32759000Y-40180000D03*
%TD*%
D11*
%TO.P,D11,1,K*%
%TO.N,ROW1*%
X29775000Y4500000D03*
D12*
X29775000Y5025000D03*
D13*
X29775000Y5451000D03*
D11*
%TO.P,D11,2,A*%
%TO.N,Net-(D11-Pad2)*%
X29775000Y3100000D03*
D12*
X29775000Y2575000D03*
D13*
X29775000Y2149000D03*
%TD*%
D14*
%TO.P,SW13,1,1*%
%TO.N,COL3*%
X44711000Y-56690000D03*
D15*
X40640000Y-59230000D03*
X41910000Y-56690000D03*
%TO.P,SW13,2,2*%
%TO.N,Net-(D14-Pad2)*%
X34290000Y-56690000D03*
D14*
X32759000Y-59230000D03*
D15*
X35560000Y-59230000D03*
%TD*%
D12*
%TO.P,D24,1,K*%
%TO.N,ROW5*%
X77400000Y-73175000D03*
D13*
X77400000Y-72749000D03*
D11*
X77400000Y-73700000D03*
%TO.P,D24,2,A*%
%TO.N,Net-(D24-Pad2)*%
X77400000Y-75100000D03*
D12*
X77400000Y-75625000D03*
D13*
X77400000Y-76051000D03*
%TD*%
D25*
%TO.P,C8,1*%
%TO.N,VDD*%
X110875000Y-4945000D03*
%TO.P,C8,2*%
%TO.N,GND*%
X110875000Y-5905000D03*
%TD*%
D26*
%TO.P,L1,2*%
%TO.N,VDD*%
X108225000Y-7012500D03*
%TO.P,L1,1*%
%TO.N,DCCH*%
X108225000Y-5437500D03*
%TD*%
D27*
%TO.P,FB1,1*%
%TO.N,Net-(F2-Pad2)*%
X112375000Y-18240000D03*
%TO.P,FB1,2*%
%TO.N,+5V*%
X112375000Y-19210000D03*
%TD*%
D28*
%TO.P,C4,2*%
%TO.N,GND*%
X108745000Y-24325000D03*
%TO.P,C4,1*%
%TO.N,VDDH*%
X109705000Y-24325000D03*
%TD*%
D29*
%TO.P,R13,1*%
%TO.N,GND*%
X107475000Y-47165000D03*
%TO.P,R13,2*%
%TO.N,Net-(Q2-Pad1)*%
X107475000Y-48185000D03*
%TD*%
D30*
%TO.P,U3,1,IO1*%
%TO.N,unconnected-(U3-Pad1)*%
X109425000Y-11800000D03*
%TO.P,U3,2,VN*%
%TO.N,GND*%
X110375000Y-11800000D03*
%TO.P,U3,3,IO2*%
%TO.N,D-*%
X111325000Y-11800000D03*
%TO.P,U3,4,IO3*%
%TO.N,D+*%
X111325000Y-14150000D03*
%TO.P,U3,5,VP*%
%TO.N,+5V*%
X110375000Y-14150000D03*
%TO.P,U3,6,IO4*%
%TO.N,unconnected-(U3-Pad6)*%
X109425000Y-14150000D03*
%TD*%
D31*
%TO.P,J4,1,Pin_1*%
%TO.N,EXT_PWR*%
X112775000Y-45150000D03*
%TO.P,J4,2,Pin_2*%
%TO.N,LED_MOSI*%
X112775000Y-47150000D03*
%TO.P,J4,3,Pin_3*%
%TO.N,GND*%
X112775000Y-49250000D03*
%TD*%
D25*
%TO.P,C9,1*%
%TO.N,VDDH*%
X109875000Y-4945000D03*
%TO.P,C9,2*%
%TO.N,GND*%
X109875000Y-5905000D03*
%TD*%
D32*
%TO.P,R6,1*%
%TO.N,Net-(R6-Pad1)*%
X113347500Y-30725000D03*
%TO.P,R6,2*%
%TO.N,VBAT*%
X112327500Y-30725000D03*
%TD*%
D33*
%TO.P,R12,2*%
%TO.N,VDD*%
X112425000Y-6850000D03*
%TO.P,R12,1*%
%TO.N,SCL*%
X112425000Y-5200000D03*
%TD*%
D32*
%TO.P,R1,1*%
%TO.N,GND*%
X113347500Y-26825000D03*
%TO.P,R1,2*%
%TO.N,/Power Management/TMR*%
X112327500Y-26825000D03*
%TD*%
%TO.P,R3,1*%
%TO.N,GND*%
X113347500Y-29425000D03*
%TO.P,R3,2*%
%TO.N,/Power Management/TS*%
X112327500Y-29425000D03*
%TD*%
D34*
%TO.P,U1,1,TS*%
%TO.N,/Power Management/TS*%
X110437500Y-28412500D03*
%TO.P,U1,2,BAT*%
%TO.N,VBAT*%
X109937500Y-28412500D03*
%TO.P,U1,3,BAT*%
X109437500Y-28412500D03*
%TO.P,U1,4,~{CE}*%
%TO.N,GND*%
X108937500Y-28412500D03*
D35*
%TO.P,U1,5,EN2*%
X108250000Y-27725000D03*
%TO.P,U1,6,EN1*%
%TO.N,VDDH*%
X108250000Y-27225000D03*
%TO.P,U1,7,~{PGOOD}*%
%TO.N,unconnected-(U1-Pad7)*%
X108250000Y-26725000D03*
%TO.P,U1,8,VSS*%
%TO.N,GND*%
X108250000Y-26225000D03*
D34*
%TO.P,U1,9,~{CHG}*%
%TO.N,/Power Management/CHG*%
X108937500Y-25537500D03*
%TO.P,U1,10,OUT*%
%TO.N,VDDH*%
X109437500Y-25537500D03*
%TO.P,U1,11,OUT*%
X109937500Y-25537500D03*
%TO.P,U1,12,ILIM*%
%TO.N,unconnected-(U1-Pad12)*%
X110437500Y-25537500D03*
D35*
%TO.P,U1,13,IN*%
%TO.N,+5V*%
X111125000Y-26225000D03*
%TO.P,U1,14,TMR*%
%TO.N,/Power Management/TMR*%
X111125000Y-26725000D03*
%TO.P,U1,15,SYSOFF*%
%TO.N,/Power Management/SYSOFF*%
X111125000Y-27225000D03*
%TO.P,U1,16,ISET*%
%TO.N,/Power Management/ISET*%
X111125000Y-27725000D03*
D36*
%TO.P,U1,17,VSS*%
%TO.N,GND*%
X109687500Y-26975000D03*
%TD*%
D37*
%TO.P,D1,1,K*%
%TO.N,Net-(D1-Pad1)*%
X119625000Y-18725000D03*
%TO.P,D1,2,A*%
%TO.N,VDDH*%
X116825000Y-18725000D03*
%TD*%
D28*
%TO.P,C6,1*%
%TO.N,VBAT*%
X109705000Y-30725000D03*
%TO.P,C6,2*%
%TO.N,GND*%
X108745000Y-30725000D03*
%TD*%
D38*
%TO.P,R4,1*%
%TO.N,+5V*%
X114215000Y-20775000D03*
%TO.P,R4,2*%
%TO.N,Net-(Q1-Pad1)*%
X115235000Y-20775000D03*
%TD*%
D26*
%TO.P,F1,1*%
%TO.N,VBAT*%
X109225000Y-31937500D03*
%TO.P,F1,2*%
%TO.N,+BATT*%
X109225000Y-33512500D03*
%TD*%
D28*
%TO.P,C3,2*%
%TO.N,GND*%
X108745000Y-23225000D03*
%TO.P,C3,1*%
%TO.N,VDDH*%
X109705000Y-23225000D03*
%TD*%
D39*
%TO.P,R7,1*%
%TO.N,/Power Management/CHG*%
X119625000Y-22485000D03*
%TO.P,R7,2*%
%TO.N,Net-(D1-Pad1)*%
X119625000Y-21465000D03*
%TD*%
D40*
%TO.P,C10,1*%
%TO.N,+5V*%
X106595000Y-4075000D03*
%TO.P,C10,2*%
%TO.N,GND*%
X107555000Y-4075000D03*
%TD*%
D39*
%TO.P,R10,1*%
%TO.N,EXT_PWR_EN*%
X107475000Y-49985000D03*
%TO.P,R10,2*%
%TO.N,Net-(Q2-Pad1)*%
X107475000Y-48965000D03*
%TD*%
D41*
%TO.P,Q1,1,G*%
%TO.N,Net-(Q1-Pad1)*%
X114725000Y-22287500D03*
%TO.P,Q1,2,S*%
%TO.N,GND*%
X116625000Y-22287500D03*
%TO.P,Q1,3,D*%
%TO.N,/Power Management/SYSOFF*%
X115675000Y-24162500D03*
%TD*%
D42*
%TO.P,U4,1,GND*%
%TO.N,GND*%
X118375000Y8925000D03*
%TO.P,U4,2,P1.11*%
%TO.N,unconnected-(U4-Pad2)*%
X118375000Y8275000D03*
%TO.P,U4,3,P1.12*%
%TO.N,unconnected-(U4-Pad3)*%
X118375000Y7625000D03*
%TO.P,U4,4,P1.10*%
%TO.N,unconnected-(U4-Pad4)*%
X118375000Y6975000D03*
%TO.P,U4,5,P1.14*%
%TO.N,unconnected-(U4-Pad5)*%
X118375000Y6325000D03*
%TO.P,U4,6,P0.03*%
%TO.N,unconnected-(U4-Pad6)*%
X118375000Y5675000D03*
%TO.P,U4,7,P1.13*%
%TO.N,unconnected-(U4-Pad7)*%
X118375000Y5025000D03*
%TO.P,U4,8,P1.15*%
%TO.N,unconnected-(U4-Pad8)*%
X118375000Y4375000D03*
%TO.P,U4,9,P0.02*%
%TO.N,unconnected-(U4-Pad9)*%
X118375000Y3725000D03*
%TO.P,U4,10,P0.29*%
%TO.N,unconnected-(U4-Pad10)*%
X118375000Y3075000D03*
%TO.P,U4,11,P0.28*%
%TO.N,unconnected-(U4-Pad11)*%
X118375000Y2425000D03*
%TO.P,U4,12,P0.30*%
%TO.N,unconnected-(U4-Pad12)*%
X118375000Y1775000D03*
%TO.P,U4,13,P0.31*%
%TO.N,unconnected-(U4-Pad13)*%
X118375000Y1125000D03*
%TO.P,U4,14,P0.27*%
%TO.N,unconnected-(U4-Pad14)*%
X118375000Y475000D03*
%TO.P,U4,15,P0.05*%
%TO.N,unconnected-(U4-Pad15)*%
X118375000Y-175000D03*
%TO.P,U4,16,P0.04*%
%TO.N,unconnected-(U4-Pad16)*%
X118375000Y-825000D03*
%TO.P,U4,17,P0.26*%
%TO.N,ALERT*%
X118375000Y-1475000D03*
D43*
%TO.P,U4,18,GND*%
%TO.N,GND*%
X117975000Y-2675000D03*
%TO.P,U4,19,P0.07*%
%TO.N,unconnected-(U4-Pad19)*%
X117325000Y-2675000D03*
%TO.P,U4,20,P0.06*%
%TO.N,unconnected-(U4-Pad20)*%
X116675000Y-2675000D03*
%TO.P,U4,21,P1.08*%
%TO.N,unconnected-(U4-Pad21)*%
X116025000Y-2675000D03*
%TO.P,U4,22,P0.11*%
%TO.N,unconnected-(U4-Pad22)*%
X115375000Y-2675000D03*
%TO.P,U4,23,P0.00*%
%TO.N,unconnected-(U4-Pad23)*%
X114725000Y-2675000D03*
%TO.P,U4,24,P0.01*%
%TO.N,unconnected-(U4-Pad24)*%
X114075000Y-2675000D03*
%TO.P,U4,25,P0.08*%
%TO.N,SDA*%
X113425000Y-2675000D03*
%TO.P,U4,26,P1.09*%
%TO.N,SCL*%
X112775000Y-2675000D03*
%TO.P,U4,27,P0.12*%
%TO.N,unconnected-(U4-Pad27)*%
X112125000Y-2675000D03*
%TO.P,U4,28,P0.18/RST*%
%TO.N,RESET*%
X111475000Y-2675000D03*
%TO.P,U4,29,P0.16*%
%TO.N,unconnected-(U4-Pad29)*%
X110825000Y-2675000D03*
%TO.P,U4,30,P0.14*%
%TO.N,unconnected-(U4-Pad30)*%
X110175000Y-2675000D03*
%TO.P,U4,31,VDD*%
%TO.N,VDD*%
X109525000Y-2675000D03*
%TO.P,U4,32,VDDH*%
%TO.N,VDDH*%
X108875000Y-2675000D03*
%TO.P,U4,33,DCCH*%
%TO.N,DCCH*%
X108225000Y-2675000D03*
%TO.P,U4,34,GND*%
%TO.N,GND*%
X107575000Y-2675000D03*
D42*
%TO.P,U4,35,VBUS*%
%TO.N,+5V*%
X107175000Y-1475000D03*
%TO.P,U4,36,D-*%
%TO.N,D-*%
X107175000Y-825000D03*
%TO.P,U4,37,D+*%
%TO.N,D+*%
X107175000Y-175000D03*
%TO.P,U4,38,P0.19*%
%TO.N,EXT_PWR_EN*%
X107175000Y475000D03*
%TO.P,U4,39,P0.13*%
%TO.N,LED_MOSI*%
X107175000Y1125000D03*
%TO.P,U4,40,P0.15*%
%TO.N,ROW5*%
X107175000Y1775000D03*
%TO.P,U4,41,P0.17*%
%TO.N,ROW4*%
X107175000Y2425000D03*
%TO.P,U4,42,P0.21*%
%TO.N,ROW3*%
X107175000Y3075000D03*
%TO.P,U4,43,P0.23*%
%TO.N,ROW2*%
X107175000Y3725000D03*
%TO.P,U4,44,P0.20*%
%TO.N,COL6*%
X107175000Y4375000D03*
%TO.P,U4,45,P0.22*%
%TO.N,ROW1*%
X107175000Y5025000D03*
%TO.P,U4,46,P0.24*%
%TO.N,COL5*%
X107175000Y5675000D03*
%TO.P,U4,47,P1.00*%
%TO.N,COL4*%
X107175000Y6325000D03*
%TO.P,U4,48,P0.25*%
%TO.N,COL3*%
X107175000Y6975000D03*
%TO.P,U4,49,SWDIO*%
%TO.N,SWDIO*%
X107175000Y7625000D03*
%TO.P,U4,50,SWCLK*%
%TO.N,SWCLK*%
X107175000Y8275000D03*
%TO.P,U4,51,RF*%
%TO.N,unconnected-(U4-Pad51)*%
X107175000Y8925000D03*
D43*
%TO.P,U4,52,P1.02*%
%TO.N,unconnected-(U4-Pad52)*%
X108225000Y8825000D03*
%TO.P,U4,53,P1.04*%
%TO.N,unconnected-(U4-Pad53)*%
X108875000Y8825000D03*
%TO.P,U4,54,P1.06*%
%TO.N,unconnected-(U4-Pad54)*%
X109525000Y8825000D03*
%TO.P,U4,55,P0.09*%
%TO.N,COL2*%
X110175000Y8825000D03*
%TO.P,U4,56,P0.10*%
%TO.N,COL1*%
X110825000Y8825000D03*
D42*
%TO.P,U4,57,P1.07*%
%TO.N,unconnected-(U4-Pad57)*%
X108875000Y7625000D03*
%TO.P,U4,58,P1.05*%
%TO.N,unconnected-(U4-Pad58)*%
X108875000Y6975000D03*
%TO.P,U4,59,P1.01*%
%TO.N,unconnected-(U4-Pad59)*%
X108875000Y6325000D03*
%TO.P,U4,60,P1.03*%
%TO.N,unconnected-(U4-Pad60)*%
X108875000Y5675000D03*
D44*
%TO.P,U4,61*%
%TO.N,N/C*%
X114325000Y5425000D03*
%TO.P,U4,62*%
X114325000Y2575000D03*
%TO.P,U4,63*%
X111525000Y2575000D03*
%TO.P,U4,64*%
X111525000Y5425000D03*
%TD*%
D32*
%TO.P,R2,1*%
%TO.N,GND*%
X113347500Y-28125000D03*
%TO.P,R2,2*%
%TO.N,/Power Management/ISET*%
X112327500Y-28125000D03*
%TD*%
D45*
%TO.P,SW28,1,1*%
%TO.N,COL6*%
X102475449Y-75451189D03*
D15*
X104532649Y-77587422D03*
X101750497Y-78156748D03*
D46*
%TO.P,SW28,2,2*%
%TO.N,Net-(D29-Pad2)*%
X101835496Y-87653335D03*
D15*
X100435696Y-83063651D03*
X102560448Y-84947777D03*
%TD*%
D47*
%TO.P,J1,1,Pin_1*%
%TO.N,+BATT*%
X110775000Y-34600000D03*
%TO.P,J1,2,Pin_2*%
%TO.N,GND*%
X112775000Y-34600000D03*
%TD*%
D28*
%TO.P,C7,1*%
%TO.N,VBAT*%
X109705000Y-29625000D03*
%TO.P,C7,2*%
%TO.N,GND*%
X108745000Y-29625000D03*
%TD*%
%TO.P,C2,1*%
%TO.N,GND*%
X113317500Y-25725000D03*
%TO.P,C2,2*%
%TO.N,+5V*%
X112357500Y-25725000D03*
%TD*%
D48*
%TO.P,Q3,1,G*%
%TO.N,Net-(Q2-Pad3)*%
X108937500Y-46100000D03*
%TO.P,Q3,2,S*%
%TO.N,VDDH*%
X108937500Y-44200000D03*
%TO.P,Q3,3,D*%
%TO.N,EXT_PWR*%
X110812500Y-45150000D03*
%TD*%
D33*
%TO.P,R11,2*%
%TO.N,VDD*%
X113975000Y-6850000D03*
%TO.P,R11,1*%
%TO.N,SDA*%
X113975000Y-5200000D03*
%TD*%
D40*
%TO.P,C1,1*%
%TO.N,+5V*%
X112357500Y-24625000D03*
%TO.P,C1,2*%
%TO.N,GND*%
X113317500Y-24625000D03*
%TD*%
D26*
%TO.P,F2,1*%
%TO.N,VBUS*%
X112375000Y-15587500D03*
%TO.P,F2,2*%
%TO.N,Net-(F2-Pad2)*%
X112375000Y-17162500D03*
%TD*%
D29*
%TO.P,R8,1*%
%TO.N,GND*%
X109425000Y-9065000D03*
%TO.P,R8,2*%
%TO.N,/USB-C/CC2*%
X109425000Y-10085000D03*
%TD*%
D39*
%TO.P,R14,1*%
%TO.N,Net-(Q2-Pad3)*%
X107475000Y-45635000D03*
%TO.P,R14,2*%
%TO.N,VDDH*%
X107475000Y-44615000D03*
%TD*%
D32*
%TO.P,R5,1*%
%TO.N,GND*%
X117110000Y-20775000D03*
%TO.P,R5,2*%
%TO.N,Net-(Q1-Pad1)*%
X116090000Y-20775000D03*
%TD*%
D29*
%TO.P,R9,1*%
%TO.N,/USB-C/CC1*%
X109425000Y-15865000D03*
%TO.P,R9,2*%
%TO.N,GND*%
X109425000Y-16885000D03*
%TD*%
D48*
%TO.P,Q2,1,G*%
%TO.N,Net-(Q2-Pad1)*%
X108937500Y-49525000D03*
%TO.P,Q2,2,S*%
%TO.N,GND*%
X108937500Y-47625000D03*
%TO.P,Q2,3,D*%
%TO.N,Net-(Q2-Pad3)*%
X110812500Y-48575000D03*
%TD*%
D25*
%TO.P,C5,1*%
%TO.N,+BATT*%
X118525000Y-4945000D03*
%TO.P,C5,2*%
%TO.N,GND*%
X118525000Y-5905000D03*
%TD*%
D49*
%TO.P,U2,1,CTG*%
%TO.N,GND*%
X117362500Y-5025000D03*
%TO.P,U2,2,CELL*%
%TO.N,+BATT*%
X117362500Y-5525000D03*
%TO.P,U2,3,VDD*%
X117362500Y-6025000D03*
%TO.P,U2,4,GND*%
%TO.N,GND*%
X117362500Y-6525000D03*
%TO.P,U2,5,ALERT*%
%TO.N,ALERT*%
X115387500Y-6525000D03*
%TO.P,U2,6,QSTRT*%
%TO.N,GND*%
X115387500Y-6025000D03*
%TO.P,U2,7,SCL*%
%TO.N,SCL*%
X115387500Y-5525000D03*
%TO.P,U2,8,SDA*%
%TO.N,SDA*%
X115387500Y-5025000D03*
D50*
%TO.P,U2,9,GND*%
%TO.N,GND*%
X116375000Y-5775000D03*
%TD*%
D51*
%TO.N,GND*%
X107607227Y-25319641D03*
%TO.N,/Power Management/CHG*%
X108405903Y-25355983D03*
%TO.N,GND*%
X107675000Y-25975000D03*
%TO.N,+5V*%
X106675000Y-4675000D03*
X106975000Y-18475000D03*
%TO.N,GND*%
X119525000Y-33725000D03*
X116131005Y-12725000D03*
X108125000Y-24375000D03*
X118425000Y-2675000D03*
X49623742Y-33890497D03*
X87656269Y-54022187D03*
X106122731Y8928193D03*
X30572174Y-54940017D03*
X110075000Y-16775000D03*
X98728260Y-77107409D03*
X49620777Y4226095D03*
X108125000Y-23775000D03*
X108175000Y-30175000D03*
X11525000Y-21840497D03*
X110375000Y-10925000D03*
X117892688Y-14157319D03*
X119525000Y-41225000D03*
X-7593204Y129010D03*
X30511276Y-13910613D03*
X108125000Y-23175000D03*
X119275000Y8925000D03*
X110598647Y7248990D03*
X68671914Y-54936714D03*
X119025000Y-23274503D03*
X68670777Y-35873905D03*
X117924483Y-13526649D03*
X116473275Y-40701470D03*
X89425000Y5175500D03*
X108855729Y1424520D03*
X59081269Y-71072187D03*
X111624503Y8125000D03*
X68621270Y-32935855D03*
X49558727Y-30980227D03*
X-7578563Y-56985421D03*
X-7528528Y-21831462D03*
X30514725Y-32987564D03*
X11521062Y-2776903D03*
X119179353Y-5824490D03*
X49561311Y-50033352D03*
X30511276Y5139387D03*
X113775000Y-25175000D03*
X113525000Y-16375000D03*
X68670777Y-16823905D03*
X55875000Y13275000D03*
X68614838Y-52037704D03*
X111475000Y-1175497D03*
X11520777Y-59923905D03*
X105995043Y1785590D03*
X112471835Y-11896781D03*
X104862919Y2461015D03*
X118536805Y-30162342D03*
X119174503Y-27475000D03*
X11520777Y-40873905D03*
X103748663Y8895844D03*
X91925000Y5974503D03*
X30570777Y-35873905D03*
X68611276Y5139387D03*
X68671931Y2213069D03*
X61990334Y12540334D03*
X87721342Y-56929988D03*
X49564838Y7112296D03*
X109275000Y-5774503D03*
X94425000Y6673665D03*
X30505801Y-52023245D03*
X117075000Y-31324003D03*
X30570469Y2229212D03*
X30568713Y-16804958D03*
X11456269Y127813D03*
X68615460Y-13900535D03*
X108925000Y-48275000D03*
X87721914Y213286D03*
X-7527866Y-2789500D03*
X120263906Y-20255628D03*
X11462127Y-18908594D03*
X116447443Y-13473540D03*
X49622005Y-14837855D03*
X11480276Y-38008019D03*
X110175000Y-9125000D03*
X-7585162Y-18937704D03*
X103784153Y3093911D03*
X-7528093Y-59936629D03*
X-7528938Y-40876903D03*
X49598576Y-11985265D03*
X106483366Y-19105476D03*
X78195783Y-75973966D03*
X87667138Y3153620D03*
X115581669Y-19468748D03*
X87665040Y-15937958D03*
X87655617Y-34976532D03*
X116625000Y-23325000D03*
X78133800Y-73080314D03*
X59148988Y-73990498D03*
X118199500Y-25225000D03*
X87720469Y-37870788D03*
X99394117Y-74576108D03*
X-7572914Y-37920239D03*
X49621106Y-52927384D03*
X11461276Y-57010613D03*
X112975000Y-9225000D03*
X87720469Y-18820788D03*
X107474503Y-4675000D03*
X113787500Y-28675000D03*
%TO.N,+BATT*%
X119175000Y-5025000D03*
%TO.N,VBUS*%
X117175000Y-13805000D03*
%TO.N,ROW2*%
X104275000Y3725000D03*
%TO.N,ROW3*%
X105375000Y3075000D03*
%TO.N,ROW4*%
X106475000Y2425000D03*
%TO.N,ROW5*%
X108056279Y1433689D03*
%TO.N,COL1*%
X110825000Y8125000D03*
%TO.N,COL2*%
X109775000Y7273165D03*
%TO.N,COL3*%
X94425000Y5874162D03*
%TO.N,COL4*%
X91925000Y5175000D03*
%TO.N,COL5*%
X89425000Y4375000D03*
%TO.N,SWDIO*%
X102925000Y8871684D03*
%TO.N,SWCLK*%
X105325000Y8875000D03*
%TO.N,VDDH*%
X115875000Y-18725000D03*
X109375000Y-22525000D03*
X109275000Y-4975000D03*
%TO.N,/Power Management/CHG*%
X119025000Y-22475000D03*
%TO.N,/USB-C/CC2*%
X110175000Y-9924503D03*
%TO.N,/USB-C/CC1*%
X110075000Y-15975497D03*
%TO.N,/Power Management/SYSOFF*%
X118375000Y-27475000D03*
%TO.N,VDD*%
X61425000Y11975000D03*
%TO.N,RESET*%
X111475000Y-1975000D03*
X117000000Y-40100000D03*
%TO.N,Net-(R6-Pad1)*%
X117075000Y-30524500D03*
%TO.N,D+*%
X115331502Y-12725000D03*
%TO.N,D-*%
X112504155Y-12695630D03*
%TO.N,Net-(D1-Pad1)*%
X119625000Y-19775000D03*
%TD*%
D52*
%TO.N,SCL*%
X114375000Y-6025000D02*
X114875000Y-5525000D01*
X112775000Y-4850000D02*
X112425000Y-5200000D01*
X112425000Y-5200000D02*
X113250000Y-6025000D01*
X114875000Y-5525000D02*
X115387500Y-5525000D01*
X113250000Y-6025000D02*
X114375000Y-6025000D01*
X112775000Y-2675000D02*
X112775000Y-4850000D01*
D53*
%TO.N,VDD*%
X112425000Y-6850000D02*
X113975000Y-6850000D01*
D52*
%TO.N,SDA*%
X113425000Y-4650000D02*
X113975000Y-5200000D01*
X113425000Y-2675000D02*
X113425000Y-4650000D01*
D54*
%TO.N,VDD*%
X112280960Y-6975000D02*
X112405960Y-6850000D01*
X108262500Y-6975000D02*
X112280960Y-6975000D01*
X108225000Y-7012500D02*
X108262500Y-6975000D01*
D55*
X112405960Y-6850000D02*
X112415480Y-6859520D01*
%TO.N,DCCH*%
X108224989Y-5126715D02*
X108225000Y-5126726D01*
X108224989Y-2675011D02*
X108224989Y-5126715D01*
X108225000Y-5126726D02*
X108225000Y-5437500D01*
D56*
%TO.N,VDDH*%
X109275000Y-4975000D02*
X109845000Y-4975000D01*
D55*
%TO.N,GND*%
X109405497Y-5905000D02*
X109875000Y-5905000D01*
X109275000Y-5774503D02*
X109405497Y-5905000D01*
X107555000Y-4594503D02*
X107555000Y-4075000D01*
X107474503Y-4675000D02*
X107555000Y-4594503D01*
%TO.N,+5V*%
X106595000Y-4595000D02*
X106595000Y-2055000D01*
X106595000Y-2055000D02*
X107175000Y-1475000D01*
X106675000Y-4675000D02*
X106595000Y-4595000D01*
D52*
%TO.N,COL4*%
X100225000Y6325000D02*
X107175000Y6325000D01*
X91925000Y5175000D02*
X99075000Y5175000D01*
X99075000Y5175000D02*
X100225000Y6325000D01*
%TO.N,COL3*%
X94473335Y5874162D02*
X95574173Y6975000D01*
X95574173Y6975000D02*
X107175000Y6975000D01*
X94425000Y5874162D02*
X94473335Y5874162D01*
%TO.N,LED_MOSI*%
X113175000Y-50925000D02*
X113836511Y-50263489D01*
X113836511Y-50263489D02*
X113836511Y-48211511D01*
X105925000Y-50925000D02*
X113175000Y-50925000D01*
X104175000Y-49175000D02*
X105925000Y-50925000D01*
X104175000Y625000D02*
X104175000Y-49175000D01*
X104675000Y1125000D02*
X104175000Y625000D01*
X107175000Y1125000D02*
X104675000Y1125000D01*
X113836511Y-48211511D02*
X112775000Y-47150000D01*
%TO.N,EXT_PWR_EN*%
X104875000Y-47385000D02*
X104875000Y-75000D01*
X107475000Y-49985000D02*
X104875000Y-47385000D01*
X104875000Y-75000D02*
X105425000Y475000D01*
X105425000Y475000D02*
X107175000Y475000D01*
D55*
%TO.N,VDD*%
X109525000Y-1975000D02*
X109525000Y-2675000D01*
X115275000Y1525978D02*
X113274022Y-475000D01*
X111025000Y-475000D02*
X109525000Y-1975000D01*
X63725000Y9625000D02*
X113025000Y9625000D01*
X61425000Y11925000D02*
X63725000Y9625000D01*
X115275000Y7375000D02*
X115275000Y1525978D01*
X61425000Y11975000D02*
X61425000Y11925000D01*
X113025000Y9625000D02*
X115275000Y7375000D01*
X113274022Y-475000D02*
X111025000Y-475000D01*
D52*
%TO.N,RESET*%
X111475000Y-1975000D02*
X111474999Y-2675000D01*
%TO.N,SWDIO*%
X104171684Y7625000D02*
X107175000Y7625000D01*
X102925000Y8871684D02*
X104171684Y7625000D01*
%TO.N,COL5*%
X100775000Y5675000D02*
X107175000Y5675000D01*
X89425000Y4375000D02*
X99475000Y4375000D01*
X99475000Y4375000D02*
X100775000Y5675000D01*
%TO.N,ROW1*%
X101325000Y5025000D02*
X107175000Y5025000D01*
X100053131Y3753131D02*
X101325000Y5025000D01*
X87227131Y3753131D02*
X100053131Y3753131D01*
X86925000Y3451000D02*
X87227131Y3753131D01*
D57*
%TO.N,VDDH*%
X106827716Y-43967716D02*
X107475000Y-44615000D01*
X106827716Y-22672284D02*
X106827716Y-43967716D01*
X109125000Y-22275000D02*
X107225000Y-22275000D01*
X109375000Y-22525000D02*
X109125000Y-22275000D01*
X107225000Y-22275000D02*
X106827716Y-22672284D01*
D58*
%TO.N,GND*%
X107825000Y-26225000D02*
X108250000Y-26225000D01*
X107675000Y-25975000D02*
X107675000Y-26075000D01*
X107675000Y-26075000D02*
X107825000Y-26225000D01*
D52*
%TO.N,/Power Management/CHG*%
X108405903Y-25355983D02*
X108587420Y-25537500D01*
X108587420Y-25537500D02*
X108937500Y-25537500D01*
D57*
%TO.N,VDDH*%
X109705000Y-24325000D02*
X109705000Y-23225000D01*
X109705000Y-22855000D02*
X109705000Y-23225000D01*
X109375000Y-22525000D02*
X109705000Y-22855000D01*
D58*
X109437500Y-25537500D02*
X109437500Y-24592500D01*
X109437500Y-24592500D02*
X109705000Y-24325000D01*
X109705000Y-24325000D02*
X109937500Y-24557500D01*
X109937500Y-24557500D02*
X109937500Y-25537499D01*
D59*
%TO.N,+BATT*%
X110800001Y-34600000D02*
X110312500Y-34600000D01*
D57*
%TO.N,VBAT*%
X111115000Y-31937500D02*
X112327500Y-30725000D01*
X109225000Y-31937500D02*
X111115000Y-31937500D01*
X109705000Y-31457500D02*
X109225000Y-31937500D01*
X109705000Y-30725000D02*
X109705000Y-31457500D01*
D59*
%TO.N,+BATT*%
X110312500Y-34600000D02*
X109225000Y-33512500D01*
D57*
%TO.N,GND*%
X108725000Y-30725000D02*
X108745000Y-30725000D01*
%TO.N,VBAT*%
X109705000Y-29625000D02*
X109705000Y-30725000D01*
%TO.N,GND*%
X108175000Y-30175000D02*
X108725000Y-30725000D01*
D58*
X108745000Y-29625000D02*
X108937500Y-29432500D01*
%TO.N,VBAT*%
X109937500Y-28412500D02*
X109937500Y-29392500D01*
%TO.N,GND*%
X108937500Y-29432500D02*
X108937500Y-28412500D01*
%TO.N,VBAT*%
X109937500Y-29392500D02*
X109705000Y-29625000D01*
D57*
%TO.N,GND*%
X108175000Y-30175000D02*
X108725000Y-29625000D01*
X108725000Y-29625000D02*
X108745000Y-29625000D01*
D58*
%TO.N,VDDH*%
X107475000Y-27225000D02*
X108250001Y-27225000D01*
X106775000Y-26525000D02*
X107475000Y-27225000D01*
D52*
%TO.N,SWCLK*%
X105925000Y8275000D02*
X107175000Y8275000D01*
X105325000Y8875000D02*
X105925000Y8275000D01*
%TO.N,ROW2*%
X104275000Y3725000D02*
X107175000Y3725000D01*
%TO.N,ROW3*%
X105375000Y3075000D02*
X107175000Y3075000D01*
D54*
%TO.N,+5V*%
X106975000Y-18475000D02*
X106983240Y-18475000D01*
X106983240Y-18475000D02*
X107718240Y-19210000D01*
D52*
X110475000Y-14775000D02*
X110475000Y-14531427D01*
D54*
X113310000Y-19210000D02*
X114215000Y-20115000D01*
X112375000Y-19210000D02*
X113310000Y-19210000D01*
D58*
X111857500Y-26225000D02*
X112357500Y-25725000D01*
D52*
X110175000Y-15075000D02*
X110475000Y-14775000D01*
X106975000Y-18475000D02*
X106975000Y-16225000D01*
X106975000Y-16225000D02*
X108125000Y-15075000D01*
D54*
X114215000Y-20115000D02*
X114215000Y-20775000D01*
D52*
X108125000Y-15075000D02*
X110175000Y-15075000D01*
D58*
X111125000Y-26225000D02*
X111857500Y-26225000D01*
D54*
X112357500Y-19227500D02*
X112357500Y-24625000D01*
X107718240Y-19210000D02*
X112375000Y-19210000D01*
D57*
X112357500Y-24625000D02*
X112357500Y-25725000D01*
D60*
%TO.N,GND*%
X109965000Y-16885000D02*
X109425000Y-16885000D01*
D57*
X113775000Y-25267500D02*
X113317500Y-25725000D01*
D61*
X119525000Y-41225000D02*
X119525000Y-40100000D01*
D57*
X113317500Y-25725000D02*
X113347500Y-25755000D01*
D54*
X108937500Y-48262500D02*
X108925000Y-48275000D01*
X117110000Y-21240000D02*
X116625000Y-21725000D01*
X110115000Y-9065000D02*
X109425000Y-9065000D01*
D61*
X119525000Y-34850000D02*
X119525000Y-33725000D01*
D58*
X116907586Y-5025000D02*
X116354914Y-5577672D01*
D55*
X118375000Y8924999D02*
X119275000Y8925000D01*
D58*
X117362500Y-6525000D02*
X116907586Y-6525000D01*
X117362500Y-5025000D02*
X116907586Y-5025000D01*
D55*
X107575000Y-2675000D02*
X107575000Y-4055000D01*
D54*
X108937500Y-47625000D02*
X108937500Y-48262500D01*
D59*
X110375000Y-10925000D02*
X110375000Y-11800000D01*
D60*
X110075000Y-16775000D02*
X109965000Y-16885000D01*
D55*
X117975000Y-2675000D02*
X118425000Y-2675000D01*
D54*
X113787500Y-28675000D02*
X113787500Y-28985000D01*
X113787500Y-28985000D02*
X113347500Y-29425000D01*
D57*
X113775000Y-25082500D02*
X113317500Y-24625000D01*
X113775000Y-25175000D02*
X113775000Y-25267500D01*
D54*
X108937500Y-47625000D02*
X108477500Y-47165000D01*
D57*
X119098843Y-5905000D02*
X118525000Y-5905000D01*
D58*
X108250000Y-27725000D02*
X108937500Y-27725000D01*
X116907586Y-6525000D02*
X116354914Y-5972328D01*
D54*
X113347500Y-25755000D02*
X113347500Y-26825000D01*
D59*
X116950000Y-25225000D02*
X118199500Y-25225000D01*
D58*
X108937500Y-28412500D02*
X108937500Y-27725000D01*
D57*
X113775000Y-25175000D02*
X113775000Y-25082500D01*
D58*
X108937500Y-27725000D02*
X109687500Y-26975000D01*
D54*
X113787500Y-28565000D02*
X113347500Y-28125000D01*
D57*
X109875000Y-5905000D02*
X110875000Y-5905000D01*
D58*
X118525000Y-5905000D02*
X117905000Y-6525000D01*
X115387500Y-6025000D02*
X116125000Y-6025000D01*
D59*
X113525000Y-16375000D02*
X113530000Y-16375000D01*
X116625000Y-22287500D02*
X116625000Y-23325000D01*
X112975000Y-9225000D02*
X114180000Y-9225000D01*
D54*
X116625000Y-21725000D02*
X116625000Y-22287500D01*
D59*
X113530000Y-16375000D02*
X114180000Y-15725000D01*
D54*
X117110000Y-20775000D02*
X117110000Y-21240000D01*
D58*
X117905000Y-6525000D02*
X117362500Y-6525000D01*
D54*
X110175000Y-9125000D02*
X110115000Y-9065000D01*
X108477500Y-47165000D02*
X107475000Y-47165000D01*
D57*
X119179353Y-5824490D02*
X119098843Y-5905000D01*
D54*
X113787500Y-28675000D02*
X113787500Y-28565000D01*
D58*
%TO.N,+BATT*%
X119095000Y-4945000D02*
X118525000Y-4945000D01*
X117797328Y-5525000D02*
X117362500Y-5525000D01*
X118377328Y-4945000D02*
X118136164Y-5186164D01*
X119175000Y-5025000D02*
X119095000Y-4945000D01*
X118136164Y-5186164D02*
X117797328Y-5525000D01*
D56*
%TO.N,VBUS*%
X114180000Y-10025000D02*
X114969661Y-10025001D01*
X115304182Y-10359521D02*
X116229521Y-10359521D01*
X114180000Y-14925000D02*
X114969661Y-14925000D01*
X114969661Y-10025001D02*
X115304182Y-10359521D01*
D62*
X113055978Y-14925000D02*
X114180000Y-14925000D01*
D56*
X117175000Y-11305000D02*
X117175000Y-13805000D01*
X116229521Y-10359521D02*
X117175000Y-11305000D01*
D62*
X112225000Y-15755978D02*
X113055978Y-14925000D01*
D56*
X114969661Y-14925000D02*
X115304182Y-14590479D01*
X116389521Y-14590479D02*
X117175000Y-13805000D01*
X115304182Y-14590479D02*
X116389521Y-14590479D01*
D52*
%TO.N,ROW1*%
X49087524Y7725000D02*
X65601000Y7725000D01*
X-8325000Y451000D02*
X-7693534Y1082466D01*
X67875000Y5529380D02*
X68170620Y5825000D01*
X15645372Y5451000D02*
X29775000Y5451000D01*
X29775000Y5451000D02*
X31775000Y7451000D01*
X68170620Y5825000D02*
X84551000Y5825000D01*
X65601000Y7725000D02*
X67875000Y5451000D01*
X10725000Y530628D02*
X15645372Y5451000D01*
X48825000Y7462476D02*
X49087524Y7725000D01*
X84551000Y5825000D02*
X86925000Y3451000D01*
X-7693534Y1082466D02*
X10093534Y1082466D01*
X31775000Y7451000D02*
X48825000Y7451000D01*
X10093534Y1082466D02*
X10725000Y451000D01*
%TO.N,ROW2*%
X15725000Y-13599000D02*
X29775000Y-13599000D01*
X-7774294Y-17972094D02*
X10098094Y-17972094D01*
X84295989Y-12969989D02*
X86925000Y-15599000D01*
X67938326Y-12969989D02*
X84295989Y-12969989D01*
X-8325000Y-18522800D02*
X-7774294Y-17972094D01*
X67875000Y-13599000D02*
X67875000Y-13033315D01*
X29775000Y-13599000D02*
X31775000Y-11599000D01*
X49099000Y-11325000D02*
X65601000Y-11325000D01*
X10098094Y-17972094D02*
X10725000Y-18599000D01*
X65601000Y-11325000D02*
X67875000Y-13599000D01*
X48825000Y-11599000D02*
X49099000Y-11325000D01*
X10725000Y-18599000D02*
X15725000Y-13599000D01*
X31775000Y-11599000D02*
X48825000Y-11599000D01*
X67875000Y-13033315D02*
X67938326Y-12969989D01*
%TO.N,Net-(D3-Pad2)*%
X-6636000Y-4540000D02*
X-3810000Y-4540000D01*
X-8325000Y-2851000D02*
X-6636000Y-4540000D01*
%TO.N,ROW3*%
X48825000Y-30649000D02*
X49390685Y-30083315D01*
X49390685Y-30083315D02*
X65309315Y-30083315D01*
X-8325000Y-37649000D02*
X-7996728Y-37320728D01*
X-7996728Y-37320728D02*
X10396728Y-37320728D01*
X68441254Y-32082746D02*
X83932746Y-32082746D01*
X10725000Y-37649000D02*
X15725000Y-32649000D01*
X31775000Y-30649000D02*
X48825000Y-30649000D01*
X29775000Y-32649000D02*
X31775000Y-30649000D01*
X65309315Y-30083315D02*
X67875000Y-32649000D01*
X83932746Y-32082746D02*
X86925000Y-35075000D01*
X10396728Y-37320728D02*
X10725000Y-37649000D01*
X67875000Y-32649000D02*
X68441254Y-32082746D01*
X15725000Y-32649000D02*
X29775000Y-32649000D01*
%TO.N,Net-(D4-Pad2)*%
X-8325000Y-21901000D02*
X-6636000Y-23590000D01*
X-6636000Y-23590000D02*
X-3810000Y-23590000D01*
%TO.N,ROW4*%
X68500082Y-51073918D02*
X84299918Y-51073918D01*
X48825000Y-49699000D02*
X49390685Y-49133315D01*
X10411910Y-56385910D02*
X10725000Y-56699000D01*
X31775000Y-49699000D02*
X48825000Y-49699000D01*
X10725000Y-56699000D02*
X15725000Y-51699000D01*
X65309315Y-49133315D02*
X67875000Y-51699000D01*
X-8325000Y-56699000D02*
X-8011910Y-56385910D01*
X49390685Y-49133315D02*
X65309315Y-49133315D01*
X15725000Y-51699000D02*
X29775000Y-51699000D01*
X-8011910Y-56385910D02*
X10411910Y-56385910D01*
X29775000Y-51699000D02*
X31775000Y-49699000D01*
X107175000Y2425000D02*
X106475000Y2425000D01*
X84299918Y-51073918D02*
X86925000Y-53699000D01*
X67875000Y-51699000D02*
X68500082Y-51073918D01*
%TO.N,Net-(D5-Pad2)*%
X-6636000Y-42640000D02*
X-3810000Y-42640000D01*
X-8325000Y-40951000D02*
X-6636000Y-42640000D01*
%TO.N,Net-(D6-Pad2)*%
X-8325000Y-60001000D02*
X-6636000Y-61690000D01*
X-6636000Y-61690000D02*
X-3810000Y-61690000D01*
%TO.N,Net-(D7-Pad2)*%
X10725000Y-2851000D02*
X12414000Y-4540000D01*
X12414000Y-4540000D02*
X15240000Y-4540000D01*
%TO.N,Net-(D8-Pad2)*%
X10725000Y-21901000D02*
X12413999Y-23589999D01*
X12413999Y-23589999D02*
X15240000Y-23589999D01*
%TO.N,Net-(D9-Pad2)*%
X12414000Y-42640000D02*
X15240000Y-42640000D01*
X10725000Y-40951000D02*
X12414000Y-42640000D01*
%TO.N,Net-(D10-Pad2)*%
X10725000Y-60001000D02*
X12414000Y-61690000D01*
X12414000Y-61690000D02*
X15240000Y-61690000D01*
%TO.N,Net-(D11-Pad2)*%
X31464000Y460000D02*
X34290000Y460000D01*
X29775000Y2149000D02*
X31464000Y460000D01*
%TO.N,Net-(D12-Pad2)*%
X31464000Y-18590000D02*
X34290000Y-18590000D01*
X29775000Y-16901000D02*
X31464000Y-18590000D01*
%TO.N,Net-(D13-Pad2)*%
X31464000Y-37640000D02*
X34290000Y-37640000D01*
X29775000Y-35951000D02*
X31464000Y-37640000D01*
%TO.N,Net-(D14-Pad2)*%
X31474319Y-56690000D02*
X34290000Y-56690000D01*
X29785319Y-55001000D02*
X31474319Y-56690000D01*
%TO.N,Net-(D15-Pad2)*%
X48825000Y4149000D02*
X50514000Y2460000D01*
X50514000Y2460000D02*
X53340000Y2460000D01*
%TO.N,Net-(D16-Pad2)*%
X48825000Y-14901000D02*
X50514000Y-16590000D01*
X50514000Y-16590000D02*
X53340002Y-16590000D01*
%TO.N,Net-(D17-Pad2)*%
X50513999Y-35639999D02*
X53340000Y-35639999D01*
X48825000Y-33951000D02*
X50513999Y-35639999D01*
%TO.N,ROW5*%
X108056279Y1433689D02*
X108040333Y1433689D01*
X58350000Y-70749000D02*
X58626324Y-70472676D01*
X107699022Y1775000D02*
X107175000Y1775000D01*
X77400000Y-72749000D02*
X77668197Y-72480803D01*
X108040333Y1433689D02*
X107699022Y1775000D01*
X58626324Y-70472676D02*
X75123676Y-70472676D01*
X97187876Y-72480803D02*
X98769254Y-74062181D01*
X75123676Y-70472676D02*
X77400000Y-72749000D01*
X77668197Y-72480803D02*
X97187876Y-72480803D01*
%TO.N,Net-(D18-Pad2)*%
X50514000Y-54690000D02*
X53340000Y-54690000D01*
X48825000Y-53001000D02*
X50514000Y-54690000D01*
%TO.N,Net-(D20-Pad2)*%
X69564000Y460000D02*
X72390000Y460000D01*
X67875000Y2149000D02*
X69564000Y460000D01*
%TO.N,Net-(D21-Pad2)*%
X69564000Y-18590000D02*
X72390000Y-18590000D01*
X67875000Y-16901000D02*
X69564000Y-18590000D01*
%TO.N,Net-(D22-Pad2)*%
X69564000Y-37640000D02*
X72390000Y-37640000D01*
X67875000Y-35951000D02*
X69564000Y-37640000D01*
%TO.N,Net-(D23-Pad2)*%
X67875000Y-55001000D02*
X69564000Y-56690000D01*
X69564000Y-56690000D02*
X72390000Y-56690000D01*
%TO.N,Net-(D19-Pad2)*%
X60039000Y-75740000D02*
X62865000Y-75740000D01*
X58350000Y-74051000D02*
X60039000Y-75740000D01*
%TO.N,Net-(D25-Pad2)*%
X86925000Y149000D02*
X88614000Y-1540000D01*
X88614000Y-1540000D02*
X91440000Y-1540000D01*
%TO.N,Net-(D26-Pad2)*%
X88614000Y-20590000D02*
X91440000Y-20590000D01*
X86925000Y-18901000D02*
X88614000Y-20590000D01*
%TO.N,Net-(D27-Pad2)*%
X88614000Y-39640000D02*
X91440000Y-39640000D01*
X86925000Y-37951000D02*
X88614000Y-39640000D01*
%TO.N,Net-(D28-Pad2)*%
X88614000Y-58690000D02*
X91440000Y-58690000D01*
X86925000Y-57001000D02*
X88614000Y-58690000D01*
%TO.N,COL1*%
X110825000Y8125000D02*
X110825000Y8825000D01*
%TO.N,COL2*%
X109775000Y7273165D02*
X110175000Y7673165D01*
X110175000Y7673165D02*
X110175000Y8825000D01*
%TO.N,COL6*%
X99060000Y1610000D02*
X101825000Y4375000D01*
X99060000Y-20590000D02*
X99060000Y-1540000D01*
X104532649Y-77587422D02*
X104532649Y-64162649D01*
X104532649Y-64162649D02*
X99060000Y-58690000D01*
X99060000Y-39640000D02*
X99060000Y-20590000D01*
X99060000Y-1540000D02*
X99060000Y1610000D01*
X101825000Y4375000D02*
X107175000Y4375000D01*
X99060000Y-58690000D02*
X99060000Y-39640000D01*
%TO.N,ALERT*%
X115387500Y-6525000D02*
X115812020Y-6949520D01*
X119400480Y-6949520D02*
X120025000Y-6325000D01*
X120025000Y-6325000D02*
X120025000Y-3125000D01*
X115812020Y-6949520D02*
X119400480Y-6949520D01*
X120025000Y-3125000D02*
X118375000Y-1475000D01*
%TO.N,SDA*%
X115387500Y-5025000D02*
X114050000Y-5025000D01*
%TO.N,Net-(D24-Pad2)*%
X77400000Y-76051000D02*
X79089000Y-77740000D01*
X79089000Y-77740000D02*
X81915000Y-77740000D01*
D59*
%TO.N,VDDH*%
X108937499Y-44200000D02*
X108090000Y-44200000D01*
D54*
X107675000Y-44615000D02*
X107475000Y-44615000D01*
D55*
X108875000Y-2675000D02*
X108875000Y-3610000D01*
X108875000Y-3610000D02*
X109875000Y-4610000D01*
X115895000Y-18705000D02*
X116825000Y-18705000D01*
X115875000Y-18725000D02*
X115895000Y-18705000D01*
X109875000Y-4610000D02*
X109875000Y-4945000D01*
D54*
X108090000Y-44200000D02*
X107675000Y-44615000D01*
D58*
%TO.N,VBAT*%
X109437500Y-29542500D02*
X109437500Y-28412500D01*
%TO.N,/Power Management/CHG*%
X119035000Y-22485000D02*
X119025000Y-22475000D01*
X119625000Y-22485000D02*
X119035000Y-22485000D01*
D63*
%TO.N,Net-(F2-Pad2)*%
X112375000Y-17162500D02*
X112375000Y-18240000D01*
D58*
%TO.N,/USB-C/CC2*%
X111550008Y-9950008D02*
X112825000Y-11225000D01*
X110200505Y-9950008D02*
X111550008Y-9950008D01*
X110014503Y-10085000D02*
X109425000Y-10085000D01*
X112825000Y-11225000D02*
X114180000Y-11225000D01*
X110175000Y-9924503D02*
X110014503Y-10085000D01*
X110175000Y-9924503D02*
X110200505Y-9950008D01*
%TO.N,/USB-C/CC1*%
X109964503Y-15865000D02*
X109425000Y-15865000D01*
X110075000Y-15975497D02*
X109964503Y-15865000D01*
D52*
X112510717Y-14225000D02*
X114180000Y-14225000D01*
X110075000Y-15975497D02*
X110760220Y-15975497D01*
X110760220Y-15975497D02*
X112510717Y-14225000D01*
D58*
%TO.N,/Power Management/SYSOFF*%
X117625000Y-28225000D02*
X118375000Y-27475000D01*
X117075000Y-28225000D02*
X115675000Y-26825000D01*
X116325000Y-27475000D02*
X117075000Y-28225000D01*
X115675000Y-26825000D02*
X115675000Y-24162500D01*
X111623218Y-27225000D02*
X111873218Y-27475000D01*
X111873218Y-27475000D02*
X116325000Y-27475000D01*
X111125000Y-27225000D02*
X111623218Y-27225000D01*
%TO.N,/Power Management/TMR*%
X111125000Y-26725000D02*
X112227500Y-26725000D01*
%TO.N,/Power Management/ISET*%
X111487500Y-27725000D02*
X111887500Y-28125000D01*
X111887500Y-28125000D02*
X112327500Y-28125000D01*
X111125000Y-27725000D02*
X111487500Y-27725000D01*
%TO.N,/Power Management/TS*%
X111037500Y-29425000D02*
X112327500Y-29425000D01*
X110437500Y-28412500D02*
X110437500Y-28825000D01*
X110437500Y-28825000D02*
X111037500Y-29425000D01*
D55*
%TO.N,VDD*%
X109525000Y-2675000D02*
X109525000Y-3225000D01*
X111575000Y-5467359D02*
X111052641Y-4945000D01*
X110875000Y-4575000D02*
X110875000Y-4945000D01*
X111052641Y-4945000D02*
X110875000Y-4945000D01*
X111575000Y-6275000D02*
X111575000Y-5467359D01*
X109525000Y-3225000D02*
X110875000Y-4575000D01*
X112150000Y-6850000D02*
X111575000Y-6275000D01*
D54*
%TO.N,Net-(Q1-Pad1)*%
X115235000Y-21165000D02*
X115235000Y-20775000D01*
X116090000Y-20775000D02*
X115235000Y-20775000D01*
X114725000Y-22287500D02*
X114725000Y-21675000D01*
X114725000Y-21675000D02*
X115235000Y-21165000D01*
D58*
%TO.N,RESET*%
X118200000Y-39725000D02*
X118200000Y-35225000D01*
X117825000Y-40100000D02*
X117000000Y-40100000D01*
D52*
%TO.N,Net-(R6-Pad1)*%
X117024500Y-30575000D02*
X113335000Y-30575000D01*
X117075000Y-30524500D02*
X117075000Y-29725000D01*
X117075000Y-30524500D02*
X117024500Y-30575000D01*
%TO.N,Net-(D29-Pad2)*%
X97914634Y-77251669D02*
X97914634Y-80542589D01*
X97914634Y-80542589D02*
X100435696Y-83063651D01*
D64*
%TO.N,D+*%
X112250000Y-13225000D02*
X111325000Y-14150000D01*
X105525000Y-1089716D02*
X106439716Y-175000D01*
X105525000Y-10211938D02*
X105525000Y-1089716D01*
X115013762Y-12225000D02*
X114180000Y-12225000D01*
X115013762Y-13225000D02*
X114180000Y-13225000D01*
X115331502Y-12725000D02*
X115331502Y-12907260D01*
X106439716Y-175000D02*
X107175000Y-175000D01*
X114180000Y-13225000D02*
X112250000Y-13225000D01*
X108440890Y-13140890D02*
X107453952Y-12153952D01*
X115331502Y-12907260D02*
X115013762Y-13225000D01*
X115331502Y-12725000D02*
X115331502Y-12542740D01*
X107453952Y-12153952D02*
X107453952Y-12140890D01*
X110890890Y-13140890D02*
X108440890Y-13140890D01*
X111325000Y-14150000D02*
X111325000Y-13575000D01*
X115331502Y-12542740D02*
X115013762Y-12225000D01*
X107453952Y-12140890D02*
X105525000Y-10211938D01*
X111325000Y-13575000D02*
X110890890Y-13140890D01*
%TO.N,D-*%
X107786211Y-12003263D02*
X105857260Y-10074312D01*
X112533525Y-12725000D02*
X113425000Y-12725000D01*
X112504155Y-12695630D02*
X112220630Y-12695630D01*
X113225619Y-11824381D02*
X113225619Y-12525619D01*
X107786212Y-12016326D02*
X107786211Y-12003263D01*
X110891370Y-12808630D02*
X108578516Y-12808630D01*
X111325000Y-11800000D02*
X111325000Y-12375000D01*
X113225619Y-11824381D02*
X113325000Y-11725000D01*
X105857260Y-10074312D02*
X105857260Y-1242740D01*
X112504155Y-12695630D02*
X112533525Y-12725000D01*
X113425000Y-12725000D02*
X114180000Y-12725000D01*
X113225619Y-12525619D02*
X113425000Y-12725000D01*
X111325000Y-12375000D02*
X110891370Y-12808630D01*
X113325000Y-11725000D02*
X114180000Y-11725000D01*
X106275000Y-825000D02*
X106800000Y-825000D01*
X105857260Y-1242740D02*
X106275000Y-825000D01*
X108578516Y-12808630D02*
X107786212Y-12016326D01*
X112220630Y-12695630D02*
X111325000Y-11800000D01*
D58*
%TO.N,Net-(D1-Pad1)*%
X119625000Y-18705000D02*
X119625000Y-21465000D01*
D59*
%TO.N,EXT_PWR*%
X110812500Y-45150000D02*
X112800000Y-45150000D01*
D54*
%TO.N,Net-(Q2-Pad1)*%
X107475000Y-48965000D02*
X108377500Y-48965000D01*
X108377500Y-48965000D02*
X108937500Y-49525000D01*
X107475000Y-48185000D02*
X107475000Y-48965000D01*
%TO.N,Net-(Q2-Pad3)*%
X108937500Y-46100000D02*
X107940000Y-46100000D01*
X107940000Y-46100000D02*
X107475000Y-45635000D01*
D59*
X109800000Y-46100000D02*
X108937500Y-46100000D01*
X110812500Y-48575000D02*
X110812500Y-47112500D01*
X110812500Y-47112500D02*
X109800000Y-46100000D01*
%TD*%
%TA.AperFunction,Conductor*%
%TO.N,GND*%
G36*
X108967121Y-22895002D02*
G01*
X109013614Y-22948658D01*
X109025000Y-23001000D01*
X109025000Y-24549000D01*
X109004998Y-24617121D01*
X108951342Y-24663614D01*
X108899000Y-24675000D01*
X107951000Y-24675000D01*
X107882879Y-24654998D01*
X107836386Y-24601342D01*
X107825000Y-24549000D01*
X107825000Y-23001000D01*
X107845002Y-22932879D01*
X107898658Y-22886386D01*
X107951000Y-22875000D01*
X108899000Y-22875000D01*
X108967121Y-22895002D01*
G37*
%TD.AperFunction*%
%TD*%
%TA.AperFunction,Conductor*%
%TO.N,+BATT*%
G36*
X117717121Y-5395002D02*
G01*
X117763614Y-5448658D01*
X117775000Y-5501000D01*
X117775000Y-6049000D01*
X117754998Y-6117121D01*
X117701342Y-6163614D01*
X117649000Y-6175000D01*
X117101500Y-6175000D01*
X117033379Y-6154998D01*
X116986886Y-6101342D01*
X116975500Y-6049000D01*
X116975500Y-5501000D01*
X116995502Y-5432879D01*
X117049158Y-5386386D01*
X117101500Y-5375000D01*
X117649000Y-5375000D01*
X117717121Y-5395002D01*
G37*
%TD.AperFunction*%
%TD*%
M02*
