%TF.GenerationSoftware,KiCad,Pcbnew,(6.0.5)*%
%TF.CreationDate,2022-07-10T04:18:25-07:00*%
%TF.ProjectId,Conejo,436f6e65-6a6f-42e6-9b69-6361645f7063,v1.0.0*%
%TF.SameCoordinates,Original*%
%TF.FileFunction,Copper,L4,Bot*%
%TF.FilePolarity,Positive*%
%FSLAX46Y46*%
G04 Gerber Fmt 4.6, Leading zero omitted, Abs format (unit mm)*
G04 Created by KiCad (PCBNEW (6.0.5)) date 2022-07-10 04:18:25*
%MOMM*%
%LPD*%
G01*
G04 APERTURE LIST*
G04 Aperture macros list*
%AMRoundRect*
0 Rectangle with rounded corners*
0 $1 Rounding radius*
0 $2 $3 $4 $5 $6 $7 $8 $9 X,Y pos of 4 corners*
0 Add a 4 corners polygon primitive as box body*
4,1,4,$2,$3,$4,$5,$6,$7,$8,$9,$2,$3,0*
0 Add four circle primitives for the rounded corners*
1,1,$1+$1,$2,$3*
1,1,$1+$1,$4,$5*
1,1,$1+$1,$6,$7*
1,1,$1+$1,$8,$9*
0 Add four rect primitives between the rounded corners*
20,1,$1+$1,$2,$3,$4,$5,0*
20,1,$1+$1,$4,$5,$6,$7,0*
20,1,$1+$1,$6,$7,$8,$9,0*
20,1,$1+$1,$8,$9,$2,$3,0*%
%AMRotRect*
0 Rectangle, with rotation*
0 The origin of the aperture is its center*
0 $1 length*
0 $2 width*
0 $3 Rotation angle, in degrees counterclockwise*
0 Add horizontal line*
21,1,$1,$2,0,0,$3*%
G04 Aperture macros list end*
%TA.AperFunction,SMDPad,CuDef*%
%ADD10R,1.100000X0.350000*%
%TD*%
%TA.AperFunction,SMDPad,CuDef*%
%ADD11R,0.350000X1.100000*%
%TD*%
%TA.AperFunction,SMDPad,CuDef*%
%ADD12R,1.300000X1.800000*%
%TD*%
%TA.AperFunction,SMDPad,CuDef*%
%ADD13R,1.000000X1.550000*%
%TD*%
%TA.AperFunction,ComponentPad*%
%ADD14C,4.000000*%
%TD*%
%TA.AperFunction,SMDPad,CuDef*%
%ADD15RotRect,3.498000X2.500000X255.000000*%
%TD*%
%TA.AperFunction,SMDPad,CuDef*%
%ADD16RotRect,3.498000X2.500000X75.000000*%
%TD*%
%TA.AperFunction,SMDPad,CuDef*%
%ADD17R,3.498000X2.500000*%
%TD*%
%TA.AperFunction,SMDPad,CuDef*%
%ADD18RoundRect,0.090000X0.535000X-0.210000X0.535000X0.210000X-0.535000X0.210000X-0.535000X-0.210000X0*%
%TD*%
%TA.AperFunction,SMDPad,CuDef*%
%ADD19RoundRect,0.105000X-0.245000X-0.445000X0.245000X-0.445000X0.245000X0.445000X-0.245000X0.445000X0*%
%TD*%
%TA.AperFunction,ComponentPad*%
%ADD20R,1.524000X1.524000*%
%TD*%
%TA.AperFunction,SMDPad,CuDef*%
%ADD21R,1.450000X0.600000*%
%TD*%
%TA.AperFunction,SMDPad,CuDef*%
%ADD22R,1.450000X0.300000*%
%TD*%
%TA.AperFunction,ComponentPad*%
%ADD23O,1.600000X1.000000*%
%TD*%
%TA.AperFunction,ComponentPad*%
%ADD24O,2.100000X1.000000*%
%TD*%
%TA.AperFunction,ComponentPad*%
%ADD25RoundRect,0.337500X-0.337500X0.337500X-0.337500X-0.337500X0.337500X-0.337500X0.337500X0.337500X0*%
%TD*%
%TA.AperFunction,SMDPad,CuDef*%
%ADD26RoundRect,0.125000X0.181173X0.676148X-0.181173X-0.676148X-0.181173X-0.676148X0.181173X0.676148X0*%
%TD*%
%TA.AperFunction,SMDPad,CuDef*%
%ADD27RotRect,0.600000X0.700000X255.000000*%
%TD*%
%TA.AperFunction,ComponentPad*%
%ADD28C,0.800000*%
%TD*%
%TA.AperFunction,SMDPad,CuDef*%
%ADD29RoundRect,0.125000X0.700000X0.000000X-0.700000X0.000000X-0.700000X0.000000X0.700000X0.000000X0*%
%TD*%
%TA.AperFunction,SMDPad,CuDef*%
%ADD30R,0.600000X0.700000*%
%TD*%
%TA.AperFunction,SMDPad,CuDef*%
%ADD31RoundRect,0.250000X-0.375000X-0.625000X0.375000X-0.625000X0.375000X0.625000X-0.375000X0.625000X0*%
%TD*%
%TA.AperFunction,SMDPad,CuDef*%
%ADD32RoundRect,0.147500X-0.147500X-0.172500X0.147500X-0.172500X0.147500X0.172500X-0.147500X0.172500X0*%
%TD*%
%TA.AperFunction,SMDPad,CuDef*%
%ADD33RoundRect,0.147500X-0.172500X0.147500X-0.172500X-0.147500X0.172500X-0.147500X0.172500X0.147500X0*%
%TD*%
%TA.AperFunction,SMDPad,CuDef*%
%ADD34RoundRect,0.140000X-0.140000X-0.170000X0.140000X-0.170000X0.140000X0.170000X-0.140000X0.170000X0*%
%TD*%
%TA.AperFunction,SMDPad,CuDef*%
%ADD35RoundRect,0.135000X-0.185000X0.135000X-0.185000X-0.135000X0.185000X-0.135000X0.185000X0.135000X0*%
%TD*%
%TA.AperFunction,SMDPad,CuDef*%
%ADD36RoundRect,0.218750X-0.256250X0.218750X-0.256250X-0.218750X0.256250X-0.218750X0.256250X0.218750X0*%
%TD*%
%TA.AperFunction,SMDPad,CuDef*%
%ADD37RoundRect,0.150000X-0.150000X0.475000X-0.150000X-0.475000X0.150000X-0.475000X0.150000X0.475000X0*%
%TD*%
%TA.AperFunction,SMDPad,CuDef*%
%ADD38RoundRect,0.135000X0.135000X0.185000X-0.135000X0.185000X-0.135000X-0.185000X0.135000X-0.185000X0*%
%TD*%
%TA.AperFunction,SMDPad,CuDef*%
%ADD39RoundRect,0.140000X0.140000X0.170000X-0.140000X0.170000X-0.140000X-0.170000X0.140000X-0.170000X0*%
%TD*%
%TA.AperFunction,SMDPad,CuDef*%
%ADD40RoundRect,0.135000X-0.135000X-0.185000X0.135000X-0.185000X0.135000X0.185000X-0.135000X0.185000X0*%
%TD*%
%TA.AperFunction,SMDPad,CuDef*%
%ADD41RoundRect,0.135000X0.185000X-0.135000X0.185000X0.135000X-0.185000X0.135000X-0.185000X-0.135000X0*%
%TD*%
%TA.AperFunction,SMDPad,CuDef*%
%ADD42RoundRect,0.150000X-0.150000X0.587500X-0.150000X-0.587500X0.150000X-0.587500X0.150000X0.587500X0*%
%TD*%
%TA.AperFunction,SMDPad,CuDef*%
%ADD43RoundRect,0.062500X0.062500X-0.375000X0.062500X0.375000X-0.062500X0.375000X-0.062500X-0.375000X0*%
%TD*%
%TA.AperFunction,SMDPad,CuDef*%
%ADD44RoundRect,0.062500X0.375000X-0.062500X0.375000X0.062500X-0.375000X0.062500X-0.375000X-0.062500X0*%
%TD*%
%TA.AperFunction,SMDPad,CuDef*%
%ADD45R,1.600000X1.600000*%
%TD*%
%TA.AperFunction,SMDPad,CuDef*%
%ADD46RoundRect,0.140000X-0.170000X0.140000X-0.170000X-0.140000X0.170000X-0.140000X0.170000X0.140000X0*%
%TD*%
%TA.AperFunction,SMDPad,CuDef*%
%ADD47RoundRect,0.150000X-0.587500X-0.150000X0.587500X-0.150000X0.587500X0.150000X-0.587500X0.150000X0*%
%TD*%
%TA.AperFunction,SMDPad,CuDef*%
%ADD48RoundRect,0.140000X0.170000X-0.140000X0.170000X0.140000X-0.170000X0.140000X-0.170000X-0.140000X0*%
%TD*%
%TA.AperFunction,SMDPad,CuDef*%
%ADD49RoundRect,0.062500X0.325000X0.062500X-0.325000X0.062500X-0.325000X-0.062500X0.325000X-0.062500X0*%
%TD*%
%TA.AperFunction,SMDPad,CuDef*%
%ADD50R,0.800000X1.200000*%
%TD*%
%TA.AperFunction,ViaPad*%
%ADD51C,0.600000*%
%TD*%
%TA.AperFunction,Conductor*%
%ADD52C,0.560000*%
%TD*%
%TA.AperFunction,Conductor*%
%ADD53C,0.350000*%
%TD*%
%TA.AperFunction,Conductor*%
%ADD54C,0.250000*%
%TD*%
%TA.AperFunction,Conductor*%
%ADD55C,0.520000*%
%TD*%
%TA.AperFunction,Conductor*%
%ADD56C,0.400000*%
%TD*%
%TA.AperFunction,Conductor*%
%ADD57C,0.540000*%
%TD*%
%TA.AperFunction,Conductor*%
%ADD58C,1.000000*%
%TD*%
%TA.AperFunction,Conductor*%
%ADD59C,0.500000*%
%TD*%
%TA.AperFunction,Conductor*%
%ADD60C,0.600000*%
%TD*%
%TA.AperFunction,Conductor*%
%ADD61C,0.200000*%
%TD*%
%TA.AperFunction,Conductor*%
%ADD62C,0.205740*%
%TD*%
G04 APERTURE END LIST*
D10*
%TO.P,U4,1,GND*%
%TO.N,GND*%
X118375000Y8925000D03*
%TO.P,U4,2,P1.11*%
%TO.N,unconnected-(U4-Pad2)*%
X118375000Y8275000D03*
%TO.P,U4,3,P1.12*%
%TO.N,unconnected-(U4-Pad3)*%
X118375000Y7625000D03*
%TO.P,U4,4,P1.10*%
%TO.N,unconnected-(U4-Pad4)*%
X118375000Y6975000D03*
%TO.P,U4,5,P1.14*%
%TO.N,unconnected-(U4-Pad5)*%
X118375000Y6325000D03*
%TO.P,U4,6,P0.03*%
%TO.N,unconnected-(U4-Pad6)*%
X118375000Y5675000D03*
%TO.P,U4,7,P1.13*%
%TO.N,unconnected-(U4-Pad7)*%
X118375000Y5025000D03*
%TO.P,U4,8,P1.15*%
%TO.N,unconnected-(U4-Pad8)*%
X118375000Y4375000D03*
%TO.P,U4,9,P0.02*%
%TO.N,unconnected-(U4-Pad9)*%
X118375000Y3725000D03*
%TO.P,U4,10,P0.29*%
%TO.N,unconnected-(U4-Pad10)*%
X118375000Y3075000D03*
%TO.P,U4,11,P0.28*%
%TO.N,unconnected-(U4-Pad11)*%
X118375000Y2425000D03*
%TO.P,U4,12,P0.30*%
%TO.N,unconnected-(U4-Pad12)*%
X118375000Y1775000D03*
%TO.P,U4,13,P0.31*%
%TO.N,unconnected-(U4-Pad13)*%
X118375000Y1125000D03*
%TO.P,U4,14,P0.27*%
%TO.N,unconnected-(U4-Pad14)*%
X118375000Y475000D03*
%TO.P,U4,15,P0.05*%
%TO.N,unconnected-(U4-Pad15)*%
X118375000Y-175000D03*
%TO.P,U4,16,P0.04*%
%TO.N,unconnected-(U4-Pad16)*%
X118375000Y-825000D03*
%TO.P,U4,17,P0.26*%
%TO.N,unconnected-(U4-Pad17)*%
X118375000Y-1475000D03*
D11*
%TO.P,U4,18,GND*%
%TO.N,GND*%
X117975000Y-2675000D03*
%TO.P,U4,19,P0.07*%
%TO.N,unconnected-(U4-Pad19)*%
X117325000Y-2675000D03*
%TO.P,U4,20,P0.06*%
%TO.N,unconnected-(U4-Pad20)*%
X116675000Y-2675000D03*
%TO.P,U4,21,P1.08*%
%TO.N,unconnected-(U4-Pad21)*%
X116025000Y-2675000D03*
%TO.P,U4,22,P0.11*%
%TO.N,unconnected-(U4-Pad22)*%
X115375000Y-2675000D03*
%TO.P,U4,23,P0.00*%
%TO.N,unconnected-(U4-Pad23)*%
X114725000Y-2675000D03*
%TO.P,U4,24,P0.01*%
%TO.N,unconnected-(U4-Pad24)*%
X114075000Y-2675000D03*
%TO.P,U4,25,P0.08*%
%TO.N,SDA*%
X113425000Y-2675000D03*
%TO.P,U4,26,P1.09*%
%TO.N,SCL*%
X112775000Y-2675000D03*
%TO.P,U4,27,P0.12*%
%TO.N,ALERT*%
X112125000Y-2675000D03*
%TO.P,U4,28,P0.18/RST*%
%TO.N,RESET*%
X111475000Y-2675000D03*
%TO.P,U4,29,P0.16*%
%TO.N,unconnected-(U4-Pad29)*%
X110825000Y-2675000D03*
%TO.P,U4,30,P0.14*%
%TO.N,unconnected-(U4-Pad30)*%
X110175000Y-2675000D03*
%TO.P,U4,31,VDD*%
%TO.N,VDD*%
X109525000Y-2675000D03*
%TO.P,U4,32,VDDH*%
%TO.N,VDDH*%
X108875000Y-2675000D03*
%TO.P,U4,33,DCCH*%
%TO.N,DCCH*%
X108225000Y-2675000D03*
%TO.P,U4,34,GND*%
%TO.N,GND*%
X107575000Y-2675000D03*
D10*
%TO.P,U4,35,VBUS*%
%TO.N,+5V*%
X107175000Y-1475000D03*
%TO.P,U4,36,D-*%
%TO.N,D-*%
X107175000Y-825000D03*
%TO.P,U4,37,D+*%
%TO.N,D+*%
X107175000Y-175000D03*
%TO.P,U4,38,P0.19*%
%TO.N,unconnected-(U4-Pad38)*%
X107175000Y475000D03*
%TO.P,U4,39,P0.13*%
%TO.N,unconnected-(U4-Pad39)*%
X107175000Y1125000D03*
%TO.P,U4,40,P0.15*%
%TO.N,EXT_PWR_EN*%
X107175000Y1775000D03*
%TO.P,U4,41,P0.17*%
%TO.N,LED_MOSI*%
X107175000Y2425000D03*
%TO.P,U4,42,P0.21*%
%TO.N,ROW5*%
X107175000Y3075000D03*
%TO.P,U4,43,P0.23*%
%TO.N,ROW4*%
X107175000Y3725000D03*
%TO.P,U4,44,P0.20*%
%TO.N,ROW3*%
X107175000Y4375000D03*
%TO.P,U4,45,P0.22*%
%TO.N,ROW2*%
X107175000Y5025000D03*
%TO.P,U4,46,P0.24*%
%TO.N,COL6*%
X107175000Y5675000D03*
%TO.P,U4,47,P1.00*%
%TO.N,ROW1*%
X107175000Y6325000D03*
%TO.P,U4,48,P0.25*%
%TO.N,COL5*%
X107175000Y6975000D03*
%TO.P,U4,49,SWDIO*%
%TO.N,SWDIO*%
X107175000Y7625000D03*
%TO.P,U4,50,SWDCLK*%
%TO.N,SWDCLK*%
X107175000Y8275000D03*
%TO.P,U4,51,RF*%
%TO.N,unconnected-(U4-Pad51)*%
X107175000Y8925000D03*
D11*
%TO.P,U4,52,P1.02*%
%TO.N,unconnected-(U4-Pad52)*%
X108275000Y8825000D03*
%TO.P,U4,53,P1.04*%
%TO.N,unconnected-(U4-Pad53)*%
X108875000Y8825000D03*
%TO.P,U4,54,P1.06*%
%TO.N,unconnected-(U4-Pad54)*%
X109525000Y8825000D03*
%TO.P,U4,55,P0.09*%
%TO.N,unconnected-(U4-Pad55)*%
X110175000Y8825000D03*
%TO.P,U4,56,P0.10*%
%TO.N,unconnected-(U4-Pad56)*%
X110825000Y8825000D03*
D10*
%TO.P,U4,57,P1.07*%
%TO.N,COL1*%
X108875000Y7625000D03*
%TO.P,U4,58,P1.05*%
%TO.N,COL2*%
X108875000Y6975000D03*
%TO.P,U4,59,P1.01*%
%TO.N,COL3*%
X108875000Y6325000D03*
%TO.P,U4,60,P1.03*%
%TO.N,COL4*%
X108875000Y5675000D03*
D12*
%TO.P,U4,61,GND*%
%TO.N,GND*%
X111525000Y5425000D03*
%TO.P,U4,62,GND*%
X111525000Y2575000D03*
%TO.P,U4,63,GND*%
X114325000Y2575000D03*
%TO.P,U4,64,GND*%
X114325000Y5425000D03*
%TD*%
D13*
%TO.P,SW29,1,1*%
%TO.N,GND*%
X119525000Y-34850000D03*
X119525000Y-40100000D03*
%TO.P,SW29,2,2*%
%TO.N,RESET*%
X117825000Y-40100000D03*
X117825000Y-34850000D03*
%TD*%
D14*
%TO.P,SW28,1,1*%
%TO.N,COL6*%
X101750497Y-78156748D03*
D15*
X102475449Y-75451189D03*
D14*
X104532649Y-77587422D03*
%TO.P,SW28,2,2*%
%TO.N,Net-(D29-Pad2)*%
X102560448Y-84947777D03*
X100435696Y-83063651D03*
D16*
X101835496Y-87653335D03*
%TD*%
D17*
%TO.P,SW27,1,1*%
%TO.N,COL6*%
X101861000Y-58690000D03*
D14*
X97790000Y-61230000D03*
X99060000Y-58690000D03*
%TO.P,SW27,2,2*%
%TO.N,Net-(D28-Pad2)*%
X92710000Y-61230000D03*
X91440000Y-58690000D03*
D17*
X89909000Y-61230000D03*
%TD*%
%TO.P,SW26,1,1*%
%TO.N,COL6*%
X101861000Y-39640000D03*
D14*
X97790000Y-42180000D03*
X99060000Y-39640000D03*
%TO.P,SW26,2,2*%
%TO.N,Net-(D27-Pad2)*%
X92710000Y-42180000D03*
X91440000Y-39640000D03*
D17*
X89909000Y-42180000D03*
%TD*%
%TO.P,SW25,1,1*%
%TO.N,COL6*%
X101861000Y-20590000D03*
D14*
X97790000Y-23130000D03*
X99060000Y-20590000D03*
%TO.P,SW25,2,2*%
%TO.N,Net-(D26-Pad2)*%
X92710000Y-23130000D03*
X91440000Y-20590000D03*
D17*
X89909000Y-23130000D03*
%TD*%
%TO.P,SW24,1,1*%
%TO.N,COL6*%
X101861000Y-1540000D03*
D14*
X97790000Y-4080000D03*
X99060000Y-1540000D03*
%TO.P,SW24,2,2*%
%TO.N,Net-(D25-Pad2)*%
X92710000Y-4080000D03*
X91440000Y-1540000D03*
D17*
X89909000Y-4080000D03*
%TD*%
%TO.P,SW23,1,1*%
%TO.N,COL5*%
X92336000Y-77740000D03*
D14*
X88265000Y-80280000D03*
X89535000Y-77740000D03*
%TO.P,SW23,2,2*%
%TO.N,Net-(D24-Pad2)*%
X83185000Y-80280000D03*
X81915000Y-77740000D03*
D17*
X80384000Y-80280000D03*
%TD*%
%TO.P,SW22,1,1*%
%TO.N,COL5*%
X82811000Y-56690000D03*
D14*
X78740000Y-59230000D03*
X80010000Y-56690000D03*
%TO.P,SW22,2,2*%
%TO.N,Net-(D23-Pad2)*%
X73660000Y-59230000D03*
X72390000Y-56690000D03*
D17*
X70859000Y-59230000D03*
%TD*%
%TO.P,SW21,1,1*%
%TO.N,COL5*%
X82811000Y-37640000D03*
D14*
X78740000Y-40180000D03*
X80010000Y-37640000D03*
%TO.P,SW21,2,2*%
%TO.N,Net-(D22-Pad2)*%
X73660000Y-40180000D03*
X72390000Y-37640000D03*
D17*
X70859000Y-40180000D03*
%TD*%
%TO.P,SW20,1,1*%
%TO.N,COL5*%
X82811000Y-18590000D03*
D14*
X78740000Y-21130000D03*
X80010000Y-18590000D03*
%TO.P,SW20,2,2*%
%TO.N,Net-(D21-Pad2)*%
X73660000Y-21130000D03*
X72390000Y-18590000D03*
D17*
X70859000Y-21130000D03*
%TD*%
%TO.P,SW19,1,1*%
%TO.N,COL5*%
X82811000Y460000D03*
D14*
X78740000Y-2080000D03*
X80010000Y460000D03*
%TO.P,SW19,2,2*%
%TO.N,Net-(D20-Pad2)*%
X73660000Y-2080000D03*
X72390000Y460000D03*
D17*
X70859000Y-2080000D03*
%TD*%
%TO.P,SW18,1,1*%
%TO.N,COL4*%
X73286000Y-75740000D03*
D14*
X69215000Y-78280000D03*
X70485000Y-75740000D03*
%TO.P,SW18,2,2*%
%TO.N,Net-(D19-Pad2)*%
X64135000Y-78280000D03*
X62865000Y-75740000D03*
D17*
X61334000Y-78280000D03*
%TD*%
%TO.P,SW17,1,1*%
%TO.N,COL4*%
X63761000Y-54690000D03*
D14*
X59690000Y-57230000D03*
X60960000Y-54690000D03*
%TO.P,SW17,2,2*%
%TO.N,Net-(D18-Pad2)*%
X54610000Y-57230000D03*
X53340000Y-54690000D03*
D17*
X51809000Y-57230000D03*
%TD*%
%TO.P,SW16,1,1*%
%TO.N,COL4*%
X63761000Y-35639999D03*
D14*
X59690000Y-38179999D03*
X60960000Y-35639999D03*
%TO.P,SW16,2,2*%
%TO.N,Net-(D17-Pad2)*%
X54610000Y-38179999D03*
X53340000Y-35639999D03*
D17*
X51809000Y-38179999D03*
%TD*%
%TO.P,SW15,1,1*%
%TO.N,COL4*%
X63761002Y-16590000D03*
D14*
X59690002Y-19130000D03*
X60960002Y-16590000D03*
%TO.P,SW15,2,2*%
%TO.N,Net-(D16-Pad2)*%
X54610002Y-19130000D03*
X53340002Y-16590000D03*
D17*
X51809002Y-19130000D03*
%TD*%
%TO.P,SW14,1,1*%
%TO.N,COL4*%
X63761000Y2460000D03*
D14*
X59690000Y-80000D03*
X60960000Y2460000D03*
%TO.P,SW14,2,2*%
%TO.N,Net-(D15-Pad2)*%
X54610000Y-80000D03*
X53340000Y2460000D03*
D17*
X51809000Y-80000D03*
%TD*%
%TO.P,SW13,1,1*%
%TO.N,COL3*%
X44711000Y-56690000D03*
D14*
X40640000Y-59230000D03*
X41910000Y-56690000D03*
%TO.P,SW13,2,2*%
%TO.N,Net-(D14-Pad2)*%
X35560000Y-59230000D03*
X34290000Y-56690000D03*
D17*
X32759000Y-59230000D03*
%TD*%
%TO.P,SW12,1,1*%
%TO.N,COL3*%
X44711000Y-37640000D03*
D14*
X40640000Y-40180000D03*
X41910000Y-37640000D03*
%TO.P,SW12,2,2*%
%TO.N,Net-(D13-Pad2)*%
X35560000Y-40180000D03*
X34290000Y-37640000D03*
D17*
X32759000Y-40180000D03*
%TD*%
%TO.P,SW11,1,1*%
%TO.N,COL3*%
X44711000Y-18590000D03*
D14*
X40640000Y-21130000D03*
X41910000Y-18590000D03*
%TO.P,SW11,2,2*%
%TO.N,Net-(D12-Pad2)*%
X35560000Y-21130000D03*
X34290000Y-18590000D03*
D17*
X32759000Y-21130000D03*
%TD*%
%TO.P,SW10,1,1*%
%TO.N,COL3*%
X44711000Y460000D03*
D14*
X40640000Y-2080000D03*
X41910000Y460000D03*
%TO.P,SW10,2,2*%
%TO.N,Net-(D11-Pad2)*%
X35560000Y-2080000D03*
X34290000Y460000D03*
D17*
X32759000Y-2080000D03*
%TD*%
%TO.P,SW9,1,1*%
%TO.N,COL2*%
X25661000Y-61690000D03*
D14*
X21590000Y-64230000D03*
X22860000Y-61690000D03*
%TO.P,SW9,2,2*%
%TO.N,Net-(D10-Pad2)*%
X16510000Y-64230000D03*
X15240000Y-61690000D03*
D17*
X13709000Y-64230000D03*
%TD*%
%TO.P,SW8,1,1*%
%TO.N,COL2*%
X25661000Y-42640000D03*
D14*
X21590000Y-45180000D03*
X22860000Y-42640000D03*
%TO.P,SW8,2,2*%
%TO.N,Net-(D9-Pad2)*%
X16510000Y-45180000D03*
X15240000Y-42640000D03*
D17*
X13709000Y-45180000D03*
%TD*%
%TO.P,SW7,1,1*%
%TO.N,COL2*%
X25661000Y-23589999D03*
D14*
X21590000Y-26129999D03*
X22860000Y-23589999D03*
%TO.P,SW7,2,2*%
%TO.N,Net-(D8-Pad2)*%
X16510000Y-26129999D03*
X15240000Y-23589999D03*
D17*
X13709000Y-26129999D03*
%TD*%
%TO.P,SW6,1,1*%
%TO.N,COL2*%
X25661000Y-4540000D03*
D14*
X21590000Y-7080000D03*
X22860000Y-4540000D03*
%TO.P,SW6,2,2*%
%TO.N,Net-(D7-Pad2)*%
X16510000Y-7080000D03*
X15240000Y-4540000D03*
D17*
X13709000Y-7080000D03*
%TD*%
%TO.P,SW5,1,1*%
%TO.N,COL1*%
X6611000Y-61690000D03*
D14*
X2540000Y-64230000D03*
X3810000Y-61690000D03*
%TO.P,SW5,2,2*%
%TO.N,Net-(D6-Pad2)*%
X-2540000Y-64230000D03*
X-3810000Y-61690000D03*
D17*
X-5341000Y-64230000D03*
%TD*%
%TO.P,SW4,1,1*%
%TO.N,COL1*%
X6611000Y-42640000D03*
D14*
X2540000Y-45180000D03*
X3810000Y-42640000D03*
%TO.P,SW4,2,2*%
%TO.N,Net-(D5-Pad2)*%
X-2540000Y-45180000D03*
X-3810000Y-42640000D03*
D17*
X-5341000Y-45180000D03*
%TD*%
%TO.P,SW3,1,1*%
%TO.N,COL1*%
X6611000Y-23590000D03*
D14*
X2540000Y-26130000D03*
X3810000Y-23590000D03*
%TO.P,SW3,2,2*%
%TO.N,Net-(D4-Pad2)*%
X-2540000Y-26130000D03*
X-3810000Y-23590000D03*
D17*
X-5341000Y-26130000D03*
%TD*%
%TO.P,SW2,1,1*%
%TO.N,COL1*%
X6611000Y-4540000D03*
D14*
X2540000Y-7080000D03*
X3810000Y-4540000D03*
%TO.P,SW2,2,2*%
%TO.N,Net-(D3-Pad2)*%
X-2540000Y-7080000D03*
X-3810000Y-4540000D03*
D17*
X-5341000Y-7080000D03*
%TD*%
D18*
%TO.P,SW1,1,A*%
%TO.N,GND*%
X116950000Y-25225000D03*
%TO.P,SW1,2,B*%
%TO.N,/Power Management/SYSOFF*%
X116950000Y-28225000D03*
%TO.P,SW1,3,C*%
%TO.N,Net-(R5-Pad1)*%
X116950000Y-29725000D03*
D19*
%TO.P,SW1,MP*%
%TO.N,N/C*%
X120100000Y-31175000D03*
X117800000Y-23775000D03*
X120100000Y-23775000D03*
X117800000Y-31175000D03*
%TD*%
D20*
%TO.P,J4,1,Pin_1*%
%TO.N,EXT_PWR*%
X112775000Y-45150000D03*
%TO.P,J4,2,Pin_2*%
%TO.N,LED_MOSI*%
X112775000Y-47150000D03*
%TO.P,J4,3,Pin_3*%
%TO.N,GND*%
X112775000Y-49250000D03*
%TD*%
D21*
%TO.P,J2,A1,GND*%
%TO.N,GND*%
X114180000Y-9225000D03*
%TO.P,J2,A4,VBUS*%
%TO.N,VBUS*%
X114180000Y-10025000D03*
D22*
%TO.P,J2,A5,CC1*%
%TO.N,/USB-C/CC1*%
X114180000Y-14225000D03*
%TO.P,J2,A6,D+*%
%TO.N,D+*%
X114180000Y-12225000D03*
%TO.P,J2,A7,D-*%
%TO.N,D-*%
X114180000Y-12725000D03*
%TO.P,J2,A8,SBU1*%
%TO.N,unconnected-(J2-PadA8)*%
X114180000Y-13725000D03*
D21*
%TO.P,J2,A9,VBUS*%
%TO.N,VBUS*%
X114180000Y-14925000D03*
%TO.P,J2,A12,GND*%
%TO.N,GND*%
X114180000Y-15725000D03*
%TO.P,J2,B1,GND*%
X114180000Y-15725000D03*
%TO.P,J2,B4,VBUS*%
%TO.N,VBUS*%
X114180000Y-14925000D03*
D22*
%TO.P,J2,B5,CC2*%
%TO.N,/USB-C/CC2*%
X114180000Y-11225000D03*
%TO.P,J2,B6,D+*%
%TO.N,D+*%
X114180000Y-13225000D03*
%TO.P,J2,B7,D-*%
%TO.N,D-*%
X114180000Y-11725000D03*
%TO.P,J2,B8,SBU2*%
%TO.N,unconnected-(J2-PadB8)*%
X114180000Y-10725000D03*
D21*
%TO.P,J2,B9,VBUS*%
%TO.N,VBUS*%
X114180000Y-10025000D03*
%TO.P,J2,B12,GND*%
%TO.N,GND*%
X114180000Y-9225000D03*
D23*
%TO.P,J2,S1,SHIELD*%
X119275000Y-16795000D03*
D24*
X115095000Y-16795000D03*
X115095000Y-8155000D03*
D23*
X119275000Y-8155000D03*
%TD*%
D25*
%TO.P,J1,1,Pin_1*%
%TO.N,+BATT*%
X111775000Y-34600000D03*
%TO.P,J1,2,Pin_2*%
%TO.N,GND*%
X113775000Y-34600000D03*
%TD*%
D26*
%TO.P,D29,1,K*%
%TO.N,ROW5*%
X98658997Y-74473666D03*
D27*
X98523117Y-74980777D03*
D28*
X98769254Y-74062181D03*
D26*
%TO.P,D29,2,A*%
%TO.N,Net-(D29-Pad2)*%
X98024891Y-76840184D03*
D27*
X98160771Y-76333073D03*
D28*
X97914634Y-77251669D03*
%TD*%
D29*
%TO.P,D28,1,K*%
%TO.N,ROW4*%
X96475000Y-52150000D03*
D30*
X95950000Y-52150000D03*
D28*
X96901000Y-52150000D03*
D29*
%TO.P,D28,2,A*%
%TO.N,Net-(D28-Pad2)*%
X94025000Y-52150000D03*
D30*
X94550000Y-52150000D03*
D28*
X93599000Y-52150000D03*
%TD*%
D29*
%TO.P,D27,1,K*%
%TO.N,ROW3*%
X96475000Y-33100000D03*
D30*
X95950000Y-33100000D03*
D28*
X96901000Y-33100000D03*
D29*
%TO.P,D27,2,A*%
%TO.N,Net-(D27-Pad2)*%
X94025000Y-33100000D03*
D30*
X94550000Y-33100000D03*
D28*
X93599000Y-33100000D03*
%TD*%
D29*
%TO.P,D26,1,K*%
%TO.N,ROW2*%
X96475000Y-14050000D03*
D30*
X95950000Y-14050000D03*
D28*
X96901000Y-14050000D03*
D29*
%TO.P,D26,2,A*%
%TO.N,Net-(D26-Pad2)*%
X94025000Y-14050000D03*
D30*
X94550000Y-14050000D03*
D28*
X93599000Y-14050000D03*
%TD*%
D29*
%TO.P,D25,1,K*%
%TO.N,ROW1*%
X96475000Y5000000D03*
D30*
X95950000Y5000000D03*
D28*
X96901000Y5000000D03*
D29*
%TO.P,D25,2,A*%
%TO.N,Net-(D25-Pad2)*%
X94025000Y5000000D03*
D30*
X94550000Y5000000D03*
D28*
X93599000Y5000000D03*
%TD*%
D29*
%TO.P,D24,1,K*%
%TO.N,ROW5*%
X86950000Y-71200000D03*
D30*
X86425000Y-71200000D03*
D28*
X87376000Y-71200000D03*
D29*
%TO.P,D24,2,A*%
%TO.N,Net-(D24-Pad2)*%
X84500000Y-71200000D03*
D30*
X85025000Y-71200000D03*
D28*
X84074000Y-71200000D03*
%TD*%
D29*
%TO.P,D23,1,K*%
%TO.N,ROW4*%
X77425000Y-50150000D03*
D30*
X76900000Y-50150000D03*
D28*
X77851000Y-50150000D03*
D29*
%TO.P,D23,2,A*%
%TO.N,Net-(D23-Pad2)*%
X74975000Y-50150000D03*
D30*
X75500000Y-50150000D03*
D28*
X74549000Y-50150000D03*
%TD*%
D29*
%TO.P,D22,1,K*%
%TO.N,ROW3*%
X77425000Y-31100000D03*
D30*
X76900000Y-31100000D03*
D28*
X77851000Y-31100000D03*
D29*
%TO.P,D22,2,A*%
%TO.N,Net-(D22-Pad2)*%
X74975000Y-31100000D03*
D30*
X75500000Y-31100000D03*
D28*
X74549000Y-31100000D03*
%TD*%
D29*
%TO.P,D21,1,K*%
%TO.N,ROW2*%
X77425000Y-12050000D03*
D30*
X76900000Y-12050000D03*
D28*
X77851000Y-12050000D03*
D29*
%TO.P,D21,2,A*%
%TO.N,Net-(D21-Pad2)*%
X74975000Y-12050000D03*
D30*
X75500000Y-12050000D03*
D28*
X74549000Y-12050000D03*
%TD*%
D29*
%TO.P,D20,1,K*%
%TO.N,ROW1*%
X77425000Y7000000D03*
D30*
X76900000Y7000000D03*
D28*
X77851000Y7000000D03*
D29*
%TO.P,D20,2,A*%
%TO.N,Net-(D20-Pad2)*%
X74975000Y7000000D03*
D30*
X75500000Y7000000D03*
D28*
X74549000Y7000000D03*
%TD*%
D29*
%TO.P,D19,1,K*%
%TO.N,ROW5*%
X67900000Y-69200000D03*
D30*
X67375000Y-69200000D03*
D28*
X68326000Y-69200000D03*
D29*
%TO.P,D19,2,A*%
%TO.N,Net-(D19-Pad2)*%
X65450000Y-69200000D03*
D30*
X65975000Y-69200000D03*
D28*
X65024000Y-69200000D03*
%TD*%
D29*
%TO.P,D18,1,K*%
%TO.N,ROW4*%
X58375000Y-48150000D03*
D30*
X57850000Y-48150000D03*
D28*
X58801000Y-48150000D03*
D29*
%TO.P,D18,2,A*%
%TO.N,Net-(D18-Pad2)*%
X55925000Y-48150000D03*
D30*
X56450000Y-48150000D03*
D28*
X55499000Y-48150000D03*
%TD*%
D29*
%TO.P,D17,1,K*%
%TO.N,ROW3*%
X58375000Y-29100000D03*
D30*
X57850000Y-29100000D03*
D28*
X58801000Y-29100000D03*
D29*
%TO.P,D17,2,A*%
%TO.N,Net-(D17-Pad2)*%
X55925000Y-29100000D03*
D30*
X56450000Y-29100000D03*
D28*
X55499000Y-29100000D03*
%TD*%
D29*
%TO.P,D16,1,K*%
%TO.N,ROW2*%
X58375000Y-10050000D03*
D30*
X57850000Y-10050000D03*
D28*
X58801000Y-10050000D03*
D29*
%TO.P,D16,2,A*%
%TO.N,Net-(D16-Pad2)*%
X55925000Y-10050000D03*
D30*
X56450000Y-10050000D03*
D28*
X55499000Y-10050000D03*
%TD*%
D29*
%TO.P,D15,1,K*%
%TO.N,ROW1*%
X58375000Y9000000D03*
D30*
X57850000Y9000000D03*
D28*
X58801000Y9000000D03*
D29*
%TO.P,D15,2,A*%
%TO.N,Net-(D15-Pad2)*%
X55925000Y9000000D03*
D30*
X56450000Y9000000D03*
D28*
X55499000Y9000000D03*
%TD*%
D29*
%TO.P,D14,1,K*%
%TO.N,ROW4*%
X39325000Y-50150000D03*
D30*
X38800000Y-50150000D03*
D28*
X39751000Y-50150000D03*
D29*
%TO.P,D14,2,A*%
%TO.N,Net-(D14-Pad2)*%
X36875000Y-50150000D03*
D30*
X37400000Y-50150000D03*
D28*
X36449000Y-50150000D03*
%TD*%
D29*
%TO.P,D13,1,K*%
%TO.N,ROW3*%
X39325000Y-31100000D03*
D30*
X38800000Y-31100000D03*
D28*
X39751000Y-31100000D03*
D29*
%TO.P,D13,2,A*%
%TO.N,Net-(D13-Pad2)*%
X36875000Y-31100000D03*
D30*
X37400000Y-31100000D03*
D28*
X36449000Y-31100000D03*
%TD*%
D29*
%TO.P,D12,1,K*%
%TO.N,ROW2*%
X39324999Y-12050000D03*
D30*
X38799999Y-12050000D03*
D28*
X39750999Y-12050000D03*
D29*
%TO.P,D12,2,A*%
%TO.N,Net-(D12-Pad2)*%
X36874999Y-12050000D03*
D30*
X37399999Y-12050000D03*
D28*
X36448999Y-12050000D03*
%TD*%
D29*
%TO.P,D11,1,K*%
%TO.N,ROW1*%
X39325000Y7000000D03*
D30*
X38800000Y7000000D03*
D28*
X39751000Y7000000D03*
D29*
%TO.P,D11,2,A*%
%TO.N,Net-(D11-Pad2)*%
X36875000Y7000000D03*
D30*
X37400000Y7000000D03*
D28*
X36449000Y7000000D03*
%TD*%
D29*
%TO.P,D10,1,K*%
%TO.N,ROW4*%
X20275000Y-55150000D03*
D30*
X19750000Y-55150000D03*
D28*
X20701000Y-55150000D03*
D29*
%TO.P,D10,2,A*%
%TO.N,Net-(D10-Pad2)*%
X17825000Y-55150000D03*
D30*
X18350000Y-55150000D03*
D28*
X17399000Y-55150000D03*
%TD*%
D29*
%TO.P,D9,1,K*%
%TO.N,ROW3*%
X20275000Y-36100001D03*
D30*
X19750000Y-36100001D03*
D28*
X20701000Y-36100001D03*
D29*
%TO.P,D9,2,A*%
%TO.N,Net-(D9-Pad2)*%
X17825000Y-36100001D03*
D30*
X18350000Y-36100001D03*
D28*
X17399000Y-36100001D03*
%TD*%
D29*
%TO.P,D8,1,K*%
%TO.N,ROW2*%
X20275000Y-17050001D03*
D30*
X19750000Y-17050001D03*
D28*
X20701000Y-17050001D03*
D29*
%TO.P,D8,2,A*%
%TO.N,Net-(D8-Pad2)*%
X17825000Y-17050001D03*
D30*
X18350000Y-17050001D03*
D28*
X17399000Y-17050001D03*
%TD*%
D29*
%TO.P,D7,1,K*%
%TO.N,ROW1*%
X20275000Y2000000D03*
D30*
X19750000Y2000000D03*
D28*
X20701000Y2000000D03*
D29*
%TO.P,D7,2,A*%
%TO.N,Net-(D7-Pad2)*%
X17825000Y2000000D03*
D30*
X18350000Y2000000D03*
D28*
X17399000Y2000000D03*
%TD*%
D29*
%TO.P,D6,1,K*%
%TO.N,ROW4*%
X1225000Y-55150000D03*
D30*
X700000Y-55150000D03*
D28*
X1651000Y-55150000D03*
D29*
%TO.P,D6,2,A*%
%TO.N,Net-(D6-Pad2)*%
X-1225000Y-55150000D03*
D30*
X-700000Y-55150000D03*
D28*
X-1651000Y-55150000D03*
%TD*%
D29*
%TO.P,D5,1,K*%
%TO.N,ROW3*%
X1225001Y-36100000D03*
D30*
X700001Y-36100000D03*
D28*
X1651001Y-36100000D03*
D29*
%TO.P,D5,2,A*%
%TO.N,Net-(D5-Pad2)*%
X-1224999Y-36100000D03*
D30*
X-699999Y-36100000D03*
D28*
X-1650999Y-36100000D03*
%TD*%
D29*
%TO.P,D4,1,K*%
%TO.N,ROW2*%
X1225000Y-17050000D03*
D30*
X700000Y-17050000D03*
D28*
X1651000Y-17050000D03*
D29*
%TO.P,D4,2,A*%
%TO.N,Net-(D4-Pad2)*%
X-1225000Y-17050000D03*
D30*
X-700000Y-17050000D03*
D28*
X-1651000Y-17050000D03*
%TD*%
D29*
%TO.P,D3,1,K*%
%TO.N,ROW1*%
X1225000Y2000000D03*
D30*
X700000Y2000000D03*
D28*
X1651000Y2000000D03*
D29*
%TO.P,D3,2,A*%
%TO.N,Net-(D3-Pad2)*%
X-1225000Y2000000D03*
D30*
X-700000Y2000000D03*
D28*
X-1651000Y2000000D03*
%TD*%
D31*
%TO.P,D1,1,K*%
%TO.N,Net-(D1-Pad1)*%
X119625000Y-18705000D03*
%TO.P,D1,2,A*%
%TO.N,VDDH*%
X116825000Y-18705000D03*
%TD*%
D32*
%TO.P,L1,1*%
%TO.N,DCCH*%
X108390000Y-4050000D03*
%TO.P,L1,2*%
%TO.N,VDD*%
X109360000Y-4050000D03*
%TD*%
D33*
%TO.P,FB1,1*%
%TO.N,Net-(F2-Pad2)*%
X112425000Y-18370000D03*
%TO.P,FB1,2*%
%TO.N,+5V*%
X112425000Y-19340000D03*
%TD*%
D34*
%TO.P,C4,1*%
%TO.N,VDDH*%
X109970000Y-23650000D03*
%TO.P,C4,2*%
%TO.N,GND*%
X110930000Y-23650000D03*
%TD*%
D35*
%TO.P,R13,1*%
%TO.N,GND*%
X107475000Y-47615001D03*
%TO.P,R13,2*%
%TO.N,Net-(Q2-Pad1)*%
X107475000Y-48635001D03*
%TD*%
D36*
%TO.P,F2,1*%
%TO.N,VBUS*%
X112425000Y-15712500D03*
%TO.P,F2,2*%
%TO.N,Net-(F2-Pad2)*%
X112425000Y-17287500D03*
%TD*%
D37*
%TO.P,U3,1,IO1*%
%TO.N,unconnected-(U3-Pad1)*%
X109525000Y-11800000D03*
%TO.P,U3,2,VN*%
%TO.N,GND*%
X110475000Y-11800000D03*
%TO.P,U3,3,IO2*%
%TO.N,D-*%
X111425000Y-11800000D03*
%TO.P,U3,4,IO3*%
%TO.N,D+*%
X111425000Y-14150000D03*
%TO.P,U3,5,VP*%
%TO.N,+5V*%
X110475000Y-14150000D03*
%TO.P,U3,6,IO4*%
%TO.N,unconnected-(U3-Pad6)*%
X109525000Y-14150000D03*
%TD*%
D38*
%TO.P,R6,1*%
%TO.N,GND*%
X113485000Y-29225000D03*
%TO.P,R6,2*%
%TO.N,/Power Management/TS*%
X112465000Y-29225000D03*
%TD*%
%TO.P,R3,1*%
%TO.N,GND*%
X115335000Y-26725000D03*
%TO.P,R3,2*%
%TO.N,/Power Management/TMR*%
X114315000Y-26725000D03*
%TD*%
%TO.P,R5,1*%
%TO.N,Net-(R5-Pad1)*%
X113485000Y-30525000D03*
%TO.P,R5,2*%
%TO.N,VBAT*%
X112465000Y-30525000D03*
%TD*%
D39*
%TO.P,C6,1*%
%TO.N,VBAT*%
X109955000Y-30565000D03*
%TO.P,C6,2*%
%TO.N,GND*%
X108995000Y-30565000D03*
%TD*%
D40*
%TO.P,R1,1*%
%TO.N,+5V*%
X114090000Y-21475001D03*
%TO.P,R1,2*%
%TO.N,Net-(Q1-Pad1)*%
X115110000Y-21475001D03*
%TD*%
D36*
%TO.P,F1,1*%
%TO.N,VBAT*%
X109950001Y-31712500D03*
%TO.P,F1,2*%
%TO.N,+BATT*%
X109950001Y-33287500D03*
%TD*%
D34*
%TO.P,C5,1*%
%TO.N,VDDH*%
X109970000Y-22650000D03*
%TO.P,C5,2*%
%TO.N,GND*%
X110930000Y-22650000D03*
%TD*%
D41*
%TO.P,R7,1*%
%TO.N,/Power Management/CHG*%
X107700000Y-25310000D03*
%TO.P,R7,2*%
%TO.N,Net-(D1-Pad1)*%
X107700000Y-24290000D03*
%TD*%
%TO.P,R10,1*%
%TO.N,EXT_PWR_EN*%
X107475000Y-50635000D03*
%TO.P,R10,2*%
%TO.N,Net-(Q2-Pad1)*%
X107475000Y-49615000D03*
%TD*%
D42*
%TO.P,Q1,1,G*%
%TO.N,Net-(Q1-Pad1)*%
X114650000Y-22987500D03*
%TO.P,Q1,2,S*%
%TO.N,GND*%
X116550000Y-22987500D03*
%TO.P,Q1,3,D*%
%TO.N,/Power Management/SYSOFF*%
X115600000Y-24862500D03*
%TD*%
D38*
%TO.P,R4,1*%
%TO.N,GND*%
X113485000Y-28225000D03*
%TO.P,R4,2*%
%TO.N,/Power Management/ISET*%
X112465000Y-28225000D03*
%TD*%
D43*
%TO.P,U1,1,TS*%
%TO.N,/Power Management/TS*%
X110675000Y-28412500D03*
%TO.P,U1,2,BAT*%
%TO.N,VBAT*%
X110175000Y-28412500D03*
%TO.P,U1,3,BAT*%
X109675000Y-28412500D03*
%TO.P,U1,4,~{CE}*%
%TO.N,GND*%
X109175000Y-28412500D03*
D44*
%TO.P,U1,5,EN2*%
X108487500Y-27725000D03*
%TO.P,U1,6,EN1*%
%TO.N,VDDH*%
X108487500Y-27225000D03*
%TO.P,U1,7,~{PGOOD}*%
%TO.N,unconnected-(U1-Pad7)*%
X108487500Y-26725000D03*
%TO.P,U1,8,VSS*%
%TO.N,GND*%
X108487500Y-26225000D03*
D43*
%TO.P,U1,9,~{CHG}*%
%TO.N,/Power Management/CHG*%
X109175000Y-25537500D03*
%TO.P,U1,10,OUT*%
%TO.N,VDDH*%
X109675000Y-25537500D03*
%TO.P,U1,11,OUT*%
X110175000Y-25537500D03*
%TO.P,U1,12,ILIM*%
%TO.N,unconnected-(U1-Pad12)*%
X110675000Y-25537500D03*
D44*
%TO.P,U1,13,IN*%
%TO.N,+5V*%
X111362500Y-26225000D03*
%TO.P,U1,14,TMR*%
%TO.N,/Power Management/TMR*%
X111362500Y-26725000D03*
%TO.P,U1,15,SYSOFF*%
%TO.N,/Power Management/SYSOFF*%
X111362500Y-27225000D03*
%TO.P,U1,16,ISET*%
%TO.N,/Power Management/ISET*%
X111362500Y-27725000D03*
D45*
%TO.P,U1,17,VSS*%
%TO.N,GND*%
X109925000Y-26975000D03*
%TD*%
D39*
%TO.P,C7,1*%
%TO.N,VBAT*%
X109955000Y-29565000D03*
%TO.P,C7,2*%
%TO.N,GND*%
X108995000Y-29565000D03*
%TD*%
D46*
%TO.P,C8,1*%
%TO.N,GND*%
X111000000Y-18370000D03*
%TO.P,C8,2*%
%TO.N,+5V*%
X111000000Y-19330000D03*
%TD*%
D39*
%TO.P,C2,1*%
%TO.N,GND*%
X113480000Y-25600000D03*
%TO.P,C2,2*%
%TO.N,+5V*%
X112520000Y-25600000D03*
%TD*%
D47*
%TO.P,Q3,1,G*%
%TO.N,Net-(Q2-Pad3)*%
X108937500Y-46100000D03*
%TO.P,Q3,2,S*%
%TO.N,VDDH*%
X108937500Y-44200000D03*
%TO.P,Q3,3,D*%
%TO.N,EXT_PWR*%
X110812500Y-45150000D03*
%TD*%
D46*
%TO.P,C9,1*%
%TO.N,GND*%
X110050000Y-18370000D03*
%TO.P,C9,2*%
%TO.N,+5V*%
X110050000Y-19330000D03*
%TD*%
D34*
%TO.P,C1,1*%
%TO.N,+5V*%
X112520000Y-24550000D03*
%TO.P,C1,2*%
%TO.N,GND*%
X113480000Y-24550000D03*
%TD*%
D35*
%TO.P,R8,1*%
%TO.N,GND*%
X111425000Y-9340000D03*
%TO.P,R8,2*%
%TO.N,/USB-C/CC2*%
X111425000Y-10360000D03*
%TD*%
D41*
%TO.P,R14,1*%
%TO.N,Net-(Q2-Pad3)*%
X107425000Y-45635000D03*
%TO.P,R14,2*%
%TO.N,VDDH*%
X107425000Y-44615000D03*
%TD*%
D38*
%TO.P,R2,1*%
%TO.N,GND*%
X117110000Y-21474999D03*
%TO.P,R2,2*%
%TO.N,Net-(Q1-Pad1)*%
X116090000Y-21474999D03*
%TD*%
D46*
%TO.P,C10,1*%
%TO.N,VDD*%
X109375000Y-4970000D03*
%TO.P,C10,2*%
%TO.N,GND*%
X109375000Y-5930000D03*
%TD*%
D35*
%TO.P,R9,1*%
%TO.N,/USB-C/CC1*%
X111000000Y-16315000D03*
%TO.P,R9,2*%
%TO.N,GND*%
X111000000Y-17335000D03*
%TD*%
D47*
%TO.P,Q2,1,G*%
%TO.N,Net-(Q2-Pad1)*%
X108937500Y-49525000D03*
%TO.P,Q2,2,S*%
%TO.N,GND*%
X108937500Y-47625000D03*
%TO.P,Q2,3,D*%
%TO.N,Net-(Q2-Pad3)*%
X110812500Y-48575000D03*
%TD*%
D48*
%TO.P,C3,1*%
%TO.N,+BATT*%
X117050000Y-5300000D03*
%TO.P,C3,2*%
%TO.N,GND*%
X117050000Y-4340000D03*
%TD*%
D49*
%TO.P,U2,1,CTG*%
%TO.N,GND*%
X115937500Y-4550000D03*
%TO.P,U2,2,CELL*%
%TO.N,+BATT*%
X115937500Y-5050000D03*
%TO.P,U2,3,VDD*%
X115937500Y-5550000D03*
%TO.P,U2,4,GND*%
%TO.N,GND*%
X115937500Y-6050000D03*
%TO.P,U2,5,ALERT*%
%TO.N,ALERT*%
X113962500Y-6050000D03*
%TO.P,U2,6,QSTRT*%
%TO.N,GND*%
X113962500Y-5550000D03*
%TO.P,U2,7,SCL*%
%TO.N,SCL*%
X113962500Y-5050000D03*
%TO.P,U2,8,SDA*%
%TO.N,SDA*%
X113962500Y-4550000D03*
D50*
%TO.P,U2,9,GND*%
%TO.N,GND*%
X114950000Y-5300000D03*
%TD*%
D51*
%TO.N,+5V*%
X107575000Y-5675000D03*
X108875000Y-19005000D03*
%TO.N,GND*%
X119525000Y-33725000D03*
X116195024Y-12452621D03*
X117975000Y-3575000D03*
X103800000Y4200000D03*
X110050000Y-5750000D03*
X105323313Y8151476D03*
X108865334Y-23650500D03*
X110950000Y-9349999D03*
X110475000Y-10855000D03*
X116107577Y8328511D03*
X111650000Y-1399045D03*
X117772555Y-14336161D03*
X119525000Y-41225000D03*
X119625000Y8925000D03*
X117699999Y-4500000D03*
X100397491Y6850500D03*
X112550000Y4650000D03*
X111468833Y7296096D03*
X113300000Y4650000D03*
X116550000Y-24200000D03*
X108218245Y-532481D03*
X115249503Y-1400000D03*
X113750000Y-25050000D03*
X113525000Y-16375000D03*
X110733648Y5628834D03*
X112150000Y3975000D03*
X112550000Y3300000D03*
X118536805Y-30162342D03*
X119174503Y-27475000D03*
X105329178Y9358104D03*
X110000006Y4514244D03*
X115125000Y-27475000D03*
X116134178Y-30516703D03*
X107676380Y-26231787D03*
X110386120Y6261702D03*
X108925000Y-48275000D03*
X111400000Y3975000D03*
X110749503Y-21600000D03*
X116405377Y-13585378D03*
X110822361Y6916373D03*
X109343438Y4855886D03*
X102355795Y4941892D03*
X110525000Y-17850000D03*
X112925000Y3975000D03*
X108343741Y-5455361D03*
X108356827Y-19613853D03*
X111256092Y-4375631D03*
X113300000Y3300000D03*
X111300000Y-23150000D03*
X112834667Y6584667D03*
X117495337Y-20194603D03*
X108625000Y-30065000D03*
X107525000Y-3575000D03*
X108600000Y4350497D03*
X118074500Y-25225000D03*
X113700000Y3975000D03*
X118899500Y-6150000D03*
X112975000Y-9225000D03*
X113875000Y-28725001D03*
%TO.N,+BATT*%
X116822447Y-6160495D03*
%TO.N,VBUS*%
X117175000Y-13805000D03*
%TO.N,ROW2*%
X103150000Y4850000D03*
%TO.N,ROW3*%
X104365333Y3634668D03*
%TO.N,COL1*%
X110787944Y7715135D03*
%TO.N,COL2*%
X110025000Y6975000D03*
%TO.N,COL3*%
X109998853Y5313746D03*
%TO.N,COL4*%
X108600000Y5150000D03*
%TO.N,COL5*%
X101150000Y7150000D03*
%TO.N,SDA*%
X114450000Y-1399999D03*
%TO.N,SWDIO*%
X105925000Y7625000D03*
%TO.N,SWDCLK*%
X105925000Y8825000D03*
%TO.N,VDDH*%
X116800000Y-19800000D03*
X109950000Y-21600000D03*
X109000000Y-700000D03*
%TO.N,/USB-C/CC2*%
X112075000Y-10375000D03*
%TO.N,/USB-C/CC1*%
X111000000Y-15700000D03*
%TO.N,/Power Management/SYSOFF*%
X118375000Y-27475000D03*
%TO.N,VDD*%
X113400000Y7150000D03*
X115600000Y1300000D03*
%TO.N,RESET*%
X111450000Y-3600000D03*
X117000000Y-40100000D03*
%TO.N,SCL*%
X112450000Y-1400000D03*
%TO.N,LED_MOSI*%
X108500000Y3250000D03*
%TO.N,Net-(R5-Pad1)*%
X115825500Y-29725000D03*
%TO.N,D+*%
X112586320Y-13338500D03*
%TO.N,D-*%
X112586320Y-12611997D03*
%TO.N,Net-(D1-Pad1)*%
X108300000Y-24250000D03*
X119075000Y-21625000D03*
%TD*%
D52*
%TO.N,+5V*%
X112415000Y-19330000D02*
X112425000Y-19340000D01*
D53*
X106775000Y-1725000D02*
X106775000Y-4875000D01*
D52*
X112520000Y-20895000D02*
X113100000Y-21475000D01*
D53*
X108875000Y-16605000D02*
X110475000Y-15005000D01*
D54*
X111362500Y-26225000D02*
X111895000Y-26225000D01*
D53*
X108875000Y-19005000D02*
X108875000Y-16605000D01*
D54*
X111895000Y-26225000D02*
X112520001Y-25600000D01*
D53*
X110475000Y-15005000D02*
X110475000Y-14150000D01*
D52*
X112520000Y-20850000D02*
X112520000Y-20895000D01*
D53*
X107025000Y-1475000D02*
X106775000Y-1725000D01*
D52*
X113100000Y-21475000D02*
X114090001Y-21475000D01*
D55*
X110050000Y-19330000D02*
X109200000Y-19329999D01*
D53*
X106775000Y-4875000D02*
X107575000Y-5675000D01*
D52*
X112520000Y-24550000D02*
X112520001Y-25600000D01*
X111000000Y-19330000D02*
X112520000Y-20850000D01*
X112520000Y-20850000D02*
X112520000Y-24550000D01*
D55*
X109200000Y-19329999D02*
X108875000Y-19005000D01*
D52*
X111000000Y-19330000D02*
X110050000Y-19330000D01*
X111000000Y-19330000D02*
X112415000Y-19330000D01*
%TO.N,GND*%
X117640000Y-4340000D02*
X117050000Y-4340000D01*
D56*
X116550000Y-24200000D02*
X116550000Y-24850000D01*
X116550000Y-24850000D02*
X116925000Y-25225000D01*
D57*
X111300000Y-23150000D02*
X111300000Y-23020000D01*
D58*
X119525000Y-41225000D02*
X119525000Y-40100000D01*
D52*
X117700000Y-4400000D02*
X117640000Y-4340000D01*
D57*
X108937500Y-48262500D02*
X108925000Y-48275000D01*
D54*
X107676380Y-26231787D02*
X107683168Y-26225000D01*
X107683168Y-26225000D02*
X108487500Y-26225000D01*
D52*
X113750000Y-25050000D02*
X113749999Y-24820000D01*
D59*
X110960000Y-9340000D02*
X111425000Y-9340000D01*
D57*
X111300000Y-23020000D02*
X110930000Y-22650000D01*
D53*
X110050000Y-5750000D02*
X109869999Y-5930000D01*
D58*
X119525000Y-34850000D02*
X119525000Y-33725000D01*
D57*
X113875000Y-28615000D02*
X113485000Y-28225000D01*
X108937500Y-47625000D02*
X107485000Y-47624999D01*
X115125000Y-27475000D02*
X115335000Y-27265000D01*
D52*
X117699999Y-4500000D02*
X117700000Y-4400000D01*
D57*
X108937500Y-47625000D02*
X108937500Y-48262500D01*
D52*
X108625000Y-30195000D02*
X108995000Y-30565000D01*
D56*
X116550000Y-22987500D02*
X117110000Y-22427500D01*
D59*
X110950000Y-9349999D02*
X110960000Y-9340000D01*
D57*
X107485000Y-47624999D02*
X107475000Y-47615000D01*
D56*
X116550000Y-24200000D02*
X116550000Y-22987500D01*
D52*
X108625000Y-30065000D02*
X108625000Y-29935000D01*
X113750000Y-25330000D02*
X113480000Y-25600000D01*
D53*
X117975000Y-2675000D02*
X117975000Y-3575000D01*
D52*
X113749999Y-24820000D02*
X113480000Y-24550000D01*
D54*
X109175000Y-28412500D02*
X109175000Y-29115000D01*
X115937500Y-6050000D02*
X115502672Y-6050000D01*
D52*
X108625000Y-29935000D02*
X108995001Y-29565000D01*
D54*
X108487500Y-27725000D02*
X109175000Y-27725000D01*
D53*
X107575000Y-3525000D02*
X107575000Y-2675000D01*
D54*
X115937500Y-4550000D02*
X116840000Y-4550000D01*
X109175000Y-28412500D02*
X109175000Y-27725000D01*
X116840000Y-4550000D02*
X117050000Y-4340000D01*
D57*
X111300000Y-23150000D02*
X111300000Y-23280001D01*
D54*
X109175000Y-27725000D02*
X109925000Y-26975000D01*
D57*
X111300000Y-23280001D02*
X110930000Y-23650000D01*
D54*
X114950000Y-5102671D02*
X115502673Y-4550000D01*
D53*
X107525000Y-3575000D02*
X107575000Y-3525000D01*
D54*
X113962500Y-5550000D02*
X114700000Y-5550000D01*
X115502672Y-6050000D02*
X114950000Y-5497328D01*
D57*
X115335000Y-27265000D02*
X115335000Y-26725000D01*
D52*
X113750000Y-25050000D02*
X113750000Y-25330000D01*
D60*
X113525000Y-16375000D02*
X113530000Y-16375000D01*
D54*
X108995000Y-29295000D02*
X108995001Y-29565000D01*
D56*
X118074500Y-25225000D02*
X117295000Y-25225000D01*
D52*
X108625000Y-30065000D02*
X108625000Y-30195000D01*
D57*
X113875000Y-28725001D02*
X113875000Y-28615000D01*
D60*
X112975000Y-9225000D02*
X114180000Y-9225000D01*
X113530000Y-16375000D02*
X114180000Y-15725000D01*
D56*
X117110000Y-22427500D02*
X117110000Y-21475000D01*
D57*
X113875000Y-28835000D02*
X113485000Y-29225000D01*
D53*
X109869999Y-5930000D02*
X109375000Y-5930000D01*
D60*
X110475000Y-10855000D02*
X110475000Y-11800000D01*
D53*
X118375000Y8924999D02*
X119625000Y8925000D01*
D54*
X115502673Y-4550000D02*
X115937500Y-4550000D01*
D57*
X113875000Y-28725001D02*
X113875000Y-28835000D01*
D54*
X109175000Y-29115000D02*
X108995000Y-29295000D01*
%TO.N,+BATT*%
X115937500Y-5550000D02*
X116800000Y-5550000D01*
X116800000Y-5050000D02*
X117050000Y-5300000D01*
X115937500Y-5050000D02*
X116800000Y-5050000D01*
D60*
X111775000Y-34600000D02*
X110800001Y-34600000D01*
X117050000Y-5932942D02*
X117050000Y-5300000D01*
X116822447Y-6160495D02*
X117050000Y-5932942D01*
X109950000Y-33750000D02*
X109950000Y-33287500D01*
X110800001Y-34600000D02*
X109950000Y-33750000D01*
D54*
X116800000Y-5550000D02*
X117050000Y-5300000D01*
D56*
%TO.N,VBUS*%
X114180000Y-10025000D02*
X114969661Y-10025001D01*
D59*
X112425000Y-15555000D02*
X113055000Y-14925000D01*
D56*
X115304182Y-10359521D02*
X116229521Y-10359521D01*
X114180000Y-14925000D02*
X114969661Y-14925000D01*
X114969661Y-10025001D02*
X115304182Y-10359521D01*
D59*
X113055000Y-14925000D02*
X114180000Y-14925000D01*
D56*
X117175000Y-11305000D02*
X117175000Y-13805000D01*
D59*
X112425000Y-15712500D02*
X112425000Y-15555000D01*
D56*
X116229521Y-10359521D02*
X117175000Y-11305000D01*
X114969661Y-14925000D02*
X115304182Y-14590479D01*
X116389521Y-14590479D02*
X117175000Y-13805000D01*
X115304182Y-14590479D02*
X116389521Y-14590479D01*
D61*
%TO.N,ROW1*%
X37900546Y7850000D02*
X31100000Y7850000D01*
X96901000Y5000000D02*
X99499999Y5000000D01*
X39751000Y7000000D02*
X42601001Y9850000D01*
X74900000Y9000000D02*
X76900000Y7000000D01*
X99499999Y5000000D02*
X100825000Y6325000D01*
X18900000Y2850000D02*
X2501000Y2850000D01*
X2501000Y2850000D02*
X1651000Y2000000D01*
X56899022Y9850000D02*
X57749022Y9000000D01*
X57749022Y9000000D02*
X74900000Y9000000D01*
X25250000Y2000000D02*
X20701000Y2000000D01*
X19750000Y2000000D02*
X18900000Y2850000D01*
X42601001Y9850000D02*
X56899022Y9850000D01*
X76900000Y7000000D02*
X93950000Y7000000D01*
X93950000Y7000000D02*
X95950000Y5000000D01*
X100825000Y6325000D02*
X107175000Y6325000D01*
X31100000Y7850000D02*
X25250000Y2000000D01*
X38750546Y7000000D02*
X37900546Y7850000D01*
%TO.N,ROW2*%
X26551000Y-11200000D02*
X20701000Y-17050000D01*
X103150000Y4850000D02*
X103325000Y5025000D01*
X103325000Y5025000D02*
X107175000Y5025000D01*
X1651000Y-17050000D02*
X2501000Y-16200000D01*
X38901000Y-11200000D02*
X26551000Y-11200000D01*
X94901000Y-12050000D02*
X96901000Y-14050000D01*
X39751000Y-12050000D02*
X42601000Y-9199999D01*
X2501000Y-16200000D02*
X19851000Y-16200000D01*
X39751000Y-12050000D02*
X38901000Y-11200000D01*
X42601000Y-9199999D02*
X57951000Y-9200000D01*
X57951000Y-9200000D02*
X58801000Y-10050000D01*
X58801000Y-10050000D02*
X75851000Y-10050000D01*
X75851000Y-10050000D02*
X77851000Y-12050000D01*
X77851000Y-12050000D02*
X94901000Y-12050000D01*
X19851000Y-16200000D02*
X20701000Y-17050000D01*
%TO.N,ROW3*%
X77851000Y-31100000D02*
X94901000Y-31100000D01*
X19851000Y-35250000D02*
X20701000Y-36100000D01*
X105105666Y4375000D02*
X107175000Y4375000D01*
X75851000Y-29100000D02*
X77851000Y-31100000D01*
X58801000Y-29100000D02*
X75851000Y-29100000D01*
X94901000Y-31100000D02*
X96901000Y-33100000D01*
X26551000Y-30250000D02*
X38901000Y-30250000D01*
X20701000Y-36100000D02*
X26551000Y-30250000D01*
X104365333Y3634668D02*
X105105666Y4375000D01*
X42601000Y-28250000D02*
X57951000Y-28250000D01*
X1651000Y-36100000D02*
X2501000Y-35250000D01*
X2501000Y-35250000D02*
X19851000Y-35250000D01*
X39751000Y-31100000D02*
X42601000Y-28250000D01*
X57951000Y-28250000D02*
X58801000Y-29100000D01*
X38901000Y-30250000D02*
X39751000Y-31100000D01*
%TO.N,ROW4*%
X96901000Y-52150001D02*
X94901000Y-50150000D01*
X19851000Y-54300001D02*
X20701000Y-55150000D01*
X26551000Y-49300000D02*
X38900999Y-49300000D01*
X39751000Y-50150000D02*
X42601000Y-47300000D01*
X77851000Y-50150000D02*
X75851000Y-48150000D01*
X2501000Y-54300000D02*
X19851000Y-54300001D01*
X75851000Y-48150000D02*
X58801000Y-48150000D01*
X94901000Y-50150000D02*
X77851000Y-50150000D01*
X57951000Y-47300000D02*
X58801000Y-48150000D01*
X103950000Y-45101000D02*
X103950000Y1635718D01*
X38900999Y-49300000D02*
X39751000Y-50150000D01*
X106039282Y3725000D02*
X107175000Y3725000D01*
X103950000Y1635718D02*
X106039282Y3725000D01*
X42601000Y-47300000D02*
X57951000Y-47300000D01*
X1651000Y-55150000D02*
X2501000Y-54300000D01*
X20701000Y-55150000D02*
X26551000Y-49300000D01*
X96901000Y-52150001D02*
X103950000Y-45101000D01*
%TO.N,ROW5*%
X104349520Y-69050480D02*
X104349520Y1399520D01*
X85376000Y-69200000D02*
X87376000Y-71200000D01*
X68326000Y-69200000D02*
X85376000Y-69200000D01*
X87376000Y-71200000D02*
X95907073Y-71200000D01*
X99337819Y-74062181D02*
X104349520Y-69050480D01*
X106025000Y3075000D02*
X107175000Y3075000D01*
X104349520Y1399520D02*
X106025000Y3075000D01*
X98769254Y-74062181D02*
X99337819Y-74062181D01*
X95907073Y-71200000D02*
X98769254Y-74062181D01*
%TO.N,COL1*%
X110697810Y7625000D02*
X108875000Y7625000D01*
X110787944Y7715135D02*
X110697810Y7625000D01*
%TO.N,COL2*%
X110025000Y6975000D02*
X108874999Y6975000D01*
%TO.N,COL3*%
X109475000Y6325000D02*
X108875000Y6325000D01*
X109998853Y5801147D02*
X109475000Y6325000D01*
X109998853Y5313746D02*
X109998853Y5801147D01*
%TO.N,COL4*%
X108600000Y5150000D02*
X108875000Y5425000D01*
X108875000Y5425000D02*
X108875000Y5675000D01*
%TO.N,COL5*%
X101325000Y6975000D02*
X107175000Y6975000D01*
X101150000Y7150000D02*
X101325000Y6975000D01*
%TO.N,COL6*%
X99060000Y-1540000D02*
X99060000Y3260000D01*
X97790000Y-4080000D02*
X97790000Y-23130000D01*
X101475000Y5675000D02*
X107175000Y5675000D01*
X97790000Y-23130000D02*
X97790000Y-42180000D01*
X99060000Y3260000D02*
X101475000Y5675000D01*
%TO.N,ALERT*%
X112125000Y-4647328D02*
X113527672Y-6050000D01*
X112125000Y-2675000D02*
X112125000Y-4647328D01*
X113527672Y-6050000D02*
X113962500Y-6050000D01*
D54*
%TO.N,SDA*%
X113425000Y-1950978D02*
X113425000Y-2675000D01*
D61*
X113425000Y-4125000D02*
X113425000Y-2675000D01*
D54*
X114450000Y-1399999D02*
X113975978Y-1400000D01*
X113975978Y-1400000D02*
X113425000Y-1950978D01*
D61*
X113850000Y-4550000D02*
X113425000Y-4125000D01*
%TO.N,SWDIO*%
X105925000Y7625000D02*
X107175000Y7625000D01*
%TO.N,SWDCLK*%
X106475000Y8275000D02*
X107175000Y8275000D01*
X105925000Y8825000D02*
X106475000Y8275000D01*
D57*
%TO.N,VDDH*%
X107675000Y-44615000D02*
X107425000Y-44615000D01*
D52*
X109950000Y-21600000D02*
X109950001Y-22630000D01*
D54*
X109675000Y-23945000D02*
X109970001Y-23650000D01*
D60*
X108937499Y-44200000D02*
X108090000Y-44200000D01*
D54*
X110175000Y-23855000D02*
X109970001Y-23650000D01*
D52*
X109969999Y-22650000D02*
X109970001Y-23650000D01*
X105950000Y-22850000D02*
X105950000Y-43140000D01*
X105950000Y-43140000D02*
X107425000Y-44615000D01*
D54*
X105950000Y-26450000D02*
X106725000Y-27225000D01*
D56*
X116800000Y-18730000D02*
X116825000Y-18705000D01*
D54*
X109675000Y-25537500D02*
X109675000Y-23945000D01*
D52*
X107550000Y-21250000D02*
X105950000Y-22850000D01*
D56*
X116800000Y-19800000D02*
X116800000Y-18730000D01*
D53*
X109000000Y-700000D02*
X108875000Y-825000D01*
D52*
X109600000Y-21249999D02*
X107550000Y-21250000D01*
D53*
X108875000Y-825000D02*
X108875000Y-2675000D01*
D54*
X110175000Y-25537499D02*
X110175000Y-23855000D01*
D52*
X109950001Y-22630000D02*
X109969999Y-22650000D01*
D57*
X108090000Y-44200000D02*
X107675000Y-44615000D01*
D52*
X109950000Y-21600000D02*
X109600000Y-21249999D01*
D54*
X106725000Y-27225000D02*
X108487501Y-27225000D01*
D52*
%TO.N,VBAT*%
X109955000Y-30565000D02*
X109955000Y-31707500D01*
X109955000Y-29565000D02*
X109955000Y-30565000D01*
X111277500Y-31712500D02*
X112465000Y-30525000D01*
D54*
X110175000Y-28412500D02*
X110175000Y-29345000D01*
X110175000Y-29345000D02*
X109955000Y-29565000D01*
X109675000Y-29285000D02*
X109675000Y-28412500D01*
D52*
X109950000Y-31712500D02*
X111277500Y-31712500D01*
X109955000Y-31707500D02*
X109950000Y-31712500D01*
D54*
X109955000Y-29565000D02*
X109675000Y-29285000D01*
%TO.N,/Power Management/CHG*%
X107927500Y-25537500D02*
X107700000Y-25310001D01*
X109174999Y-25537500D02*
X107927500Y-25537500D01*
D52*
%TO.N,Net-(F2-Pad2)*%
X112425000Y-17287500D02*
X112425000Y-18370000D01*
D54*
%TO.N,/USB-C/CC2*%
X112060000Y-10360000D02*
X111425001Y-10360000D01*
X112075000Y-10375000D02*
X112060000Y-10360000D01*
X113155978Y-11225000D02*
X114180000Y-11225000D01*
X112075000Y-10375000D02*
X112305978Y-10375000D01*
X112305978Y-10375000D02*
X113155978Y-11225000D01*
%TO.N,/USB-C/CC1*%
X111000000Y-15700000D02*
X111171072Y-15700000D01*
X112646072Y-14225000D02*
X114180000Y-14225000D01*
X111000000Y-15700000D02*
X111000000Y-16315000D01*
X111171072Y-15700000D02*
X112646072Y-14225000D01*
%TO.N,/Power Management/SYSOFF*%
X115600000Y-25600000D02*
X115600000Y-24862500D01*
X117625000Y-28225000D02*
X118375000Y-27475000D01*
X114645141Y-28225000D02*
X116950000Y-28225000D01*
X116950000Y-26950000D02*
X115600000Y-25600000D01*
X116950000Y-28225000D02*
X116950000Y-26950000D01*
X111362500Y-27225000D02*
X113645141Y-27225000D01*
X113645141Y-27225000D02*
X114645141Y-28225000D01*
%TO.N,/Power Management/TMR*%
X111362500Y-26725000D02*
X114315000Y-26725000D01*
%TO.N,/Power Management/ISET*%
X111362500Y-27725000D02*
X111965000Y-27725000D01*
X111965000Y-27725000D02*
X112465000Y-28225001D01*
%TO.N,/Power Management/TS*%
X110675000Y-28825000D02*
X111075000Y-29225000D01*
X111075000Y-29225000D02*
X112465000Y-29225000D01*
X110675000Y-28412500D02*
X110675000Y-28825000D01*
D53*
%TO.N,VDD*%
X109525000Y-1937989D02*
X109525000Y-2675000D01*
X114850000Y550000D02*
X112012989Y550000D01*
X113400000Y7150000D02*
X114799022Y7150000D01*
X115600000Y1300000D02*
X114850000Y550000D01*
X112012989Y550000D02*
X109525000Y-1937989D01*
X114799022Y7150000D02*
X115600000Y6349022D01*
X115600000Y6349022D02*
X115600000Y1300000D01*
X109525000Y-3885000D02*
X109359999Y-4050000D01*
X109525000Y-2675000D02*
X109525000Y-3885000D01*
D56*
X109375000Y-3940000D02*
X109375000Y-4970000D01*
%TO.N,Net-(Q1-Pad1)*%
X115110000Y-22527500D02*
X115110000Y-21475000D01*
X114650000Y-22987500D02*
X115110000Y-22527500D01*
D59*
X115110000Y-21475000D02*
X116090000Y-21475000D01*
D54*
%TO.N,RESET*%
X118200000Y-39725000D02*
X118200000Y-35225000D01*
X117825000Y-40100000D02*
X117000000Y-40100000D01*
D61*
X111475000Y-3575000D02*
X111474999Y-2675000D01*
X111450000Y-3600000D02*
X111475000Y-3575000D01*
%TO.N,SCL*%
X113962500Y-5050000D02*
X113400000Y-5050000D01*
D54*
X112775000Y-1725000D02*
X112775000Y-2675000D01*
D61*
X112775000Y-4425000D02*
X112775000Y-2675000D01*
X113400000Y-5050000D02*
X112775000Y-4425000D01*
D54*
X112450000Y-1400000D02*
X112775000Y-1725000D01*
D53*
%TO.N,DCCH*%
X108225000Y-2674999D02*
X108225000Y-3885000D01*
X108225000Y-3885000D02*
X108390000Y-4050000D01*
D61*
%TO.N,LED_MOSI*%
X107175000Y2425000D02*
X107675000Y2425000D01*
X107675000Y2425000D02*
X108500000Y3250000D01*
D54*
%TO.N,Net-(R5-Pad1)*%
X116025533Y-29725000D02*
X117295000Y-29725000D01*
X114700000Y-30525000D02*
X115500338Y-29724662D01*
D61*
X115825500Y-29725000D02*
X116950000Y-29725000D01*
D54*
X115500338Y-29724662D02*
X115976651Y-29724662D01*
X113485000Y-30525001D02*
X114700000Y-30525000D01*
D62*
%TO.N,D+*%
X105717740Y-896976D02*
X106439716Y-175000D01*
X114180000Y-13225000D02*
X113092499Y-13224999D01*
X112236500Y-13338500D02*
X111425000Y-14150000D01*
X107453952Y-12153952D02*
X107453952Y-12140890D01*
X111425000Y-13835224D02*
X110730666Y-13140890D01*
X115013762Y-12225000D02*
X114180000Y-12225000D01*
X105717740Y-10404678D02*
X105717740Y-896976D01*
X112586320Y-13338500D02*
X112236500Y-13338500D01*
X108440890Y-13140890D02*
X107453952Y-12153952D01*
X113008869Y-13141370D02*
X112783450Y-13141370D01*
X106439716Y-175000D02*
X107175000Y-175000D01*
X115134381Y-13201359D02*
X115134381Y-12345619D01*
X115134381Y-12345619D02*
X115013762Y-12225000D01*
X113092499Y-13224999D02*
X113008869Y-13141370D01*
X115110741Y-13225000D02*
X115134381Y-13201359D01*
X112783450Y-13141370D02*
X112586320Y-13338500D01*
X110730666Y-13140890D02*
X108440890Y-13140890D01*
X107453952Y-12140890D02*
X105717740Y-10404678D01*
X114180000Y-13225000D02*
X115110741Y-13225000D01*
%TO.N,D-*%
X111425000Y-12114776D02*
X110731146Y-12808630D01*
X113008869Y-12808630D02*
X113092499Y-12725000D01*
X106275000Y-825000D02*
X106800000Y-825000D01*
X113092499Y-12725000D02*
X114180000Y-12725000D01*
X113225619Y-11824381D02*
X113325000Y-11725000D01*
X106050000Y-1050000D02*
X106275000Y-825000D01*
X114180000Y-12725000D02*
X113249260Y-12725000D01*
X112782953Y-12808630D02*
X113008869Y-12808630D01*
X108591578Y-12808630D02*
X106050000Y-10267052D01*
X113225619Y-12701359D02*
X113225619Y-11824381D01*
X112236997Y-12611997D02*
X111425000Y-11800000D01*
X106050000Y-10267052D02*
X106050000Y-1050000D01*
X113249260Y-12725000D02*
X113225619Y-12701359D01*
X110731146Y-12808630D02*
X108591578Y-12808630D01*
X112586320Y-12611997D02*
X112782953Y-12808630D01*
X113325000Y-11725000D02*
X114180000Y-11725000D01*
X112586320Y-12611997D02*
X112236997Y-12611997D01*
D61*
%TO.N,Net-(D1-Pad1)*%
X119625000Y-18705000D02*
X119625000Y-21075000D01*
X119625000Y-21075000D02*
X119075000Y-21625000D01*
X108300000Y-24250000D02*
X108260001Y-24290000D01*
X108260001Y-24290000D02*
X107700000Y-24290000D01*
D60*
%TO.N,EXT_PWR*%
X110812500Y-45150000D02*
X112800000Y-45150000D01*
D57*
%TO.N,Net-(Q2-Pad1)*%
X107565000Y-49525000D02*
X107475000Y-49615000D01*
X108937500Y-49525000D02*
X107565000Y-49525000D01*
X107475000Y-49615000D02*
X107474999Y-48635000D01*
D60*
%TO.N,Net-(Q2-Pad3)*%
X109800000Y-46100000D02*
X108937500Y-46100000D01*
D57*
X107890000Y-46100000D02*
X107425000Y-45635000D01*
X108937500Y-46100000D02*
X107890000Y-46100000D01*
D60*
X110812500Y-48575000D02*
X110812500Y-47112500D01*
X110812500Y-47112500D02*
X109800000Y-46100000D01*
D61*
%TO.N,EXT_PWR_EN*%
X105000000Y274022D02*
X106500978Y1775000D01*
X106500978Y1775000D02*
X107175000Y1775000D01*
X106835000Y-50635000D02*
X105000000Y-48800000D01*
X107475001Y-50635000D02*
X106835000Y-50635000D01*
X105000000Y-48800000D02*
X105000000Y274022D01*
%TD*%
%TA.AperFunction,Conductor*%
%TO.N,GND*%
G36*
X114917121Y6304999D02*
G01*
X114963614Y6251343D01*
X114975000Y6199001D01*
X114975000Y1801000D01*
X114954998Y1732879D01*
X114901342Y1686386D01*
X114849000Y1675000D01*
X111001000Y1675000D01*
X110932879Y1695002D01*
X110886386Y1748658D01*
X110875000Y1801000D01*
X110875000Y6198999D01*
X110895002Y6267120D01*
X110948658Y6313613D01*
X111001000Y6324999D01*
X114849000Y6325001D01*
X114917121Y6304999D01*
G37*
%TD.AperFunction*%
%TD*%
%TA.AperFunction,Conductor*%
%TO.N,GND*%
G36*
X111259437Y-17062744D02*
G01*
X111305930Y-17116400D01*
X111317316Y-17168742D01*
X111317316Y-18579000D01*
X111297314Y-18647121D01*
X111243658Y-18693614D01*
X111191316Y-18705000D01*
X109863743Y-18705000D01*
X109795622Y-18684998D01*
X109749129Y-18631342D01*
X109737743Y-18579000D01*
X109737743Y-17168742D01*
X109757745Y-17100621D01*
X109811401Y-17054128D01*
X109863743Y-17042742D01*
X111191316Y-17042742D01*
X111259437Y-17062744D01*
G37*
%TD.AperFunction*%
%TD*%
M02*
