%TF.GenerationSoftware,KiCad,Pcbnew,(6.0.4)*%
%TF.CreationDate,2022-08-07T10:29:28-07:00*%
%TF.ProjectId,Conejo,436f6e65-6a6f-42e6-9b69-6361645f7063,v1.0.0*%
%TF.SameCoordinates,Original*%
%TF.FileFunction,Legend,Top*%
%TF.FilePolarity,Positive*%
%FSLAX46Y46*%
G04 Gerber Fmt 4.6, Leading zero omitted, Abs format (unit mm)*
G04 Created by KiCad (PCBNEW (6.0.4)) date 2022-08-07 10:29:28*
%MOMM*%
%LPD*%
G01*
G04 APERTURE LIST*
%TA.AperFunction,Profile*%
%ADD10C,0.150000*%
%TD*%
%ADD11C,0.150000*%
%ADD12C,0.200000*%
%ADD13C,0.250000*%
%ADD14C,0.120000*%
G04 APERTURE END LIST*
D10*
X85725000Y13525000D02*
X85725000Y11525000D01*
X93101679Y-93260414D02*
X76199999Y-84725000D01*
X57150000Y-69675000D02*
G75*
G03*
X56150001Y-68675000I-1000000J0D01*
G01*
X29575000Y12528800D02*
X46625000Y12525000D01*
X56150001Y-68675000D02*
X-8525000Y-68674999D01*
X48625000Y14525000D02*
G75*
G03*
X47625000Y13525000I0J-1000000D01*
G01*
X27575000Y7525000D02*
X-8525000Y7525000D01*
X28575000Y11528800D02*
X28575000Y8525000D01*
X85725000Y11525000D02*
G75*
G03*
X86725000Y10525000I1000000J0D01*
G01*
X57150000Y-81725000D02*
G75*
G03*
X58150000Y-82725000I1000000J0D01*
G01*
X-9525000Y-67675000D02*
X-9525000Y6525000D01*
X-8525000Y7525000D02*
G75*
G03*
X-9525000Y6525000I-1J-999999D01*
G01*
X-9525000Y-67675000D02*
G75*
G03*
X-8525000Y-68674999I1000001J2D01*
G01*
X46625000Y12525000D02*
G75*
G03*
X47625000Y13525000I0J1000000D01*
G01*
X29575000Y12528800D02*
G75*
G03*
X28575000Y11528800I0J-1000000D01*
G01*
X120775000Y9525000D02*
G75*
G03*
X119775000Y10525000I-1000000J0D01*
G01*
X57150000Y-81725000D02*
X57150001Y-69675000D01*
X93101679Y-93260414D02*
X110536640Y-97932098D01*
X86725000Y10525000D02*
X119775000Y10525000D01*
X110536648Y-97932067D02*
G75*
G03*
X111761384Y-97224991I258852J965867D01*
G01*
X84725000Y14525000D02*
X48625000Y14525000D01*
X76199999Y-84725000D02*
X58150000Y-82725000D01*
X27575000Y7525000D02*
G75*
G03*
X28575000Y8525000I0J1000000D01*
G01*
X85725000Y13525000D02*
G75*
G03*
X84725000Y14525000I-1000000J0D01*
G01*
X120775000Y9525000D02*
X120775000Y-63575000D01*
X120775000Y-63575000D02*
X111761384Y-97224991D01*
D11*
X58748809Y-3010714D02*
X58710714Y-3048809D01*
X58596428Y-3086904D01*
X58520238Y-3086904D01*
X58405952Y-3048809D01*
X58329761Y-2972619D01*
X58291666Y-2896428D01*
X58253571Y-2744047D01*
X58253571Y-2629761D01*
X58291666Y-2477380D01*
X58329761Y-2401190D01*
X58405952Y-2325000D01*
X58520238Y-2286904D01*
X58596428Y-2286904D01*
X58710714Y-2325000D01*
X58748809Y-2363095D01*
X59244047Y-2286904D02*
X59396428Y-2286904D01*
X59472619Y-2325000D01*
X59548809Y-2401190D01*
X59586904Y-2553571D01*
X59586904Y-2820238D01*
X59548809Y-2972619D01*
X59472619Y-3048809D01*
X59396428Y-3086904D01*
X59244047Y-3086904D01*
X59167857Y-3048809D01*
X59091666Y-2972619D01*
X59053571Y-2820238D01*
X59053571Y-2553571D01*
X59091666Y-2401190D01*
X59167857Y-2325000D01*
X59244047Y-2286904D01*
X60310714Y-3086904D02*
X59929761Y-3086904D01*
X59929761Y-2286904D01*
X60920238Y-2553571D02*
X60920238Y-3086904D01*
X60729761Y-2248809D02*
X60539285Y-2820238D01*
X61034523Y-2820238D01*
X89665476Y-53986904D02*
X89398809Y-53605952D01*
X89208333Y-53986904D02*
X89208333Y-53186904D01*
X89513095Y-53186904D01*
X89589285Y-53225000D01*
X89627380Y-53263095D01*
X89665476Y-53339285D01*
X89665476Y-53453571D01*
X89627380Y-53529761D01*
X89589285Y-53567857D01*
X89513095Y-53605952D01*
X89208333Y-53605952D01*
X90160714Y-53186904D02*
X90313095Y-53186904D01*
X90389285Y-53225000D01*
X90465476Y-53301190D01*
X90503571Y-53453571D01*
X90503571Y-53720238D01*
X90465476Y-53872619D01*
X90389285Y-53948809D01*
X90313095Y-53986904D01*
X90160714Y-53986904D01*
X90084523Y-53948809D01*
X90008333Y-53872619D01*
X89970238Y-53720238D01*
X89970238Y-53453571D01*
X90008333Y-53301190D01*
X90084523Y-53225000D01*
X90160714Y-53186904D01*
X90770238Y-53186904D02*
X90960714Y-53986904D01*
X91113095Y-53415476D01*
X91265476Y-53986904D01*
X91455952Y-53186904D01*
X92103571Y-53453571D02*
X92103571Y-53986904D01*
X91913095Y-53148809D02*
X91722619Y-53720238D01*
X92217857Y-53720238D01*
X89715476Y-15986904D02*
X89448809Y-15605952D01*
X89258333Y-15986904D02*
X89258333Y-15186904D01*
X89563095Y-15186904D01*
X89639285Y-15225000D01*
X89677380Y-15263095D01*
X89715476Y-15339285D01*
X89715476Y-15453571D01*
X89677380Y-15529761D01*
X89639285Y-15567857D01*
X89563095Y-15605952D01*
X89258333Y-15605952D01*
X90210714Y-15186904D02*
X90363095Y-15186904D01*
X90439285Y-15225000D01*
X90515476Y-15301190D01*
X90553571Y-15453571D01*
X90553571Y-15720238D01*
X90515476Y-15872619D01*
X90439285Y-15948809D01*
X90363095Y-15986904D01*
X90210714Y-15986904D01*
X90134523Y-15948809D01*
X90058333Y-15872619D01*
X90020238Y-15720238D01*
X90020238Y-15453571D01*
X90058333Y-15301190D01*
X90134523Y-15225000D01*
X90210714Y-15186904D01*
X90820238Y-15186904D02*
X91010714Y-15986904D01*
X91163095Y-15415476D01*
X91315476Y-15986904D01*
X91505952Y-15186904D01*
X91772619Y-15263095D02*
X91810714Y-15225000D01*
X91886904Y-15186904D01*
X92077380Y-15186904D01*
X92153571Y-15225000D01*
X92191666Y-15263095D01*
X92229761Y-15339285D01*
X92229761Y-15415476D01*
X92191666Y-15529761D01*
X91734523Y-15986904D01*
X92229761Y-15986904D01*
D12*
X69367857Y11620238D02*
X69510714Y11572619D01*
X69748809Y11572619D01*
X69844047Y11620238D01*
X69891666Y11667857D01*
X69939285Y11763095D01*
X69939285Y11858333D01*
X69891666Y11953571D01*
X69844047Y12001190D01*
X69748809Y12048809D01*
X69558333Y12096428D01*
X69463095Y12144047D01*
X69415476Y12191666D01*
X69367857Y12286904D01*
X69367857Y12382142D01*
X69415476Y12477380D01*
X69463095Y12525000D01*
X69558333Y12572619D01*
X69796428Y12572619D01*
X69939285Y12525000D01*
X70272619Y12572619D02*
X70510714Y11572619D01*
X70701190Y12286904D01*
X70891666Y11572619D01*
X71129761Y12572619D01*
X71510714Y11572619D02*
X71510714Y12572619D01*
X71748809Y12572619D01*
X71891666Y12525000D01*
X71986904Y12429761D01*
X72034523Y12334523D01*
X72082142Y12144047D01*
X72082142Y12001190D01*
X72034523Y11810714D01*
X71986904Y11715476D01*
X71891666Y11620238D01*
X71748809Y11572619D01*
X71510714Y11572619D01*
X113084523Y-42827380D02*
X112751190Y-42351190D01*
X112513095Y-42827380D02*
X112513095Y-41827380D01*
X112894047Y-41827380D01*
X112989285Y-41875000D01*
X113036904Y-41922619D01*
X113084523Y-42017857D01*
X113084523Y-42160714D01*
X113036904Y-42255952D01*
X112989285Y-42303571D01*
X112894047Y-42351190D01*
X112513095Y-42351190D01*
X114036904Y-41875000D02*
X113941666Y-41827380D01*
X113798809Y-41827380D01*
X113655952Y-41875000D01*
X113560714Y-41970238D01*
X113513095Y-42065476D01*
X113465476Y-42255952D01*
X113465476Y-42398809D01*
X113513095Y-42589285D01*
X113560714Y-42684523D01*
X113655952Y-42779761D01*
X113798809Y-42827380D01*
X113894047Y-42827380D01*
X114036904Y-42779761D01*
X114084523Y-42732142D01*
X114084523Y-42398809D01*
X113894047Y-42398809D01*
X114846428Y-42303571D02*
X114989285Y-42351190D01*
X115036904Y-42398809D01*
X115084523Y-42494047D01*
X115084523Y-42636904D01*
X115036904Y-42732142D01*
X114989285Y-42779761D01*
X114894047Y-42827380D01*
X114513095Y-42827380D01*
X114513095Y-41827380D01*
X114846428Y-41827380D01*
X114941666Y-41875000D01*
X114989285Y-41922619D01*
X115036904Y-42017857D01*
X115036904Y-42113095D01*
X114989285Y-42208333D01*
X114941666Y-42255952D01*
X114846428Y-42303571D01*
X114513095Y-42303571D01*
D11*
X80115476Y-73136904D02*
X79848809Y-72755952D01*
X79658333Y-73136904D02*
X79658333Y-72336904D01*
X79963095Y-72336904D01*
X80039285Y-72375000D01*
X80077380Y-72413095D01*
X80115476Y-72489285D01*
X80115476Y-72603571D01*
X80077380Y-72679761D01*
X80039285Y-72717857D01*
X79963095Y-72755952D01*
X79658333Y-72755952D01*
X80610714Y-72336904D02*
X80763095Y-72336904D01*
X80839285Y-72375000D01*
X80915476Y-72451190D01*
X80953571Y-72603571D01*
X80953571Y-72870238D01*
X80915476Y-73022619D01*
X80839285Y-73098809D01*
X80763095Y-73136904D01*
X80610714Y-73136904D01*
X80534523Y-73098809D01*
X80458333Y-73022619D01*
X80420238Y-72870238D01*
X80420238Y-72603571D01*
X80458333Y-72451190D01*
X80534523Y-72375000D01*
X80610714Y-72336904D01*
X81220238Y-72336904D02*
X81410714Y-73136904D01*
X81563095Y-72565476D01*
X81715476Y-73136904D01*
X81905952Y-72336904D01*
X82591666Y-72336904D02*
X82210714Y-72336904D01*
X82172619Y-72717857D01*
X82210714Y-72679761D01*
X82286904Y-72641666D01*
X82477380Y-72641666D01*
X82553571Y-72679761D01*
X82591666Y-72717857D01*
X82629761Y-72794047D01*
X82629761Y-72984523D01*
X82591666Y-73060714D01*
X82553571Y-73098809D01*
X82477380Y-73136904D01*
X82286904Y-73136904D01*
X82210714Y-73098809D01*
X82172619Y-73060714D01*
X77748809Y-5010714D02*
X77710714Y-5048809D01*
X77596428Y-5086904D01*
X77520238Y-5086904D01*
X77405952Y-5048809D01*
X77329761Y-4972619D01*
X77291666Y-4896428D01*
X77253571Y-4744047D01*
X77253571Y-4629761D01*
X77291666Y-4477380D01*
X77329761Y-4401190D01*
X77405952Y-4325000D01*
X77520238Y-4286904D01*
X77596428Y-4286904D01*
X77710714Y-4325000D01*
X77748809Y-4363095D01*
X78244047Y-4286904D02*
X78396428Y-4286904D01*
X78472619Y-4325000D01*
X78548809Y-4401190D01*
X78586904Y-4553571D01*
X78586904Y-4820238D01*
X78548809Y-4972619D01*
X78472619Y-5048809D01*
X78396428Y-5086904D01*
X78244047Y-5086904D01*
X78167857Y-5048809D01*
X78091666Y-4972619D01*
X78053571Y-4820238D01*
X78053571Y-4553571D01*
X78091666Y-4401190D01*
X78167857Y-4325000D01*
X78244047Y-4286904D01*
X79310714Y-5086904D02*
X78929761Y-5086904D01*
X78929761Y-4286904D01*
X79958333Y-4286904D02*
X79577380Y-4286904D01*
X79539285Y-4667857D01*
X79577380Y-4629761D01*
X79653571Y-4591666D01*
X79844047Y-4591666D01*
X79920238Y-4629761D01*
X79958333Y-4667857D01*
X79996428Y-4744047D01*
X79996428Y-4934523D01*
X79958333Y-5010714D01*
X79920238Y-5048809D01*
X79844047Y-5086904D01*
X79653571Y-5086904D01*
X79577380Y-5048809D01*
X79539285Y-5010714D01*
X1548809Y-10010714D02*
X1510714Y-10048809D01*
X1396428Y-10086904D01*
X1320238Y-10086904D01*
X1205952Y-10048809D01*
X1129761Y-9972619D01*
X1091666Y-9896428D01*
X1053571Y-9744047D01*
X1053571Y-9629761D01*
X1091666Y-9477380D01*
X1129761Y-9401190D01*
X1205952Y-9325000D01*
X1320238Y-9286904D01*
X1396428Y-9286904D01*
X1510714Y-9325000D01*
X1548809Y-9363095D01*
X2044047Y-9286904D02*
X2196428Y-9286904D01*
X2272619Y-9325000D01*
X2348809Y-9401190D01*
X2386904Y-9553571D01*
X2386904Y-9820238D01*
X2348809Y-9972619D01*
X2272619Y-10048809D01*
X2196428Y-10086904D01*
X2044047Y-10086904D01*
X1967857Y-10048809D01*
X1891666Y-9972619D01*
X1853571Y-9820238D01*
X1853571Y-9553571D01*
X1891666Y-9401190D01*
X1967857Y-9325000D01*
X2044047Y-9286904D01*
X3110714Y-10086904D02*
X2729761Y-10086904D01*
X2729761Y-9286904D01*
X3796428Y-10086904D02*
X3339285Y-10086904D01*
X3567857Y-10086904D02*
X3567857Y-9286904D01*
X3491666Y-9401190D01*
X3415476Y-9477380D01*
X3339285Y-9515476D01*
X20648809Y-10010714D02*
X20610714Y-10048809D01*
X20496428Y-10086904D01*
X20420238Y-10086904D01*
X20305952Y-10048809D01*
X20229761Y-9972619D01*
X20191666Y-9896428D01*
X20153571Y-9744047D01*
X20153571Y-9629761D01*
X20191666Y-9477380D01*
X20229761Y-9401190D01*
X20305952Y-9325000D01*
X20420238Y-9286904D01*
X20496428Y-9286904D01*
X20610714Y-9325000D01*
X20648809Y-9363095D01*
X21144047Y-9286904D02*
X21296428Y-9286904D01*
X21372619Y-9325000D01*
X21448809Y-9401190D01*
X21486904Y-9553571D01*
X21486904Y-9820238D01*
X21448809Y-9972619D01*
X21372619Y-10048809D01*
X21296428Y-10086904D01*
X21144047Y-10086904D01*
X21067857Y-10048809D01*
X20991666Y-9972619D01*
X20953571Y-9820238D01*
X20953571Y-9553571D01*
X20991666Y-9401190D01*
X21067857Y-9325000D01*
X21144047Y-9286904D01*
X22210714Y-10086904D02*
X21829761Y-10086904D01*
X21829761Y-9286904D01*
X22439285Y-9363095D02*
X22477380Y-9325000D01*
X22553571Y-9286904D01*
X22744047Y-9286904D01*
X22820238Y-9325000D01*
X22858333Y-9363095D01*
X22896428Y-9439285D01*
X22896428Y-9515476D01*
X22858333Y-9629761D01*
X22401190Y-10086904D01*
X22896428Y-10086904D01*
D12*
X-7871190Y-66627380D02*
X-7871190Y-67341666D01*
X-7918809Y-67484523D01*
X-8014047Y-67579761D01*
X-8156904Y-67627380D01*
X-8252142Y-67627380D01*
X-6918809Y-67627380D02*
X-7395000Y-67627380D01*
X-7395000Y-66627380D01*
X-6014047Y-67532142D02*
X-6061666Y-67579761D01*
X-6204523Y-67627380D01*
X-6299761Y-67627380D01*
X-6442619Y-67579761D01*
X-6537857Y-67484523D01*
X-6585476Y-67389285D01*
X-6633095Y-67198809D01*
X-6633095Y-67055952D01*
X-6585476Y-66865476D01*
X-6537857Y-66770238D01*
X-6442619Y-66675000D01*
X-6299761Y-66627380D01*
X-6204523Y-66627380D01*
X-6061666Y-66675000D01*
X-6014047Y-66722619D01*
X-5299761Y-66627380D02*
X-5299761Y-67341666D01*
X-5347380Y-67484523D01*
X-5442619Y-67579761D01*
X-5585476Y-67627380D01*
X-5680714Y-67627380D01*
X-4347380Y-67627380D02*
X-4823571Y-67627380D01*
X-4823571Y-66627380D01*
X-3442619Y-67532142D02*
X-3490238Y-67579761D01*
X-3633095Y-67627380D01*
X-3728333Y-67627380D01*
X-3871190Y-67579761D01*
X-3966428Y-67484523D01*
X-4014047Y-67389285D01*
X-4061666Y-67198809D01*
X-4061666Y-67055952D01*
X-4014047Y-66865476D01*
X-3966428Y-66770238D01*
X-3871190Y-66675000D01*
X-3728333Y-66627380D01*
X-3633095Y-66627380D01*
X-3490238Y-66675000D01*
X-3442619Y-66722619D01*
X-2728333Y-66627380D02*
X-2728333Y-67341666D01*
X-2775952Y-67484523D01*
X-2871190Y-67579761D01*
X-3014047Y-67627380D01*
X-3109285Y-67627380D01*
X-1775952Y-67627380D02*
X-2252142Y-67627380D01*
X-2252142Y-66627380D01*
X-871190Y-67532142D02*
X-918809Y-67579761D01*
X-1061666Y-67627380D01*
X-1156904Y-67627380D01*
X-1299761Y-67579761D01*
X-1395000Y-67484523D01*
X-1442619Y-67389285D01*
X-1490238Y-67198809D01*
X-1490238Y-67055952D01*
X-1442619Y-66865476D01*
X-1395000Y-66770238D01*
X-1299761Y-66675000D01*
X-1156904Y-66627380D01*
X-1061666Y-66627380D01*
X-918809Y-66675000D01*
X-871190Y-66722619D01*
X-156904Y-66627380D02*
X-156904Y-67341666D01*
X-204523Y-67484523D01*
X-299761Y-67579761D01*
X-442619Y-67627380D01*
X-537857Y-67627380D01*
X795476Y-67627380D02*
X319285Y-67627380D01*
X319285Y-66627380D01*
X1700238Y-67532142D02*
X1652619Y-67579761D01*
X1509761Y-67627380D01*
X1414523Y-67627380D01*
X1271666Y-67579761D01*
X1176428Y-67484523D01*
X1128809Y-67389285D01*
X1081190Y-67198809D01*
X1081190Y-67055952D01*
X1128809Y-66865476D01*
X1176428Y-66770238D01*
X1271666Y-66675000D01*
X1414523Y-66627380D01*
X1509761Y-66627380D01*
X1652619Y-66675000D01*
X1700238Y-66722619D01*
D11*
X96848809Y-7010714D02*
X96810714Y-7048809D01*
X96696428Y-7086904D01*
X96620238Y-7086904D01*
X96505952Y-7048809D01*
X96429761Y-6972619D01*
X96391666Y-6896428D01*
X96353571Y-6744047D01*
X96353571Y-6629761D01*
X96391666Y-6477380D01*
X96429761Y-6401190D01*
X96505952Y-6325000D01*
X96620238Y-6286904D01*
X96696428Y-6286904D01*
X96810714Y-6325000D01*
X96848809Y-6363095D01*
X97344047Y-6286904D02*
X97496428Y-6286904D01*
X97572619Y-6325000D01*
X97648809Y-6401190D01*
X97686904Y-6553571D01*
X97686904Y-6820238D01*
X97648809Y-6972619D01*
X97572619Y-7048809D01*
X97496428Y-7086904D01*
X97344047Y-7086904D01*
X97267857Y-7048809D01*
X97191666Y-6972619D01*
X97153571Y-6820238D01*
X97153571Y-6553571D01*
X97191666Y-6401190D01*
X97267857Y-6325000D01*
X97344047Y-6286904D01*
X98410714Y-7086904D02*
X98029761Y-7086904D01*
X98029761Y-6286904D01*
X99020238Y-6286904D02*
X98867857Y-6286904D01*
X98791666Y-6325000D01*
X98753571Y-6363095D01*
X98677380Y-6477380D01*
X98639285Y-6629761D01*
X98639285Y-6934523D01*
X98677380Y-7010714D01*
X98715476Y-7048809D01*
X98791666Y-7086904D01*
X98944047Y-7086904D01*
X99020238Y-7048809D01*
X99058333Y-7010714D01*
X99096428Y-6934523D01*
X99096428Y-6744047D01*
X99058333Y-6667857D01*
X99020238Y-6629761D01*
X98944047Y-6591666D01*
X98791666Y-6591666D01*
X98715476Y-6629761D01*
X98677380Y-6667857D01*
X98639285Y-6744047D01*
X89365476Y3063095D02*
X89098809Y3444047D01*
X88908333Y3063095D02*
X88908333Y3863095D01*
X89213095Y3863095D01*
X89289285Y3825000D01*
X89327380Y3786904D01*
X89365476Y3710714D01*
X89365476Y3596428D01*
X89327380Y3520238D01*
X89289285Y3482142D01*
X89213095Y3444047D01*
X88908333Y3444047D01*
X89860714Y3863095D02*
X90013095Y3863095D01*
X90089285Y3825000D01*
X90165476Y3748809D01*
X90203571Y3596428D01*
X90203571Y3329761D01*
X90165476Y3177380D01*
X90089285Y3101190D01*
X90013095Y3063095D01*
X89860714Y3063095D01*
X89784523Y3101190D01*
X89708333Y3177380D01*
X89670238Y3329761D01*
X89670238Y3596428D01*
X89708333Y3748809D01*
X89784523Y3825000D01*
X89860714Y3863095D01*
X90470238Y3863095D02*
X90660714Y3063095D01*
X90813095Y3634523D01*
X90965476Y3063095D01*
X91155952Y3863095D01*
X91879761Y3063095D02*
X91422619Y3063095D01*
X91651190Y3063095D02*
X91651190Y3863095D01*
X91575000Y3748809D01*
X91498809Y3672619D01*
X91422619Y3634523D01*
X39798809Y-5010714D02*
X39760714Y-5048809D01*
X39646428Y-5086904D01*
X39570238Y-5086904D01*
X39455952Y-5048809D01*
X39379761Y-4972619D01*
X39341666Y-4896428D01*
X39303571Y-4744047D01*
X39303571Y-4629761D01*
X39341666Y-4477380D01*
X39379761Y-4401190D01*
X39455952Y-4325000D01*
X39570238Y-4286904D01*
X39646428Y-4286904D01*
X39760714Y-4325000D01*
X39798809Y-4363095D01*
X40294047Y-4286904D02*
X40446428Y-4286904D01*
X40522619Y-4325000D01*
X40598809Y-4401190D01*
X40636904Y-4553571D01*
X40636904Y-4820238D01*
X40598809Y-4972619D01*
X40522619Y-5048809D01*
X40446428Y-5086904D01*
X40294047Y-5086904D01*
X40217857Y-5048809D01*
X40141666Y-4972619D01*
X40103571Y-4820238D01*
X40103571Y-4553571D01*
X40141666Y-4401190D01*
X40217857Y-4325000D01*
X40294047Y-4286904D01*
X41360714Y-5086904D02*
X40979761Y-5086904D01*
X40979761Y-4286904D01*
X41551190Y-4286904D02*
X42046428Y-4286904D01*
X41779761Y-4591666D01*
X41894047Y-4591666D01*
X41970238Y-4629761D01*
X42008333Y-4667857D01*
X42046428Y-4744047D01*
X42046428Y-4934523D01*
X42008333Y-5010714D01*
X41970238Y-5048809D01*
X41894047Y-5086904D01*
X41665476Y-5086904D01*
X41589285Y-5048809D01*
X41551190Y-5010714D01*
X89665476Y-35036904D02*
X89398809Y-34655952D01*
X89208333Y-35036904D02*
X89208333Y-34236904D01*
X89513095Y-34236904D01*
X89589285Y-34275000D01*
X89627380Y-34313095D01*
X89665476Y-34389285D01*
X89665476Y-34503571D01*
X89627380Y-34579761D01*
X89589285Y-34617857D01*
X89513095Y-34655952D01*
X89208333Y-34655952D01*
X90160714Y-34236904D02*
X90313095Y-34236904D01*
X90389285Y-34275000D01*
X90465476Y-34351190D01*
X90503571Y-34503571D01*
X90503571Y-34770238D01*
X90465476Y-34922619D01*
X90389285Y-34998809D01*
X90313095Y-35036904D01*
X90160714Y-35036904D01*
X90084523Y-34998809D01*
X90008333Y-34922619D01*
X89970238Y-34770238D01*
X89970238Y-34503571D01*
X90008333Y-34351190D01*
X90084523Y-34275000D01*
X90160714Y-34236904D01*
X90770238Y-34236904D02*
X90960714Y-35036904D01*
X91113095Y-34465476D01*
X91265476Y-35036904D01*
X91455952Y-34236904D01*
X91684523Y-34236904D02*
X92179761Y-34236904D01*
X91913095Y-34541666D01*
X92027380Y-34541666D01*
X92103571Y-34579761D01*
X92141666Y-34617857D01*
X92179761Y-34694047D01*
X92179761Y-34884523D01*
X92141666Y-34960714D01*
X92103571Y-34998809D01*
X92027380Y-35036904D01*
X91798809Y-35036904D01*
X91722619Y-34998809D01*
X91684523Y-34960714D01*
%TO.C,H5*%
X97013095Y-64977380D02*
X97013095Y-63977380D01*
X97013095Y-64453571D02*
X97584523Y-64453571D01*
X97584523Y-64977380D02*
X97584523Y-63977380D01*
X98536904Y-63977380D02*
X98060714Y-63977380D01*
X98013095Y-64453571D01*
X98060714Y-64405952D01*
X98155952Y-64358333D01*
X98394047Y-64358333D01*
X98489285Y-64405952D01*
X98536904Y-64453571D01*
X98584523Y-64548809D01*
X98584523Y-64786904D01*
X98536904Y-64882142D01*
X98489285Y-64929761D01*
X98394047Y-64977380D01*
X98155952Y-64977380D01*
X98060714Y-64929761D01*
X98013095Y-64882142D01*
%TO.C,TP1*%
X94665476Y-8175000D02*
X94589285Y-8136904D01*
X94475000Y-8136904D01*
X94360714Y-8175000D01*
X94284523Y-8251190D01*
X94246428Y-8327380D01*
X94208333Y-8479761D01*
X94208333Y-8594047D01*
X94246428Y-8746428D01*
X94284523Y-8822619D01*
X94360714Y-8898809D01*
X94475000Y-8936904D01*
X94551190Y-8936904D01*
X94665476Y-8898809D01*
X94703571Y-8860714D01*
X94703571Y-8594047D01*
X94551190Y-8594047D01*
X95046428Y-8936904D02*
X95046428Y-8136904D01*
X95503571Y-8936904D01*
X95503571Y-8136904D01*
X95884523Y-8936904D02*
X95884523Y-8136904D01*
X96075000Y-8136904D01*
X96189285Y-8175000D01*
X96265476Y-8251190D01*
X96303571Y-8327380D01*
X96341666Y-8479761D01*
X96341666Y-8594047D01*
X96303571Y-8746428D01*
X96265476Y-8822619D01*
X96189285Y-8898809D01*
X96075000Y-8936904D01*
X95884523Y-8936904D01*
D12*
%TO.C,SW1*%
X117741666Y-32977380D02*
X117741666Y-31977380D01*
X118122619Y-31977380D01*
X118217857Y-32025000D01*
X118265476Y-32072619D01*
X118313095Y-32167857D01*
X118313095Y-32310714D01*
X118265476Y-32405952D01*
X118217857Y-32453571D01*
X118122619Y-32501190D01*
X117741666Y-32501190D01*
X118646428Y-31977380D02*
X118884523Y-32977380D01*
X119075000Y-32263095D01*
X119265476Y-32977380D01*
X119503571Y-31977380D01*
X120455952Y-32977380D02*
X120122619Y-32501190D01*
X119884523Y-32977380D02*
X119884523Y-31977380D01*
X120265476Y-31977380D01*
X120360714Y-32025000D01*
X120408333Y-32072619D01*
X120455952Y-32167857D01*
X120455952Y-32310714D01*
X120408333Y-32405952D01*
X120360714Y-32453571D01*
X120265476Y-32501190D01*
X119884523Y-32501190D01*
D11*
%TO.C,TP1*%
X75565476Y-6175000D02*
X75489285Y-6136904D01*
X75375000Y-6136904D01*
X75260714Y-6175000D01*
X75184523Y-6251190D01*
X75146428Y-6327380D01*
X75108333Y-6479761D01*
X75108333Y-6594047D01*
X75146428Y-6746428D01*
X75184523Y-6822619D01*
X75260714Y-6898809D01*
X75375000Y-6936904D01*
X75451190Y-6936904D01*
X75565476Y-6898809D01*
X75603571Y-6860714D01*
X75603571Y-6594047D01*
X75451190Y-6594047D01*
X75946428Y-6936904D02*
X75946428Y-6136904D01*
X76403571Y-6936904D01*
X76403571Y-6136904D01*
X76784523Y-6936904D02*
X76784523Y-6136904D01*
X76975000Y-6136904D01*
X77089285Y-6175000D01*
X77165476Y-6251190D01*
X77203571Y-6327380D01*
X77241666Y-6479761D01*
X77241666Y-6594047D01*
X77203571Y-6746428D01*
X77165476Y-6822619D01*
X77089285Y-6898809D01*
X76975000Y-6936904D01*
X76784523Y-6936904D01*
X75565476Y-74825000D02*
X75489285Y-74786904D01*
X75375000Y-74786904D01*
X75260714Y-74825000D01*
X75184523Y-74901190D01*
X75146428Y-74977380D01*
X75108333Y-75129761D01*
X75108333Y-75244047D01*
X75146428Y-75396428D01*
X75184523Y-75472619D01*
X75260714Y-75548809D01*
X75375000Y-75586904D01*
X75451190Y-75586904D01*
X75565476Y-75548809D01*
X75603571Y-75510714D01*
X75603571Y-75244047D01*
X75451190Y-75244047D01*
X75946428Y-75586904D02*
X75946428Y-74786904D01*
X76403571Y-75586904D01*
X76403571Y-74786904D01*
X76784523Y-75586904D02*
X76784523Y-74786904D01*
X76975000Y-74786904D01*
X77089285Y-74825000D01*
X77165476Y-74901190D01*
X77203571Y-74977380D01*
X77241666Y-75129761D01*
X77241666Y-75244047D01*
X77203571Y-75396428D01*
X77165476Y-75472619D01*
X77089285Y-75548809D01*
X76975000Y-75586904D01*
X76784523Y-75586904D01*
D12*
%TO.C,SW29*%
X116327380Y-38927380D02*
X115851190Y-39260714D01*
X116327380Y-39498809D02*
X115327380Y-39498809D01*
X115327380Y-39117857D01*
X115375000Y-39022619D01*
X115422619Y-38975000D01*
X115517857Y-38927380D01*
X115660714Y-38927380D01*
X115755952Y-38975000D01*
X115803571Y-39022619D01*
X115851190Y-39117857D01*
X115851190Y-39498809D01*
X115803571Y-38498809D02*
X115803571Y-38165476D01*
X116327380Y-38022619D02*
X116327380Y-38498809D01*
X115327380Y-38498809D01*
X115327380Y-38022619D01*
X116279761Y-37641666D02*
X116327380Y-37498809D01*
X116327380Y-37260714D01*
X116279761Y-37165476D01*
X116232142Y-37117857D01*
X116136904Y-37070238D01*
X116041666Y-37070238D01*
X115946428Y-37117857D01*
X115898809Y-37165476D01*
X115851190Y-37260714D01*
X115803571Y-37451190D01*
X115755952Y-37546428D01*
X115708333Y-37594047D01*
X115613095Y-37641666D01*
X115517857Y-37641666D01*
X115422619Y-37594047D01*
X115375000Y-37546428D01*
X115327380Y-37451190D01*
X115327380Y-37213095D01*
X115375000Y-37070238D01*
X115803571Y-36641666D02*
X115803571Y-36308333D01*
X116327380Y-36165476D02*
X116327380Y-36641666D01*
X115327380Y-36641666D01*
X115327380Y-36165476D01*
X115327380Y-35879761D02*
X115327380Y-35308333D01*
X116327380Y-35594047D02*
X115327380Y-35594047D01*
D11*
%TO.C,TP2*%
X107189285Y-21136904D02*
X107455952Y-21936904D01*
X107722619Y-21136904D01*
X107989285Y-21936904D02*
X107989285Y-21136904D01*
X108179761Y-21136904D01*
X108294047Y-21175000D01*
X108370238Y-21251190D01*
X108408333Y-21327380D01*
X108446428Y-21479761D01*
X108446428Y-21594047D01*
X108408333Y-21746428D01*
X108370238Y-21822619D01*
X108294047Y-21898809D01*
X108179761Y-21936904D01*
X107989285Y-21936904D01*
X108789285Y-21936904D02*
X108789285Y-21136904D01*
X108979761Y-21136904D01*
X109094047Y-21175000D01*
X109170238Y-21251190D01*
X109208333Y-21327380D01*
X109246428Y-21479761D01*
X109246428Y-21594047D01*
X109208333Y-21746428D01*
X109170238Y-21822619D01*
X109094047Y-21898809D01*
X108979761Y-21936904D01*
X108789285Y-21936904D01*
X109589285Y-21936904D02*
X109589285Y-21136904D01*
X109589285Y-21517857D02*
X110046428Y-21517857D01*
X110046428Y-21936904D02*
X110046428Y-21136904D01*
%TO.C,TP1*%
X56515476Y-4175000D02*
X56439285Y-4136904D01*
X56325000Y-4136904D01*
X56210714Y-4175000D01*
X56134523Y-4251190D01*
X56096428Y-4327380D01*
X56058333Y-4479761D01*
X56058333Y-4594047D01*
X56096428Y-4746428D01*
X56134523Y-4822619D01*
X56210714Y-4898809D01*
X56325000Y-4936904D01*
X56401190Y-4936904D01*
X56515476Y-4898809D01*
X56553571Y-4860714D01*
X56553571Y-4594047D01*
X56401190Y-4594047D01*
X56896428Y-4936904D02*
X56896428Y-4136904D01*
X57353571Y-4936904D01*
X57353571Y-4136904D01*
X57734523Y-4936904D02*
X57734523Y-4136904D01*
X57925000Y-4136904D01*
X58039285Y-4175000D01*
X58115476Y-4251190D01*
X58153571Y-4327380D01*
X58191666Y-4479761D01*
X58191666Y-4594047D01*
X58153571Y-4746428D01*
X58115476Y-4822619D01*
X58039285Y-4898809D01*
X57925000Y-4936904D01*
X57734523Y-4936904D01*
X110065476Y-24275000D02*
X109989285Y-24236904D01*
X109875000Y-24236904D01*
X109760714Y-24275000D01*
X109684523Y-24351190D01*
X109646428Y-24427380D01*
X109608333Y-24579761D01*
X109608333Y-24694047D01*
X109646428Y-24846428D01*
X109684523Y-24922619D01*
X109760714Y-24998809D01*
X109875000Y-25036904D01*
X109951190Y-25036904D01*
X110065476Y-24998809D01*
X110103571Y-24960714D01*
X110103571Y-24694047D01*
X109951190Y-24694047D01*
X110446428Y-25036904D02*
X110446428Y-24236904D01*
X110903571Y-25036904D01*
X110903571Y-24236904D01*
X111284523Y-25036904D02*
X111284523Y-24236904D01*
X111475000Y-24236904D01*
X111589285Y-24275000D01*
X111665476Y-24351190D01*
X111703571Y-24427380D01*
X111741666Y-24579761D01*
X111741666Y-24694047D01*
X111703571Y-24846428D01*
X111665476Y-24922619D01*
X111589285Y-24998809D01*
X111475000Y-25036904D01*
X111284523Y-25036904D01*
X85115476Y-17725000D02*
X85039285Y-17686904D01*
X84925000Y-17686904D01*
X84810714Y-17725000D01*
X84734523Y-17801190D01*
X84696428Y-17877380D01*
X84658333Y-18029761D01*
X84658333Y-18144047D01*
X84696428Y-18296428D01*
X84734523Y-18372619D01*
X84810714Y-18448809D01*
X84925000Y-18486904D01*
X85001190Y-18486904D01*
X85115476Y-18448809D01*
X85153571Y-18410714D01*
X85153571Y-18144047D01*
X85001190Y-18144047D01*
X85496428Y-18486904D02*
X85496428Y-17686904D01*
X85953571Y-18486904D01*
X85953571Y-17686904D01*
X86334523Y-18486904D02*
X86334523Y-17686904D01*
X86525000Y-17686904D01*
X86639285Y-17725000D01*
X86715476Y-17801190D01*
X86753571Y-17877380D01*
X86791666Y-18029761D01*
X86791666Y-18144047D01*
X86753571Y-18296428D01*
X86715476Y-18372619D01*
X86639285Y-18448809D01*
X86525000Y-18486904D01*
X86334523Y-18486904D01*
X18465476Y-11175000D02*
X18389285Y-11136904D01*
X18275000Y-11136904D01*
X18160714Y-11175000D01*
X18084523Y-11251190D01*
X18046428Y-11327380D01*
X18008333Y-11479761D01*
X18008333Y-11594047D01*
X18046428Y-11746428D01*
X18084523Y-11822619D01*
X18160714Y-11898809D01*
X18275000Y-11936904D01*
X18351190Y-11936904D01*
X18465476Y-11898809D01*
X18503571Y-11860714D01*
X18503571Y-11594047D01*
X18351190Y-11594047D01*
X18846428Y-11936904D02*
X18846428Y-11136904D01*
X19303571Y-11936904D01*
X19303571Y-11136904D01*
X19684523Y-11936904D02*
X19684523Y-11136904D01*
X19875000Y-11136904D01*
X19989285Y-11175000D01*
X20065476Y-11251190D01*
X20103571Y-11327380D01*
X20141666Y-11479761D01*
X20141666Y-11594047D01*
X20103571Y-11746428D01*
X20065476Y-11822619D01*
X19989285Y-11898809D01*
X19875000Y-11936904D01*
X19684523Y-11936904D01*
X85115476Y-36725000D02*
X85039285Y-36686904D01*
X84925000Y-36686904D01*
X84810714Y-36725000D01*
X84734523Y-36801190D01*
X84696428Y-36877380D01*
X84658333Y-37029761D01*
X84658333Y-37144047D01*
X84696428Y-37296428D01*
X84734523Y-37372619D01*
X84810714Y-37448809D01*
X84925000Y-37486904D01*
X85001190Y-37486904D01*
X85115476Y-37448809D01*
X85153571Y-37410714D01*
X85153571Y-37144047D01*
X85001190Y-37144047D01*
X85496428Y-37486904D02*
X85496428Y-36686904D01*
X85953571Y-37486904D01*
X85953571Y-36686904D01*
X86334523Y-37486904D02*
X86334523Y-36686904D01*
X86525000Y-36686904D01*
X86639285Y-36725000D01*
X86715476Y-36801190D01*
X86753571Y-36877380D01*
X86791666Y-37029761D01*
X86791666Y-37144047D01*
X86753571Y-37296428D01*
X86715476Y-37372619D01*
X86639285Y-37448809D01*
X86525000Y-37486904D01*
X86334523Y-37486904D01*
X85115476Y1325000D02*
X85039285Y1363095D01*
X84925000Y1363095D01*
X84810714Y1325000D01*
X84734523Y1248809D01*
X84696428Y1172619D01*
X84658333Y1020238D01*
X84658333Y905952D01*
X84696428Y753571D01*
X84734523Y677380D01*
X84810714Y601190D01*
X84925000Y563095D01*
X85001190Y563095D01*
X85115476Y601190D01*
X85153571Y639285D01*
X85153571Y905952D01*
X85001190Y905952D01*
X85496428Y563095D02*
X85496428Y1363095D01*
X85953571Y563095D01*
X85953571Y1363095D01*
X86334523Y563095D02*
X86334523Y1363095D01*
X86525000Y1363095D01*
X86639285Y1325000D01*
X86715476Y1248809D01*
X86753571Y1172619D01*
X86791666Y1020238D01*
X86791666Y905952D01*
X86753571Y753571D01*
X86715476Y677380D01*
X86639285Y601190D01*
X86525000Y563095D01*
X86334523Y563095D01*
X85115476Y-55775000D02*
X85039285Y-55736904D01*
X84925000Y-55736904D01*
X84810714Y-55775000D01*
X84734523Y-55851190D01*
X84696428Y-55927380D01*
X84658333Y-56079761D01*
X84658333Y-56194047D01*
X84696428Y-56346428D01*
X84734523Y-56422619D01*
X84810714Y-56498809D01*
X84925000Y-56536904D01*
X85001190Y-56536904D01*
X85115476Y-56498809D01*
X85153571Y-56460714D01*
X85153571Y-56194047D01*
X85001190Y-56194047D01*
X85496428Y-56536904D02*
X85496428Y-55736904D01*
X85953571Y-56536904D01*
X85953571Y-55736904D01*
X86334523Y-56536904D02*
X86334523Y-55736904D01*
X86525000Y-55736904D01*
X86639285Y-55775000D01*
X86715476Y-55851190D01*
X86753571Y-55927380D01*
X86791666Y-56079761D01*
X86791666Y-56194047D01*
X86753571Y-56346428D01*
X86715476Y-56422619D01*
X86639285Y-56498809D01*
X86525000Y-56536904D01*
X86334523Y-56536904D01*
X-634523Y-11175000D02*
X-710714Y-11136904D01*
X-825000Y-11136904D01*
X-939285Y-11175000D01*
X-1015476Y-11251190D01*
X-1053571Y-11327380D01*
X-1091666Y-11479761D01*
X-1091666Y-11594047D01*
X-1053571Y-11746428D01*
X-1015476Y-11822619D01*
X-939285Y-11898809D01*
X-825000Y-11936904D01*
X-748809Y-11936904D01*
X-634523Y-11898809D01*
X-596428Y-11860714D01*
X-596428Y-11594047D01*
X-748809Y-11594047D01*
X-253571Y-11936904D02*
X-253571Y-11136904D01*
X203571Y-11936904D01*
X203571Y-11136904D01*
X584523Y-11936904D02*
X584523Y-11136904D01*
X774999Y-11136904D01*
X889285Y-11175000D01*
X965476Y-11251190D01*
X1003571Y-11327380D01*
X1041666Y-11479761D01*
X1041666Y-11594047D01*
X1003571Y-11746428D01*
X965476Y-11822619D01*
X889285Y-11898809D01*
X774999Y-11936904D01*
X584523Y-11936904D01*
X37565476Y-6175000D02*
X37489285Y-6136904D01*
X37375000Y-6136904D01*
X37260714Y-6175000D01*
X37184523Y-6251190D01*
X37146428Y-6327380D01*
X37108333Y-6479761D01*
X37108333Y-6594047D01*
X37146428Y-6746428D01*
X37184523Y-6822619D01*
X37260714Y-6898809D01*
X37375000Y-6936904D01*
X37451190Y-6936904D01*
X37565476Y-6898809D01*
X37603571Y-6860714D01*
X37603571Y-6594047D01*
X37451190Y-6594047D01*
X37946428Y-6936904D02*
X37946428Y-6136904D01*
X38403571Y-6936904D01*
X38403571Y-6136904D01*
X38784523Y-6936904D02*
X38784523Y-6136904D01*
X38975000Y-6136904D01*
X39089285Y-6175000D01*
X39165476Y-6251190D01*
X39203571Y-6327380D01*
X39241666Y-6479761D01*
X39241666Y-6594047D01*
X39203571Y-6746428D01*
X39165476Y-6822619D01*
X39089285Y-6898809D01*
X38975000Y-6936904D01*
X38784523Y-6936904D01*
%TO.C,J4*%
X115460714Y-46511904D02*
X115079761Y-46511904D01*
X115079761Y-45711904D01*
X115727380Y-46092857D02*
X115994047Y-46092857D01*
X116108333Y-46511904D02*
X115727380Y-46511904D01*
X115727380Y-45711904D01*
X116108333Y-45711904D01*
X116451190Y-46511904D02*
X116451190Y-45711904D01*
X116641666Y-45711904D01*
X116755952Y-45750000D01*
X116832142Y-45826190D01*
X116870238Y-45902380D01*
X116908333Y-46054761D01*
X116908333Y-46169047D01*
X116870238Y-46321428D01*
X116832142Y-46397619D01*
X116755952Y-46473809D01*
X116641666Y-46511904D01*
X116451190Y-46511904D01*
X114908333Y-43611904D02*
X115175000Y-44411904D01*
X115441666Y-43611904D01*
X116165476Y-44335714D02*
X116127380Y-44373809D01*
X116013095Y-44411904D01*
X115936904Y-44411904D01*
X115822619Y-44373809D01*
X115746428Y-44297619D01*
X115708333Y-44221428D01*
X115670238Y-44069047D01*
X115670238Y-43954761D01*
X115708333Y-43802380D01*
X115746428Y-43726190D01*
X115822619Y-43650000D01*
X115936904Y-43611904D01*
X116013095Y-43611904D01*
X116127380Y-43650000D01*
X116165476Y-43688095D01*
X116965476Y-44335714D02*
X116927380Y-44373809D01*
X116813095Y-44411904D01*
X116736904Y-44411904D01*
X116622619Y-44373809D01*
X116546428Y-44297619D01*
X116508333Y-44221428D01*
X116470238Y-44069047D01*
X116470238Y-43954761D01*
X116508333Y-43802380D01*
X116546428Y-43726190D01*
X116622619Y-43650000D01*
X116736904Y-43611904D01*
X116813095Y-43611904D01*
X116927380Y-43650000D01*
X116965476Y-43688095D01*
X115365476Y-47750000D02*
X115289285Y-47711904D01*
X115175000Y-47711904D01*
X115060714Y-47750000D01*
X114984523Y-47826190D01*
X114946428Y-47902380D01*
X114908333Y-48054761D01*
X114908333Y-48169047D01*
X114946428Y-48321428D01*
X114984523Y-48397619D01*
X115060714Y-48473809D01*
X115175000Y-48511904D01*
X115251190Y-48511904D01*
X115365476Y-48473809D01*
X115403571Y-48435714D01*
X115403571Y-48169047D01*
X115251190Y-48169047D01*
X115746428Y-48511904D02*
X115746428Y-47711904D01*
X116203571Y-48511904D01*
X116203571Y-47711904D01*
X116584523Y-48511904D02*
X116584523Y-47711904D01*
X116775000Y-47711904D01*
X116889285Y-47750000D01*
X116965476Y-47826190D01*
X117003571Y-47902380D01*
X117041666Y-48054761D01*
X117041666Y-48169047D01*
X117003571Y-48321428D01*
X116965476Y-48397619D01*
X116889285Y-48473809D01*
X116775000Y-48511904D01*
X116584523Y-48511904D01*
D13*
%TO.C,J1*%
X113635714Y-40059523D02*
X113695238Y-39880952D01*
X113754761Y-39821428D01*
X113873809Y-39761904D01*
X114052380Y-39761904D01*
X114171428Y-39821428D01*
X114230952Y-39880952D01*
X114290476Y-40000000D01*
X114290476Y-40476190D01*
X113040476Y-40476190D01*
X113040476Y-40059523D01*
X113100000Y-39940476D01*
X113159523Y-39880952D01*
X113278571Y-39821428D01*
X113397619Y-39821428D01*
X113516666Y-39880952D01*
X113576190Y-39940476D01*
X113635714Y-40059523D01*
X113635714Y-40476190D01*
X113814285Y-39226190D02*
X113814285Y-38273809D01*
X111635714Y-40059523D02*
X111695238Y-39880952D01*
X111754761Y-39821428D01*
X111873809Y-39761904D01*
X112052380Y-39761904D01*
X112171428Y-39821428D01*
X112230952Y-39880952D01*
X112290476Y-40000000D01*
X112290476Y-40476190D01*
X111040476Y-40476190D01*
X111040476Y-40059523D01*
X111100000Y-39940476D01*
X111159523Y-39880952D01*
X111278571Y-39821428D01*
X111397619Y-39821428D01*
X111516666Y-39880952D01*
X111576190Y-39940476D01*
X111635714Y-40059523D01*
X111635714Y-40476190D01*
X111814285Y-39226190D02*
X111814285Y-38273809D01*
X112290476Y-38750000D02*
X111338095Y-38750000D01*
D12*
%TO.C,D1*%
X118582142Y-22189285D02*
X118629761Y-22236904D01*
X118677380Y-22379761D01*
X118677380Y-22475000D01*
X118629761Y-22617857D01*
X118534523Y-22713095D01*
X118439285Y-22760714D01*
X118248809Y-22808333D01*
X118105952Y-22808333D01*
X117915476Y-22760714D01*
X117820238Y-22713095D01*
X117725000Y-22617857D01*
X117677380Y-22475000D01*
X117677380Y-22379761D01*
X117725000Y-22236904D01*
X117772619Y-22189285D01*
X118677380Y-21760714D02*
X117677380Y-21760714D01*
X118153571Y-21760714D02*
X118153571Y-21189285D01*
X118677380Y-21189285D02*
X117677380Y-21189285D01*
X117725000Y-20189285D02*
X117677380Y-20284523D01*
X117677380Y-20427380D01*
X117725000Y-20570238D01*
X117820238Y-20665476D01*
X117915476Y-20713095D01*
X118105952Y-20760714D01*
X118248809Y-20760714D01*
X118439285Y-20713095D01*
X118534523Y-20665476D01*
X118629761Y-20570238D01*
X118677380Y-20427380D01*
X118677380Y-20332142D01*
X118629761Y-20189285D01*
X118582142Y-20141666D01*
X118248809Y-20141666D01*
X118248809Y-20332142D01*
%TO.C,G\u002A\u002A\u002A*%
G36*
X1572429Y5090163D02*
G01*
X475060Y5090163D01*
X475060Y4455953D01*
X1456639Y4455953D01*
X1456639Y4077005D01*
X475060Y4077005D01*
X475060Y3421742D01*
X1572429Y3421742D01*
X1572429Y3024374D01*
X43482Y3024374D01*
X43482Y5484900D01*
X1572429Y5484900D01*
X1572429Y5090163D01*
G37*
G36*
X-2294407Y5484258D02*
G01*
X-2079664Y5483584D01*
X-1502960Y4612657D01*
X-926255Y3741729D01*
X-925594Y4613315D01*
X-924932Y5484900D01*
X-501255Y5484900D01*
X-501255Y3024343D01*
X-713406Y3025016D01*
X-925557Y3025690D01*
X-1504853Y3897977D01*
X-2084150Y4770263D01*
X-2084812Y3897319D01*
X-2085474Y3024374D01*
X-2509150Y3024374D01*
X-2509150Y5484931D01*
X-2294407Y5484258D01*
G37*
G36*
X3761889Y4359328D02*
G01*
X3765287Y4406875D01*
X3770264Y4453554D01*
X3776948Y4500784D01*
X3785466Y4549983D01*
X3785846Y4552005D01*
X3803496Y4632965D01*
X3825420Y4711202D01*
X3851517Y4786605D01*
X3881684Y4859060D01*
X3915819Y4928454D01*
X3953822Y4994677D01*
X3995590Y5057614D01*
X4041022Y5117154D01*
X4090016Y5173183D01*
X4142470Y5225590D01*
X4198283Y5274262D01*
X4257352Y5319086D01*
X4319577Y5359950D01*
X4384855Y5396741D01*
X4453086Y5429347D01*
X4524166Y5457655D01*
X4597994Y5481553D01*
X4635031Y5491590D01*
X4699288Y5506004D01*
X4764897Y5516849D01*
X4832740Y5524243D01*
X4903702Y5528300D01*
X4918482Y5528725D01*
X5001567Y5528304D01*
X5082996Y5523001D01*
X5162676Y5512834D01*
X5240517Y5497823D01*
X5316428Y5477985D01*
X5390318Y5453340D01*
X5462097Y5423908D01*
X5494797Y5408563D01*
X5561685Y5372988D01*
X5625501Y5333187D01*
X5686141Y5289279D01*
X5743504Y5241384D01*
X5797486Y5189620D01*
X5847986Y5134107D01*
X5894901Y5074964D01*
X5938128Y5012309D01*
X5977566Y4946262D01*
X6013110Y4876942D01*
X6044660Y4804468D01*
X6067325Y4743213D01*
X6091677Y4664145D01*
X6111509Y4582803D01*
X6126802Y4499643D01*
X6137539Y4415118D01*
X6143702Y4329683D01*
X6145273Y4243790D01*
X6142233Y4157895D01*
X6134565Y4072450D01*
X6122249Y3987911D01*
X6105269Y3904730D01*
X6101415Y3888715D01*
X6079281Y3808943D01*
X6053016Y3732374D01*
X6022549Y3658862D01*
X5987810Y3588262D01*
X5948730Y3520429D01*
X5905238Y3455218D01*
X5868105Y3405953D01*
X5853707Y3388677D01*
X5836082Y3368920D01*
X5816078Y3347530D01*
X5794544Y3325357D01*
X5772327Y3303250D01*
X5750276Y3282058D01*
X5729240Y3262628D01*
X5710066Y3245811D01*
X5698745Y3236476D01*
X5637358Y3190860D01*
X5573182Y3149678D01*
X5506326Y3112971D01*
X5436901Y3080779D01*
X5365017Y3053146D01*
X5290784Y3030111D01*
X5214313Y3011717D01*
X5135714Y2998006D01*
X5055097Y2989017D01*
X5036035Y2987606D01*
X5013888Y2986476D01*
X4987958Y2985737D01*
X4959711Y2985386D01*
X4930612Y2985421D01*
X4902127Y2985840D01*
X4875722Y2986639D01*
X4852863Y2987816D01*
X4851376Y2987917D01*
X4771035Y2995937D01*
X4692821Y3008729D01*
X4616859Y3026196D01*
X4543271Y3048243D01*
X4472180Y3074776D01*
X4403710Y3105698D01*
X4337983Y3140915D01*
X4275123Y3180331D01*
X4215252Y3223850D01*
X4158494Y3271378D01*
X4104971Y3322819D01*
X4054808Y3378078D01*
X4008126Y3437059D01*
X3965050Y3499668D01*
X3925701Y3565808D01*
X3890204Y3635385D01*
X3858681Y3708303D01*
X3834149Y3775690D01*
X3812558Y3845872D01*
X3794825Y3915656D01*
X3780823Y3985866D01*
X3770424Y4057325D01*
X3763498Y4130856D01*
X3759918Y4207283D01*
X3759323Y4255953D01*
X3759678Y4286613D01*
X4209685Y4286613D01*
X4209716Y4259215D01*
X4210067Y4230967D01*
X4210722Y4202909D01*
X4211661Y4176080D01*
X4212868Y4151520D01*
X4214324Y4130267D01*
X4215793Y4115163D01*
X4224312Y4053943D01*
X4235059Y3996780D01*
X4248262Y3942862D01*
X4264148Y3891379D01*
X4282943Y3841520D01*
X4304875Y3792473D01*
X4307919Y3786216D01*
X4337390Y3731764D01*
X4370544Y3680960D01*
X4407303Y3633898D01*
X4447590Y3590670D01*
X4491330Y3551371D01*
X4515966Y3532108D01*
X4562379Y3500784D01*
X4612157Y3473318D01*
X4664944Y3449845D01*
X4720382Y3430500D01*
X4778114Y3415418D01*
X4837786Y3404736D01*
X4857955Y3402187D01*
X4878268Y3400470D01*
X4902500Y3399377D01*
X4929413Y3398886D01*
X4957771Y3398978D01*
X4986338Y3399630D01*
X5013875Y3400821D01*
X5039147Y3402531D01*
X5060916Y3404738D01*
X5068482Y3405773D01*
X5130009Y3417442D01*
X5188718Y3433530D01*
X5244588Y3454029D01*
X5297597Y3478930D01*
X5347722Y3508223D01*
X5394944Y3541900D01*
X5401541Y3547140D01*
X5446082Y3586361D01*
X5487089Y3629425D01*
X5524516Y3676232D01*
X5558315Y3726684D01*
X5588442Y3780681D01*
X5614848Y3838123D01*
X5637487Y3898912D01*
X5656314Y3962949D01*
X5671281Y4030134D01*
X5682342Y4100368D01*
X5688394Y4159268D01*
X5689419Y4176737D01*
X5690100Y4198202D01*
X5690452Y4222675D01*
X5690492Y4249169D01*
X5690235Y4276696D01*
X5689698Y4304268D01*
X5688897Y4330898D01*
X5687848Y4355598D01*
X5686567Y4377379D01*
X5685070Y4395255D01*
X5684464Y4400690D01*
X5674045Y4471031D01*
X5660402Y4537384D01*
X5643458Y4599976D01*
X5623137Y4659038D01*
X5599360Y4714798D01*
X5572052Y4767486D01*
X5548297Y4806527D01*
X5514949Y4853365D01*
X5477850Y4897313D01*
X5437505Y4937873D01*
X5394420Y4974549D01*
X5349101Y5006847D01*
X5335587Y5015339D01*
X5290246Y5040280D01*
X5241219Y5062206D01*
X5189311Y5080847D01*
X5135328Y5095932D01*
X5080075Y5107191D01*
X5048745Y5111740D01*
X5033443Y5113154D01*
X5014109Y5114198D01*
X4991793Y5114878D01*
X4967544Y5115201D01*
X4942414Y5115175D01*
X4917454Y5114806D01*
X4893712Y5114102D01*
X4872241Y5113070D01*
X4854089Y5111717D01*
X4842166Y5110336D01*
X4781026Y5099359D01*
X4723599Y5084849D01*
X4669600Y5066695D01*
X4618742Y5044783D01*
X4570738Y5019001D01*
X4525303Y4989238D01*
X4516232Y4982600D01*
X4470505Y4945250D01*
X4428286Y4904029D01*
X4389619Y4859026D01*
X4354548Y4810333D01*
X4323116Y4758038D01*
X4295367Y4702233D01*
X4271345Y4643007D01*
X4251093Y4580452D01*
X4234656Y4514657D01*
X4222076Y4445712D01*
X4213398Y4373708D01*
X4211696Y4353321D01*
X4210657Y4334706D01*
X4209993Y4312123D01*
X4209685Y4286613D01*
X3759678Y4286613D01*
X3759943Y4309493D01*
X3761889Y4359328D01*
G37*
G36*
X-5293221Y4368169D02*
G01*
X-5287350Y4437578D01*
X-5279914Y4495426D01*
X-5265254Y4576846D01*
X-5246238Y4656362D01*
X-5222988Y4733575D01*
X-5195628Y4808086D01*
X-5164283Y4879496D01*
X-5154700Y4899097D01*
X-5143615Y4921010D01*
X-5133787Y4939796D01*
X-5124472Y4956738D01*
X-5114928Y4973123D01*
X-5104409Y4990235D01*
X-5092173Y5009359D01*
X-5080992Y5026447D01*
X-5036744Y5088938D01*
X-4988761Y5147742D01*
X-4937148Y5202771D01*
X-4882009Y5253935D01*
X-4823450Y5301148D01*
X-4761576Y5344322D01*
X-4696490Y5383367D01*
X-4628298Y5418197D01*
X-4598367Y5431717D01*
X-4529867Y5458719D01*
X-4458671Y5481437D01*
X-4385198Y5499826D01*
X-4309870Y5513844D01*
X-4233104Y5523448D01*
X-4155322Y5528595D01*
X-4076943Y5529241D01*
X-3998387Y5525344D01*
X-3920074Y5516861D01*
X-3861176Y5507357D01*
X-3786861Y5491066D01*
X-3713854Y5469971D01*
X-3642534Y5444244D01*
X-3573281Y5414056D01*
X-3506473Y5379577D01*
X-3442491Y5340978D01*
X-3381712Y5298433D01*
X-3358370Y5280337D01*
X-3301851Y5231879D01*
X-3248683Y5179463D01*
X-3198980Y5123285D01*
X-3152855Y5063537D01*
X-3110422Y5000413D01*
X-3071795Y4934107D01*
X-3037089Y4864811D01*
X-3006417Y4792720D01*
X-2979893Y4718028D01*
X-2957631Y4640927D01*
X-2942026Y4573058D01*
X-2934460Y4534006D01*
X-2928237Y4497381D01*
X-2923233Y4462001D01*
X-2919328Y4426684D01*
X-2916398Y4390249D01*
X-2914323Y4351514D01*
X-2912981Y4309297D01*
X-2912559Y4287320D01*
X-2912152Y4249954D01*
X-2912221Y4216696D01*
X-2912816Y4186407D01*
X-2913988Y4157950D01*
X-2915787Y4130184D01*
X-2918265Y4101973D01*
X-2921473Y4072178D01*
X-2922613Y4062532D01*
X-2934832Y3980466D01*
X-2951461Y3900402D01*
X-2972404Y3822528D01*
X-2997567Y3747035D01*
X-3026856Y3674112D01*
X-3060175Y3603946D01*
X-3097431Y3536729D01*
X-3138529Y3472649D01*
X-3183375Y3411895D01*
X-3231874Y3354657D01*
X-3283931Y3301124D01*
X-3318710Y3269211D01*
X-3378032Y3220623D01*
X-3440131Y3176492D01*
X-3504942Y3136843D01*
X-3572401Y3101702D01*
X-3642444Y3071095D01*
X-3715006Y3045048D01*
X-3790024Y3023586D01*
X-3867434Y3006736D01*
X-3947171Y2994523D01*
X-4019676Y2987599D01*
X-4033530Y2986862D01*
X-4051095Y2986269D01*
X-4071242Y2985825D01*
X-4092845Y2985538D01*
X-4114776Y2985414D01*
X-4135909Y2985459D01*
X-4155116Y2985681D01*
X-4171270Y2986085D01*
X-4182834Y2986649D01*
X-4221640Y2989643D01*
X-4255854Y2992876D01*
X-4286144Y2996417D01*
X-4299714Y2998277D01*
X-4378242Y3012125D01*
X-4454441Y3030633D01*
X-4528248Y3053778D01*
X-4599600Y3081537D01*
X-4668436Y3113886D01*
X-4734694Y3150801D01*
X-4784654Y3182823D01*
X-4838136Y3221937D01*
X-4890370Y3265568D01*
X-4940629Y3312995D01*
X-4988186Y3363498D01*
X-5032312Y3416356D01*
X-5065219Y3460658D01*
X-5105465Y3522341D01*
X-5142280Y3587757D01*
X-5175519Y3656527D01*
X-5205034Y3728270D01*
X-5230678Y3802607D01*
X-5252306Y3879156D01*
X-5269769Y3957538D01*
X-5279922Y4016479D01*
X-5288269Y4083151D01*
X-5293772Y4152941D01*
X-5296432Y4224565D01*
X-5296310Y4272516D01*
X-4847513Y4272516D01*
X-4846414Y4201448D01*
X-4841450Y4130846D01*
X-4832601Y4061405D01*
X-4819847Y3993820D01*
X-4814382Y3970426D01*
X-4797339Y3909004D01*
X-4777333Y3851560D01*
X-4754121Y3797569D01*
X-4727461Y3746502D01*
X-4697111Y3697835D01*
X-4674334Y3665965D01*
X-4636979Y3620639D01*
X-4596120Y3579158D01*
X-4551972Y3541643D01*
X-4504749Y3508214D01*
X-4454664Y3478991D01*
X-4401932Y3454094D01*
X-4346767Y3433644D01*
X-4289382Y3417760D01*
X-4229992Y3406562D01*
X-4206518Y3403512D01*
X-4194413Y3402134D01*
X-4183236Y3400860D01*
X-4174748Y3399893D01*
X-4172308Y3399614D01*
X-4163605Y3399051D01*
X-4150593Y3398767D01*
X-4134216Y3398737D01*
X-4115421Y3398935D01*
X-4095151Y3399334D01*
X-4074352Y3399909D01*
X-4053970Y3400635D01*
X-4034948Y3401484D01*
X-4018233Y3402432D01*
X-4004769Y3403452D01*
X-3995992Y3404443D01*
X-3945684Y3413209D01*
X-3899307Y3423969D01*
X-3855799Y3437055D01*
X-3814095Y3452799D01*
X-3773134Y3471534D01*
X-3759843Y3478302D01*
X-3709387Y3507550D01*
X-3662043Y3541035D01*
X-3617847Y3578726D01*
X-3576836Y3620589D01*
X-3539046Y3666592D01*
X-3515773Y3699374D01*
X-3484807Y3749287D01*
X-3457594Y3801053D01*
X-3434003Y3855068D01*
X-3413898Y3911727D01*
X-3397145Y3971427D01*
X-3383610Y4034564D01*
X-3373159Y4101535D01*
X-3369651Y4130953D01*
X-3368250Y4147261D01*
X-3367077Y4167752D01*
X-3366147Y4191350D01*
X-3365474Y4216980D01*
X-3365072Y4243566D01*
X-3364956Y4270033D01*
X-3365139Y4295305D01*
X-3365636Y4318305D01*
X-3366461Y4337959D01*
X-3366848Y4344111D01*
X-3374177Y4418894D01*
X-3385405Y4490232D01*
X-3400526Y4558107D01*
X-3419531Y4622500D01*
X-3442414Y4683393D01*
X-3469168Y4740766D01*
X-3499783Y4794603D01*
X-3534255Y4844884D01*
X-3572574Y4891592D01*
X-3598624Y4919111D01*
X-3641298Y4958352D01*
X-3686452Y4993156D01*
X-3734240Y5023597D01*
X-3784812Y5049750D01*
X-3838322Y5071687D01*
X-3894921Y5089485D01*
X-3954763Y5103217D01*
X-3988097Y5108910D01*
X-4001043Y5110785D01*
X-4012798Y5112243D01*
X-4024318Y5113333D01*
X-4036558Y5114106D01*
X-4050476Y5114611D01*
X-4067027Y5114898D01*
X-4087168Y5115017D01*
X-4105203Y5115027D01*
X-4134134Y5114856D01*
X-4158907Y5114336D01*
X-4180624Y5113370D01*
X-4200383Y5111862D01*
X-4219284Y5109718D01*
X-4238428Y5106842D01*
X-4258914Y5103139D01*
X-4272012Y5100539D01*
X-4330471Y5086076D01*
X-4386424Y5067031D01*
X-4439755Y5043515D01*
X-4490348Y5015637D01*
X-4538085Y4983505D01*
X-4582850Y4947229D01*
X-4624527Y4906919D01*
X-4662998Y4862683D01*
X-4698146Y4814631D01*
X-4729856Y4762871D01*
X-4758009Y4707514D01*
X-4782490Y4648668D01*
X-4795748Y4610557D01*
X-4813669Y4547570D01*
X-4827826Y4481579D01*
X-4838199Y4413276D01*
X-4844768Y4343357D01*
X-4847513Y4272516D01*
X-5296310Y4272516D01*
X-5296248Y4296736D01*
X-5293221Y4368169D01*
G37*
G36*
X-6577492Y5524301D02*
G01*
X-6499612Y5518021D01*
X-6422942Y5507484D01*
X-6347936Y5492737D01*
X-6275045Y5473827D01*
X-6204725Y5450800D01*
X-6151255Y5429714D01*
X-6083683Y5398198D01*
X-6019584Y5362759D01*
X-5959045Y5323506D01*
X-5902153Y5280543D01*
X-5848993Y5233979D01*
X-5799652Y5183919D01*
X-5754217Y5130470D01*
X-5712774Y5073740D01*
X-5675409Y5013833D01*
X-5642209Y4950858D01*
X-5613261Y4884920D01*
X-5588649Y4816127D01*
X-5568462Y4744584D01*
X-5557969Y4697727D01*
X-5555438Y4684982D01*
X-5553344Y4674014D01*
X-5551886Y4665902D01*
X-5551264Y4661726D01*
X-5551255Y4661529D01*
X-5552747Y4660973D01*
X-5557364Y4660493D01*
X-5565318Y4660086D01*
X-5576822Y4659751D01*
X-5592087Y4659484D01*
X-5611328Y4659285D01*
X-5634755Y4659151D01*
X-5662581Y4659079D01*
X-5695018Y4659068D01*
X-5732280Y4659115D01*
X-5774577Y4659219D01*
X-5777629Y4659228D01*
X-6004002Y4659900D01*
X-6013456Y4687532D01*
X-6034453Y4741105D01*
X-6059755Y4791653D01*
X-6089374Y4839195D01*
X-6123322Y4883752D01*
X-6153767Y4917428D01*
X-6185875Y4948504D01*
X-6218059Y4975566D01*
X-6251726Y4999646D01*
X-6288281Y5021778D01*
X-6315729Y5036353D01*
X-6363952Y5058387D01*
X-6414270Y5076675D01*
X-6467252Y5091381D01*
X-6523466Y5102668D01*
X-6568361Y5109022D01*
X-6585335Y5110521D01*
X-6606347Y5111580D01*
X-6630219Y5112205D01*
X-6655771Y5112406D01*
X-6681823Y5112191D01*
X-6707198Y5111570D01*
X-6730715Y5110549D01*
X-6751196Y5109139D01*
X-6765729Y5107588D01*
X-6825495Y5097671D01*
X-6881522Y5084391D01*
X-6934242Y5067591D01*
X-6984086Y5047118D01*
X-7031485Y5022817D01*
X-7071648Y4998056D01*
X-7118661Y4963538D01*
X-7162304Y4925034D01*
X-7202517Y4882647D01*
X-7239245Y4836482D01*
X-7272428Y4786642D01*
X-7302009Y4733231D01*
X-7327929Y4676352D01*
X-7350133Y4616109D01*
X-7368560Y4552605D01*
X-7383154Y4485945D01*
X-7393168Y4421742D01*
X-7400357Y4349009D01*
X-7403451Y4276420D01*
X-7402508Y4204430D01*
X-7397587Y4133496D01*
X-7388746Y4064074D01*
X-7376045Y3996620D01*
X-7359542Y3931590D01*
X-7339296Y3869440D01*
X-7315367Y3810627D01*
X-7313841Y3807268D01*
X-7286095Y3752540D01*
X-7254526Y3701139D01*
X-7219327Y3653227D01*
X-7180691Y3608964D01*
X-7138813Y3568510D01*
X-7093884Y3532025D01*
X-7046100Y3499672D01*
X-6995654Y3471609D01*
X-6942738Y3447998D01*
X-6887548Y3428999D01*
X-6844152Y3417733D01*
X-6820618Y3412630D01*
X-6799715Y3408558D01*
X-6780339Y3405406D01*
X-6761386Y3403064D01*
X-6741753Y3401421D01*
X-6720338Y3400367D01*
X-6696037Y3399790D01*
X-6667746Y3399581D01*
X-6663097Y3399575D01*
X-6633370Y3399697D01*
X-6607824Y3400178D01*
X-6585387Y3401116D01*
X-6564983Y3402606D01*
X-6545540Y3404744D01*
X-6525981Y3407626D01*
X-6505235Y3411348D01*
X-6484328Y3415565D01*
X-6424788Y3430418D01*
X-6368143Y3449378D01*
X-6314539Y3472324D01*
X-6264120Y3499138D01*
X-6217033Y3529697D01*
X-6173423Y3563883D01*
X-6133436Y3601574D01*
X-6097218Y3642651D01*
X-6064915Y3686994D01*
X-6036671Y3734481D01*
X-6012634Y3784993D01*
X-6001083Y3814505D01*
X-5989871Y3845426D01*
X-5544042Y3845426D01*
X-5548819Y3822133D01*
X-5566124Y3750560D01*
X-5588179Y3681159D01*
X-5614870Y3614092D01*
X-5646082Y3549522D01*
X-5681700Y3487609D01*
X-5721612Y3428517D01*
X-5765702Y3372406D01*
X-5813856Y3319440D01*
X-5865961Y3269779D01*
X-5921901Y3223586D01*
X-5981562Y3181022D01*
X-6017047Y3158535D01*
X-6083454Y3121324D01*
X-6152724Y3088456D01*
X-6224664Y3059990D01*
X-6299080Y3035984D01*
X-6375778Y3016497D01*
X-6454565Y3001589D01*
X-6535246Y2991316D01*
X-6581474Y2987592D01*
X-6604163Y2986482D01*
X-6630632Y2985749D01*
X-6659407Y2985394D01*
X-6689020Y2985412D01*
X-6717998Y2985805D01*
X-6744871Y2986568D01*
X-6768168Y2987702D01*
X-6769676Y2987798D01*
X-6849332Y2995354D01*
X-6927208Y3007491D01*
X-7003091Y3024138D01*
X-7076771Y3045223D01*
X-7148034Y3070674D01*
X-7216668Y3100419D01*
X-7282463Y3134386D01*
X-7345204Y3172503D01*
X-7375156Y3192948D01*
X-7409153Y3218523D01*
X-7444352Y3247711D01*
X-7479609Y3279432D01*
X-7513778Y3312603D01*
X-7545713Y3346142D01*
X-7574270Y3378970D01*
X-7581221Y3387532D01*
X-7625932Y3447688D01*
X-7666873Y3511414D01*
X-7703960Y3578517D01*
X-7737106Y3648809D01*
X-7766226Y3722097D01*
X-7791234Y3798192D01*
X-7812044Y3876903D01*
X-7822033Y3923058D01*
X-7835738Y4003158D01*
X-7845486Y4085617D01*
X-7851275Y4169595D01*
X-7853107Y4254249D01*
X-7850980Y4338737D01*
X-7844896Y4422218D01*
X-7834854Y4503851D01*
X-7822036Y4577005D01*
X-7803873Y4655296D01*
X-7781549Y4731307D01*
X-7755183Y4804820D01*
X-7724896Y4875616D01*
X-7690807Y4943474D01*
X-7653037Y5008176D01*
X-7611704Y5069502D01*
X-7566929Y5127233D01*
X-7518830Y5181149D01*
X-7467529Y5231031D01*
X-7462723Y5235348D01*
X-7403917Y5284327D01*
X-7342313Y5328853D01*
X-7277948Y5368911D01*
X-7210858Y5404481D01*
X-7141081Y5435548D01*
X-7068651Y5462093D01*
X-6993606Y5484099D01*
X-6915983Y5501550D01*
X-6892045Y5505920D01*
X-6813858Y5517134D01*
X-6735068Y5523904D01*
X-6656128Y5526278D01*
X-6577492Y5524301D01*
G37*
G36*
X3369795Y4575032D02*
G01*
X3369787Y4484833D01*
X3369764Y4398831D01*
X3369725Y4317085D01*
X3369671Y4239653D01*
X3369603Y4166595D01*
X3369519Y4097971D01*
X3369421Y4033839D01*
X3369309Y3974260D01*
X3369182Y3919291D01*
X3369041Y3868992D01*
X3368886Y3823423D01*
X3368718Y3782642D01*
X3368536Y3746710D01*
X3368340Y3715685D01*
X3368131Y3689626D01*
X3367910Y3668593D01*
X3367675Y3652645D01*
X3367427Y3641841D01*
X3367167Y3636240D01*
X3367165Y3636216D01*
X3359045Y3572446D01*
X3346534Y3511322D01*
X3329688Y3452940D01*
X3308562Y3397398D01*
X3283210Y3344792D01*
X3253689Y3295222D01*
X3220052Y3248783D01*
X3182355Y3205574D01*
X3140654Y3165692D01*
X3095003Y3129234D01*
X3071113Y3112586D01*
X3022166Y3082653D01*
X2971166Y3056746D01*
X2917719Y3034725D01*
X2861431Y3016448D01*
X2801909Y3001775D01*
X2738759Y2990564D01*
X2724520Y2988573D01*
X2713932Y2987514D01*
X2699002Y2986515D01*
X2680649Y2985598D01*
X2659794Y2984782D01*
X2637357Y2984089D01*
X2614259Y2983539D01*
X2591418Y2983153D01*
X2569757Y2982951D01*
X2550194Y2982954D01*
X2533651Y2983182D01*
X2521047Y2983656D01*
X2517166Y2983932D01*
X2450974Y2991503D01*
X2388690Y3002372D01*
X2330040Y3016639D01*
X2274751Y3034403D01*
X2222550Y3055766D01*
X2173163Y3080827D01*
X2126317Y3109687D01*
X2081739Y3142445D01*
X2079008Y3144635D01*
X2038528Y3180621D01*
X2001325Y3220588D01*
X1967541Y3264290D01*
X1937319Y3311481D01*
X1910800Y3361914D01*
X1888127Y3415342D01*
X1869441Y3471521D01*
X1854884Y3530203D01*
X1853926Y3534881D01*
X1850230Y3553721D01*
X1847129Y3570938D01*
X1844563Y3587271D01*
X1842472Y3603458D01*
X1840796Y3620236D01*
X1839474Y3638344D01*
X1838448Y3658520D01*
X1837655Y3681502D01*
X1837036Y3708028D01*
X1836532Y3738836D01*
X1836380Y3750032D01*
X1834935Y3861216D01*
X2248303Y3861216D01*
X2249400Y3763190D01*
X2249791Y3733713D01*
X2250297Y3708809D01*
X2250994Y3687787D01*
X2251958Y3669958D01*
X2253264Y3654630D01*
X2254989Y3641115D01*
X2257207Y3628721D01*
X2259994Y3616758D01*
X2263426Y3604536D01*
X2267579Y3591366D01*
X2268556Y3588396D01*
X2279559Y3558911D01*
X2292086Y3533182D01*
X2307018Y3509743D01*
X2325234Y3487128D01*
X2336697Y3474792D01*
X2363260Y3450606D01*
X2392581Y3430190D01*
X2425021Y3413364D01*
X2460945Y3399949D01*
X2500716Y3389766D01*
X2514481Y3387132D01*
X2528892Y3384882D01*
X2543488Y3383303D01*
X2559633Y3382300D01*
X2578693Y3381782D01*
X2594797Y3381656D01*
X2635103Y3382648D01*
X2671410Y3385916D01*
X2704538Y3391620D01*
X2735306Y3399921D01*
X2764537Y3410979D01*
X2779008Y3417679D01*
X2811777Y3436561D01*
X2840867Y3459202D01*
X2866271Y3485591D01*
X2887982Y3515717D01*
X2905993Y3549568D01*
X2920298Y3587134D01*
X2930889Y3628404D01*
X2937760Y3673366D01*
X2938099Y3676626D01*
X2938391Y3682059D01*
X2938666Y3692420D01*
X2938925Y3707729D01*
X2939167Y3728005D01*
X2939392Y3753267D01*
X2939602Y3783533D01*
X2939794Y3818824D01*
X2939970Y3859158D01*
X2940131Y3904554D01*
X2940274Y3955032D01*
X2940402Y4010609D01*
X2940514Y4071307D01*
X2940609Y4137143D01*
X2940689Y4208137D01*
X2940752Y4284307D01*
X2940800Y4365673D01*
X2940832Y4452255D01*
X2940848Y4544070D01*
X2940850Y4594389D01*
X2940850Y5484900D01*
X3369797Y5484900D01*
X3369795Y4575032D01*
G37*
G36*
X224940Y1871084D02*
G01*
X238887Y1824364D01*
X251428Y1782337D01*
X262657Y1744653D01*
X272672Y1710962D01*
X281569Y1680914D01*
X289444Y1654157D01*
X296394Y1630343D01*
X302515Y1609121D01*
X307904Y1590140D01*
X312657Y1573050D01*
X316870Y1557501D01*
X320640Y1543143D01*
X324064Y1529625D01*
X327238Y1516597D01*
X330258Y1503709D01*
X333220Y1490610D01*
X336222Y1476950D01*
X339360Y1462379D01*
X342730Y1446547D01*
X345757Y1432268D01*
X346714Y1428546D01*
X347670Y1427613D01*
X348887Y1430037D01*
X350626Y1436386D01*
X353148Y1447227D01*
X353632Y1449374D01*
X356446Y1461444D01*
X359771Y1474862D01*
X363686Y1489898D01*
X368272Y1506824D01*
X373609Y1525912D01*
X379777Y1547432D01*
X386858Y1571657D01*
X394930Y1598857D01*
X404075Y1629305D01*
X414372Y1663271D01*
X425902Y1701027D01*
X438746Y1742844D01*
X452982Y1788994D01*
X468693Y1839749D01*
X477392Y1867795D01*
X563965Y2146742D01*
X697130Y2146742D01*
X783453Y1866479D01*
X798542Y1817471D01*
X812159Y1773186D01*
X824394Y1733321D01*
X835336Y1697573D01*
X845075Y1665639D01*
X853700Y1637214D01*
X861299Y1611997D01*
X867963Y1589683D01*
X873780Y1569970D01*
X878840Y1552554D01*
X883231Y1537132D01*
X887044Y1523400D01*
X890366Y1511057D01*
X893288Y1499797D01*
X895899Y1489318D01*
X898288Y1479316D01*
X900543Y1469489D01*
X901512Y1465164D01*
X904489Y1451978D01*
X907106Y1440758D01*
X909138Y1432441D01*
X910358Y1427966D01*
X910565Y1427466D01*
X911339Y1427708D01*
X912388Y1430274D01*
X913888Y1435833D01*
X916015Y1445056D01*
X918945Y1458612D01*
X919775Y1462532D01*
X921816Y1472010D01*
X923960Y1481556D01*
X926297Y1491483D01*
X928915Y1502103D01*
X931903Y1513727D01*
X935351Y1526667D01*
X939347Y1541236D01*
X943982Y1557745D01*
X949343Y1576507D01*
X955520Y1597834D01*
X962603Y1622037D01*
X970680Y1649429D01*
X979840Y1680322D01*
X990172Y1715027D01*
X1001767Y1753857D01*
X1014712Y1797124D01*
X1027999Y1841479D01*
X1039373Y1879424D01*
X1050358Y1916063D01*
X1060857Y1951070D01*
X1070770Y1984116D01*
X1079999Y2014875D01*
X1088447Y2043018D01*
X1096014Y2068219D01*
X1102603Y2090149D01*
X1108115Y2108482D01*
X1112452Y2122890D01*
X1115516Y2133045D01*
X1117207Y2138620D01*
X1117481Y2139505D01*
X1120205Y2148058D01*
X1181843Y2148058D01*
X1199762Y2147961D01*
X1215485Y2147689D01*
X1228338Y2147266D01*
X1237644Y2146719D01*
X1242729Y2146074D01*
X1243482Y2145693D01*
X1242738Y2143043D01*
X1240567Y2135663D01*
X1237064Y2123860D01*
X1232320Y2107943D01*
X1226428Y2088221D01*
X1219481Y2065001D01*
X1211571Y2038592D01*
X1202792Y2009303D01*
X1193236Y1977442D01*
X1182995Y1943317D01*
X1172164Y1907237D01*
X1160833Y1869511D01*
X1149097Y1830445D01*
X1137048Y1790350D01*
X1124778Y1749533D01*
X1112380Y1708302D01*
X1099948Y1666967D01*
X1087573Y1625835D01*
X1075349Y1585216D01*
X1063368Y1545416D01*
X1051724Y1506745D01*
X1040508Y1469512D01*
X1029814Y1434024D01*
X1019734Y1400589D01*
X1010361Y1369518D01*
X1001787Y1341116D01*
X994107Y1315694D01*
X987411Y1293560D01*
X981794Y1275021D01*
X977348Y1260386D01*
X974165Y1249965D01*
X972338Y1244064D01*
X972143Y1243453D01*
X969389Y1234900D01*
X852463Y1234900D01*
X742175Y1595426D01*
X729265Y1637599D01*
X716763Y1678370D01*
X704758Y1717459D01*
X693338Y1754584D01*
X682588Y1789464D01*
X672596Y1821816D01*
X663451Y1851361D01*
X655238Y1877815D01*
X648045Y1900897D01*
X641960Y1920326D01*
X637069Y1935821D01*
X633461Y1947100D01*
X631221Y1953881D01*
X630448Y1955905D01*
X629512Y1953433D01*
X627117Y1946222D01*
X623356Y1934564D01*
X618320Y1918749D01*
X612099Y1899070D01*
X604786Y1875817D01*
X596470Y1849283D01*
X587244Y1819757D01*
X577199Y1787532D01*
X566425Y1752898D01*
X555015Y1716148D01*
X543059Y1677572D01*
X530648Y1637461D01*
X525166Y1619721D01*
X512443Y1578536D01*
X500054Y1538437D01*
X488099Y1499744D01*
X476677Y1462775D01*
X465887Y1427852D01*
X455826Y1395295D01*
X446595Y1365422D01*
X438292Y1338554D01*
X431016Y1315012D01*
X424866Y1295114D01*
X419940Y1279181D01*
X416338Y1267532D01*
X414158Y1260489D01*
X413771Y1259242D01*
X406219Y1234900D01*
X286547Y1234900D01*
X161916Y1653979D01*
X148163Y1700226D01*
X134701Y1745495D01*
X121618Y1789492D01*
X109000Y1831924D01*
X96936Y1872496D01*
X85513Y1910914D01*
X74818Y1946884D01*
X64939Y1980111D01*
X55964Y2010302D01*
X47979Y2037162D01*
X41072Y2060397D01*
X35331Y2079713D01*
X30843Y2094816D01*
X27696Y2105411D01*
X26168Y2110558D01*
X15051Y2148058D01*
X142250Y2148058D01*
X224940Y1871084D01*
G37*
G36*
X-80203Y2034900D02*
G01*
X-511782Y2034900D01*
X-511782Y1748058D01*
X-122308Y1748058D01*
X-122308Y1640163D01*
X-511782Y1640163D01*
X-511782Y1348058D01*
X-80203Y1348058D01*
X-80203Y1234900D01*
X-635466Y1234900D01*
X-635466Y2148058D01*
X-80203Y2148058D01*
X-80203Y2034900D01*
G37*
G36*
X-1172308Y1348058D02*
G01*
X-769676Y1348058D01*
X-769676Y1234900D01*
X-1293361Y1234900D01*
X-1293361Y2148058D01*
X-1172308Y2148058D01*
X-1172308Y1348058D01*
G37*
G36*
X-2582834Y1234900D02*
G01*
X-2706518Y1234900D01*
X-2706518Y2148058D01*
X-2582834Y2148058D01*
X-2582834Y1234900D01*
G37*
G36*
X-2832834Y2034900D02*
G01*
X-3106518Y2034900D01*
X-3106518Y1234900D01*
X-3227571Y1234900D01*
X-3227571Y2034900D01*
X-3503887Y2034900D01*
X-3503887Y2148058D01*
X-2832834Y2148058D01*
X-2832834Y2034900D01*
G37*
G36*
X-4029545Y2147314D02*
G01*
X-3992348Y2147102D01*
X-3960009Y2146899D01*
X-3932124Y2146693D01*
X-3908288Y2146473D01*
X-3888097Y2146227D01*
X-3871146Y2145942D01*
X-3857030Y2145607D01*
X-3845344Y2145210D01*
X-3835685Y2144740D01*
X-3827647Y2144184D01*
X-3820825Y2143530D01*
X-3814815Y2142767D01*
X-3809213Y2141883D01*
X-3803614Y2140866D01*
X-3802571Y2140667D01*
X-3761751Y2130753D01*
X-3724913Y2117407D01*
X-3692030Y2100603D01*
X-3663073Y2080320D01*
X-3638014Y2056531D01*
X-3616825Y2029214D01*
X-3599479Y1998344D01*
X-3585946Y1963897D01*
X-3582319Y1951764D01*
X-3580323Y1944015D01*
X-3578836Y1936508D01*
X-3577781Y1928278D01*
X-3577084Y1918358D01*
X-3576669Y1905780D01*
X-3576461Y1889577D01*
X-3576399Y1875690D01*
X-3576402Y1856543D01*
X-3576574Y1841652D01*
X-3576992Y1830010D01*
X-3577732Y1820610D01*
X-3578871Y1812446D01*
X-3580486Y1804512D01*
X-3582408Y1796742D01*
X-3594062Y1761517D01*
X-3609836Y1729526D01*
X-3629631Y1700884D01*
X-3653347Y1675707D01*
X-3680882Y1654110D01*
X-3712137Y1636209D01*
X-3728047Y1629120D01*
X-3737407Y1625046D01*
X-3744540Y1621471D01*
X-3748309Y1618984D01*
X-3748624Y1618464D01*
X-3747516Y1615867D01*
X-3744332Y1608971D01*
X-3739285Y1598217D01*
X-3732586Y1584048D01*
X-3724447Y1566904D01*
X-3715079Y1547228D01*
X-3704695Y1525461D01*
X-3693505Y1502044D01*
X-3681722Y1477420D01*
X-3669557Y1452028D01*
X-3657222Y1426312D01*
X-3644928Y1400713D01*
X-3632888Y1375672D01*
X-3621312Y1351630D01*
X-3610413Y1329030D01*
X-3600403Y1308312D01*
X-3591492Y1289919D01*
X-3583893Y1274291D01*
X-3577817Y1261871D01*
X-3573476Y1253100D01*
X-3573235Y1252619D01*
X-3564303Y1234812D01*
X-3701361Y1236216D01*
X-3786476Y1416479D01*
X-3871592Y1596742D01*
X-4105203Y1596742D01*
X-4106555Y1234900D01*
X-4227571Y1234900D01*
X-4227571Y1705648D01*
X-4106518Y1705648D01*
X-3971650Y1706589D01*
X-3940923Y1706821D01*
X-3914990Y1707061D01*
X-3893378Y1707329D01*
X-3875619Y1707640D01*
X-3861242Y1708012D01*
X-3849777Y1708462D01*
X-3840753Y1709007D01*
X-3833701Y1709665D01*
X-3828149Y1710452D01*
X-3823628Y1711386D01*
X-3820992Y1712088D01*
X-3793346Y1722334D01*
X-3768687Y1736104D01*
X-3747555Y1753021D01*
X-3730491Y1772707D01*
X-3727221Y1777551D01*
X-3715719Y1799977D01*
X-3707765Y1825190D01*
X-3703361Y1852155D01*
X-3702513Y1879835D01*
X-3705222Y1907196D01*
X-3711494Y1933199D01*
X-3721331Y1956811D01*
X-3726565Y1965825D01*
X-3743088Y1986815D01*
X-3763603Y2004503D01*
X-3787885Y2018730D01*
X-3815703Y2029336D01*
X-3818886Y2030251D01*
X-3823706Y2031542D01*
X-3828466Y2032629D01*
X-3833663Y2033532D01*
X-3839792Y2034274D01*
X-3847349Y2034876D01*
X-3856830Y2035360D01*
X-3868732Y2035746D01*
X-3883550Y2036057D01*
X-3901780Y2036314D01*
X-3923918Y2036537D01*
X-3950460Y2036750D01*
X-3972966Y2036910D01*
X-4106518Y2037839D01*
X-4106518Y1705648D01*
X-4227571Y1705648D01*
X-4227571Y2148414D01*
X-4029545Y2147314D01*
G37*
G36*
X-5816400Y1888622D02*
G01*
X-5815729Y1629185D01*
X-5612012Y1888622D01*
X-5408295Y2148058D01*
X-5261799Y2148058D01*
X-5315243Y2080295D01*
X-5348770Y2037784D01*
X-5379188Y1999210D01*
X-5406645Y1964381D01*
X-5431291Y1933102D01*
X-5453277Y1905178D01*
X-5472751Y1880416D01*
X-5489864Y1858621D01*
X-5504765Y1839599D01*
X-5517603Y1823156D01*
X-5528529Y1809098D01*
X-5537692Y1797230D01*
X-5545242Y1787359D01*
X-5551328Y1779291D01*
X-5556100Y1772830D01*
X-5559707Y1767783D01*
X-5562301Y1763956D01*
X-5564029Y1761155D01*
X-5565042Y1759186D01*
X-5565489Y1757853D01*
X-5565521Y1756964D01*
X-5565286Y1756324D01*
X-5565148Y1756089D01*
X-5563487Y1753302D01*
X-5559328Y1746290D01*
X-5552853Y1735360D01*
X-5544244Y1720817D01*
X-5533680Y1702968D01*
X-5521344Y1682120D01*
X-5507416Y1658577D01*
X-5492078Y1632647D01*
X-5475511Y1604635D01*
X-5457895Y1574848D01*
X-5439413Y1543592D01*
X-5424937Y1519111D01*
X-5405599Y1486403D01*
X-5386771Y1454561D01*
X-5368657Y1423928D01*
X-5351462Y1394850D01*
X-5335389Y1367671D01*
X-5320642Y1342735D01*
X-5307424Y1320388D01*
X-5295940Y1300973D01*
X-5286394Y1284836D01*
X-5278989Y1272321D01*
X-5273929Y1263773D01*
X-5272024Y1260558D01*
X-5256809Y1234900D01*
X-5328374Y1235028D01*
X-5399940Y1235155D01*
X-5520992Y1440620D01*
X-5538815Y1470850D01*
X-5555933Y1499844D01*
X-5572149Y1527272D01*
X-5587270Y1552806D01*
X-5601098Y1576115D01*
X-5613438Y1596872D01*
X-5624095Y1614747D01*
X-5632873Y1629411D01*
X-5639576Y1640534D01*
X-5644008Y1647788D01*
X-5645974Y1650844D01*
X-5645992Y1650867D01*
X-5647054Y1651710D01*
X-5648506Y1651707D01*
X-5650620Y1650545D01*
X-5653669Y1647907D01*
X-5657925Y1643480D01*
X-5663661Y1636949D01*
X-5671149Y1627999D01*
X-5680661Y1616315D01*
X-5692471Y1601583D01*
X-5706850Y1583487D01*
X-5724071Y1561714D01*
X-5733414Y1549880D01*
X-5816889Y1444111D01*
X-5816967Y1339505D01*
X-5817045Y1234900D01*
X-5938097Y1234900D01*
X-5938097Y2148058D01*
X-5817070Y2148058D01*
X-5816400Y1888622D01*
G37*
G36*
X-7036427Y2147589D02*
G01*
X-7023594Y2147358D01*
X-7014518Y2146899D01*
X-7008695Y2146195D01*
X-7005625Y2145226D01*
X-7005102Y2144814D01*
X-7003162Y2141787D01*
X-6998918Y2134556D01*
X-6992598Y2123531D01*
X-6984428Y2109124D01*
X-6974636Y2091743D01*
X-6963449Y2071801D01*
X-6951095Y2049707D01*
X-6937802Y2025871D01*
X-6923796Y2000705D01*
X-6909305Y1974618D01*
X-6894556Y1948021D01*
X-6879777Y1921325D01*
X-6865195Y1894939D01*
X-6851038Y1869275D01*
X-6837532Y1844742D01*
X-6824906Y1821752D01*
X-6813387Y1800714D01*
X-6803201Y1782039D01*
X-6794577Y1766137D01*
X-6787742Y1753419D01*
X-6782923Y1744296D01*
X-6780348Y1739177D01*
X-6780240Y1738941D01*
X-6772022Y1720614D01*
X-6752762Y1758678D01*
X-6748310Y1767251D01*
X-6741549Y1779958D01*
X-6732731Y1796338D01*
X-6722109Y1815928D01*
X-6709936Y1838265D01*
X-6696464Y1862886D01*
X-6681945Y1889330D01*
X-6666633Y1917133D01*
X-6650780Y1945833D01*
X-6636428Y1971742D01*
X-6539353Y2146742D01*
X-6472936Y2147445D01*
X-6454864Y2147578D01*
X-6438663Y2147584D01*
X-6425034Y2147473D01*
X-6414678Y2147254D01*
X-6408295Y2146935D01*
X-6406518Y2146598D01*
X-6407790Y2144153D01*
X-6411498Y2137416D01*
X-6417482Y2126669D01*
X-6425582Y2112198D01*
X-6435638Y2094288D01*
X-6447489Y2073223D01*
X-6460974Y2049288D01*
X-6475934Y2022768D01*
X-6492208Y1993946D01*
X-6509636Y1963109D01*
X-6528057Y1930540D01*
X-6547312Y1896523D01*
X-6559150Y1875622D01*
X-6711782Y1606196D01*
X-6711782Y1234900D01*
X-6832834Y1234900D01*
X-6832835Y1419768D01*
X-6832837Y1604637D01*
X-6987727Y1875690D01*
X-7142618Y2146742D01*
X-7075366Y2147446D01*
X-7053517Y2147612D01*
X-7036427Y2147589D01*
G37*
G36*
X-7626913Y2147414D02*
G01*
X-7589262Y2147218D01*
X-7556480Y2147021D01*
X-7528173Y2146812D01*
X-7503947Y2146582D01*
X-7483408Y2146320D01*
X-7466162Y2146016D01*
X-7451816Y2145660D01*
X-7439973Y2145243D01*
X-7430242Y2144754D01*
X-7422228Y2144183D01*
X-7415536Y2143521D01*
X-7409773Y2142757D01*
X-7404545Y2141881D01*
X-7403887Y2141759D01*
X-7364427Y2132303D01*
X-7328884Y2119465D01*
X-7297307Y2103290D01*
X-7269746Y2083821D01*
X-7246251Y2061101D01*
X-7226869Y2035173D01*
X-7211652Y2006081D01*
X-7200648Y1973867D01*
X-7197516Y1960505D01*
X-7195175Y1944500D01*
X-7193814Y1925047D01*
X-7193433Y1903868D01*
X-7194033Y1882687D01*
X-7195615Y1863224D01*
X-7197489Y1850558D01*
X-7205834Y1818255D01*
X-7218049Y1789380D01*
X-7234316Y1763694D01*
X-7254811Y1740960D01*
X-7279715Y1720942D01*
X-7307758Y1704151D01*
X-7317658Y1698823D01*
X-7323341Y1695248D01*
X-7325366Y1692970D01*
X-7324294Y1691535D01*
X-7323624Y1691260D01*
X-7296804Y1680446D01*
X-7273878Y1668308D01*
X-7253502Y1654023D01*
X-7234331Y1636765D01*
X-7233716Y1636149D01*
X-7222676Y1624544D01*
X-7214412Y1614408D01*
X-7207602Y1603911D01*
X-7200920Y1591222D01*
X-7200248Y1589845D01*
X-7190691Y1568063D01*
X-7183893Y1547198D01*
X-7179523Y1525690D01*
X-7177247Y1501981D01*
X-7176709Y1479637D01*
X-7178146Y1446476D01*
X-7182623Y1416852D01*
X-7190389Y1389841D01*
X-7201690Y1364519D01*
X-7212478Y1346321D01*
X-7232619Y1320326D01*
X-7256801Y1297700D01*
X-7285019Y1278448D01*
X-7317266Y1262574D01*
X-7345992Y1252299D01*
X-7354955Y1249567D01*
X-7363106Y1247177D01*
X-7370849Y1245102D01*
X-7378589Y1243318D01*
X-7386732Y1241801D01*
X-7395680Y1240527D01*
X-7405840Y1239469D01*
X-7417616Y1238604D01*
X-7431413Y1237907D01*
X-7447636Y1237353D01*
X-7466689Y1236918D01*
X-7488976Y1236576D01*
X-7514904Y1236304D01*
X-7544876Y1236077D01*
X-7579298Y1235869D01*
X-7618573Y1235656D01*
X-7619018Y1235654D01*
X-7824940Y1234556D01*
X-7824940Y1491918D01*
X-7703887Y1491918D01*
X-7703856Y1464716D01*
X-7703767Y1439105D01*
X-7703627Y1415566D01*
X-7703439Y1394580D01*
X-7703212Y1376628D01*
X-7702949Y1362191D01*
X-7702657Y1351752D01*
X-7702341Y1345790D01*
X-7702133Y1344549D01*
X-7699066Y1344054D01*
X-7691356Y1343644D01*
X-7679625Y1343318D01*
X-7664491Y1343073D01*
X-7646575Y1342906D01*
X-7626496Y1342816D01*
X-7604876Y1342799D01*
X-7582333Y1342853D01*
X-7559489Y1342977D01*
X-7536962Y1343167D01*
X-7515374Y1343421D01*
X-7495344Y1343737D01*
X-7477492Y1344112D01*
X-7462438Y1344544D01*
X-7450803Y1345030D01*
X-7443334Y1345555D01*
X-7412219Y1350651D01*
X-7385051Y1359188D01*
X-7361730Y1371240D01*
X-7342159Y1386880D01*
X-7326240Y1406181D01*
X-7313874Y1429216D01*
X-7307505Y1446855D01*
X-7304259Y1462498D01*
X-7302647Y1481281D01*
X-7302649Y1501346D01*
X-7304244Y1520836D01*
X-7307414Y1537894D01*
X-7308522Y1541795D01*
X-7318413Y1565579D01*
X-7332305Y1586062D01*
X-7350340Y1603399D01*
X-7372657Y1617748D01*
X-7380241Y1621508D01*
X-7387680Y1624880D01*
X-7394722Y1627744D01*
X-7401858Y1630140D01*
X-7409575Y1632112D01*
X-7418366Y1633698D01*
X-7428718Y1634942D01*
X-7441123Y1635885D01*
X-7456070Y1636568D01*
X-7474048Y1637032D01*
X-7495549Y1637318D01*
X-7521061Y1637469D01*
X-7551074Y1637526D01*
X-7569848Y1637532D01*
X-7703887Y1637532D01*
X-7703887Y1491918D01*
X-7824940Y1491918D01*
X-7824940Y1745426D01*
X-7703931Y1745426D01*
X-7576449Y1745426D01*
X-7545600Y1745455D01*
X-7519538Y1745548D01*
X-7497787Y1745720D01*
X-7479872Y1745982D01*
X-7465316Y1746348D01*
X-7453645Y1746831D01*
X-7444383Y1747443D01*
X-7437053Y1748198D01*
X-7431181Y1749108D01*
X-7429717Y1749395D01*
X-7402831Y1757328D01*
X-7379299Y1769215D01*
X-7359297Y1784816D01*
X-7342997Y1803891D01*
X-7330575Y1826201D01*
X-7322205Y1851505D01*
X-7318060Y1879563D01*
X-7317879Y1903321D01*
X-7320578Y1929042D01*
X-7326197Y1951032D01*
X-7335110Y1970162D01*
X-7347691Y1987307D01*
X-7358398Y1998156D01*
X-7377704Y2012578D01*
X-7400997Y2024313D01*
X-7427542Y2033001D01*
X-7431518Y2033963D01*
X-7436871Y2035110D01*
X-7442515Y2036063D01*
X-7448968Y2036842D01*
X-7456753Y2037462D01*
X-7466389Y2037942D01*
X-7478395Y2038299D01*
X-7493294Y2038550D01*
X-7511604Y2038713D01*
X-7533847Y2038804D01*
X-7560542Y2038843D01*
X-7577571Y2038847D01*
X-7702571Y2038847D01*
X-7703251Y1892137D01*
X-7703931Y1745426D01*
X-7824940Y1745426D01*
X-7824940Y2148388D01*
X-7626913Y2147414D01*
G37*
G36*
X-2083164Y2162848D02*
G01*
X-2041585Y2158521D01*
X-2002971Y2150131D01*
X-1967458Y2137782D01*
X-1935182Y2121576D01*
X-1906280Y2101616D01*
X-1880888Y2078005D01*
X-1859141Y2050846D01*
X-1841176Y2020243D01*
X-1827128Y1986299D01*
X-1817135Y1949116D01*
X-1813108Y1925032D01*
X-1811288Y1911216D01*
X-1934636Y1911216D01*
X-1938881Y1932764D01*
X-1946645Y1959380D01*
X-1958758Y1983210D01*
X-1974960Y2004006D01*
X-1994988Y2021517D01*
X-2018580Y2035495D01*
X-2045474Y2045690D01*
X-2061632Y2049605D01*
X-2077830Y2051793D01*
X-2097351Y2052850D01*
X-2118560Y2052827D01*
X-2139826Y2051772D01*
X-2159516Y2049736D01*
X-2175996Y2046768D01*
X-2178945Y2046018D01*
X-2208751Y2035735D01*
X-2234545Y2022198D01*
X-2256252Y2005460D01*
X-2273800Y1985575D01*
X-2283055Y1970773D01*
X-2291553Y1952072D01*
X-2296538Y1933303D01*
X-2298511Y1912408D01*
X-2298593Y1906740D01*
X-2296633Y1879125D01*
X-2290584Y1854760D01*
X-2280319Y1833428D01*
X-2265712Y1814915D01*
X-2246635Y1799006D01*
X-2228840Y1788405D01*
X-2221837Y1784865D01*
X-2215087Y1781711D01*
X-2208031Y1778783D01*
X-2200114Y1775920D01*
X-2190779Y1772961D01*
X-2179468Y1769745D01*
X-2165625Y1766111D01*
X-2148694Y1761898D01*
X-2128116Y1756945D01*
X-2103336Y1751092D01*
X-2084150Y1746596D01*
X-2062115Y1741354D01*
X-2040490Y1736043D01*
X-2020130Y1730886D01*
X-2001890Y1726105D01*
X-1986624Y1721922D01*
X-1975186Y1718559D01*
X-1970992Y1717193D01*
X-1933939Y1702314D01*
X-1901441Y1684833D01*
X-1873442Y1664683D01*
X-1849884Y1641800D01*
X-1830712Y1616119D01*
X-1815869Y1587574D01*
X-1805300Y1556100D01*
X-1798948Y1521633D01*
X-1798491Y1517530D01*
X-1796941Y1479796D01*
X-1800212Y1443444D01*
X-1808193Y1408797D01*
X-1820771Y1376179D01*
X-1837835Y1345914D01*
X-1859272Y1318327D01*
X-1871747Y1305494D01*
X-1900259Y1281879D01*
X-1932393Y1262004D01*
X-1968000Y1245938D01*
X-2006932Y1233747D01*
X-2046827Y1225821D01*
X-2065787Y1223723D01*
X-2088048Y1222416D01*
X-2112142Y1221890D01*
X-2136605Y1222135D01*
X-2159969Y1223141D01*
X-2180770Y1224897D01*
X-2194676Y1226853D01*
X-2236736Y1236368D01*
X-2274759Y1249242D01*
X-2308776Y1265497D01*
X-2338820Y1285152D01*
X-2364922Y1308228D01*
X-2387113Y1334746D01*
X-2405052Y1364010D01*
X-2415790Y1387893D01*
X-2424512Y1413808D01*
X-2430526Y1439514D01*
X-2432408Y1452558D01*
X-2434463Y1471742D01*
X-2310176Y1471742D01*
X-2306879Y1452121D01*
X-2300257Y1427903D01*
X-2289104Y1405870D01*
X-2273765Y1386227D01*
X-2254587Y1369180D01*
X-2231915Y1354935D01*
X-2206095Y1343696D01*
X-2177472Y1335670D01*
X-2146393Y1331063D01*
X-2113204Y1330079D01*
X-2102446Y1330548D01*
X-2065672Y1334522D01*
X-2032973Y1341754D01*
X-2004256Y1352288D01*
X-1979432Y1366163D01*
X-1958408Y1383422D01*
X-1941094Y1404106D01*
X-1940914Y1404368D01*
X-1930410Y1423141D01*
X-1923713Y1443807D01*
X-1920469Y1467495D01*
X-1920303Y1470426D01*
X-1920642Y1497124D01*
X-1924607Y1520443D01*
X-1932395Y1540998D01*
X-1944202Y1559403D01*
X-1951424Y1567727D01*
X-1959555Y1575952D01*
X-1967608Y1583111D01*
X-1976128Y1589420D01*
X-1985657Y1595097D01*
X-1996739Y1600356D01*
X-2009917Y1605414D01*
X-2025734Y1610487D01*
X-2044735Y1615791D01*
X-2067461Y1621542D01*
X-2094456Y1627957D01*
X-2114413Y1632553D01*
X-2144227Y1639397D01*
X-2169463Y1645281D01*
X-2190684Y1650367D01*
X-2208456Y1654816D01*
X-2223343Y1658788D01*
X-2235910Y1662444D01*
X-2246720Y1665945D01*
X-2256338Y1669450D01*
X-2265329Y1673121D01*
X-2274257Y1677119D01*
X-2279229Y1679459D01*
X-2312170Y1697320D01*
X-2340413Y1717318D01*
X-2364156Y1739649D01*
X-2383592Y1764508D01*
X-2398917Y1792090D01*
X-2404198Y1804593D01*
X-2410765Y1823047D01*
X-2415408Y1840074D01*
X-2418406Y1857301D01*
X-2420036Y1876356D01*
X-2420575Y1898868D01*
X-2420579Y1900690D01*
X-2419785Y1927550D01*
X-2417131Y1951041D01*
X-2412306Y1972824D01*
X-2404998Y1994560D01*
X-2401256Y2003740D01*
X-2385598Y2033940D01*
X-2365635Y2061365D01*
X-2341627Y2085865D01*
X-2313831Y2107289D01*
X-2282504Y2125489D01*
X-2247906Y2140313D01*
X-2210293Y2151611D01*
X-2169924Y2159234D01*
X-2127571Y2163009D01*
X-2083164Y2162848D01*
G37*
G36*
X-5011736Y1852663D02*
G01*
X-5011719Y1804194D01*
X-5011679Y1760680D01*
X-5011606Y1721812D01*
X-5011494Y1687283D01*
X-5011335Y1656782D01*
X-5011119Y1630003D01*
X-5010840Y1606636D01*
X-5010488Y1586374D01*
X-5010056Y1568908D01*
X-5009537Y1553930D01*
X-5008920Y1541130D01*
X-5008200Y1530201D01*
X-5007367Y1520835D01*
X-5006414Y1512722D01*
X-5005332Y1505555D01*
X-5004114Y1499026D01*
X-5002751Y1492825D01*
X-5002260Y1490767D01*
X-4997192Y1474424D01*
X-4989757Y1456257D01*
X-4980842Y1438096D01*
X-4971329Y1421770D01*
X-4963701Y1411031D01*
X-4945452Y1392144D01*
X-4923030Y1375351D01*
X-4897285Y1361173D01*
X-4869066Y1350134D01*
X-4860466Y1347573D01*
X-4852558Y1345537D01*
X-4844961Y1344029D01*
X-4836681Y1342969D01*
X-4826728Y1342280D01*
X-4814111Y1341883D01*
X-4797837Y1341701D01*
X-4785466Y1341662D01*
X-4766448Y1341693D01*
X-4751700Y1341901D01*
X-4740226Y1342362D01*
X-4731035Y1343150D01*
X-4723132Y1344342D01*
X-4715524Y1346013D01*
X-4710300Y1347382D01*
X-4679026Y1357999D01*
X-4651866Y1371729D01*
X-4628530Y1388804D01*
X-4608729Y1409453D01*
X-4592171Y1433907D01*
X-4585446Y1446742D01*
X-4576900Y1465971D01*
X-4570594Y1484134D01*
X-4565961Y1503218D01*
X-4562439Y1525209D01*
X-4561886Y1529568D01*
X-4561419Y1536145D01*
X-4560993Y1547853D01*
X-4560607Y1564563D01*
X-4560265Y1586143D01*
X-4559966Y1612462D01*
X-4559712Y1643389D01*
X-4559503Y1678793D01*
X-4559342Y1718543D01*
X-4559229Y1762509D01*
X-4559165Y1810558D01*
X-4559150Y1849963D01*
X-4559150Y2148058D01*
X-4435231Y2148058D01*
X-4436250Y1828979D01*
X-4436403Y1780418D01*
X-4436545Y1736812D01*
X-4436688Y1697853D01*
X-4436843Y1663233D01*
X-4437023Y1632642D01*
X-4437240Y1605775D01*
X-4437505Y1582321D01*
X-4437832Y1561974D01*
X-4438232Y1544424D01*
X-4438718Y1529364D01*
X-4439300Y1516485D01*
X-4439992Y1505480D01*
X-4440806Y1496040D01*
X-4441753Y1487857D01*
X-4442846Y1480623D01*
X-4444097Y1474029D01*
X-4445518Y1467768D01*
X-4447121Y1461532D01*
X-4448918Y1455011D01*
X-4450921Y1447899D01*
X-4451257Y1446702D01*
X-4464542Y1408331D01*
X-4481941Y1373205D01*
X-4503360Y1341411D01*
X-4528707Y1313032D01*
X-4557886Y1288153D01*
X-4590805Y1266860D01*
X-4627369Y1249237D01*
X-4667485Y1235370D01*
X-4691533Y1229261D01*
X-4701095Y1227339D01*
X-4711004Y1225869D01*
X-4722233Y1224779D01*
X-4735754Y1223996D01*
X-4752536Y1223447D01*
X-4773553Y1223060D01*
X-4774940Y1223040D01*
X-4792545Y1222856D01*
X-4808789Y1222790D01*
X-4822789Y1222839D01*
X-4833667Y1222998D01*
X-4840540Y1223261D01*
X-4842045Y1223405D01*
X-4885926Y1231726D01*
X-4925702Y1243084D01*
X-4961659Y1257614D01*
X-4994084Y1275451D01*
X-5023261Y1296729D01*
X-5048624Y1320671D01*
X-5070507Y1346909D01*
X-5089007Y1375567D01*
X-5104434Y1407262D01*
X-5117094Y1442612D01*
X-5125672Y1474948D01*
X-5126504Y1478646D01*
X-5127251Y1482310D01*
X-5127918Y1486235D01*
X-5128510Y1490716D01*
X-5129033Y1496046D01*
X-5129492Y1502522D01*
X-5129893Y1510438D01*
X-5130241Y1520088D01*
X-5130542Y1531766D01*
X-5130801Y1545769D01*
X-5131024Y1562390D01*
X-5131216Y1581924D01*
X-5131382Y1604665D01*
X-5131529Y1630909D01*
X-5131661Y1660950D01*
X-5131784Y1695083D01*
X-5131904Y1733603D01*
X-5132025Y1776803D01*
X-5132151Y1823716D01*
X-5133011Y2148058D01*
X-5011782Y2148058D01*
X-5011736Y1852663D01*
G37*
D14*
%TO.C,D21*%
X69475000Y-14100000D02*
X68275000Y-14100000D01*
X69475000Y-15950000D02*
X69475000Y-14100000D01*
X68275000Y-15950000D02*
X68275000Y-14100000D01*
%TO.C,D8*%
X12325000Y-19100000D02*
X11125000Y-19100000D01*
X11125000Y-20950000D02*
X11125000Y-19100000D01*
X12325000Y-20950000D02*
X12325000Y-19100000D01*
%TO.C,D4*%
X-7225000Y-20950000D02*
X-7225000Y-19100000D01*
X-8425000Y-20950000D02*
X-8425000Y-19100000D01*
X-7225000Y-19100000D02*
X-8425000Y-19100000D01*
%TO.C,TP1*%
X95975000Y-6325000D02*
X95975000Y-7725000D01*
X94575000Y-7725000D02*
X94575000Y-6325000D01*
X94575000Y-6325000D02*
X95975000Y-6325000D01*
X95975000Y-7725000D02*
X94575000Y-7725000D01*
%TO.C,SW1*%
X119725000Y-23925000D02*
X118425000Y-23925000D01*
X117525000Y-30525000D02*
X117525000Y-30175000D01*
X118425000Y-31025000D02*
X119725000Y-31025000D01*
X117525000Y-24775000D02*
X117525000Y-24425000D01*
X120625000Y-24425000D02*
X120625000Y-30525000D01*
%TO.C,TP1*%
X76875000Y-4325000D02*
X76875000Y-5725000D01*
X75475000Y-4325000D02*
X76875000Y-4325000D01*
X75475000Y-5725000D02*
X75475000Y-4325000D01*
X76875000Y-5725000D02*
X75475000Y-5725000D01*
%TO.C,D17*%
X50425000Y-31150000D02*
X49225000Y-31150000D01*
X49225000Y-33000000D02*
X49225000Y-31150000D01*
X50425000Y-33000000D02*
X50425000Y-31150000D01*
%TO.C,D28*%
X88525000Y-56050000D02*
X88525000Y-54200000D01*
X88525000Y-54200000D02*
X87325000Y-54200000D01*
X87325000Y-56050000D02*
X87325000Y-54200000D01*
%TO.C,D6*%
X-7225000Y-59050000D02*
X-7225000Y-57200000D01*
X-8425000Y-59050000D02*
X-8425000Y-57200000D01*
X-7225000Y-57200000D02*
X-8425000Y-57200000D01*
%TO.C,D5*%
X-7225000Y-40000000D02*
X-7225000Y-38150000D01*
X-8425000Y-40000000D02*
X-8425000Y-38150000D01*
X-7225000Y-38150000D02*
X-8425000Y-38150000D01*
%TO.C,D9*%
X12325000Y-38150000D02*
X11125000Y-38150000D01*
X12325000Y-40000000D02*
X12325000Y-38150000D01*
X11125000Y-40000000D02*
X11125000Y-38150000D01*
%TO.C,D16*%
X49225000Y-13950000D02*
X49225000Y-12100000D01*
X50425000Y-12100000D02*
X49225000Y-12100000D01*
X50425000Y-13950000D02*
X50425000Y-12100000D01*
%TO.C,D18*%
X50425000Y-52050000D02*
X50425000Y-50200000D01*
X50425000Y-50200000D02*
X49225000Y-50200000D01*
X49225000Y-52050000D02*
X49225000Y-50200000D01*
%TO.C,D19*%
X59950000Y-73100000D02*
X59950000Y-71250000D01*
X58750000Y-73100000D02*
X58750000Y-71250000D01*
X59950000Y-71250000D02*
X58750000Y-71250000D01*
%TO.C,TP1*%
X76875000Y-74375000D02*
X75475000Y-74375000D01*
X75475000Y-72975000D02*
X76875000Y-72975000D01*
X75475000Y-74375000D02*
X75475000Y-72975000D01*
X76875000Y-72975000D02*
X76875000Y-74375000D01*
%TO.C,D20*%
X69475000Y4950000D02*
X68275000Y4950000D01*
X68275000Y3100000D02*
X68275000Y4950000D01*
X69475000Y3100000D02*
X69475000Y4950000D01*
%TO.C,SW29*%
X120525000Y-36050000D02*
X120525000Y-35125000D01*
X116825000Y-39825000D02*
X116825000Y-35125000D01*
X120525000Y-39825000D02*
X120525000Y-38900000D01*
X118400000Y-35025000D02*
X118950000Y-35025000D01*
X118400000Y-39925000D02*
X118950000Y-39925000D01*
%TO.C,D15*%
X50425000Y5100000D02*
X50425000Y6950000D01*
X49225000Y5100000D02*
X49225000Y6950000D01*
X50425000Y6950000D02*
X49225000Y6950000D01*
%TO.C,D12*%
X30175000Y-15950000D02*
X30175000Y-14100000D01*
X31375000Y-14100000D02*
X30175000Y-14100000D01*
X31375000Y-15950000D02*
X31375000Y-14100000D01*
%TO.C,D22*%
X69475000Y-33150000D02*
X68275000Y-33150000D01*
X69475000Y-35000000D02*
X69475000Y-33150000D01*
X68275000Y-35000000D02*
X68275000Y-33150000D01*
%TO.C,TP2*%
X109375000Y-23125000D02*
G75*
G03*
X109375000Y-23125000I-700000J0D01*
G01*
%TO.C,D3*%
X-8425000Y-1900000D02*
X-8425000Y-50000D01*
X-7225000Y-50000D02*
X-8425000Y-50000D01*
X-7225000Y-1900000D02*
X-7225000Y-50000D01*
%TO.C,TP1*%
X56425000Y-3725000D02*
X56425000Y-2325000D01*
X57825000Y-3725000D02*
X56425000Y-3725000D01*
X57825000Y-2325000D02*
X57825000Y-3725000D01*
X56425000Y-2325000D02*
X57825000Y-2325000D01*
%TO.C,D23*%
X69475000Y-52200000D02*
X68275000Y-52200000D01*
X69475000Y-54050000D02*
X69475000Y-52200000D01*
X68275000Y-54050000D02*
X68275000Y-52200000D01*
%TO.C,TP1*%
X111375000Y-23825000D02*
X109975000Y-23825000D01*
X111375000Y-22425000D02*
X111375000Y-23825000D01*
X109975000Y-22425000D02*
X111375000Y-22425000D01*
X109975000Y-23825000D02*
X109975000Y-22425000D01*
%TO.C,G1*%
G36*
X38598551Y-62966298D02*
G01*
X38664238Y-63009647D01*
X38707172Y-63071249D01*
X38720460Y-63142768D01*
X38697214Y-63215868D01*
X38664421Y-63255569D01*
X38593762Y-63293839D01*
X38501860Y-63308652D01*
X38411305Y-63298006D01*
X38371846Y-63281511D01*
X38316686Y-63225706D01*
X38298186Y-63153152D01*
X38314127Y-63076593D01*
X38362289Y-63008775D01*
X38426473Y-62967700D01*
X38516999Y-62949537D01*
X38598551Y-62966298D01*
G37*
G36*
X43243052Y-62964366D02*
G01*
X43300560Y-63002856D01*
X43369020Y-63063083D01*
X43155523Y-63063855D01*
X43059748Y-63061766D01*
X42986393Y-63055510D01*
X42946320Y-63046217D01*
X42942027Y-63041610D01*
X42963729Y-63004342D01*
X43018432Y-62970473D01*
X43090535Y-62947754D01*
X43141292Y-62942628D01*
X43243052Y-62964366D01*
G37*
G36*
X39535468Y-62979369D02*
G01*
X39576757Y-63013949D01*
X39635975Y-63097419D01*
X39646903Y-63179443D01*
X39609572Y-63257573D01*
X39573008Y-63294253D01*
X39476221Y-63347197D01*
X39372320Y-63355157D01*
X39272284Y-63317933D01*
X39247518Y-63300235D01*
X39187903Y-63227616D01*
X39174621Y-63146680D01*
X39207525Y-63063971D01*
X39254003Y-63012008D01*
X39348298Y-62953573D01*
X39443788Y-62942704D01*
X39535468Y-62979369D01*
G37*
G36*
X53357524Y-65751791D02*
G01*
X53377376Y-65769525D01*
X53384291Y-65814384D01*
X53385062Y-65872185D01*
X53377169Y-65980822D01*
X53349524Y-66055104D01*
X53296179Y-66107479D01*
X53263552Y-66126525D01*
X53171315Y-66159393D01*
X53095052Y-66150115D01*
X53030159Y-66103487D01*
X52981398Y-66028496D01*
X52975712Y-65951634D01*
X53008052Y-65879124D01*
X53073369Y-65817189D01*
X53166616Y-65772052D01*
X53282743Y-65749938D01*
X53317963Y-65748719D01*
X53357524Y-65751791D01*
G37*
G36*
X34763772Y-63948084D02*
G01*
X34922521Y-63955212D01*
X35009163Y-64266133D01*
X35041942Y-64377834D01*
X35071364Y-64467151D01*
X35094663Y-64526479D01*
X35109079Y-64548207D01*
X35111047Y-64546729D01*
X35123369Y-64512476D01*
X35145691Y-64441551D01*
X35174853Y-64344273D01*
X35207697Y-64230962D01*
X35208055Y-64229707D01*
X35289821Y-63943012D01*
X35594231Y-63943012D01*
X35607325Y-64071110D01*
X35613096Y-64143094D01*
X35619738Y-64250611D01*
X35626517Y-64380420D01*
X35632698Y-64519279D01*
X35634032Y-64553002D01*
X35640442Y-64709433D01*
X35647950Y-64876824D01*
X35655639Y-65035543D01*
X35662594Y-65165959D01*
X35662859Y-65170575D01*
X35678074Y-65434353D01*
X35558610Y-65426771D01*
X35439145Y-65419189D01*
X35424208Y-64918996D01*
X35419398Y-64762891D01*
X35414695Y-64619297D01*
X35410407Y-64496901D01*
X35406840Y-64404388D01*
X35404299Y-64350444D01*
X35403982Y-64345605D01*
X35399469Y-64296469D01*
X35392595Y-64293316D01*
X35377543Y-64333406D01*
X35362186Y-64380094D01*
X35336117Y-64461803D01*
X35303014Y-64566924D01*
X35267407Y-64681100D01*
X35178422Y-64967796D01*
X35089187Y-64967683D01*
X34999952Y-64967571D01*
X34795996Y-64272407D01*
X34794276Y-64482024D01*
X34792509Y-64585449D01*
X34788877Y-64721559D01*
X34783872Y-64874296D01*
X34777984Y-65027601D01*
X34776546Y-65061515D01*
X34760536Y-65431388D01*
X34540930Y-65431388D01*
X34557449Y-65010495D01*
X34564348Y-64839410D01*
X34572111Y-64654500D01*
X34579946Y-64474200D01*
X34587060Y-64316951D01*
X34589495Y-64265279D01*
X34605022Y-63940957D01*
X34763772Y-63948084D01*
G37*
G36*
X41364282Y-62964366D02*
G01*
X41421790Y-63002856D01*
X41490250Y-63063083D01*
X41276753Y-63063855D01*
X41180978Y-63061766D01*
X41107622Y-63055510D01*
X41067549Y-63046217D01*
X41063256Y-63041610D01*
X41084958Y-63004342D01*
X41139662Y-62970473D01*
X41211765Y-62947754D01*
X41262522Y-62942628D01*
X41364282Y-62964366D01*
G37*
G36*
X34353362Y-64053080D02*
G01*
X34351414Y-64090711D01*
X34343436Y-64129253D01*
X34326231Y-64174568D01*
X34296600Y-64232519D01*
X34251344Y-64308968D01*
X34187265Y-64409776D01*
X34101164Y-64540806D01*
X34023861Y-64656971D01*
X33694360Y-65150793D01*
X34023861Y-65157581D01*
X34353362Y-65164370D01*
X34353362Y-65431388D01*
X33352978Y-65431388D01*
X33352978Y-65322128D01*
X33355192Y-65284006D01*
X33363892Y-65243773D01*
X33382161Y-65195506D01*
X33413081Y-65133276D01*
X33459736Y-65051160D01*
X33525210Y-64943231D01*
X33612586Y-64803562D01*
X33670173Y-64712524D01*
X33758261Y-64573077D01*
X33836949Y-64447558D01*
X33902666Y-64341742D01*
X33951841Y-64261405D01*
X33980902Y-64212320D01*
X33987368Y-64199594D01*
X33964509Y-64194826D01*
X33902092Y-64190887D01*
X33809355Y-64188158D01*
X33695538Y-64187020D01*
X33682372Y-64187008D01*
X33377377Y-64187008D01*
X33377377Y-63943012D01*
X34353362Y-63943012D01*
X34353362Y-64053080D01*
G37*
G36*
X36171133Y-64582310D02*
G01*
X36577379Y-63943012D01*
X36735590Y-63943012D01*
X36822938Y-63945361D01*
X36868312Y-63953369D01*
X36878357Y-63968478D01*
X36876139Y-63973511D01*
X36856894Y-64003377D01*
X36815301Y-64065911D01*
X36756494Y-64153457D01*
X36685609Y-64258357D01*
X36640736Y-64324500D01*
X36422997Y-64644989D01*
X36660056Y-65007689D01*
X36737547Y-65126959D01*
X36805822Y-65233385D01*
X36860305Y-65319728D01*
X36896422Y-65378748D01*
X36909283Y-65402073D01*
X36904823Y-65418897D01*
X36869954Y-65427158D01*
X36797214Y-65428026D01*
X36753689Y-65426473D01*
X36585927Y-65419189D01*
X36378530Y-65073026D01*
X36171133Y-64726864D01*
X36158933Y-65073026D01*
X36146734Y-65419189D01*
X36023798Y-65426384D01*
X35949858Y-65427341D01*
X35897291Y-65421814D01*
X35883501Y-65416218D01*
X35879128Y-65388321D01*
X35875160Y-65317798D01*
X35871739Y-65210821D01*
X35869010Y-65073562D01*
X35867116Y-64912193D01*
X35866201Y-64732887D01*
X35866138Y-64670934D01*
X35866138Y-63943012D01*
X36157517Y-63943012D01*
X36171133Y-64582310D01*
G37*
G36*
X32160845Y-63936743D02*
G01*
X32160133Y-63608398D01*
X32159926Y-63320259D01*
X32160411Y-63069461D01*
X32161774Y-62853140D01*
X32164201Y-62668432D01*
X32167880Y-62512473D01*
X32172996Y-62382397D01*
X32179736Y-62275341D01*
X32188286Y-62188439D01*
X32198832Y-62118829D01*
X32211561Y-62063644D01*
X32226659Y-62020022D01*
X32244313Y-61985096D01*
X32264708Y-61956004D01*
X32288032Y-61929880D01*
X32314470Y-61903860D01*
X32344209Y-61875080D01*
X32348789Y-61870525D01*
X32463986Y-61775597D01*
X32581247Y-61715300D01*
X32583495Y-61714526D01*
X32594898Y-61711411D01*
X32611190Y-61708459D01*
X32633647Y-61705664D01*
X32663543Y-61703023D01*
X32702155Y-61700531D01*
X32750758Y-61698184D01*
X32810628Y-61695978D01*
X32883041Y-61693908D01*
X32969273Y-61691971D01*
X33070598Y-61690161D01*
X33188294Y-61688474D01*
X33323634Y-61686907D01*
X33477896Y-61685455D01*
X33652355Y-61684113D01*
X33848286Y-61682878D01*
X34066965Y-61681744D01*
X34309668Y-61680708D01*
X34577671Y-61679766D01*
X34872249Y-61678912D01*
X35194678Y-61678144D01*
X35546233Y-61677455D01*
X35928191Y-61676843D01*
X36341827Y-61676302D01*
X36788416Y-61675829D01*
X37269235Y-61675420D01*
X37785558Y-61675069D01*
X38338663Y-61674772D01*
X38929824Y-61674526D01*
X39560316Y-61674326D01*
X40231417Y-61674167D01*
X40944401Y-61674046D01*
X41700544Y-61673958D01*
X42501122Y-61673899D01*
X43347411Y-61673864D01*
X44240686Y-61673849D01*
X44631342Y-61673848D01*
X45648295Y-61673889D01*
X46616925Y-61674013D01*
X47537706Y-61674221D01*
X48411113Y-61674514D01*
X49237621Y-61674893D01*
X50017706Y-61675359D01*
X50751843Y-61675913D01*
X51440507Y-61676557D01*
X52084173Y-61677290D01*
X52683317Y-61678115D01*
X53238412Y-61679031D01*
X53749936Y-61680041D01*
X54218362Y-61681145D01*
X54644166Y-61682344D01*
X55027823Y-61683640D01*
X55369809Y-61685032D01*
X55670597Y-61686523D01*
X55930665Y-61688113D01*
X56150486Y-61689804D01*
X56330536Y-61691596D01*
X56471290Y-61693490D01*
X56573223Y-61695487D01*
X56636811Y-61697589D01*
X56662106Y-61699677D01*
X56799829Y-61757166D01*
X56927466Y-61852652D01*
X57031712Y-61975437D01*
X57057204Y-62017380D01*
X57130403Y-62149640D01*
X57130403Y-67200360D01*
X57076446Y-67301240D01*
X56969127Y-67452209D01*
X56827988Y-67573799D01*
X56767690Y-67609996D01*
X56666811Y-67663953D01*
X44698799Y-67667618D01*
X43936409Y-67667815D01*
X43186066Y-67667938D01*
X42449257Y-67667988D01*
X41727470Y-67667966D01*
X41022191Y-67667876D01*
X40334906Y-67667718D01*
X39667105Y-67667494D01*
X39020272Y-67667206D01*
X38395896Y-67666856D01*
X37795463Y-67666445D01*
X37220461Y-67665975D01*
X36672376Y-67665449D01*
X36152695Y-67664867D01*
X35662905Y-67664232D01*
X35204494Y-67663544D01*
X34778949Y-67662807D01*
X34387756Y-67662022D01*
X34032402Y-67661190D01*
X33714375Y-67660313D01*
X33435161Y-67659394D01*
X33196248Y-67658433D01*
X32999122Y-67657433D01*
X32845271Y-67656395D01*
X32736181Y-67655321D01*
X32673341Y-67654213D01*
X32657589Y-67653400D01*
X32502300Y-67591159D01*
X32364261Y-67487635D01*
X32251698Y-67349500D01*
X32223553Y-67301240D01*
X32169596Y-67200360D01*
X32163041Y-64725509D01*
X32162664Y-64590383D01*
X32850219Y-64590383D01*
X32861112Y-64908203D01*
X32913970Y-65221110D01*
X33008259Y-65524461D01*
X33143445Y-65813615D01*
X33318995Y-66083932D01*
X33534372Y-66330770D01*
X33584236Y-66378838D01*
X33806974Y-66557724D01*
X34062511Y-66711971D01*
X34338502Y-66835464D01*
X34622601Y-66922092D01*
X34723424Y-66942887D01*
X34852102Y-66956637D01*
X35012086Y-66959904D01*
X35187220Y-66953552D01*
X35361350Y-66938442D01*
X35518318Y-66915436D01*
X35606865Y-66895760D01*
X35910798Y-66789722D01*
X36193191Y-66641871D01*
X36450749Y-66455656D01*
X36596035Y-66315624D01*
X37842507Y-66315624D01*
X37845897Y-66384819D01*
X37854427Y-66431618D01*
X37858773Y-66439906D01*
X37886334Y-66443937D01*
X37956639Y-66447604D01*
X38063636Y-66450779D01*
X38201272Y-66453335D01*
X38363491Y-66455142D01*
X38544241Y-66456073D01*
X38627361Y-66456172D01*
X39379683Y-66456172D01*
X39379683Y-66431773D01*
X39619390Y-66431773D01*
X40038472Y-66431773D01*
X40039002Y-66328074D01*
X40040528Y-66275353D01*
X40044538Y-66181883D01*
X40050636Y-66055631D01*
X40058427Y-65904562D01*
X40067515Y-65736642D01*
X40075072Y-65602186D01*
X40084850Y-65430568D01*
X40093769Y-65273226D01*
X40101427Y-65137303D01*
X40107423Y-65029946D01*
X40111356Y-64958298D01*
X40112760Y-64931196D01*
X40118556Y-64936162D01*
X40133130Y-64981936D01*
X40154601Y-65061703D01*
X40181086Y-65168650D01*
X40197015Y-65236191D01*
X40234111Y-65391764D01*
X40279254Y-65574563D01*
X40327468Y-65764788D01*
X40373778Y-65942636D01*
X40387082Y-65992579D01*
X40495041Y-66395173D01*
X40852192Y-66395173D01*
X40994999Y-65931580D01*
X41046202Y-65763860D01*
X41098972Y-65588386D01*
X41149073Y-65419425D01*
X41192269Y-65271242D01*
X41219238Y-65176421D01*
X41300669Y-64884854D01*
X41315608Y-65091022D01*
X41320713Y-65176990D01*
X41326574Y-65301267D01*
X41332774Y-65453378D01*
X41338895Y-65622846D01*
X41344520Y-65799196D01*
X41346404Y-65864482D01*
X41362260Y-66431773D01*
X41807583Y-66431773D01*
X41754332Y-65461888D01*
X41751768Y-65415122D01*
X42136839Y-65415122D01*
X42137221Y-65632376D01*
X42138309Y-65834347D01*
X42140023Y-66015842D01*
X42142280Y-66171672D01*
X42144997Y-66296645D01*
X42148092Y-66385571D01*
X42151482Y-66433259D01*
X42153106Y-66439906D01*
X42183319Y-66447186D01*
X42250203Y-66452782D01*
X42341636Y-66455846D01*
X42384902Y-66456172D01*
X42600432Y-66456172D01*
X42600432Y-65793160D01*
X42678078Y-65685040D01*
X42723562Y-65628905D01*
X42759397Y-65597578D01*
X42773718Y-65595653D01*
X42790636Y-65622215D01*
X42826641Y-65684563D01*
X42877696Y-65775508D01*
X42939765Y-65887865D01*
X43003565Y-66004779D01*
X43072826Y-66131596D01*
X43135399Y-66244640D01*
X43187082Y-66336440D01*
X43223673Y-66399525D01*
X43240307Y-66425673D01*
X43272390Y-66438116D01*
X43337861Y-66447604D01*
X43424448Y-66453918D01*
X43519881Y-66456838D01*
X43608180Y-66456172D01*
X46040778Y-66456172D01*
X46479971Y-66456172D01*
X46479971Y-65010495D01*
X46835508Y-65010495D01*
X46836115Y-65048619D01*
X46836954Y-65128689D01*
X46837968Y-65243854D01*
X46839102Y-65387261D01*
X46840297Y-65552058D01*
X46841498Y-65731394D01*
X46841608Y-65748583D01*
X46845965Y-66431773D01*
X47285158Y-66431773D01*
X47968348Y-66431773D01*
X48407541Y-66431773D01*
X48407541Y-65966968D01*
X48408716Y-65781788D01*
X48413057Y-65638968D01*
X48421784Y-65532107D01*
X48436118Y-65454807D01*
X48457281Y-65400665D01*
X48486492Y-65363282D01*
X48524973Y-65336258D01*
X48528187Y-65334513D01*
X48612903Y-65310579D01*
X48698389Y-65320391D01*
X48763653Y-65360692D01*
X48779371Y-65381927D01*
X48791323Y-65410818D01*
X48800161Y-65454134D01*
X48806535Y-65518648D01*
X48811096Y-65611130D01*
X48814496Y-65738350D01*
X48817385Y-65907081D01*
X48817604Y-65921883D01*
X48825073Y-66431773D01*
X49258736Y-66431773D01*
X49266232Y-65933488D01*
X49268937Y-65765467D01*
X49271855Y-65639199D01*
X49275825Y-65547640D01*
X49281681Y-65483749D01*
X49290260Y-65440481D01*
X49302399Y-65410794D01*
X49318934Y-65387645D01*
X49332879Y-65372297D01*
X49398767Y-65323843D01*
X49482937Y-65309399D01*
X49485736Y-65309390D01*
X49554166Y-65316528D01*
X49598472Y-65346750D01*
X49627789Y-65388689D01*
X49644589Y-65420162D01*
X49657009Y-65456575D01*
X49665700Y-65505427D01*
X49671316Y-65574218D01*
X49674508Y-65670446D01*
X49675929Y-65801612D01*
X49676229Y-65945814D01*
X49677052Y-66093817D01*
X49679291Y-66224848D01*
X49682690Y-66331186D01*
X49686995Y-66405111D01*
X49691949Y-66438902D01*
X49692587Y-66439906D01*
X49722964Y-66447383D01*
X49789581Y-66453047D01*
X49879886Y-66455968D01*
X49912184Y-66456172D01*
X50115514Y-66456172D01*
X50115514Y-65923809D01*
X50114273Y-65712648D01*
X50109764Y-65543685D01*
X50100802Y-65410366D01*
X50086203Y-65306133D01*
X50064784Y-65224433D01*
X50035363Y-65158708D01*
X49996754Y-65102403D01*
X49959772Y-65061087D01*
X49876231Y-64998295D01*
X50298094Y-64998295D01*
X50307032Y-65029147D01*
X50327016Y-65100614D01*
X50356262Y-65206230D01*
X50392983Y-65339528D01*
X50435394Y-65494043D01*
X50481676Y-65663185D01*
X50528920Y-65835659D01*
X50573147Y-65996297D01*
X50612378Y-66137975D01*
X50644634Y-66253564D01*
X50667933Y-66335940D01*
X50679948Y-66376873D01*
X50704889Y-66456172D01*
X51114535Y-66456172D01*
X51150042Y-66328074D01*
X51177620Y-66228835D01*
X51209272Y-66115284D01*
X51226516Y-66053579D01*
X51250845Y-65958844D01*
X51278704Y-65838622D01*
X51304924Y-65715443D01*
X51310470Y-65687584D01*
X51330744Y-65586066D01*
X51344388Y-65527558D01*
X51353845Y-65507120D01*
X51361560Y-65519816D01*
X51369976Y-65560706D01*
X51370848Y-65565586D01*
X51383522Y-65628353D01*
X51405066Y-65726615D01*
X51432711Y-65848480D01*
X51463685Y-65982051D01*
X51495221Y-66115436D01*
X51524547Y-66236738D01*
X51548894Y-66334065D01*
X51557149Y-66365606D01*
X51581874Y-66458037D01*
X51790377Y-66451005D01*
X51998881Y-66443972D01*
X52116569Y-66052566D01*
X52539349Y-66052566D01*
X52563863Y-66188432D01*
X52625147Y-66308619D01*
X52720974Y-66404377D01*
X52780504Y-66440046D01*
X52873714Y-66468163D01*
X52989903Y-66478941D01*
X53107699Y-66472328D01*
X53205733Y-66448273D01*
X53221576Y-66441118D01*
X53292868Y-66398548D01*
X53353926Y-66352065D01*
X53386628Y-66323063D01*
X53405978Y-66318477D01*
X53421439Y-66345298D01*
X53442474Y-66410518D01*
X53445295Y-66419573D01*
X53462845Y-66439022D01*
X53506411Y-66450472D01*
X53584854Y-66455532D01*
X53646592Y-66456176D01*
X53836455Y-66456180D01*
X53836119Y-66431773D01*
X54190250Y-66431773D01*
X54629443Y-66431773D01*
X54629481Y-66023079D01*
X54630291Y-65864707D01*
X54633167Y-65746841D01*
X54637081Y-65687584D01*
X55203931Y-65687584D01*
X55207831Y-65799400D01*
X55219125Y-65909409D01*
X55235427Y-65994866D01*
X55236573Y-65998925D01*
X55288710Y-66113671D01*
X55372475Y-66228857D01*
X55473833Y-66327707D01*
X55558794Y-66384078D01*
X55706562Y-66436878D01*
X55883590Y-66463160D01*
X56077811Y-66462355D01*
X56277159Y-66433895D01*
X56333440Y-66420585D01*
X56401748Y-66400742D01*
X56434917Y-66378639D01*
X56445239Y-66340550D01*
X56445428Y-66295557D01*
X56436903Y-66178313D01*
X56416897Y-66104830D01*
X56385993Y-66076712D01*
X56366894Y-66080049D01*
X56324452Y-66089677D01*
X56247273Y-66099189D01*
X56149400Y-66106993D01*
X56110540Y-66109139D01*
X55969175Y-66111075D01*
X55864308Y-66098950D01*
X55784859Y-66069559D01*
X55719748Y-66019695D01*
X55690332Y-65987543D01*
X55652845Y-65941163D01*
X55632080Y-65906226D01*
X55632693Y-65881112D01*
X55659344Y-65864200D01*
X55716692Y-65853871D01*
X55809393Y-65848505D01*
X55942108Y-65846483D01*
X56096859Y-65846182D01*
X56563891Y-65846182D01*
X56550157Y-65644885D01*
X56527889Y-65459673D01*
X56486923Y-65311216D01*
X56423685Y-65189875D01*
X56347671Y-65098765D01*
X56215254Y-64999117D01*
X56062863Y-64941441D01*
X55896637Y-64926479D01*
X55722714Y-64954978D01*
X55588248Y-65006602D01*
X55442502Y-65102889D01*
X55329385Y-65233402D01*
X55251125Y-65394196D01*
X55209948Y-65581325D01*
X55203931Y-65687584D01*
X54637081Y-65687584D01*
X54638823Y-65661205D01*
X54647974Y-65599525D01*
X54661336Y-65553526D01*
X54672180Y-65528987D01*
X54740478Y-65443562D01*
X54840572Y-65384345D01*
X54959236Y-65358718D01*
X54978087Y-65358227D01*
X55070536Y-65358189D01*
X55063486Y-65144693D01*
X55056436Y-64931196D01*
X54949605Y-64936127D01*
X54829602Y-64962729D01*
X54720817Y-65024879D01*
X54638850Y-65112758D01*
X54622037Y-65142234D01*
X54581755Y-65223992D01*
X54580866Y-65138593D01*
X54577191Y-65044178D01*
X54562109Y-64986447D01*
X54525923Y-64956406D01*
X54458932Y-64945060D01*
X54370401Y-64943396D01*
X54190250Y-64943396D01*
X54190250Y-66431773D01*
X53836119Y-66431773D01*
X53829649Y-65962084D01*
X53825677Y-65757899D01*
X53819348Y-65595454D01*
X53809640Y-65467711D01*
X53795534Y-65367628D01*
X53776008Y-65288165D01*
X53750043Y-65222283D01*
X53716617Y-65162942D01*
X53713007Y-65157375D01*
X53644741Y-65073505D01*
X53561926Y-65014803D01*
X53455849Y-64977909D01*
X53317794Y-64959464D01*
X53189865Y-64955717D01*
X52995028Y-64962993D01*
X52843739Y-64985398D01*
X52732973Y-65023493D01*
X52693281Y-65047539D01*
X52669377Y-65069901D01*
X52661475Y-65099498D01*
X52668765Y-65150676D01*
X52683942Y-65212735D01*
X52706114Y-65289019D01*
X52730979Y-65328413D01*
X52770659Y-65336170D01*
X52837276Y-65317545D01*
X52884870Y-65299831D01*
X52973019Y-65276154D01*
X53072819Y-65262715D01*
X53099578Y-65261662D01*
X53183693Y-65269120D01*
X53264287Y-65289596D01*
X53327444Y-65318018D01*
X53359243Y-65349313D01*
X53360663Y-65356820D01*
X53368684Y-65397549D01*
X53374324Y-65414199D01*
X53371348Y-65436140D01*
X53336970Y-65451742D01*
X53263171Y-65464268D01*
X53246226Y-65466314D01*
X53024432Y-65505811D01*
X52845294Y-65567577D01*
X52709137Y-65651459D01*
X52616286Y-65757302D01*
X52609551Y-65768812D01*
X52553835Y-65909775D01*
X52539349Y-66052566D01*
X52116569Y-66052566D01*
X52215307Y-65724184D01*
X52269091Y-65544440D01*
X52318058Y-65379128D01*
X52360485Y-65234200D01*
X52394647Y-65115609D01*
X52418819Y-65029308D01*
X52431279Y-64981249D01*
X52432605Y-64973896D01*
X52417489Y-64958049D01*
X52367369Y-64948302D01*
X52276731Y-64943868D01*
X52218612Y-64943396D01*
X52003746Y-64943396D01*
X51959403Y-65169092D01*
X51937017Y-65286068D01*
X51910060Y-65431502D01*
X51882137Y-65585746D01*
X51859832Y-65711984D01*
X51838769Y-65825365D01*
X51819483Y-65915319D01*
X51803804Y-65974276D01*
X51793563Y-65994667D01*
X51791969Y-65992579D01*
X51782749Y-65958093D01*
X51764690Y-65884137D01*
X51739718Y-65778840D01*
X51709762Y-65650329D01*
X51676747Y-65506732D01*
X51676257Y-65504587D01*
X51635875Y-65326424D01*
X51604448Y-65190093D01*
X51578929Y-65090125D01*
X51556269Y-65021053D01*
X51533418Y-64977408D01*
X51507330Y-64953722D01*
X51474955Y-64944527D01*
X51433245Y-64944355D01*
X51379152Y-64947737D01*
X51366173Y-64948377D01*
X51201297Y-64955596D01*
X51066866Y-65496051D01*
X50932436Y-66036506D01*
X50836525Y-65502151D01*
X50740615Y-64967796D01*
X50514229Y-64967796D01*
X50402860Y-64969514D01*
X50334084Y-64975245D01*
X50301797Y-64985849D01*
X50298094Y-64998295D01*
X49876231Y-64998295D01*
X49844719Y-64974610D01*
X49714303Y-64930828D01*
X49576141Y-64929389D01*
X49437850Y-64969936D01*
X49307045Y-65052117D01*
X49261501Y-65093574D01*
X49212624Y-65139937D01*
X49184978Y-65154484D01*
X49166432Y-65141009D01*
X49157440Y-65126131D01*
X49076769Y-65028069D01*
X48969080Y-64962590D01*
X48844193Y-64930276D01*
X48711931Y-64931707D01*
X48582114Y-64967465D01*
X48464564Y-65038129D01*
X48417457Y-65082363D01*
X48360880Y-65143411D01*
X48345573Y-65073903D01*
X48331175Y-65012518D01*
X48320870Y-64973896D01*
X48291556Y-64955228D01*
X48216807Y-64945296D01*
X48139911Y-64943396D01*
X47968348Y-64943396D01*
X47968348Y-66431773D01*
X47285158Y-66431773D01*
X47285196Y-66023079D01*
X47286007Y-65864707D01*
X47288883Y-65746841D01*
X47294539Y-65661205D01*
X47303690Y-65599525D01*
X47317051Y-65553526D01*
X47327896Y-65528987D01*
X47396193Y-65443562D01*
X47496287Y-65384345D01*
X47614951Y-65358718D01*
X47633803Y-65358227D01*
X47726251Y-65358189D01*
X47719201Y-65144693D01*
X47712152Y-64931196D01*
X47638953Y-64924288D01*
X47547583Y-64935803D01*
X47446916Y-64979500D01*
X47353405Y-65046104D01*
X47285158Y-65123727D01*
X47224159Y-65218658D01*
X47216812Y-65080023D01*
X47209464Y-64941388D01*
X47021615Y-64948492D01*
X46926910Y-64953029D01*
X46871010Y-64959976D01*
X46843925Y-64972660D01*
X46835671Y-64994408D01*
X46835508Y-65010495D01*
X46479971Y-65010495D01*
X46479971Y-64967796D01*
X46040778Y-64967796D01*
X46040778Y-66456172D01*
X43608180Y-66456172D01*
X43611892Y-66456144D01*
X43688210Y-66451616D01*
X43736565Y-66443035D01*
X43747214Y-66434748D01*
X43745854Y-66431773D01*
X44552401Y-66431773D01*
X44991594Y-66431773D01*
X44991594Y-65626585D01*
X45699183Y-65626585D01*
X45699183Y-65236191D01*
X44991594Y-65236191D01*
X44991594Y-64772599D01*
X45747982Y-64772599D01*
X45747982Y-64556967D01*
X46029687Y-64556967D01*
X46039013Y-64635328D01*
X46074148Y-64692138D01*
X46097592Y-64714189D01*
X46185212Y-64760511D01*
X46287785Y-64772411D01*
X46383671Y-64747483D01*
X46386042Y-64746235D01*
X46428489Y-64706430D01*
X46466753Y-64644214D01*
X46470164Y-64636437D01*
X46491362Y-64571233D01*
X46487348Y-64516649D01*
X46470164Y-64469567D01*
X46421376Y-64390591D01*
X46350734Y-64347267D01*
X46247907Y-64333434D01*
X46241832Y-64333406D01*
X46142763Y-64353976D01*
X46071958Y-64412173D01*
X46034420Y-64502724D01*
X46029687Y-64556967D01*
X45747982Y-64556967D01*
X45747982Y-64406604D01*
X44552401Y-64406604D01*
X44552401Y-66431773D01*
X43745854Y-66431773D01*
X43735286Y-66408649D01*
X43701747Y-66346567D01*
X43649964Y-66254440D01*
X43583306Y-66138208D01*
X43505141Y-66003807D01*
X43439337Y-65891856D01*
X43353080Y-65745318D01*
X43274176Y-65610439D01*
X43206337Y-65493631D01*
X43153274Y-65401304D01*
X43118700Y-65339871D01*
X43107287Y-65318257D01*
X43102338Y-65295972D01*
X43108550Y-65266105D01*
X43129250Y-65223198D01*
X43167763Y-65161790D01*
X43227415Y-65076420D01*
X43311533Y-64961628D01*
X43382242Y-64866864D01*
X43474076Y-64744343D01*
X43556856Y-64634005D01*
X43625783Y-64542236D01*
X43676059Y-64475424D01*
X43702886Y-64439957D01*
X43705080Y-64437104D01*
X43705742Y-64423584D01*
X43678798Y-64414573D01*
X43618203Y-64409354D01*
X43517907Y-64407213D01*
X43451306Y-64407072D01*
X43173823Y-64407539D01*
X42978626Y-64701828D01*
X42899045Y-64822604D01*
X42820293Y-64943506D01*
X42750673Y-65051703D01*
X42698485Y-65134366D01*
X42691931Y-65144977D01*
X42600432Y-65293837D01*
X42600432Y-64406604D01*
X42136839Y-64406604D01*
X42136839Y-65415122D01*
X41751768Y-65415122D01*
X41742594Y-65247816D01*
X41731666Y-65047990D01*
X41721846Y-64867887D01*
X41713432Y-64712985D01*
X41706720Y-64588760D01*
X41702008Y-64500689D01*
X41699594Y-64454251D01*
X41699364Y-64449304D01*
X41694035Y-64431130D01*
X41674448Y-64418944D01*
X41632598Y-64411581D01*
X41560481Y-64407874D01*
X41450095Y-64406658D01*
X41406207Y-64406604D01*
X41114767Y-64406604D01*
X41026600Y-64693300D01*
X40988699Y-64816458D01*
X40952558Y-64933737D01*
X40922518Y-65031062D01*
X40904338Y-65089794D01*
X40882124Y-65166372D01*
X40853911Y-65270581D01*
X40825039Y-65382589D01*
X40818960Y-65406989D01*
X40786612Y-65540502D01*
X40761798Y-65640829D01*
X40741929Y-65706281D01*
X40724419Y-65735167D01*
X40706681Y-65725796D01*
X40686126Y-65676479D01*
X40660167Y-65585526D01*
X40626218Y-65451246D01*
X40581690Y-65271948D01*
X40575701Y-65248078D01*
X40533318Y-65080458D01*
X40492352Y-64920309D01*
X40455108Y-64776504D01*
X40423893Y-64657914D01*
X40401012Y-64573412D01*
X40393472Y-64546902D01*
X40352205Y-64406604D01*
X39756348Y-64406604D01*
X39701183Y-65327690D01*
X39688340Y-65538725D01*
X39675847Y-65737609D01*
X39664113Y-65918315D01*
X39653545Y-66074812D01*
X39644550Y-66201073D01*
X39637537Y-66291069D01*
X39632913Y-66338770D01*
X39632704Y-66340274D01*
X39619390Y-66431773D01*
X39379683Y-66431773D01*
X39379683Y-66066832D01*
X38916104Y-66060205D01*
X38452526Y-66053579D01*
X38916088Y-65358189D01*
X39040359Y-65171572D01*
X39140173Y-65020753D01*
X39218207Y-64900974D01*
X39277141Y-64807476D01*
X39319654Y-64735501D01*
X39348424Y-64680289D01*
X39366132Y-64637081D01*
X39375455Y-64601119D01*
X39379074Y-64567644D01*
X39379667Y-64534702D01*
X39379683Y-64406604D01*
X37940105Y-64406604D01*
X37940105Y-64796998D01*
X38794673Y-64796998D01*
X38318590Y-65502303D01*
X38191187Y-65691423D01*
X38088661Y-65844841D01*
X38008338Y-65967131D01*
X37947539Y-66062865D01*
X37903587Y-66136617D01*
X37873806Y-66192959D01*
X37855519Y-66236465D01*
X37846049Y-66271708D01*
X37842719Y-66303261D01*
X37842507Y-66315624D01*
X36596035Y-66315624D01*
X36680179Y-66234523D01*
X36878187Y-65981920D01*
X37041478Y-65701293D01*
X37166761Y-65396091D01*
X37221531Y-65205825D01*
X37252207Y-65034876D01*
X37270360Y-64835195D01*
X37275466Y-64625353D01*
X37267000Y-64423920D01*
X37247977Y-64268755D01*
X37168505Y-63944360D01*
X37090236Y-63746296D01*
X38015906Y-63746296D01*
X38029032Y-63788923D01*
X38041403Y-63799417D01*
X38090034Y-63813901D01*
X38168139Y-63821120D01*
X38260623Y-63821593D01*
X38352389Y-63815841D01*
X38428342Y-63804383D01*
X38473385Y-63787739D01*
X38476897Y-63784414D01*
X38491538Y-63739212D01*
X38466092Y-63700383D01*
X38409178Y-63677334D01*
X38376311Y-63674616D01*
X38335056Y-63671794D01*
X38314279Y-63655028D01*
X38306967Y-63611873D01*
X38306100Y-63550007D01*
X38308093Y-63477448D01*
X38316718Y-63443712D01*
X38335942Y-63438896D01*
X38348799Y-63443394D01*
X38397672Y-63456028D01*
X38473052Y-63467595D01*
X38513496Y-63471763D01*
X38643159Y-63462047D01*
X38750966Y-63408740D01*
X38837549Y-63311517D01*
X38843023Y-63302745D01*
X38883572Y-63193141D01*
X38881346Y-63122184D01*
X39024721Y-63122184D01*
X39035018Y-63248172D01*
X39036874Y-63255312D01*
X39088476Y-63360435D01*
X39173918Y-63440807D01*
X39283148Y-63493005D01*
X39406114Y-63513604D01*
X39532763Y-63499183D01*
X39633119Y-63458367D01*
X39717657Y-63384747D01*
X39770184Y-63285501D01*
X39790162Y-63172298D01*
X39777055Y-63056804D01*
X39730325Y-62950688D01*
X39666029Y-62880166D01*
X39893956Y-62880166D01*
X39905392Y-62935598D01*
X39936387Y-62964626D01*
X39967055Y-63001276D01*
X39996775Y-63079809D01*
X40023740Y-63188632D01*
X40052307Y-63317027D01*
X40075551Y-63405012D01*
X40097208Y-63460131D01*
X40121013Y-63489926D01*
X40150700Y-63501940D01*
X40179810Y-63503819D01*
X40220394Y-63499231D01*
X40247908Y-63478051D01*
X40271490Y-63429156D01*
X40292330Y-63366858D01*
X40317952Y-63297895D01*
X40341081Y-63256543D01*
X40354577Y-63250960D01*
X40373648Y-63284724D01*
X40400976Y-63347272D01*
X40416773Y-63387921D01*
X40446570Y-63457998D01*
X40475186Y-63492600D01*
X40513845Y-63503443D01*
X40527758Y-63503819D01*
X40568160Y-63499421D01*
X40592822Y-63478289D01*
X40610536Y-63428517D01*
X40622376Y-63375721D01*
X40653927Y-63227162D01*
X40678553Y-63119060D01*
X40681863Y-63106615D01*
X40875009Y-63106615D01*
X40877345Y-63209526D01*
X40920038Y-63308190D01*
X40981461Y-63393322D01*
X41048518Y-63446597D01*
X41124255Y-63478444D01*
X41202788Y-63491424D01*
X41308180Y-63492966D01*
X41420240Y-63484376D01*
X41518780Y-63466962D01*
X41570321Y-63449552D01*
X41623336Y-63410094D01*
X41626290Y-63403761D01*
X41849271Y-63403761D01*
X41857297Y-63451419D01*
X41868701Y-63467530D01*
X41894193Y-63484379D01*
X41942644Y-63495340D01*
X42022093Y-63501370D01*
X42140579Y-63503427D01*
X42170326Y-63503445D01*
X42283052Y-63501499D01*
X42379276Y-63496515D01*
X42447560Y-63489290D01*
X42474735Y-63482222D01*
X42498371Y-63443593D01*
X42498897Y-63415496D01*
X42484824Y-63388244D01*
X42448046Y-63372410D01*
X42377113Y-63363903D01*
X42350099Y-63362303D01*
X42210038Y-63354986D01*
X42210038Y-63224305D01*
X42212057Y-63148532D01*
X42217165Y-63129567D01*
X42749430Y-63129567D01*
X42758264Y-63236419D01*
X42802413Y-63335465D01*
X42883098Y-63418137D01*
X42948631Y-63455902D01*
X43063404Y-63492949D01*
X43188941Y-63501000D01*
X43339348Y-63480797D01*
X43355872Y-63477343D01*
X43451539Y-63445385D01*
X43504558Y-63400885D01*
X43512303Y-63346195D01*
X43510087Y-63339121D01*
X43488594Y-63317104D01*
X43440655Y-63310205D01*
X43359244Y-63318366D01*
X43258788Y-63337036D01*
X43174035Y-63351675D01*
X43114741Y-63351235D01*
X43059438Y-63334023D01*
X43026852Y-63318736D01*
X42957033Y-63280686D01*
X42924247Y-63252380D01*
X42930796Y-63232541D01*
X42978978Y-63219888D01*
X43071095Y-63213145D01*
X43209444Y-63211031D01*
X43220589Y-63211023D01*
X43527617Y-63211023D01*
X43527617Y-63163436D01*
X43691127Y-63163436D01*
X43704543Y-63278615D01*
X43754601Y-63383098D01*
X43841321Y-63467356D01*
X43869212Y-63484409D01*
X43943791Y-63514761D01*
X44028099Y-63522742D01*
X44084394Y-63519257D01*
X44164694Y-63507054D01*
X44227739Y-63489292D01*
X44249091Y-63478020D01*
X44278050Y-63462356D01*
X44284006Y-63476431D01*
X44304980Y-63495379D01*
X44356898Y-63503584D01*
X44423253Y-63501693D01*
X44487535Y-63490351D01*
X44533238Y-63470205D01*
X44537422Y-63466513D01*
X44556829Y-63429101D01*
X45506588Y-63429101D01*
X45519715Y-63471728D01*
X45532085Y-63482222D01*
X45575183Y-63495912D01*
X45638114Y-63502344D01*
X45703511Y-63501634D01*
X45754010Y-63493899D01*
X45772382Y-63480597D01*
X45791653Y-63473841D01*
X45839246Y-63486724D01*
X45851681Y-63491842D01*
X45968985Y-63522516D01*
X46090905Y-63520844D01*
X46189466Y-63490434D01*
X46276629Y-63419434D01*
X46335186Y-63317506D01*
X46357824Y-63197632D01*
X46357882Y-63191512D01*
X46337708Y-63060049D01*
X46274801Y-62948556D01*
X46212304Y-62886077D01*
X46484590Y-62886077D01*
X46497771Y-62942138D01*
X46522909Y-62963891D01*
X46551458Y-62995106D01*
X46593554Y-63060822D01*
X46643127Y-63150856D01*
X46685814Y-63237205D01*
X46736397Y-63346167D01*
X46768410Y-63421809D01*
X46784511Y-63474754D01*
X46787360Y-63515622D01*
X46779614Y-63555035D01*
X46771688Y-63580286D01*
X46750362Y-63636766D01*
X46724574Y-63664509D01*
X46678089Y-63673723D01*
X46621697Y-63674616D01*
X46534208Y-63684188D01*
X46488061Y-63711440D01*
X46485559Y-63754175D01*
X46505325Y-63785564D01*
X46530646Y-63803396D01*
X46576370Y-63813684D01*
X46651807Y-63817490D01*
X46766265Y-63815873D01*
X46770350Y-63815753D01*
X46878684Y-63811901D01*
X46947621Y-63806473D01*
X46986559Y-63797001D01*
X47004892Y-63781018D01*
X47012016Y-63756055D01*
X47012593Y-63752135D01*
X47005275Y-63702818D01*
X46968896Y-63681930D01*
X46930963Y-63663809D01*
X46924266Y-63648873D01*
X46954278Y-63576026D01*
X46998225Y-63481514D01*
X47051322Y-63374326D01*
X47108785Y-63263445D01*
X47165830Y-63157860D01*
X47217671Y-63066556D01*
X47259525Y-62998520D01*
X47286606Y-62962737D01*
X47291258Y-62959597D01*
X47325632Y-62929382D01*
X47331603Y-62882529D01*
X47308391Y-62842628D01*
X47295362Y-62835440D01*
X47246162Y-62825629D01*
X47175374Y-62820749D01*
X47163160Y-62820629D01*
X47091406Y-62824369D01*
X47036623Y-62833557D01*
X47030958Y-62835440D01*
X46998271Y-62868987D01*
X46996775Y-62917637D01*
X47026419Y-62959003D01*
X47031242Y-62961960D01*
X47048496Y-62978105D01*
X47049633Y-63005677D01*
X47032272Y-63054547D01*
X46994031Y-63134586D01*
X46985485Y-63151602D01*
X46900848Y-63319485D01*
X46729866Y-62979227D01*
X46781347Y-62939713D01*
X46815693Y-62906257D01*
X46811924Y-62876735D01*
X46798896Y-62859313D01*
X46763875Y-62834510D01*
X46705002Y-62824517D01*
X46628567Y-62825628D01*
X46549428Y-62832197D01*
X46506835Y-62844616D01*
X46488541Y-62868026D01*
X46484590Y-62886077D01*
X46212304Y-62886077D01*
X46211733Y-62885506D01*
X46103070Y-62821878D01*
X45983879Y-62805676D01*
X45875309Y-62828260D01*
X45772382Y-62863721D01*
X45772382Y-62525284D01*
X45644284Y-62532659D01*
X45568027Y-62539768D01*
X45527909Y-62553565D01*
X45511280Y-62579769D01*
X45508502Y-62594071D01*
X45515470Y-62639002D01*
X45560072Y-62662955D01*
X45563401Y-62663815D01*
X45625984Y-62679522D01*
X45625984Y-63016774D01*
X45625700Y-63150854D01*
X45624027Y-63243888D01*
X45619738Y-63303632D01*
X45611605Y-63337839D01*
X45598400Y-63354263D01*
X45578894Y-63360659D01*
X45571335Y-63361824D01*
X45525926Y-63385929D01*
X45506588Y-63429101D01*
X44556829Y-63429101D01*
X44563005Y-63417196D01*
X44546420Y-63376167D01*
X44493952Y-63357524D01*
X44488792Y-63357421D01*
X44430403Y-63357421D01*
X44430403Y-62525284D01*
X44302305Y-62532659D01*
X44226048Y-62539768D01*
X44185930Y-62553565D01*
X44169301Y-62579769D01*
X44166523Y-62594071D01*
X44173491Y-62639002D01*
X44218094Y-62662955D01*
X44221422Y-62663815D01*
X44264756Y-62683287D01*
X44281887Y-62723031D01*
X44284006Y-62764886D01*
X44280259Y-62820683D01*
X44264707Y-62838176D01*
X44241306Y-62832255D01*
X44192447Y-62819466D01*
X44117089Y-62807499D01*
X44076609Y-62803071D01*
X43989406Y-62800967D01*
X43924062Y-62817909D01*
X43870531Y-62849039D01*
X43774141Y-62939118D01*
X43714332Y-63047094D01*
X43691127Y-63163436D01*
X43527617Y-63163436D01*
X43527617Y-63136613D01*
X43505169Y-63022104D01*
X43443998Y-62922990D01*
X43353370Y-62845793D01*
X43242548Y-62797032D01*
X43120796Y-62783228D01*
X43042810Y-62795372D01*
X42922600Y-62847809D01*
X42832819Y-62926697D01*
X42774688Y-63023471D01*
X42749430Y-63129567D01*
X42217165Y-63129567D01*
X42224814Y-63101167D01*
X42258356Y-63064040D01*
X42322733Y-63018978D01*
X42324069Y-63018093D01*
X42390703Y-62975928D01*
X42432658Y-62958597D01*
X42465155Y-62962837D01*
X42496838Y-62981048D01*
X42560253Y-63006760D01*
X42606003Y-62995050D01*
X42624767Y-62948561D01*
X42624832Y-62944777D01*
X42603627Y-62886348D01*
X42547813Y-62845766D01*
X42469090Y-62825491D01*
X42379156Y-62827980D01*
X42289713Y-62855692D01*
X42264937Y-62869161D01*
X42213329Y-62899337D01*
X42191039Y-62904041D01*
X42185752Y-62883260D01*
X42185639Y-62869070D01*
X42175728Y-62835405D01*
X42137426Y-62822031D01*
X42101828Y-62820629D01*
X42001815Y-62830887D01*
X41929957Y-62859041D01*
X41894895Y-62901162D01*
X41892843Y-62915685D01*
X41912275Y-62957165D01*
X41966042Y-62979227D01*
X42039241Y-62995304D01*
X42039241Y-63357421D01*
X41953076Y-63357421D01*
X41882946Y-63370147D01*
X41849271Y-63403761D01*
X41626290Y-63403761D01*
X41644286Y-63365184D01*
X41629265Y-63327603D01*
X41610848Y-63316908D01*
X41566067Y-63313111D01*
X41491196Y-63319218D01*
X41415277Y-63331546D01*
X41279269Y-63346325D01*
X41169009Y-63333202D01*
X41090848Y-63293501D01*
X41062210Y-63257868D01*
X41054176Y-63238495D01*
X41059413Y-63225361D01*
X41085169Y-63217256D01*
X41138696Y-63212971D01*
X41227240Y-63211297D01*
X41342993Y-63211023D01*
X41648847Y-63211023D01*
X41648847Y-63122405D01*
X41635358Y-63040772D01*
X41602409Y-62959024D01*
X41597692Y-62951016D01*
X41516121Y-62861024D01*
X41411266Y-62805732D01*
X41293496Y-62784504D01*
X41173181Y-62796702D01*
X41060691Y-62841688D01*
X40966396Y-62918825D01*
X40916100Y-62992914D01*
X40875009Y-63106615D01*
X40681863Y-63106615D01*
X40698531Y-63043948D01*
X40716141Y-62994360D01*
X40733660Y-62962829D01*
X40753369Y-62941889D01*
X40755255Y-62940328D01*
X40794606Y-62893345D01*
X40788014Y-62856457D01*
X40737656Y-62831651D01*
X40645710Y-62820915D01*
X40624063Y-62820629D01*
X40523565Y-62828439D01*
X40465868Y-62850826D01*
X40452539Y-62886224D01*
X40485145Y-62933070D01*
X40499252Y-62945256D01*
X40531789Y-62976749D01*
X40541544Y-63010803D01*
X40531609Y-63066001D01*
X40523997Y-63093953D01*
X40494617Y-63198823D01*
X40457085Y-63081727D01*
X40432334Y-63012406D01*
X40408791Y-62978960D01*
X40375011Y-62970131D01*
X40345457Y-62971928D01*
X40296669Y-62983566D01*
X40263869Y-63015185D01*
X40234231Y-63079887D01*
X40230820Y-63089025D01*
X40190281Y-63198823D01*
X40160739Y-63089569D01*
X40144580Y-63021276D01*
X40145787Y-62982742D01*
X40166892Y-62957236D01*
X40182433Y-62946295D01*
X40223464Y-62900792D01*
X40230852Y-62851426D01*
X40203056Y-62814703D01*
X40195074Y-62811040D01*
X40133364Y-62798665D01*
X40055105Y-62796760D01*
X39980190Y-62804274D01*
X39928514Y-62820155D01*
X39921354Y-62825509D01*
X39893956Y-62880166D01*
X39666029Y-62880166D01*
X39660050Y-62873608D01*
X39545649Y-62809316D01*
X39426710Y-62785898D01*
X39310684Y-62798789D01*
X39205022Y-62843427D01*
X39117173Y-62915248D01*
X39054590Y-63009688D01*
X39024721Y-63122184D01*
X38881346Y-63122184D01*
X38879985Y-63078796D01*
X38834840Y-62969094D01*
X38750712Y-62873414D01*
X38718414Y-62848956D01*
X38661116Y-62815423D01*
X38605385Y-62801898D01*
X38529700Y-62804249D01*
X38501297Y-62807270D01*
X38402518Y-62816320D01*
X38284342Y-62823973D01*
X38196301Y-62827743D01*
X38106061Y-62831888D01*
X38053661Y-62839940D01*
X38028141Y-62855405D01*
X38018545Y-62881789D01*
X38018097Y-62884755D01*
X38026330Y-62928715D01*
X38072996Y-62952319D01*
X38135302Y-62967957D01*
X38135302Y-63319589D01*
X38135043Y-63456944D01*
X38133494Y-63553087D01*
X38129504Y-63615605D01*
X38121918Y-63652086D01*
X38109583Y-63670115D01*
X38091344Y-63677281D01*
X38080652Y-63679019D01*
X38035244Y-63703124D01*
X38015906Y-63746296D01*
X37090236Y-63746296D01*
X37049226Y-63642519D01*
X36893360Y-63366024D01*
X36704130Y-63117663D01*
X36484755Y-62900226D01*
X36238457Y-62716504D01*
X35968458Y-62569286D01*
X35677977Y-62461361D01*
X35370236Y-62395521D01*
X35060951Y-62374497D01*
X34736151Y-62398684D01*
X34424181Y-62468648D01*
X34128974Y-62582259D01*
X33854465Y-62737383D01*
X33604586Y-62931891D01*
X33383272Y-63163651D01*
X33236994Y-63362783D01*
X33074680Y-63653848D01*
X32956469Y-63958564D01*
X32881827Y-64272289D01*
X32850219Y-64590383D01*
X32162664Y-64590383D01*
X32161877Y-64308159D01*
X32160845Y-63936743D01*
G37*
G36*
X56028013Y-65279984D02*
G01*
X56099156Y-65345520D01*
X56138002Y-65434975D01*
X56142219Y-65478976D01*
X56139257Y-65501272D01*
X56124610Y-65515730D01*
X56089631Y-65524038D01*
X56025675Y-65527884D01*
X55924098Y-65528954D01*
X55886023Y-65528987D01*
X55771388Y-65528263D01*
X55696997Y-65525085D01*
X55654307Y-65517947D01*
X55634772Y-65505341D01*
X55629846Y-65485761D01*
X55629827Y-65483796D01*
X55650482Y-65409289D01*
X55703249Y-65334313D01*
X55774331Y-65274945D01*
X55829905Y-65250686D01*
X55934840Y-65245870D01*
X56028013Y-65279984D01*
G37*
G36*
X44143226Y-62961712D02*
G01*
X44215128Y-63011787D01*
X44263693Y-63082081D01*
X44283990Y-63161826D01*
X44271087Y-63240250D01*
X44220052Y-63306586D01*
X44219716Y-63306851D01*
X44135377Y-63348269D01*
X44039667Y-63358405D01*
X43950511Y-63337588D01*
X43897865Y-63300949D01*
X43851688Y-63221157D01*
X43845036Y-63133859D01*
X43872709Y-63051071D01*
X43929506Y-62984808D01*
X44010228Y-62947088D01*
X44052921Y-62942628D01*
X44143226Y-62961712D01*
G37*
G36*
X46098919Y-62959737D02*
G01*
X46115328Y-62967750D01*
X46166771Y-63015613D01*
X46210654Y-63089508D01*
X46234555Y-63166909D01*
X46235975Y-63186521D01*
X46213608Y-63258396D01*
X46153786Y-63315790D01*
X46067430Y-63350651D01*
X46004178Y-63357421D01*
X45918401Y-63349336D01*
X45857609Y-63320000D01*
X45832272Y-63297531D01*
X45784263Y-63222188D01*
X45776499Y-63142423D01*
X45802054Y-63066307D01*
X45854001Y-63001909D01*
X45925412Y-62957301D01*
X46009360Y-62940554D01*
X46098919Y-62959737D01*
G37*
%TO.C,TP1*%
X85025000Y-15875000D02*
X86425000Y-15875000D01*
X86425000Y-17275000D02*
X85025000Y-17275000D01*
X86425000Y-15875000D02*
X86425000Y-17275000D01*
X85025000Y-17275000D02*
X85025000Y-15875000D01*
%TO.C,D13*%
X31375000Y-35000000D02*
X31375000Y-33150000D01*
X31375000Y-33150000D02*
X30175000Y-33150000D01*
X30175000Y-35000000D02*
X30175000Y-33150000D01*
%TO.C,D7*%
X11125000Y-1900000D02*
X11125000Y-50000D01*
X12325000Y-50000D02*
X11125000Y-50000D01*
X12325000Y-1900000D02*
X12325000Y-50000D01*
%TO.C,D26*%
X88525000Y-16100000D02*
X87325000Y-16100000D01*
X87325000Y-17950000D02*
X87325000Y-16100000D01*
X88525000Y-17950000D02*
X88525000Y-16100000D01*
%TO.C,TP1*%
X19775000Y-9325000D02*
X19775000Y-10725000D01*
X18375000Y-10725000D02*
X18375000Y-9325000D01*
X18375000Y-9325000D02*
X19775000Y-9325000D01*
X19775000Y-10725000D02*
X18375000Y-10725000D01*
%TO.C,D14*%
X31375000Y-54050000D02*
X31375000Y-52200000D01*
X30175000Y-54050000D02*
X30175000Y-52200000D01*
X31375000Y-52200000D02*
X30175000Y-52200000D01*
%TO.C,D25*%
X88524996Y1100000D02*
X88524996Y2950000D01*
X88524996Y2950000D02*
X87324996Y2950000D01*
X87324996Y1100000D02*
X87324996Y2950000D01*
%TO.C,TP1*%
X86425000Y-36275000D02*
X85025000Y-36275000D01*
X85025000Y-34875000D02*
X86425000Y-34875000D01*
X86425000Y-34875000D02*
X86425000Y-36275000D01*
X85025000Y-36275000D02*
X85025000Y-34875000D01*
X85025000Y1775000D02*
X85025000Y3175000D01*
X85025000Y3175000D02*
X86425000Y3175000D01*
X86425000Y3175000D02*
X86425000Y1775000D01*
X86425000Y1775000D02*
X85025000Y1775000D01*
%TO.C,J2*%
X120225000Y-7775000D02*
X122125000Y-7775000D01*
X120225000Y-17175000D02*
X122125000Y-17175000D01*
X116325000Y-7775000D02*
X118325000Y-7775000D01*
X122125000Y-17175000D02*
X122125000Y-7775000D01*
X116325000Y-17175000D02*
X118325000Y-17175000D01*
%TO.C,TP1*%
X85025000Y-53925000D02*
X86425000Y-53925000D01*
X86425000Y-53925000D02*
X86425000Y-55325000D01*
X86425000Y-55325000D02*
X85025000Y-55325000D01*
X85025000Y-55325000D02*
X85025000Y-53925000D01*
X675000Y-9325000D02*
X675000Y-10725000D01*
X-725000Y-9325000D02*
X675000Y-9325000D01*
X-725000Y-10725000D02*
X-725000Y-9325000D01*
X675000Y-10725000D02*
X-725000Y-10725000D01*
%TO.C,G\u002A\u002A\u002A*%
G36*
X118588788Y-54796873D02*
G01*
X118586838Y-54806248D01*
X118552289Y-54994404D01*
X118501088Y-55322069D01*
X118442392Y-55729628D01*
X118421046Y-55885497D01*
X118362761Y-56276046D01*
X118307194Y-56577359D01*
X118263125Y-56744494D01*
X118249396Y-56763955D01*
X118137657Y-56716023D01*
X117927396Y-56597231D01*
X117868395Y-56561287D01*
X117540471Y-56358619D01*
X117182377Y-56987967D01*
X117009858Y-57278123D01*
X116882076Y-57468222D01*
X116823014Y-57523109D01*
X116821542Y-57516920D01*
X116835106Y-57369405D01*
X116874111Y-57073315D01*
X116931375Y-56678194D01*
X116999719Y-56233589D01*
X117071709Y-55790567D01*
X117125517Y-55469747D01*
X117477663Y-55677518D01*
X117711729Y-55793308D01*
X117869650Y-55830711D01*
X117893397Y-55821702D01*
X117973630Y-55707917D01*
X118121466Y-55472334D01*
X118295521Y-55181786D01*
X118455309Y-54925310D01*
X118559943Y-54788138D01*
X118588788Y-54796873D01*
G37*
G36*
X109881372Y-62171989D02*
G01*
X109890011Y-62185299D01*
X109943767Y-62364379D01*
X109979773Y-62667268D01*
X109988869Y-62916697D01*
X109994518Y-63239292D01*
X110020211Y-63399548D01*
X110082366Y-63435880D01*
X110191196Y-63390042D01*
X110346299Y-63327095D01*
X110391987Y-63337285D01*
X110332619Y-63454965D01*
X110175743Y-63675937D01*
X109953200Y-63962059D01*
X109696830Y-64275188D01*
X109438475Y-64577181D01*
X109209974Y-64829897D01*
X109043169Y-64995193D01*
X108972370Y-65037860D01*
X108868785Y-64917542D01*
X108738327Y-64700624D01*
X108732173Y-64688814D01*
X108598780Y-64486859D01*
X108480680Y-64394579D01*
X108473693Y-64393995D01*
X108338978Y-64441781D01*
X108087014Y-64567153D01*
X107771968Y-64743128D01*
X107767269Y-64745880D01*
X107484847Y-64900991D01*
X107296473Y-64983927D01*
X107238415Y-64979093D01*
X107241989Y-64971770D01*
X107366144Y-64788497D01*
X107565445Y-64520125D01*
X107808169Y-64206379D01*
X108062591Y-63886984D01*
X108296987Y-63601666D01*
X108479634Y-63390150D01*
X108578806Y-63292163D01*
X108585304Y-63289647D01*
X108671529Y-63369454D01*
X108802199Y-63568245D01*
X108842881Y-63641030D01*
X109014173Y-63899661D01*
X109180470Y-63976950D01*
X109391172Y-63884835D01*
X109502406Y-63800438D01*
X109632533Y-63667351D01*
X109707072Y-63493981D01*
X109742773Y-63221860D01*
X109754047Y-62921980D01*
X109764316Y-62492836D01*
X109776537Y-62233858D01*
X109796356Y-62114452D01*
X109829419Y-62104026D01*
X109881372Y-62171989D01*
G37*
G36*
X111998311Y-61037500D02*
G01*
X112442356Y-61026076D01*
X112743043Y-60992464D01*
X112957531Y-60924972D01*
X113142979Y-60811908D01*
X113158871Y-60800094D01*
X113392764Y-60652624D01*
X113583962Y-60628955D01*
X113752434Y-60678308D01*
X114181128Y-60747310D01*
X114655897Y-60677619D01*
X115095926Y-60486156D01*
X115264594Y-60361700D01*
X115497664Y-60196810D01*
X115640289Y-60166816D01*
X115664827Y-60259964D01*
X115543637Y-60464498D01*
X115534156Y-60476329D01*
X115447477Y-60597945D01*
X115434683Y-60703891D01*
X115515677Y-60839224D01*
X115710362Y-61049002D01*
X115848405Y-61187737D01*
X116104448Y-61424875D01*
X116311247Y-61581991D01*
X116425796Y-61626623D01*
X116428228Y-61625384D01*
X116583890Y-61619100D01*
X116624725Y-61638213D01*
X116642779Y-61751986D01*
X116499878Y-61955788D01*
X116486399Y-61970423D01*
X116163244Y-62396944D01*
X116020575Y-62784128D01*
X116014121Y-62876337D01*
X116107231Y-63032011D01*
X116374711Y-63234863D01*
X116798786Y-63473782D01*
X117361682Y-63737661D01*
X117459814Y-63779911D01*
X117504385Y-63715160D01*
X117512173Y-63490385D01*
X117487514Y-63142097D01*
X117434741Y-62706809D01*
X117358186Y-62221031D01*
X117262184Y-61721277D01*
X117165626Y-61301192D01*
X116840536Y-60273081D01*
X116414918Y-59352435D01*
X115906750Y-58576328D01*
X115756291Y-58394733D01*
X115541449Y-58142915D01*
X115407080Y-57945916D01*
X115331687Y-57742059D01*
X115293773Y-57469668D01*
X115271842Y-57067066D01*
X115268792Y-56996074D01*
X115189482Y-56258057D01*
X115023961Y-55507275D01*
X114788714Y-54787565D01*
X114500226Y-54142764D01*
X114174980Y-53616707D01*
X113875064Y-53289845D01*
X113525324Y-53091135D01*
X113193976Y-53079987D01*
X112899294Y-53243172D01*
X112659547Y-53567462D01*
X112493009Y-54039628D01*
X112442945Y-54326693D01*
X112418349Y-54716160D01*
X112418509Y-55226047D01*
X112440106Y-55782955D01*
X112479818Y-56313482D01*
X112534325Y-56744227D01*
X112557743Y-56864351D01*
X112579350Y-56998586D01*
X112539992Y-57073667D01*
X112398405Y-57106778D01*
X112113323Y-57115101D01*
X111955019Y-57115339D01*
X111599963Y-57109392D01*
X111401244Y-57082377D01*
X111314544Y-57020530D01*
X111295544Y-56910542D01*
X111236533Y-56434330D01*
X111075180Y-55855831D01*
X110835010Y-55229201D01*
X110539545Y-54608600D01*
X110212308Y-54048183D01*
X109876821Y-53602111D01*
X109842028Y-53564062D01*
X109517150Y-53242068D01*
X109264795Y-53064453D01*
X109042999Y-53010640D01*
X108812274Y-53059134D01*
X108571660Y-53215922D01*
X108400940Y-53494755D01*
X108293373Y-53916636D01*
X108242224Y-54502569D01*
X108235714Y-54856445D01*
X108283095Y-55890514D01*
X108431357Y-56761377D01*
X108682584Y-57480632D01*
X108722400Y-57562582D01*
X108940597Y-57995963D01*
X108309939Y-58626621D01*
X107689838Y-59383654D01*
X107194764Y-60281263D01*
X106839701Y-61292073D01*
X106829276Y-61331940D01*
X106743916Y-61751722D01*
X106662959Y-62307660D01*
X106591735Y-62940831D01*
X106535575Y-63592313D01*
X106499811Y-64203183D01*
X106489772Y-64714519D01*
X106500024Y-64971268D01*
X106512607Y-65297541D01*
X106477710Y-65461374D01*
X106409535Y-65498343D01*
X106347506Y-65451398D01*
X106306849Y-65292128D01*
X106284144Y-64992882D01*
X106275973Y-64526006D01*
X106275781Y-64416460D01*
X106327296Y-63032970D01*
X106483908Y-61812113D01*
X106748725Y-60743564D01*
X107124851Y-59817000D01*
X107615390Y-59022096D01*
X108050377Y-58516109D01*
X108584892Y-57972986D01*
X108317930Y-57192779D01*
X108174243Y-56651718D01*
X108067467Y-56008544D01*
X108001695Y-55323610D01*
X107981018Y-54657270D01*
X108009526Y-54069878D01*
X108078805Y-53665261D01*
X108277178Y-53192192D01*
X108560102Y-52888781D01*
X108909414Y-52763269D01*
X109306951Y-52823900D01*
X109596652Y-52976399D01*
X110006853Y-53341633D01*
X110411558Y-53862143D01*
X110786042Y-54493339D01*
X111105578Y-55190628D01*
X111345441Y-55909419D01*
X111432426Y-56287078D01*
X111542275Y-56864351D01*
X112321843Y-56864351D01*
X112252106Y-56492621D01*
X112195755Y-56025377D01*
X112175086Y-55464925D01*
X112187600Y-54873439D01*
X112230795Y-54313091D01*
X112302172Y-53846051D01*
X112368156Y-53606346D01*
X112615239Y-53150796D01*
X112936873Y-52875105D01*
X113310815Y-52784257D01*
X113714823Y-52883234D01*
X114126655Y-53177021D01*
X114155987Y-53205795D01*
X114496025Y-53642300D01*
X114814687Y-54228295D01*
X115093801Y-54912504D01*
X115315194Y-55643652D01*
X115460695Y-56370463D01*
X115512145Y-57032421D01*
X115519894Y-57372314D01*
X115561898Y-57614574D01*
X115666290Y-57831913D01*
X115861203Y-58097045D01*
X115981769Y-58246204D01*
X116554137Y-59091481D01*
X117028698Y-60096594D01*
X117398453Y-61242293D01*
X117656403Y-62509331D01*
X117726618Y-63044981D01*
X117780521Y-63470731D01*
X117836405Y-63816590D01*
X117886264Y-64037232D01*
X117911549Y-64091963D01*
X118833697Y-64702906D01*
X119662967Y-65187736D01*
X120446243Y-65564498D01*
X121230412Y-65851242D01*
X122062360Y-66066016D01*
X122988972Y-66226866D01*
X123681347Y-66312932D01*
X124848904Y-66441003D01*
X124848904Y-67023823D01*
X124832425Y-67384452D01*
X124780449Y-67564037D01*
X124723410Y-67591601D01*
X124536980Y-67569813D01*
X124296730Y-67542226D01*
X123180357Y-67402121D01*
X122233287Y-67253318D01*
X121424040Y-67088774D01*
X120721134Y-66901450D01*
X120093089Y-66684305D01*
X119677396Y-66509091D01*
X119325674Y-66331665D01*
X118864230Y-66073345D01*
X118349024Y-65766665D01*
X117836019Y-65444155D01*
X117757313Y-65392886D01*
X117318710Y-65109368D01*
X116937914Y-64870306D01*
X116647070Y-64695342D01*
X116478326Y-64604115D01*
X116452175Y-64595471D01*
X116346398Y-64671592D01*
X116187425Y-64860949D01*
X116132788Y-64937932D01*
X115741673Y-65360029D01*
X115216409Y-65715158D01*
X114620666Y-65970752D01*
X114018117Y-66094243D01*
X113859465Y-66100714D01*
X113575163Y-66070107D01*
X113162746Y-65988988D01*
X112683537Y-65873409D01*
X112198855Y-65739421D01*
X111770024Y-65603077D01*
X111458363Y-65480428D01*
X111423094Y-65462954D01*
X111034251Y-65343744D01*
X110695228Y-65359066D01*
X110422727Y-65371006D01*
X110291529Y-65319628D01*
X110319703Y-65235864D01*
X110525317Y-65150646D01*
X110567679Y-65140712D01*
X111197485Y-64946987D01*
X111693878Y-64677913D01*
X112039535Y-64349266D01*
X112217131Y-63976823D01*
X112222309Y-63633893D01*
X112091609Y-63370323D01*
X111826099Y-63083557D01*
X111479781Y-62818705D01*
X111106662Y-62620875D01*
X110943144Y-62565400D01*
X110658379Y-62460523D01*
X110508777Y-62351433D01*
X110505676Y-62266768D01*
X110660415Y-62235162D01*
X110818667Y-62251055D01*
X111144951Y-62304187D01*
X111144951Y-62283470D01*
X111399750Y-62283470D01*
X111479059Y-62426735D01*
X111676037Y-62616974D01*
X111803101Y-62712681D01*
X112194893Y-63076608D01*
X112420115Y-63491859D01*
X112473194Y-63925724D01*
X112348554Y-64345494D01*
X112130811Y-64635696D01*
X111866606Y-64899900D01*
X112097334Y-65145499D01*
X112560638Y-65499890D01*
X113133375Y-65722572D01*
X113767614Y-65806546D01*
X114415426Y-65744818D01*
X114960702Y-65563468D01*
X115278289Y-65379003D01*
X115590916Y-65137594D01*
X115857878Y-64879031D01*
X116038473Y-64643105D01*
X116091997Y-64469606D01*
X116089643Y-64459853D01*
X115985744Y-64385407D01*
X115728311Y-64267317D01*
X115355557Y-64121525D01*
X114905693Y-63963972D01*
X114882996Y-63956447D01*
X114342663Y-63769973D01*
X113970672Y-63615151D01*
X113741613Y-63470930D01*
X113630079Y-63316255D01*
X113610661Y-63130074D01*
X113647297Y-62932547D01*
X113774141Y-62718829D01*
X114027042Y-62621707D01*
X114419815Y-62639402D01*
X114948676Y-62764927D01*
X115361821Y-62878076D01*
X115620314Y-62920832D01*
X115758180Y-62891490D01*
X115809441Y-62788346D01*
X115813331Y-62721622D01*
X115854572Y-62530887D01*
X115955470Y-62268288D01*
X115971530Y-62233647D01*
X116068244Y-61995386D01*
X116064490Y-61830980D01*
X115964056Y-61647417D01*
X115768747Y-61414505D01*
X115510853Y-61180184D01*
X115479572Y-61156206D01*
X115297443Y-61037491D01*
X115105438Y-60967684D01*
X114846025Y-60935849D01*
X114461672Y-60931046D01*
X114307402Y-60933350D01*
X113687068Y-60972539D01*
X113253935Y-61063703D01*
X113138296Y-61112427D01*
X112822511Y-61238101D01*
X112459110Y-61333292D01*
X112406667Y-61342501D01*
X112052360Y-61453511D01*
X111762135Y-61690172D01*
X111693362Y-61769828D01*
X111515119Y-62017991D01*
X111411077Y-62224797D01*
X111399750Y-62283470D01*
X111144951Y-62283470D01*
X111144951Y-61044246D01*
X111998311Y-61037500D01*
G37*
G36*
X118448706Y-62759651D02*
G01*
X118779713Y-62829131D01*
X118917311Y-62942617D01*
X118864774Y-63103706D01*
X118813653Y-63160629D01*
X118785622Y-63265252D01*
X118925772Y-63385506D01*
X119014443Y-63434275D01*
X119234324Y-63564352D01*
X119330780Y-63655046D01*
X119279155Y-63681155D01*
X119251868Y-63676981D01*
X119112222Y-63653975D01*
X118857671Y-63614312D01*
X118774991Y-63601685D01*
X118518132Y-63547706D01*
X118409727Y-63462134D01*
X118397843Y-63300622D01*
X118399697Y-63281205D01*
X118366565Y-63057470D01*
X118179854Y-62909838D01*
X118160834Y-62900964D01*
X117969711Y-62797216D01*
X117963386Y-62741806D01*
X118145868Y-62732767D01*
X118448706Y-62759651D01*
G37*
G36*
X110832697Y-59828279D02*
G01*
X110966611Y-59940130D01*
X111080600Y-60142513D01*
X111043931Y-60299532D01*
X110936990Y-60421211D01*
X110739604Y-60563027D01*
X110589294Y-60519660D01*
X110496274Y-60385457D01*
X110442500Y-60148657D01*
X110510107Y-59948965D01*
X110654904Y-59828224D01*
X110832697Y-59828279D01*
G37*
G36*
X115651669Y-59125512D02*
G01*
X115785583Y-59237364D01*
X115899572Y-59439747D01*
X115862903Y-59596766D01*
X115755962Y-59718444D01*
X115558576Y-59860260D01*
X115408266Y-59816893D01*
X115315247Y-59682691D01*
X115261472Y-59445890D01*
X115329080Y-59246198D01*
X115473876Y-59125458D01*
X115651669Y-59125512D01*
G37*
%TO.C,D29*%
X98740326Y-76488365D02*
X99219141Y-74701402D01*
X99219141Y-74701402D02*
X98060030Y-74390819D01*
X97581215Y-76177782D02*
X98060030Y-74390819D01*
%TO.C,D10*%
X12325000Y-57200000D02*
X11125000Y-57200000D01*
X12325000Y-59050000D02*
X12325000Y-57200000D01*
X11125000Y-59050000D02*
X11125000Y-57200000D01*
%TO.C,TP1*%
X38875000Y-5725000D02*
X37475000Y-5725000D01*
X38875000Y-4325000D02*
X38875000Y-5725000D01*
X37475000Y-4325000D02*
X38875000Y-4325000D01*
X37475000Y-5725000D02*
X37475000Y-4325000D01*
%TO.C,D27*%
X88525000Y-37000000D02*
X88525000Y-35150000D01*
X88525000Y-35150000D02*
X87325000Y-35150000D01*
X87325000Y-37000000D02*
X87325000Y-35150000D01*
%TO.C,D11*%
X30175000Y3100000D02*
X30175000Y4950000D01*
X31375000Y4950000D02*
X30175000Y4950000D01*
X31375000Y3100000D02*
X31375000Y4950000D01*
D12*
%TO.C,J3*%
X77402392Y10069500D02*
X73880500Y10069500D01*
X73880500Y13880500D02*
X77402392Y13880500D01*
X72580500Y11369501D02*
X72580500Y12580499D01*
X79226877Y10917797D02*
X78176732Y10284822D01*
X79819500Y11983049D02*
X79819500Y11966951D01*
X78176732Y13665178D02*
X79226877Y13032203D01*
X72580500Y11369501D02*
G75*
G03*
X73880499Y10069500I1300000J-1D01*
G01*
X79226877Y10917797D02*
G75*
G03*
X79819500Y11966951I-632373J1049152D01*
G01*
X73880500Y13880500D02*
G75*
G03*
X72580500Y12580498I0J-1300000D01*
G01*
X77402392Y10069500D02*
G75*
G03*
X78176732Y10284822I-2J1500008D01*
G01*
X78176732Y13665178D02*
G75*
G03*
X77402392Y13880500I-774342J-1284686D01*
G01*
X79819500Y11983049D02*
G75*
G03*
X79226877Y13032203I-1225000J0D01*
G01*
D14*
%TO.C,D24*%
X77800000Y-75100000D02*
X77800000Y-73250000D01*
X79000000Y-73250000D02*
X77800000Y-73250000D01*
X79000000Y-75100000D02*
X79000000Y-73250000D01*
D11*
%TO.C,J4*%
X112875000Y-43250000D02*
X112875000Y-45050000D01*
X114675000Y-45250000D02*
X112875000Y-45250000D01*
X114675000Y-49150000D02*
X114675000Y-47350000D01*
X112875000Y-45250000D02*
X112875000Y-47050000D01*
X114675000Y-45050000D02*
X114675000Y-43250000D01*
X112875000Y-47350000D02*
X112875000Y-49150000D01*
X112875000Y-47050000D02*
X114675000Y-47050000D01*
X112875000Y-45050000D02*
X114675000Y-45050000D01*
X114675000Y-47350000D02*
X112875000Y-47350000D01*
X112875000Y-49150000D02*
X114675000Y-49150000D01*
X114675000Y-47050000D02*
X114675000Y-45250000D01*
X114675000Y-43250000D02*
X112875000Y-43250000D01*
D14*
%TO.C,D1*%
X120510000Y-17590000D02*
X116625000Y-17590000D01*
X116625000Y-19860000D02*
X120510000Y-19860000D01*
X120510000Y-19860000D02*
X120510000Y-17590000D01*
%TD*%
M02*
