%TF.GenerationSoftware,KiCad,Pcbnew,(6.0.4)*%
%TF.CreationDate,2022-07-16T13:56:11-07:00*%
%TF.ProjectId,Conejo,436f6e65-6a6f-42e6-9b69-6361645f7063,v1.0.0*%
%TF.SameCoordinates,Original*%
%TF.FileFunction,Paste,Top*%
%TF.FilePolarity,Positive*%
%FSLAX46Y46*%
G04 Gerber Fmt 4.6, Leading zero omitted, Abs format (unit mm)*
G04 Created by KiCad (PCBNEW (6.0.4)) date 2022-07-16 13:56:11*
%MOMM*%
%LPD*%
G01*
G04 APERTURE LIST*
G04 Aperture macros list*
%AMRoundRect*
0 Rectangle with rounded corners*
0 $1 Rounding radius*
0 $2 $3 $4 $5 $6 $7 $8 $9 X,Y pos of 4 corners*
0 Add a 4 corners polygon primitive as box body*
4,1,4,$2,$3,$4,$5,$6,$7,$8,$9,$2,$3,0*
0 Add four circle primitives for the rounded corners*
1,1,$1+$1,$2,$3*
1,1,$1+$1,$4,$5*
1,1,$1+$1,$6,$7*
1,1,$1+$1,$8,$9*
0 Add four rect primitives between the rounded corners*
20,1,$1+$1,$2,$3,$4,$5,0*
20,1,$1+$1,$4,$5,$6,$7,0*
20,1,$1+$1,$6,$7,$8,$9,0*
20,1,$1+$1,$8,$9,$2,$3,0*%
%AMRotRect*
0 Rectangle, with rotation*
0 The origin of the aperture is its center*
0 $1 length*
0 $2 width*
0 $3 Rotation angle, in degrees counterclockwise*
0 Add horizontal line*
21,1,$1,$2,0,0,$3*%
G04 Aperture macros list end*
%TA.AperFunction,Profile*%
%ADD10C,0.150000*%
%TD*%
%ADD11R,0.700000X0.600000*%
%ADD12R,2.550000X2.500000*%
%ADD13RoundRect,0.090000X0.535000X-0.210000X0.535000X0.210000X-0.535000X0.210000X-0.535000X-0.210000X0*%
%ADD14RoundRect,0.105000X0.245000X0.445000X-0.245000X0.445000X-0.245000X-0.445000X0.245000X-0.445000X0*%
%ADD15R,1.000000X1.550000*%
%ADD16R,1.450000X0.600000*%
%ADD17R,1.450000X0.300000*%
%ADD18RotRect,0.600000X0.700000X75.000000*%
%ADD19RoundRect,0.250000X-0.375000X-0.625000X0.375000X-0.625000X0.375000X0.625000X-0.375000X0.625000X0*%
%ADD20RotRect,2.550000X2.500000X255.000000*%
%ADD21RotRect,2.550000X2.500000X75.000000*%
G04 APERTURE END LIST*
D10*
X93101679Y-93260414D02*
X76199999Y-84725000D01*
X57150000Y-69675000D02*
G75*
G03*
X56150001Y-68675000I-1000000J0D01*
G01*
X67675000Y12525000D02*
X84725000Y12525000D01*
X56150001Y-68675000D02*
X-8525000Y-68674999D01*
X27567894Y7525000D02*
X-8525000Y7525000D01*
X66675000Y13525000D02*
G75*
G03*
X65675000Y14525000I-1000000J0D01*
G01*
X85725000Y11525000D02*
G75*
G03*
X86725000Y10525000I1000000J0D01*
G01*
X57150000Y-81725000D02*
G75*
G03*
X58150000Y-82725000I1000000J0D01*
G01*
X29575000Y12525000D02*
G75*
G03*
X28575000Y11525000I0J-1000000D01*
G01*
X-9525000Y-67675000D02*
X-9525000Y6525000D01*
X46625000Y12525000D02*
X29575000Y12525000D01*
X48625000Y14525000D02*
G75*
G03*
X47625000Y13525000I0J-1000000D01*
G01*
X-9525000Y-67675000D02*
G75*
G03*
X-8525000Y-68674999I1000001J2D01*
G01*
X27567894Y7525007D02*
G75*
G03*
X28567893Y8525000I6J999993D01*
G01*
X120775000Y9525000D02*
G75*
G03*
X119775000Y10525000I-1000000J0D01*
G01*
X57150000Y-81725000D02*
X57150001Y-69675000D01*
X93101679Y-93260414D02*
X110536640Y-97932098D01*
X46625000Y12525000D02*
G75*
G03*
X47625000Y13525000I0J1000000D01*
G01*
X86725000Y10525000D02*
X119775000Y10525000D01*
X110536648Y-97932067D02*
G75*
G03*
X111761384Y-97224991I258852J965867D01*
G01*
X65675000Y14525000D02*
X48625000Y14525000D01*
X28575000Y11525000D02*
X28567893Y8525000D01*
X76199999Y-84725000D02*
X58150000Y-82725000D01*
X85725000Y11525000D02*
G75*
G03*
X84725000Y12525000I-1000000J0D01*
G01*
X120775000Y9525000D02*
X120775000Y-63575000D01*
X66675000Y13525000D02*
G75*
G03*
X67675000Y12525000I1000000J0D01*
G01*
X120775000Y-63575000D02*
X111761384Y-97224991D01*
X-8525000Y7525000D02*
G75*
G03*
X-9525000Y6525000I-1J-999999D01*
G01*
D11*
%TO.C,D21*%
X67875000Y-14550000D03*
X67875000Y-15950000D03*
%TD*%
D12*
%TO.C,SW9*%
X11965000Y-61690000D03*
X24865000Y-64230000D03*
X11965000Y-61690000D03*
%TD*%
%TO.C,SW14*%
X50065000Y2460000D03*
X62965000Y-80000D03*
X50065000Y2460000D03*
%TD*%
D11*
%TO.C,D8*%
X10725000Y-19550000D03*
X10725000Y-20950000D03*
%TD*%
%TO.C,D4*%
X-8325000Y-19550000D03*
X-8325000Y-20950000D03*
%TD*%
D12*
%TO.C,SW4*%
X-7085000Y-42640000D03*
X5815000Y-45180000D03*
X-7085000Y-42640000D03*
%TD*%
%TO.C,SW25*%
X88165000Y-20590000D03*
X88165000Y-20590000D03*
X101065000Y-23130000D03*
%TD*%
%TO.C,SW21*%
X82015000Y-40180000D03*
X69115000Y-37640000D03*
X69115000Y-37640000D03*
%TD*%
D13*
%TO.C,SW1*%
X117075000Y-29725000D03*
X117075000Y-26725000D03*
X117075000Y-25225000D03*
D14*
X117925000Y-23775000D03*
X120225000Y-31175000D03*
X120225000Y-23775000D03*
X117925000Y-31175000D03*
%TD*%
D11*
%TO.C,D17*%
X48825000Y-31600000D03*
X48825000Y-33000000D03*
%TD*%
%TO.C,D28*%
X86925000Y-54650000D03*
X86925000Y-56050000D03*
%TD*%
%TO.C,D6*%
X-8325000Y-57650000D03*
X-8325000Y-59050000D03*
%TD*%
%TO.C,D5*%
X-8325000Y-38600000D03*
X-8325000Y-40000000D03*
%TD*%
D12*
%TO.C,SW18*%
X59590000Y-75740000D03*
X72490000Y-78280000D03*
X59590000Y-75740000D03*
%TD*%
D11*
%TO.C,D9*%
X10725000Y-38600000D03*
X10725000Y-40000000D03*
%TD*%
%TO.C,D16*%
X48825000Y-12550000D03*
X48825000Y-13950000D03*
%TD*%
D12*
%TO.C,SW10*%
X43915000Y-2080000D03*
X31015000Y460000D03*
X31015000Y460000D03*
%TD*%
D11*
%TO.C,D18*%
X48825000Y-50650000D03*
X48825000Y-52050000D03*
%TD*%
%TO.C,D19*%
X58350000Y-71700000D03*
X58350000Y-73100000D03*
%TD*%
%TO.C,D20*%
X67875000Y4500000D03*
X67875000Y3100000D03*
%TD*%
D12*
%TO.C,SW6*%
X24865000Y-7080000D03*
X11965000Y-4540000D03*
X11965000Y-4540000D03*
%TD*%
%TO.C,SW11*%
X43915000Y-21130000D03*
X31015000Y-18590000D03*
X31015000Y-18590000D03*
%TD*%
D15*
%TO.C,SW29*%
X119525000Y-34850000D03*
X119525000Y-40100000D03*
X117825000Y-40100000D03*
X117825000Y-34850000D03*
%TD*%
D11*
%TO.C,D15*%
X48825000Y6500000D03*
X48825000Y5100000D03*
%TD*%
%TO.C,D12*%
X29775000Y-14550000D03*
X29775000Y-15950000D03*
%TD*%
D12*
%TO.C,SW24*%
X101065000Y-4080000D03*
X88165000Y-1540000D03*
X88165000Y-1540000D03*
%TD*%
%TO.C,SW27*%
X88165000Y-58690000D03*
X88165000Y-58690000D03*
X101065000Y-61230000D03*
%TD*%
%TO.C,SW8*%
X24865000Y-45180000D03*
X11965000Y-42640000D03*
X11965000Y-42640000D03*
%TD*%
D11*
%TO.C,D22*%
X67875000Y-33600000D03*
X67875000Y-35000000D03*
%TD*%
D12*
%TO.C,SW5*%
X-7085000Y-61690000D03*
X-7085000Y-61690000D03*
X5815000Y-64230000D03*
%TD*%
%TO.C,SW19*%
X82015000Y-2080000D03*
X69115000Y460000D03*
X69115000Y460000D03*
%TD*%
%TO.C,SW23*%
X78640000Y-77740000D03*
X91540000Y-80280000D03*
X78640000Y-77740000D03*
%TD*%
%TO.C,SW16*%
X50065000Y-35639999D03*
X50065000Y-35639999D03*
X62965000Y-38179999D03*
%TD*%
%TO.C,SW7*%
X24865000Y-26129999D03*
X11965000Y-23589999D03*
X11965000Y-23589999D03*
%TD*%
D11*
%TO.C,D3*%
X-8325000Y-500000D03*
X-8325000Y-1900000D03*
%TD*%
D12*
%TO.C,SW20*%
X82015000Y-21130000D03*
X69115000Y-18590000D03*
X69115000Y-18590000D03*
%TD*%
D11*
%TO.C,D23*%
X67875000Y-52650000D03*
X67875000Y-54050000D03*
%TD*%
D12*
%TO.C,SW15*%
X62965002Y-19130000D03*
X50065002Y-16590000D03*
X50065002Y-16590000D03*
%TD*%
%TO.C,SW26*%
X88165000Y-39640000D03*
X101065000Y-42180000D03*
X88165000Y-39640000D03*
%TD*%
D11*
%TO.C,D13*%
X29775000Y-33600000D03*
X29775000Y-35000000D03*
%TD*%
%TO.C,D7*%
X10725000Y-500000D03*
X10725000Y-1900000D03*
%TD*%
%TO.C,D26*%
X86925000Y-16550000D03*
X86925000Y-17950000D03*
%TD*%
%TO.C,D14*%
X29775000Y-52650000D03*
X29775000Y-54050000D03*
%TD*%
%TO.C,D25*%
X86925000Y2500000D03*
X86925000Y1100000D03*
%TD*%
D12*
%TO.C,SW17*%
X50065000Y-54690000D03*
X50065000Y-54690000D03*
X62965000Y-57230000D03*
%TD*%
D16*
%TO.C,J2*%
X114180000Y-15725000D03*
X114180000Y-14925000D03*
D17*
X114180000Y-13725000D03*
X114180000Y-12725000D03*
X114180000Y-12225000D03*
X114180000Y-11225000D03*
D16*
X114180000Y-10025000D03*
X114180000Y-9225000D03*
X114180000Y-9225000D03*
X114180000Y-10025000D03*
D17*
X114180000Y-10725000D03*
X114180000Y-11725000D03*
X114180000Y-13225000D03*
X114180000Y-14225000D03*
D16*
X114180000Y-14925000D03*
X114180000Y-15725000D03*
%TD*%
D12*
%TO.C,SW22*%
X69115000Y-56690000D03*
X69115000Y-56690000D03*
X82015000Y-59230000D03*
%TD*%
D18*
%TO.C,D29*%
X98523117Y-74980777D03*
X98160771Y-76333073D03*
%TD*%
D11*
%TO.C,D10*%
X10725000Y-57650000D03*
X10725000Y-59050000D03*
%TD*%
D12*
%TO.C,SW2*%
X-7085000Y-4540000D03*
X5815000Y-7080000D03*
X-7085000Y-4540000D03*
%TD*%
%TO.C,SW3*%
X-7085000Y-23590000D03*
X5815000Y-26130000D03*
X-7085000Y-23590000D03*
%TD*%
D11*
%TO.C,D27*%
X86925000Y-35600000D03*
X86925000Y-37000000D03*
%TD*%
D12*
%TO.C,SW12*%
X43915000Y-40180000D03*
X31015000Y-37640000D03*
X31015000Y-37640000D03*
%TD*%
D11*
%TO.C,D11*%
X29775000Y4500000D03*
X29775000Y3100000D03*
%TD*%
D12*
%TO.C,SW13*%
X31015000Y-56690000D03*
X31015000Y-56690000D03*
X43915000Y-59230000D03*
%TD*%
D11*
%TO.C,D24*%
X77400000Y-73700000D03*
X77400000Y-75100000D03*
%TD*%
D19*
%TO.C,D1*%
X119625000Y-18725000D03*
X116825000Y-18725000D03*
%TD*%
D20*
%TO.C,SW28*%
X105380281Y-74424015D03*
X99588064Y-86227058D03*
D21*
X105380281Y-74424015D03*
D20*
X99588064Y-86227058D03*
%TD*%
M02*
