M48
; DRILL file {KiCad (6.0.4)} date Fri Jul 15 09:16:00 2022
; FORMAT={-:-/ absolute / inch / decimal}
; #@! TF.CreationDate,2022-07-15T09:16:00-07:00
; #@! TF.GenerationSoftware,Kicad,Pcbnew,(6.0.4)
; #@! TF.FileFunction,Plated,1,4,PTH
FMAT,2
INCH
; #@! TA.AperFunction,Plated,PTH,ViaDrill
T1C0.0118
; #@! TA.AperFunction,Plated,PTH,ComponentDrill
T2C0.0157
; #@! TA.AperFunction,Plated,PTH,ComponentDrill
T3C0.0236
; #@! TA.AperFunction,Plated,PTH,ComponentDrill
T4C0.0315
; #@! TA.AperFunction,Plated,PTH,ComponentDrill
T5C0.0394
; #@! TA.AperFunction,Plated,PTH,ComponentDrill
T6C0.1181
%
G90
G05
T1
X-0.0634Y-1.4531
X-0.0634Y0.047
X-0.0634Y-0.703
X-0.0633Y-2.2029
X0.0639Y-1.4527
X0.0639Y-2.2027
X0.066Y0.0473
X0.0662Y-0.7027
X0.6866Y-1.4531
X0.6883Y-0.7026
X0.6888Y-2.2025
X0.6912Y0.0479
X0.8112Y-2.2025
X0.8139Y-0.7027
X0.816Y-1.4527
X0.8184Y0.0475
X1.4366Y-1.2562
X1.4366Y-2.0062
X1.4386Y0.2443
X1.4388Y-0.5057
X1.5612Y-0.5057
X1.5638Y0.2441
X1.566Y-1.2559
X1.5662Y-2.0059
X2.1866Y-0.4275
X2.1888Y-1.9269
X2.1888Y0.3231
X2.1931Y-1.1761
X2.3088Y-0.4265
X2.31Y-1.9268
X2.3137Y-1.1771
X2.3138Y0.3229
X2.563Y-2.7557
X2.6899Y-2.7559
X2.9365Y-2.0063
X2.9366Y-1.2562
X2.9388Y-0.5057
X2.9409Y0.2447
X3.0592Y0.2446
X3.0612Y-0.5057
X3.0617Y-1.2557
X3.0637Y-2.0059
X3.311Y-2.8356
X3.44Y-2.8346
X3.6865Y-2.085
X3.6866Y-0.585
X3.6866Y-1.3349
X3.6869Y0.1654
X3.8117Y-0.5845
X3.8133Y-1.3346
X3.8138Y-2.0846
X3.8165Y0.1654
X3.8254Y-3.0304
X3.8561Y-2.9168
X3.9527Y0.2697
X3.9823Y0.2815
X4.0298Y0.1946
X4.061Y0.1909
X4.0866Y0.1654
X4.1089Y0.1431
X4.1466Y0.3209
X4.1468Y0.3684
X4.1703Y0.3474
X4.1703Y0.3002
X4.1923Y-0.7522
X4.1998Y-0.1821
X4.2116Y-0.7274
X4.2313Y-0.1821
X4.2313Y-1.0325
X4.2412Y-0.9991
X4.247Y-0.9124
X4.247Y-0.936
X4.247Y-0.9596
X4.251Y-1.188
X4.2705Y0.1584
X4.2707Y0.127
X4.2726Y-0.999
X4.2785Y0.2018
X4.2884Y-1.9006
X4.3022Y0.127
X4.3022Y0.1801
X4.3022Y-0.192
X4.3022Y-0.2235
X4.3061Y-0.8868
X4.3219Y0.2746
X4.3295Y0.219
X4.3297Y0.1875
X4.3376Y-0.6367
X4.3376Y-0.3573
X4.3376Y-0.3888
X4.3377Y-0.6682
X4.3398Y0.2487
X4.3455Y-0.4301
X4.3533Y0.2734
X4.3617Y0.3037
X4.3878Y-0.1417
X4.3885Y0.2872
X4.4138Y-0.1595
X4.4293Y-0.4998
X4.434Y-0.4687
X4.4423Y0.2592
X4.4478Y-0.3632
X4.4646Y0.2815
X4.4695Y-0.6447
X4.4793Y-0.9911
X4.4798Y-1.1289
X4.5406Y-0.501
X4.5505Y-0.7665
X4.562Y-0.7372
X4.5712Y0.3279
X4.5721Y-0.501
X4.5847Y-0.5301
X4.5856Y-1.6024
X4.5915Y-0.9183
X4.6063Y-1.5787
X4.6093Y-1.2018
X4.6093Y-1.2332
X4.6132Y-0.5435
X4.6414Y-0.5574
X4.6535Y-0.9931
X4.6554Y-0.2618
X4.6604Y-1.0817
X4.6624Y-0.1053
X4.6668Y-1.1875
X4.686Y-0.8848
X4.686Y-0.9163
X4.6911Y-0.1939
X4.6911Y-0.2254
X4.6919Y-1.0817
X4.6959Y0.3514
X4.7057Y-1.3278
X4.7057Y-1.623
X4.7096Y-0.7785
X4.7348Y-0.7975
T2
X-0.065Y0.0787
X-0.065Y-0.6713
X-0.065Y-2.1713
X-0.065Y-1.4213
X0.065Y0.0787
X0.065Y-0.6713
X0.065Y-2.1713
X0.065Y-1.4213
X0.685Y0.0787
X0.685Y-0.6713
X0.685Y-1.4213
X0.685Y-2.1713
X0.815Y0.0787
X0.815Y-0.6713
X0.815Y-1.4213
X0.815Y-2.1713
X1.435Y-0.4744
X1.435Y0.2756
X1.435Y-1.2244
X1.435Y-1.9744
X1.565Y-0.4744
X1.565Y0.2756
X1.565Y-1.2244
X1.565Y-1.9744
X2.185Y0.3543
X2.185Y-0.3957
X2.185Y-1.1457
X2.185Y-1.8957
X2.315Y0.3543
X2.315Y-0.3957
X2.315Y-1.1457
X2.315Y-1.8957
X2.56Y-2.7244
X2.69Y-2.7244
X2.935Y0.2756
X2.935Y-0.4744
X2.935Y-1.2244
X2.935Y-1.9744
X3.065Y0.2756
X3.065Y-0.4744
X3.065Y-1.2244
X3.065Y-1.9744
X3.31Y-2.8031
X3.44Y-2.8031
X3.685Y0.1969
X3.685Y-0.5531
X3.685Y-1.3031
X3.685Y-2.0531
X3.815Y0.1969
X3.815Y-0.5531
X3.815Y-1.3031
X3.815Y-2.0531
X3.8549Y-3.0414
X3.8886Y-2.9158
T4
X4.3612Y-1.3622
X4.44Y-1.3622
T5
X4.44Y-1.7776
X4.44Y-1.8563
X4.44Y-1.939
T6
X-0.15Y-0.1787
X-0.15Y-0.9287
X-0.15Y-1.6787
X-0.15Y-2.4287
X-0.1Y-0.2787
X-0.1Y-1.0287
X-0.1Y-1.7787
X-0.1Y-2.5287
X0.1Y-0.2787
X0.1Y-1.0287
X0.1Y-1.7787
X0.1Y-2.5287
X0.15Y-0.1787
X0.15Y-0.9287
X0.15Y-1.6787
X0.15Y-2.4287
X0.6Y-0.1787
X0.6Y-0.9287
X0.6Y-1.6787
X0.6Y-2.4287
X0.65Y-0.2787
X0.65Y-1.0287
X0.65Y-1.7787
X0.65Y-2.5287
X0.85Y-0.2787
X0.85Y-1.0287
X0.85Y-1.7787
X0.85Y-2.5287
X0.9Y-0.1787
X0.9Y-0.9287
X0.9Y-1.6787
X0.9Y-2.4287
X1.35Y0.0181
X1.35Y-0.7319
X1.35Y-1.4819
X1.35Y-2.2319
X1.4Y-0.0819
X1.4Y-0.8319
X1.4Y-1.5819
X1.4Y-2.3319
X1.6Y-0.0819
X1.6Y-0.8319
X1.6Y-1.5819
X1.6Y-2.3319
X1.65Y0.0181
X1.65Y-0.7319
X1.65Y-1.4819
X1.65Y-2.2319
X2.1Y0.0969
X2.1Y-1.4031
X2.1Y-2.1531
X2.1Y-0.6531
X2.15Y-0.0031
X2.15Y-1.5031
X2.15Y-2.2531
X2.15Y-0.7531
X2.35Y-0.0031
X2.35Y-1.5031
X2.35Y-2.2531
X2.35Y-0.7531
X2.4Y0.0969
X2.4Y-1.4031
X2.4Y-2.1531
X2.4Y-0.6531
X2.475Y-2.9819
X2.525Y-3.0819
X2.725Y-3.0819
X2.775Y-2.9819
X2.85Y0.0181
X2.85Y-0.7319
X2.85Y-1.4819
X2.85Y-2.2319
X2.9Y-0.0819
X2.9Y-0.8319
X2.9Y-1.5819
X2.9Y-2.3319
X3.1Y-0.0819
X3.1Y-0.8319
X3.1Y-1.5819
X3.1Y-2.3319
X3.15Y0.0181
X3.15Y-0.7319
X3.15Y-1.4819
X3.15Y-2.2319
X3.225Y-3.0606
X3.275Y-3.1606
X3.475Y-3.1606
X3.525Y-3.0606
X3.6Y-0.0606
X3.6Y-0.8106
X3.6Y-1.5606
X3.6Y-2.3106
X3.65Y-0.1606
X3.65Y-0.9106
X3.65Y-1.6606
X3.65Y-2.4106
X3.85Y-0.1606
X3.85Y-0.9106
X3.85Y-1.6606
X3.85Y-2.4106
X3.9Y-0.0606
X3.9Y-0.8106
X3.9Y-1.5606
X3.9Y-2.3106
X3.9542Y-3.2702
X4.0059Y-3.077
X4.0378Y-3.3444
X4.1155Y-3.0546
T3
G00X4.5096Y-0.3211
M15
G01X4.553Y-0.3211
M16
G05
G00X4.5096Y-0.6612
M15
G01X4.553Y-0.6612
M16
G05
G00X4.6841Y-0.3211
M15
G01X4.7077Y-0.3211
M16
G05
G00X4.6841Y-0.6612
M15
G01X4.7077Y-0.6612
M16
G05
T0
M30
