%TF.GenerationSoftware,KiCad,Pcbnew,(6.0.4)*%
%TF.CreationDate,2022-08-02T22:58:54-07:00*%
%TF.ProjectId,Conejo,436f6e65-6a6f-42e6-9b69-6361645f7063,v1.0.0*%
%TF.SameCoordinates,Original*%
%TF.FileFunction,Legend,Top*%
%TF.FilePolarity,Positive*%
%FSLAX46Y46*%
G04 Gerber Fmt 4.6, Leading zero omitted, Abs format (unit mm)*
G04 Created by KiCad (PCBNEW (6.0.4)) date 2022-08-02 22:58:54*
%MOMM*%
%LPD*%
G01*
G04 APERTURE LIST*
%TA.AperFunction,Profile*%
%ADD10C,0.150000*%
%TD*%
%ADD11C,0.150000*%
%ADD12C,0.200000*%
%ADD13C,0.250000*%
%ADD14C,0.120000*%
G04 APERTURE END LIST*
D10*
X85725000Y13525000D02*
X85725000Y11525000D01*
X93101679Y-93260414D02*
X76199999Y-84725000D01*
X57150000Y-69675000D02*
G75*
G03*
X56150001Y-68675000I-1000000J0D01*
G01*
X29575000Y12528800D02*
X46625000Y12525000D01*
X56150001Y-68675000D02*
X-8525000Y-68674999D01*
X48625000Y14525000D02*
G75*
G03*
X47625000Y13525000I0J-1000000D01*
G01*
X27575000Y7525000D02*
X-8525000Y7525000D01*
X28575000Y11528800D02*
X28575000Y8525000D01*
X85725000Y11525000D02*
G75*
G03*
X86725000Y10525000I1000000J0D01*
G01*
X57150000Y-81725000D02*
G75*
G03*
X58150000Y-82725000I1000000J0D01*
G01*
X-9525000Y-67675000D02*
X-9525000Y6525000D01*
X-8525000Y7525000D02*
G75*
G03*
X-9525000Y6525000I-1J-999999D01*
G01*
X-9525000Y-67675000D02*
G75*
G03*
X-8525000Y-68674999I1000001J2D01*
G01*
X46625000Y12525000D02*
G75*
G03*
X47625000Y13525000I0J1000000D01*
G01*
X29575000Y12528800D02*
G75*
G03*
X28575000Y11528800I0J-1000000D01*
G01*
X120775000Y9525000D02*
G75*
G03*
X119775000Y10525000I-1000000J0D01*
G01*
X57150000Y-81725000D02*
X57150001Y-69675000D01*
X93101679Y-93260414D02*
X110536640Y-97932098D01*
X86725000Y10525000D02*
X119775000Y10525000D01*
X110536648Y-97932067D02*
G75*
G03*
X111761384Y-97224991I258852J965867D01*
G01*
X84725000Y14525000D02*
X48625000Y14525000D01*
X76199999Y-84725000D02*
X58150000Y-82725000D01*
X27575000Y7525000D02*
G75*
G03*
X28575000Y8525000I0J1000000D01*
G01*
X85725000Y13525000D02*
G75*
G03*
X84725000Y14525000I-1000000J0D01*
G01*
X120775000Y9525000D02*
X120775000Y-63575000D01*
X120775000Y-63575000D02*
X111761384Y-97224991D01*
D11*
X58748809Y-3010714D02*
X58710714Y-3048809D01*
X58596428Y-3086904D01*
X58520238Y-3086904D01*
X58405952Y-3048809D01*
X58329761Y-2972619D01*
X58291666Y-2896428D01*
X58253571Y-2744047D01*
X58253571Y-2629761D01*
X58291666Y-2477380D01*
X58329761Y-2401190D01*
X58405952Y-2325000D01*
X58520238Y-2286904D01*
X58596428Y-2286904D01*
X58710714Y-2325000D01*
X58748809Y-2363095D01*
X59244047Y-2286904D02*
X59396428Y-2286904D01*
X59472619Y-2325000D01*
X59548809Y-2401190D01*
X59586904Y-2553571D01*
X59586904Y-2820238D01*
X59548809Y-2972619D01*
X59472619Y-3048809D01*
X59396428Y-3086904D01*
X59244047Y-3086904D01*
X59167857Y-3048809D01*
X59091666Y-2972619D01*
X59053571Y-2820238D01*
X59053571Y-2553571D01*
X59091666Y-2401190D01*
X59167857Y-2325000D01*
X59244047Y-2286904D01*
X60310714Y-3086904D02*
X59929761Y-3086904D01*
X59929761Y-2286904D01*
X60920238Y-2553571D02*
X60920238Y-3086904D01*
X60729761Y-2248809D02*
X60539285Y-2820238D01*
X61034523Y-2820238D01*
X89665476Y-53986904D02*
X89398809Y-53605952D01*
X89208333Y-53986904D02*
X89208333Y-53186904D01*
X89513095Y-53186904D01*
X89589285Y-53225000D01*
X89627380Y-53263095D01*
X89665476Y-53339285D01*
X89665476Y-53453571D01*
X89627380Y-53529761D01*
X89589285Y-53567857D01*
X89513095Y-53605952D01*
X89208333Y-53605952D01*
X90160714Y-53186904D02*
X90313095Y-53186904D01*
X90389285Y-53225000D01*
X90465476Y-53301190D01*
X90503571Y-53453571D01*
X90503571Y-53720238D01*
X90465476Y-53872619D01*
X90389285Y-53948809D01*
X90313095Y-53986904D01*
X90160714Y-53986904D01*
X90084523Y-53948809D01*
X90008333Y-53872619D01*
X89970238Y-53720238D01*
X89970238Y-53453571D01*
X90008333Y-53301190D01*
X90084523Y-53225000D01*
X90160714Y-53186904D01*
X90770238Y-53186904D02*
X90960714Y-53986904D01*
X91113095Y-53415476D01*
X91265476Y-53986904D01*
X91455952Y-53186904D01*
X92103571Y-53453571D02*
X92103571Y-53986904D01*
X91913095Y-53148809D02*
X91722619Y-53720238D01*
X92217857Y-53720238D01*
X89715476Y-15986904D02*
X89448809Y-15605952D01*
X89258333Y-15986904D02*
X89258333Y-15186904D01*
X89563095Y-15186904D01*
X89639285Y-15225000D01*
X89677380Y-15263095D01*
X89715476Y-15339285D01*
X89715476Y-15453571D01*
X89677380Y-15529761D01*
X89639285Y-15567857D01*
X89563095Y-15605952D01*
X89258333Y-15605952D01*
X90210714Y-15186904D02*
X90363095Y-15186904D01*
X90439285Y-15225000D01*
X90515476Y-15301190D01*
X90553571Y-15453571D01*
X90553571Y-15720238D01*
X90515476Y-15872619D01*
X90439285Y-15948809D01*
X90363095Y-15986904D01*
X90210714Y-15986904D01*
X90134523Y-15948809D01*
X90058333Y-15872619D01*
X90020238Y-15720238D01*
X90020238Y-15453571D01*
X90058333Y-15301190D01*
X90134523Y-15225000D01*
X90210714Y-15186904D01*
X90820238Y-15186904D02*
X91010714Y-15986904D01*
X91163095Y-15415476D01*
X91315476Y-15986904D01*
X91505952Y-15186904D01*
X91772619Y-15263095D02*
X91810714Y-15225000D01*
X91886904Y-15186904D01*
X92077380Y-15186904D01*
X92153571Y-15225000D01*
X92191666Y-15263095D01*
X92229761Y-15339285D01*
X92229761Y-15415476D01*
X92191666Y-15529761D01*
X91734523Y-15986904D01*
X92229761Y-15986904D01*
D12*
X69367857Y11620238D02*
X69510714Y11572619D01*
X69748809Y11572619D01*
X69844047Y11620238D01*
X69891666Y11667857D01*
X69939285Y11763095D01*
X69939285Y11858333D01*
X69891666Y11953571D01*
X69844047Y12001190D01*
X69748809Y12048809D01*
X69558333Y12096428D01*
X69463095Y12144047D01*
X69415476Y12191666D01*
X69367857Y12286904D01*
X69367857Y12382142D01*
X69415476Y12477380D01*
X69463095Y12525000D01*
X69558333Y12572619D01*
X69796428Y12572619D01*
X69939285Y12525000D01*
X70272619Y12572619D02*
X70510714Y11572619D01*
X70701190Y12286904D01*
X70891666Y11572619D01*
X71129761Y12572619D01*
X71510714Y11572619D02*
X71510714Y12572619D01*
X71748809Y12572619D01*
X71891666Y12525000D01*
X71986904Y12429761D01*
X72034523Y12334523D01*
X72082142Y12144047D01*
X72082142Y12001190D01*
X72034523Y11810714D01*
X71986904Y11715476D01*
X71891666Y11620238D01*
X71748809Y11572619D01*
X71510714Y11572619D01*
X113084523Y-42827380D02*
X112751190Y-42351190D01*
X112513095Y-42827380D02*
X112513095Y-41827380D01*
X112894047Y-41827380D01*
X112989285Y-41875000D01*
X113036904Y-41922619D01*
X113084523Y-42017857D01*
X113084523Y-42160714D01*
X113036904Y-42255952D01*
X112989285Y-42303571D01*
X112894047Y-42351190D01*
X112513095Y-42351190D01*
X114036904Y-41875000D02*
X113941666Y-41827380D01*
X113798809Y-41827380D01*
X113655952Y-41875000D01*
X113560714Y-41970238D01*
X113513095Y-42065476D01*
X113465476Y-42255952D01*
X113465476Y-42398809D01*
X113513095Y-42589285D01*
X113560714Y-42684523D01*
X113655952Y-42779761D01*
X113798809Y-42827380D01*
X113894047Y-42827380D01*
X114036904Y-42779761D01*
X114084523Y-42732142D01*
X114084523Y-42398809D01*
X113894047Y-42398809D01*
X114846428Y-42303571D02*
X114989285Y-42351190D01*
X115036904Y-42398809D01*
X115084523Y-42494047D01*
X115084523Y-42636904D01*
X115036904Y-42732142D01*
X114989285Y-42779761D01*
X114894047Y-42827380D01*
X114513095Y-42827380D01*
X114513095Y-41827380D01*
X114846428Y-41827380D01*
X114941666Y-41875000D01*
X114989285Y-41922619D01*
X115036904Y-42017857D01*
X115036904Y-42113095D01*
X114989285Y-42208333D01*
X114941666Y-42255952D01*
X114846428Y-42303571D01*
X114513095Y-42303571D01*
D11*
X80115476Y-73136904D02*
X79848809Y-72755952D01*
X79658333Y-73136904D02*
X79658333Y-72336904D01*
X79963095Y-72336904D01*
X80039285Y-72375000D01*
X80077380Y-72413095D01*
X80115476Y-72489285D01*
X80115476Y-72603571D01*
X80077380Y-72679761D01*
X80039285Y-72717857D01*
X79963095Y-72755952D01*
X79658333Y-72755952D01*
X80610714Y-72336904D02*
X80763095Y-72336904D01*
X80839285Y-72375000D01*
X80915476Y-72451190D01*
X80953571Y-72603571D01*
X80953571Y-72870238D01*
X80915476Y-73022619D01*
X80839285Y-73098809D01*
X80763095Y-73136904D01*
X80610714Y-73136904D01*
X80534523Y-73098809D01*
X80458333Y-73022619D01*
X80420238Y-72870238D01*
X80420238Y-72603571D01*
X80458333Y-72451190D01*
X80534523Y-72375000D01*
X80610714Y-72336904D01*
X81220238Y-72336904D02*
X81410714Y-73136904D01*
X81563095Y-72565476D01*
X81715476Y-73136904D01*
X81905952Y-72336904D01*
X82591666Y-72336904D02*
X82210714Y-72336904D01*
X82172619Y-72717857D01*
X82210714Y-72679761D01*
X82286904Y-72641666D01*
X82477380Y-72641666D01*
X82553571Y-72679761D01*
X82591666Y-72717857D01*
X82629761Y-72794047D01*
X82629761Y-72984523D01*
X82591666Y-73060714D01*
X82553571Y-73098809D01*
X82477380Y-73136904D01*
X82286904Y-73136904D01*
X82210714Y-73098809D01*
X82172619Y-73060714D01*
X77748809Y-5010714D02*
X77710714Y-5048809D01*
X77596428Y-5086904D01*
X77520238Y-5086904D01*
X77405952Y-5048809D01*
X77329761Y-4972619D01*
X77291666Y-4896428D01*
X77253571Y-4744047D01*
X77253571Y-4629761D01*
X77291666Y-4477380D01*
X77329761Y-4401190D01*
X77405952Y-4325000D01*
X77520238Y-4286904D01*
X77596428Y-4286904D01*
X77710714Y-4325000D01*
X77748809Y-4363095D01*
X78244047Y-4286904D02*
X78396428Y-4286904D01*
X78472619Y-4325000D01*
X78548809Y-4401190D01*
X78586904Y-4553571D01*
X78586904Y-4820238D01*
X78548809Y-4972619D01*
X78472619Y-5048809D01*
X78396428Y-5086904D01*
X78244047Y-5086904D01*
X78167857Y-5048809D01*
X78091666Y-4972619D01*
X78053571Y-4820238D01*
X78053571Y-4553571D01*
X78091666Y-4401190D01*
X78167857Y-4325000D01*
X78244047Y-4286904D01*
X79310714Y-5086904D02*
X78929761Y-5086904D01*
X78929761Y-4286904D01*
X79958333Y-4286904D02*
X79577380Y-4286904D01*
X79539285Y-4667857D01*
X79577380Y-4629761D01*
X79653571Y-4591666D01*
X79844047Y-4591666D01*
X79920238Y-4629761D01*
X79958333Y-4667857D01*
X79996428Y-4744047D01*
X79996428Y-4934523D01*
X79958333Y-5010714D01*
X79920238Y-5048809D01*
X79844047Y-5086904D01*
X79653571Y-5086904D01*
X79577380Y-5048809D01*
X79539285Y-5010714D01*
X1548809Y-10010714D02*
X1510714Y-10048809D01*
X1396428Y-10086904D01*
X1320238Y-10086904D01*
X1205952Y-10048809D01*
X1129761Y-9972619D01*
X1091666Y-9896428D01*
X1053571Y-9744047D01*
X1053571Y-9629761D01*
X1091666Y-9477380D01*
X1129761Y-9401190D01*
X1205952Y-9325000D01*
X1320238Y-9286904D01*
X1396428Y-9286904D01*
X1510714Y-9325000D01*
X1548809Y-9363095D01*
X2044047Y-9286904D02*
X2196428Y-9286904D01*
X2272619Y-9325000D01*
X2348809Y-9401190D01*
X2386904Y-9553571D01*
X2386904Y-9820238D01*
X2348809Y-9972619D01*
X2272619Y-10048809D01*
X2196428Y-10086904D01*
X2044047Y-10086904D01*
X1967857Y-10048809D01*
X1891666Y-9972619D01*
X1853571Y-9820238D01*
X1853571Y-9553571D01*
X1891666Y-9401190D01*
X1967857Y-9325000D01*
X2044047Y-9286904D01*
X3110714Y-10086904D02*
X2729761Y-10086904D01*
X2729761Y-9286904D01*
X3796428Y-10086904D02*
X3339285Y-10086904D01*
X3567857Y-10086904D02*
X3567857Y-9286904D01*
X3491666Y-9401190D01*
X3415476Y-9477380D01*
X3339285Y-9515476D01*
X20648809Y-10010714D02*
X20610714Y-10048809D01*
X20496428Y-10086904D01*
X20420238Y-10086904D01*
X20305952Y-10048809D01*
X20229761Y-9972619D01*
X20191666Y-9896428D01*
X20153571Y-9744047D01*
X20153571Y-9629761D01*
X20191666Y-9477380D01*
X20229761Y-9401190D01*
X20305952Y-9325000D01*
X20420238Y-9286904D01*
X20496428Y-9286904D01*
X20610714Y-9325000D01*
X20648809Y-9363095D01*
X21144047Y-9286904D02*
X21296428Y-9286904D01*
X21372619Y-9325000D01*
X21448809Y-9401190D01*
X21486904Y-9553571D01*
X21486904Y-9820238D01*
X21448809Y-9972619D01*
X21372619Y-10048809D01*
X21296428Y-10086904D01*
X21144047Y-10086904D01*
X21067857Y-10048809D01*
X20991666Y-9972619D01*
X20953571Y-9820238D01*
X20953571Y-9553571D01*
X20991666Y-9401190D01*
X21067857Y-9325000D01*
X21144047Y-9286904D01*
X22210714Y-10086904D02*
X21829761Y-10086904D01*
X21829761Y-9286904D01*
X22439285Y-9363095D02*
X22477380Y-9325000D01*
X22553571Y-9286904D01*
X22744047Y-9286904D01*
X22820238Y-9325000D01*
X22858333Y-9363095D01*
X22896428Y-9439285D01*
X22896428Y-9515476D01*
X22858333Y-9629761D01*
X22401190Y-10086904D01*
X22896428Y-10086904D01*
D12*
X-7871190Y-66627380D02*
X-7871190Y-67341666D01*
X-7918809Y-67484523D01*
X-8014047Y-67579761D01*
X-8156904Y-67627380D01*
X-8252142Y-67627380D01*
X-6918809Y-67627380D02*
X-7395000Y-67627380D01*
X-7395000Y-66627380D01*
X-6014047Y-67532142D02*
X-6061666Y-67579761D01*
X-6204523Y-67627380D01*
X-6299761Y-67627380D01*
X-6442619Y-67579761D01*
X-6537857Y-67484523D01*
X-6585476Y-67389285D01*
X-6633095Y-67198809D01*
X-6633095Y-67055952D01*
X-6585476Y-66865476D01*
X-6537857Y-66770238D01*
X-6442619Y-66675000D01*
X-6299761Y-66627380D01*
X-6204523Y-66627380D01*
X-6061666Y-66675000D01*
X-6014047Y-66722619D01*
X-5299761Y-66627380D02*
X-5299761Y-67341666D01*
X-5347380Y-67484523D01*
X-5442619Y-67579761D01*
X-5585476Y-67627380D01*
X-5680714Y-67627380D01*
X-4347380Y-67627380D02*
X-4823571Y-67627380D01*
X-4823571Y-66627380D01*
X-3442619Y-67532142D02*
X-3490238Y-67579761D01*
X-3633095Y-67627380D01*
X-3728333Y-67627380D01*
X-3871190Y-67579761D01*
X-3966428Y-67484523D01*
X-4014047Y-67389285D01*
X-4061666Y-67198809D01*
X-4061666Y-67055952D01*
X-4014047Y-66865476D01*
X-3966428Y-66770238D01*
X-3871190Y-66675000D01*
X-3728333Y-66627380D01*
X-3633095Y-66627380D01*
X-3490238Y-66675000D01*
X-3442619Y-66722619D01*
X-2728333Y-66627380D02*
X-2728333Y-67341666D01*
X-2775952Y-67484523D01*
X-2871190Y-67579761D01*
X-3014047Y-67627380D01*
X-3109285Y-67627380D01*
X-1775952Y-67627380D02*
X-2252142Y-67627380D01*
X-2252142Y-66627380D01*
X-871190Y-67532142D02*
X-918809Y-67579761D01*
X-1061666Y-67627380D01*
X-1156904Y-67627380D01*
X-1299761Y-67579761D01*
X-1395000Y-67484523D01*
X-1442619Y-67389285D01*
X-1490238Y-67198809D01*
X-1490238Y-67055952D01*
X-1442619Y-66865476D01*
X-1395000Y-66770238D01*
X-1299761Y-66675000D01*
X-1156904Y-66627380D01*
X-1061666Y-66627380D01*
X-918809Y-66675000D01*
X-871190Y-66722619D01*
X-156904Y-66627380D02*
X-156904Y-67341666D01*
X-204523Y-67484523D01*
X-299761Y-67579761D01*
X-442619Y-67627380D01*
X-537857Y-67627380D01*
X795476Y-67627380D02*
X319285Y-67627380D01*
X319285Y-66627380D01*
X1700238Y-67532142D02*
X1652619Y-67579761D01*
X1509761Y-67627380D01*
X1414523Y-67627380D01*
X1271666Y-67579761D01*
X1176428Y-67484523D01*
X1128809Y-67389285D01*
X1081190Y-67198809D01*
X1081190Y-67055952D01*
X1128809Y-66865476D01*
X1176428Y-66770238D01*
X1271666Y-66675000D01*
X1414523Y-66627380D01*
X1509761Y-66627380D01*
X1652619Y-66675000D01*
X1700238Y-66722619D01*
D11*
X96848809Y-7010714D02*
X96810714Y-7048809D01*
X96696428Y-7086904D01*
X96620238Y-7086904D01*
X96505952Y-7048809D01*
X96429761Y-6972619D01*
X96391666Y-6896428D01*
X96353571Y-6744047D01*
X96353571Y-6629761D01*
X96391666Y-6477380D01*
X96429761Y-6401190D01*
X96505952Y-6325000D01*
X96620238Y-6286904D01*
X96696428Y-6286904D01*
X96810714Y-6325000D01*
X96848809Y-6363095D01*
X97344047Y-6286904D02*
X97496428Y-6286904D01*
X97572619Y-6325000D01*
X97648809Y-6401190D01*
X97686904Y-6553571D01*
X97686904Y-6820238D01*
X97648809Y-6972619D01*
X97572619Y-7048809D01*
X97496428Y-7086904D01*
X97344047Y-7086904D01*
X97267857Y-7048809D01*
X97191666Y-6972619D01*
X97153571Y-6820238D01*
X97153571Y-6553571D01*
X97191666Y-6401190D01*
X97267857Y-6325000D01*
X97344047Y-6286904D01*
X98410714Y-7086904D02*
X98029761Y-7086904D01*
X98029761Y-6286904D01*
X99020238Y-6286904D02*
X98867857Y-6286904D01*
X98791666Y-6325000D01*
X98753571Y-6363095D01*
X98677380Y-6477380D01*
X98639285Y-6629761D01*
X98639285Y-6934523D01*
X98677380Y-7010714D01*
X98715476Y-7048809D01*
X98791666Y-7086904D01*
X98944047Y-7086904D01*
X99020238Y-7048809D01*
X99058333Y-7010714D01*
X99096428Y-6934523D01*
X99096428Y-6744047D01*
X99058333Y-6667857D01*
X99020238Y-6629761D01*
X98944047Y-6591666D01*
X98791666Y-6591666D01*
X98715476Y-6629761D01*
X98677380Y-6667857D01*
X98639285Y-6744047D01*
X89365476Y3063095D02*
X89098809Y3444047D01*
X88908333Y3063095D02*
X88908333Y3863095D01*
X89213095Y3863095D01*
X89289285Y3825000D01*
X89327380Y3786904D01*
X89365476Y3710714D01*
X89365476Y3596428D01*
X89327380Y3520238D01*
X89289285Y3482142D01*
X89213095Y3444047D01*
X88908333Y3444047D01*
X89860714Y3863095D02*
X90013095Y3863095D01*
X90089285Y3825000D01*
X90165476Y3748809D01*
X90203571Y3596428D01*
X90203571Y3329761D01*
X90165476Y3177380D01*
X90089285Y3101190D01*
X90013095Y3063095D01*
X89860714Y3063095D01*
X89784523Y3101190D01*
X89708333Y3177380D01*
X89670238Y3329761D01*
X89670238Y3596428D01*
X89708333Y3748809D01*
X89784523Y3825000D01*
X89860714Y3863095D01*
X90470238Y3863095D02*
X90660714Y3063095D01*
X90813095Y3634523D01*
X90965476Y3063095D01*
X91155952Y3863095D01*
X91879761Y3063095D02*
X91422619Y3063095D01*
X91651190Y3063095D02*
X91651190Y3863095D01*
X91575000Y3748809D01*
X91498809Y3672619D01*
X91422619Y3634523D01*
X39798809Y-5010714D02*
X39760714Y-5048809D01*
X39646428Y-5086904D01*
X39570238Y-5086904D01*
X39455952Y-5048809D01*
X39379761Y-4972619D01*
X39341666Y-4896428D01*
X39303571Y-4744047D01*
X39303571Y-4629761D01*
X39341666Y-4477380D01*
X39379761Y-4401190D01*
X39455952Y-4325000D01*
X39570238Y-4286904D01*
X39646428Y-4286904D01*
X39760714Y-4325000D01*
X39798809Y-4363095D01*
X40294047Y-4286904D02*
X40446428Y-4286904D01*
X40522619Y-4325000D01*
X40598809Y-4401190D01*
X40636904Y-4553571D01*
X40636904Y-4820238D01*
X40598809Y-4972619D01*
X40522619Y-5048809D01*
X40446428Y-5086904D01*
X40294047Y-5086904D01*
X40217857Y-5048809D01*
X40141666Y-4972619D01*
X40103571Y-4820238D01*
X40103571Y-4553571D01*
X40141666Y-4401190D01*
X40217857Y-4325000D01*
X40294047Y-4286904D01*
X41360714Y-5086904D02*
X40979761Y-5086904D01*
X40979761Y-4286904D01*
X41551190Y-4286904D02*
X42046428Y-4286904D01*
X41779761Y-4591666D01*
X41894047Y-4591666D01*
X41970238Y-4629761D01*
X42008333Y-4667857D01*
X42046428Y-4744047D01*
X42046428Y-4934523D01*
X42008333Y-5010714D01*
X41970238Y-5048809D01*
X41894047Y-5086904D01*
X41665476Y-5086904D01*
X41589285Y-5048809D01*
X41551190Y-5010714D01*
X89665476Y-35036904D02*
X89398809Y-34655952D01*
X89208333Y-35036904D02*
X89208333Y-34236904D01*
X89513095Y-34236904D01*
X89589285Y-34275000D01*
X89627380Y-34313095D01*
X89665476Y-34389285D01*
X89665476Y-34503571D01*
X89627380Y-34579761D01*
X89589285Y-34617857D01*
X89513095Y-34655952D01*
X89208333Y-34655952D01*
X90160714Y-34236904D02*
X90313095Y-34236904D01*
X90389285Y-34275000D01*
X90465476Y-34351190D01*
X90503571Y-34503571D01*
X90503571Y-34770238D01*
X90465476Y-34922619D01*
X90389285Y-34998809D01*
X90313095Y-35036904D01*
X90160714Y-35036904D01*
X90084523Y-34998809D01*
X90008333Y-34922619D01*
X89970238Y-34770238D01*
X89970238Y-34503571D01*
X90008333Y-34351190D01*
X90084523Y-34275000D01*
X90160714Y-34236904D01*
X90770238Y-34236904D02*
X90960714Y-35036904D01*
X91113095Y-34465476D01*
X91265476Y-35036904D01*
X91455952Y-34236904D01*
X91684523Y-34236904D02*
X92179761Y-34236904D01*
X91913095Y-34541666D01*
X92027380Y-34541666D01*
X92103571Y-34579761D01*
X92141666Y-34617857D01*
X92179761Y-34694047D01*
X92179761Y-34884523D01*
X92141666Y-34960714D01*
X92103571Y-34998809D01*
X92027380Y-35036904D01*
X91798809Y-35036904D01*
X91722619Y-34998809D01*
X91684523Y-34960714D01*
%TO.C,TP1*%
X94665476Y-8175000D02*
X94589285Y-8136904D01*
X94475000Y-8136904D01*
X94360714Y-8175000D01*
X94284523Y-8251190D01*
X94246428Y-8327380D01*
X94208333Y-8479761D01*
X94208333Y-8594047D01*
X94246428Y-8746428D01*
X94284523Y-8822619D01*
X94360714Y-8898809D01*
X94475000Y-8936904D01*
X94551190Y-8936904D01*
X94665476Y-8898809D01*
X94703571Y-8860714D01*
X94703571Y-8594047D01*
X94551190Y-8594047D01*
X95046428Y-8936904D02*
X95046428Y-8136904D01*
X95503571Y-8936904D01*
X95503571Y-8136904D01*
X95884523Y-8936904D02*
X95884523Y-8136904D01*
X96075000Y-8136904D01*
X96189285Y-8175000D01*
X96265476Y-8251190D01*
X96303571Y-8327380D01*
X96341666Y-8479761D01*
X96341666Y-8594047D01*
X96303571Y-8746428D01*
X96265476Y-8822619D01*
X96189285Y-8898809D01*
X96075000Y-8936904D01*
X95884523Y-8936904D01*
D12*
%TO.C,SW1*%
X117741666Y-32977380D02*
X117741666Y-31977380D01*
X118122619Y-31977380D01*
X118217857Y-32025000D01*
X118265476Y-32072619D01*
X118313095Y-32167857D01*
X118313095Y-32310714D01*
X118265476Y-32405952D01*
X118217857Y-32453571D01*
X118122619Y-32501190D01*
X117741666Y-32501190D01*
X118646428Y-31977380D02*
X118884523Y-32977380D01*
X119075000Y-32263095D01*
X119265476Y-32977380D01*
X119503571Y-31977380D01*
X120455952Y-32977380D02*
X120122619Y-32501190D01*
X119884523Y-32977380D02*
X119884523Y-31977380D01*
X120265476Y-31977380D01*
X120360714Y-32025000D01*
X120408333Y-32072619D01*
X120455952Y-32167857D01*
X120455952Y-32310714D01*
X120408333Y-32405952D01*
X120360714Y-32453571D01*
X120265476Y-32501190D01*
X119884523Y-32501190D01*
D11*
%TO.C,TP1*%
X75565476Y-6175000D02*
X75489285Y-6136904D01*
X75375000Y-6136904D01*
X75260714Y-6175000D01*
X75184523Y-6251190D01*
X75146428Y-6327380D01*
X75108333Y-6479761D01*
X75108333Y-6594047D01*
X75146428Y-6746428D01*
X75184523Y-6822619D01*
X75260714Y-6898809D01*
X75375000Y-6936904D01*
X75451190Y-6936904D01*
X75565476Y-6898809D01*
X75603571Y-6860714D01*
X75603571Y-6594047D01*
X75451190Y-6594047D01*
X75946428Y-6936904D02*
X75946428Y-6136904D01*
X76403571Y-6936904D01*
X76403571Y-6136904D01*
X76784523Y-6936904D02*
X76784523Y-6136904D01*
X76975000Y-6136904D01*
X77089285Y-6175000D01*
X77165476Y-6251190D01*
X77203571Y-6327380D01*
X77241666Y-6479761D01*
X77241666Y-6594047D01*
X77203571Y-6746428D01*
X77165476Y-6822619D01*
X77089285Y-6898809D01*
X76975000Y-6936904D01*
X76784523Y-6936904D01*
X75565476Y-74825000D02*
X75489285Y-74786904D01*
X75375000Y-74786904D01*
X75260714Y-74825000D01*
X75184523Y-74901190D01*
X75146428Y-74977380D01*
X75108333Y-75129761D01*
X75108333Y-75244047D01*
X75146428Y-75396428D01*
X75184523Y-75472619D01*
X75260714Y-75548809D01*
X75375000Y-75586904D01*
X75451190Y-75586904D01*
X75565476Y-75548809D01*
X75603571Y-75510714D01*
X75603571Y-75244047D01*
X75451190Y-75244047D01*
X75946428Y-75586904D02*
X75946428Y-74786904D01*
X76403571Y-75586904D01*
X76403571Y-74786904D01*
X76784523Y-75586904D02*
X76784523Y-74786904D01*
X76975000Y-74786904D01*
X77089285Y-74825000D01*
X77165476Y-74901190D01*
X77203571Y-74977380D01*
X77241666Y-75129761D01*
X77241666Y-75244047D01*
X77203571Y-75396428D01*
X77165476Y-75472619D01*
X77089285Y-75548809D01*
X76975000Y-75586904D01*
X76784523Y-75586904D01*
D12*
%TO.C,SW29*%
X116327380Y-38927380D02*
X115851190Y-39260714D01*
X116327380Y-39498809D02*
X115327380Y-39498809D01*
X115327380Y-39117857D01*
X115375000Y-39022619D01*
X115422619Y-38975000D01*
X115517857Y-38927380D01*
X115660714Y-38927380D01*
X115755952Y-38975000D01*
X115803571Y-39022619D01*
X115851190Y-39117857D01*
X115851190Y-39498809D01*
X115803571Y-38498809D02*
X115803571Y-38165476D01*
X116327380Y-38022619D02*
X116327380Y-38498809D01*
X115327380Y-38498809D01*
X115327380Y-38022619D01*
X116279761Y-37641666D02*
X116327380Y-37498809D01*
X116327380Y-37260714D01*
X116279761Y-37165476D01*
X116232142Y-37117857D01*
X116136904Y-37070238D01*
X116041666Y-37070238D01*
X115946428Y-37117857D01*
X115898809Y-37165476D01*
X115851190Y-37260714D01*
X115803571Y-37451190D01*
X115755952Y-37546428D01*
X115708333Y-37594047D01*
X115613095Y-37641666D01*
X115517857Y-37641666D01*
X115422619Y-37594047D01*
X115375000Y-37546428D01*
X115327380Y-37451190D01*
X115327380Y-37213095D01*
X115375000Y-37070238D01*
X115803571Y-36641666D02*
X115803571Y-36308333D01*
X116327380Y-36165476D02*
X116327380Y-36641666D01*
X115327380Y-36641666D01*
X115327380Y-36165476D01*
X115327380Y-35879761D02*
X115327380Y-35308333D01*
X116327380Y-35594047D02*
X115327380Y-35594047D01*
D11*
%TO.C,TP2*%
X107189285Y-21136904D02*
X107455952Y-21936904D01*
X107722619Y-21136904D01*
X107989285Y-21936904D02*
X107989285Y-21136904D01*
X108179761Y-21136904D01*
X108294047Y-21175000D01*
X108370238Y-21251190D01*
X108408333Y-21327380D01*
X108446428Y-21479761D01*
X108446428Y-21594047D01*
X108408333Y-21746428D01*
X108370238Y-21822619D01*
X108294047Y-21898809D01*
X108179761Y-21936904D01*
X107989285Y-21936904D01*
X108789285Y-21936904D02*
X108789285Y-21136904D01*
X108979761Y-21136904D01*
X109094047Y-21175000D01*
X109170238Y-21251190D01*
X109208333Y-21327380D01*
X109246428Y-21479761D01*
X109246428Y-21594047D01*
X109208333Y-21746428D01*
X109170238Y-21822619D01*
X109094047Y-21898809D01*
X108979761Y-21936904D01*
X108789285Y-21936904D01*
X109589285Y-21936904D02*
X109589285Y-21136904D01*
X109589285Y-21517857D02*
X110046428Y-21517857D01*
X110046428Y-21936904D02*
X110046428Y-21136904D01*
%TO.C,TP1*%
X56515476Y-4175000D02*
X56439285Y-4136904D01*
X56325000Y-4136904D01*
X56210714Y-4175000D01*
X56134523Y-4251190D01*
X56096428Y-4327380D01*
X56058333Y-4479761D01*
X56058333Y-4594047D01*
X56096428Y-4746428D01*
X56134523Y-4822619D01*
X56210714Y-4898809D01*
X56325000Y-4936904D01*
X56401190Y-4936904D01*
X56515476Y-4898809D01*
X56553571Y-4860714D01*
X56553571Y-4594047D01*
X56401190Y-4594047D01*
X56896428Y-4936904D02*
X56896428Y-4136904D01*
X57353571Y-4936904D01*
X57353571Y-4136904D01*
X57734523Y-4936904D02*
X57734523Y-4136904D01*
X57925000Y-4136904D01*
X58039285Y-4175000D01*
X58115476Y-4251190D01*
X58153571Y-4327380D01*
X58191666Y-4479761D01*
X58191666Y-4594047D01*
X58153571Y-4746428D01*
X58115476Y-4822619D01*
X58039285Y-4898809D01*
X57925000Y-4936904D01*
X57734523Y-4936904D01*
X110065476Y-24275000D02*
X109989285Y-24236904D01*
X109875000Y-24236904D01*
X109760714Y-24275000D01*
X109684523Y-24351190D01*
X109646428Y-24427380D01*
X109608333Y-24579761D01*
X109608333Y-24694047D01*
X109646428Y-24846428D01*
X109684523Y-24922619D01*
X109760714Y-24998809D01*
X109875000Y-25036904D01*
X109951190Y-25036904D01*
X110065476Y-24998809D01*
X110103571Y-24960714D01*
X110103571Y-24694047D01*
X109951190Y-24694047D01*
X110446428Y-25036904D02*
X110446428Y-24236904D01*
X110903571Y-25036904D01*
X110903571Y-24236904D01*
X111284523Y-25036904D02*
X111284523Y-24236904D01*
X111475000Y-24236904D01*
X111589285Y-24275000D01*
X111665476Y-24351190D01*
X111703571Y-24427380D01*
X111741666Y-24579761D01*
X111741666Y-24694047D01*
X111703571Y-24846428D01*
X111665476Y-24922619D01*
X111589285Y-24998809D01*
X111475000Y-25036904D01*
X111284523Y-25036904D01*
X85115476Y-17725000D02*
X85039285Y-17686904D01*
X84925000Y-17686904D01*
X84810714Y-17725000D01*
X84734523Y-17801190D01*
X84696428Y-17877380D01*
X84658333Y-18029761D01*
X84658333Y-18144047D01*
X84696428Y-18296428D01*
X84734523Y-18372619D01*
X84810714Y-18448809D01*
X84925000Y-18486904D01*
X85001190Y-18486904D01*
X85115476Y-18448809D01*
X85153571Y-18410714D01*
X85153571Y-18144047D01*
X85001190Y-18144047D01*
X85496428Y-18486904D02*
X85496428Y-17686904D01*
X85953571Y-18486904D01*
X85953571Y-17686904D01*
X86334523Y-18486904D02*
X86334523Y-17686904D01*
X86525000Y-17686904D01*
X86639285Y-17725000D01*
X86715476Y-17801190D01*
X86753571Y-17877380D01*
X86791666Y-18029761D01*
X86791666Y-18144047D01*
X86753571Y-18296428D01*
X86715476Y-18372619D01*
X86639285Y-18448809D01*
X86525000Y-18486904D01*
X86334523Y-18486904D01*
X18465476Y-11175000D02*
X18389285Y-11136904D01*
X18275000Y-11136904D01*
X18160714Y-11175000D01*
X18084523Y-11251190D01*
X18046428Y-11327380D01*
X18008333Y-11479761D01*
X18008333Y-11594047D01*
X18046428Y-11746428D01*
X18084523Y-11822619D01*
X18160714Y-11898809D01*
X18275000Y-11936904D01*
X18351190Y-11936904D01*
X18465476Y-11898809D01*
X18503571Y-11860714D01*
X18503571Y-11594047D01*
X18351190Y-11594047D01*
X18846428Y-11936904D02*
X18846428Y-11136904D01*
X19303571Y-11936904D01*
X19303571Y-11136904D01*
X19684523Y-11936904D02*
X19684523Y-11136904D01*
X19875000Y-11136904D01*
X19989285Y-11175000D01*
X20065476Y-11251190D01*
X20103571Y-11327380D01*
X20141666Y-11479761D01*
X20141666Y-11594047D01*
X20103571Y-11746428D01*
X20065476Y-11822619D01*
X19989285Y-11898809D01*
X19875000Y-11936904D01*
X19684523Y-11936904D01*
X85115476Y-36725000D02*
X85039285Y-36686904D01*
X84925000Y-36686904D01*
X84810714Y-36725000D01*
X84734523Y-36801190D01*
X84696428Y-36877380D01*
X84658333Y-37029761D01*
X84658333Y-37144047D01*
X84696428Y-37296428D01*
X84734523Y-37372619D01*
X84810714Y-37448809D01*
X84925000Y-37486904D01*
X85001190Y-37486904D01*
X85115476Y-37448809D01*
X85153571Y-37410714D01*
X85153571Y-37144047D01*
X85001190Y-37144047D01*
X85496428Y-37486904D02*
X85496428Y-36686904D01*
X85953571Y-37486904D01*
X85953571Y-36686904D01*
X86334523Y-37486904D02*
X86334523Y-36686904D01*
X86525000Y-36686904D01*
X86639285Y-36725000D01*
X86715476Y-36801190D01*
X86753571Y-36877380D01*
X86791666Y-37029761D01*
X86791666Y-37144047D01*
X86753571Y-37296428D01*
X86715476Y-37372619D01*
X86639285Y-37448809D01*
X86525000Y-37486904D01*
X86334523Y-37486904D01*
X85115476Y1325000D02*
X85039285Y1363095D01*
X84925000Y1363095D01*
X84810714Y1325000D01*
X84734523Y1248809D01*
X84696428Y1172619D01*
X84658333Y1020238D01*
X84658333Y905952D01*
X84696428Y753571D01*
X84734523Y677380D01*
X84810714Y601190D01*
X84925000Y563095D01*
X85001190Y563095D01*
X85115476Y601190D01*
X85153571Y639285D01*
X85153571Y905952D01*
X85001190Y905952D01*
X85496428Y563095D02*
X85496428Y1363095D01*
X85953571Y563095D01*
X85953571Y1363095D01*
X86334523Y563095D02*
X86334523Y1363095D01*
X86525000Y1363095D01*
X86639285Y1325000D01*
X86715476Y1248809D01*
X86753571Y1172619D01*
X86791666Y1020238D01*
X86791666Y905952D01*
X86753571Y753571D01*
X86715476Y677380D01*
X86639285Y601190D01*
X86525000Y563095D01*
X86334523Y563095D01*
X85115476Y-55775000D02*
X85039285Y-55736904D01*
X84925000Y-55736904D01*
X84810714Y-55775000D01*
X84734523Y-55851190D01*
X84696428Y-55927380D01*
X84658333Y-56079761D01*
X84658333Y-56194047D01*
X84696428Y-56346428D01*
X84734523Y-56422619D01*
X84810714Y-56498809D01*
X84925000Y-56536904D01*
X85001190Y-56536904D01*
X85115476Y-56498809D01*
X85153571Y-56460714D01*
X85153571Y-56194047D01*
X85001190Y-56194047D01*
X85496428Y-56536904D02*
X85496428Y-55736904D01*
X85953571Y-56536904D01*
X85953571Y-55736904D01*
X86334523Y-56536904D02*
X86334523Y-55736904D01*
X86525000Y-55736904D01*
X86639285Y-55775000D01*
X86715476Y-55851190D01*
X86753571Y-55927380D01*
X86791666Y-56079761D01*
X86791666Y-56194047D01*
X86753571Y-56346428D01*
X86715476Y-56422619D01*
X86639285Y-56498809D01*
X86525000Y-56536904D01*
X86334523Y-56536904D01*
X-634523Y-11175000D02*
X-710714Y-11136904D01*
X-825000Y-11136904D01*
X-939285Y-11175000D01*
X-1015476Y-11251190D01*
X-1053571Y-11327380D01*
X-1091666Y-11479761D01*
X-1091666Y-11594047D01*
X-1053571Y-11746428D01*
X-1015476Y-11822619D01*
X-939285Y-11898809D01*
X-825000Y-11936904D01*
X-748809Y-11936904D01*
X-634523Y-11898809D01*
X-596428Y-11860714D01*
X-596428Y-11594047D01*
X-748809Y-11594047D01*
X-253571Y-11936904D02*
X-253571Y-11136904D01*
X203571Y-11936904D01*
X203571Y-11136904D01*
X584523Y-11936904D02*
X584523Y-11136904D01*
X774999Y-11136904D01*
X889285Y-11175000D01*
X965476Y-11251190D01*
X1003571Y-11327380D01*
X1041666Y-11479761D01*
X1041666Y-11594047D01*
X1003571Y-11746428D01*
X965476Y-11822619D01*
X889285Y-11898809D01*
X774999Y-11936904D01*
X584523Y-11936904D01*
X37565476Y-6175000D02*
X37489285Y-6136904D01*
X37375000Y-6136904D01*
X37260714Y-6175000D01*
X37184523Y-6251190D01*
X37146428Y-6327380D01*
X37108333Y-6479761D01*
X37108333Y-6594047D01*
X37146428Y-6746428D01*
X37184523Y-6822619D01*
X37260714Y-6898809D01*
X37375000Y-6936904D01*
X37451190Y-6936904D01*
X37565476Y-6898809D01*
X37603571Y-6860714D01*
X37603571Y-6594047D01*
X37451190Y-6594047D01*
X37946428Y-6936904D02*
X37946428Y-6136904D01*
X38403571Y-6936904D01*
X38403571Y-6136904D01*
X38784523Y-6936904D02*
X38784523Y-6136904D01*
X38975000Y-6136904D01*
X39089285Y-6175000D01*
X39165476Y-6251190D01*
X39203571Y-6327380D01*
X39241666Y-6479761D01*
X39241666Y-6594047D01*
X39203571Y-6746428D01*
X39165476Y-6822619D01*
X39089285Y-6898809D01*
X38975000Y-6936904D01*
X38784523Y-6936904D01*
%TO.C,J4*%
X115460714Y-46511904D02*
X115079761Y-46511904D01*
X115079761Y-45711904D01*
X115727380Y-46092857D02*
X115994047Y-46092857D01*
X116108333Y-46511904D02*
X115727380Y-46511904D01*
X115727380Y-45711904D01*
X116108333Y-45711904D01*
X116451190Y-46511904D02*
X116451190Y-45711904D01*
X116641666Y-45711904D01*
X116755952Y-45750000D01*
X116832142Y-45826190D01*
X116870238Y-45902380D01*
X116908333Y-46054761D01*
X116908333Y-46169047D01*
X116870238Y-46321428D01*
X116832142Y-46397619D01*
X116755952Y-46473809D01*
X116641666Y-46511904D01*
X116451190Y-46511904D01*
X114908333Y-43611904D02*
X115175000Y-44411904D01*
X115441666Y-43611904D01*
X116165476Y-44335714D02*
X116127380Y-44373809D01*
X116013095Y-44411904D01*
X115936904Y-44411904D01*
X115822619Y-44373809D01*
X115746428Y-44297619D01*
X115708333Y-44221428D01*
X115670238Y-44069047D01*
X115670238Y-43954761D01*
X115708333Y-43802380D01*
X115746428Y-43726190D01*
X115822619Y-43650000D01*
X115936904Y-43611904D01*
X116013095Y-43611904D01*
X116127380Y-43650000D01*
X116165476Y-43688095D01*
X116965476Y-44335714D02*
X116927380Y-44373809D01*
X116813095Y-44411904D01*
X116736904Y-44411904D01*
X116622619Y-44373809D01*
X116546428Y-44297619D01*
X116508333Y-44221428D01*
X116470238Y-44069047D01*
X116470238Y-43954761D01*
X116508333Y-43802380D01*
X116546428Y-43726190D01*
X116622619Y-43650000D01*
X116736904Y-43611904D01*
X116813095Y-43611904D01*
X116927380Y-43650000D01*
X116965476Y-43688095D01*
X115365476Y-47750000D02*
X115289285Y-47711904D01*
X115175000Y-47711904D01*
X115060714Y-47750000D01*
X114984523Y-47826190D01*
X114946428Y-47902380D01*
X114908333Y-48054761D01*
X114908333Y-48169047D01*
X114946428Y-48321428D01*
X114984523Y-48397619D01*
X115060714Y-48473809D01*
X115175000Y-48511904D01*
X115251190Y-48511904D01*
X115365476Y-48473809D01*
X115403571Y-48435714D01*
X115403571Y-48169047D01*
X115251190Y-48169047D01*
X115746428Y-48511904D02*
X115746428Y-47711904D01*
X116203571Y-48511904D01*
X116203571Y-47711904D01*
X116584523Y-48511904D02*
X116584523Y-47711904D01*
X116775000Y-47711904D01*
X116889285Y-47750000D01*
X116965476Y-47826190D01*
X117003571Y-47902380D01*
X117041666Y-48054761D01*
X117041666Y-48169047D01*
X117003571Y-48321428D01*
X116965476Y-48397619D01*
X116889285Y-48473809D01*
X116775000Y-48511904D01*
X116584523Y-48511904D01*
D13*
%TO.C,J1*%
X113635714Y-40059523D02*
X113695238Y-39880952D01*
X113754761Y-39821428D01*
X113873809Y-39761904D01*
X114052380Y-39761904D01*
X114171428Y-39821428D01*
X114230952Y-39880952D01*
X114290476Y-40000000D01*
X114290476Y-40476190D01*
X113040476Y-40476190D01*
X113040476Y-40059523D01*
X113100000Y-39940476D01*
X113159523Y-39880952D01*
X113278571Y-39821428D01*
X113397619Y-39821428D01*
X113516666Y-39880952D01*
X113576190Y-39940476D01*
X113635714Y-40059523D01*
X113635714Y-40476190D01*
X113814285Y-39226190D02*
X113814285Y-38273809D01*
X111635714Y-40059523D02*
X111695238Y-39880952D01*
X111754761Y-39821428D01*
X111873809Y-39761904D01*
X112052380Y-39761904D01*
X112171428Y-39821428D01*
X112230952Y-39880952D01*
X112290476Y-40000000D01*
X112290476Y-40476190D01*
X111040476Y-40476190D01*
X111040476Y-40059523D01*
X111100000Y-39940476D01*
X111159523Y-39880952D01*
X111278571Y-39821428D01*
X111397619Y-39821428D01*
X111516666Y-39880952D01*
X111576190Y-39940476D01*
X111635714Y-40059523D01*
X111635714Y-40476190D01*
X111814285Y-39226190D02*
X111814285Y-38273809D01*
X112290476Y-38750000D02*
X111338095Y-38750000D01*
D12*
%TO.C,D1*%
X118582142Y-22189285D02*
X118629761Y-22236904D01*
X118677380Y-22379761D01*
X118677380Y-22475000D01*
X118629761Y-22617857D01*
X118534523Y-22713095D01*
X118439285Y-22760714D01*
X118248809Y-22808333D01*
X118105952Y-22808333D01*
X117915476Y-22760714D01*
X117820238Y-22713095D01*
X117725000Y-22617857D01*
X117677380Y-22475000D01*
X117677380Y-22379761D01*
X117725000Y-22236904D01*
X117772619Y-22189285D01*
X118677380Y-21760714D02*
X117677380Y-21760714D01*
X118153571Y-21760714D02*
X118153571Y-21189285D01*
X118677380Y-21189285D02*
X117677380Y-21189285D01*
X117725000Y-20189285D02*
X117677380Y-20284523D01*
X117677380Y-20427380D01*
X117725000Y-20570238D01*
X117820238Y-20665476D01*
X117915476Y-20713095D01*
X118105952Y-20760714D01*
X118248809Y-20760714D01*
X118439285Y-20713095D01*
X118534523Y-20665476D01*
X118629761Y-20570238D01*
X118677380Y-20427380D01*
X118677380Y-20332142D01*
X118629761Y-20189285D01*
X118582142Y-20141666D01*
X118248809Y-20141666D01*
X118248809Y-20332142D01*
D14*
%TO.C,D21*%
X69475000Y-14100000D02*
X68275000Y-14100000D01*
X69475000Y-15950000D02*
X69475000Y-14100000D01*
X68275000Y-15950000D02*
X68275000Y-14100000D01*
%TO.C,D8*%
X12325000Y-19100000D02*
X11125000Y-19100000D01*
X11125000Y-20950000D02*
X11125000Y-19100000D01*
X12325000Y-20950000D02*
X12325000Y-19100000D01*
%TO.C,D4*%
X-7225000Y-20950000D02*
X-7225000Y-19100000D01*
X-8425000Y-20950000D02*
X-8425000Y-19100000D01*
X-7225000Y-19100000D02*
X-8425000Y-19100000D01*
%TO.C,TP1*%
X95975000Y-6325000D02*
X95975000Y-7725000D01*
X94575000Y-7725000D02*
X94575000Y-6325000D01*
X94575000Y-6325000D02*
X95975000Y-6325000D01*
X95975000Y-7725000D02*
X94575000Y-7725000D01*
%TO.C,SW1*%
X119725000Y-23925000D02*
X118425000Y-23925000D01*
X117525000Y-30525000D02*
X117525000Y-30175000D01*
X118425000Y-31025000D02*
X119725000Y-31025000D01*
X117525000Y-24775000D02*
X117525000Y-24425000D01*
X120625000Y-24425000D02*
X120625000Y-30525000D01*
%TO.C,TP1*%
X76875000Y-4325000D02*
X76875000Y-5725000D01*
X75475000Y-4325000D02*
X76875000Y-4325000D01*
X75475000Y-5725000D02*
X75475000Y-4325000D01*
X76875000Y-5725000D02*
X75475000Y-5725000D01*
%TO.C,D17*%
X50425000Y-31150000D02*
X49225000Y-31150000D01*
X49225000Y-33000000D02*
X49225000Y-31150000D01*
X50425000Y-33000000D02*
X50425000Y-31150000D01*
%TO.C,D28*%
X88525000Y-56050000D02*
X88525000Y-54200000D01*
X88525000Y-54200000D02*
X87325000Y-54200000D01*
X87325000Y-56050000D02*
X87325000Y-54200000D01*
%TO.C,D6*%
X-7225000Y-59050000D02*
X-7225000Y-57200000D01*
X-8425000Y-59050000D02*
X-8425000Y-57200000D01*
X-7225000Y-57200000D02*
X-8425000Y-57200000D01*
%TO.C,D5*%
X-7225000Y-40000000D02*
X-7225000Y-38150000D01*
X-8425000Y-40000000D02*
X-8425000Y-38150000D01*
X-7225000Y-38150000D02*
X-8425000Y-38150000D01*
%TO.C,D9*%
X12325000Y-38150000D02*
X11125000Y-38150000D01*
X12325000Y-40000000D02*
X12325000Y-38150000D01*
X11125000Y-40000000D02*
X11125000Y-38150000D01*
%TO.C,D16*%
X49225000Y-13950000D02*
X49225000Y-12100000D01*
X50425000Y-12100000D02*
X49225000Y-12100000D01*
X50425000Y-13950000D02*
X50425000Y-12100000D01*
%TO.C,D18*%
X50425000Y-52050000D02*
X50425000Y-50200000D01*
X50425000Y-50200000D02*
X49225000Y-50200000D01*
X49225000Y-52050000D02*
X49225000Y-50200000D01*
%TO.C,D19*%
X59950000Y-73100000D02*
X59950000Y-71250000D01*
X58750000Y-73100000D02*
X58750000Y-71250000D01*
X59950000Y-71250000D02*
X58750000Y-71250000D01*
%TO.C,TP1*%
X76875000Y-74375000D02*
X75475000Y-74375000D01*
X75475000Y-72975000D02*
X76875000Y-72975000D01*
X75475000Y-74375000D02*
X75475000Y-72975000D01*
X76875000Y-72975000D02*
X76875000Y-74375000D01*
%TO.C,D20*%
X69475000Y4950000D02*
X68275000Y4950000D01*
X68275000Y3100000D02*
X68275000Y4950000D01*
X69475000Y3100000D02*
X69475000Y4950000D01*
%TO.C,SW29*%
X120525000Y-36050000D02*
X120525000Y-35125000D01*
X116825000Y-39825000D02*
X116825000Y-35125000D01*
X120525000Y-39825000D02*
X120525000Y-38900000D01*
X118400000Y-35025000D02*
X118950000Y-35025000D01*
X118400000Y-39925000D02*
X118950000Y-39925000D01*
%TO.C,D15*%
X50425000Y5100000D02*
X50425000Y6950000D01*
X49225000Y5100000D02*
X49225000Y6950000D01*
X50425000Y6950000D02*
X49225000Y6950000D01*
%TO.C,D12*%
X30175000Y-15950000D02*
X30175000Y-14100000D01*
X31375000Y-14100000D02*
X30175000Y-14100000D01*
X31375000Y-15950000D02*
X31375000Y-14100000D01*
%TO.C,D22*%
X69475000Y-33150000D02*
X68275000Y-33150000D01*
X69475000Y-35000000D02*
X69475000Y-33150000D01*
X68275000Y-35000000D02*
X68275000Y-33150000D01*
%TO.C,TP2*%
X109375000Y-23125000D02*
G75*
G03*
X109375000Y-23125000I-700000J0D01*
G01*
%TO.C,D3*%
X-8425000Y-1900000D02*
X-8425000Y-50000D01*
X-7225000Y-50000D02*
X-8425000Y-50000D01*
X-7225000Y-1900000D02*
X-7225000Y-50000D01*
%TO.C,TP1*%
X56425000Y-3725000D02*
X56425000Y-2325000D01*
X57825000Y-3725000D02*
X56425000Y-3725000D01*
X57825000Y-2325000D02*
X57825000Y-3725000D01*
X56425000Y-2325000D02*
X57825000Y-2325000D01*
%TO.C,D23*%
X69475000Y-52200000D02*
X68275000Y-52200000D01*
X69475000Y-54050000D02*
X69475000Y-52200000D01*
X68275000Y-54050000D02*
X68275000Y-52200000D01*
%TO.C,TP1*%
X111375000Y-23825000D02*
X109975000Y-23825000D01*
X111375000Y-22425000D02*
X111375000Y-23825000D01*
X109975000Y-22425000D02*
X111375000Y-22425000D01*
X109975000Y-23825000D02*
X109975000Y-22425000D01*
%TO.C,G1*%
G36*
X38598551Y-62966298D02*
G01*
X38664238Y-63009647D01*
X38707172Y-63071249D01*
X38720460Y-63142768D01*
X38697214Y-63215868D01*
X38664421Y-63255569D01*
X38593762Y-63293839D01*
X38501860Y-63308652D01*
X38411305Y-63298006D01*
X38371846Y-63281511D01*
X38316686Y-63225706D01*
X38298186Y-63153152D01*
X38314127Y-63076593D01*
X38362289Y-63008775D01*
X38426473Y-62967700D01*
X38516999Y-62949537D01*
X38598551Y-62966298D01*
G37*
G36*
X43243052Y-62964366D02*
G01*
X43300560Y-63002856D01*
X43369020Y-63063083D01*
X43155523Y-63063855D01*
X43059748Y-63061766D01*
X42986393Y-63055510D01*
X42946320Y-63046217D01*
X42942027Y-63041610D01*
X42963729Y-63004342D01*
X43018432Y-62970473D01*
X43090535Y-62947754D01*
X43141292Y-62942628D01*
X43243052Y-62964366D01*
G37*
G36*
X39535468Y-62979369D02*
G01*
X39576757Y-63013949D01*
X39635975Y-63097419D01*
X39646903Y-63179443D01*
X39609572Y-63257573D01*
X39573008Y-63294253D01*
X39476221Y-63347197D01*
X39372320Y-63355157D01*
X39272284Y-63317933D01*
X39247518Y-63300235D01*
X39187903Y-63227616D01*
X39174621Y-63146680D01*
X39207525Y-63063971D01*
X39254003Y-63012008D01*
X39348298Y-62953573D01*
X39443788Y-62942704D01*
X39535468Y-62979369D01*
G37*
G36*
X53357524Y-65751791D02*
G01*
X53377376Y-65769525D01*
X53384291Y-65814384D01*
X53385062Y-65872185D01*
X53377169Y-65980822D01*
X53349524Y-66055104D01*
X53296179Y-66107479D01*
X53263552Y-66126525D01*
X53171315Y-66159393D01*
X53095052Y-66150115D01*
X53030159Y-66103487D01*
X52981398Y-66028496D01*
X52975712Y-65951634D01*
X53008052Y-65879124D01*
X53073369Y-65817189D01*
X53166616Y-65772052D01*
X53282743Y-65749938D01*
X53317963Y-65748719D01*
X53357524Y-65751791D01*
G37*
G36*
X34763772Y-63948084D02*
G01*
X34922521Y-63955212D01*
X35009163Y-64266133D01*
X35041942Y-64377834D01*
X35071364Y-64467151D01*
X35094663Y-64526479D01*
X35109079Y-64548207D01*
X35111047Y-64546729D01*
X35123369Y-64512476D01*
X35145691Y-64441551D01*
X35174853Y-64344273D01*
X35207697Y-64230962D01*
X35208055Y-64229707D01*
X35289821Y-63943012D01*
X35594231Y-63943012D01*
X35607325Y-64071110D01*
X35613096Y-64143094D01*
X35619738Y-64250611D01*
X35626517Y-64380420D01*
X35632698Y-64519279D01*
X35634032Y-64553002D01*
X35640442Y-64709433D01*
X35647950Y-64876824D01*
X35655639Y-65035543D01*
X35662594Y-65165959D01*
X35662859Y-65170575D01*
X35678074Y-65434353D01*
X35558610Y-65426771D01*
X35439145Y-65419189D01*
X35424208Y-64918996D01*
X35419398Y-64762891D01*
X35414695Y-64619297D01*
X35410407Y-64496901D01*
X35406840Y-64404388D01*
X35404299Y-64350444D01*
X35403982Y-64345605D01*
X35399469Y-64296469D01*
X35392595Y-64293316D01*
X35377543Y-64333406D01*
X35362186Y-64380094D01*
X35336117Y-64461803D01*
X35303014Y-64566924D01*
X35267407Y-64681100D01*
X35178422Y-64967796D01*
X35089187Y-64967683D01*
X34999952Y-64967571D01*
X34795996Y-64272407D01*
X34794276Y-64482024D01*
X34792509Y-64585449D01*
X34788877Y-64721559D01*
X34783872Y-64874296D01*
X34777984Y-65027601D01*
X34776546Y-65061515D01*
X34760536Y-65431388D01*
X34540930Y-65431388D01*
X34557449Y-65010495D01*
X34564348Y-64839410D01*
X34572111Y-64654500D01*
X34579946Y-64474200D01*
X34587060Y-64316951D01*
X34589495Y-64265279D01*
X34605022Y-63940957D01*
X34763772Y-63948084D01*
G37*
G36*
X41364282Y-62964366D02*
G01*
X41421790Y-63002856D01*
X41490250Y-63063083D01*
X41276753Y-63063855D01*
X41180978Y-63061766D01*
X41107622Y-63055510D01*
X41067549Y-63046217D01*
X41063256Y-63041610D01*
X41084958Y-63004342D01*
X41139662Y-62970473D01*
X41211765Y-62947754D01*
X41262522Y-62942628D01*
X41364282Y-62964366D01*
G37*
G36*
X34353362Y-64053080D02*
G01*
X34351414Y-64090711D01*
X34343436Y-64129253D01*
X34326231Y-64174568D01*
X34296600Y-64232519D01*
X34251344Y-64308968D01*
X34187265Y-64409776D01*
X34101164Y-64540806D01*
X34023861Y-64656971D01*
X33694360Y-65150793D01*
X34023861Y-65157581D01*
X34353362Y-65164370D01*
X34353362Y-65431388D01*
X33352978Y-65431388D01*
X33352978Y-65322128D01*
X33355192Y-65284006D01*
X33363892Y-65243773D01*
X33382161Y-65195506D01*
X33413081Y-65133276D01*
X33459736Y-65051160D01*
X33525210Y-64943231D01*
X33612586Y-64803562D01*
X33670173Y-64712524D01*
X33758261Y-64573077D01*
X33836949Y-64447558D01*
X33902666Y-64341742D01*
X33951841Y-64261405D01*
X33980902Y-64212320D01*
X33987368Y-64199594D01*
X33964509Y-64194826D01*
X33902092Y-64190887D01*
X33809355Y-64188158D01*
X33695538Y-64187020D01*
X33682372Y-64187008D01*
X33377377Y-64187008D01*
X33377377Y-63943012D01*
X34353362Y-63943012D01*
X34353362Y-64053080D01*
G37*
G36*
X36171133Y-64582310D02*
G01*
X36577379Y-63943012D01*
X36735590Y-63943012D01*
X36822938Y-63945361D01*
X36868312Y-63953369D01*
X36878357Y-63968478D01*
X36876139Y-63973511D01*
X36856894Y-64003377D01*
X36815301Y-64065911D01*
X36756494Y-64153457D01*
X36685609Y-64258357D01*
X36640736Y-64324500D01*
X36422997Y-64644989D01*
X36660056Y-65007689D01*
X36737547Y-65126959D01*
X36805822Y-65233385D01*
X36860305Y-65319728D01*
X36896422Y-65378748D01*
X36909283Y-65402073D01*
X36904823Y-65418897D01*
X36869954Y-65427158D01*
X36797214Y-65428026D01*
X36753689Y-65426473D01*
X36585927Y-65419189D01*
X36378530Y-65073026D01*
X36171133Y-64726864D01*
X36158933Y-65073026D01*
X36146734Y-65419189D01*
X36023798Y-65426384D01*
X35949858Y-65427341D01*
X35897291Y-65421814D01*
X35883501Y-65416218D01*
X35879128Y-65388321D01*
X35875160Y-65317798D01*
X35871739Y-65210821D01*
X35869010Y-65073562D01*
X35867116Y-64912193D01*
X35866201Y-64732887D01*
X35866138Y-64670934D01*
X35866138Y-63943012D01*
X36157517Y-63943012D01*
X36171133Y-64582310D01*
G37*
G36*
X32160845Y-63936743D02*
G01*
X32160133Y-63608398D01*
X32159926Y-63320259D01*
X32160411Y-63069461D01*
X32161774Y-62853140D01*
X32164201Y-62668432D01*
X32167880Y-62512473D01*
X32172996Y-62382397D01*
X32179736Y-62275341D01*
X32188286Y-62188439D01*
X32198832Y-62118829D01*
X32211561Y-62063644D01*
X32226659Y-62020022D01*
X32244313Y-61985096D01*
X32264708Y-61956004D01*
X32288032Y-61929880D01*
X32314470Y-61903860D01*
X32344209Y-61875080D01*
X32348789Y-61870525D01*
X32463986Y-61775597D01*
X32581247Y-61715300D01*
X32583495Y-61714526D01*
X32594898Y-61711411D01*
X32611190Y-61708459D01*
X32633647Y-61705664D01*
X32663543Y-61703023D01*
X32702155Y-61700531D01*
X32750758Y-61698184D01*
X32810628Y-61695978D01*
X32883041Y-61693908D01*
X32969273Y-61691971D01*
X33070598Y-61690161D01*
X33188294Y-61688474D01*
X33323634Y-61686907D01*
X33477896Y-61685455D01*
X33652355Y-61684113D01*
X33848286Y-61682878D01*
X34066965Y-61681744D01*
X34309668Y-61680708D01*
X34577671Y-61679766D01*
X34872249Y-61678912D01*
X35194678Y-61678144D01*
X35546233Y-61677455D01*
X35928191Y-61676843D01*
X36341827Y-61676302D01*
X36788416Y-61675829D01*
X37269235Y-61675420D01*
X37785558Y-61675069D01*
X38338663Y-61674772D01*
X38929824Y-61674526D01*
X39560316Y-61674326D01*
X40231417Y-61674167D01*
X40944401Y-61674046D01*
X41700544Y-61673958D01*
X42501122Y-61673899D01*
X43347411Y-61673864D01*
X44240686Y-61673849D01*
X44631342Y-61673848D01*
X45648295Y-61673889D01*
X46616925Y-61674013D01*
X47537706Y-61674221D01*
X48411113Y-61674514D01*
X49237621Y-61674893D01*
X50017706Y-61675359D01*
X50751843Y-61675913D01*
X51440507Y-61676557D01*
X52084173Y-61677290D01*
X52683317Y-61678115D01*
X53238412Y-61679031D01*
X53749936Y-61680041D01*
X54218362Y-61681145D01*
X54644166Y-61682344D01*
X55027823Y-61683640D01*
X55369809Y-61685032D01*
X55670597Y-61686523D01*
X55930665Y-61688113D01*
X56150486Y-61689804D01*
X56330536Y-61691596D01*
X56471290Y-61693490D01*
X56573223Y-61695487D01*
X56636811Y-61697589D01*
X56662106Y-61699677D01*
X56799829Y-61757166D01*
X56927466Y-61852652D01*
X57031712Y-61975437D01*
X57057204Y-62017380D01*
X57130403Y-62149640D01*
X57130403Y-67200360D01*
X57076446Y-67301240D01*
X56969127Y-67452209D01*
X56827988Y-67573799D01*
X56767690Y-67609996D01*
X56666811Y-67663953D01*
X44698799Y-67667618D01*
X43936409Y-67667815D01*
X43186066Y-67667938D01*
X42449257Y-67667988D01*
X41727470Y-67667966D01*
X41022191Y-67667876D01*
X40334906Y-67667718D01*
X39667105Y-67667494D01*
X39020272Y-67667206D01*
X38395896Y-67666856D01*
X37795463Y-67666445D01*
X37220461Y-67665975D01*
X36672376Y-67665449D01*
X36152695Y-67664867D01*
X35662905Y-67664232D01*
X35204494Y-67663544D01*
X34778949Y-67662807D01*
X34387756Y-67662022D01*
X34032402Y-67661190D01*
X33714375Y-67660313D01*
X33435161Y-67659394D01*
X33196248Y-67658433D01*
X32999122Y-67657433D01*
X32845271Y-67656395D01*
X32736181Y-67655321D01*
X32673341Y-67654213D01*
X32657589Y-67653400D01*
X32502300Y-67591159D01*
X32364261Y-67487635D01*
X32251698Y-67349500D01*
X32223553Y-67301240D01*
X32169596Y-67200360D01*
X32163041Y-64725509D01*
X32162664Y-64590383D01*
X32850219Y-64590383D01*
X32861112Y-64908203D01*
X32913970Y-65221110D01*
X33008259Y-65524461D01*
X33143445Y-65813615D01*
X33318995Y-66083932D01*
X33534372Y-66330770D01*
X33584236Y-66378838D01*
X33806974Y-66557724D01*
X34062511Y-66711971D01*
X34338502Y-66835464D01*
X34622601Y-66922092D01*
X34723424Y-66942887D01*
X34852102Y-66956637D01*
X35012086Y-66959904D01*
X35187220Y-66953552D01*
X35361350Y-66938442D01*
X35518318Y-66915436D01*
X35606865Y-66895760D01*
X35910798Y-66789722D01*
X36193191Y-66641871D01*
X36450749Y-66455656D01*
X36596035Y-66315624D01*
X37842507Y-66315624D01*
X37845897Y-66384819D01*
X37854427Y-66431618D01*
X37858773Y-66439906D01*
X37886334Y-66443937D01*
X37956639Y-66447604D01*
X38063636Y-66450779D01*
X38201272Y-66453335D01*
X38363491Y-66455142D01*
X38544241Y-66456073D01*
X38627361Y-66456172D01*
X39379683Y-66456172D01*
X39379683Y-66431773D01*
X39619390Y-66431773D01*
X40038472Y-66431773D01*
X40039002Y-66328074D01*
X40040528Y-66275353D01*
X40044538Y-66181883D01*
X40050636Y-66055631D01*
X40058427Y-65904562D01*
X40067515Y-65736642D01*
X40075072Y-65602186D01*
X40084850Y-65430568D01*
X40093769Y-65273226D01*
X40101427Y-65137303D01*
X40107423Y-65029946D01*
X40111356Y-64958298D01*
X40112760Y-64931196D01*
X40118556Y-64936162D01*
X40133130Y-64981936D01*
X40154601Y-65061703D01*
X40181086Y-65168650D01*
X40197015Y-65236191D01*
X40234111Y-65391764D01*
X40279254Y-65574563D01*
X40327468Y-65764788D01*
X40373778Y-65942636D01*
X40387082Y-65992579D01*
X40495041Y-66395173D01*
X40852192Y-66395173D01*
X40994999Y-65931580D01*
X41046202Y-65763860D01*
X41098972Y-65588386D01*
X41149073Y-65419425D01*
X41192269Y-65271242D01*
X41219238Y-65176421D01*
X41300669Y-64884854D01*
X41315608Y-65091022D01*
X41320713Y-65176990D01*
X41326574Y-65301267D01*
X41332774Y-65453378D01*
X41338895Y-65622846D01*
X41344520Y-65799196D01*
X41346404Y-65864482D01*
X41362260Y-66431773D01*
X41807583Y-66431773D01*
X41754332Y-65461888D01*
X41751768Y-65415122D01*
X42136839Y-65415122D01*
X42137221Y-65632376D01*
X42138309Y-65834347D01*
X42140023Y-66015842D01*
X42142280Y-66171672D01*
X42144997Y-66296645D01*
X42148092Y-66385571D01*
X42151482Y-66433259D01*
X42153106Y-66439906D01*
X42183319Y-66447186D01*
X42250203Y-66452782D01*
X42341636Y-66455846D01*
X42384902Y-66456172D01*
X42600432Y-66456172D01*
X42600432Y-65793160D01*
X42678078Y-65685040D01*
X42723562Y-65628905D01*
X42759397Y-65597578D01*
X42773718Y-65595653D01*
X42790636Y-65622215D01*
X42826641Y-65684563D01*
X42877696Y-65775508D01*
X42939765Y-65887865D01*
X43003565Y-66004779D01*
X43072826Y-66131596D01*
X43135399Y-66244640D01*
X43187082Y-66336440D01*
X43223673Y-66399525D01*
X43240307Y-66425673D01*
X43272390Y-66438116D01*
X43337861Y-66447604D01*
X43424448Y-66453918D01*
X43519881Y-66456838D01*
X43608180Y-66456172D01*
X46040778Y-66456172D01*
X46479971Y-66456172D01*
X46479971Y-65010495D01*
X46835508Y-65010495D01*
X46836115Y-65048619D01*
X46836954Y-65128689D01*
X46837968Y-65243854D01*
X46839102Y-65387261D01*
X46840297Y-65552058D01*
X46841498Y-65731394D01*
X46841608Y-65748583D01*
X46845965Y-66431773D01*
X47285158Y-66431773D01*
X47968348Y-66431773D01*
X48407541Y-66431773D01*
X48407541Y-65966968D01*
X48408716Y-65781788D01*
X48413057Y-65638968D01*
X48421784Y-65532107D01*
X48436118Y-65454807D01*
X48457281Y-65400665D01*
X48486492Y-65363282D01*
X48524973Y-65336258D01*
X48528187Y-65334513D01*
X48612903Y-65310579D01*
X48698389Y-65320391D01*
X48763653Y-65360692D01*
X48779371Y-65381927D01*
X48791323Y-65410818D01*
X48800161Y-65454134D01*
X48806535Y-65518648D01*
X48811096Y-65611130D01*
X48814496Y-65738350D01*
X48817385Y-65907081D01*
X48817604Y-65921883D01*
X48825073Y-66431773D01*
X49258736Y-66431773D01*
X49266232Y-65933488D01*
X49268937Y-65765467D01*
X49271855Y-65639199D01*
X49275825Y-65547640D01*
X49281681Y-65483749D01*
X49290260Y-65440481D01*
X49302399Y-65410794D01*
X49318934Y-65387645D01*
X49332879Y-65372297D01*
X49398767Y-65323843D01*
X49482937Y-65309399D01*
X49485736Y-65309390D01*
X49554166Y-65316528D01*
X49598472Y-65346750D01*
X49627789Y-65388689D01*
X49644589Y-65420162D01*
X49657009Y-65456575D01*
X49665700Y-65505427D01*
X49671316Y-65574218D01*
X49674508Y-65670446D01*
X49675929Y-65801612D01*
X49676229Y-65945814D01*
X49677052Y-66093817D01*
X49679291Y-66224848D01*
X49682690Y-66331186D01*
X49686995Y-66405111D01*
X49691949Y-66438902D01*
X49692587Y-66439906D01*
X49722964Y-66447383D01*
X49789581Y-66453047D01*
X49879886Y-66455968D01*
X49912184Y-66456172D01*
X50115514Y-66456172D01*
X50115514Y-65923809D01*
X50114273Y-65712648D01*
X50109764Y-65543685D01*
X50100802Y-65410366D01*
X50086203Y-65306133D01*
X50064784Y-65224433D01*
X50035363Y-65158708D01*
X49996754Y-65102403D01*
X49959772Y-65061087D01*
X49876231Y-64998295D01*
X50298094Y-64998295D01*
X50307032Y-65029147D01*
X50327016Y-65100614D01*
X50356262Y-65206230D01*
X50392983Y-65339528D01*
X50435394Y-65494043D01*
X50481676Y-65663185D01*
X50528920Y-65835659D01*
X50573147Y-65996297D01*
X50612378Y-66137975D01*
X50644634Y-66253564D01*
X50667933Y-66335940D01*
X50679948Y-66376873D01*
X50704889Y-66456172D01*
X51114535Y-66456172D01*
X51150042Y-66328074D01*
X51177620Y-66228835D01*
X51209272Y-66115284D01*
X51226516Y-66053579D01*
X51250845Y-65958844D01*
X51278704Y-65838622D01*
X51304924Y-65715443D01*
X51310470Y-65687584D01*
X51330744Y-65586066D01*
X51344388Y-65527558D01*
X51353845Y-65507120D01*
X51361560Y-65519816D01*
X51369976Y-65560706D01*
X51370848Y-65565586D01*
X51383522Y-65628353D01*
X51405066Y-65726615D01*
X51432711Y-65848480D01*
X51463685Y-65982051D01*
X51495221Y-66115436D01*
X51524547Y-66236738D01*
X51548894Y-66334065D01*
X51557149Y-66365606D01*
X51581874Y-66458037D01*
X51790377Y-66451005D01*
X51998881Y-66443972D01*
X52116569Y-66052566D01*
X52539349Y-66052566D01*
X52563863Y-66188432D01*
X52625147Y-66308619D01*
X52720974Y-66404377D01*
X52780504Y-66440046D01*
X52873714Y-66468163D01*
X52989903Y-66478941D01*
X53107699Y-66472328D01*
X53205733Y-66448273D01*
X53221576Y-66441118D01*
X53292868Y-66398548D01*
X53353926Y-66352065D01*
X53386628Y-66323063D01*
X53405978Y-66318477D01*
X53421439Y-66345298D01*
X53442474Y-66410518D01*
X53445295Y-66419573D01*
X53462845Y-66439022D01*
X53506411Y-66450472D01*
X53584854Y-66455532D01*
X53646592Y-66456176D01*
X53836455Y-66456180D01*
X53836119Y-66431773D01*
X54190250Y-66431773D01*
X54629443Y-66431773D01*
X54629481Y-66023079D01*
X54630291Y-65864707D01*
X54633167Y-65746841D01*
X54637081Y-65687584D01*
X55203931Y-65687584D01*
X55207831Y-65799400D01*
X55219125Y-65909409D01*
X55235427Y-65994866D01*
X55236573Y-65998925D01*
X55288710Y-66113671D01*
X55372475Y-66228857D01*
X55473833Y-66327707D01*
X55558794Y-66384078D01*
X55706562Y-66436878D01*
X55883590Y-66463160D01*
X56077811Y-66462355D01*
X56277159Y-66433895D01*
X56333440Y-66420585D01*
X56401748Y-66400742D01*
X56434917Y-66378639D01*
X56445239Y-66340550D01*
X56445428Y-66295557D01*
X56436903Y-66178313D01*
X56416897Y-66104830D01*
X56385993Y-66076712D01*
X56366894Y-66080049D01*
X56324452Y-66089677D01*
X56247273Y-66099189D01*
X56149400Y-66106993D01*
X56110540Y-66109139D01*
X55969175Y-66111075D01*
X55864308Y-66098950D01*
X55784859Y-66069559D01*
X55719748Y-66019695D01*
X55690332Y-65987543D01*
X55652845Y-65941163D01*
X55632080Y-65906226D01*
X55632693Y-65881112D01*
X55659344Y-65864200D01*
X55716692Y-65853871D01*
X55809393Y-65848505D01*
X55942108Y-65846483D01*
X56096859Y-65846182D01*
X56563891Y-65846182D01*
X56550157Y-65644885D01*
X56527889Y-65459673D01*
X56486923Y-65311216D01*
X56423685Y-65189875D01*
X56347671Y-65098765D01*
X56215254Y-64999117D01*
X56062863Y-64941441D01*
X55896637Y-64926479D01*
X55722714Y-64954978D01*
X55588248Y-65006602D01*
X55442502Y-65102889D01*
X55329385Y-65233402D01*
X55251125Y-65394196D01*
X55209948Y-65581325D01*
X55203931Y-65687584D01*
X54637081Y-65687584D01*
X54638823Y-65661205D01*
X54647974Y-65599525D01*
X54661336Y-65553526D01*
X54672180Y-65528987D01*
X54740478Y-65443562D01*
X54840572Y-65384345D01*
X54959236Y-65358718D01*
X54978087Y-65358227D01*
X55070536Y-65358189D01*
X55063486Y-65144693D01*
X55056436Y-64931196D01*
X54949605Y-64936127D01*
X54829602Y-64962729D01*
X54720817Y-65024879D01*
X54638850Y-65112758D01*
X54622037Y-65142234D01*
X54581755Y-65223992D01*
X54580866Y-65138593D01*
X54577191Y-65044178D01*
X54562109Y-64986447D01*
X54525923Y-64956406D01*
X54458932Y-64945060D01*
X54370401Y-64943396D01*
X54190250Y-64943396D01*
X54190250Y-66431773D01*
X53836119Y-66431773D01*
X53829649Y-65962084D01*
X53825677Y-65757899D01*
X53819348Y-65595454D01*
X53809640Y-65467711D01*
X53795534Y-65367628D01*
X53776008Y-65288165D01*
X53750043Y-65222283D01*
X53716617Y-65162942D01*
X53713007Y-65157375D01*
X53644741Y-65073505D01*
X53561926Y-65014803D01*
X53455849Y-64977909D01*
X53317794Y-64959464D01*
X53189865Y-64955717D01*
X52995028Y-64962993D01*
X52843739Y-64985398D01*
X52732973Y-65023493D01*
X52693281Y-65047539D01*
X52669377Y-65069901D01*
X52661475Y-65099498D01*
X52668765Y-65150676D01*
X52683942Y-65212735D01*
X52706114Y-65289019D01*
X52730979Y-65328413D01*
X52770659Y-65336170D01*
X52837276Y-65317545D01*
X52884870Y-65299831D01*
X52973019Y-65276154D01*
X53072819Y-65262715D01*
X53099578Y-65261662D01*
X53183693Y-65269120D01*
X53264287Y-65289596D01*
X53327444Y-65318018D01*
X53359243Y-65349313D01*
X53360663Y-65356820D01*
X53368684Y-65397549D01*
X53374324Y-65414199D01*
X53371348Y-65436140D01*
X53336970Y-65451742D01*
X53263171Y-65464268D01*
X53246226Y-65466314D01*
X53024432Y-65505811D01*
X52845294Y-65567577D01*
X52709137Y-65651459D01*
X52616286Y-65757302D01*
X52609551Y-65768812D01*
X52553835Y-65909775D01*
X52539349Y-66052566D01*
X52116569Y-66052566D01*
X52215307Y-65724184D01*
X52269091Y-65544440D01*
X52318058Y-65379128D01*
X52360485Y-65234200D01*
X52394647Y-65115609D01*
X52418819Y-65029308D01*
X52431279Y-64981249D01*
X52432605Y-64973896D01*
X52417489Y-64958049D01*
X52367369Y-64948302D01*
X52276731Y-64943868D01*
X52218612Y-64943396D01*
X52003746Y-64943396D01*
X51959403Y-65169092D01*
X51937017Y-65286068D01*
X51910060Y-65431502D01*
X51882137Y-65585746D01*
X51859832Y-65711984D01*
X51838769Y-65825365D01*
X51819483Y-65915319D01*
X51803804Y-65974276D01*
X51793563Y-65994667D01*
X51791969Y-65992579D01*
X51782749Y-65958093D01*
X51764690Y-65884137D01*
X51739718Y-65778840D01*
X51709762Y-65650329D01*
X51676747Y-65506732D01*
X51676257Y-65504587D01*
X51635875Y-65326424D01*
X51604448Y-65190093D01*
X51578929Y-65090125D01*
X51556269Y-65021053D01*
X51533418Y-64977408D01*
X51507330Y-64953722D01*
X51474955Y-64944527D01*
X51433245Y-64944355D01*
X51379152Y-64947737D01*
X51366173Y-64948377D01*
X51201297Y-64955596D01*
X51066866Y-65496051D01*
X50932436Y-66036506D01*
X50836525Y-65502151D01*
X50740615Y-64967796D01*
X50514229Y-64967796D01*
X50402860Y-64969514D01*
X50334084Y-64975245D01*
X50301797Y-64985849D01*
X50298094Y-64998295D01*
X49876231Y-64998295D01*
X49844719Y-64974610D01*
X49714303Y-64930828D01*
X49576141Y-64929389D01*
X49437850Y-64969936D01*
X49307045Y-65052117D01*
X49261501Y-65093574D01*
X49212624Y-65139937D01*
X49184978Y-65154484D01*
X49166432Y-65141009D01*
X49157440Y-65126131D01*
X49076769Y-65028069D01*
X48969080Y-64962590D01*
X48844193Y-64930276D01*
X48711931Y-64931707D01*
X48582114Y-64967465D01*
X48464564Y-65038129D01*
X48417457Y-65082363D01*
X48360880Y-65143411D01*
X48345573Y-65073903D01*
X48331175Y-65012518D01*
X48320870Y-64973896D01*
X48291556Y-64955228D01*
X48216807Y-64945296D01*
X48139911Y-64943396D01*
X47968348Y-64943396D01*
X47968348Y-66431773D01*
X47285158Y-66431773D01*
X47285196Y-66023079D01*
X47286007Y-65864707D01*
X47288883Y-65746841D01*
X47294539Y-65661205D01*
X47303690Y-65599525D01*
X47317051Y-65553526D01*
X47327896Y-65528987D01*
X47396193Y-65443562D01*
X47496287Y-65384345D01*
X47614951Y-65358718D01*
X47633803Y-65358227D01*
X47726251Y-65358189D01*
X47719201Y-65144693D01*
X47712152Y-64931196D01*
X47638953Y-64924288D01*
X47547583Y-64935803D01*
X47446916Y-64979500D01*
X47353405Y-65046104D01*
X47285158Y-65123727D01*
X47224159Y-65218658D01*
X47216812Y-65080023D01*
X47209464Y-64941388D01*
X47021615Y-64948492D01*
X46926910Y-64953029D01*
X46871010Y-64959976D01*
X46843925Y-64972660D01*
X46835671Y-64994408D01*
X46835508Y-65010495D01*
X46479971Y-65010495D01*
X46479971Y-64967796D01*
X46040778Y-64967796D01*
X46040778Y-66456172D01*
X43608180Y-66456172D01*
X43611892Y-66456144D01*
X43688210Y-66451616D01*
X43736565Y-66443035D01*
X43747214Y-66434748D01*
X43745854Y-66431773D01*
X44552401Y-66431773D01*
X44991594Y-66431773D01*
X44991594Y-65626585D01*
X45699183Y-65626585D01*
X45699183Y-65236191D01*
X44991594Y-65236191D01*
X44991594Y-64772599D01*
X45747982Y-64772599D01*
X45747982Y-64556967D01*
X46029687Y-64556967D01*
X46039013Y-64635328D01*
X46074148Y-64692138D01*
X46097592Y-64714189D01*
X46185212Y-64760511D01*
X46287785Y-64772411D01*
X46383671Y-64747483D01*
X46386042Y-64746235D01*
X46428489Y-64706430D01*
X46466753Y-64644214D01*
X46470164Y-64636437D01*
X46491362Y-64571233D01*
X46487348Y-64516649D01*
X46470164Y-64469567D01*
X46421376Y-64390591D01*
X46350734Y-64347267D01*
X46247907Y-64333434D01*
X46241832Y-64333406D01*
X46142763Y-64353976D01*
X46071958Y-64412173D01*
X46034420Y-64502724D01*
X46029687Y-64556967D01*
X45747982Y-64556967D01*
X45747982Y-64406604D01*
X44552401Y-64406604D01*
X44552401Y-66431773D01*
X43745854Y-66431773D01*
X43735286Y-66408649D01*
X43701747Y-66346567D01*
X43649964Y-66254440D01*
X43583306Y-66138208D01*
X43505141Y-66003807D01*
X43439337Y-65891856D01*
X43353080Y-65745318D01*
X43274176Y-65610439D01*
X43206337Y-65493631D01*
X43153274Y-65401304D01*
X43118700Y-65339871D01*
X43107287Y-65318257D01*
X43102338Y-65295972D01*
X43108550Y-65266105D01*
X43129250Y-65223198D01*
X43167763Y-65161790D01*
X43227415Y-65076420D01*
X43311533Y-64961628D01*
X43382242Y-64866864D01*
X43474076Y-64744343D01*
X43556856Y-64634005D01*
X43625783Y-64542236D01*
X43676059Y-64475424D01*
X43702886Y-64439957D01*
X43705080Y-64437104D01*
X43705742Y-64423584D01*
X43678798Y-64414573D01*
X43618203Y-64409354D01*
X43517907Y-64407213D01*
X43451306Y-64407072D01*
X43173823Y-64407539D01*
X42978626Y-64701828D01*
X42899045Y-64822604D01*
X42820293Y-64943506D01*
X42750673Y-65051703D01*
X42698485Y-65134366D01*
X42691931Y-65144977D01*
X42600432Y-65293837D01*
X42600432Y-64406604D01*
X42136839Y-64406604D01*
X42136839Y-65415122D01*
X41751768Y-65415122D01*
X41742594Y-65247816D01*
X41731666Y-65047990D01*
X41721846Y-64867887D01*
X41713432Y-64712985D01*
X41706720Y-64588760D01*
X41702008Y-64500689D01*
X41699594Y-64454251D01*
X41699364Y-64449304D01*
X41694035Y-64431130D01*
X41674448Y-64418944D01*
X41632598Y-64411581D01*
X41560481Y-64407874D01*
X41450095Y-64406658D01*
X41406207Y-64406604D01*
X41114767Y-64406604D01*
X41026600Y-64693300D01*
X40988699Y-64816458D01*
X40952558Y-64933737D01*
X40922518Y-65031062D01*
X40904338Y-65089794D01*
X40882124Y-65166372D01*
X40853911Y-65270581D01*
X40825039Y-65382589D01*
X40818960Y-65406989D01*
X40786612Y-65540502D01*
X40761798Y-65640829D01*
X40741929Y-65706281D01*
X40724419Y-65735167D01*
X40706681Y-65725796D01*
X40686126Y-65676479D01*
X40660167Y-65585526D01*
X40626218Y-65451246D01*
X40581690Y-65271948D01*
X40575701Y-65248078D01*
X40533318Y-65080458D01*
X40492352Y-64920309D01*
X40455108Y-64776504D01*
X40423893Y-64657914D01*
X40401012Y-64573412D01*
X40393472Y-64546902D01*
X40352205Y-64406604D01*
X39756348Y-64406604D01*
X39701183Y-65327690D01*
X39688340Y-65538725D01*
X39675847Y-65737609D01*
X39664113Y-65918315D01*
X39653545Y-66074812D01*
X39644550Y-66201073D01*
X39637537Y-66291069D01*
X39632913Y-66338770D01*
X39632704Y-66340274D01*
X39619390Y-66431773D01*
X39379683Y-66431773D01*
X39379683Y-66066832D01*
X38916104Y-66060205D01*
X38452526Y-66053579D01*
X38916088Y-65358189D01*
X39040359Y-65171572D01*
X39140173Y-65020753D01*
X39218207Y-64900974D01*
X39277141Y-64807476D01*
X39319654Y-64735501D01*
X39348424Y-64680289D01*
X39366132Y-64637081D01*
X39375455Y-64601119D01*
X39379074Y-64567644D01*
X39379667Y-64534702D01*
X39379683Y-64406604D01*
X37940105Y-64406604D01*
X37940105Y-64796998D01*
X38794673Y-64796998D01*
X38318590Y-65502303D01*
X38191187Y-65691423D01*
X38088661Y-65844841D01*
X38008338Y-65967131D01*
X37947539Y-66062865D01*
X37903587Y-66136617D01*
X37873806Y-66192959D01*
X37855519Y-66236465D01*
X37846049Y-66271708D01*
X37842719Y-66303261D01*
X37842507Y-66315624D01*
X36596035Y-66315624D01*
X36680179Y-66234523D01*
X36878187Y-65981920D01*
X37041478Y-65701293D01*
X37166761Y-65396091D01*
X37221531Y-65205825D01*
X37252207Y-65034876D01*
X37270360Y-64835195D01*
X37275466Y-64625353D01*
X37267000Y-64423920D01*
X37247977Y-64268755D01*
X37168505Y-63944360D01*
X37090236Y-63746296D01*
X38015906Y-63746296D01*
X38029032Y-63788923D01*
X38041403Y-63799417D01*
X38090034Y-63813901D01*
X38168139Y-63821120D01*
X38260623Y-63821593D01*
X38352389Y-63815841D01*
X38428342Y-63804383D01*
X38473385Y-63787739D01*
X38476897Y-63784414D01*
X38491538Y-63739212D01*
X38466092Y-63700383D01*
X38409178Y-63677334D01*
X38376311Y-63674616D01*
X38335056Y-63671794D01*
X38314279Y-63655028D01*
X38306967Y-63611873D01*
X38306100Y-63550007D01*
X38308093Y-63477448D01*
X38316718Y-63443712D01*
X38335942Y-63438896D01*
X38348799Y-63443394D01*
X38397672Y-63456028D01*
X38473052Y-63467595D01*
X38513496Y-63471763D01*
X38643159Y-63462047D01*
X38750966Y-63408740D01*
X38837549Y-63311517D01*
X38843023Y-63302745D01*
X38883572Y-63193141D01*
X38881346Y-63122184D01*
X39024721Y-63122184D01*
X39035018Y-63248172D01*
X39036874Y-63255312D01*
X39088476Y-63360435D01*
X39173918Y-63440807D01*
X39283148Y-63493005D01*
X39406114Y-63513604D01*
X39532763Y-63499183D01*
X39633119Y-63458367D01*
X39717657Y-63384747D01*
X39770184Y-63285501D01*
X39790162Y-63172298D01*
X39777055Y-63056804D01*
X39730325Y-62950688D01*
X39666029Y-62880166D01*
X39893956Y-62880166D01*
X39905392Y-62935598D01*
X39936387Y-62964626D01*
X39967055Y-63001276D01*
X39996775Y-63079809D01*
X40023740Y-63188632D01*
X40052307Y-63317027D01*
X40075551Y-63405012D01*
X40097208Y-63460131D01*
X40121013Y-63489926D01*
X40150700Y-63501940D01*
X40179810Y-63503819D01*
X40220394Y-63499231D01*
X40247908Y-63478051D01*
X40271490Y-63429156D01*
X40292330Y-63366858D01*
X40317952Y-63297895D01*
X40341081Y-63256543D01*
X40354577Y-63250960D01*
X40373648Y-63284724D01*
X40400976Y-63347272D01*
X40416773Y-63387921D01*
X40446570Y-63457998D01*
X40475186Y-63492600D01*
X40513845Y-63503443D01*
X40527758Y-63503819D01*
X40568160Y-63499421D01*
X40592822Y-63478289D01*
X40610536Y-63428517D01*
X40622376Y-63375721D01*
X40653927Y-63227162D01*
X40678553Y-63119060D01*
X40681863Y-63106615D01*
X40875009Y-63106615D01*
X40877345Y-63209526D01*
X40920038Y-63308190D01*
X40981461Y-63393322D01*
X41048518Y-63446597D01*
X41124255Y-63478444D01*
X41202788Y-63491424D01*
X41308180Y-63492966D01*
X41420240Y-63484376D01*
X41518780Y-63466962D01*
X41570321Y-63449552D01*
X41623336Y-63410094D01*
X41626290Y-63403761D01*
X41849271Y-63403761D01*
X41857297Y-63451419D01*
X41868701Y-63467530D01*
X41894193Y-63484379D01*
X41942644Y-63495340D01*
X42022093Y-63501370D01*
X42140579Y-63503427D01*
X42170326Y-63503445D01*
X42283052Y-63501499D01*
X42379276Y-63496515D01*
X42447560Y-63489290D01*
X42474735Y-63482222D01*
X42498371Y-63443593D01*
X42498897Y-63415496D01*
X42484824Y-63388244D01*
X42448046Y-63372410D01*
X42377113Y-63363903D01*
X42350099Y-63362303D01*
X42210038Y-63354986D01*
X42210038Y-63224305D01*
X42212057Y-63148532D01*
X42217165Y-63129567D01*
X42749430Y-63129567D01*
X42758264Y-63236419D01*
X42802413Y-63335465D01*
X42883098Y-63418137D01*
X42948631Y-63455902D01*
X43063404Y-63492949D01*
X43188941Y-63501000D01*
X43339348Y-63480797D01*
X43355872Y-63477343D01*
X43451539Y-63445385D01*
X43504558Y-63400885D01*
X43512303Y-63346195D01*
X43510087Y-63339121D01*
X43488594Y-63317104D01*
X43440655Y-63310205D01*
X43359244Y-63318366D01*
X43258788Y-63337036D01*
X43174035Y-63351675D01*
X43114741Y-63351235D01*
X43059438Y-63334023D01*
X43026852Y-63318736D01*
X42957033Y-63280686D01*
X42924247Y-63252380D01*
X42930796Y-63232541D01*
X42978978Y-63219888D01*
X43071095Y-63213145D01*
X43209444Y-63211031D01*
X43220589Y-63211023D01*
X43527617Y-63211023D01*
X43527617Y-63163436D01*
X43691127Y-63163436D01*
X43704543Y-63278615D01*
X43754601Y-63383098D01*
X43841321Y-63467356D01*
X43869212Y-63484409D01*
X43943791Y-63514761D01*
X44028099Y-63522742D01*
X44084394Y-63519257D01*
X44164694Y-63507054D01*
X44227739Y-63489292D01*
X44249091Y-63478020D01*
X44278050Y-63462356D01*
X44284006Y-63476431D01*
X44304980Y-63495379D01*
X44356898Y-63503584D01*
X44423253Y-63501693D01*
X44487535Y-63490351D01*
X44533238Y-63470205D01*
X44537422Y-63466513D01*
X44556829Y-63429101D01*
X45506588Y-63429101D01*
X45519715Y-63471728D01*
X45532085Y-63482222D01*
X45575183Y-63495912D01*
X45638114Y-63502344D01*
X45703511Y-63501634D01*
X45754010Y-63493899D01*
X45772382Y-63480597D01*
X45791653Y-63473841D01*
X45839246Y-63486724D01*
X45851681Y-63491842D01*
X45968985Y-63522516D01*
X46090905Y-63520844D01*
X46189466Y-63490434D01*
X46276629Y-63419434D01*
X46335186Y-63317506D01*
X46357824Y-63197632D01*
X46357882Y-63191512D01*
X46337708Y-63060049D01*
X46274801Y-62948556D01*
X46212304Y-62886077D01*
X46484590Y-62886077D01*
X46497771Y-62942138D01*
X46522909Y-62963891D01*
X46551458Y-62995106D01*
X46593554Y-63060822D01*
X46643127Y-63150856D01*
X46685814Y-63237205D01*
X46736397Y-63346167D01*
X46768410Y-63421809D01*
X46784511Y-63474754D01*
X46787360Y-63515622D01*
X46779614Y-63555035D01*
X46771688Y-63580286D01*
X46750362Y-63636766D01*
X46724574Y-63664509D01*
X46678089Y-63673723D01*
X46621697Y-63674616D01*
X46534208Y-63684188D01*
X46488061Y-63711440D01*
X46485559Y-63754175D01*
X46505325Y-63785564D01*
X46530646Y-63803396D01*
X46576370Y-63813684D01*
X46651807Y-63817490D01*
X46766265Y-63815873D01*
X46770350Y-63815753D01*
X46878684Y-63811901D01*
X46947621Y-63806473D01*
X46986559Y-63797001D01*
X47004892Y-63781018D01*
X47012016Y-63756055D01*
X47012593Y-63752135D01*
X47005275Y-63702818D01*
X46968896Y-63681930D01*
X46930963Y-63663809D01*
X46924266Y-63648873D01*
X46954278Y-63576026D01*
X46998225Y-63481514D01*
X47051322Y-63374326D01*
X47108785Y-63263445D01*
X47165830Y-63157860D01*
X47217671Y-63066556D01*
X47259525Y-62998520D01*
X47286606Y-62962737D01*
X47291258Y-62959597D01*
X47325632Y-62929382D01*
X47331603Y-62882529D01*
X47308391Y-62842628D01*
X47295362Y-62835440D01*
X47246162Y-62825629D01*
X47175374Y-62820749D01*
X47163160Y-62820629D01*
X47091406Y-62824369D01*
X47036623Y-62833557D01*
X47030958Y-62835440D01*
X46998271Y-62868987D01*
X46996775Y-62917637D01*
X47026419Y-62959003D01*
X47031242Y-62961960D01*
X47048496Y-62978105D01*
X47049633Y-63005677D01*
X47032272Y-63054547D01*
X46994031Y-63134586D01*
X46985485Y-63151602D01*
X46900848Y-63319485D01*
X46729866Y-62979227D01*
X46781347Y-62939713D01*
X46815693Y-62906257D01*
X46811924Y-62876735D01*
X46798896Y-62859313D01*
X46763875Y-62834510D01*
X46705002Y-62824517D01*
X46628567Y-62825628D01*
X46549428Y-62832197D01*
X46506835Y-62844616D01*
X46488541Y-62868026D01*
X46484590Y-62886077D01*
X46212304Y-62886077D01*
X46211733Y-62885506D01*
X46103070Y-62821878D01*
X45983879Y-62805676D01*
X45875309Y-62828260D01*
X45772382Y-62863721D01*
X45772382Y-62525284D01*
X45644284Y-62532659D01*
X45568027Y-62539768D01*
X45527909Y-62553565D01*
X45511280Y-62579769D01*
X45508502Y-62594071D01*
X45515470Y-62639002D01*
X45560072Y-62662955D01*
X45563401Y-62663815D01*
X45625984Y-62679522D01*
X45625984Y-63016774D01*
X45625700Y-63150854D01*
X45624027Y-63243888D01*
X45619738Y-63303632D01*
X45611605Y-63337839D01*
X45598400Y-63354263D01*
X45578894Y-63360659D01*
X45571335Y-63361824D01*
X45525926Y-63385929D01*
X45506588Y-63429101D01*
X44556829Y-63429101D01*
X44563005Y-63417196D01*
X44546420Y-63376167D01*
X44493952Y-63357524D01*
X44488792Y-63357421D01*
X44430403Y-63357421D01*
X44430403Y-62525284D01*
X44302305Y-62532659D01*
X44226048Y-62539768D01*
X44185930Y-62553565D01*
X44169301Y-62579769D01*
X44166523Y-62594071D01*
X44173491Y-62639002D01*
X44218094Y-62662955D01*
X44221422Y-62663815D01*
X44264756Y-62683287D01*
X44281887Y-62723031D01*
X44284006Y-62764886D01*
X44280259Y-62820683D01*
X44264707Y-62838176D01*
X44241306Y-62832255D01*
X44192447Y-62819466D01*
X44117089Y-62807499D01*
X44076609Y-62803071D01*
X43989406Y-62800967D01*
X43924062Y-62817909D01*
X43870531Y-62849039D01*
X43774141Y-62939118D01*
X43714332Y-63047094D01*
X43691127Y-63163436D01*
X43527617Y-63163436D01*
X43527617Y-63136613D01*
X43505169Y-63022104D01*
X43443998Y-62922990D01*
X43353370Y-62845793D01*
X43242548Y-62797032D01*
X43120796Y-62783228D01*
X43042810Y-62795372D01*
X42922600Y-62847809D01*
X42832819Y-62926697D01*
X42774688Y-63023471D01*
X42749430Y-63129567D01*
X42217165Y-63129567D01*
X42224814Y-63101167D01*
X42258356Y-63064040D01*
X42322733Y-63018978D01*
X42324069Y-63018093D01*
X42390703Y-62975928D01*
X42432658Y-62958597D01*
X42465155Y-62962837D01*
X42496838Y-62981048D01*
X42560253Y-63006760D01*
X42606003Y-62995050D01*
X42624767Y-62948561D01*
X42624832Y-62944777D01*
X42603627Y-62886348D01*
X42547813Y-62845766D01*
X42469090Y-62825491D01*
X42379156Y-62827980D01*
X42289713Y-62855692D01*
X42264937Y-62869161D01*
X42213329Y-62899337D01*
X42191039Y-62904041D01*
X42185752Y-62883260D01*
X42185639Y-62869070D01*
X42175728Y-62835405D01*
X42137426Y-62822031D01*
X42101828Y-62820629D01*
X42001815Y-62830887D01*
X41929957Y-62859041D01*
X41894895Y-62901162D01*
X41892843Y-62915685D01*
X41912275Y-62957165D01*
X41966042Y-62979227D01*
X42039241Y-62995304D01*
X42039241Y-63357421D01*
X41953076Y-63357421D01*
X41882946Y-63370147D01*
X41849271Y-63403761D01*
X41626290Y-63403761D01*
X41644286Y-63365184D01*
X41629265Y-63327603D01*
X41610848Y-63316908D01*
X41566067Y-63313111D01*
X41491196Y-63319218D01*
X41415277Y-63331546D01*
X41279269Y-63346325D01*
X41169009Y-63333202D01*
X41090848Y-63293501D01*
X41062210Y-63257868D01*
X41054176Y-63238495D01*
X41059413Y-63225361D01*
X41085169Y-63217256D01*
X41138696Y-63212971D01*
X41227240Y-63211297D01*
X41342993Y-63211023D01*
X41648847Y-63211023D01*
X41648847Y-63122405D01*
X41635358Y-63040772D01*
X41602409Y-62959024D01*
X41597692Y-62951016D01*
X41516121Y-62861024D01*
X41411266Y-62805732D01*
X41293496Y-62784504D01*
X41173181Y-62796702D01*
X41060691Y-62841688D01*
X40966396Y-62918825D01*
X40916100Y-62992914D01*
X40875009Y-63106615D01*
X40681863Y-63106615D01*
X40698531Y-63043948D01*
X40716141Y-62994360D01*
X40733660Y-62962829D01*
X40753369Y-62941889D01*
X40755255Y-62940328D01*
X40794606Y-62893345D01*
X40788014Y-62856457D01*
X40737656Y-62831651D01*
X40645710Y-62820915D01*
X40624063Y-62820629D01*
X40523565Y-62828439D01*
X40465868Y-62850826D01*
X40452539Y-62886224D01*
X40485145Y-62933070D01*
X40499252Y-62945256D01*
X40531789Y-62976749D01*
X40541544Y-63010803D01*
X40531609Y-63066001D01*
X40523997Y-63093953D01*
X40494617Y-63198823D01*
X40457085Y-63081727D01*
X40432334Y-63012406D01*
X40408791Y-62978960D01*
X40375011Y-62970131D01*
X40345457Y-62971928D01*
X40296669Y-62983566D01*
X40263869Y-63015185D01*
X40234231Y-63079887D01*
X40230820Y-63089025D01*
X40190281Y-63198823D01*
X40160739Y-63089569D01*
X40144580Y-63021276D01*
X40145787Y-62982742D01*
X40166892Y-62957236D01*
X40182433Y-62946295D01*
X40223464Y-62900792D01*
X40230852Y-62851426D01*
X40203056Y-62814703D01*
X40195074Y-62811040D01*
X40133364Y-62798665D01*
X40055105Y-62796760D01*
X39980190Y-62804274D01*
X39928514Y-62820155D01*
X39921354Y-62825509D01*
X39893956Y-62880166D01*
X39666029Y-62880166D01*
X39660050Y-62873608D01*
X39545649Y-62809316D01*
X39426710Y-62785898D01*
X39310684Y-62798789D01*
X39205022Y-62843427D01*
X39117173Y-62915248D01*
X39054590Y-63009688D01*
X39024721Y-63122184D01*
X38881346Y-63122184D01*
X38879985Y-63078796D01*
X38834840Y-62969094D01*
X38750712Y-62873414D01*
X38718414Y-62848956D01*
X38661116Y-62815423D01*
X38605385Y-62801898D01*
X38529700Y-62804249D01*
X38501297Y-62807270D01*
X38402518Y-62816320D01*
X38284342Y-62823973D01*
X38196301Y-62827743D01*
X38106061Y-62831888D01*
X38053661Y-62839940D01*
X38028141Y-62855405D01*
X38018545Y-62881789D01*
X38018097Y-62884755D01*
X38026330Y-62928715D01*
X38072996Y-62952319D01*
X38135302Y-62967957D01*
X38135302Y-63319589D01*
X38135043Y-63456944D01*
X38133494Y-63553087D01*
X38129504Y-63615605D01*
X38121918Y-63652086D01*
X38109583Y-63670115D01*
X38091344Y-63677281D01*
X38080652Y-63679019D01*
X38035244Y-63703124D01*
X38015906Y-63746296D01*
X37090236Y-63746296D01*
X37049226Y-63642519D01*
X36893360Y-63366024D01*
X36704130Y-63117663D01*
X36484755Y-62900226D01*
X36238457Y-62716504D01*
X35968458Y-62569286D01*
X35677977Y-62461361D01*
X35370236Y-62395521D01*
X35060951Y-62374497D01*
X34736151Y-62398684D01*
X34424181Y-62468648D01*
X34128974Y-62582259D01*
X33854465Y-62737383D01*
X33604586Y-62931891D01*
X33383272Y-63163651D01*
X33236994Y-63362783D01*
X33074680Y-63653848D01*
X32956469Y-63958564D01*
X32881827Y-64272289D01*
X32850219Y-64590383D01*
X32162664Y-64590383D01*
X32161877Y-64308159D01*
X32160845Y-63936743D01*
G37*
G36*
X56028013Y-65279984D02*
G01*
X56099156Y-65345520D01*
X56138002Y-65434975D01*
X56142219Y-65478976D01*
X56139257Y-65501272D01*
X56124610Y-65515730D01*
X56089631Y-65524038D01*
X56025675Y-65527884D01*
X55924098Y-65528954D01*
X55886023Y-65528987D01*
X55771388Y-65528263D01*
X55696997Y-65525085D01*
X55654307Y-65517947D01*
X55634772Y-65505341D01*
X55629846Y-65485761D01*
X55629827Y-65483796D01*
X55650482Y-65409289D01*
X55703249Y-65334313D01*
X55774331Y-65274945D01*
X55829905Y-65250686D01*
X55934840Y-65245870D01*
X56028013Y-65279984D01*
G37*
G36*
X44143226Y-62961712D02*
G01*
X44215128Y-63011787D01*
X44263693Y-63082081D01*
X44283990Y-63161826D01*
X44271087Y-63240250D01*
X44220052Y-63306586D01*
X44219716Y-63306851D01*
X44135377Y-63348269D01*
X44039667Y-63358405D01*
X43950511Y-63337588D01*
X43897865Y-63300949D01*
X43851688Y-63221157D01*
X43845036Y-63133859D01*
X43872709Y-63051071D01*
X43929506Y-62984808D01*
X44010228Y-62947088D01*
X44052921Y-62942628D01*
X44143226Y-62961712D01*
G37*
G36*
X46098919Y-62959737D02*
G01*
X46115328Y-62967750D01*
X46166771Y-63015613D01*
X46210654Y-63089508D01*
X46234555Y-63166909D01*
X46235975Y-63186521D01*
X46213608Y-63258396D01*
X46153786Y-63315790D01*
X46067430Y-63350651D01*
X46004178Y-63357421D01*
X45918401Y-63349336D01*
X45857609Y-63320000D01*
X45832272Y-63297531D01*
X45784263Y-63222188D01*
X45776499Y-63142423D01*
X45802054Y-63066307D01*
X45854001Y-63001909D01*
X45925412Y-62957301D01*
X46009360Y-62940554D01*
X46098919Y-62959737D01*
G37*
%TO.C,TP1*%
X85025000Y-15875000D02*
X86425000Y-15875000D01*
X86425000Y-17275000D02*
X85025000Y-17275000D01*
X86425000Y-15875000D02*
X86425000Y-17275000D01*
X85025000Y-17275000D02*
X85025000Y-15875000D01*
%TO.C,D13*%
X31375000Y-35000000D02*
X31375000Y-33150000D01*
X31375000Y-33150000D02*
X30175000Y-33150000D01*
X30175000Y-35000000D02*
X30175000Y-33150000D01*
%TO.C,D7*%
X11125000Y-1900000D02*
X11125000Y-50000D01*
X12325000Y-50000D02*
X11125000Y-50000D01*
X12325000Y-1900000D02*
X12325000Y-50000D01*
%TO.C,D26*%
X88525000Y-16100000D02*
X87325000Y-16100000D01*
X87325000Y-17950000D02*
X87325000Y-16100000D01*
X88525000Y-17950000D02*
X88525000Y-16100000D01*
%TO.C,TP1*%
X19775000Y-9325000D02*
X19775000Y-10725000D01*
X18375000Y-10725000D02*
X18375000Y-9325000D01*
X18375000Y-9325000D02*
X19775000Y-9325000D01*
X19775000Y-10725000D02*
X18375000Y-10725000D01*
%TO.C,D14*%
X31375000Y-54050000D02*
X31375000Y-52200000D01*
X30175000Y-54050000D02*
X30175000Y-52200000D01*
X31375000Y-52200000D02*
X30175000Y-52200000D01*
%TO.C,D25*%
X88524996Y1100000D02*
X88524996Y2950000D01*
X88524996Y2950000D02*
X87324996Y2950000D01*
X87324996Y1100000D02*
X87324996Y2950000D01*
%TO.C,TP1*%
X86425000Y-36275000D02*
X85025000Y-36275000D01*
X85025000Y-34875000D02*
X86425000Y-34875000D01*
X86425000Y-34875000D02*
X86425000Y-36275000D01*
X85025000Y-36275000D02*
X85025000Y-34875000D01*
X85025000Y1775000D02*
X85025000Y3175000D01*
X85025000Y3175000D02*
X86425000Y3175000D01*
X86425000Y3175000D02*
X86425000Y1775000D01*
X86425000Y1775000D02*
X85025000Y1775000D01*
%TO.C,J2*%
X120225000Y-7775000D02*
X122125000Y-7775000D01*
X120225000Y-17175000D02*
X122125000Y-17175000D01*
X116325000Y-7775000D02*
X118325000Y-7775000D01*
X122125000Y-17175000D02*
X122125000Y-7775000D01*
X116325000Y-17175000D02*
X118325000Y-17175000D01*
%TO.C,TP1*%
X85025000Y-53925000D02*
X86425000Y-53925000D01*
X86425000Y-53925000D02*
X86425000Y-55325000D01*
X86425000Y-55325000D02*
X85025000Y-55325000D01*
X85025000Y-55325000D02*
X85025000Y-53925000D01*
X675000Y-9325000D02*
X675000Y-10725000D01*
X-725000Y-9325000D02*
X675000Y-9325000D01*
X-725000Y-10725000D02*
X-725000Y-9325000D01*
X675000Y-10725000D02*
X-725000Y-10725000D01*
%TO.C,G\u002A\u002A\u002A*%
G36*
X118588788Y-54796873D02*
G01*
X118586838Y-54806248D01*
X118552289Y-54994404D01*
X118501088Y-55322069D01*
X118442392Y-55729628D01*
X118421046Y-55885497D01*
X118362761Y-56276046D01*
X118307194Y-56577359D01*
X118263125Y-56744494D01*
X118249396Y-56763955D01*
X118137657Y-56716023D01*
X117927396Y-56597231D01*
X117868395Y-56561287D01*
X117540471Y-56358619D01*
X117182377Y-56987967D01*
X117009858Y-57278123D01*
X116882076Y-57468222D01*
X116823014Y-57523109D01*
X116821542Y-57516920D01*
X116835106Y-57369405D01*
X116874111Y-57073315D01*
X116931375Y-56678194D01*
X116999719Y-56233589D01*
X117071709Y-55790567D01*
X117125517Y-55469747D01*
X117477663Y-55677518D01*
X117711729Y-55793308D01*
X117869650Y-55830711D01*
X117893397Y-55821702D01*
X117973630Y-55707917D01*
X118121466Y-55472334D01*
X118295521Y-55181786D01*
X118455309Y-54925310D01*
X118559943Y-54788138D01*
X118588788Y-54796873D01*
G37*
G36*
X109881372Y-62171989D02*
G01*
X109890011Y-62185299D01*
X109943767Y-62364379D01*
X109979773Y-62667268D01*
X109988869Y-62916697D01*
X109994518Y-63239292D01*
X110020211Y-63399548D01*
X110082366Y-63435880D01*
X110191196Y-63390042D01*
X110346299Y-63327095D01*
X110391987Y-63337285D01*
X110332619Y-63454965D01*
X110175743Y-63675937D01*
X109953200Y-63962059D01*
X109696830Y-64275188D01*
X109438475Y-64577181D01*
X109209974Y-64829897D01*
X109043169Y-64995193D01*
X108972370Y-65037860D01*
X108868785Y-64917542D01*
X108738327Y-64700624D01*
X108732173Y-64688814D01*
X108598780Y-64486859D01*
X108480680Y-64394579D01*
X108473693Y-64393995D01*
X108338978Y-64441781D01*
X108087014Y-64567153D01*
X107771968Y-64743128D01*
X107767269Y-64745880D01*
X107484847Y-64900991D01*
X107296473Y-64983927D01*
X107238415Y-64979093D01*
X107241989Y-64971770D01*
X107366144Y-64788497D01*
X107565445Y-64520125D01*
X107808169Y-64206379D01*
X108062591Y-63886984D01*
X108296987Y-63601666D01*
X108479634Y-63390150D01*
X108578806Y-63292163D01*
X108585304Y-63289647D01*
X108671529Y-63369454D01*
X108802199Y-63568245D01*
X108842881Y-63641030D01*
X109014173Y-63899661D01*
X109180470Y-63976950D01*
X109391172Y-63884835D01*
X109502406Y-63800438D01*
X109632533Y-63667351D01*
X109707072Y-63493981D01*
X109742773Y-63221860D01*
X109754047Y-62921980D01*
X109764316Y-62492836D01*
X109776537Y-62233858D01*
X109796356Y-62114452D01*
X109829419Y-62104026D01*
X109881372Y-62171989D01*
G37*
G36*
X111998311Y-61037500D02*
G01*
X112442356Y-61026076D01*
X112743043Y-60992464D01*
X112957531Y-60924972D01*
X113142979Y-60811908D01*
X113158871Y-60800094D01*
X113392764Y-60652624D01*
X113583962Y-60628955D01*
X113752434Y-60678308D01*
X114181128Y-60747310D01*
X114655897Y-60677619D01*
X115095926Y-60486156D01*
X115264594Y-60361700D01*
X115497664Y-60196810D01*
X115640289Y-60166816D01*
X115664827Y-60259964D01*
X115543637Y-60464498D01*
X115534156Y-60476329D01*
X115447477Y-60597945D01*
X115434683Y-60703891D01*
X115515677Y-60839224D01*
X115710362Y-61049002D01*
X115848405Y-61187737D01*
X116104448Y-61424875D01*
X116311247Y-61581991D01*
X116425796Y-61626623D01*
X116428228Y-61625384D01*
X116583890Y-61619100D01*
X116624725Y-61638213D01*
X116642779Y-61751986D01*
X116499878Y-61955788D01*
X116486399Y-61970423D01*
X116163244Y-62396944D01*
X116020575Y-62784128D01*
X116014121Y-62876337D01*
X116107231Y-63032011D01*
X116374711Y-63234863D01*
X116798786Y-63473782D01*
X117361682Y-63737661D01*
X117459814Y-63779911D01*
X117504385Y-63715160D01*
X117512173Y-63490385D01*
X117487514Y-63142097D01*
X117434741Y-62706809D01*
X117358186Y-62221031D01*
X117262184Y-61721277D01*
X117165626Y-61301192D01*
X116840536Y-60273081D01*
X116414918Y-59352435D01*
X115906750Y-58576328D01*
X115756291Y-58394733D01*
X115541449Y-58142915D01*
X115407080Y-57945916D01*
X115331687Y-57742059D01*
X115293773Y-57469668D01*
X115271842Y-57067066D01*
X115268792Y-56996074D01*
X115189482Y-56258057D01*
X115023961Y-55507275D01*
X114788714Y-54787565D01*
X114500226Y-54142764D01*
X114174980Y-53616707D01*
X113875064Y-53289845D01*
X113525324Y-53091135D01*
X113193976Y-53079987D01*
X112899294Y-53243172D01*
X112659547Y-53567462D01*
X112493009Y-54039628D01*
X112442945Y-54326693D01*
X112418349Y-54716160D01*
X112418509Y-55226047D01*
X112440106Y-55782955D01*
X112479818Y-56313482D01*
X112534325Y-56744227D01*
X112557743Y-56864351D01*
X112579350Y-56998586D01*
X112539992Y-57073667D01*
X112398405Y-57106778D01*
X112113323Y-57115101D01*
X111955019Y-57115339D01*
X111599963Y-57109392D01*
X111401244Y-57082377D01*
X111314544Y-57020530D01*
X111295544Y-56910542D01*
X111236533Y-56434330D01*
X111075180Y-55855831D01*
X110835010Y-55229201D01*
X110539545Y-54608600D01*
X110212308Y-54048183D01*
X109876821Y-53602111D01*
X109842028Y-53564062D01*
X109517150Y-53242068D01*
X109264795Y-53064453D01*
X109042999Y-53010640D01*
X108812274Y-53059134D01*
X108571660Y-53215922D01*
X108400940Y-53494755D01*
X108293373Y-53916636D01*
X108242224Y-54502569D01*
X108235714Y-54856445D01*
X108283095Y-55890514D01*
X108431357Y-56761377D01*
X108682584Y-57480632D01*
X108722400Y-57562582D01*
X108940597Y-57995963D01*
X108309939Y-58626621D01*
X107689838Y-59383654D01*
X107194764Y-60281263D01*
X106839701Y-61292073D01*
X106829276Y-61331940D01*
X106743916Y-61751722D01*
X106662959Y-62307660D01*
X106591735Y-62940831D01*
X106535575Y-63592313D01*
X106499811Y-64203183D01*
X106489772Y-64714519D01*
X106500024Y-64971268D01*
X106512607Y-65297541D01*
X106477710Y-65461374D01*
X106409535Y-65498343D01*
X106347506Y-65451398D01*
X106306849Y-65292128D01*
X106284144Y-64992882D01*
X106275973Y-64526006D01*
X106275781Y-64416460D01*
X106327296Y-63032970D01*
X106483908Y-61812113D01*
X106748725Y-60743564D01*
X107124851Y-59817000D01*
X107615390Y-59022096D01*
X108050377Y-58516109D01*
X108584892Y-57972986D01*
X108317930Y-57192779D01*
X108174243Y-56651718D01*
X108067467Y-56008544D01*
X108001695Y-55323610D01*
X107981018Y-54657270D01*
X108009526Y-54069878D01*
X108078805Y-53665261D01*
X108277178Y-53192192D01*
X108560102Y-52888781D01*
X108909414Y-52763269D01*
X109306951Y-52823900D01*
X109596652Y-52976399D01*
X110006853Y-53341633D01*
X110411558Y-53862143D01*
X110786042Y-54493339D01*
X111105578Y-55190628D01*
X111345441Y-55909419D01*
X111432426Y-56287078D01*
X111542275Y-56864351D01*
X112321843Y-56864351D01*
X112252106Y-56492621D01*
X112195755Y-56025377D01*
X112175086Y-55464925D01*
X112187600Y-54873439D01*
X112230795Y-54313091D01*
X112302172Y-53846051D01*
X112368156Y-53606346D01*
X112615239Y-53150796D01*
X112936873Y-52875105D01*
X113310815Y-52784257D01*
X113714823Y-52883234D01*
X114126655Y-53177021D01*
X114155987Y-53205795D01*
X114496025Y-53642300D01*
X114814687Y-54228295D01*
X115093801Y-54912504D01*
X115315194Y-55643652D01*
X115460695Y-56370463D01*
X115512145Y-57032421D01*
X115519894Y-57372314D01*
X115561898Y-57614574D01*
X115666290Y-57831913D01*
X115861203Y-58097045D01*
X115981769Y-58246204D01*
X116554137Y-59091481D01*
X117028698Y-60096594D01*
X117398453Y-61242293D01*
X117656403Y-62509331D01*
X117726618Y-63044981D01*
X117780521Y-63470731D01*
X117836405Y-63816590D01*
X117886264Y-64037232D01*
X117911549Y-64091963D01*
X118833697Y-64702906D01*
X119662967Y-65187736D01*
X120446243Y-65564498D01*
X121230412Y-65851242D01*
X122062360Y-66066016D01*
X122988972Y-66226866D01*
X123681347Y-66312932D01*
X124848904Y-66441003D01*
X124848904Y-67023823D01*
X124832425Y-67384452D01*
X124780449Y-67564037D01*
X124723410Y-67591601D01*
X124536980Y-67569813D01*
X124296730Y-67542226D01*
X123180357Y-67402121D01*
X122233287Y-67253318D01*
X121424040Y-67088774D01*
X120721134Y-66901450D01*
X120093089Y-66684305D01*
X119677396Y-66509091D01*
X119325674Y-66331665D01*
X118864230Y-66073345D01*
X118349024Y-65766665D01*
X117836019Y-65444155D01*
X117757313Y-65392886D01*
X117318710Y-65109368D01*
X116937914Y-64870306D01*
X116647070Y-64695342D01*
X116478326Y-64604115D01*
X116452175Y-64595471D01*
X116346398Y-64671592D01*
X116187425Y-64860949D01*
X116132788Y-64937932D01*
X115741673Y-65360029D01*
X115216409Y-65715158D01*
X114620666Y-65970752D01*
X114018117Y-66094243D01*
X113859465Y-66100714D01*
X113575163Y-66070107D01*
X113162746Y-65988988D01*
X112683537Y-65873409D01*
X112198855Y-65739421D01*
X111770024Y-65603077D01*
X111458363Y-65480428D01*
X111423094Y-65462954D01*
X111034251Y-65343744D01*
X110695228Y-65359066D01*
X110422727Y-65371006D01*
X110291529Y-65319628D01*
X110319703Y-65235864D01*
X110525317Y-65150646D01*
X110567679Y-65140712D01*
X111197485Y-64946987D01*
X111693878Y-64677913D01*
X112039535Y-64349266D01*
X112217131Y-63976823D01*
X112222309Y-63633893D01*
X112091609Y-63370323D01*
X111826099Y-63083557D01*
X111479781Y-62818705D01*
X111106662Y-62620875D01*
X110943144Y-62565400D01*
X110658379Y-62460523D01*
X110508777Y-62351433D01*
X110505676Y-62266768D01*
X110660415Y-62235162D01*
X110818667Y-62251055D01*
X111144951Y-62304187D01*
X111144951Y-62283470D01*
X111399750Y-62283470D01*
X111479059Y-62426735D01*
X111676037Y-62616974D01*
X111803101Y-62712681D01*
X112194893Y-63076608D01*
X112420115Y-63491859D01*
X112473194Y-63925724D01*
X112348554Y-64345494D01*
X112130811Y-64635696D01*
X111866606Y-64899900D01*
X112097334Y-65145499D01*
X112560638Y-65499890D01*
X113133375Y-65722572D01*
X113767614Y-65806546D01*
X114415426Y-65744818D01*
X114960702Y-65563468D01*
X115278289Y-65379003D01*
X115590916Y-65137594D01*
X115857878Y-64879031D01*
X116038473Y-64643105D01*
X116091997Y-64469606D01*
X116089643Y-64459853D01*
X115985744Y-64385407D01*
X115728311Y-64267317D01*
X115355557Y-64121525D01*
X114905693Y-63963972D01*
X114882996Y-63956447D01*
X114342663Y-63769973D01*
X113970672Y-63615151D01*
X113741613Y-63470930D01*
X113630079Y-63316255D01*
X113610661Y-63130074D01*
X113647297Y-62932547D01*
X113774141Y-62718829D01*
X114027042Y-62621707D01*
X114419815Y-62639402D01*
X114948676Y-62764927D01*
X115361821Y-62878076D01*
X115620314Y-62920832D01*
X115758180Y-62891490D01*
X115809441Y-62788346D01*
X115813331Y-62721622D01*
X115854572Y-62530887D01*
X115955470Y-62268288D01*
X115971530Y-62233647D01*
X116068244Y-61995386D01*
X116064490Y-61830980D01*
X115964056Y-61647417D01*
X115768747Y-61414505D01*
X115510853Y-61180184D01*
X115479572Y-61156206D01*
X115297443Y-61037491D01*
X115105438Y-60967684D01*
X114846025Y-60935849D01*
X114461672Y-60931046D01*
X114307402Y-60933350D01*
X113687068Y-60972539D01*
X113253935Y-61063703D01*
X113138296Y-61112427D01*
X112822511Y-61238101D01*
X112459110Y-61333292D01*
X112406667Y-61342501D01*
X112052360Y-61453511D01*
X111762135Y-61690172D01*
X111693362Y-61769828D01*
X111515119Y-62017991D01*
X111411077Y-62224797D01*
X111399750Y-62283470D01*
X111144951Y-62283470D01*
X111144951Y-61044246D01*
X111998311Y-61037500D01*
G37*
G36*
X118448706Y-62759651D02*
G01*
X118779713Y-62829131D01*
X118917311Y-62942617D01*
X118864774Y-63103706D01*
X118813653Y-63160629D01*
X118785622Y-63265252D01*
X118925772Y-63385506D01*
X119014443Y-63434275D01*
X119234324Y-63564352D01*
X119330780Y-63655046D01*
X119279155Y-63681155D01*
X119251868Y-63676981D01*
X119112222Y-63653975D01*
X118857671Y-63614312D01*
X118774991Y-63601685D01*
X118518132Y-63547706D01*
X118409727Y-63462134D01*
X118397843Y-63300622D01*
X118399697Y-63281205D01*
X118366565Y-63057470D01*
X118179854Y-62909838D01*
X118160834Y-62900964D01*
X117969711Y-62797216D01*
X117963386Y-62741806D01*
X118145868Y-62732767D01*
X118448706Y-62759651D01*
G37*
G36*
X110832697Y-59828279D02*
G01*
X110966611Y-59940130D01*
X111080600Y-60142513D01*
X111043931Y-60299532D01*
X110936990Y-60421211D01*
X110739604Y-60563027D01*
X110589294Y-60519660D01*
X110496274Y-60385457D01*
X110442500Y-60148657D01*
X110510107Y-59948965D01*
X110654904Y-59828224D01*
X110832697Y-59828279D01*
G37*
G36*
X115651669Y-59125512D02*
G01*
X115785583Y-59237364D01*
X115899572Y-59439747D01*
X115862903Y-59596766D01*
X115755962Y-59718444D01*
X115558576Y-59860260D01*
X115408266Y-59816893D01*
X115315247Y-59682691D01*
X115261472Y-59445890D01*
X115329080Y-59246198D01*
X115473876Y-59125458D01*
X115651669Y-59125512D01*
G37*
%TO.C,D29*%
X98740326Y-76488365D02*
X99219141Y-74701402D01*
X99219141Y-74701402D02*
X98060030Y-74390819D01*
X97581215Y-76177782D02*
X98060030Y-74390819D01*
%TO.C,D10*%
X12325000Y-57200000D02*
X11125000Y-57200000D01*
X12325000Y-59050000D02*
X12325000Y-57200000D01*
X11125000Y-59050000D02*
X11125000Y-57200000D01*
%TO.C,TP1*%
X38875000Y-5725000D02*
X37475000Y-5725000D01*
X38875000Y-4325000D02*
X38875000Y-5725000D01*
X37475000Y-4325000D02*
X38875000Y-4325000D01*
X37475000Y-5725000D02*
X37475000Y-4325000D01*
%TO.C,D27*%
X88525000Y-37000000D02*
X88525000Y-35150000D01*
X88525000Y-35150000D02*
X87325000Y-35150000D01*
X87325000Y-37000000D02*
X87325000Y-35150000D01*
%TO.C,D11*%
X30175000Y3100000D02*
X30175000Y4950000D01*
X31375000Y4950000D02*
X30175000Y4950000D01*
X31375000Y3100000D02*
X31375000Y4950000D01*
D12*
%TO.C,J3*%
X77402392Y10069500D02*
X73880500Y10069500D01*
X73880500Y13880500D02*
X77402392Y13880500D01*
X72580500Y11369501D02*
X72580500Y12580499D01*
X79226877Y10917797D02*
X78176732Y10284822D01*
X79819500Y11983049D02*
X79819500Y11966951D01*
X78176732Y13665178D02*
X79226877Y13032203D01*
X72580500Y11369501D02*
G75*
G03*
X73880499Y10069500I1300000J-1D01*
G01*
X79226877Y10917797D02*
G75*
G03*
X79819500Y11966951I-632373J1049152D01*
G01*
X73880500Y13880500D02*
G75*
G03*
X72580500Y12580498I0J-1300000D01*
G01*
X77402392Y10069500D02*
G75*
G03*
X78176732Y10284822I-2J1500008D01*
G01*
X78176732Y13665178D02*
G75*
G03*
X77402392Y13880500I-774342J-1284686D01*
G01*
X79819500Y11983049D02*
G75*
G03*
X79226877Y13032203I-1225000J0D01*
G01*
D14*
%TO.C,D24*%
X77800000Y-75100000D02*
X77800000Y-73250000D01*
X79000000Y-73250000D02*
X77800000Y-73250000D01*
X79000000Y-75100000D02*
X79000000Y-73250000D01*
D11*
%TO.C,J4*%
X112875000Y-43250000D02*
X112875000Y-45050000D01*
X114675000Y-45250000D02*
X112875000Y-45250000D01*
X114675000Y-49150000D02*
X114675000Y-47350000D01*
X112875000Y-45250000D02*
X112875000Y-47050000D01*
X114675000Y-45050000D02*
X114675000Y-43250000D01*
X112875000Y-47350000D02*
X112875000Y-49150000D01*
X112875000Y-47050000D02*
X114675000Y-47050000D01*
X112875000Y-45050000D02*
X114675000Y-45050000D01*
X114675000Y-47350000D02*
X112875000Y-47350000D01*
X112875000Y-49150000D02*
X114675000Y-49150000D01*
X114675000Y-47050000D02*
X114675000Y-45250000D01*
X114675000Y-43250000D02*
X112875000Y-43250000D01*
D14*
%TO.C,D1*%
X120510000Y-17590000D02*
X116625000Y-17590000D01*
X116625000Y-19860000D02*
X120510000Y-19860000D01*
X120510000Y-19860000D02*
X120510000Y-17590000D01*
%TD*%
M02*
