M48
; DRILL file {KiCad (6.0.4)} date Sun Jul 10 04:39:54 2022
; FORMAT={-:-/ absolute / inch / decimal}
; #@! TF.CreationDate,2022-07-10T04:39:54-07:00
; #@! TF.GenerationSoftware,Kicad,Pcbnew,(6.0.4)
; #@! TF.FileFunction,MixedPlating,1,4
FMAT,2
INCH
; #@! TA.AperFunction,Plated,PTH,ViaDrill
T1C0.0118
; #@! TA.AperFunction,Plated,PTH,ComponentDrill
T2C0.0157
; #@! TA.AperFunction,Plated,PTH,ComponentDrill
T3C0.0236
; #@! TA.AperFunction,Plated,PTH,ComponentDrill
T4C0.0315
; #@! TA.AperFunction,Plated,PTH,ComponentDrill
T5C0.0394
; #@! TA.AperFunction,Plated,PTH,ComponentDrill
T6C0.1181
; #@! TA.AperFunction,NonPlated,NPTH,ComponentDrill
T7C0.0256
; #@! TA.AperFunction,NonPlated,NPTH,ComponentDrill
T8C0.0295
; #@! TA.AperFunction,NonPlated,NPTH,ComponentDrill
T9C0.0335
; #@! TA.AperFunction,NonPlated,NPTH,ComponentDrill
T10C0.0390
; #@! TA.AperFunction,NonPlated,NPTH,ComponentDrill
T11C0.0689
; #@! TA.AperFunction,NonPlated,NPTH,ComponentDrill
T12C0.1570
; #@! TA.AperFunction,NonPlated,NPTH,ComponentDrill
T13C0.1693
%
G90
G05
T1
X3.9527Y0.2697
X3.9823Y0.2815
X4.0298Y0.1946
X4.061Y0.1909
X4.0866Y0.1654
X4.1089Y0.1431
X4.1466Y0.3209
X4.1468Y0.3684
X4.1703Y0.3474
X4.1703Y0.3002
X4.2333Y-0.1407
X4.2352Y-0.2234
X4.2392Y-1.0327
X4.2606Y-0.021
X4.2638Y-0.9547
X4.2655Y-0.2148
X4.266Y-0.7722
X4.2717Y0.128
X4.2756Y0.2028
X4.2756Y0.1713
X4.2766Y-1.1837
X4.286Y-0.9311
X4.2864Y-0.7482
X4.2884Y-1.9006
X4.2913Y-0.0276
X4.3049Y0.1912
X4.3287Y-0.8504
X4.3307Y0.2092
X4.3307Y0.1777
X4.3317Y0.2746
X4.3327Y-0.2264
X4.3459Y0.2465
X4.3494Y-0.4274
X4.3514Y-0.7028
X4.3596Y0.2216
X4.3602Y-0.8504
X4.3617Y0.3037
X4.3631Y0.2723
X4.3681Y-0.3681
X4.3701Y-0.6181
X4.3802Y-0.1723
X4.3819Y-0.9114
X4.3858Y0.1565
X4.3878Y-0.1417
X4.3885Y0.2872
X4.3957Y-0.0551
X4.4124Y-0.4085
X4.4154Y0.1565
X4.4272Y-0.0551
X4.4311Y0.1831
X4.4311Y0.1299
X4.4325Y-0.4965
X4.4325Y-0.5251
X4.4423Y0.2592
X4.4459Y0.1565
X4.4478Y-0.3632
X4.4606Y0.1831
X4.4606Y0.1299
X4.4646Y0.2815
X4.4695Y-0.6447
X4.4764Y0.1565
X4.4783Y-0.9862
X4.4833Y-1.1309
X4.5059Y-0.0551
X4.5325Y-1.0817
X4.5374Y-0.0551
X4.5512Y0.0512
X4.5601Y-1.1703
X4.5712Y0.3279
X4.5722Y-1.2014
X4.5746Y-0.4903
X4.5829Y-0.5349
X4.5886Y-0.9528
X4.5984Y-0.7795
X4.5993Y-0.2425
X4.6063Y-1.5787
X4.6132Y-0.5435
X4.6258Y-0.7951
X4.6339Y-0.1772
X4.6367Y-0.5644
X4.6447Y-0.1407
X4.6486Y-0.9931
X4.6604Y-1.0817
X4.6668Y-1.1875
X4.6811Y-0.2421
X4.688Y-0.8514
X4.6919Y-1.0817
X4.7057Y-1.3278
X4.7057Y-1.623
X4.7096Y0.3514
T2
X-0.065Y0.0787
X-0.065Y-0.6713
X-0.065Y-2.1713
X-0.065Y-1.4213
X0.065Y0.0787
X0.065Y-0.6713
X0.065Y-2.1713
X0.065Y-1.4213
X0.685Y0.0787
X0.685Y-0.6713
X0.685Y-1.4213
X0.685Y-2.1713
X0.815Y0.0787
X0.815Y-0.6713
X0.815Y-1.4213
X0.815Y-2.1713
X1.435Y-0.4744
X1.435Y0.2756
X1.435Y-1.2244
X1.435Y-1.9744
X1.565Y-0.4744
X1.565Y0.2756
X1.565Y-1.2244
X1.565Y-1.9744
X2.185Y0.3543
X2.185Y-0.3957
X2.185Y-1.1457
X2.185Y-1.8957
X2.315Y0.3543
X2.315Y-0.3957
X2.315Y-1.1457
X2.315Y-1.8957
X2.56Y-2.7244
X2.69Y-2.7244
X2.935Y0.2756
X2.935Y-0.4744
X2.935Y-1.2244
X2.935Y-1.9744
X3.065Y0.2756
X3.065Y-0.4744
X3.065Y-1.2244
X3.065Y-1.9744
X3.31Y-2.8031
X3.44Y-2.8031
X3.685Y0.1969
X3.685Y-0.5531
X3.685Y-1.3031
X3.685Y-2.0531
X3.815Y0.1969
X3.815Y-0.5531
X3.815Y-1.3031
X3.815Y-2.0531
X3.8549Y-3.0414
X3.8886Y-2.9158
T4
X4.4006Y-1.3622
X4.4793Y-1.3622
T5
X4.44Y-1.7776
X4.44Y-1.8563
X4.44Y-1.939
T6
X-0.15Y-0.1787
X-0.15Y-0.9287
X-0.15Y-1.6787
X-0.15Y-2.4287
X-0.1Y-0.2787
X-0.1Y-1.0287
X-0.1Y-1.7787
X-0.1Y-2.5287
X0.1Y-0.2787
X0.1Y-1.0287
X0.1Y-1.7787
X0.1Y-2.5287
X0.15Y-0.1787
X0.15Y-0.9287
X0.15Y-1.6787
X0.15Y-2.4287
X0.6Y-0.1787
X0.6Y-0.9287
X0.6Y-1.6787
X0.6Y-2.4287
X0.65Y-0.2787
X0.65Y-1.0287
X0.65Y-1.7787
X0.65Y-2.5287
X0.85Y-0.2787
X0.85Y-1.0287
X0.85Y-1.7787
X0.85Y-2.5287
X0.9Y-0.1787
X0.9Y-0.9287
X0.9Y-1.6787
X0.9Y-2.4287
X1.35Y0.0181
X1.35Y-0.7319
X1.35Y-1.4819
X1.35Y-2.2319
X1.4Y-0.0819
X1.4Y-0.8319
X1.4Y-1.5819
X1.4Y-2.3319
X1.6Y-0.0819
X1.6Y-0.8319
X1.6Y-1.5819
X1.6Y-2.3319
X1.65Y0.0181
X1.65Y-0.7319
X1.65Y-1.4819
X1.65Y-2.2319
X2.1Y0.0969
X2.1Y-1.4031
X2.1Y-2.1531
X2.1Y-0.6531
X2.15Y-0.0031
X2.15Y-1.5031
X2.15Y-2.2531
X2.15Y-0.7531
X2.35Y-0.0031
X2.35Y-1.5031
X2.35Y-2.2531
X2.35Y-0.7531
X2.4Y0.0969
X2.4Y-1.4031
X2.4Y-2.1531
X2.4Y-0.6531
X2.475Y-2.9819
X2.525Y-3.0819
X2.725Y-3.0819
X2.775Y-2.9819
X2.85Y0.0181
X2.85Y-0.7319
X2.85Y-1.4819
X2.85Y-2.2319
X2.9Y-0.0819
X2.9Y-0.8319
X2.9Y-1.5819
X2.9Y-2.3319
X3.1Y-0.0819
X3.1Y-0.8319
X3.1Y-1.5819
X3.1Y-2.3319
X3.15Y0.0181
X3.15Y-0.7319
X3.15Y-1.4819
X3.15Y-2.2319
X3.225Y-3.0606
X3.275Y-3.1606
X3.475Y-3.1606
X3.525Y-3.0606
X3.6Y-0.0606
X3.6Y-0.8106
X3.6Y-1.5606
X3.6Y-2.3106
X3.65Y-0.1606
X3.65Y-0.9106
X3.65Y-1.6606
X3.65Y-2.4106
X3.85Y-0.1606
X3.85Y-0.9106
X3.85Y-1.6606
X3.85Y-2.4106
X3.9Y-0.0606
X3.9Y-0.8106
X3.9Y-1.5606
X3.9Y-2.3106
X3.9542Y-3.2702
X4.0059Y-3.077
X4.0378Y-3.3444
X4.1155Y-3.0546
T7
X4.5522Y-0.3774
X4.5522Y-0.6049
T8
X4.6181Y-1.4754
X4.7264Y-1.4754
T9
X4.6831Y-1.0226
X4.6831Y-1.1407
T10
X4.401Y0.3317
X4.601Y0.3717
X4.601Y0.2917
T11
X-0.2Y-0.0787
X-0.2Y-0.8287
X-0.2Y-1.5787
X-0.2Y-2.3287
X0.2Y-0.0787
X0.2Y-0.8287
X0.2Y-1.5787
X0.2Y-2.3287
X0.55Y-0.0787
X0.55Y-0.8287
X0.55Y-1.5787
X0.55Y-2.3287
X0.95Y-0.0787
X0.95Y-0.8287
X0.95Y-1.5787
X0.95Y-2.3287
X1.3Y0.1181
X1.3Y-0.6319
X1.3Y-1.3819
X1.3Y-2.1319
X1.7Y0.1181
X1.7Y-0.6319
X1.7Y-1.3819
X1.7Y-2.1319
X2.05Y0.1969
X2.05Y-1.3031
X2.05Y-2.0531
X2.05Y-0.5531
X2.425Y-2.8819
X2.45Y0.1969
X2.45Y-1.3031
X2.45Y-2.0531
X2.45Y-0.5531
X2.8Y0.1181
X2.8Y-0.6319
X2.8Y-1.3819
X2.8Y-2.1319
X2.825Y-2.8819
X3.175Y-2.9606
X3.2Y0.1181
X3.2Y-0.6319
X3.2Y-1.3819
X3.2Y-2.1319
X3.55Y0.0394
X3.55Y-0.7106
X3.55Y-1.4606
X3.55Y-2.2106
X3.575Y-2.9606
X3.95Y0.0394
X3.95Y-0.7106
X3.95Y-1.4606
X3.95Y-2.2106
X4.1215Y-3.4186
X4.225Y-3.0322
T12
X0.0Y-0.0787
X0.0Y-0.8287
X0.0Y-1.5787
X0.0Y-2.3287
X0.75Y-0.0787
X0.75Y-0.8287
X0.75Y-1.5787
X0.75Y-2.3287
X1.5Y0.1181
X1.5Y-0.6319
X1.5Y-1.3819
X1.5Y-2.1319
X2.25Y0.1969
X2.25Y-1.3031
X2.25Y-2.0531
X2.25Y-0.5531
X2.625Y-2.8819
X3.0Y0.1181
X3.0Y-0.6319
X3.0Y-1.3819
X3.0Y-2.1319
X3.375Y-2.9606
X3.75Y0.0394
X3.75Y-0.7106
X3.75Y-1.4606
X3.75Y-2.2106
X4.1732Y-3.2254
T13
X0.375Y-0.4537
X0.375Y-1.9537
X3.375Y-0.3356
X3.375Y-1.8356
X3.9557Y-2.6998
T3
G00X4.5096Y-0.3211
M15
G01X4.553Y-0.3211
M16
G05
G00X4.5096Y-0.6612
M15
G01X4.553Y-0.6612
M16
G05
G00X4.6841Y-0.3211
M15
G01X4.7077Y-0.3211
M16
G05
G00X4.6841Y-0.6612
M15
G01X4.7077Y-0.6612
M16
G05
T0
M30
