%TF.GenerationSoftware,KiCad,Pcbnew,(6.0.5)*%
%TF.CreationDate,2022-07-10T04:18:25-07:00*%
%TF.ProjectId,Conejo,436f6e65-6a6f-42e6-9b69-6361645f7063,v1.0.0*%
%TF.SameCoordinates,Original*%
%TF.FileFunction,Paste,Bot*%
%TF.FilePolarity,Positive*%
%FSLAX46Y46*%
G04 Gerber Fmt 4.6, Leading zero omitted, Abs format (unit mm)*
G04 Created by KiCad (PCBNEW (6.0.5)) date 2022-07-10 04:18:25*
%MOMM*%
%LPD*%
G01*
G04 APERTURE LIST*
G04 Aperture macros list*
%AMRoundRect*
0 Rectangle with rounded corners*
0 $1 Rounding radius*
0 $2 $3 $4 $5 $6 $7 $8 $9 X,Y pos of 4 corners*
0 Add a 4 corners polygon primitive as box body*
4,1,4,$2,$3,$4,$5,$6,$7,$8,$9,$2,$3,0*
0 Add four circle primitives for the rounded corners*
1,1,$1+$1,$2,$3*
1,1,$1+$1,$4,$5*
1,1,$1+$1,$6,$7*
1,1,$1+$1,$8,$9*
0 Add four rect primitives between the rounded corners*
20,1,$1+$1,$2,$3,$4,$5,0*
20,1,$1+$1,$4,$5,$6,$7,0*
20,1,$1+$1,$6,$7,$8,$9,0*
20,1,$1+$1,$8,$9,$2,$3,0*%
%AMRotRect*
0 Rectangle, with rotation*
0 The origin of the aperture is its center*
0 $1 length*
0 $2 width*
0 $3 Rotation angle, in degrees counterclockwise*
0 Add horizontal line*
21,1,$1,$2,0,0,$3*%
G04 Aperture macros list end*
%ADD10R,1.100000X0.350000*%
%ADD11R,0.350000X1.100000*%
%ADD12R,1.300000X1.800000*%
%ADD13R,1.000000X1.550000*%
%ADD14RotRect,2.550000X2.500000X255.000000*%
%ADD15RotRect,2.550000X2.500000X75.000000*%
%ADD16R,2.550000X2.500000*%
%ADD17RoundRect,0.090000X0.535000X-0.210000X0.535000X0.210000X-0.535000X0.210000X-0.535000X-0.210000X0*%
%ADD18RoundRect,0.105000X-0.245000X-0.445000X0.245000X-0.445000X0.245000X0.445000X-0.245000X0.445000X0*%
%ADD19R,1.450000X0.600000*%
%ADD20R,1.450000X0.300000*%
%ADD21RotRect,0.600000X0.700000X255.000000*%
%ADD22R,0.600000X0.700000*%
%ADD23RoundRect,0.250000X-0.375000X-0.625000X0.375000X-0.625000X0.375000X0.625000X-0.375000X0.625000X0*%
%ADD24RoundRect,0.147500X-0.147500X-0.172500X0.147500X-0.172500X0.147500X0.172500X-0.147500X0.172500X0*%
%ADD25RoundRect,0.147500X-0.172500X0.147500X-0.172500X-0.147500X0.172500X-0.147500X0.172500X0.147500X0*%
%ADD26RoundRect,0.140000X-0.140000X-0.170000X0.140000X-0.170000X0.140000X0.170000X-0.140000X0.170000X0*%
%ADD27RoundRect,0.135000X-0.185000X0.135000X-0.185000X-0.135000X0.185000X-0.135000X0.185000X0.135000X0*%
%ADD28RoundRect,0.218750X-0.256250X0.218750X-0.256250X-0.218750X0.256250X-0.218750X0.256250X0.218750X0*%
%ADD29RoundRect,0.150000X-0.150000X0.475000X-0.150000X-0.475000X0.150000X-0.475000X0.150000X0.475000X0*%
%ADD30RoundRect,0.135000X0.135000X0.185000X-0.135000X0.185000X-0.135000X-0.185000X0.135000X-0.185000X0*%
%ADD31RoundRect,0.140000X0.140000X0.170000X-0.140000X0.170000X-0.140000X-0.170000X0.140000X-0.170000X0*%
%ADD32RoundRect,0.135000X-0.135000X-0.185000X0.135000X-0.185000X0.135000X0.185000X-0.135000X0.185000X0*%
%ADD33RoundRect,0.135000X0.185000X-0.135000X0.185000X0.135000X-0.185000X0.135000X-0.185000X-0.135000X0*%
%ADD34RoundRect,0.150000X-0.150000X0.587500X-0.150000X-0.587500X0.150000X-0.587500X0.150000X0.587500X0*%
%ADD35RoundRect,0.160000X0.160000X-0.160000X0.160000X0.160000X-0.160000X0.160000X-0.160000X-0.160000X0*%
%ADD36RoundRect,0.062500X0.062500X-0.375000X0.062500X0.375000X-0.062500X0.375000X-0.062500X-0.375000X0*%
%ADD37RoundRect,0.062500X0.375000X-0.062500X0.375000X0.062500X-0.375000X0.062500X-0.375000X-0.062500X0*%
%ADD38RoundRect,0.140000X-0.170000X0.140000X-0.170000X-0.140000X0.170000X-0.140000X0.170000X0.140000X0*%
%ADD39RoundRect,0.150000X-0.587500X-0.150000X0.587500X-0.150000X0.587500X0.150000X-0.587500X0.150000X0*%
%ADD40RoundRect,0.140000X0.170000X-0.140000X0.170000X0.140000X-0.170000X0.140000X-0.170000X-0.140000X0*%
%ADD41RoundRect,0.080000X0.080000X0.160000X-0.080000X0.160000X-0.080000X-0.160000X0.080000X-0.160000X0*%
%ADD42RoundRect,0.062500X0.325000X0.062500X-0.325000X0.062500X-0.325000X-0.062500X0.325000X-0.062500X0*%
G04 APERTURE END LIST*
D10*
%TO.C,U4*%
X118375000Y8925000D03*
X118375000Y8275000D03*
X118375000Y7625000D03*
X118375000Y6975000D03*
X118375000Y6325000D03*
X118375000Y5675000D03*
X118375000Y5025000D03*
X118375000Y4375000D03*
X118375000Y3725000D03*
X118375000Y3075000D03*
X118375000Y2425000D03*
X118375000Y1775000D03*
X118375000Y1125000D03*
X118375000Y475000D03*
X118375000Y-175000D03*
X118375000Y-825000D03*
X118375000Y-1475000D03*
D11*
X117975000Y-2675000D03*
X117325000Y-2675000D03*
X116675000Y-2675000D03*
X116025000Y-2675000D03*
X115375000Y-2675000D03*
X114725000Y-2675000D03*
X114075000Y-2675000D03*
X113425000Y-2675000D03*
X112775000Y-2675000D03*
X112125000Y-2675000D03*
X111475000Y-2675000D03*
X110825000Y-2675000D03*
X110175000Y-2675000D03*
X109525000Y-2675000D03*
X108875000Y-2675000D03*
X108225000Y-2675000D03*
X107575000Y-2675000D03*
D10*
X107175000Y-1475000D03*
X107175000Y-825000D03*
X107175000Y-175000D03*
X107175000Y475000D03*
X107175000Y1125000D03*
X107175000Y1775000D03*
X107175000Y2425000D03*
X107175000Y3075000D03*
X107175000Y3725000D03*
X107175000Y4375000D03*
X107175000Y5025000D03*
X107175000Y5675000D03*
X107175000Y6325000D03*
X107175000Y6975000D03*
X107175000Y7625000D03*
X107175000Y8275000D03*
X107175000Y8925000D03*
D11*
X108275000Y8825000D03*
X108875000Y8825000D03*
X109525000Y8825000D03*
X110175000Y8825000D03*
X110825000Y8825000D03*
D10*
X108875000Y7625000D03*
X108875000Y6975000D03*
X108875000Y6325000D03*
X108875000Y5675000D03*
D12*
X111525000Y5425000D03*
X111525000Y2575000D03*
X114325000Y2575000D03*
X114325000Y5425000D03*
%TD*%
D13*
%TO.C,SW29*%
X119525000Y-34850000D03*
X119525000Y-40100000D03*
X117825000Y-40100000D03*
X117825000Y-34850000D03*
%TD*%
D14*
%TO.C,SW28*%
X102598130Y-74993341D03*
X101712815Y-88111184D03*
D15*
X101712815Y-88111184D03*
%TD*%
D16*
%TO.C,SW27*%
X102335000Y-58690000D03*
X89435000Y-61230000D03*
X89435000Y-61230000D03*
X102335000Y-58690000D03*
%TD*%
%TO.C,SW26*%
X102335000Y-39640000D03*
X89435000Y-42180000D03*
X89435000Y-42180000D03*
X102335000Y-39640000D03*
%TD*%
%TO.C,SW25*%
X102335000Y-20590000D03*
X89435000Y-23130000D03*
X89435000Y-23130000D03*
X102335000Y-20590000D03*
%TD*%
%TO.C,SW24*%
X102335000Y-1540000D03*
X89435000Y-4080000D03*
X89435000Y-4080000D03*
X102335000Y-1540000D03*
%TD*%
%TO.C,SW23*%
X92810000Y-77740000D03*
X79910000Y-80280000D03*
X79910000Y-80280000D03*
X92810000Y-77740000D03*
%TD*%
%TO.C,SW22*%
X83285000Y-56690000D03*
X70385000Y-59230000D03*
X70385000Y-59230000D03*
X83285000Y-56690000D03*
%TD*%
%TO.C,SW21*%
X83285000Y-37640000D03*
X70385000Y-40180000D03*
X70385000Y-40180000D03*
X83285000Y-37640000D03*
%TD*%
%TO.C,SW20*%
X83285000Y-18590000D03*
X70385000Y-21130000D03*
X70385000Y-21130000D03*
X83285000Y-18590000D03*
%TD*%
%TO.C,SW19*%
X83285000Y460000D03*
X70385000Y-2080000D03*
X70385000Y-2080000D03*
X83285000Y460000D03*
%TD*%
%TO.C,SW18*%
X73760000Y-75740000D03*
X60860000Y-78280000D03*
X60860000Y-78280000D03*
X73760000Y-75740000D03*
%TD*%
%TO.C,SW17*%
X64235000Y-54690000D03*
X51335000Y-57230000D03*
X51335000Y-57230000D03*
X64235000Y-54690000D03*
%TD*%
%TO.C,SW16*%
X64235000Y-35639999D03*
X51335000Y-38179999D03*
X51335000Y-38179999D03*
X64235000Y-35639999D03*
%TD*%
%TO.C,SW15*%
X64235002Y-16590000D03*
X51335002Y-19130000D03*
X51335002Y-19130000D03*
X64235002Y-16590000D03*
%TD*%
%TO.C,SW14*%
X64235000Y2460000D03*
X51335000Y-80000D03*
X51335000Y-80000D03*
X64235000Y2460000D03*
%TD*%
%TO.C,SW13*%
X45185000Y-56690000D03*
X32285000Y-59230000D03*
X32285000Y-59230000D03*
X45185000Y-56690000D03*
%TD*%
%TO.C,SW12*%
X45185000Y-37640000D03*
X32285000Y-40180000D03*
X32285000Y-40180000D03*
X45185000Y-37640000D03*
%TD*%
%TO.C,SW11*%
X45185000Y-18590000D03*
X32285000Y-21130000D03*
X32285000Y-21130000D03*
X45185000Y-18590000D03*
%TD*%
%TO.C,SW10*%
X45185000Y460000D03*
X32285000Y-2080000D03*
X32285000Y-2080000D03*
X45185000Y460000D03*
%TD*%
%TO.C,SW9*%
X26135000Y-61690000D03*
X13235000Y-64230000D03*
X13235000Y-64230000D03*
X26135000Y-61690000D03*
%TD*%
%TO.C,SW8*%
X26135000Y-42640000D03*
X13235000Y-45180000D03*
X13235000Y-45180000D03*
X26135000Y-42640000D03*
%TD*%
%TO.C,SW7*%
X26135000Y-23589999D03*
X13235000Y-26129999D03*
X13235000Y-26129999D03*
X26135000Y-23589999D03*
%TD*%
%TO.C,SW6*%
X26135000Y-4540000D03*
X13235000Y-7080000D03*
X13235000Y-7080000D03*
X26135000Y-4540000D03*
%TD*%
%TO.C,SW5*%
X7085000Y-61690000D03*
X-5815000Y-64230000D03*
X-5815000Y-64230000D03*
X7085000Y-61690000D03*
%TD*%
%TO.C,SW4*%
X7085000Y-42640000D03*
X-5815000Y-45180000D03*
X-5815000Y-45180000D03*
X7085000Y-42640000D03*
%TD*%
%TO.C,SW3*%
X7085000Y-23590000D03*
X-5815000Y-26130000D03*
X-5815000Y-26130000D03*
X7085000Y-23590000D03*
%TD*%
%TO.C,SW2*%
X7085000Y-4540000D03*
X-5815000Y-7080000D03*
X-5815000Y-7080000D03*
X7085000Y-4540000D03*
%TD*%
D17*
%TO.C,SW1*%
X116950000Y-25225000D03*
X116950000Y-28225000D03*
X116950000Y-29725000D03*
D18*
X120100000Y-31175000D03*
X117800000Y-23775000D03*
X120100000Y-23775000D03*
X117800000Y-31175000D03*
%TD*%
D19*
%TO.C,J2*%
X114180000Y-9225000D03*
X114180000Y-10025000D03*
D20*
X114180000Y-14225000D03*
X114180000Y-12225000D03*
X114180000Y-12725000D03*
X114180000Y-13725000D03*
D19*
X114180000Y-14925000D03*
X114180000Y-15725000D03*
X114180000Y-15725000D03*
X114180000Y-14925000D03*
D20*
X114180000Y-11225000D03*
X114180000Y-13225000D03*
X114180000Y-11725000D03*
X114180000Y-10725000D03*
D19*
X114180000Y-10025000D03*
X114180000Y-9225000D03*
%TD*%
D21*
%TO.C,D29*%
X98523117Y-74980777D03*
X98160771Y-76333073D03*
%TD*%
D22*
%TO.C,D28*%
X95950000Y-52150000D03*
X94550000Y-52150000D03*
%TD*%
%TO.C,D27*%
X95950000Y-33100000D03*
X94550000Y-33100000D03*
%TD*%
%TO.C,D26*%
X95950000Y-14050000D03*
X94550000Y-14050000D03*
%TD*%
%TO.C,D25*%
X95950000Y5000000D03*
X94550000Y5000000D03*
%TD*%
%TO.C,D24*%
X86425000Y-71200000D03*
X85025000Y-71200000D03*
%TD*%
%TO.C,D23*%
X76900000Y-50150000D03*
X75500000Y-50150000D03*
%TD*%
%TO.C,D22*%
X76900000Y-31100000D03*
X75500000Y-31100000D03*
%TD*%
%TO.C,D21*%
X76900000Y-12050000D03*
X75500000Y-12050000D03*
%TD*%
%TO.C,D20*%
X76900000Y7000000D03*
X75500000Y7000000D03*
%TD*%
%TO.C,D19*%
X67375000Y-69200000D03*
X65975000Y-69200000D03*
%TD*%
%TO.C,D18*%
X57850000Y-48150000D03*
X56450000Y-48150000D03*
%TD*%
%TO.C,D17*%
X57850000Y-29100000D03*
X56450000Y-29100000D03*
%TD*%
%TO.C,D16*%
X57850000Y-10050000D03*
X56450000Y-10050000D03*
%TD*%
%TO.C,D15*%
X57850000Y9000000D03*
X56450000Y9000000D03*
%TD*%
%TO.C,D14*%
X38800000Y-50150000D03*
X37400000Y-50150000D03*
%TD*%
%TO.C,D13*%
X38800000Y-31100000D03*
X37400000Y-31100000D03*
%TD*%
%TO.C,D12*%
X38799999Y-12050000D03*
X37399999Y-12050000D03*
%TD*%
%TO.C,D11*%
X38800000Y7000000D03*
X37400000Y7000000D03*
%TD*%
%TO.C,D10*%
X19750000Y-55150000D03*
X18350000Y-55150000D03*
%TD*%
%TO.C,D9*%
X19750000Y-36100001D03*
X18350000Y-36100001D03*
%TD*%
%TO.C,D8*%
X19750000Y-17050001D03*
X18350000Y-17050001D03*
%TD*%
%TO.C,D7*%
X19750000Y2000000D03*
X18350000Y2000000D03*
%TD*%
%TO.C,D6*%
X700000Y-55150000D03*
X-700000Y-55150000D03*
%TD*%
%TO.C,D5*%
X700001Y-36100000D03*
X-699999Y-36100000D03*
%TD*%
%TO.C,D4*%
X700000Y-17050000D03*
X-700000Y-17050000D03*
%TD*%
%TO.C,D3*%
X700000Y2000000D03*
X-700000Y2000000D03*
%TD*%
D23*
%TO.C,D1*%
X119625000Y-18705000D03*
X116825000Y-18705000D03*
%TD*%
D24*
%TO.C,L1*%
X108390000Y-4050000D03*
X109360000Y-4050000D03*
%TD*%
D25*
%TO.C,FB1*%
X112425000Y-18370000D03*
X112425000Y-19340000D03*
%TD*%
D26*
%TO.C,C4*%
X109970000Y-23650000D03*
X110930000Y-23650000D03*
%TD*%
D27*
%TO.C,R13*%
X107475000Y-47615001D03*
X107475000Y-48635001D03*
%TD*%
D28*
%TO.C,F2*%
X112425000Y-15712500D03*
X112425000Y-17287500D03*
%TD*%
D29*
%TO.C,U3*%
X109525000Y-11800000D03*
X110475000Y-11800000D03*
X111425000Y-11800000D03*
X111425000Y-14150000D03*
X110475000Y-14150000D03*
X109525000Y-14150000D03*
%TD*%
D30*
%TO.C,R6*%
X113485000Y-29225000D03*
X112465000Y-29225000D03*
%TD*%
%TO.C,R3*%
X115335000Y-26725000D03*
X114315000Y-26725000D03*
%TD*%
%TO.C,R5*%
X113485000Y-30525000D03*
X112465000Y-30525000D03*
%TD*%
D31*
%TO.C,C6*%
X109955000Y-30565000D03*
X108995000Y-30565000D03*
%TD*%
D32*
%TO.C,R1*%
X114090000Y-21475001D03*
X115110000Y-21475001D03*
%TD*%
D28*
%TO.C,F1*%
X109950001Y-31712500D03*
X109950001Y-33287500D03*
%TD*%
D26*
%TO.C,C5*%
X109970000Y-22650000D03*
X110930000Y-22650000D03*
%TD*%
D33*
%TO.C,R7*%
X107700000Y-25310000D03*
X107700000Y-24290000D03*
%TD*%
%TO.C,R10*%
X107475000Y-50635000D03*
X107475000Y-49615000D03*
%TD*%
D34*
%TO.C,Q1*%
X114650000Y-22987500D03*
X116550000Y-22987500D03*
X115600000Y-24862500D03*
%TD*%
D30*
%TO.C,R4*%
X113485000Y-28225000D03*
X112465000Y-28225000D03*
%TD*%
D35*
%TO.C,U1*%
X110325000Y-27375000D03*
X110325000Y-26575000D03*
X109525000Y-26575000D03*
X109525000Y-27375000D03*
D36*
X110675000Y-28412500D03*
X110175000Y-28412500D03*
X109675000Y-28412500D03*
X109175000Y-28412500D03*
D37*
X108487500Y-27725000D03*
X108487500Y-27225000D03*
X108487500Y-26725000D03*
X108487500Y-26225000D03*
D36*
X109175000Y-25537500D03*
X109675000Y-25537500D03*
X110175000Y-25537500D03*
X110675000Y-25537500D03*
D37*
X111362500Y-26225000D03*
X111362500Y-26725000D03*
X111362500Y-27225000D03*
X111362500Y-27725000D03*
%TD*%
D31*
%TO.C,C7*%
X109955000Y-29565000D03*
X108995000Y-29565000D03*
%TD*%
D38*
%TO.C,C8*%
X111000000Y-18370000D03*
X111000000Y-19330000D03*
%TD*%
D31*
%TO.C,C2*%
X113480000Y-25600000D03*
X112520000Y-25600000D03*
%TD*%
D39*
%TO.C,Q3*%
X108937500Y-46100000D03*
X108937500Y-44200000D03*
X110812500Y-45150000D03*
%TD*%
D38*
%TO.C,C9*%
X110050000Y-18370000D03*
X110050000Y-19330000D03*
%TD*%
D26*
%TO.C,C1*%
X112520000Y-24550000D03*
X113480000Y-24550000D03*
%TD*%
D27*
%TO.C,R8*%
X111425000Y-9340000D03*
X111425000Y-10360000D03*
%TD*%
D33*
%TO.C,R14*%
X107425000Y-45635000D03*
X107425000Y-44615000D03*
%TD*%
D30*
%TO.C,R2*%
X117110000Y-21474999D03*
X116090000Y-21474999D03*
%TD*%
D38*
%TO.C,C10*%
X109375000Y-4970000D03*
X109375000Y-5930000D03*
%TD*%
D27*
%TO.C,R9*%
X111000000Y-16315000D03*
X111000000Y-17335000D03*
%TD*%
D39*
%TO.C,Q2*%
X108937500Y-49525000D03*
X108937500Y-47625000D03*
X110812500Y-48575000D03*
%TD*%
D40*
%TO.C,C3*%
X117050000Y-5300000D03*
X117050000Y-4340000D03*
%TD*%
D41*
%TO.C,U2*%
X115150000Y-5000000D03*
X114750000Y-5000000D03*
X115150000Y-5600000D03*
X114750000Y-5600000D03*
D42*
X115937500Y-4550000D03*
X115937500Y-5050000D03*
X115937500Y-5550000D03*
X115937500Y-6050000D03*
X113962500Y-6050000D03*
X113962500Y-5550000D03*
X113962500Y-5050000D03*
X113962500Y-4550000D03*
%TD*%
M02*
