M48
; DRILL file {KiCad (6.0.4)} date Sun Aug  7 10:29:30 2022
; FORMAT={-:-/ absolute / inch / decimal}
; #@! TF.CreationDate,2022-08-07T10:29:30-07:00
; #@! TF.GenerationSoftware,Kicad,Pcbnew,(6.0.4)
; #@! TF.FileFunction,NonPlated,1,4,NPTH
FMAT,2
INCH
; #@! TA.AperFunction,NonPlated,NPTH,ComponentDrill
T1C0.0256
; #@! TA.AperFunction,NonPlated,NPTH,ComponentDrill
T2C0.0295
; #@! TA.AperFunction,NonPlated,NPTH,ComponentDrill
T3C0.0335
; #@! TA.AperFunction,NonPlated,NPTH,ComponentDrill
T4C0.0390
; #@! TA.AperFunction,NonPlated,NPTH,ComponentDrill
T5C0.0689
; #@! TA.AperFunction,NonPlated,NPTH,ComponentDrill
T6C0.1570
%
G90
G05
T1
X4.5522Y-0.3774
X4.5522Y-0.6049
T2
X4.6181Y-1.4754
X4.7264Y-1.4754
T3
X4.688Y-1.0226
X4.688Y-1.1407
T4
X2.9Y0.5115
X2.9Y0.4315
X3.1Y0.4715
T5
X-0.2Y-0.0787
X-0.2Y-0.8287
X-0.2Y-1.5787
X-0.2Y-2.3287
X0.2Y-0.0787
X0.2Y-0.8287
X0.2Y-1.5787
X0.2Y-2.3287
X0.55Y-0.0787
X0.55Y-0.8287
X0.55Y-1.5787
X0.55Y-2.3287
X0.95Y-0.0787
X0.95Y-0.8287
X0.95Y-1.5787
X0.95Y-2.3287
X1.3Y0.1181
X1.3Y-0.6319
X1.3Y-1.3819
X1.3Y-2.1319
X1.7Y0.1181
X1.7Y-0.6319
X1.7Y-1.3819
X1.7Y-2.1319
X2.05Y0.1969
X2.05Y-1.3031
X2.05Y-2.0531
X2.05Y-0.5531
X2.425Y-2.8819
X2.45Y0.1969
X2.45Y-1.3031
X2.45Y-2.0531
X2.45Y-0.5531
X2.8Y0.1181
X2.8Y-0.6319
X2.8Y-1.3819
X2.8Y-2.1319
X2.825Y-2.8819
X3.175Y-2.9606
X3.2Y0.1181
X3.2Y-0.6319
X3.2Y-1.3819
X3.2Y-2.1319
X3.55Y0.0394
X3.55Y-0.7106
X3.55Y-1.4606
X3.55Y-2.2106
X3.575Y-2.9606
X3.95Y0.0394
X3.95Y-0.7106
X3.95Y-1.4606
X3.95Y-2.2106
X4.1215Y-3.4186
X4.225Y-3.0322
T6
X0.0Y-0.0787
X0.0Y-0.8287
X0.0Y-1.5787
X0.0Y-2.3287
X0.75Y-0.0787
X0.75Y-0.8287
X0.75Y-1.5787
X0.75Y-2.3287
X1.5Y0.1181
X1.5Y-0.6319
X1.5Y-1.3819
X1.5Y-2.1319
X2.25Y0.1969
X2.25Y-1.3031
X2.25Y-2.0531
X2.25Y-0.5531
X2.625Y-2.8819
X3.0Y0.1181
X3.0Y-0.6319
X3.0Y-1.3819
X3.0Y-2.1319
X3.375Y-2.9606
X3.75Y0.0394
X3.75Y-0.7106
X3.75Y-1.4606
X3.75Y-2.2106
X4.1732Y-3.2254
T0
M30
