%TF.GenerationSoftware,KiCad,Pcbnew,(6.0.5)*%
%TF.CreationDate,2022-07-10T04:18:25-07:00*%
%TF.ProjectId,Conejo,436f6e65-6a6f-42e6-9b69-6361645f7063,v1.0.0*%
%TF.SameCoordinates,Original*%
%TF.FileFunction,Profile,NP*%
%FSLAX46Y46*%
G04 Gerber Fmt 4.6, Leading zero omitted, Abs format (unit mm)*
G04 Created by KiCad (PCBNEW (6.0.5)) date 2022-07-10 04:18:25*
%MOMM*%
%LPD*%
G01*
G04 APERTURE LIST*
%TA.AperFunction,Profile*%
%ADD10C,0.150000*%
%TD*%
G04 APERTURE END LIST*
D10*
X93101679Y-93260414D02*
X76199999Y-84725000D01*
X57150000Y-69675000D02*
G75*
G03*
X56150001Y-68675000I-1000000J0D01*
G01*
X67675000Y12525000D02*
X84725000Y12525000D01*
X56150001Y-68675000D02*
X-8525000Y-68674999D01*
X27567894Y7525000D02*
X-8525000Y7525000D01*
X66675000Y13525000D02*
G75*
G03*
X65675000Y14525000I-1000000J0D01*
G01*
X85725000Y11525000D02*
G75*
G03*
X86725000Y10525000I1000000J0D01*
G01*
X57150000Y-81725000D02*
G75*
G03*
X58150000Y-82725000I1000000J0D01*
G01*
X29575000Y12525000D02*
G75*
G03*
X28575000Y11525000I0J-1000000D01*
G01*
X-9525000Y-67675000D02*
X-9525000Y6525000D01*
X46625000Y12525000D02*
X29575000Y12525000D01*
X48625000Y14525000D02*
G75*
G03*
X47625000Y13525000I0J-1000000D01*
G01*
X-9525000Y-67675000D02*
G75*
G03*
X-8525000Y-68674999I1000001J2D01*
G01*
X27567894Y7525007D02*
G75*
G03*
X28567893Y8525000I6J999993D01*
G01*
X120775000Y9525000D02*
G75*
G03*
X119775000Y10525000I-1000000J0D01*
G01*
X57150000Y-81725000D02*
X57150001Y-69675000D01*
X93101679Y-93260414D02*
X110536640Y-97932098D01*
X46625000Y12525000D02*
G75*
G03*
X47625000Y13525000I0J1000000D01*
G01*
X86725000Y10525000D02*
X119775000Y10525000D01*
X110536648Y-97932067D02*
G75*
G03*
X111761384Y-97224991I258852J965867D01*
G01*
X65675000Y14525000D02*
X48625000Y14525000D01*
X28575000Y11525000D02*
X28567893Y8525000D01*
X76199999Y-84725000D02*
X58150000Y-82725000D01*
X85725000Y11525000D02*
G75*
G03*
X84725000Y12525000I-1000000J0D01*
G01*
X120775000Y9525000D02*
X120775000Y-63575000D01*
X66675000Y13525000D02*
G75*
G03*
X67675000Y12525000I1000000J0D01*
G01*
X120775000Y-63575000D02*
X111761384Y-97224991D01*
X-8525000Y7525000D02*
G75*
G03*
X-9525000Y6525000I-1J-999999D01*
G01*
M02*
