M48
; DRILL file {KiCad (6.0.4)} date Thu Jul 21 18:18:29 2022
; FORMAT={-:-/ absolute / inch / decimal}
; #@! TF.CreationDate,2022-07-21T18:18:29-07:00
; #@! TF.GenerationSoftware,Kicad,Pcbnew,(6.0.4)
; #@! TF.FileFunction,Plated,1,4,PTH
FMAT,2
INCH
; #@! TA.AperFunction,Plated,PTH,ViaDrill
T1C0.0118
; #@! TA.AperFunction,Plated,PTH,ViaDrill
T2C0.0130
; #@! TA.AperFunction,Plated,PTH,ComponentDrill
T3C0.0157
; #@! TA.AperFunction,Plated,PTH,ComponentDrill
T4C0.0197
; #@! TA.AperFunction,Plated,PTH,ComponentDrill
T5C0.0236
; #@! TA.AperFunction,Plated,PTH,ComponentDrill
T6C0.0315
; #@! TA.AperFunction,Plated,PTH,ComponentDrill
T7C0.0394
; #@! TA.AperFunction,Plated,PTH,ComponentDrill
T8C0.1181
%
G90
G05
T1
X2.2999Y0.3356
X3.7498Y0.2323
X4.3008Y-0.1663
T2
X-0.339Y0.0063
X-0.339Y-1.4937
X-0.3386Y-0.7435
X-0.338Y-0.0977
X-0.3375Y-0.845
X-0.3368Y-1.5963
X-0.3368Y-2.3463
X-0.3363Y-2.2475
X-0.332Y0.0393
X-0.332Y-1.4567
X-0.33Y-0.7087
X-0.3258Y-2.2043
X-0.283Y0.0385
X-0.283Y-0.7107
X-0.283Y-1.4615
X-0.282Y-2.2097
X-0.279Y-0.0977
X-0.2789Y-0.8455
X-0.278Y-1.5987
X-0.278Y-2.3477
X-0.2772Y-2.253
X-0.2772Y-0.003
X-0.2772Y-1.503
X-0.277Y-0.753
X0.4307Y-0.753
X0.4307Y-2.253
X0.4307Y-0.003
X0.4307Y-1.503
X0.432Y-1.5957
X0.4327Y-0.8459
X0.433Y-0.0977
X0.433Y-2.3477
X0.434Y0.0385
X0.434Y-1.4615
X0.434Y-2.2115
X0.435Y-0.7115
X0.4669Y-0.6976
X0.4674Y0.0529
X0.4674Y-2.1971
X0.4696Y-1.4416
X0.4902Y-1.5965
X0.4905Y-0.846
X0.4905Y-2.346
X0.491Y-0.0957
X0.491Y-0.7477
X0.491Y-2.2477
X0.492Y-1.4977
X0.494Y0.0113
X1.174Y0.1938
X1.179Y-1.3062
X1.18Y-2.1547
X1.1807Y-0.5562
X1.1807Y-2.0562
X1.181Y-0.6517
X1.183Y0.1003
X1.183Y-0.5117
X1.183Y-1.4007
X1.185Y-1.2646
X1.185Y-2.0146
X1.187Y0.2373
X1.2151Y-1.2522
X1.2151Y-2.0022
X1.2169Y-0.5007
X1.2179Y0.2503
X1.2402Y0.1004
X1.241Y-0.5517
X1.241Y-1.3987
X1.241Y-2.0507
X1.242Y-0.6537
X1.242Y-1.2997
X1.243Y-2.1567
X1.2432Y0.1748
X1.928Y-1.9774
X1.929Y-0.4774
X1.9307Y0.2726
X1.9307Y-1.2274
X1.931Y-1.3207
X1.932Y0.3141
X1.932Y-0.5707
X1.932Y-2.0717
X1.933Y0.1792
X1.933Y-1.1859
X1.933Y-1.9359
X1.934Y-0.4359
X1.986Y-0.4357
X1.988Y0.3141
X1.989Y-1.9359
X1.99Y-1.1859
X1.9902Y0.1791
X1.991Y-0.5707
X1.991Y-2.0717
X1.9911Y-1.3195
X1.9925Y0.2726
X1.9925Y-1.2274
X1.9925Y-1.9774
X1.994Y-0.4774
X2.279Y0.3141
X2.2791Y0.3567
X2.306Y-2.8997
X2.307Y-2.7997
X2.311Y-2.7647
X2.32Y0.3573
X2.3218Y0.3148
X2.365Y-2.7646
X2.3651Y-2.8998
X2.3675Y-2.8062
X2.679Y-1.2837
X2.68Y-0.6517
X2.6807Y0.1938
X2.681Y-1.3997
X2.681Y-2.0477
X2.682Y0.2354
X2.682Y0.0983
X2.682Y-0.5487
X2.682Y-2.1497
X2.7069Y-0.5013
X2.712Y-1.2519
X2.712Y-2.0019
X2.7359Y-1.2641
X2.737Y-2.0146
X2.74Y-0.5146
X2.7401Y-0.6498
X2.7406Y0.1009
X2.7407Y-1.3988
X2.741Y0.2354
X2.742Y-2.1507
X2.7425Y0.1938
X2.7425Y-0.5562
X2.7425Y-1.3062
X2.743Y-2.0562
X2.9498Y0.5226
X3.05Y-2.8657
X3.056Y-2.9797
X3.0824Y-2.8306
X3.115Y-2.9787
X3.116Y-2.8433
X3.118Y-2.8849
X3.167Y0.5232
X3.167Y0.4773
X3.1857Y0.5002
X3.2055Y0.5232
X3.2057Y0.4776
X3.427Y0.1133
X3.428Y-1.3687
X3.4284Y-2.1103
X3.4294Y-0.6157
X3.431Y-2.2317
X3.4327Y-1.4779
X3.433Y0.0213
X3.4333Y-0.7288
X3.4387Y0.159
X3.461Y-2.0806
X3.4612Y-0.5806
X3.462Y-1.3297
X3.487Y0.1573
X3.4904Y-0.7287
X3.491Y0.0203
X3.491Y-1.4797
X3.4923Y-2.2242
X3.4925Y0.1151
X3.4942Y-2.1109
X3.4944Y-1.3647
X3.497Y-0.6171
X3.5817Y0.2093
X3.582Y0.1674
X3.6027Y0.1885
X3.624Y0.2095
X3.624Y0.1679
X3.7289Y0.2533
X3.731Y0.2095
X3.769Y0.2095
X3.7709Y0.2531
X3.828Y-3.0237
X3.855Y-2.9117
X3.887Y-3.0347
X3.8888Y-2.8828
X3.921Y-2.9137
X4.0066Y0.1198
X4.0257Y0.1509
X4.036Y0.1232
X4.0444Y0.3621
X4.0522Y0.0974
X4.0675Y0.1256
X4.074Y0.3621
X4.0833Y0.1006
X4.0987Y0.0754
X4.1034Y0.3625
X4.1137Y0.1001
X4.1283Y0.0744
X4.1324Y0.045
X4.133Y0.3625
X4.1332Y0.3328
X4.1585Y0.0659
X4.1626Y0.3625
X4.207Y-0.7237
X4.2073Y-0.3571
X4.2073Y-0.3957
X4.2073Y-0.6857
X4.2272Y-1.1866
X4.2294Y-0.1801
X4.23Y-0.3767
X4.23Y-0.7047
X4.2416Y-1.2116
X4.2528Y-0.725
X4.2528Y-0.3572
X4.2528Y-0.3964
X4.2528Y-0.6847
X4.2544Y-0.9906
X4.2546Y-0.9556
X4.2557Y-1.0988
X4.2569Y-1.1841
X4.26Y-0.0018
X4.2603Y0.0405
X4.2683Y-1.1567
X4.2693Y-1.0737
X4.2694Y0.1523
X4.2695Y0.1984
X4.2701Y-1.124
X4.2709Y-1.2119
X4.2785Y-0.9734
X4.281Y0.0193
X4.2853Y-1.0986
X4.288Y0.1753
X4.2884Y-1.8612
X4.3014Y-1.0738
X4.302Y-0.1959
X4.3023Y-0.9914
X4.3024Y-1.1229
X4.3024Y-0.0012
X4.3031Y0.0409
X4.3041Y-0.9585
X4.3054Y0.1513
X4.3067Y0.1984
X4.308Y-0.3157
X4.3081Y-1.2234
X4.3104Y-0.6757
X4.3215Y-0.417
X4.3258Y-0.6496
X4.332Y-0.7457
X4.3337Y-1.0089
X4.3337Y-1.3415
X4.3347Y0.2853
X4.3394Y0.3139
X4.34Y-0.6757
X4.3416Y-0.3671
X4.3449Y-0.3967
X4.3455Y-0.4281
X4.3518Y-0.7029
X4.3593Y-1.0089
X4.3593Y-1.1742
X4.3593Y-1.3415
X4.363Y-0.0302
X4.3632Y0.2963
X4.3635Y-0.0718
X4.3671Y-0.3759
X4.3671Y-0.4174
X4.3696Y-0.6757
X4.374Y0.2658
X4.384Y0.3188
X4.3848Y-1.0089
X4.3848Y-1.3415
X4.389Y-0.0217
X4.389Y-0.0567
X4.3921Y0.2901
X4.4159Y-0.0302
X4.416Y-0.0718
X4.4186Y-0.4845
X4.4294Y-0.4585
X4.4301Y-0.5425
X4.438Y-1.0522
X4.4478Y-0.3632
X4.4481Y-0.4815
X4.4636Y-1.0522
X4.4695Y-0.6447
X4.4892Y-1.0522
X4.5226Y-1.1637
X4.523Y-1.3147
X4.5246Y-1.2234
X4.5246Y-1.251
X4.5246Y-1.2785
X4.5325Y-0.758
X4.5344Y-0.7164
X4.5419Y-0.4993
X4.5487Y-0.531
X4.5564Y-0.7663
X4.5564Y-0.7081
X4.5566Y-0.4622
X4.56Y-1.5817
X4.56Y-1.625
X4.562Y-0.7372
X4.5679Y-0.4852
X4.5679Y-0.5502
X4.5684Y-0.5128
X4.5812Y-1.6034
X4.5876Y-0.5305
X4.5915Y-0.9183
X4.5981Y-0.5614
X4.6013Y-1.5817
X4.6014Y-0.5935
X4.6014Y-1.625
X4.6289Y-0.5719
X4.6426Y-1.0816
X4.6516Y-0.9931
X4.6516Y-1.1703
X4.664Y-0.1053
X4.6722Y-1.0817
X4.68Y-0.7851
X4.6841Y-0.1525
X4.6841Y-0.1821
X4.6841Y-0.2117
X4.686Y-0.8848
X4.686Y-0.9163
X4.688Y0.3513
X4.6887Y-0.8133
X4.6932Y-1.0608
X4.6941Y-1.1016
X4.7057Y-1.3278
X4.7057Y-1.623
X4.7083Y-0.1651
X4.709Y-0.198
X4.7096Y-0.7923
X4.7306Y-0.8133
T3
X-0.3081Y0.0178
X-0.3081Y-0.1122
X-0.3081Y-0.7322
X-0.3081Y-0.8622
X-0.3081Y-1.4822
X-0.3081Y-1.6122
X-0.3081Y-2.2322
X-0.3081Y-2.3622
X0.4616Y0.0178
X0.4616Y-0.1122
X0.4616Y-0.7322
X0.4616Y-0.8622
X0.4616Y-1.4822
X0.4616Y-1.6122
X0.4616Y-2.2322
X0.4616Y-2.3622
X1.2116Y0.2146
X1.2116Y0.0846
X1.2116Y-0.5354
X1.2116Y-0.6654
X1.2116Y-1.2854
X1.2116Y-1.4154
X1.2116Y-2.0354
X1.2116Y-2.1654
X1.9616Y0.2933
X1.9616Y0.1633
X1.9616Y-0.4567
X1.9616Y-0.5867
X1.9616Y-1.2067
X1.9616Y-1.3367
X1.9616Y-1.9567
X1.9616Y-2.0867
X2.3366Y-2.7854
X2.3366Y-2.9154
X2.7116Y0.2146
X2.7116Y0.0846
X2.7116Y-0.5354
X2.7116Y-0.6654
X2.7116Y-1.2854
X2.7116Y-1.4154
X2.7116Y-2.0354
X2.7116Y-2.1654
X3.0866Y-2.8641
X3.0866Y-2.9941
X3.4616Y0.1359
X3.4616Y0.0059
X3.4616Y-0.6141
X3.4616Y-0.7441
X3.4616Y-1.3641
X3.4616Y-1.4941
X3.4616Y-2.1141
X3.4616Y-2.2441
X3.8549Y-3.0414
X3.8886Y-2.9158
T4
X-0.001Y-0.3947
X0.751Y-0.3947
X1.503Y-0.1978
X2.249Y-0.1191
X2.999Y-0.1978
X2.999Y-2.9006
X3.375Y0.0974
X3.375Y-0.6526
X3.375Y-1.4006
X3.375Y-2.1506
X3.751Y-0.2766
X4.3573Y-0.9104
T6
X4.3986Y-1.4636
X4.4774Y-1.4636
T7
X4.4793Y-1.7382
X4.4793Y-1.8169
X4.4793Y-1.8996
T8
X-0.15Y-0.1787
X-0.15Y-0.9287
X-0.15Y-1.6787
X-0.15Y-2.4287
X-0.1Y-0.2787
X-0.1Y-1.0287
X-0.1Y-1.7787
X-0.1Y-2.5287
X0.1Y-0.2787
X0.1Y-1.0287
X0.1Y-1.7787
X0.1Y-2.5287
X0.15Y-0.1787
X0.15Y-0.9287
X0.15Y-1.6787
X0.15Y-2.4287
X0.6Y-0.1787
X0.6Y-0.9287
X0.6Y-1.6787
X0.6Y-2.4287
X0.65Y-0.2787
X0.65Y-1.0287
X0.65Y-1.7787
X0.65Y-2.5287
X0.85Y-0.2787
X0.85Y-1.0287
X0.85Y-1.7787
X0.85Y-2.5287
X0.9Y-0.1787
X0.9Y-0.9287
X0.9Y-1.6787
X0.9Y-2.4287
X1.35Y0.0181
X1.35Y-0.7319
X1.35Y-1.4819
X1.35Y-2.2319
X1.4Y-0.0819
X1.4Y-0.8319
X1.4Y-1.5819
X1.4Y-2.3319
X1.6Y-0.0819
X1.6Y-0.8319
X1.6Y-1.5819
X1.6Y-2.3319
X1.65Y0.0181
X1.65Y-0.7319
X1.65Y-1.4819
X1.65Y-2.2319
X2.1Y0.0969
X2.1Y-1.4031
X2.1Y-2.1531
X2.1Y-0.6531
X2.15Y-0.0031
X2.15Y-1.5031
X2.15Y-2.2531
X2.15Y-0.7531
X2.35Y-0.0031
X2.35Y-1.5031
X2.35Y-2.2531
X2.35Y-0.7531
X2.4Y0.0969
X2.4Y-1.4031
X2.4Y-2.1531
X2.4Y-0.6531
X2.475Y-2.9819
X2.525Y-3.0819
X2.725Y-3.0819
X2.775Y-2.9819
X2.85Y0.0181
X2.85Y-0.7319
X2.85Y-1.4819
X2.85Y-2.2319
X2.9Y-0.0819
X2.9Y-0.8319
X2.9Y-1.5819
X2.9Y-2.3319
X3.1Y-0.0819
X3.1Y-0.8319
X3.1Y-1.5819
X3.1Y-2.3319
X3.15Y0.0181
X3.15Y-0.7319
X3.15Y-1.4819
X3.15Y-2.2319
X3.225Y-3.0606
X3.275Y-3.1606
X3.475Y-3.1606
X3.525Y-3.0606
X3.6Y-0.0606
X3.6Y-0.8106
X3.6Y-1.5606
X3.6Y-2.3106
X3.65Y-0.1606
X3.65Y-0.9106
X3.65Y-1.6606
X3.65Y-2.4106
X3.85Y-0.1606
X3.85Y-0.9106
X3.85Y-1.6606
X3.85Y-2.4106
X3.9Y-0.0606
X3.9Y-0.8106
X3.9Y-1.5606
X3.9Y-2.3106
X3.9542Y-3.2702
X4.0059Y-3.077
X4.0378Y-3.3444
X4.1155Y-3.0546
T5
G00X4.5096Y-0.3211
M15
G01X4.553Y-0.3211
M16
G05
G00X4.5096Y-0.6612
M15
G01X4.553Y-0.6612
M16
G05
G00X4.6841Y-0.3211
M15
G01X4.7077Y-0.3211
M16
G05
G00X4.6841Y-0.6612
M15
G01X4.7077Y-0.6612
M16
G05
T0
M30
