M48
; DRILL file {KiCad (6.0.4)} date Sat Jul 16 20:51:01 2022
; FORMAT={-:-/ absolute / inch / decimal}
; #@! TF.CreationDate,2022-07-16T20:51:01-07:00
; #@! TF.GenerationSoftware,Kicad,Pcbnew,(6.0.4)
; #@! TF.FileFunction,Plated,1,4,PTH
FMAT,2
INCH
; #@! TA.AperFunction,Plated,PTH,ViaDrill
T1C0.0118
; #@! TA.AperFunction,Plated,PTH,ComponentDrill
T2C0.0157
; #@! TA.AperFunction,Plated,PTH,ComponentDrill
T3C0.0236
; #@! TA.AperFunction,Plated,PTH,ComponentDrill
T4C0.0315
; #@! TA.AperFunction,Plated,PTH,ComponentDrill
T5C0.0394
; #@! TA.AperFunction,Plated,PTH,ComponentDrill
T6C0.1181
%
G90
G05
T1
X-0.2989Y0.0051
X-0.2986Y-0.7456
X-0.2984Y-2.2435
X-0.2981Y-1.4929
X-0.2964Y-1.6093
X-0.2964Y-0.8595
X-0.2964Y-2.3597
X-0.2964Y-0.1098
X0.451Y0.005
X0.4512Y-2.2445
X0.4513Y-0.7444
X0.452Y-1.4964
X0.4536Y-1.6092
X0.4536Y-2.3592
X0.4536Y-0.1093
X0.4537Y-0.8599
X1.201Y-2.0482
X1.2012Y0.2023
X1.2012Y-0.5477
X1.2014Y-1.2987
X1.2035Y-0.6616
X1.2036Y0.0878
X1.2036Y-1.4124
X1.2036Y-2.163
X1.9511Y-1.2197
X1.9512Y-1.9698
X1.9514Y0.28
X1.9527Y-0.4719
X1.9536Y0.1664
X1.9536Y-2.0838
X1.9536Y-0.5842
X1.9537Y-1.3343
X2.1998Y0.5226
X2.326Y-2.7981
X2.3287Y-2.913
X2.4183Y0.4715
X2.4406Y0.4937
X2.7012Y0.2023
X2.7014Y-2.0487
X2.7014Y-0.5473
X2.7016Y-1.2967
X2.7036Y-0.6624
X2.7036Y-1.4124
X2.7036Y-2.1629
X2.7036Y0.0871
X3.0761Y-2.8772
X3.0786Y-2.9911
X3.451Y-1.377
X3.451Y-2.1269
X3.4514Y-0.6275
X3.4515Y0.1242
X3.4536Y-0.741
X3.4536Y-1.491
X3.4536Y-2.2413
X3.4536Y0.0084
X3.5207Y0.2038
X3.5207Y0.1722
X3.6191Y0.2352
X3.6191Y0.2037
X3.7175Y0.2627
X3.7175Y0.2313
X3.8869Y-3.0357
X3.9132Y-2.9361
X4.0522Y0.3493
X4.0846Y0.3502
X4.086Y0.1218
X4.1053Y0.1467
X4.1285Y0.0969
X4.1467Y0.3494
X4.1486Y0.1211
X4.173Y0.0703
X4.1781Y0.3515
X4.1919Y0.0955
X4.1923Y-0.7522
X4.1998Y-0.1841
X4.2116Y-0.7274
X4.2313Y-0.1841
X4.2365Y-0.9968
X4.2392Y-1.0226
X4.2542Y0.0564
X4.2569Y-0.9124
X4.2569Y-0.936
X4.2569Y-0.9596
X4.2589Y-1.188
X4.2679Y-0.9983
X4.2857Y0.0561
X4.2884Y-1.9006
X4.3022Y-0.1959
X4.3022Y-0.2273
X4.3061Y-0.8868
X4.3219Y0.2863
X4.3337Y-0.629
X4.3337Y-0.6604
X4.3376Y-0.3593
X4.3376Y-0.3907
X4.3455Y-0.4301
X4.3543Y0.2854
X4.3632Y0.3199
X4.3888Y-0.0463
X4.3888Y-0.0778
X4.3947Y0.3199
X4.428Y-0.4684
X4.4293Y-0.4998
X4.4478Y-0.3632
X4.4695Y-0.6447
X4.4793Y-0.9911
X4.4798Y-1.1289
X4.5406Y-0.501
X4.5505Y-0.7665
X4.562Y-0.7372
X4.5721Y-0.501
X4.5845Y-0.5305
X4.5856Y-1.6024
X4.5915Y-0.9183
X4.6063Y-1.5787
X4.6093Y-1.2018
X4.6093Y-1.2332
X4.6132Y-0.5435
X4.6414Y-0.5574
X4.6427Y-0.5325
X4.6535Y-0.9931
X4.6604Y-1.0817
X4.6624Y-0.1053
X4.6668Y-1.1875
X4.686Y-0.8848
X4.686Y-0.9163
X4.6919Y-1.0817
X4.6919Y-0.1978
X4.6921Y-0.2293
X4.6959Y0.3514
X4.7057Y-1.3278
X4.7057Y-1.623
X4.7096Y-0.7785
X4.7348Y-0.7975
T2
X-0.3278Y0.0178
X-0.3278Y-0.1122
X-0.3278Y-0.7322
X-0.3278Y-0.8622
X-0.3278Y-1.4822
X-0.3278Y-1.6122
X-0.3278Y-2.2322
X-0.3278Y-2.3622
X0.4222Y0.0178
X0.4222Y-0.1122
X0.4222Y-0.7322
X0.4222Y-0.8622
X0.4222Y-1.4822
X0.4222Y-1.6122
X0.4222Y-2.2322
X0.4222Y-2.3622
X1.1722Y0.2146
X1.1722Y0.0846
X1.1722Y-0.5354
X1.1722Y-0.6654
X1.1722Y-1.2854
X1.1722Y-1.4154
X1.1722Y-2.0354
X1.1722Y-2.1654
X1.9222Y0.2933
X1.9222Y0.1633
X1.9222Y-0.4567
X1.9222Y-0.5867
X1.9222Y-1.2067
X1.9222Y-1.3367
X1.9222Y-1.9567
X1.9222Y-2.0867
X2.2972Y-2.7854
X2.2972Y-2.9154
X2.6722Y0.2146
X2.6722Y0.0846
X2.6722Y-0.5354
X2.6722Y-0.6654
X2.6722Y-1.2854
X2.6722Y-1.4154
X2.6722Y-2.0354
X2.6722Y-2.1654
X3.0472Y-2.8641
X3.0472Y-2.9941
X3.4222Y0.1359
X3.4222Y0.0059
X3.4222Y-0.6141
X3.4222Y-0.7441
X3.4222Y-1.3641
X3.4222Y-1.4941
X3.4222Y-2.1141
X3.4222Y-2.2441
X3.8549Y-3.0414
X3.8886Y-2.9158
T4
X4.3612Y-1.3622
X4.44Y-1.3622
T5
X4.44Y-1.7776
X4.44Y-1.8563
X4.44Y-1.939
T6
X-0.15Y-0.1787
X-0.15Y-0.9287
X-0.15Y-1.6787
X-0.15Y-2.4287
X-0.1Y-0.2787
X-0.1Y-1.0287
X-0.1Y-1.7787
X-0.1Y-2.5287
X0.1Y-0.2787
X0.1Y-1.0287
X0.1Y-1.7787
X0.1Y-2.5287
X0.15Y-0.1787
X0.15Y-0.9287
X0.15Y-1.6787
X0.15Y-2.4287
X0.6Y-0.1787
X0.6Y-0.9287
X0.6Y-1.6787
X0.6Y-2.4287
X0.65Y-0.2787
X0.65Y-1.0287
X0.65Y-1.7787
X0.65Y-2.5287
X0.85Y-0.2787
X0.85Y-1.0287
X0.85Y-1.7787
X0.85Y-2.5287
X0.9Y-0.1787
X0.9Y-0.9287
X0.9Y-1.6787
X0.9Y-2.4287
X1.35Y0.0181
X1.35Y-0.7319
X1.35Y-1.4819
X1.35Y-2.2319
X1.4Y-0.0819
X1.4Y-0.8319
X1.4Y-1.5819
X1.4Y-2.3319
X1.6Y-0.0819
X1.6Y-0.8319
X1.6Y-1.5819
X1.6Y-2.3319
X1.65Y0.0181
X1.65Y-0.7319
X1.65Y-1.4819
X1.65Y-2.2319
X2.1Y0.0969
X2.1Y-1.4031
X2.1Y-2.1531
X2.1Y-0.6531
X2.15Y-0.0031
X2.15Y-1.5031
X2.15Y-2.2531
X2.15Y-0.7531
X2.35Y-0.0031
X2.35Y-1.5031
X2.35Y-2.2531
X2.35Y-0.7531
X2.4Y0.0969
X2.4Y-1.4031
X2.4Y-2.1531
X2.4Y-0.6531
X2.475Y-2.9819
X2.525Y-3.0819
X2.725Y-3.0819
X2.775Y-2.9819
X2.85Y0.0181
X2.85Y-0.7319
X2.85Y-1.4819
X2.85Y-2.2319
X2.9Y-0.0819
X2.9Y-0.8319
X2.9Y-1.5819
X2.9Y-2.3319
X3.1Y-0.0819
X3.1Y-0.8319
X3.1Y-1.5819
X3.1Y-2.3319
X3.15Y0.0181
X3.15Y-0.7319
X3.15Y-1.4819
X3.15Y-2.2319
X3.225Y-3.0606
X3.275Y-3.1606
X3.475Y-3.1606
X3.525Y-3.0606
X3.6Y-0.0606
X3.6Y-0.8106
X3.6Y-1.5606
X3.6Y-2.3106
X3.65Y-0.1606
X3.65Y-0.9106
X3.65Y-1.6606
X3.65Y-2.4106
X3.85Y-0.1606
X3.85Y-0.9106
X3.85Y-1.6606
X3.85Y-2.4106
X3.9Y-0.0606
X3.9Y-0.8106
X3.9Y-1.5606
X3.9Y-2.3106
X3.9542Y-3.2702
X4.0059Y-3.077
X4.0378Y-3.3444
X4.1155Y-3.0546
T3
G00X4.5096Y-0.3211
M15
G01X4.553Y-0.3211
M16
G05
G00X4.5096Y-0.6612
M15
G01X4.553Y-0.6612
M16
G05
G00X4.6841Y-0.3211
M15
G01X4.7077Y-0.3211
M16
G05
G00X4.6841Y-0.6612
M15
G01X4.7077Y-0.6612
M16
G05
T0
M30
