%TF.GenerationSoftware,KiCad,Pcbnew,(6.0.4)*%
%TF.CreationDate,2022-07-15T09:15:58-07:00*%
%TF.ProjectId,Conejo,436f6e65-6a6f-42e6-9b69-6361645f7063,v1.0.0*%
%TF.SameCoordinates,Original*%
%TF.FileFunction,Copper,L1,Top*%
%TF.FilePolarity,Positive*%
%FSLAX46Y46*%
G04 Gerber Fmt 4.6, Leading zero omitted, Abs format (unit mm)*
G04 Created by KiCad (PCBNEW (6.0.4)) date 2022-07-15 09:15:58*
%MOMM*%
%LPD*%
G01*
G04 APERTURE LIST*
G04 Aperture macros list*
%AMRoundRect*
0 Rectangle with rounded corners*
0 $1 Rounding radius*
0 $2 $3 $4 $5 $6 $7 $8 $9 X,Y pos of 4 corners*
0 Add a 4 corners polygon primitive as box body*
4,1,4,$2,$3,$4,$5,$6,$7,$8,$9,$2,$3,0*
0 Add four circle primitives for the rounded corners*
1,1,$1+$1,$2,$3*
1,1,$1+$1,$4,$5*
1,1,$1+$1,$6,$7*
1,1,$1+$1,$8,$9*
0 Add four rect primitives between the rounded corners*
20,1,$1+$1,$2,$3,$4,$5,0*
20,1,$1+$1,$4,$5,$6,$7,0*
20,1,$1+$1,$6,$7,$8,$9,0*
20,1,$1+$1,$8,$9,$2,$3,0*%
%AMRotRect*
0 Rectangle, with rotation*
0 The origin of the aperture is its center*
0 $1 length*
0 $2 width*
0 $3 Rotation angle, in degrees counterclockwise*
0 Add horizontal line*
21,1,$1,$2,0,0,$3*%
G04 Aperture macros list end*
%TA.AperFunction,Profile*%
%ADD10C,0.150000*%
%TD*%
%TA.AperFunction,SMDPad,CuDef*%
%ADD11R,0.600000X0.700000*%
%TD*%
%TA.AperFunction,SMDPad,CuDef*%
%ADD12RoundRect,0.125000X0.700000X0.000000X-0.700000X0.000000X-0.700000X0.000000X0.700000X0.000000X0*%
%TD*%
%TA.AperFunction,ComponentPad*%
%ADD13C,0.800000*%
%TD*%
%TA.AperFunction,SMDPad,CuDef*%
%ADD14R,3.498000X2.500000*%
%TD*%
%TA.AperFunction,ComponentPad*%
%ADD15C,4.000000*%
%TD*%
%TA.AperFunction,SMDPad,CuDef*%
%ADD16RoundRect,0.090000X0.535000X-0.210000X0.535000X0.210000X-0.535000X0.210000X-0.535000X-0.210000X0*%
%TD*%
%TA.AperFunction,SMDPad,CuDef*%
%ADD17RoundRect,0.105000X0.245000X0.445000X-0.245000X0.445000X-0.245000X-0.445000X0.245000X-0.445000X0*%
%TD*%
%TA.AperFunction,SMDPad,CuDef*%
%ADD18R,1.000000X1.550000*%
%TD*%
%TA.AperFunction,SMDPad,CuDef*%
%ADD19R,1.450000X0.600000*%
%TD*%
%TA.AperFunction,SMDPad,CuDef*%
%ADD20R,1.450000X0.300000*%
%TD*%
%TA.AperFunction,ComponentPad*%
%ADD21O,2.100000X1.000000*%
%TD*%
%TA.AperFunction,ComponentPad*%
%ADD22O,1.600000X1.000000*%
%TD*%
%TA.AperFunction,SMDPad,CuDef*%
%ADD23RotRect,0.600000X0.700000X75.000000*%
%TD*%
%TA.AperFunction,SMDPad,CuDef*%
%ADD24RoundRect,0.125000X0.181173X0.676148X-0.181173X-0.676148X-0.181173X-0.676148X0.181173X0.676148X0*%
%TD*%
%TA.AperFunction,ConnectorPad*%
%ADD25C,0.787400*%
%TD*%
%TA.AperFunction,ComponentPad*%
%ADD26R,1.524000X1.524000*%
%TD*%
%TA.AperFunction,SMDPad,CuDef*%
%ADD27RoundRect,0.250000X-0.375000X-0.625000X0.375000X-0.625000X0.375000X0.625000X-0.375000X0.625000X0*%
%TD*%
%TA.AperFunction,SMDPad,CuDef*%
%ADD28RotRect,3.498000X2.500000X75.000000*%
%TD*%
%TA.AperFunction,SMDPad,CuDef*%
%ADD29RotRect,3.498000X2.500000X255.000000*%
%TD*%
%TA.AperFunction,ComponentPad*%
%ADD30RoundRect,0.337500X-0.337500X0.337500X-0.337500X-0.337500X0.337500X-0.337500X0.337500X0.337500X0*%
%TD*%
%TA.AperFunction,ViaPad*%
%ADD31C,0.600000*%
%TD*%
%TA.AperFunction,Conductor*%
%ADD32C,0.400000*%
%TD*%
%TA.AperFunction,Conductor*%
%ADD33C,0.350000*%
%TD*%
%TA.AperFunction,Conductor*%
%ADD34C,0.600000*%
%TD*%
%TA.AperFunction,Conductor*%
%ADD35C,1.000000*%
%TD*%
%TA.AperFunction,Conductor*%
%ADD36C,0.200000*%
%TD*%
%TA.AperFunction,Conductor*%
%ADD37C,0.250000*%
%TD*%
%TA.AperFunction,Conductor*%
%ADD38C,0.205740*%
%TD*%
G04 APERTURE END LIST*
D10*
X93101679Y-93260414D02*
X76199999Y-84725000D01*
X57150000Y-69675000D02*
G75*
G03*
X56150001Y-68675000I-1000000J0D01*
G01*
X67675000Y12525000D02*
X84725000Y12525000D01*
X56150001Y-68675000D02*
X-8525000Y-68674999D01*
X27567894Y7525000D02*
X-8525000Y7525000D01*
X66675000Y13525000D02*
G75*
G03*
X65675000Y14525000I-1000000J0D01*
G01*
X85725000Y11525000D02*
G75*
G03*
X86725000Y10525000I1000000J0D01*
G01*
X57150000Y-81725000D02*
G75*
G03*
X58150000Y-82725000I1000000J0D01*
G01*
X29575000Y12525000D02*
G75*
G03*
X28575000Y11525000I0J-1000000D01*
G01*
X-9525000Y-67675000D02*
X-9525000Y6525000D01*
X46625000Y12525000D02*
X29575000Y12525000D01*
X48625000Y14525000D02*
G75*
G03*
X47625000Y13525000I0J-1000000D01*
G01*
X-9525000Y-67675000D02*
G75*
G03*
X-8525000Y-68674999I1000001J2D01*
G01*
X27567894Y7525007D02*
G75*
G03*
X28567893Y8525000I6J999993D01*
G01*
X120775000Y9525000D02*
G75*
G03*
X119775000Y10525000I-1000000J0D01*
G01*
X57150000Y-81725000D02*
X57150001Y-69675000D01*
X93101679Y-93260414D02*
X110536640Y-97932098D01*
X46625000Y12525000D02*
G75*
G03*
X47625000Y13525000I0J1000000D01*
G01*
X86725000Y10525000D02*
X119775000Y10525000D01*
X110536648Y-97932067D02*
G75*
G03*
X111761384Y-97224991I258852J965867D01*
G01*
X65675000Y14525000D02*
X48625000Y14525000D01*
X28575000Y11525000D02*
X28567893Y8525000D01*
X76199999Y-84725000D02*
X58150000Y-82725000D01*
X85725000Y11525000D02*
G75*
G03*
X84725000Y12525000I-1000000J0D01*
G01*
X120775000Y9525000D02*
X120775000Y-63575000D01*
X66675000Y13525000D02*
G75*
G03*
X67675000Y12525000I1000000J0D01*
G01*
X120775000Y-63575000D02*
X111761384Y-97224991D01*
X-8525000Y7525000D02*
G75*
G03*
X-9525000Y6525000I-1J-999999D01*
G01*
D11*
%TO.P,D21,1,K*%
%TO.N,ROW2*%
X76900000Y-12050000D03*
D12*
X77425000Y-12050000D03*
D13*
X77851000Y-12050000D03*
D12*
%TO.P,D21,2,A*%
%TO.N,Net-(D21-Pad2)*%
X74975000Y-12050000D03*
D11*
X75500000Y-12050000D03*
D13*
X74549000Y-12050000D03*
%TD*%
D14*
%TO.P,SW9,1,1*%
%TO.N,COL2*%
X24391000Y-64230000D03*
D15*
X21590000Y-64230000D03*
X22860000Y-61690000D03*
%TO.P,SW9,2,2*%
%TO.N,Net-(D10-Pad2)*%
X16510000Y-64230000D03*
X15240000Y-61690000D03*
D14*
X12439000Y-61690000D03*
%TD*%
D15*
%TO.P,SW14,1,1*%
%TO.N,COL4*%
X59690000Y-80000D03*
D14*
X62491000Y-80000D03*
D15*
X60960000Y2460000D03*
%TO.P,SW14,2,2*%
%TO.N,Net-(D15-Pad2)*%
X54610000Y-80000D03*
X53340000Y2460000D03*
D14*
X50539000Y2460000D03*
%TD*%
D13*
%TO.P,D8,1,K*%
%TO.N,ROW2*%
X20701000Y-17050001D03*
D11*
X19750000Y-17050001D03*
D12*
X20275000Y-17050001D03*
%TO.P,D8,2,A*%
%TO.N,Net-(D8-Pad2)*%
X17825000Y-17050001D03*
D13*
X17399000Y-17050001D03*
D11*
X18350000Y-17050001D03*
%TD*%
D13*
%TO.P,D4,1,K*%
%TO.N,ROW2*%
X1651000Y-17050000D03*
D12*
X1225000Y-17050000D03*
D11*
X700000Y-17050000D03*
%TO.P,D4,2,A*%
%TO.N,Net-(D4-Pad2)*%
X-700000Y-17050000D03*
D13*
X-1651000Y-17050000D03*
D12*
X-1225000Y-17050000D03*
%TD*%
D15*
%TO.P,SW4,1,1*%
%TO.N,COL1*%
X2540000Y-45180000D03*
X3810000Y-42640000D03*
D14*
X5341000Y-45180000D03*
D15*
%TO.P,SW4,2,2*%
%TO.N,Net-(D5-Pad2)*%
X-3810000Y-42640000D03*
D14*
X-6611000Y-42640000D03*
D15*
X-2540000Y-45180000D03*
%TD*%
%TO.P,SW25,1,1*%
%TO.N,COL6*%
X99060000Y-20590000D03*
X97790000Y-23130000D03*
D14*
X100591000Y-23130000D03*
D15*
%TO.P,SW25,2,2*%
%TO.N,Net-(D26-Pad2)*%
X92710000Y-23130000D03*
D14*
X88639000Y-20590000D03*
D15*
X91440000Y-20590000D03*
%TD*%
%TO.P,SW21,1,1*%
%TO.N,COL5*%
X78740000Y-40180000D03*
X80010000Y-37640000D03*
D14*
X81541000Y-40180000D03*
D15*
%TO.P,SW21,2,2*%
%TO.N,Net-(D22-Pad2)*%
X73660000Y-40180000D03*
D14*
X69589000Y-37640000D03*
D15*
X72390000Y-37640000D03*
%TD*%
D16*
%TO.P,SW1,1,A*%
%TO.N,GND*%
X117075000Y-29725000D03*
%TO.P,SW1,2,B*%
%TO.N,/Power Management/SYSOFF*%
X117075000Y-26725000D03*
%TO.P,SW1,3,C*%
%TO.N,Net-(R6-Pad1)*%
X117075000Y-25225000D03*
D17*
%TO.P,SW1,MP*%
%TO.N,N/C*%
X117925000Y-23775000D03*
X120225000Y-31175000D03*
X120225000Y-23775000D03*
X117925000Y-31175000D03*
%TD*%
D13*
%TO.P,D17,1,K*%
%TO.N,ROW3*%
X58801000Y-29100000D03*
D11*
X57850000Y-29100000D03*
D12*
X58375000Y-29100000D03*
D11*
%TO.P,D17,2,A*%
%TO.N,Net-(D17-Pad2)*%
X56450000Y-29100000D03*
D13*
X55499000Y-29100000D03*
D12*
X55925000Y-29100000D03*
%TD*%
%TO.P,D28,1,K*%
%TO.N,ROW4*%
X96475000Y-52150000D03*
D13*
X96901000Y-52150000D03*
D11*
X95950000Y-52150000D03*
D13*
%TO.P,D28,2,A*%
%TO.N,Net-(D28-Pad2)*%
X93599000Y-52150000D03*
D12*
X94025000Y-52150000D03*
D11*
X94550000Y-52150000D03*
%TD*%
%TO.P,D6,1,K*%
%TO.N,ROW4*%
X700000Y-55150000D03*
D13*
X1651000Y-55150000D03*
D12*
X1225000Y-55150000D03*
D13*
%TO.P,D6,2,A*%
%TO.N,Net-(D6-Pad2)*%
X-1651000Y-55150000D03*
D11*
X-700000Y-55150000D03*
D12*
X-1225000Y-55150000D03*
%TD*%
D11*
%TO.P,D5,1,K*%
%TO.N,ROW3*%
X700001Y-36100000D03*
D13*
X1651001Y-36100000D03*
D12*
X1225001Y-36100000D03*
%TO.P,D5,2,A*%
%TO.N,Net-(D5-Pad2)*%
X-1224999Y-36100000D03*
D11*
X-699999Y-36100000D03*
D13*
X-1650999Y-36100000D03*
%TD*%
D15*
%TO.P,SW18,1,1*%
%TO.N,COL4*%
X69215000Y-78280000D03*
D14*
X72016000Y-78280000D03*
D15*
X70485000Y-75740000D03*
%TO.P,SW18,2,2*%
%TO.N,Net-(D19-Pad2)*%
X64135000Y-78280000D03*
D14*
X60064000Y-75740000D03*
D15*
X62865000Y-75740000D03*
%TD*%
D13*
%TO.P,D9,1,K*%
%TO.N,ROW3*%
X20701000Y-36100001D03*
D12*
X20275000Y-36100001D03*
D11*
X19750000Y-36100001D03*
D12*
%TO.P,D9,2,A*%
%TO.N,Net-(D9-Pad2)*%
X17825000Y-36100001D03*
D13*
X17399000Y-36100001D03*
D11*
X18350000Y-36100001D03*
%TD*%
%TO.P,D16,1,K*%
%TO.N,ROW2*%
X57850000Y-10050000D03*
D12*
X58375000Y-10050000D03*
D13*
X58801000Y-10050000D03*
%TO.P,D16,2,A*%
%TO.N,Net-(D16-Pad2)*%
X55499000Y-10050000D03*
D12*
X55925000Y-10050000D03*
D11*
X56450000Y-10050000D03*
%TD*%
D15*
%TO.P,SW10,1,1*%
%TO.N,COL3*%
X40640000Y-2080000D03*
D14*
X43441000Y-2080000D03*
D15*
X41910000Y460000D03*
%TO.P,SW10,2,2*%
%TO.N,Net-(D11-Pad2)*%
X34290000Y460000D03*
D14*
X31489000Y460000D03*
D15*
X35560000Y-2080000D03*
%TD*%
D11*
%TO.P,D18,1,K*%
%TO.N,ROW4*%
X57850000Y-48150000D03*
D13*
X58801000Y-48150000D03*
D12*
X58375000Y-48150000D03*
D13*
%TO.P,D18,2,A*%
%TO.N,Net-(D18-Pad2)*%
X55499000Y-48150000D03*
D11*
X56450000Y-48150000D03*
D12*
X55925000Y-48150000D03*
%TD*%
%TO.P,D19,1,K*%
%TO.N,ROW5*%
X67900000Y-69200000D03*
D13*
X68326000Y-69200000D03*
D11*
X67375000Y-69200000D03*
%TO.P,D19,2,A*%
%TO.N,Net-(D19-Pad2)*%
X65975000Y-69200000D03*
D13*
X65024000Y-69200000D03*
D12*
X65450000Y-69200000D03*
%TD*%
%TO.P,D20,1,K*%
%TO.N,ROW1*%
X77425000Y7000000D03*
D11*
X76900000Y7000000D03*
D13*
X77851000Y7000000D03*
D11*
%TO.P,D20,2,A*%
%TO.N,Net-(D20-Pad2)*%
X75500000Y7000000D03*
D12*
X74975000Y7000000D03*
D13*
X74549000Y7000000D03*
%TD*%
D15*
%TO.P,SW6,1,1*%
%TO.N,COL2*%
X22860000Y-4540000D03*
X21590000Y-7080000D03*
D14*
X24391000Y-7080000D03*
D15*
%TO.P,SW6,2,2*%
%TO.N,Net-(D7-Pad2)*%
X15240000Y-4540000D03*
X16510000Y-7080000D03*
D14*
X12439000Y-4540000D03*
%TD*%
D15*
%TO.P,SW11,1,1*%
%TO.N,COL3*%
X40640000Y-21130000D03*
X41910000Y-18590000D03*
D14*
X43441000Y-21130000D03*
D15*
%TO.P,SW11,2,2*%
%TO.N,Net-(D12-Pad2)*%
X34290000Y-18590000D03*
D14*
X31489000Y-18590000D03*
D15*
X35560000Y-21130000D03*
%TD*%
D18*
%TO.P,SW29,1,1*%
%TO.N,GND*%
X119525000Y-34850000D03*
X119525000Y-40100000D03*
%TO.P,SW29,2,2*%
%TO.N,RESET*%
X117825000Y-40100000D03*
X117825000Y-34850000D03*
%TD*%
D13*
%TO.P,D15,1,K*%
%TO.N,ROW1*%
X58801000Y9000000D03*
D11*
X57850000Y9000000D03*
D12*
X58375000Y9000000D03*
%TO.P,D15,2,A*%
%TO.N,Net-(D15-Pad2)*%
X55925000Y9000000D03*
D13*
X55499000Y9000000D03*
D11*
X56450000Y9000000D03*
%TD*%
D12*
%TO.P,D12,1,K*%
%TO.N,ROW2*%
X39324999Y-12050000D03*
D11*
X38799999Y-12050000D03*
D13*
X39750999Y-12050000D03*
D12*
%TO.P,D12,2,A*%
%TO.N,Net-(D12-Pad2)*%
X36874999Y-12050000D03*
D13*
X36448999Y-12050000D03*
D11*
X37399999Y-12050000D03*
%TD*%
D15*
%TO.P,SW24,1,1*%
%TO.N,COL6*%
X99060000Y-1540000D03*
D14*
X100591000Y-4080000D03*
D15*
X97790000Y-4080000D03*
%TO.P,SW24,2,2*%
%TO.N,Net-(D25-Pad2)*%
X92710000Y-4080000D03*
X91440000Y-1540000D03*
D14*
X88639000Y-1540000D03*
%TD*%
%TO.P,SW27,1,1*%
%TO.N,COL6*%
X100591000Y-61230000D03*
D15*
X97790000Y-61230000D03*
X99060000Y-58690000D03*
%TO.P,SW27,2,2*%
%TO.N,Net-(D28-Pad2)*%
X92710000Y-61230000D03*
X91440000Y-58690000D03*
D14*
X88639000Y-58690000D03*
%TD*%
D15*
%TO.P,SW8,1,1*%
%TO.N,COL2*%
X22860000Y-42640000D03*
D14*
X24391000Y-45180000D03*
D15*
X21590000Y-45180000D03*
D14*
%TO.P,SW8,2,2*%
%TO.N,Net-(D9-Pad2)*%
X12439000Y-42640000D03*
D15*
X16510000Y-45180000D03*
X15240000Y-42640000D03*
%TD*%
D12*
%TO.P,D22,1,K*%
%TO.N,ROW3*%
X77425000Y-31100000D03*
D13*
X77851000Y-31100000D03*
D11*
X76900000Y-31100000D03*
D12*
%TO.P,D22,2,A*%
%TO.N,Net-(D22-Pad2)*%
X74975000Y-31100000D03*
D11*
X75500000Y-31100000D03*
D13*
X74549000Y-31100000D03*
%TD*%
D15*
%TO.P,SW5,1,1*%
%TO.N,COL1*%
X2540000Y-64230000D03*
D14*
X5341000Y-64230000D03*
D15*
X3810000Y-61690000D03*
D14*
%TO.P,SW5,2,2*%
%TO.N,Net-(D6-Pad2)*%
X-6611000Y-61690000D03*
D15*
X-2540000Y-64230000D03*
X-3810000Y-61690000D03*
%TD*%
D14*
%TO.P,SW19,1,1*%
%TO.N,COL5*%
X81541000Y-2080000D03*
D15*
X80010000Y460000D03*
X78740000Y-2080000D03*
%TO.P,SW19,2,2*%
%TO.N,Net-(D20-Pad2)*%
X73660000Y-2080000D03*
X72390000Y460000D03*
D14*
X69589000Y460000D03*
%TD*%
D15*
%TO.P,SW23,1,1*%
%TO.N,COL5*%
X88265000Y-80280000D03*
X89535000Y-77740000D03*
D14*
X91066000Y-80280000D03*
D15*
%TO.P,SW23,2,2*%
%TO.N,Net-(D24-Pad2)*%
X81915000Y-77740000D03*
D14*
X79114000Y-77740000D03*
D15*
X83185000Y-80280000D03*
%TD*%
D14*
%TO.P,SW16,1,1*%
%TO.N,COL4*%
X62491000Y-38179999D03*
D15*
X59690000Y-38179999D03*
X60960000Y-35639999D03*
%TO.P,SW16,2,2*%
%TO.N,Net-(D17-Pad2)*%
X54610000Y-38179999D03*
D14*
X50539000Y-35639999D03*
D15*
X53340000Y-35639999D03*
%TD*%
%TO.P,SW7,1,1*%
%TO.N,COL2*%
X22860000Y-23589999D03*
X21590000Y-26129999D03*
D14*
X24391000Y-26129999D03*
%TO.P,SW7,2,2*%
%TO.N,Net-(D8-Pad2)*%
X12439000Y-23589999D03*
D15*
X15240000Y-23589999D03*
X16510000Y-26129999D03*
%TD*%
D13*
%TO.P,D3,1,K*%
%TO.N,ROW1*%
X1651000Y2000000D03*
D11*
X700000Y2000000D03*
D12*
X1225000Y2000000D03*
D13*
%TO.P,D3,2,A*%
%TO.N,Net-(D3-Pad2)*%
X-1651000Y2000000D03*
D12*
X-1225000Y2000000D03*
D11*
X-700000Y2000000D03*
%TD*%
D15*
%TO.P,SW20,1,1*%
%TO.N,COL5*%
X78740000Y-21130000D03*
X80010000Y-18590000D03*
D14*
X81541000Y-21130000D03*
D15*
%TO.P,SW20,2,2*%
%TO.N,Net-(D21-Pad2)*%
X72390000Y-18590000D03*
D14*
X69589000Y-18590000D03*
D15*
X73660000Y-21130000D03*
%TD*%
D12*
%TO.P,D23,1,K*%
%TO.N,ROW4*%
X77425000Y-50150000D03*
D13*
X77851000Y-50150000D03*
D11*
X76900000Y-50150000D03*
%TO.P,D23,2,A*%
%TO.N,Net-(D23-Pad2)*%
X75500000Y-50150000D03*
D13*
X74549000Y-50150000D03*
D12*
X74975000Y-50150000D03*
%TD*%
D15*
%TO.P,SW15,1,1*%
%TO.N,COL4*%
X59690002Y-19130000D03*
X60960002Y-16590000D03*
D14*
X62491002Y-19130000D03*
%TO.P,SW15,2,2*%
%TO.N,Net-(D16-Pad2)*%
X50539002Y-16590000D03*
D15*
X54610002Y-19130000D03*
X53340002Y-16590000D03*
%TD*%
%TO.P,SW26,1,1*%
%TO.N,COL6*%
X99060000Y-39640000D03*
X97790000Y-42180000D03*
D14*
X100591000Y-42180000D03*
%TO.P,SW26,2,2*%
%TO.N,Net-(D27-Pad2)*%
X88639000Y-39640000D03*
D15*
X91440000Y-39640000D03*
X92710000Y-42180000D03*
%TD*%
D13*
%TO.P,D13,1,K*%
%TO.N,ROW3*%
X39751000Y-31100000D03*
D12*
X39325000Y-31100000D03*
D11*
X38800000Y-31100000D03*
D13*
%TO.P,D13,2,A*%
%TO.N,Net-(D13-Pad2)*%
X36449000Y-31100000D03*
D12*
X36875000Y-31100000D03*
D11*
X37400000Y-31100000D03*
%TD*%
D12*
%TO.P,D7,1,K*%
%TO.N,ROW1*%
X20275000Y2000000D03*
D13*
X20701000Y2000000D03*
D11*
X19750000Y2000000D03*
D13*
%TO.P,D7,2,A*%
%TO.N,Net-(D7-Pad2)*%
X17399000Y2000000D03*
D11*
X18350000Y2000000D03*
D12*
X17825000Y2000000D03*
%TD*%
D11*
%TO.P,D26,1,K*%
%TO.N,ROW2*%
X95950000Y-14050000D03*
D12*
X96475000Y-14050000D03*
D13*
X96901000Y-14050000D03*
D11*
%TO.P,D26,2,A*%
%TO.N,Net-(D26-Pad2)*%
X94550000Y-14050000D03*
D13*
X93599000Y-14050000D03*
D12*
X94025000Y-14050000D03*
%TD*%
D13*
%TO.P,D14,1,K*%
%TO.N,ROW4*%
X39751000Y-50150000D03*
D11*
X38800000Y-50150000D03*
D12*
X39325000Y-50150000D03*
D11*
%TO.P,D14,2,A*%
%TO.N,Net-(D14-Pad2)*%
X37400000Y-50150000D03*
D13*
X36449000Y-50150000D03*
D12*
X36875000Y-50150000D03*
%TD*%
%TO.P,D25,1,K*%
%TO.N,ROW1*%
X96475000Y5000000D03*
D11*
X95950000Y5000000D03*
D13*
X96901000Y5000000D03*
%TO.P,D25,2,A*%
%TO.N,Net-(D25-Pad2)*%
X93599000Y5000000D03*
D12*
X94025000Y5000000D03*
D11*
X94550000Y5000000D03*
%TD*%
D15*
%TO.P,SW17,1,1*%
%TO.N,COL4*%
X60960000Y-54690000D03*
D14*
X62491000Y-57230000D03*
D15*
X59690000Y-57230000D03*
D14*
%TO.P,SW17,2,2*%
%TO.N,Net-(D18-Pad2)*%
X50539000Y-54690000D03*
D15*
X54610000Y-57230000D03*
X53340000Y-54690000D03*
%TD*%
D19*
%TO.P,J2,A1,GND*%
%TO.N,GND*%
X114180000Y-15725000D03*
%TO.P,J2,A4,VBUS*%
%TO.N,VBUS*%
X114180000Y-14925000D03*
D20*
%TO.P,J2,A5,CC1*%
%TO.N,/USB-C/CC1*%
X114180000Y-13725000D03*
%TO.P,J2,A6,D+*%
%TO.N,D+*%
X114180000Y-12725000D03*
%TO.P,J2,A7,D-*%
%TO.N,D-*%
X114180000Y-12225000D03*
%TO.P,J2,A8,SBU1*%
%TO.N,unconnected-(J2-PadA8)*%
X114180000Y-11225000D03*
D19*
%TO.P,J2,A9,VBUS*%
%TO.N,VBUS*%
X114180000Y-10025000D03*
%TO.P,J2,A12,GND*%
%TO.N,GND*%
X114180000Y-9225000D03*
%TO.P,J2,B1,GND*%
X114180000Y-9225000D03*
%TO.P,J2,B4,VBUS*%
%TO.N,VBUS*%
X114180000Y-10025000D03*
D20*
%TO.P,J2,B5,CC2*%
%TO.N,/USB-C/CC2*%
X114180000Y-10725000D03*
%TO.P,J2,B6,D+*%
%TO.N,D+*%
X114180000Y-11725000D03*
%TO.P,J2,B7,D-*%
%TO.N,D-*%
X114180000Y-13225000D03*
%TO.P,J2,B8,SBU2*%
%TO.N,unconnected-(J2-PadB8)*%
X114180000Y-14225000D03*
D19*
%TO.P,J2,B9,VBUS*%
%TO.N,VBUS*%
X114180000Y-14925000D03*
%TO.P,J2,B12,GND*%
%TO.N,GND*%
X114180000Y-15725000D03*
D21*
%TO.P,J2,S1,SHIELD*%
X115095000Y-16795000D03*
D22*
X119275000Y-16795000D03*
D21*
X115095000Y-8155000D03*
D22*
X119275000Y-8155000D03*
%TD*%
D15*
%TO.P,SW22,1,1*%
%TO.N,COL5*%
X78740000Y-59230000D03*
D14*
X81541000Y-59230000D03*
D15*
X80010000Y-56690000D03*
D14*
%TO.P,SW22,2,2*%
%TO.N,Net-(D23-Pad2)*%
X69589000Y-56690000D03*
D15*
X73660000Y-59230000D03*
X72390000Y-56690000D03*
%TD*%
D23*
%TO.P,D29,1,K*%
%TO.N,ROW5*%
X98523117Y-74980777D03*
D24*
X98658997Y-74473666D03*
D13*
X98769254Y-74062181D03*
%TO.P,D29,2,A*%
%TO.N,Net-(D29-Pad2)*%
X97914634Y-77251669D03*
D24*
X98024891Y-76840184D03*
D23*
X98160771Y-76333073D03*
%TD*%
D12*
%TO.P,D10,1,K*%
%TO.N,ROW4*%
X20275000Y-55150000D03*
D11*
X19750000Y-55150000D03*
D13*
X20701000Y-55150000D03*
D11*
%TO.P,D10,2,A*%
%TO.N,Net-(D10-Pad2)*%
X18350000Y-55150000D03*
D12*
X17825000Y-55150000D03*
D13*
X17399000Y-55150000D03*
%TD*%
D15*
%TO.P,SW2,1,1*%
%TO.N,COL1*%
X2540000Y-7080000D03*
D14*
X5341000Y-7080000D03*
D15*
X3810000Y-4540000D03*
%TO.P,SW2,2,2*%
%TO.N,Net-(D3-Pad2)*%
X-3810000Y-4540000D03*
D14*
X-6611000Y-4540000D03*
D15*
X-2540000Y-7080000D03*
%TD*%
%TO.P,SW3,1,1*%
%TO.N,COL1*%
X2540000Y-26130000D03*
X3810000Y-23590000D03*
D14*
X5341000Y-26130000D03*
D15*
%TO.P,SW3,2,2*%
%TO.N,Net-(D4-Pad2)*%
X-3810000Y-23590000D03*
X-2540000Y-26130000D03*
D14*
X-6611000Y-23590000D03*
%TD*%
D13*
%TO.P,D27,1,K*%
%TO.N,ROW3*%
X96901000Y-33100000D03*
D11*
X95950000Y-33100000D03*
D12*
X96475000Y-33100000D03*
D13*
%TO.P,D27,2,A*%
%TO.N,Net-(D27-Pad2)*%
X93599000Y-33100000D03*
D12*
X94025000Y-33100000D03*
D11*
X94550000Y-33100000D03*
%TD*%
D14*
%TO.P,SW12,1,1*%
%TO.N,COL3*%
X43441000Y-40180000D03*
D15*
X40640000Y-40180000D03*
X41910000Y-37640000D03*
%TO.P,SW12,2,2*%
%TO.N,Net-(D13-Pad2)*%
X35560000Y-40180000D03*
X34290000Y-37640000D03*
D14*
X31489000Y-37640000D03*
%TD*%
D12*
%TO.P,D11,1,K*%
%TO.N,ROW1*%
X39325000Y7000000D03*
D11*
X38800000Y7000000D03*
D13*
X39751000Y7000000D03*
D11*
%TO.P,D11,2,A*%
%TO.N,Net-(D11-Pad2)*%
X37400000Y7000000D03*
D13*
X36449000Y7000000D03*
D12*
X36875000Y7000000D03*
%TD*%
D14*
%TO.P,SW13,1,1*%
%TO.N,COL3*%
X43441000Y-59230000D03*
D15*
X40640000Y-59230000D03*
X41910000Y-56690000D03*
%TO.P,SW13,2,2*%
%TO.N,Net-(D14-Pad2)*%
X34290000Y-56690000D03*
D14*
X31489000Y-56690000D03*
D15*
X35560000Y-59230000D03*
%TD*%
D25*
%TO.P,J3,1,VCC*%
%TO.N,VDD*%
X113055000Y7790000D03*
%TO.P,J3,2,SWDIO*%
%TO.N,SWDIO*%
X113055000Y9060000D03*
%TO.P,J3,3,~{RST}*%
%TO.N,RESET*%
X114325000Y7790000D03*
%TO.P,J3,4,SWCLK*%
%TO.N,SWCLK*%
X114325000Y9060000D03*
%TO.P,J3,5,GND*%
%TO.N,GND*%
X115595000Y7790000D03*
%TO.P,J3,6,SWO*%
%TO.N,unconnected-(J3-Pad6)*%
X115595000Y9060000D03*
%TD*%
D13*
%TO.P,D24,1,K*%
%TO.N,ROW5*%
X87376000Y-71200000D03*
D12*
X86950000Y-71200000D03*
D11*
X86425000Y-71200000D03*
D12*
%TO.P,D24,2,A*%
%TO.N,Net-(D24-Pad2)*%
X84500000Y-71200000D03*
D11*
X85025000Y-71200000D03*
D13*
X84074000Y-71200000D03*
%TD*%
D26*
%TO.P,J4,1,Pin_1*%
%TO.N,EXT_PWR*%
X112775000Y-45150000D03*
%TO.P,J4,2,Pin_2*%
%TO.N,LED_MOSI*%
X112775000Y-47150000D03*
%TO.P,J4,3,Pin_3*%
%TO.N,GND*%
X112775000Y-49250000D03*
%TD*%
D27*
%TO.P,D1,1,K*%
%TO.N,Net-(D1-Pad1)*%
X119625000Y-18725000D03*
%TO.P,D1,2,A*%
%TO.N,VDDH*%
X116825000Y-18725000D03*
%TD*%
D15*
%TO.P,SW28,1,1*%
%TO.N,COL6*%
X104532649Y-77587422D03*
D28*
X105257601Y-74881864D03*
D15*
X101750497Y-78156748D03*
D29*
%TO.P,SW28,2,2*%
%TO.N,Net-(D29-Pad2)*%
X99710744Y-85769209D03*
D15*
X100435696Y-83063651D03*
X102560448Y-84947777D03*
%TD*%
D30*
%TO.P,J1,1,Pin_1*%
%TO.N,+BATT*%
X110775000Y-34600000D03*
%TO.P,J1,2,Pin_2*%
%TO.N,GND*%
X112775000Y-34600000D03*
%TD*%
D31*
%TO.N,+5V*%
X106675497Y-4625000D03*
X106975000Y-18475000D03*
%TO.N,GND*%
X119525000Y-33725000D03*
X77754491Y-12843657D03*
X116131005Y-12725000D03*
X107875000Y-24375000D03*
X74699851Y6214858D03*
X97165535Y-76972287D03*
X17438842Y-36907981D03*
X118425000Y-2675000D03*
X103800000Y4200000D03*
X84098752Y-72023070D03*
X58770227Y8201090D03*
X105323313Y8151476D03*
X1622347Y-55948988D03*
X110178182Y-16972732D03*
X36488842Y-50957980D03*
X107875000Y-23775000D03*
X107975000Y-30175000D03*
X20604415Y-55943647D03*
X68324720Y-69999502D03*
X110375000Y-10925000D03*
X77704294Y6214073D03*
X116107577Y8328511D03*
X20674193Y-17849053D03*
X117892688Y-14157319D03*
X119525000Y-41225000D03*
X55595585Y8206353D03*
X107875000Y-23175000D03*
X119275000Y8925000D03*
X1675747Y1200881D03*
X119025000Y-23274503D03*
X109274734Y3225107D03*
X93640120Y-33906702D03*
X116473275Y-40701470D03*
X100397491Y6850500D03*
X93637743Y-52959079D03*
X111468833Y7296096D03*
X74645585Y-12843647D03*
X39781678Y-50948914D03*
X39720227Y6201090D03*
X-1606578Y-55953400D03*
X17495585Y-55943647D03*
X65101302Y-69995756D03*
X93647955Y4201133D03*
X1681678Y-17848914D03*
X118247511Y-6649500D03*
X39654492Y-12843657D03*
X113775000Y-25175000D03*
X113525000Y-16375000D03*
X74587743Y-50959079D03*
X112109699Y-4051661D03*
X93638842Y-14857980D03*
X17557001Y1216266D03*
X96940228Y4201461D03*
X58767769Y-29898812D03*
X112623249Y-11905047D03*
X118536805Y-30162342D03*
X119174503Y-27475000D03*
X105329178Y9358104D03*
X36545509Y-12843657D03*
X96817647Y-14845146D03*
X109975538Y4762686D03*
X-1611157Y-36907980D03*
X74588842Y-31907980D03*
X97944906Y-74085655D03*
X109275000Y-5676517D03*
X55595509Y-48943657D03*
X36541444Y6205860D03*
X117075000Y-31324003D03*
X20727452Y-36899065D03*
X36488842Y-31907980D03*
X17482353Y-17845147D03*
X107475000Y-26225000D03*
X58674686Y-48939461D03*
X110230132Y6317690D03*
X108925000Y-48275000D03*
X-1609880Y1193298D03*
X120263906Y-20255628D03*
X116451924Y-13463878D03*
X110573932Y6944810D03*
X110175000Y-9075497D03*
X77767647Y-31895146D03*
X87374816Y-71999502D03*
X109275000Y4575000D03*
X102355795Y4941892D03*
X-1609880Y-17856702D03*
X77817769Y-50948812D03*
X1622347Y-36898988D03*
X58642878Y-10833710D03*
X106483366Y-19105476D03*
X112834667Y6584667D03*
X115581669Y-19468748D03*
X107725500Y-25376932D03*
X96857303Y-33898307D03*
X116625000Y-23325000D03*
X96870227Y-52948910D03*
X108471562Y4024029D03*
X118199500Y-25225000D03*
X55538842Y-10857980D03*
X55703989Y-29872777D03*
X20788127Y1205259D03*
X119154914Y-4925497D03*
X39777452Y-31899064D03*
X112975000Y-9225000D03*
X107475000Y-4625000D03*
X113787500Y-28675000D03*
%TO.N,+BATT*%
X119154914Y-5725000D03*
%TO.N,VBUS*%
X117175000Y-13805000D03*
%TO.N,ROW2*%
X103150000Y4850000D03*
%TO.N,ROW3*%
X104365333Y3634668D03*
%TO.N,COL1*%
X110787944Y7715135D03*
%TO.N,COL2*%
X109775000Y6975000D03*
%TO.N,COL3*%
X109968640Y5562159D03*
%TO.N,COL4*%
X108675000Y5125000D03*
%TO.N,COL5*%
X101150000Y7150000D03*
%TO.N,SWDIO*%
X105925000Y7625000D03*
%TO.N,SWCLK*%
X105925000Y8825000D03*
%TO.N,VDDH*%
X115875000Y-18725000D03*
X109375000Y-22525000D03*
X109275000Y-4877014D03*
%TO.N,/Power Management/CHG*%
X108525000Y-25375000D03*
X119025000Y-22475000D03*
%TO.N,/USB-C/CC2*%
X110175000Y-9875000D03*
%TO.N,/USB-C/CC1*%
X110174254Y-16173239D03*
%TO.N,/Power Management/SYSOFF*%
X118375000Y-27475000D03*
%TO.N,VDD*%
X113400000Y7150000D03*
%TO.N,RESET*%
X111450000Y-3600000D03*
X117000000Y-40100000D03*
%TO.N,LED_MOSI*%
X108475232Y3224535D03*
%TO.N,Net-(R6-Pad1)*%
X117075000Y-30524500D03*
%TO.N,D+*%
X115331502Y-12725000D03*
%TO.N,D-*%
X112504155Y-12695630D03*
%TO.N,Net-(D1-Pad1)*%
X119625000Y-19775000D03*
%TD*%
D32*
%TO.N,VDDH*%
X113325000Y-18725000D02*
X115875000Y-18725000D01*
X109022986Y-4877014D02*
X109275000Y-4877014D01*
X109525000Y-22525000D02*
X113325000Y-18725000D01*
X109375000Y-22525000D02*
X108475489Y-21625489D01*
X108475489Y-21625489D02*
X108475489Y-5424511D01*
X109375000Y-22525000D02*
X109525000Y-22525000D01*
X108475489Y-5424511D02*
X109022986Y-4877014D01*
D33*
%TO.N,+5V*%
X106675497Y-4779401D02*
X106975000Y-5078904D01*
X106975000Y-5078904D02*
X106975000Y-18475000D01*
X106675497Y-4625000D02*
X106675497Y-4779401D01*
D34*
%TO.N,GND*%
X113530000Y-16375000D02*
X114180000Y-15725000D01*
D35*
X119525000Y-33725000D02*
X119525000Y-34850000D01*
D33*
X117075000Y-29725000D02*
X118099463Y-29725000D01*
D34*
X113525000Y-16375000D02*
X113530000Y-16375000D01*
D36*
X116107577Y8328511D02*
X116107577Y8302577D01*
X116107577Y8302577D02*
X115595001Y7790000D01*
D33*
X118099463Y-29725000D02*
X118536805Y-30162342D01*
D34*
X114180000Y-9225000D02*
X112975000Y-9225000D01*
D35*
X119525000Y-40100000D02*
X119525000Y-41225000D01*
D36*
%TO.N,+BATT*%
X108575000Y-2825000D02*
X111475000Y-5725000D01*
X106125000Y-2825000D02*
X108575000Y-2825000D01*
X105725000Y-3225000D02*
X106125000Y-2825000D01*
X110775000Y-34600000D02*
X105725000Y-29550000D01*
X111475000Y-5725000D02*
X119154914Y-5725000D01*
X105725000Y-29550000D02*
X105725000Y-3225000D01*
D32*
%TO.N,VBUS*%
X115304182Y-10359521D02*
X115945818Y-10359521D01*
X114969661Y-14925000D02*
X114180000Y-14925000D01*
X117175000Y-13805000D02*
X116389521Y-14590479D01*
X117175000Y-11305000D02*
X117175000Y-13805000D01*
X115950339Y-10355000D02*
X116225000Y-10355000D01*
X115304182Y-14590479D02*
X114969661Y-14925000D01*
X115945818Y-10359521D02*
X115950339Y-10355000D01*
X114969661Y-10025001D02*
X115304182Y-10359521D01*
X116225000Y-10355000D02*
X117175000Y-11305000D01*
X114180000Y-10025000D02*
X114969661Y-10025001D01*
X116389521Y-14590479D02*
X115304182Y-14590479D01*
D36*
%TO.N,ROW2*%
X102664511Y-8286489D02*
X96901000Y-14050000D01*
X102664511Y4364511D02*
X102664511Y-8286489D01*
X103150000Y4850000D02*
X102664511Y4364511D01*
%TO.N,ROW3*%
X103064031Y2333365D02*
X103064031Y-26936969D01*
X104365333Y3634668D02*
X103064031Y2333365D01*
X103064031Y-26936969D02*
X96901000Y-33100000D01*
D37*
%TO.N,Net-(D10-Pad2)*%
X12411573Y-61690000D02*
X15240000Y-61690000D01*
D36*
%TO.N,COL1*%
X2540000Y-7079999D02*
X2540000Y-26129999D01*
X104790006Y6925000D02*
X102666448Y9048558D01*
X49252877Y10000000D02*
X32700000Y10000000D01*
X27700000Y5000000D02*
X9389280Y5000000D01*
X107325000Y6925000D02*
X104790006Y6925000D01*
X65598562Y9048560D02*
X62647122Y12000000D01*
X110787944Y7715135D02*
X108115135Y7715135D01*
X2540000Y-45180000D02*
X2540000Y-64230000D01*
X108115135Y7715135D02*
X107325000Y6925000D01*
X62647122Y12000000D02*
X51252877Y12000000D01*
X9389280Y5000000D02*
X3810000Y-579280D01*
X102666448Y9048558D02*
X65598562Y9048560D01*
X51252877Y12000000D02*
X49252877Y10000000D01*
X3810000Y-579280D02*
X3810000Y-4540000D01*
X2540000Y-26129999D02*
X2540000Y-45180000D01*
X32700000Y10000000D02*
X27700000Y5000000D01*
%TO.N,COL2*%
X51489075Y11600480D02*
X49489075Y9600480D01*
X104824999Y6325000D02*
X102500960Y8649039D01*
X27865486Y4600480D02*
X27850480Y4600480D01*
X32865486Y9600480D02*
X27865486Y4600480D01*
X27850480Y4600480D02*
X22860000Y-390000D01*
X102500960Y8649039D02*
X65362364Y8649040D01*
X21590000Y-45180000D02*
X21590000Y-64230000D01*
X108275000Y6325000D02*
X104824999Y6325000D01*
X109775000Y6975000D02*
X108925000Y6975000D01*
X108925000Y6975000D02*
X108275000Y6325000D01*
X65362364Y8649040D02*
X62410924Y11600480D01*
X21590000Y-45180000D02*
X21590000Y-26129999D01*
X49489075Y9600480D02*
X32865486Y9600480D01*
X21590000Y-26129999D02*
X21589999Y-7080000D01*
X62410924Y11600480D02*
X51489075Y11600480D01*
X22860000Y-390000D02*
X22860000Y-4540000D01*
%TO.N,COL3*%
X109805799Y5725000D02*
X104789282Y5725000D01*
X40640000Y-40180000D02*
X40640000Y-59230000D01*
X40640000Y-2080000D02*
X40640000Y-21130000D01*
X41910000Y4510000D02*
X41910000Y460000D01*
X49725272Y9200960D02*
X46600960Y9200960D01*
X104789282Y5725000D02*
X102264762Y8249520D01*
X109968640Y5562159D02*
X109805799Y5725000D01*
X65126166Y8249520D02*
X62174726Y11200960D01*
X62174726Y11200960D02*
X51725272Y11200960D01*
X46600960Y9200960D02*
X41910000Y4510000D01*
X40640000Y-21130000D02*
X40640000Y-40180000D01*
X102264762Y8249520D02*
X65126166Y8249520D01*
X51725272Y11200960D02*
X49725272Y9200960D01*
%TO.N,COL4*%
X104753563Y5125000D02*
X102028563Y7850000D01*
X102028563Y7850000D02*
X63312908Y7850000D01*
X70485000Y-68025000D02*
X70485000Y-75740000D01*
X59690001Y-57230000D02*
X59690000Y-38179999D01*
X59690001Y-57230000D02*
X70485000Y-68025000D01*
X59690000Y-80000D02*
X59690001Y-19130000D01*
X108675000Y5125000D02*
X104753563Y5125000D01*
X60960000Y5497091D02*
X60960001Y2460000D01*
X63312908Y7850000D02*
X60960000Y5497091D01*
X59690000Y-38179999D02*
X59690001Y-19130000D01*
%TO.N,COL5*%
X78740000Y-59230000D02*
X78740000Y-40180000D01*
X78740000Y-2080000D02*
X78740000Y-21130000D01*
X80010000Y3497091D02*
X80010000Y460000D01*
X100850000Y7450000D02*
X83962909Y7450000D01*
X78740000Y-59230000D02*
X89534999Y-70025000D01*
X101150000Y7150000D02*
X100850000Y7450000D01*
X89534999Y-70025000D02*
X89534999Y-77740000D01*
X78740000Y-21130000D02*
X78740000Y-40180000D01*
X83962909Y7450000D02*
X80010000Y3497091D01*
%TO.N,COL6*%
X97790000Y-42180000D02*
X97790000Y-61230000D01*
X104532649Y-77587422D02*
X104532649Y-64162649D01*
X104532649Y-64162649D02*
X99060000Y-58690000D01*
%TO.N,SWDIO*%
X112795179Y9319821D02*
X113055000Y9060000D01*
X107619821Y9319821D02*
X112795179Y9319821D01*
X105925000Y7625000D02*
X107619821Y9319821D01*
%TO.N,SWCLK*%
X106853211Y9753211D02*
X113631789Y9753211D01*
X105925000Y8825000D02*
X106853211Y9753211D01*
X113631789Y9753211D02*
X114325000Y9060000D01*
D33*
%TO.N,VDDH*%
X115875000Y-18725000D02*
X115895000Y-18705000D01*
X115895000Y-18705000D02*
X116825000Y-18705000D01*
D37*
%TO.N,/Power Management/CHG*%
X110825000Y-25375000D02*
X113725000Y-22475000D01*
X113725000Y-22475000D02*
X119025000Y-22475000D01*
X108525000Y-25375000D02*
X110825000Y-25375000D01*
%TO.N,/USB-C/CC2*%
X110250008Y-9950008D02*
X111550008Y-9950008D01*
X111550008Y-9950008D02*
X112325000Y-10725000D01*
X110175000Y-9875000D02*
X110250008Y-9950008D01*
X112325000Y-10725000D02*
X114180000Y-10725000D01*
D36*
%TO.N,/USB-C/CC1*%
X110174254Y-16125746D02*
X112575000Y-13725000D01*
X112575000Y-13725000D02*
X114180000Y-13725000D01*
X110174254Y-16173239D02*
X110174254Y-16125746D01*
D37*
%TO.N,/Power Management/SYSOFF*%
X117625000Y-26725000D02*
X118375000Y-27475000D01*
%TO.N,VDD*%
X113400000Y7150000D02*
X113055000Y7495000D01*
X113055000Y7495000D02*
X113055000Y7790000D01*
%TO.N,RESET*%
X118200000Y-39725000D02*
X118200000Y-35225000D01*
D36*
X106075000Y-875000D02*
X104975000Y-1975000D01*
D37*
X117000000Y-40100000D02*
X117800000Y-40100000D01*
D36*
X111450000Y-3600000D02*
X108725000Y-875000D01*
X107500000Y-40100000D02*
X117000000Y-40100000D01*
X111450000Y1200000D02*
X114325000Y4075000D01*
X104975000Y-37575000D02*
X107500000Y-40100000D01*
X111450000Y-3600000D02*
X111450000Y1200000D01*
X108725000Y-875000D02*
X106075000Y-875000D01*
X104975000Y-1975000D02*
X104975000Y-37575000D01*
X114325000Y4075000D02*
X114325000Y7790000D01*
%TO.N,LED_MOSI*%
X108475232Y3224535D02*
X105574534Y3224535D01*
X105574534Y3224535D02*
X104075000Y1725001D01*
X104075000Y1725001D02*
X104075000Y-39412000D01*
X104075000Y-39412000D02*
X111813000Y-47150000D01*
X111813000Y-47150000D02*
X112775000Y-47150000D01*
%TO.N,Net-(R6-Pad1)*%
X115800480Y-29746344D02*
X115800480Y-26499520D01*
X116578636Y-30524500D02*
X115800480Y-29746344D01*
X115800480Y-26499520D02*
X117075000Y-25225000D01*
X117075000Y-30524500D02*
X116578636Y-30524500D01*
D38*
%TO.N,D+*%
X115331502Y-11881502D02*
X115175000Y-11725000D01*
X115331502Y-12725000D02*
X114180000Y-12725000D01*
X115331502Y-12725000D02*
X115331502Y-11881502D01*
X115175000Y-11725000D02*
X114180000Y-11725000D01*
%TO.N,D-*%
X113225619Y-12345619D02*
X112875608Y-12695630D01*
X113225619Y-13104381D02*
X113346238Y-13225000D01*
X113346238Y-12225000D02*
X113225619Y-12345619D01*
X113225619Y-12345619D02*
X113225619Y-13104381D01*
X112875608Y-12695630D02*
X112504155Y-12695630D01*
X113346238Y-13225000D02*
X114180000Y-13225000D01*
X114180000Y-12225000D02*
X113346238Y-12225000D01*
D37*
%TO.N,Net-(D1-Pad1)*%
X119625000Y-19775000D02*
X119625000Y-18705000D01*
%TD*%
M02*
