%TF.GenerationSoftware,KiCad,Pcbnew,(6.0.4)*%
%TF.CreationDate,2022-07-16T20:51:00-07:00*%
%TF.ProjectId,Conejo,436f6e65-6a6f-42e6-9b69-6361645f7063,v1.0.0*%
%TF.SameCoordinates,Original*%
%TF.FileFunction,Copper,L1,Top*%
%TF.FilePolarity,Positive*%
%FSLAX46Y46*%
G04 Gerber Fmt 4.6, Leading zero omitted, Abs format (unit mm)*
G04 Created by KiCad (PCBNEW (6.0.4)) date 2022-07-16 20:51:00*
%MOMM*%
%LPD*%
G01*
G04 APERTURE LIST*
G04 Aperture macros list*
%AMRoundRect*
0 Rectangle with rounded corners*
0 $1 Rounding radius*
0 $2 $3 $4 $5 $6 $7 $8 $9 X,Y pos of 4 corners*
0 Add a 4 corners polygon primitive as box body*
4,1,4,$2,$3,$4,$5,$6,$7,$8,$9,$2,$3,0*
0 Add four circle primitives for the rounded corners*
1,1,$1+$1,$2,$3*
1,1,$1+$1,$4,$5*
1,1,$1+$1,$6,$7*
1,1,$1+$1,$8,$9*
0 Add four rect primitives between the rounded corners*
20,1,$1+$1,$2,$3,$4,$5,0*
20,1,$1+$1,$4,$5,$6,$7,0*
20,1,$1+$1,$6,$7,$8,$9,0*
20,1,$1+$1,$8,$9,$2,$3,0*%
%AMRotRect*
0 Rectangle, with rotation*
0 The origin of the aperture is its center*
0 $1 length*
0 $2 width*
0 $3 Rotation angle, in degrees counterclockwise*
0 Add horizontal line*
21,1,$1,$2,0,0,$3*%
G04 Aperture macros list end*
%TA.AperFunction,Profile*%
%ADD10C,0.150000*%
%TD*%
%TA.AperFunction,SMDPad,CuDef*%
%ADD11R,0.700000X0.600000*%
%TD*%
%TA.AperFunction,SMDPad,CuDef*%
%ADD12RoundRect,0.125000X0.000000X0.700000X0.000000X-0.700000X0.000000X-0.700000X0.000000X0.700000X0*%
%TD*%
%TA.AperFunction,ComponentPad*%
%ADD13C,0.800000*%
%TD*%
%TA.AperFunction,SMDPad,CuDef*%
%ADD14R,3.498000X2.500000*%
%TD*%
%TA.AperFunction,ComponentPad*%
%ADD15C,4.000000*%
%TD*%
%TA.AperFunction,SMDPad,CuDef*%
%ADD16RoundRect,0.090000X0.535000X-0.210000X0.535000X0.210000X-0.535000X0.210000X-0.535000X-0.210000X0*%
%TD*%
%TA.AperFunction,SMDPad,CuDef*%
%ADD17RoundRect,0.105000X0.245000X0.445000X-0.245000X0.445000X-0.245000X-0.445000X0.245000X-0.445000X0*%
%TD*%
%TA.AperFunction,SMDPad,CuDef*%
%ADD18R,1.000000X1.550000*%
%TD*%
%TA.AperFunction,SMDPad,CuDef*%
%ADD19R,1.450000X0.600000*%
%TD*%
%TA.AperFunction,SMDPad,CuDef*%
%ADD20R,1.450000X0.300000*%
%TD*%
%TA.AperFunction,ComponentPad*%
%ADD21O,2.100000X1.000000*%
%TD*%
%TA.AperFunction,ComponentPad*%
%ADD22O,1.600000X1.000000*%
%TD*%
%TA.AperFunction,SMDPad,CuDef*%
%ADD23RotRect,0.600000X0.700000X75.000000*%
%TD*%
%TA.AperFunction,SMDPad,CuDef*%
%ADD24RoundRect,0.125000X0.181173X0.676148X-0.181173X-0.676148X-0.181173X-0.676148X0.181173X0.676148X0*%
%TD*%
%TA.AperFunction,ConnectorPad*%
%ADD25C,0.787400*%
%TD*%
%TA.AperFunction,ComponentPad*%
%ADD26R,1.524000X1.524000*%
%TD*%
%TA.AperFunction,SMDPad,CuDef*%
%ADD27RoundRect,0.250000X-0.375000X-0.625000X0.375000X-0.625000X0.375000X0.625000X-0.375000X0.625000X0*%
%TD*%
%TA.AperFunction,SMDPad,CuDef*%
%ADD28RotRect,3.498000X2.500000X75.000000*%
%TD*%
%TA.AperFunction,SMDPad,CuDef*%
%ADD29RotRect,3.498000X2.500000X255.000000*%
%TD*%
%TA.AperFunction,ComponentPad*%
%ADD30RoundRect,0.337500X-0.337500X0.337500X-0.337500X-0.337500X0.337500X-0.337500X0.337500X0.337500X0*%
%TD*%
%TA.AperFunction,ViaPad*%
%ADD31C,0.600000*%
%TD*%
%TA.AperFunction,Conductor*%
%ADD32C,0.350000*%
%TD*%
%TA.AperFunction,Conductor*%
%ADD33C,0.600000*%
%TD*%
%TA.AperFunction,Conductor*%
%ADD34C,1.000000*%
%TD*%
%TA.AperFunction,Conductor*%
%ADD35C,0.200000*%
%TD*%
%TA.AperFunction,Conductor*%
%ADD36C,0.400000*%
%TD*%
%TA.AperFunction,Conductor*%
%ADD37C,0.250000*%
%TD*%
%TA.AperFunction,Conductor*%
%ADD38C,0.205740*%
%TD*%
G04 APERTURE END LIST*
D10*
X93101679Y-93260414D02*
X76199999Y-84725000D01*
X57150000Y-69675000D02*
G75*
G03*
X56150001Y-68675000I-1000000J0D01*
G01*
X67675000Y12525000D02*
X84725000Y12525000D01*
X56150001Y-68675000D02*
X-8525000Y-68674999D01*
X27567894Y7525000D02*
X-8525000Y7525000D01*
X66675000Y13525000D02*
G75*
G03*
X65675000Y14525000I-1000000J0D01*
G01*
X85725000Y11525000D02*
G75*
G03*
X86725000Y10525000I1000000J0D01*
G01*
X57150000Y-81725000D02*
G75*
G03*
X58150000Y-82725000I1000000J0D01*
G01*
X29575000Y12525000D02*
G75*
G03*
X28575000Y11525000I0J-1000000D01*
G01*
X-9525000Y-67675000D02*
X-9525000Y6525000D01*
X46625000Y12525000D02*
X29575000Y12525000D01*
X48625000Y14525000D02*
G75*
G03*
X47625000Y13525000I0J-1000000D01*
G01*
X-9525000Y-67675000D02*
G75*
G03*
X-8525000Y-68674999I1000001J2D01*
G01*
X27567894Y7525007D02*
G75*
G03*
X28567893Y8525000I6J999993D01*
G01*
X120775000Y9525000D02*
G75*
G03*
X119775000Y10525000I-1000000J0D01*
G01*
X57150000Y-81725000D02*
X57150001Y-69675000D01*
X93101679Y-93260414D02*
X110536640Y-97932098D01*
X46625000Y12525000D02*
G75*
G03*
X47625000Y13525000I0J1000000D01*
G01*
X86725000Y10525000D02*
X119775000Y10525000D01*
X110536648Y-97932067D02*
G75*
G03*
X111761384Y-97224991I258852J965867D01*
G01*
X65675000Y14525000D02*
X48625000Y14525000D01*
X28575000Y11525000D02*
X28567893Y8525000D01*
X76199999Y-84725000D02*
X58150000Y-82725000D01*
X85725000Y11525000D02*
G75*
G03*
X84725000Y12525000I-1000000J0D01*
G01*
X120775000Y9525000D02*
X120775000Y-63575000D01*
X66675000Y13525000D02*
G75*
G03*
X67675000Y12525000I1000000J0D01*
G01*
X120775000Y-63575000D02*
X111761384Y-97224991D01*
X-8525000Y7525000D02*
G75*
G03*
X-9525000Y6525000I-1J-999999D01*
G01*
D11*
%TO.P,D21,1,K*%
%TO.N,ROW2*%
X67875000Y-14550000D03*
D12*
X67875000Y-14025000D03*
D13*
X67875000Y-13599000D03*
D12*
%TO.P,D21,2,A*%
%TO.N,Net-(D21-Pad2)*%
X67875000Y-16475000D03*
D11*
X67875000Y-15950000D03*
D13*
X67875000Y-16901000D03*
%TD*%
D14*
%TO.P,SW9,1,1*%
%TO.N,COL2*%
X24391000Y-64230000D03*
D15*
X21590000Y-64230000D03*
X22860000Y-61690000D03*
%TO.P,SW9,2,2*%
%TO.N,Net-(D10-Pad2)*%
X16510000Y-64230000D03*
X15240000Y-61690000D03*
D14*
X12439000Y-61690000D03*
%TD*%
D15*
%TO.P,SW14,1,1*%
%TO.N,COL4*%
X59690000Y-80000D03*
D14*
X62491000Y-80000D03*
D15*
X60960000Y2460000D03*
%TO.P,SW14,2,2*%
%TO.N,Net-(D15-Pad2)*%
X54610000Y-80000D03*
X53340000Y2460000D03*
D14*
X50539000Y2460000D03*
%TD*%
D13*
%TO.P,D8,1,K*%
%TO.N,ROW2*%
X10725000Y-18599000D03*
D11*
X10725000Y-19550000D03*
D12*
X10725000Y-19025000D03*
%TO.P,D8,2,A*%
%TO.N,Net-(D8-Pad2)*%
X10725000Y-21475000D03*
D13*
X10725000Y-21901000D03*
D11*
X10725000Y-20950000D03*
%TD*%
D13*
%TO.P,D4,1,K*%
%TO.N,ROW2*%
X-8325000Y-18599000D03*
D12*
X-8325000Y-19025000D03*
D11*
X-8325000Y-19550000D03*
%TO.P,D4,2,A*%
%TO.N,Net-(D4-Pad2)*%
X-8325000Y-20950000D03*
D13*
X-8325000Y-21901000D03*
D12*
X-8325000Y-21475000D03*
%TD*%
D15*
%TO.P,SW4,1,1*%
%TO.N,COL1*%
X2540000Y-45180000D03*
X3810000Y-42640000D03*
D14*
X5341000Y-45180000D03*
D15*
%TO.P,SW4,2,2*%
%TO.N,Net-(D5-Pad2)*%
X-3810000Y-42640000D03*
D14*
X-6611000Y-42640000D03*
D15*
X-2540000Y-45180000D03*
%TD*%
%TO.P,SW25,1,1*%
%TO.N,COL6*%
X99060000Y-20590000D03*
X97790000Y-23130000D03*
D14*
X100591000Y-23130000D03*
D15*
%TO.P,SW25,2,2*%
%TO.N,Net-(D26-Pad2)*%
X92710000Y-23130000D03*
D14*
X88639000Y-20590000D03*
D15*
X91440000Y-20590000D03*
%TD*%
%TO.P,SW21,1,1*%
%TO.N,COL5*%
X78740000Y-40180000D03*
X80010000Y-37640000D03*
D14*
X81541000Y-40180000D03*
D15*
%TO.P,SW21,2,2*%
%TO.N,Net-(D22-Pad2)*%
X73660000Y-40180000D03*
D14*
X69589000Y-37640000D03*
D15*
X72390000Y-37640000D03*
%TD*%
D16*
%TO.P,SW1,1,A*%
%TO.N,GND*%
X117075000Y-29725000D03*
%TO.P,SW1,2,B*%
%TO.N,/Power Management/SYSOFF*%
X117075000Y-26725000D03*
%TO.P,SW1,3,C*%
%TO.N,Net-(R6-Pad1)*%
X117075000Y-25225000D03*
D17*
%TO.P,SW1,MP*%
%TO.N,N/C*%
X117925000Y-23775000D03*
X120225000Y-31175000D03*
X120225000Y-23775000D03*
X117925000Y-31175000D03*
%TD*%
D13*
%TO.P,D17,1,K*%
%TO.N,ROW3*%
X48825000Y-30649000D03*
D11*
X48825000Y-31600000D03*
D12*
X48825000Y-31075000D03*
D11*
%TO.P,D17,2,A*%
%TO.N,Net-(D17-Pad2)*%
X48825000Y-33000000D03*
D13*
X48825000Y-33951000D03*
D12*
X48825000Y-33525000D03*
%TD*%
%TO.P,D28,1,K*%
%TO.N,ROW4*%
X86925000Y-54125000D03*
D13*
X86925000Y-53699000D03*
D11*
X86925000Y-54650000D03*
D13*
%TO.P,D28,2,A*%
%TO.N,Net-(D28-Pad2)*%
X86925000Y-57001000D03*
D12*
X86925000Y-56575000D03*
D11*
X86925000Y-56050000D03*
%TD*%
%TO.P,D6,1,K*%
%TO.N,ROW4*%
X-8325000Y-57650000D03*
D13*
X-8325000Y-56699000D03*
D12*
X-8325000Y-57125000D03*
D13*
%TO.P,D6,2,A*%
%TO.N,Net-(D6-Pad2)*%
X-8325000Y-60001000D03*
D11*
X-8325000Y-59050000D03*
D12*
X-8325000Y-59575000D03*
%TD*%
D11*
%TO.P,D5,1,K*%
%TO.N,ROW3*%
X-8325000Y-38600000D03*
D13*
X-8325000Y-37649000D03*
D12*
X-8325000Y-38075000D03*
%TO.P,D5,2,A*%
%TO.N,Net-(D5-Pad2)*%
X-8325000Y-40525000D03*
D11*
X-8325000Y-40000000D03*
D13*
X-8325000Y-40951000D03*
%TD*%
D15*
%TO.P,SW18,1,1*%
%TO.N,COL4*%
X69215000Y-78280000D03*
D14*
X72016000Y-78280000D03*
D15*
X70485000Y-75740000D03*
%TO.P,SW18,2,2*%
%TO.N,Net-(D19-Pad2)*%
X64135000Y-78280000D03*
D14*
X60064000Y-75740000D03*
D15*
X62865000Y-75740000D03*
%TD*%
D13*
%TO.P,D9,1,K*%
%TO.N,ROW3*%
X10725000Y-37649000D03*
D12*
X10725000Y-38075000D03*
D11*
X10725000Y-38600000D03*
D12*
%TO.P,D9,2,A*%
%TO.N,Net-(D9-Pad2)*%
X10725000Y-40525000D03*
D13*
X10725000Y-40951000D03*
D11*
X10725000Y-40000000D03*
%TD*%
%TO.P,D16,1,K*%
%TO.N,ROW2*%
X48825000Y-12550000D03*
D12*
X48825000Y-12025000D03*
D13*
X48825000Y-11599000D03*
%TO.P,D16,2,A*%
%TO.N,Net-(D16-Pad2)*%
X48825000Y-14901000D03*
D12*
X48825000Y-14475000D03*
D11*
X48825000Y-13950000D03*
%TD*%
D15*
%TO.P,SW10,1,1*%
%TO.N,COL3*%
X40640000Y-2080000D03*
D14*
X43441000Y-2080000D03*
D15*
X41910000Y460000D03*
%TO.P,SW10,2,2*%
%TO.N,Net-(D11-Pad2)*%
X34290000Y460000D03*
D14*
X31489000Y460000D03*
D15*
X35560000Y-2080000D03*
%TD*%
D11*
%TO.P,D18,1,K*%
%TO.N,ROW4*%
X48825000Y-50650000D03*
D13*
X48825000Y-49699000D03*
D12*
X48825000Y-50125000D03*
D13*
%TO.P,D18,2,A*%
%TO.N,Net-(D18-Pad2)*%
X48825000Y-53001000D03*
D11*
X48825000Y-52050000D03*
D12*
X48825000Y-52575000D03*
%TD*%
%TO.P,D19,1,K*%
%TO.N,ROW5*%
X58350000Y-71175000D03*
D13*
X58350000Y-70749000D03*
D11*
X58350000Y-71700000D03*
%TO.P,D19,2,A*%
%TO.N,Net-(D19-Pad2)*%
X58350000Y-73100000D03*
D13*
X58350000Y-74051000D03*
D12*
X58350000Y-73625000D03*
%TD*%
%TO.P,D20,1,K*%
%TO.N,ROW1*%
X67875000Y5025000D03*
D11*
X67875000Y4500000D03*
D13*
X67875000Y5451000D03*
D11*
%TO.P,D20,2,A*%
%TO.N,Net-(D20-Pad2)*%
X67875000Y3100000D03*
D12*
X67875000Y2575000D03*
D13*
X67875000Y2149000D03*
%TD*%
D15*
%TO.P,SW6,1,1*%
%TO.N,COL2*%
X22860000Y-4540000D03*
X21590000Y-7080000D03*
D14*
X24391000Y-7080000D03*
D15*
%TO.P,SW6,2,2*%
%TO.N,Net-(D7-Pad2)*%
X15240000Y-4540000D03*
X16510000Y-7080000D03*
D14*
X12439000Y-4540000D03*
%TD*%
D15*
%TO.P,SW11,1,1*%
%TO.N,COL3*%
X40640000Y-21130000D03*
X41910000Y-18590000D03*
D14*
X43441000Y-21130000D03*
D15*
%TO.P,SW11,2,2*%
%TO.N,Net-(D12-Pad2)*%
X34290000Y-18590000D03*
D14*
X31489000Y-18590000D03*
D15*
X35560000Y-21130000D03*
%TD*%
D18*
%TO.P,SW29,1,1*%
%TO.N,GND*%
X119525000Y-34850000D03*
X119525000Y-40100000D03*
%TO.P,SW29,2,2*%
%TO.N,RESET*%
X117825000Y-40100000D03*
X117825000Y-34850000D03*
%TD*%
D13*
%TO.P,D15,1,K*%
%TO.N,ROW1*%
X48825000Y7451000D03*
D11*
X48825000Y6500000D03*
D12*
X48825000Y7025000D03*
%TO.P,D15,2,A*%
%TO.N,Net-(D15-Pad2)*%
X48825000Y4575000D03*
D13*
X48825000Y4149000D03*
D11*
X48825000Y5100000D03*
%TD*%
D12*
%TO.P,D12,1,K*%
%TO.N,ROW2*%
X29775000Y-14025000D03*
D11*
X29775000Y-14550000D03*
D13*
X29775000Y-13599000D03*
D12*
%TO.P,D12,2,A*%
%TO.N,Net-(D12-Pad2)*%
X29775000Y-16475000D03*
D13*
X29775000Y-16901000D03*
D11*
X29775000Y-15950000D03*
%TD*%
D15*
%TO.P,SW24,1,1*%
%TO.N,COL6*%
X99060000Y-1540000D03*
D14*
X100591000Y-4080000D03*
D15*
X97790000Y-4080000D03*
%TO.P,SW24,2,2*%
%TO.N,Net-(D25-Pad2)*%
X92710000Y-4080000D03*
X91440000Y-1540000D03*
D14*
X88639000Y-1540000D03*
%TD*%
%TO.P,SW27,1,1*%
%TO.N,COL6*%
X100591000Y-61230000D03*
D15*
X97790000Y-61230000D03*
X99060000Y-58690000D03*
%TO.P,SW27,2,2*%
%TO.N,Net-(D28-Pad2)*%
X92710000Y-61230000D03*
X91440000Y-58690000D03*
D14*
X88639000Y-58690000D03*
%TD*%
D15*
%TO.P,SW8,1,1*%
%TO.N,COL2*%
X22860000Y-42640000D03*
D14*
X24391000Y-45180000D03*
D15*
X21590000Y-45180000D03*
D14*
%TO.P,SW8,2,2*%
%TO.N,Net-(D9-Pad2)*%
X12439000Y-42640000D03*
D15*
X16510000Y-45180000D03*
X15240000Y-42640000D03*
%TD*%
D12*
%TO.P,D22,1,K*%
%TO.N,ROW3*%
X67875000Y-33075000D03*
D13*
X67875000Y-32649000D03*
D11*
X67875000Y-33600000D03*
D12*
%TO.P,D22,2,A*%
%TO.N,Net-(D22-Pad2)*%
X67875000Y-35525000D03*
D11*
X67875000Y-35000000D03*
D13*
X67875000Y-35951000D03*
%TD*%
D15*
%TO.P,SW5,1,1*%
%TO.N,COL1*%
X2540000Y-64230000D03*
D14*
X5341000Y-64230000D03*
D15*
X3810000Y-61690000D03*
D14*
%TO.P,SW5,2,2*%
%TO.N,Net-(D6-Pad2)*%
X-6611000Y-61690000D03*
D15*
X-2540000Y-64230000D03*
X-3810000Y-61690000D03*
%TD*%
D14*
%TO.P,SW19,1,1*%
%TO.N,COL5*%
X81541000Y-2080000D03*
D15*
X80010000Y460000D03*
X78740000Y-2080000D03*
%TO.P,SW19,2,2*%
%TO.N,Net-(D20-Pad2)*%
X73660000Y-2080000D03*
X72390000Y460000D03*
D14*
X69589000Y460000D03*
%TD*%
D15*
%TO.P,SW23,1,1*%
%TO.N,COL5*%
X88265000Y-80280000D03*
X89535000Y-77740000D03*
D14*
X91066000Y-80280000D03*
D15*
%TO.P,SW23,2,2*%
%TO.N,Net-(D24-Pad2)*%
X81915000Y-77740000D03*
D14*
X79114000Y-77740000D03*
D15*
X83185000Y-80280000D03*
%TD*%
D14*
%TO.P,SW16,1,1*%
%TO.N,COL4*%
X62491000Y-38179999D03*
D15*
X59690000Y-38179999D03*
X60960000Y-35639999D03*
%TO.P,SW16,2,2*%
%TO.N,Net-(D17-Pad2)*%
X54610000Y-38179999D03*
D14*
X50539000Y-35639999D03*
D15*
X53340000Y-35639999D03*
%TD*%
%TO.P,SW7,1,1*%
%TO.N,COL2*%
X22860000Y-23589999D03*
X21590000Y-26129999D03*
D14*
X24391000Y-26129999D03*
%TO.P,SW7,2,2*%
%TO.N,Net-(D8-Pad2)*%
X12439000Y-23589999D03*
D15*
X15240000Y-23589999D03*
X16510000Y-26129999D03*
%TD*%
D13*
%TO.P,D3,1,K*%
%TO.N,ROW1*%
X-8325000Y451000D03*
D11*
X-8325000Y-500000D03*
D12*
X-8325000Y25000D03*
D13*
%TO.P,D3,2,A*%
%TO.N,Net-(D3-Pad2)*%
X-8325000Y-2851000D03*
D12*
X-8325000Y-2425000D03*
D11*
X-8325000Y-1900000D03*
%TD*%
D15*
%TO.P,SW20,1,1*%
%TO.N,COL5*%
X78740000Y-21130000D03*
X80010000Y-18590000D03*
D14*
X81541000Y-21130000D03*
D15*
%TO.P,SW20,2,2*%
%TO.N,Net-(D21-Pad2)*%
X72390000Y-18590000D03*
D14*
X69589000Y-18590000D03*
D15*
X73660000Y-21130000D03*
%TD*%
D12*
%TO.P,D23,1,K*%
%TO.N,ROW4*%
X67875000Y-52125000D03*
D13*
X67875000Y-51699000D03*
D11*
X67875000Y-52650000D03*
%TO.P,D23,2,A*%
%TO.N,Net-(D23-Pad2)*%
X67875000Y-54050000D03*
D13*
X67875000Y-55001000D03*
D12*
X67875000Y-54575000D03*
%TD*%
D15*
%TO.P,SW15,1,1*%
%TO.N,COL4*%
X59690002Y-19130000D03*
X60960002Y-16590000D03*
D14*
X62491002Y-19130000D03*
%TO.P,SW15,2,2*%
%TO.N,Net-(D16-Pad2)*%
X50539002Y-16590000D03*
D15*
X54610002Y-19130000D03*
X53340002Y-16590000D03*
%TD*%
%TO.P,SW26,1,1*%
%TO.N,COL6*%
X99060000Y-39640000D03*
X97790000Y-42180000D03*
D14*
X100591000Y-42180000D03*
%TO.P,SW26,2,2*%
%TO.N,Net-(D27-Pad2)*%
X88639000Y-39640000D03*
D15*
X91440000Y-39640000D03*
X92710000Y-42180000D03*
%TD*%
D13*
%TO.P,D13,1,K*%
%TO.N,ROW3*%
X29775000Y-32649000D03*
D12*
X29775000Y-33075000D03*
D11*
X29775000Y-33600000D03*
D13*
%TO.P,D13,2,A*%
%TO.N,Net-(D13-Pad2)*%
X29775000Y-35951000D03*
D12*
X29775000Y-35525000D03*
D11*
X29775000Y-35000000D03*
%TD*%
D12*
%TO.P,D7,1,K*%
%TO.N,ROW1*%
X10725000Y25000D03*
D13*
X10725000Y451000D03*
D11*
X10725000Y-500000D03*
D13*
%TO.P,D7,2,A*%
%TO.N,Net-(D7-Pad2)*%
X10725000Y-2851000D03*
D11*
X10725000Y-1900000D03*
D12*
X10725000Y-2425000D03*
%TD*%
D11*
%TO.P,D26,1,K*%
%TO.N,ROW2*%
X86925000Y-16550000D03*
D12*
X86925000Y-16025000D03*
D13*
X86925000Y-15599000D03*
D11*
%TO.P,D26,2,A*%
%TO.N,Net-(D26-Pad2)*%
X86925000Y-17950000D03*
D13*
X86925000Y-18901000D03*
D12*
X86925000Y-18475000D03*
%TD*%
D13*
%TO.P,D14,1,K*%
%TO.N,ROW4*%
X29775000Y-51699000D03*
D11*
X29775000Y-52650000D03*
D12*
X29775000Y-52125000D03*
D11*
%TO.P,D14,2,A*%
%TO.N,Net-(D14-Pad2)*%
X29775000Y-54050000D03*
D13*
X29775000Y-55001000D03*
D12*
X29775000Y-54575000D03*
%TD*%
%TO.P,D25,1,K*%
%TO.N,ROW1*%
X86925000Y3025000D03*
D11*
X86925000Y2500000D03*
D13*
X86925000Y3451000D03*
%TO.P,D25,2,A*%
%TO.N,Net-(D25-Pad2)*%
X86925000Y149000D03*
D12*
X86925000Y575000D03*
D11*
X86925000Y1100000D03*
%TD*%
D15*
%TO.P,SW17,1,1*%
%TO.N,COL4*%
X60960000Y-54690000D03*
D14*
X62491000Y-57230000D03*
D15*
X59690000Y-57230000D03*
D14*
%TO.P,SW17,2,2*%
%TO.N,Net-(D18-Pad2)*%
X50539000Y-54690000D03*
D15*
X54610000Y-57230000D03*
X53340000Y-54690000D03*
%TD*%
D19*
%TO.P,J2,A1,GND*%
%TO.N,GND*%
X114180000Y-15725000D03*
%TO.P,J2,A4,VBUS*%
%TO.N,VBUS*%
X114180000Y-14925000D03*
D20*
%TO.P,J2,A5,CC1*%
%TO.N,/USB-C/CC1*%
X114180000Y-13725000D03*
%TO.P,J2,A6,D+*%
%TO.N,D+*%
X114180000Y-12725000D03*
%TO.P,J2,A7,D-*%
%TO.N,D-*%
X114180000Y-12225000D03*
%TO.P,J2,A8,SBU1*%
%TO.N,unconnected-(J2-PadA8)*%
X114180000Y-11225000D03*
D19*
%TO.P,J2,A9,VBUS*%
%TO.N,VBUS*%
X114180000Y-10025000D03*
%TO.P,J2,A12,GND*%
%TO.N,GND*%
X114180000Y-9225000D03*
%TO.P,J2,B1,GND*%
X114180000Y-9225000D03*
%TO.P,J2,B4,VBUS*%
%TO.N,VBUS*%
X114180000Y-10025000D03*
D20*
%TO.P,J2,B5,CC2*%
%TO.N,/USB-C/CC2*%
X114180000Y-10725000D03*
%TO.P,J2,B6,D+*%
%TO.N,D+*%
X114180000Y-11725000D03*
%TO.P,J2,B7,D-*%
%TO.N,D-*%
X114180000Y-13225000D03*
%TO.P,J2,B8,SBU2*%
%TO.N,unconnected-(J2-PadB8)*%
X114180000Y-14225000D03*
D19*
%TO.P,J2,B9,VBUS*%
%TO.N,VBUS*%
X114180000Y-14925000D03*
%TO.P,J2,B12,GND*%
%TO.N,GND*%
X114180000Y-15725000D03*
D21*
%TO.P,J2,S1,SHIELD*%
X115095000Y-16795000D03*
D22*
X119275000Y-16795000D03*
D21*
X115095000Y-8155000D03*
D22*
X119275000Y-8155000D03*
%TD*%
D15*
%TO.P,SW22,1,1*%
%TO.N,COL5*%
X78740000Y-59230000D03*
D14*
X81541000Y-59230000D03*
D15*
X80010000Y-56690000D03*
D14*
%TO.P,SW22,2,2*%
%TO.N,Net-(D23-Pad2)*%
X69589000Y-56690000D03*
D15*
X73660000Y-59230000D03*
X72390000Y-56690000D03*
%TD*%
D23*
%TO.P,D29,1,K*%
%TO.N,ROW5*%
X98523117Y-74980777D03*
D24*
X98658997Y-74473666D03*
D13*
X98769254Y-74062181D03*
%TO.P,D29,2,A*%
%TO.N,Net-(D29-Pad2)*%
X97914634Y-77251669D03*
D24*
X98024891Y-76840184D03*
D23*
X98160771Y-76333073D03*
%TD*%
D12*
%TO.P,D10,1,K*%
%TO.N,ROW4*%
X10725000Y-57125000D03*
D11*
X10725000Y-57650000D03*
D13*
X10725000Y-56699000D03*
D11*
%TO.P,D10,2,A*%
%TO.N,Net-(D10-Pad2)*%
X10725000Y-59050000D03*
D12*
X10725000Y-59575000D03*
D13*
X10725000Y-60001000D03*
%TD*%
D15*
%TO.P,SW2,1,1*%
%TO.N,COL1*%
X2540000Y-7080000D03*
D14*
X5341000Y-7080000D03*
D15*
X3810000Y-4540000D03*
%TO.P,SW2,2,2*%
%TO.N,Net-(D3-Pad2)*%
X-3810000Y-4540000D03*
D14*
X-6611000Y-4540000D03*
D15*
X-2540000Y-7080000D03*
%TD*%
%TO.P,SW3,1,1*%
%TO.N,COL1*%
X2540000Y-26130000D03*
X3810000Y-23590000D03*
D14*
X5341000Y-26130000D03*
D15*
%TO.P,SW3,2,2*%
%TO.N,Net-(D4-Pad2)*%
X-3810000Y-23590000D03*
X-2540000Y-26130000D03*
D14*
X-6611000Y-23590000D03*
%TD*%
D13*
%TO.P,D27,1,K*%
%TO.N,ROW3*%
X86925000Y-34649000D03*
D11*
X86925000Y-35600000D03*
D12*
X86925000Y-35075000D03*
D13*
%TO.P,D27,2,A*%
%TO.N,Net-(D27-Pad2)*%
X86925000Y-37951000D03*
D12*
X86925000Y-37525000D03*
D11*
X86925000Y-37000000D03*
%TD*%
D14*
%TO.P,SW12,1,1*%
%TO.N,COL3*%
X43441000Y-40180000D03*
D15*
X40640000Y-40180000D03*
X41910000Y-37640000D03*
%TO.P,SW12,2,2*%
%TO.N,Net-(D13-Pad2)*%
X35560000Y-40180000D03*
X34290000Y-37640000D03*
D14*
X31489000Y-37640000D03*
%TD*%
D12*
%TO.P,D11,1,K*%
%TO.N,ROW1*%
X29775000Y5025000D03*
D11*
X29775000Y4500000D03*
D13*
X29775000Y5451000D03*
D11*
%TO.P,D11,2,A*%
%TO.N,Net-(D11-Pad2)*%
X29775000Y3100000D03*
D13*
X29775000Y2149000D03*
D12*
X29775000Y2575000D03*
%TD*%
D14*
%TO.P,SW13,1,1*%
%TO.N,COL3*%
X43441000Y-59230000D03*
D15*
X40640000Y-59230000D03*
X41910000Y-56690000D03*
%TO.P,SW13,2,2*%
%TO.N,Net-(D14-Pad2)*%
X34290000Y-56690000D03*
D14*
X31489000Y-56690000D03*
D15*
X35560000Y-59230000D03*
%TD*%
D25*
%TO.P,J3,1,VCC*%
%TO.N,VDD*%
X58420000Y12610000D03*
%TO.P,J3,2,SWDIO*%
%TO.N,SWDIO*%
X58420000Y11340000D03*
%TO.P,J3,3,~{RST}*%
%TO.N,RESET*%
X57150000Y12610000D03*
%TO.P,J3,4,SWCLK*%
%TO.N,SWCLK*%
X57150000Y11340000D03*
%TO.P,J3,5,GND*%
%TO.N,GND*%
X55880000Y12610000D03*
%TO.P,J3,6,SWO*%
%TO.N,unconnected-(J3-Pad6)*%
X55880000Y11340000D03*
%TD*%
D13*
%TO.P,D24,1,K*%
%TO.N,ROW5*%
X77400000Y-72749000D03*
D12*
X77400000Y-73175000D03*
D11*
X77400000Y-73700000D03*
D12*
%TO.P,D24,2,A*%
%TO.N,Net-(D24-Pad2)*%
X77400000Y-75625000D03*
D11*
X77400000Y-75100000D03*
D13*
X77400000Y-76051000D03*
%TD*%
D26*
%TO.P,J4,1,Pin_1*%
%TO.N,EXT_PWR*%
X112775000Y-45150000D03*
%TO.P,J4,2,Pin_2*%
%TO.N,LED_MOSI*%
X112775000Y-47150000D03*
%TO.P,J4,3,Pin_3*%
%TO.N,GND*%
X112775000Y-49250000D03*
%TD*%
D27*
%TO.P,D1,1,K*%
%TO.N,Net-(D1-Pad1)*%
X119625000Y-18725000D03*
%TO.P,D1,2,A*%
%TO.N,VDDH*%
X116825000Y-18725000D03*
%TD*%
D15*
%TO.P,SW28,1,1*%
%TO.N,COL6*%
X104532649Y-77587422D03*
D28*
X105257601Y-74881864D03*
D15*
X101750497Y-78156748D03*
D29*
%TO.P,SW28,2,2*%
%TO.N,Net-(D29-Pad2)*%
X99710744Y-85769209D03*
D15*
X100435696Y-83063651D03*
X102560448Y-84947777D03*
%TD*%
D30*
%TO.P,J1,1,Pin_1*%
%TO.N,+BATT*%
X110775000Y-34600000D03*
%TO.P,J1,2,Pin_2*%
%TO.N,GND*%
X112775000Y-34600000D03*
%TD*%
D31*
%TO.N,+5V*%
X106675000Y-4675000D03*
X106975000Y-18475000D03*
%TO.N,GND*%
X119525000Y-33725000D03*
X116131005Y-12725000D03*
X108125000Y-24375000D03*
X118425000Y-2675000D03*
X49623742Y-33890497D03*
X87656269Y-54022187D03*
X106122731Y8928193D03*
X30572174Y-54940017D03*
X110075000Y-16775000D03*
X98728260Y-77107409D03*
X49620777Y4226095D03*
X108125000Y-23775000D03*
X108175000Y-30175000D03*
X11525000Y-21840497D03*
X110375000Y-10925000D03*
X117892688Y-14157319D03*
X119525000Y-41225000D03*
X-7593204Y129010D03*
X30511276Y-13910613D03*
X108125000Y-23175000D03*
X119275000Y8925000D03*
X110598647Y7248990D03*
X68671914Y-54936714D03*
X119025000Y-23274503D03*
X68670777Y-35873905D03*
X117924483Y-13526649D03*
X116473275Y-40701470D03*
X89425000Y5175500D03*
X108855729Y1424520D03*
X59081269Y-71072187D03*
X111624503Y8125000D03*
X68621270Y-32935855D03*
X49558727Y-30980227D03*
X-7578563Y-56985421D03*
X-7528528Y-21831462D03*
X30514725Y-32987564D03*
X11521062Y-2776903D03*
X119179353Y-5824490D03*
X49561311Y-50033352D03*
X30511276Y5139387D03*
X113775000Y-25175000D03*
X113525000Y-16375000D03*
X68670777Y-16823905D03*
X55875000Y13275000D03*
X68614838Y-52037704D03*
X111475000Y-1175497D03*
X11520777Y-59923905D03*
X105995043Y1785590D03*
X112471835Y-11896781D03*
X104862919Y2461015D03*
X118536805Y-30162342D03*
X119174503Y-27475000D03*
X11520777Y-40873905D03*
X107675000Y-25975000D03*
X103748663Y8895844D03*
X91925000Y5974503D03*
X30570777Y-35873905D03*
X68611276Y5139387D03*
X68671931Y2213069D03*
X61990334Y12540334D03*
X87721342Y-56929988D03*
X49564838Y7112296D03*
X109275000Y-5774503D03*
X94425000Y6673665D03*
X30505801Y-52023245D03*
X117075000Y-31324003D03*
X30570469Y2229212D03*
X30568713Y-16804958D03*
X11456269Y127813D03*
X68615460Y-13900535D03*
X108925000Y-48275000D03*
X87721914Y213286D03*
X-7527866Y-2789500D03*
X120263906Y-20255628D03*
X11462127Y-18908594D03*
X116447443Y-13473540D03*
X49622005Y-14837855D03*
X11480276Y-38008019D03*
X110175000Y-9125000D03*
X-7585162Y-18937704D03*
X103784153Y3093911D03*
X-7528093Y-59936629D03*
X-7528938Y-40876903D03*
X49598576Y-11985265D03*
X106483366Y-19105476D03*
X78195783Y-75973966D03*
X87667138Y3153620D03*
X115581669Y-19468748D03*
X87665040Y-15937958D03*
X87655617Y-34976532D03*
X116625000Y-23325000D03*
X78133800Y-73080314D03*
X59148988Y-73990498D03*
X118199500Y-25225000D03*
X87720469Y-37870788D03*
X99394117Y-74576108D03*
X-7572914Y-37920239D03*
X49621106Y-52927384D03*
X11461276Y-57010613D03*
X107607227Y-25319641D03*
X112975000Y-9225000D03*
X87720469Y-18820788D03*
X107474503Y-4675000D03*
X113787500Y-28675000D03*
%TO.N,+BATT*%
X119175000Y-5025000D03*
%TO.N,VBUS*%
X117175000Y-13805000D03*
%TO.N,ROW2*%
X104275000Y3725000D03*
%TO.N,ROW3*%
X105375000Y3075000D03*
%TO.N,ROW4*%
X106475000Y2425000D03*
%TO.N,ROW5*%
X108056279Y1433689D03*
%TO.N,COL1*%
X110825000Y8125000D03*
%TO.N,COL2*%
X109775000Y7273165D03*
%TO.N,COL3*%
X94425000Y5874162D03*
%TO.N,COL4*%
X91925000Y5175000D03*
%TO.N,COL5*%
X89425000Y4375000D03*
%TO.N,SWDIO*%
X102925000Y8871684D03*
%TO.N,SWCLK*%
X105325000Y8875000D03*
%TO.N,VDDH*%
X115875000Y-18725000D03*
X109375000Y-22525000D03*
X109275000Y-4975000D03*
%TO.N,/Power Management/CHG*%
X108405903Y-25355983D03*
X119025000Y-22475000D03*
%TO.N,/USB-C/CC2*%
X110175000Y-9924503D03*
%TO.N,/USB-C/CC1*%
X110075000Y-15975497D03*
%TO.N,/Power Management/SYSOFF*%
X118375000Y-27475000D03*
%TO.N,VDD*%
X61425000Y11975000D03*
%TO.N,RESET*%
X111475000Y-1975000D03*
X117000000Y-40100000D03*
%TO.N,Net-(R6-Pad1)*%
X117075000Y-30524500D03*
%TO.N,D+*%
X115331502Y-12725000D03*
%TO.N,D-*%
X112504155Y-12695630D03*
%TO.N,Net-(D1-Pad1)*%
X119625000Y-19775000D03*
%TD*%
D32*
%TO.N,+5V*%
X106675000Y-18175000D02*
X106975000Y-18475000D01*
X106675000Y-4675000D02*
X106675000Y-18175000D01*
D33*
%TO.N,GND*%
X113530000Y-16375000D02*
X114180000Y-15725000D01*
D34*
X119525000Y-33725000D02*
X119525000Y-34850000D01*
D32*
X117075000Y-29725000D02*
X118099463Y-29725000D01*
D33*
X113525000Y-16375000D02*
X113530000Y-16375000D01*
D32*
X55875000Y13275000D02*
X55855000Y13255000D01*
X118099463Y-29725000D02*
X118536805Y-30162342D01*
X55855000Y13255000D02*
X55855000Y12760000D01*
D33*
X114180000Y-9225000D02*
X112975000Y-9225000D01*
D34*
X119525000Y-40100000D02*
X119525000Y-41225000D01*
D35*
%TO.N,+BATT*%
X105725000Y-3775000D02*
X105725000Y-29550000D01*
X108825000Y-3075000D02*
X106425000Y-3075000D01*
X110775000Y-5025000D02*
X108825000Y-3075000D01*
X106425000Y-3075000D02*
X105725000Y-3775000D01*
X105725000Y-29550000D02*
X110775000Y-34600000D01*
X119175000Y-5025000D02*
X110775000Y-5025000D01*
D36*
%TO.N,VBUS*%
X115304182Y-10359521D02*
X115945818Y-10359521D01*
X114969661Y-14925000D02*
X114180000Y-14925000D01*
X117175000Y-13805000D02*
X116389521Y-14590479D01*
X117175000Y-11305000D02*
X117175000Y-13805000D01*
X115950339Y-10355000D02*
X116225000Y-10355000D01*
X115304182Y-14590479D02*
X114969661Y-14925000D01*
X115945818Y-10359521D02*
X115950339Y-10355000D01*
X114969661Y-10025001D02*
X115304182Y-10359521D01*
X116225000Y-10355000D02*
X117175000Y-11305000D01*
X114180000Y-10025000D02*
X114969661Y-10025001D01*
X116389521Y-14590479D02*
X115304182Y-14590479D01*
D35*
%TO.N,ROW2*%
X103567404Y3725000D02*
X102675000Y2832596D01*
X104275000Y3725000D02*
X103567404Y3725000D01*
X102675000Y-8575000D02*
X100225000Y-11025000D01*
X91499000Y-11025000D02*
X86925000Y-15599000D01*
X100225000Y-11025000D02*
X91499000Y-11025000D01*
X102675000Y2832596D02*
X102675000Y-8575000D01*
%TO.N,ROW3*%
X91499000Y-30075000D02*
X86925000Y-34649000D01*
X104625000Y3075000D02*
X103425000Y1875000D01*
X100225000Y-30075000D02*
X91499000Y-30075000D01*
X103425000Y-26875000D02*
X100225000Y-30075000D01*
X103425000Y1875000D02*
X103425000Y-26875000D01*
X105375000Y3075000D02*
X104625000Y3075000D01*
%TO.N,ROW4*%
X100225000Y-49175000D02*
X91372800Y-49175000D01*
X91372800Y-49175000D02*
X86925000Y-53622800D01*
X105725000Y2425000D02*
X103975000Y675000D01*
X103975000Y675000D02*
X103975000Y-45425000D01*
X106475000Y2425000D02*
X105725000Y2425000D01*
X103975000Y-45425000D02*
X100225000Y-49175000D01*
%TO.N,ROW5*%
X105975000Y525000D02*
X104525000Y-925000D01*
X104525000Y-68306435D02*
X98769254Y-74062181D01*
X108056279Y806279D02*
X107775000Y525000D01*
X104525000Y-925000D02*
X104525000Y-68306435D01*
X108056279Y1433689D02*
X108056279Y806279D01*
X107775000Y525000D02*
X105975000Y525000D01*
%TO.N,COL1*%
X58475000Y9225000D02*
X30975000Y9225000D01*
X110572665Y7872665D02*
X59827335Y7872665D01*
X30975000Y9225000D02*
X26725000Y4975000D01*
X59827335Y7872665D02*
X58475000Y9225000D01*
X3810000Y-23590000D02*
X3810000Y-42640000D01*
X26725000Y4975000D02*
X10323265Y4975000D01*
X10323265Y4975000D02*
X3810000Y-1538265D01*
X3810000Y-42640000D02*
X3810000Y-61690000D01*
X3810000Y-1538265D02*
X3810000Y-4540000D01*
X3810000Y-4540000D02*
X3810000Y-23590000D01*
X110825000Y8125000D02*
X110572665Y7872665D01*
%TO.N,COL2*%
X22860000Y-240000D02*
X22860000Y-4540000D01*
X31875000Y8775000D02*
X22860000Y-240000D01*
X22860000Y-61690000D02*
X22860000Y-42640000D01*
X58125000Y8775000D02*
X31875000Y8775000D01*
X22860000Y-23589999D02*
X22860000Y-4540000D01*
X59626835Y7273165D02*
X58125000Y8775000D01*
X109775000Y7273165D02*
X59626835Y7273165D01*
X22860000Y-42640000D02*
X22860000Y-23589999D01*
%TO.N,COL3*%
X41910000Y460000D02*
X41910000Y-18590000D01*
X41910000Y-37640000D02*
X41910000Y-56690000D01*
X59325000Y6725000D02*
X57900479Y8149521D01*
X94425000Y5874162D02*
X93825838Y5874162D01*
X41910000Y3461735D02*
X41910000Y460000D01*
X93825838Y5874162D02*
X92975000Y6725000D01*
X41910000Y-18590000D02*
X41910000Y-37640000D01*
X46597786Y8149521D02*
X41910000Y3461735D01*
X92975000Y6725000D02*
X59325000Y6725000D01*
X57900479Y8149521D02*
X46597786Y8149521D01*
%TO.N,COL4*%
X91425000Y5175000D02*
X90825000Y5775000D01*
X60960000Y-54690000D02*
X60960000Y-35639999D01*
X68050843Y6149521D02*
X67499521Y6149521D01*
X70485000Y-75740000D02*
X70485000Y-68025000D01*
X70485000Y-68025000D02*
X59690000Y-57230000D01*
X90825000Y5775000D02*
X68425364Y5775000D01*
X68425364Y5775000D02*
X68050843Y6149521D01*
X60960000Y-35639999D02*
X60960000Y-16590002D01*
X91925000Y5175000D02*
X91425000Y5175000D01*
X62491000Y1141000D02*
X62491000Y-80000D01*
X67499521Y6149521D02*
X62491000Y1141000D01*
X60960002Y-16590000D02*
X60960002Y2459998D01*
%TO.N,COL5*%
X80010000Y460000D02*
X80010000Y-18590000D01*
X80875000Y4375000D02*
X80010000Y3510000D01*
X89425000Y4375000D02*
X80875000Y4375000D01*
X89535000Y-70025000D02*
X89535000Y-77740000D01*
X80010000Y3510000D02*
X80010000Y460000D01*
X80010000Y-37640000D02*
X80010000Y-56690000D01*
X80010000Y-18590000D02*
X80010000Y-37640000D01*
X78740000Y-59230000D02*
X89535000Y-70025000D01*
%TO.N,SWDIO*%
X102925000Y8871684D02*
X102921684Y8875000D01*
X61010000Y8875000D02*
X58545000Y11340000D01*
X58545000Y11340000D02*
X58420000Y11340000D01*
X102921684Y8875000D02*
X61010000Y8875000D01*
%TO.N,SWCLK*%
X105325000Y8875000D02*
X104722184Y8272184D01*
X104722184Y8272184D02*
X60342816Y8272184D01*
X60342816Y8272184D02*
X57150000Y11465000D01*
D32*
%TO.N,VDDH*%
X115875000Y-18725000D02*
X115895000Y-18705000D01*
D36*
X109275000Y-4975000D02*
X109085244Y-4975000D01*
D37*
X109525000Y-22525000D02*
X113325000Y-18725000D01*
D36*
X108575489Y-5484755D02*
X108575489Y-21725489D01*
X109085244Y-4975000D02*
X108575489Y-5484755D01*
D32*
X115895000Y-18705000D02*
X116825000Y-18705000D01*
D36*
X108575489Y-21725489D02*
X109375000Y-22525000D01*
X109375000Y-22525000D02*
X109525000Y-22525000D01*
D37*
X113325000Y-18725000D02*
X115875000Y-18725000D01*
%TO.N,/Power Management/CHG*%
X108405903Y-25355983D02*
X108405903Y-25094097D01*
X111025000Y-22475000D02*
X119025000Y-22475000D01*
X108405903Y-25094097D02*
X111025000Y-22475000D01*
%TO.N,/USB-C/CC2*%
X110200505Y-9950008D02*
X111550008Y-9950008D01*
X111550008Y-9950008D02*
X112325000Y-10725000D01*
X110175000Y-9924503D02*
X110200505Y-9950008D01*
X112325000Y-10725000D02*
X114180000Y-10725000D01*
D35*
%TO.N,/USB-C/CC1*%
X110075000Y-15975497D02*
X110324503Y-15975497D01*
X110324503Y-15975497D02*
X112575000Y-13725000D01*
X112575000Y-13725000D02*
X114180000Y-13725000D01*
D37*
%TO.N,/Power Management/SYSOFF*%
X117625000Y-26725000D02*
X118375000Y-27475000D01*
D32*
%TO.N,VDD*%
X59035000Y13225000D02*
X58420000Y12610000D01*
X60175000Y13225000D02*
X59035000Y13225000D01*
X61425000Y11975000D02*
X60175000Y13225000D01*
D37*
%TO.N,RESET*%
X118200000Y-39725000D02*
X118200000Y-35225000D01*
D35*
X111523335Y-1975000D02*
X113925000Y426665D01*
X107500000Y-40100000D02*
X117000000Y-40100000D01*
D37*
X117000000Y-40100000D02*
X117800000Y-40100000D01*
D35*
X104925000Y-2625000D02*
X104925000Y-37525000D01*
X111475000Y-1975000D02*
X111275000Y-1775000D01*
X58415000Y13875000D02*
X57150000Y12610000D01*
X113925000Y426665D02*
X113925000Y6975000D01*
X104925000Y-37525000D02*
X107500000Y-40100000D01*
X113925000Y6975000D02*
X111275000Y9625000D01*
X65825000Y9625000D02*
X61575000Y13875000D01*
X111275000Y9625000D02*
X65825000Y9625000D01*
X105775000Y-1775000D02*
X104925000Y-2625000D01*
X61575000Y13875000D02*
X58415000Y13875000D01*
X111275000Y-1775000D02*
X105775000Y-1775000D01*
X111475000Y-1975000D02*
X111523335Y-1975000D01*
%TO.N,Net-(R6-Pad1)*%
X115800480Y-29746344D02*
X115800480Y-26499520D01*
X116578636Y-30524500D02*
X115800480Y-29746344D01*
X115800480Y-26499520D02*
X117075000Y-25225000D01*
X117075000Y-30524500D02*
X116578636Y-30524500D01*
D38*
%TO.N,D+*%
X115331502Y-11881502D02*
X115175000Y-11725000D01*
X115331502Y-12725000D02*
X114180000Y-12725000D01*
X115331502Y-12725000D02*
X115331502Y-11881502D01*
X115175000Y-11725000D02*
X114180000Y-11725000D01*
%TO.N,D-*%
X113225619Y-12345619D02*
X112875608Y-12695630D01*
X113225619Y-13104381D02*
X113346238Y-13225000D01*
X113346238Y-12225000D02*
X113225619Y-12345619D01*
X113225619Y-12345619D02*
X113225619Y-13104381D01*
X112875608Y-12695630D02*
X112504155Y-12695630D01*
X113346238Y-13225000D02*
X114180000Y-13225000D01*
X114180000Y-12225000D02*
X113346238Y-12225000D01*
D37*
%TO.N,Net-(D1-Pad1)*%
X119625000Y-19775000D02*
X119625000Y-18705000D01*
%TD*%
M02*
